%TF.GenerationSoftware,Altium Limited,Altium Designer,24.10.1 (45)*%
G04 Layer_Color=0*
%FSLAX45Y45*%
%MOMM*%
%TF.SameCoordinates,D700451D-F6DB-41F8-9F1A-DBDDD93A0A9D*%
%TF.FilePolarity,Positive*%
%TF.FileFunction,Plated,1,2,PTH,Drill*%
%TF.Part,Single*%
G01*
G75*
%TA.AperFunction,ComponentDrill*%
%ADD37C,0.65000*%
%ADD38C,0.70000*%
%ADD39C,0.90000*%
%ADD40C,0.90000*%
%ADD41C,1.00000*%
%ADD42C,0.65000*%
%TA.AperFunction,ViaDrill,NotFilled*%
%ADD43C,3.00000*%
%ADD44C,0.71120*%
D37*
X7666500Y4850000D02*
D03*
X8433500D02*
D03*
X13933501Y11100000D02*
D03*
X13166499D02*
D03*
X11983500D02*
D03*
X11216500D02*
D03*
X10033500D02*
D03*
X9266500D02*
D03*
X8083500D02*
D03*
X7316500D02*
D03*
X6283500D02*
D03*
X5516500D02*
D03*
X13450000Y6700000D02*
D03*
X13600000D02*
D03*
X11400000D02*
D03*
X11550000D02*
D03*
X9416499D02*
D03*
X9566499D02*
D03*
X7483000D02*
D03*
X7633000D02*
D03*
X5625000D02*
D03*
X5775000D02*
D03*
X10883500Y5450000D02*
D03*
X10116500D02*
D03*
X13466499Y7350000D02*
D03*
X14233501D02*
D03*
X11416500D02*
D03*
X12183500D02*
D03*
X9416500D02*
D03*
X10183500D02*
D03*
X5616500D02*
D03*
X6383500D02*
D03*
X7483000D02*
D03*
X8250000D02*
D03*
X12200000Y5450000D02*
D03*
X12350000D02*
D03*
X9533500Y4850000D02*
D03*
X8766500D02*
D03*
D38*
X11900000Y7700000D02*
D03*
X11400000D02*
D03*
X9900000D02*
D03*
X9400000D02*
D03*
X7950000D02*
D03*
X7450000D02*
D03*
X13350000Y9900000D02*
D03*
X13850000D02*
D03*
X5600000D02*
D03*
X6100000D02*
D03*
Y10500000D02*
D03*
X5600000D02*
D03*
X9400000Y8400000D02*
D03*
X9900000D02*
D03*
X9400000Y9883500D02*
D03*
X9900000D02*
D03*
Y10483500D02*
D03*
X9400000D02*
D03*
X13850000Y7700000D02*
D03*
X13350000D02*
D03*
X6100000D02*
D03*
X5600000D02*
D03*
X13850000Y10500000D02*
D03*
X13350000D02*
D03*
X11900000D02*
D03*
X11400000D02*
D03*
X7950000D02*
D03*
X7450000D02*
D03*
X13350000Y8400000D02*
D03*
X13850000D02*
D03*
X11400000D02*
D03*
X11900000D02*
D03*
X7450000D02*
D03*
X7950000D02*
D03*
X5600000D02*
D03*
X6100000D02*
D03*
X11400000Y9900000D02*
D03*
X11900000D02*
D03*
X7450000Y9900000D02*
D03*
X7950000D02*
D03*
D39*
X7825000Y3952500D02*
D03*
X7575000D02*
D03*
X7325000D02*
D03*
X7075000D02*
D03*
X6825000D02*
D03*
X6575000D02*
D03*
X6325000D02*
D03*
X6075000D02*
D03*
X5825000D02*
D03*
X5575000D02*
D03*
D40*
X11081000Y4783500D02*
D03*
X10827000D02*
D03*
X10573000D02*
D03*
X10319000D02*
D03*
X11081000Y4021500D02*
D03*
X10827000D02*
D03*
X10573000D02*
D03*
X10319000D02*
D03*
D41*
X14045000Y3750000D02*
D03*
Y3950000D02*
D03*
Y4500000D02*
D03*
Y4700000D02*
D03*
Y5450000D02*
D03*
Y5650000D02*
D03*
D42*
X9900000Y4016500D02*
D03*
Y4783500D02*
D03*
X11550000Y4066499D02*
D03*
Y4833500D02*
D03*
X11900000Y4066499D02*
D03*
Y4833500D02*
D03*
X14200000Y8433500D02*
D03*
Y7666500D02*
D03*
Y8716500D02*
D03*
Y9483500D02*
D03*
Y9916500D02*
D03*
Y10683500D02*
D03*
X12950000Y7700000D02*
D03*
Y8467000D02*
D03*
Y9733500D02*
D03*
Y8966500D02*
D03*
X12200000Y9883500D02*
D03*
Y10650500D02*
D03*
X12200000Y8433500D02*
D03*
Y7666500D02*
D03*
X11050000Y7700000D02*
D03*
Y8467000D02*
D03*
X11050000Y9733500D02*
D03*
Y8966500D02*
D03*
X10200000Y8433500D02*
D03*
Y7666500D02*
D03*
X9100000Y7683000D02*
D03*
Y8450000D02*
D03*
X9100000Y9733500D02*
D03*
Y8966500D02*
D03*
X10200000Y8716500D02*
D03*
Y9483500D02*
D03*
Y9850000D02*
D03*
Y10617001D02*
D03*
X6400000Y9866500D02*
D03*
Y10633500D02*
D03*
X8250000Y9866500D02*
D03*
Y10633500D02*
D03*
Y8716500D02*
D03*
Y9483500D02*
D03*
X7100000Y9733500D02*
D03*
Y8966500D02*
D03*
X5300000Y9726501D02*
D03*
Y8959501D02*
D03*
X6400000Y8716500D02*
D03*
Y9483500D02*
D03*
X8250000Y8433500D02*
D03*
Y7666500D02*
D03*
X7100000Y7666500D02*
D03*
Y8433500D02*
D03*
X5300000Y7666500D02*
D03*
Y8433500D02*
D03*
X6367001D02*
D03*
Y7666500D02*
D03*
X12200000Y8716500D02*
D03*
Y9483500D02*
D03*
X13350000Y4066500D02*
D03*
Y4833500D02*
D03*
X12400000Y4324999D02*
D03*
Y4475000D02*
D03*
X12850000Y4066499D02*
D03*
Y4833500D02*
D03*
D43*
X5250000Y11500000D02*
D03*
Y3250000D02*
D03*
X14750000D02*
D03*
Y11500000D02*
D03*
D44*
X12250000Y6400000D02*
D03*
X13600000Y5250000D02*
D03*
Y4550000D02*
D03*
X14000000Y6400000D02*
D03*
X12850000Y5750000D02*
D03*
X11550000Y5150000D02*
D03*
X7350000Y3300000D02*
D03*
X8550000Y4000000D02*
D03*
X9050000Y4850000D02*
D03*
X14350000Y9350000D02*
D03*
X12350000D02*
D03*
X10350000D02*
D03*
X8400000D02*
D03*
X6600000D02*
D03*
X13050000Y9200000D02*
D03*
X11150000D02*
D03*
X9150000D02*
D03*
X7200000D02*
D03*
X5350000D02*
D03*
%TF.MD5,f1801bcd7ada30e91e606ba5d56fd2db*%
M02*
