%TF.GenerationSoftware,Altium Limited,Altium Designer,24.10.1 (45)*%
G04 Layer_Physical_Order=2*
G04 Layer_Color=16711680*
%FSLAX45Y45*%
%MOMM*%
%TF.SameCoordinates,D700451D-F6DB-41F8-9F1A-DBDDD93A0A9D*%
%TF.FilePolarity,Positive*%
%TF.FileFunction,Copper,L2,Bot,Signal*%
%TF.Part,Single*%
G01*
G75*
%TA.AperFunction,Conductor*%
%ADD12C,0.25400*%
%TA.AperFunction,ComponentPad*%
%ADD13R,1.15000X1.15000*%
%ADD14C,1.15000*%
%ADD15C,1.20000*%
%ADD16R,1.20000X1.20000*%
%ADD17C,1.40000*%
%ADD18R,1.40000X1.40000*%
%ADD19R,1.50000X1.50000*%
%ADD20C,1.50000*%
%ADD21R,1.15000X1.15000*%
%TA.AperFunction,ViaPad*%
%ADD22C,3.00000*%
%ADD23C,1.27000*%
G36*
X15000000Y2996494D02*
X5003506D01*
X4996818Y2999265D01*
Y11746818D01*
X5000000Y11750000D01*
X15000000D01*
Y2996494D01*
D02*
G37*
%LPC*%
G36*
X14767274Y11675400D02*
X14732726D01*
X14698837Y11668659D01*
X14666917Y11655437D01*
X14638190Y11636242D01*
X14613757Y11611811D01*
X14594563Y11583083D01*
X14581342Y11551162D01*
X14574600Y11517275D01*
Y11482725D01*
X14581342Y11448838D01*
X14594563Y11416917D01*
X14613757Y11388189D01*
X14638190Y11363758D01*
X14666917Y11344563D01*
X14698837Y11331341D01*
X14732726Y11324600D01*
X14767274D01*
X14801163Y11331341D01*
X14833083Y11344563D01*
X14861810Y11363758D01*
X14886243Y11388189D01*
X14905437Y11416917D01*
X14918658Y11448838D01*
X14925400Y11482725D01*
Y11517275D01*
X14918658Y11551162D01*
X14905437Y11583083D01*
X14886243Y11611811D01*
X14861810Y11636242D01*
X14833083Y11655437D01*
X14801163Y11668659D01*
X14767274Y11675400D01*
D02*
G37*
G36*
X5267275D02*
X5232725D01*
X5198838Y11668659D01*
X5166917Y11655437D01*
X5138189Y11636242D01*
X5113758Y11611811D01*
X5094563Y11583083D01*
X5081341Y11551162D01*
X5074600Y11517275D01*
Y11482725D01*
X5081341Y11448838D01*
X5094563Y11416917D01*
X5113758Y11388189D01*
X5138189Y11363758D01*
X5166917Y11344563D01*
X5198838Y11331341D01*
X5232725Y11324600D01*
X5267275D01*
X5301162Y11331341D01*
X5333083Y11344563D01*
X5361811Y11363758D01*
X5386242Y11388189D01*
X5405437Y11416917D01*
X5418659Y11448838D01*
X5425400Y11482725D01*
Y11517275D01*
X5418659Y11551162D01*
X5405437Y11583083D01*
X5386242Y11611811D01*
X5361811Y11636242D01*
X5333083Y11655437D01*
X5301162Y11668659D01*
X5267275Y11675400D01*
D02*
G37*
G36*
X14016400Y11182900D02*
X13850600D01*
Y11017100D01*
X14016400D01*
Y11182900D01*
D02*
G37*
G36*
X13177414D02*
X13155586D01*
X13134502Y11177251D01*
X13115598Y11166337D01*
X13100163Y11150902D01*
X13089249Y11131998D01*
X13083600Y11110914D01*
Y11089086D01*
X13089249Y11068002D01*
X13100163Y11049098D01*
X13115598Y11033664D01*
X13134502Y11022750D01*
X13155586Y11017100D01*
X13177414D01*
X13198499Y11022750D01*
X13217403Y11033664D01*
X13232835Y11049098D01*
X13243752Y11068002D01*
X13249400Y11089086D01*
Y11110914D01*
X13243752Y11131998D01*
X13232835Y11150902D01*
X13217403Y11166337D01*
X13198499Y11177251D01*
X13177414Y11182900D01*
D02*
G37*
G36*
X12066400D02*
X11900600D01*
Y11017100D01*
X12066400D01*
Y11182900D01*
D02*
G37*
G36*
X11227414D02*
X11205586D01*
X11184502Y11177251D01*
X11165598Y11166337D01*
X11150163Y11150902D01*
X11139249Y11131998D01*
X11133600Y11110914D01*
Y11089086D01*
X11139249Y11068002D01*
X11150163Y11049098D01*
X11165598Y11033664D01*
X11184502Y11022750D01*
X11205586Y11017100D01*
X11227414D01*
X11248498Y11022750D01*
X11267402Y11033664D01*
X11282836Y11049098D01*
X11293750Y11068002D01*
X11299400Y11089086D01*
Y11110914D01*
X11293750Y11131998D01*
X11282836Y11150902D01*
X11267402Y11166337D01*
X11248498Y11177251D01*
X11227414Y11182900D01*
D02*
G37*
G36*
X10116400D02*
X9950600D01*
Y11017100D01*
X10116400D01*
Y11182900D01*
D02*
G37*
G36*
X9277414D02*
X9255586D01*
X9234502Y11177251D01*
X9215598Y11166337D01*
X9200163Y11150902D01*
X9189249Y11131998D01*
X9183600Y11110914D01*
Y11089086D01*
X9189249Y11068002D01*
X9200163Y11049098D01*
X9215598Y11033664D01*
X9234502Y11022750D01*
X9255586Y11017100D01*
X9277414D01*
X9298498Y11022750D01*
X9317402Y11033664D01*
X9332836Y11049098D01*
X9343750Y11068002D01*
X9349400Y11089086D01*
Y11110914D01*
X9343750Y11131998D01*
X9332836Y11150902D01*
X9317402Y11166337D01*
X9298498Y11177251D01*
X9277414Y11182900D01*
D02*
G37*
G36*
X8166400D02*
X8000600D01*
Y11017100D01*
X8166400D01*
Y11182900D01*
D02*
G37*
G36*
X7327414D02*
X7305586D01*
X7284502Y11177251D01*
X7265598Y11166337D01*
X7250164Y11150902D01*
X7239249Y11131998D01*
X7233600Y11110914D01*
Y11089086D01*
X7239249Y11068002D01*
X7250164Y11049098D01*
X7265598Y11033664D01*
X7284502Y11022750D01*
X7305586Y11017100D01*
X7327414D01*
X7348498Y11022750D01*
X7367402Y11033664D01*
X7382836Y11049098D01*
X7393751Y11068002D01*
X7399400Y11089086D01*
Y11110914D01*
X7393751Y11131998D01*
X7382836Y11150902D01*
X7367402Y11166337D01*
X7348498Y11177251D01*
X7327414Y11182900D01*
D02*
G37*
G36*
X6366400D02*
X6200600D01*
Y11017100D01*
X6366400D01*
Y11182900D01*
D02*
G37*
G36*
X5527414D02*
X5505586D01*
X5484502Y11177251D01*
X5465598Y11166337D01*
X5450163Y11150902D01*
X5439249Y11131998D01*
X5433600Y11110914D01*
Y11089086D01*
X5439249Y11068002D01*
X5450163Y11049098D01*
X5465598Y11033664D01*
X5484502Y11022750D01*
X5505586Y11017100D01*
X5527414D01*
X5548498Y11022750D01*
X5567402Y11033664D01*
X5582836Y11049098D01*
X5593750Y11068002D01*
X5599400Y11089086D01*
Y11110914D01*
X5593750Y11131998D01*
X5582836Y11150902D01*
X5567402Y11166337D01*
X5548498Y11177251D01*
X5527414Y11182900D01*
D02*
G37*
G36*
X14282899Y10766400D02*
X14117101D01*
Y10600600D01*
X14282899D01*
Y10766400D01*
D02*
G37*
G36*
X12282900Y10733400D02*
X12117100D01*
Y10567600D01*
X12282900D01*
Y10733400D01*
D02*
G37*
G36*
X8332900Y10716400D02*
X8167100D01*
Y10550600D01*
X8332900D01*
Y10716400D01*
D02*
G37*
G36*
X6482900D02*
X6317100D01*
Y10550600D01*
X6482900D01*
Y10716400D01*
D02*
G37*
G36*
X10282900Y10699901D02*
X10117100D01*
Y10534101D01*
X10282900D01*
Y10699901D01*
D02*
G37*
G36*
X13861243Y10585400D02*
X13838757D01*
X13817036Y10579580D01*
X13797563Y10568337D01*
X13781664Y10552437D01*
X13770419Y10532963D01*
X13764600Y10511243D01*
Y10488757D01*
X13770419Y10467037D01*
X13781664Y10447563D01*
X13797563Y10431663D01*
X13817036Y10420420D01*
X13838757Y10414600D01*
X13861243D01*
X13882964Y10420420D01*
X13902437Y10431663D01*
X13918336Y10447563D01*
X13929581Y10467037D01*
X13935400Y10488757D01*
Y10511243D01*
X13929581Y10532963D01*
X13918336Y10552437D01*
X13902437Y10568337D01*
X13882964Y10579580D01*
X13861243Y10585400D01*
D02*
G37*
G36*
X13435400D02*
X13264600D01*
Y10414600D01*
X13435400D01*
Y10585400D01*
D02*
G37*
G36*
X11911243D02*
X11888757D01*
X11867037Y10579580D01*
X11847563Y10568337D01*
X11831663Y10552437D01*
X11820420Y10532963D01*
X11814600Y10511243D01*
Y10488757D01*
X11820420Y10467037D01*
X11831663Y10447563D01*
X11847563Y10431663D01*
X11867037Y10420420D01*
X11888757Y10414600D01*
X11911243D01*
X11932963Y10420420D01*
X11952437Y10431663D01*
X11968337Y10447563D01*
X11979580Y10467037D01*
X11985400Y10488757D01*
Y10511243D01*
X11979580Y10532963D01*
X11968337Y10552437D01*
X11952437Y10568337D01*
X11932963Y10579580D01*
X11911243Y10585400D01*
D02*
G37*
G36*
X11485400D02*
X11314600D01*
Y10414600D01*
X11485400D01*
Y10585400D01*
D02*
G37*
G36*
X7961243D02*
X7938757D01*
X7917037Y10579580D01*
X7897563Y10568337D01*
X7881663Y10552437D01*
X7870420Y10532963D01*
X7864600Y10511243D01*
Y10488757D01*
X7870420Y10467037D01*
X7881663Y10447563D01*
X7897563Y10431663D01*
X7917037Y10420420D01*
X7938757Y10414600D01*
X7961243D01*
X7982963Y10420420D01*
X8002437Y10431663D01*
X8018337Y10447563D01*
X8029580Y10467037D01*
X8035400Y10488757D01*
Y10511243D01*
X8029580Y10532963D01*
X8018337Y10552437D01*
X8002437Y10568337D01*
X7982963Y10579580D01*
X7961243Y10585400D01*
D02*
G37*
G36*
X7535400D02*
X7364600D01*
Y10414600D01*
X7535400D01*
Y10585400D01*
D02*
G37*
G36*
X6111243D02*
X6088757D01*
X6067037Y10579580D01*
X6047563Y10568337D01*
X6031663Y10552437D01*
X6020420Y10532963D01*
X6014600Y10511243D01*
Y10488757D01*
X6020420Y10467037D01*
X6031663Y10447563D01*
X6047563Y10431663D01*
X6067037Y10420420D01*
X6088757Y10414600D01*
X6111243D01*
X6132963Y10420420D01*
X6152437Y10431663D01*
X6168337Y10447563D01*
X6179580Y10467037D01*
X6185400Y10488757D01*
Y10511243D01*
X6179580Y10532963D01*
X6168337Y10552437D01*
X6152437Y10568337D01*
X6132963Y10579580D01*
X6111243Y10585400D01*
D02*
G37*
G36*
X5685400D02*
X5514600D01*
Y10414600D01*
X5685400D01*
Y10585400D01*
D02*
G37*
G36*
X9911243Y10568900D02*
X9888757D01*
X9867037Y10563080D01*
X9847563Y10551837D01*
X9831663Y10535937D01*
X9820420Y10516464D01*
X9814600Y10494744D01*
Y10472257D01*
X9820420Y10450537D01*
X9831663Y10431064D01*
X9847563Y10415164D01*
X9867037Y10403921D01*
X9888757Y10398101D01*
X9911243D01*
X9932963Y10403921D01*
X9952437Y10415164D01*
X9968337Y10431064D01*
X9979580Y10450537D01*
X9985400Y10472257D01*
Y10494744D01*
X9979580Y10516464D01*
X9968337Y10535937D01*
X9952437Y10551837D01*
X9932963Y10563080D01*
X9911243Y10568900D01*
D02*
G37*
G36*
X9485400D02*
X9314600D01*
Y10398101D01*
X9485400D01*
Y10568900D01*
D02*
G37*
G36*
X14210915Y9999400D02*
X14189085D01*
X14168002Y9993751D01*
X14149098Y9982837D01*
X14133664Y9967402D01*
X14122749Y9948498D01*
X14117101Y9927414D01*
Y9905586D01*
X14122749Y9884502D01*
X14133664Y9865598D01*
X14149098Y9850164D01*
X14168002Y9839250D01*
X14189085Y9833600D01*
X14210915D01*
X14231998Y9839250D01*
X14250902Y9850164D01*
X14266336Y9865598D01*
X14277251Y9884502D01*
X14282899Y9905586D01*
Y9927414D01*
X14277251Y9948498D01*
X14266336Y9967402D01*
X14250902Y9982837D01*
X14231998Y9993751D01*
X14210915Y9999400D01*
D02*
G37*
G36*
X8035400Y9985400D02*
X7864600D01*
Y9814600D01*
X8035400D01*
Y9985400D01*
D02*
G37*
G36*
X7461243D02*
X7438757D01*
X7417037Y9979580D01*
X7397563Y9968337D01*
X7381663Y9952437D01*
X7370420Y9932963D01*
X7364600Y9911243D01*
Y9888757D01*
X7370420Y9867037D01*
X7381663Y9847563D01*
X7397563Y9831663D01*
X7417037Y9820420D01*
X7438757Y9814600D01*
X7461243D01*
X7482963Y9820420D01*
X7502437Y9831663D01*
X7518337Y9847563D01*
X7529580Y9867037D01*
X7535400Y9888757D01*
Y9911243D01*
X7529580Y9932963D01*
X7518337Y9952437D01*
X7502437Y9968337D01*
X7482963Y9979580D01*
X7461243Y9985400D01*
D02*
G37*
G36*
X13935400Y9985400D02*
X13764600D01*
Y9814600D01*
X13935400D01*
Y9985400D01*
D02*
G37*
G36*
X13361243D02*
X13338757D01*
X13317036Y9979580D01*
X13297563Y9968337D01*
X13281664Y9952437D01*
X13270419Y9932963D01*
X13264600Y9911243D01*
Y9888757D01*
X13270419Y9867037D01*
X13281664Y9847563D01*
X13297563Y9831663D01*
X13317036Y9820420D01*
X13338757Y9814600D01*
X13361243D01*
X13382964Y9820420D01*
X13402437Y9831663D01*
X13418336Y9847563D01*
X13429581Y9867037D01*
X13435400Y9888757D01*
Y9911243D01*
X13429581Y9932963D01*
X13418336Y9952437D01*
X13402437Y9968337D01*
X13382964Y9979580D01*
X13361243Y9985400D01*
D02*
G37*
G36*
X11985400D02*
X11814600D01*
Y9814600D01*
X11985400D01*
Y9985400D01*
D02*
G37*
G36*
X11411243D02*
X11388757D01*
X11367037Y9979580D01*
X11347563Y9968337D01*
X11331663Y9952437D01*
X11320420Y9932963D01*
X11314600Y9911243D01*
Y9888757D01*
X11320420Y9867037D01*
X11331663Y9847563D01*
X11347563Y9831663D01*
X11367037Y9820420D01*
X11388757Y9814600D01*
X11411243D01*
X11432963Y9820420D01*
X11452437Y9831663D01*
X11468337Y9847563D01*
X11479580Y9867037D01*
X11485400Y9888757D01*
Y9911243D01*
X11479580Y9932963D01*
X11468337Y9952437D01*
X11452437Y9968337D01*
X11432963Y9979580D01*
X11411243Y9985400D01*
D02*
G37*
G36*
X6185400D02*
X6014600D01*
Y9814600D01*
X6185400D01*
Y9985400D01*
D02*
G37*
G36*
X5611243D02*
X5588757D01*
X5567037Y9979580D01*
X5547563Y9968337D01*
X5531663Y9952437D01*
X5520420Y9932963D01*
X5514600Y9911243D01*
Y9888757D01*
X5520420Y9867037D01*
X5531663Y9847563D01*
X5547563Y9831663D01*
X5567037Y9820420D01*
X5588757Y9814600D01*
X5611243D01*
X5632963Y9820420D01*
X5652437Y9831663D01*
X5668337Y9847563D01*
X5679580Y9867037D01*
X5685400Y9888757D01*
Y9911243D01*
X5679580Y9932963D01*
X5668337Y9952437D01*
X5652437Y9968337D01*
X5632963Y9979580D01*
X5611243Y9985400D01*
D02*
G37*
G36*
X12210914Y9966400D02*
X12189086D01*
X12168002Y9960750D01*
X12149098Y9949836D01*
X12133664Y9934402D01*
X12122750Y9915498D01*
X12117100Y9894414D01*
Y9872586D01*
X12122750Y9851502D01*
X12133664Y9832598D01*
X12149098Y9817163D01*
X12168002Y9806249D01*
X12189086Y9800600D01*
X12210914D01*
X12231998Y9806249D01*
X12250902Y9817163D01*
X12266337Y9832598D01*
X12277251Y9851502D01*
X12282900Y9872586D01*
Y9894414D01*
X12277251Y9915498D01*
X12266337Y9934402D01*
X12250902Y9949836D01*
X12231998Y9960750D01*
X12210914Y9966400D01*
D02*
G37*
G36*
X9985400Y9968900D02*
X9814600D01*
Y9798101D01*
X9985400D01*
Y9968900D01*
D02*
G37*
G36*
X9411243D02*
X9388757D01*
X9367037Y9963080D01*
X9347563Y9951837D01*
X9331663Y9935937D01*
X9320420Y9916464D01*
X9314600Y9894743D01*
Y9872257D01*
X9320420Y9850537D01*
X9331663Y9831064D01*
X9347563Y9815164D01*
X9367037Y9803920D01*
X9388757Y9798101D01*
X9411243D01*
X9432963Y9803920D01*
X9452437Y9815164D01*
X9468337Y9831064D01*
X9479580Y9850537D01*
X9485400Y9872257D01*
Y9894743D01*
X9479580Y9916464D01*
X9468337Y9935937D01*
X9452437Y9951837D01*
X9432963Y9963080D01*
X9411243Y9968900D01*
D02*
G37*
G36*
X8260914Y9949400D02*
X8239086D01*
X8218002Y9943750D01*
X8199098Y9932836D01*
X8183664Y9917402D01*
X8172750Y9898498D01*
X8167100Y9877414D01*
Y9855586D01*
X8172750Y9834502D01*
X8183664Y9815598D01*
X8199098Y9800164D01*
X8218002Y9789249D01*
X8239086Y9783600D01*
X8260914D01*
X8281998Y9789249D01*
X8300902Y9800164D01*
X8316337Y9815598D01*
X8327251Y9834502D01*
X8332900Y9855586D01*
Y9877414D01*
X8327251Y9898498D01*
X8316337Y9917402D01*
X8300902Y9932836D01*
X8281998Y9943750D01*
X8260914Y9949400D01*
D02*
G37*
G36*
X6410914D02*
X6389086D01*
X6368002Y9943750D01*
X6349098Y9932836D01*
X6333663Y9917402D01*
X6322749Y9898498D01*
X6317100Y9877414D01*
Y9855586D01*
X6322749Y9834502D01*
X6333663Y9815598D01*
X6349098Y9800164D01*
X6368002Y9789249D01*
X6389086Y9783600D01*
X6410914D01*
X6431998Y9789249D01*
X6450902Y9800164D01*
X6466336Y9815598D01*
X6477250Y9834502D01*
X6482900Y9855586D01*
Y9877414D01*
X6477250Y9898498D01*
X6466336Y9917402D01*
X6450902Y9932836D01*
X6431998Y9943750D01*
X6410914Y9949400D01*
D02*
G37*
G36*
X10210914Y9932900D02*
X10189086D01*
X10168002Y9927251D01*
X10149098Y9916337D01*
X10133664Y9900902D01*
X10122749Y9881999D01*
X10117100Y9860914D01*
Y9839086D01*
X10122749Y9818002D01*
X10133664Y9799099D01*
X10149098Y9783664D01*
X10168002Y9772750D01*
X10189086Y9767100D01*
X10210914D01*
X10231998Y9772750D01*
X10250902Y9783664D01*
X10266336Y9799099D01*
X10277250Y9818002D01*
X10282900Y9839086D01*
Y9860914D01*
X10277250Y9881999D01*
X10266336Y9900902D01*
X10250902Y9916337D01*
X10231998Y9927251D01*
X10210914Y9932900D01*
D02*
G37*
G36*
X12960915Y9816400D02*
X12939085D01*
X12918002Y9810751D01*
X12899098Y9799837D01*
X12883664Y9784402D01*
X12872749Y9765498D01*
X12867101Y9744414D01*
Y9722586D01*
X12872749Y9701502D01*
X12883664Y9682598D01*
X12899098Y9667164D01*
X12918002Y9656250D01*
X12939085Y9650600D01*
X12960915D01*
X12981998Y9656250D01*
X13000902Y9667164D01*
X13016336Y9682598D01*
X13027251Y9701502D01*
X13032899Y9722586D01*
Y9744414D01*
X13027251Y9765498D01*
X13016336Y9784402D01*
X13000902Y9799837D01*
X12981998Y9810751D01*
X12960915Y9816400D01*
D02*
G37*
G36*
X11060914D02*
X11039086D01*
X11018002Y9810751D01*
X10999098Y9799837D01*
X10983663Y9784402D01*
X10972749Y9765498D01*
X10967100Y9744414D01*
Y9722586D01*
X10972749Y9701502D01*
X10983663Y9682598D01*
X10999098Y9667164D01*
X11018002Y9656250D01*
X11039086Y9650600D01*
X11060914D01*
X11081998Y9656250D01*
X11100902Y9667164D01*
X11116336Y9682598D01*
X11127250Y9701502D01*
X11132900Y9722586D01*
Y9744414D01*
X11127250Y9765498D01*
X11116336Y9784402D01*
X11100902Y9799837D01*
X11081998Y9810751D01*
X11060914Y9816400D01*
D02*
G37*
G36*
X9110914D02*
X9089086D01*
X9068002Y9810751D01*
X9049098Y9799837D01*
X9033664Y9784402D01*
X9022750Y9765498D01*
X9017100Y9744414D01*
Y9722586D01*
X9022750Y9701502D01*
X9033664Y9682598D01*
X9049098Y9667164D01*
X9068002Y9656250D01*
X9089086Y9650600D01*
X9110914D01*
X9131998Y9656250D01*
X9150902Y9667164D01*
X9166337Y9682598D01*
X9177251Y9701502D01*
X9182900Y9722586D01*
Y9744414D01*
X9177251Y9765498D01*
X9166337Y9784402D01*
X9150902Y9799837D01*
X9131998Y9810751D01*
X9110914Y9816400D01*
D02*
G37*
G36*
X7110914D02*
X7089086D01*
X7068002Y9810751D01*
X7049098Y9799837D01*
X7033664Y9784402D01*
X7022749Y9765498D01*
X7017100Y9744414D01*
Y9722586D01*
X7022749Y9701502D01*
X7033664Y9682598D01*
X7049098Y9667164D01*
X7068002Y9656250D01*
X7089086Y9650600D01*
X7110914D01*
X7131998Y9656250D01*
X7150902Y9667164D01*
X7166336Y9682598D01*
X7177251Y9701502D01*
X7182900Y9722586D01*
Y9744414D01*
X7177251Y9765498D01*
X7166336Y9784402D01*
X7150902Y9799837D01*
X7131998Y9810751D01*
X7110914Y9816400D01*
D02*
G37*
G36*
X5310914Y9809401D02*
X5289086D01*
X5268002Y9803752D01*
X5249098Y9792837D01*
X5233663Y9777403D01*
X5222749Y9758499D01*
X5217100Y9737415D01*
Y9715587D01*
X5222749Y9694503D01*
X5233663Y9675599D01*
X5249098Y9660165D01*
X5268002Y9649250D01*
X5289086Y9643601D01*
X5310914D01*
X5331998Y9649250D01*
X5350902Y9660165D01*
X5366336Y9675599D01*
X5377250Y9694503D01*
X5382900Y9715587D01*
Y9737415D01*
X5377250Y9758499D01*
X5366336Y9777403D01*
X5350902Y9792837D01*
X5331998Y9803752D01*
X5310914Y9809401D01*
D02*
G37*
G36*
X14282899Y9566400D02*
X14117101D01*
Y9400600D01*
X14117101D01*
X14114815Y9388847D01*
X12430225D01*
X12421138Y9404586D01*
X12404586Y9421138D01*
X12384314Y9432842D01*
X12361704Y9438900D01*
X12338296D01*
X12315686Y9432842D01*
X12295414Y9421138D01*
X12294633Y9420357D01*
X12282900Y9425217D01*
Y9566400D01*
X12117100D01*
Y9400600D01*
X12117100D01*
X12114815Y9388847D01*
X10430225D01*
X10421138Y9404586D01*
X10404586Y9421138D01*
X10384314Y9432842D01*
X10361704Y9438900D01*
X10338296D01*
X10315686Y9432842D01*
X10295414Y9421138D01*
X10294633Y9420357D01*
X10282900Y9425217D01*
Y9566400D01*
X10117100D01*
Y9400600D01*
X10117100D01*
X10114815Y9388847D01*
X8480225D01*
X8471138Y9404586D01*
X8454586Y9421138D01*
X8434314Y9432842D01*
X8411704Y9438900D01*
X8388296D01*
X8365686Y9432842D01*
X8345414Y9421138D01*
X8344634Y9420357D01*
X8332900Y9425218D01*
Y9566400D01*
X8167100D01*
Y9400600D01*
X8167100D01*
X8164815Y9388847D01*
X6680225D01*
X6671138Y9404586D01*
X6654586Y9421138D01*
X6634314Y9432842D01*
X6611704Y9438900D01*
X6588296D01*
X6565686Y9432842D01*
X6545414Y9421138D01*
X6528862Y9404586D01*
X6517158Y9384314D01*
X6511100Y9361704D01*
Y9338296D01*
X6517158Y9315686D01*
X6528862Y9295414D01*
X6545414Y9278862D01*
X6565686Y9267159D01*
X6588296Y9261100D01*
X6611704D01*
X6634314Y9267159D01*
X6654586Y9278862D01*
X6671138Y9295414D01*
X6680225Y9311154D01*
X8319775D01*
X8328862Y9295414D01*
X8345414Y9278862D01*
X8365686Y9267159D01*
X8388296Y9261100D01*
X8411704D01*
X8434314Y9267159D01*
X8454586Y9278862D01*
X8471138Y9295414D01*
X8480225Y9311154D01*
X10269775D01*
X10278862Y9295414D01*
X10295414Y9278862D01*
X10315686Y9267159D01*
X10338296Y9261100D01*
X10361704D01*
X10384314Y9267159D01*
X10404586Y9278862D01*
X10421138Y9295414D01*
X10430225Y9311154D01*
X12269775D01*
X12278862Y9295414D01*
X12295414Y9278862D01*
X12315686Y9267159D01*
X12338296Y9261100D01*
X12361704D01*
X12384314Y9267159D01*
X12404586Y9278862D01*
X12421138Y9295414D01*
X12430225Y9311154D01*
X14269775D01*
X14278862Y9295414D01*
X14295415Y9278862D01*
X14315686Y9267159D01*
X14338297Y9261100D01*
X14361703D01*
X14384314Y9267159D01*
X14404585Y9278862D01*
X14421138Y9295414D01*
X14432841Y9315686D01*
X14438901Y9338296D01*
Y9361704D01*
X14432841Y9384314D01*
X14421138Y9404586D01*
X14404585Y9421138D01*
X14384314Y9432842D01*
X14361703Y9438900D01*
X14338297D01*
X14315686Y9432842D01*
X14295415Y9421138D01*
X14294633Y9420357D01*
X14282899Y9425217D01*
Y9566400D01*
D02*
G37*
G36*
X6482900D02*
X6317100D01*
Y9400600D01*
X6482900D01*
Y9566400D01*
D02*
G37*
G36*
X13061703Y9288900D02*
X13038297D01*
X13015686Y9282841D01*
X12995415Y9271138D01*
X12978862Y9254586D01*
X12969775Y9238846D01*
X11230225D01*
X11221138Y9254586D01*
X11204586Y9271138D01*
X11184314Y9282841D01*
X11161704Y9288900D01*
X11138296D01*
X11115686Y9282841D01*
X11095414Y9271138D01*
X11078862Y9254586D01*
X11069775Y9238846D01*
X9230225D01*
X9221138Y9254586D01*
X9204586Y9271138D01*
X9184314Y9282841D01*
X9161704Y9288900D01*
X9138296D01*
X9115686Y9282841D01*
X9095414Y9271138D01*
X9078862Y9254586D01*
X9069775Y9238846D01*
X7280225D01*
X7271138Y9254586D01*
X7254586Y9271138D01*
X7234314Y9282841D01*
X7211704Y9288900D01*
X7188296D01*
X7165686Y9282841D01*
X7145414Y9271138D01*
X7128862Y9254586D01*
X7119775Y9238846D01*
X5430225D01*
X5421138Y9254586D01*
X5404586Y9271138D01*
X5384314Y9282841D01*
X5361704Y9288900D01*
X5338296D01*
X5315686Y9282841D01*
X5295414Y9271138D01*
X5278862Y9254586D01*
X5267158Y9234314D01*
X5261100Y9211704D01*
Y9188296D01*
X5267158Y9165686D01*
X5278862Y9145414D01*
X5295414Y9128862D01*
X5315686Y9117158D01*
X5338296Y9111100D01*
X5361704D01*
X5384314Y9117158D01*
X5404586Y9128862D01*
X5421138Y9145414D01*
X5430225Y9161153D01*
X7119775D01*
X7128862Y9145414D01*
X7145414Y9128862D01*
X7165686Y9117158D01*
X7188296Y9111100D01*
X7211704D01*
X7234314Y9117158D01*
X7254586Y9128862D01*
X7271138Y9145414D01*
X7280225Y9161153D01*
X9069775D01*
X9078862Y9145414D01*
X9095414Y9128862D01*
X9115686Y9117158D01*
X9138296Y9111100D01*
X9161704D01*
X9184314Y9117158D01*
X9204586Y9128862D01*
X9221138Y9145414D01*
X9230225Y9161153D01*
X11069775D01*
X11078862Y9145414D01*
X11095414Y9128862D01*
X11115686Y9117158D01*
X11138296Y9111100D01*
X11161704D01*
X11184314Y9117158D01*
X11204586Y9128862D01*
X11221138Y9145414D01*
X11230225Y9161153D01*
X12969775D01*
X12978862Y9145414D01*
X12995415Y9128862D01*
X13015686Y9117158D01*
X13038297Y9111100D01*
X13061703D01*
X13079259Y9115804D01*
X13172531Y9022531D01*
X13185133Y9014110D01*
X13200000Y9011153D01*
X14583910D01*
X14661154Y8933909D01*
Y5988847D01*
X13800000D01*
X13785133Y5985889D01*
X13772533Y5977469D01*
X13572531Y5777469D01*
X13564111Y5764866D01*
X13561153Y5750000D01*
Y5330225D01*
X13545415Y5321138D01*
X13528862Y5304586D01*
X13517159Y5284314D01*
X13511099Y5261704D01*
Y5238296D01*
X13517159Y5215686D01*
X13528862Y5195414D01*
X13545415Y5178862D01*
X13565686Y5167158D01*
X13588297Y5161100D01*
X13611703D01*
X13634314Y5167158D01*
X13654585Y5178862D01*
X13671138Y5195414D01*
X13682841Y5215686D01*
X13688901Y5238296D01*
Y5261704D01*
X13682841Y5284314D01*
X13671138Y5304586D01*
X13654585Y5321138D01*
X13638846Y5330225D01*
Y5733909D01*
X13816090Y5911154D01*
X14685121D01*
X14699986Y5914111D01*
X14712590Y5922531D01*
X14727469Y5937411D01*
X14735890Y5950013D01*
X14738847Y5964879D01*
Y8950000D01*
X14735890Y8964866D01*
X14727469Y8977468D01*
X14627469Y9077469D01*
X14614867Y9085889D01*
X14600000Y9088846D01*
X13216090D01*
X13134196Y9170741D01*
X13138901Y9188296D01*
Y9211704D01*
X13132841Y9234314D01*
X13121138Y9254586D01*
X13104585Y9271138D01*
X13084314Y9282841D01*
X13061703Y9288900D01*
D02*
G37*
G36*
X12937300Y9049400D02*
X12867101D01*
Y9005346D01*
X11132900D01*
Y9049400D01*
X11062699D01*
Y8966500D01*
X11037299D01*
Y9049400D01*
X10967100D01*
Y9005346D01*
X9182900D01*
Y9049400D01*
X9112700D01*
Y8966500D01*
X9087300D01*
Y9049400D01*
X9017100D01*
Y9005346D01*
X7182900D01*
Y9049400D01*
X7112700D01*
Y8966500D01*
X7087300D01*
Y9049400D01*
X7017100D01*
Y8998347D01*
X5382900D01*
Y9042401D01*
X5312699D01*
Y8959501D01*
X5299999D01*
Y8946801D01*
X5217100D01*
Y8876601D01*
X5261153D01*
Y8516400D01*
X5217100D01*
Y8446200D01*
X5300000D01*
X5382900D01*
Y8516400D01*
X5338846D01*
Y8876601D01*
X5382900D01*
Y8920654D01*
X7017100D01*
Y8883600D01*
X7061154D01*
Y8516400D01*
X7017100D01*
Y8446200D01*
X7100000D01*
X7182900D01*
Y8516400D01*
X7138847D01*
Y8883600D01*
X7182900D01*
Y8927653D01*
X9017100D01*
Y8883600D01*
X9061154D01*
Y8532900D01*
X9017100D01*
Y8462700D01*
X9100000D01*
X9182900D01*
Y8532900D01*
X9138847D01*
Y8883600D01*
X9182900D01*
Y8927653D01*
X10967100D01*
Y8883600D01*
X11011153D01*
Y8549900D01*
X10967100D01*
Y8479700D01*
X11049999D01*
Y8467000D01*
D01*
Y8479700D01*
X11132900D01*
Y8549900D01*
X11088846D01*
Y8883600D01*
X11132900D01*
Y8927653D01*
X12867101D01*
Y8883600D01*
X12911154D01*
Y8549900D01*
X12867101D01*
Y8505847D01*
X12717000D01*
X12702134Y8502890D01*
X12689532Y8494469D01*
X12572531Y8377469D01*
X12564111Y8364866D01*
X12561153Y8350000D01*
Y6750000D01*
X12564111Y6735134D01*
X12572531Y6722531D01*
X12922531Y6372531D01*
X12935133Y6364110D01*
X12950000Y6361153D01*
X13919775D01*
X13928862Y6345414D01*
X13945415Y6328862D01*
X13965686Y6317158D01*
X13987300Y6311367D01*
Y6400000D01*
Y6488633D01*
X13965686Y6482841D01*
X13945415Y6471138D01*
X13928862Y6454586D01*
X13919775Y6438846D01*
X12966090D01*
X12638846Y6766091D01*
Y8333909D01*
X12733091Y8428154D01*
X12867101D01*
Y8384100D01*
X12937300D01*
Y8467001D01*
X12950000D01*
Y8479701D01*
X13032899D01*
Y8549900D01*
X12988847D01*
Y8883600D01*
X13032899D01*
Y8953800D01*
X12950000D01*
Y8966500D01*
X12937300D01*
Y9049400D01*
D02*
G37*
G36*
X13032899D02*
X12962700D01*
Y8979200D01*
X13032899D01*
Y9049400D01*
D02*
G37*
G36*
X5287299Y9042401D02*
X5217100D01*
Y8972201D01*
X5287299D01*
Y9042401D01*
D02*
G37*
G36*
X14210915Y8799400D02*
X14189085D01*
X14168002Y8793751D01*
X14149098Y8782836D01*
X14133664Y8767402D01*
X14126704Y8755346D01*
X13666499D01*
X13651634Y8752389D01*
X13639030Y8743969D01*
X13376401Y8481338D01*
X13361243Y8485400D01*
X13338757D01*
X13317036Y8479580D01*
X13297563Y8468337D01*
X13281664Y8452437D01*
X13270419Y8432963D01*
X13264600Y8411243D01*
Y8388757D01*
X13270419Y8367037D01*
X13281664Y8347563D01*
X13297563Y8331663D01*
X13311153Y8323817D01*
Y7785400D01*
X13264600D01*
Y7738847D01*
X13023297D01*
X13016336Y7750902D01*
X13000902Y7766337D01*
X12981998Y7777251D01*
X12960915Y7782900D01*
X12939085D01*
X12918002Y7777251D01*
X12899098Y7766337D01*
X12883664Y7750902D01*
X12872749Y7731998D01*
X12867101Y7710914D01*
Y7689086D01*
X12872749Y7668002D01*
X12883664Y7649098D01*
X12899098Y7633664D01*
X12918002Y7622750D01*
X12939085Y7617100D01*
X12960915D01*
X12981998Y7622750D01*
X13000902Y7633664D01*
X13016336Y7649098D01*
X13023297Y7661154D01*
X13264600D01*
Y7614600D01*
X13435400D01*
Y7785400D01*
X13388846D01*
Y8323817D01*
X13402437Y8331663D01*
X13418336Y8347563D01*
X13429581Y8367037D01*
X13435400Y8388757D01*
Y8411243D01*
X13431339Y8426401D01*
X13682590Y8677653D01*
X14126704D01*
X14133664Y8665598D01*
X14149098Y8650164D01*
X14168002Y8639249D01*
X14189085Y8633600D01*
X14210915D01*
X14231998Y8639249D01*
X14250902Y8650164D01*
X14266336Y8665598D01*
X14277251Y8684502D01*
X14282899Y8705586D01*
Y8727414D01*
X14277251Y8748498D01*
X14266336Y8767402D01*
X14250902Y8782836D01*
X14231998Y8793751D01*
X14210915Y8799400D01*
D02*
G37*
G36*
X12210914D02*
X12189086D01*
X12168002Y8793751D01*
X12149098Y8782836D01*
X12133664Y8767402D01*
X12126703Y8755346D01*
X11716500D01*
X11701634Y8752389D01*
X11689031Y8743969D01*
X11426401Y8481338D01*
X11411243Y8485400D01*
X11388757D01*
X11367037Y8479580D01*
X11347563Y8468337D01*
X11331663Y8452437D01*
X11320420Y8432963D01*
X11314600Y8411243D01*
Y8388757D01*
X11320420Y8367037D01*
X11331663Y8347563D01*
X11347563Y8331663D01*
X11361153Y8323817D01*
Y7785400D01*
X11314600D01*
Y7738847D01*
X11123297D01*
X11116336Y7750902D01*
X11100902Y7766337D01*
X11081998Y7777251D01*
X11060914Y7782900D01*
X11039086D01*
X11018002Y7777251D01*
X10999098Y7766337D01*
X10983664Y7750902D01*
X10972749Y7731998D01*
X10967100Y7710914D01*
Y7689086D01*
X10972749Y7668002D01*
X10983664Y7649098D01*
X10999098Y7633664D01*
X11018002Y7622750D01*
X11039086Y7617100D01*
X11060914D01*
X11081998Y7622750D01*
X11100902Y7633664D01*
X11116336Y7649098D01*
X11123297Y7661154D01*
X11314600D01*
Y7614600D01*
X11485400D01*
Y7785400D01*
X11438846D01*
Y8323817D01*
X11452437Y8331663D01*
X11468337Y8347563D01*
X11479580Y8367037D01*
X11485400Y8388757D01*
Y8411243D01*
X11481338Y8426401D01*
X11732590Y8677653D01*
X12126703D01*
X12133664Y8665598D01*
X12149098Y8650164D01*
X12168002Y8639249D01*
X12189086Y8633600D01*
X12210914D01*
X12231998Y8639249D01*
X12250902Y8650164D01*
X12266336Y8665598D01*
X12277251Y8684502D01*
X12282900Y8705586D01*
Y8727414D01*
X12277251Y8748498D01*
X12266336Y8767402D01*
X12250902Y8782836D01*
X12231998Y8793751D01*
X12210914Y8799400D01*
D02*
G37*
G36*
X10210914D02*
X10189086D01*
X10168002Y8793751D01*
X10149098Y8782836D01*
X10133664Y8767402D01*
X10126703Y8755346D01*
X9716499D01*
X9701634Y8752389D01*
X9689031Y8743969D01*
X9426401Y8481338D01*
X9411243Y8485400D01*
X9388757D01*
X9367037Y8479580D01*
X9347563Y8468337D01*
X9331663Y8452437D01*
X9320420Y8432963D01*
X9314600Y8411243D01*
Y8388757D01*
X9320420Y8367037D01*
X9331663Y8347563D01*
X9347563Y8331663D01*
X9361153Y8323817D01*
Y7785400D01*
X9314600D01*
Y7721846D01*
X9173296D01*
X9166336Y7733902D01*
X9150902Y7749336D01*
X9131998Y7760250D01*
X9110914Y7765900D01*
X9089086D01*
X9068002Y7760250D01*
X9049098Y7749336D01*
X9033663Y7733902D01*
X9022749Y7714998D01*
X9017100Y7693914D01*
Y7672086D01*
X9022749Y7651002D01*
X9033663Y7632098D01*
X9049098Y7616663D01*
X9068002Y7605749D01*
X9089086Y7600100D01*
X9110914D01*
X9131998Y7605749D01*
X9150902Y7616663D01*
X9166336Y7632098D01*
X9173296Y7644153D01*
X9314600D01*
Y7614600D01*
X9485400D01*
Y7785400D01*
X9438846D01*
Y8323817D01*
X9452437Y8331663D01*
X9468337Y8347563D01*
X9479580Y8367037D01*
X9485400Y8388757D01*
Y8411243D01*
X9481338Y8426401D01*
X9732590Y8677653D01*
X10126703D01*
X10133664Y8665598D01*
X10149098Y8650164D01*
X10168002Y8639249D01*
X10189086Y8633600D01*
X10210914D01*
X10231998Y8639249D01*
X10250902Y8650164D01*
X10266336Y8665598D01*
X10277250Y8684502D01*
X10282900Y8705586D01*
Y8727414D01*
X10277250Y8748498D01*
X10266336Y8767402D01*
X10250902Y8782836D01*
X10231998Y8793751D01*
X10210914Y8799400D01*
D02*
G37*
G36*
X8260914D02*
X8239086D01*
X8218002Y8793751D01*
X8199098Y8782836D01*
X8183664Y8767402D01*
X8176704Y8755346D01*
X7766500D01*
X7751634Y8752389D01*
X7739031Y8743969D01*
X7476401Y8481338D01*
X7461243Y8485400D01*
X7438757D01*
X7417037Y8479580D01*
X7397563Y8468337D01*
X7381663Y8452437D01*
X7370420Y8432963D01*
X7364600Y8411243D01*
Y8388757D01*
X7370420Y8367037D01*
X7381663Y8347563D01*
X7397563Y8331663D01*
X7411154Y8323817D01*
Y7785400D01*
X7364600D01*
Y7705347D01*
X7173297D01*
X7166336Y7717402D01*
X7150902Y7732836D01*
X7131998Y7743751D01*
X7110914Y7749400D01*
X7089086D01*
X7068002Y7743751D01*
X7049098Y7732836D01*
X7033664Y7717402D01*
X7022749Y7698498D01*
X7017100Y7677414D01*
Y7655586D01*
X7022749Y7634502D01*
X7033664Y7615598D01*
X7049098Y7600164D01*
X7068002Y7589249D01*
X7089086Y7583600D01*
X7110914D01*
X7131998Y7589249D01*
X7150902Y7600164D01*
X7166336Y7615598D01*
X7173297Y7627654D01*
X7364600D01*
Y7614600D01*
X7535400D01*
Y7785400D01*
X7488847D01*
Y8323817D01*
X7502437Y8331663D01*
X7518337Y8347563D01*
X7529580Y8367037D01*
X7535400Y8388757D01*
Y8411243D01*
X7531338Y8426401D01*
X7782590Y8677653D01*
X8176704D01*
X8183664Y8665598D01*
X8199098Y8650164D01*
X8218002Y8639249D01*
X8239086Y8633600D01*
X8260914D01*
X8281998Y8639249D01*
X8300902Y8650164D01*
X8316337Y8665598D01*
X8327251Y8684502D01*
X8332900Y8705586D01*
Y8727414D01*
X8327251Y8748498D01*
X8316337Y8767402D01*
X8300902Y8782836D01*
X8281998Y8793751D01*
X8260914Y8799400D01*
D02*
G37*
G36*
X6410914D02*
X6389086D01*
X6368002Y8793751D01*
X6349098Y8782836D01*
X6333663Y8767402D01*
X6326703Y8755346D01*
X5916500D01*
X5901634Y8752389D01*
X5889031Y8743969D01*
X5626401Y8481338D01*
X5611243Y8485400D01*
X5588757D01*
X5567037Y8479580D01*
X5547563Y8468337D01*
X5531663Y8452437D01*
X5520420Y8432963D01*
X5514600Y8411243D01*
Y8388757D01*
X5520420Y8367037D01*
X5531663Y8347563D01*
X5547563Y8331663D01*
X5561153Y8323817D01*
Y7785400D01*
X5514600D01*
Y7738847D01*
X5357746D01*
X5344913Y7736294D01*
X5331998Y7743751D01*
X5310914Y7749400D01*
X5289086D01*
X5268002Y7743751D01*
X5249098Y7732836D01*
X5233664Y7717402D01*
X5222750Y7698498D01*
X5217100Y7677414D01*
Y7655586D01*
X5222750Y7634502D01*
X5233664Y7615598D01*
X5249098Y7600164D01*
X5268002Y7589249D01*
X5289086Y7583600D01*
X5310914D01*
X5331998Y7589249D01*
X5350902Y7600164D01*
X5366336Y7615598D01*
X5377251Y7634502D01*
X5382900Y7655586D01*
Y7661154D01*
X5514600D01*
Y7614600D01*
X5685400D01*
Y7785400D01*
X5638846D01*
Y8323817D01*
X5652437Y8331663D01*
X5668337Y8347563D01*
X5679580Y8367037D01*
X5685400Y8388757D01*
Y8411243D01*
X5681338Y8426401D01*
X5932590Y8677653D01*
X6326703D01*
X6333663Y8665598D01*
X6349098Y8650164D01*
X6368002Y8639249D01*
X6389086Y8633600D01*
X6410914D01*
X6431998Y8639249D01*
X6450902Y8650164D01*
X6466336Y8665598D01*
X6477250Y8684502D01*
X6482900Y8705586D01*
Y8727414D01*
X6477250Y8748498D01*
X6466336Y8767402D01*
X6450902Y8782836D01*
X6431998Y8793751D01*
X6410914Y8799400D01*
D02*
G37*
G36*
X13032899Y8454301D02*
X12962700D01*
Y8384100D01*
X13032899D01*
Y8454301D01*
D02*
G37*
G36*
X11132900Y8454300D02*
X11062699D01*
Y8384100D01*
X11132900D01*
Y8454300D01*
D02*
G37*
G36*
X11037299D02*
X10967100D01*
Y8384100D01*
X11037299D01*
Y8454300D01*
D02*
G37*
G36*
X9182900Y8437300D02*
X9112700D01*
Y8367100D01*
X9182900D01*
Y8437300D01*
D02*
G37*
G36*
X9087300D02*
X9017100D01*
Y8367100D01*
X9087300D01*
Y8437300D01*
D02*
G37*
G36*
X14210915Y8516400D02*
X14189085D01*
X14168002Y8510751D01*
X14149098Y8499837D01*
X14133664Y8484402D01*
X14122749Y8465498D01*
X14117101Y8444414D01*
Y8422586D01*
X14122749Y8401502D01*
X14133664Y8382598D01*
X14149098Y8367164D01*
X14168002Y8356250D01*
X14189085Y8350600D01*
X14210915D01*
X14231998Y8356250D01*
X14250902Y8367164D01*
X14266336Y8382598D01*
X14277251Y8401502D01*
X14282899Y8422586D01*
Y8444414D01*
X14277251Y8465498D01*
X14266336Y8484402D01*
X14250902Y8499837D01*
X14231998Y8510751D01*
X14210915Y8516400D01*
D02*
G37*
G36*
X12210914D02*
X12189086D01*
X12168002Y8510751D01*
X12149098Y8499837D01*
X12133664Y8484402D01*
X12122749Y8465498D01*
X12117100Y8444414D01*
Y8422586D01*
X12122749Y8401502D01*
X12133664Y8382598D01*
X12149098Y8367164D01*
X12168002Y8356250D01*
X12189086Y8350600D01*
X12210914D01*
X12231998Y8356250D01*
X12250902Y8367164D01*
X12266336Y8382598D01*
X12277251Y8401502D01*
X12282900Y8422586D01*
Y8444414D01*
X12277251Y8465498D01*
X12266336Y8484402D01*
X12250902Y8499837D01*
X12231998Y8510751D01*
X12210914Y8516400D01*
D02*
G37*
G36*
X10210914D02*
X10189086D01*
X10168002Y8510751D01*
X10149098Y8499837D01*
X10133664Y8484402D01*
X10122749Y8465498D01*
X10117100Y8444414D01*
Y8422586D01*
X10122749Y8401502D01*
X10133664Y8382598D01*
X10149098Y8367164D01*
X10168002Y8356250D01*
X10189086Y8350600D01*
X10210914D01*
X10231998Y8356250D01*
X10250902Y8367164D01*
X10266336Y8382598D01*
X10277250Y8401502D01*
X10282900Y8422586D01*
Y8444414D01*
X10277250Y8465498D01*
X10266336Y8484402D01*
X10250902Y8499837D01*
X10231998Y8510751D01*
X10210914Y8516400D01*
D02*
G37*
G36*
X7182900Y8420800D02*
X7112700D01*
Y8350600D01*
X7182900D01*
Y8420800D01*
D02*
G37*
G36*
X7087300D02*
X7017100D01*
Y8350600D01*
X7087300D01*
Y8420800D01*
D02*
G37*
G36*
X6377915Y8516400D02*
X6356087D01*
X6335003Y8510751D01*
X6316099Y8499837D01*
X6300664Y8484402D01*
X6289750Y8465498D01*
X6284101Y8444414D01*
Y8422586D01*
X6289750Y8401502D01*
X6300664Y8382598D01*
X6316099Y8367164D01*
X6335003Y8356250D01*
X6356087Y8350600D01*
X6377915D01*
X6398999Y8356250D01*
X6417903Y8367164D01*
X6433337Y8382598D01*
X6444251Y8401502D01*
X6449901Y8422586D01*
Y8444414D01*
X6444251Y8465498D01*
X6433337Y8484402D01*
X6417903Y8499837D01*
X6398999Y8510751D01*
X6377915Y8516400D01*
D02*
G37*
G36*
X5382900Y8420800D02*
X5312700D01*
Y8350600D01*
X5382900D01*
Y8420800D01*
D02*
G37*
G36*
X5287300D02*
X5217100D01*
Y8350600D01*
X5287300D01*
Y8420800D01*
D02*
G37*
G36*
X8260914Y8516400D02*
X8239086D01*
X8218002Y8510751D01*
X8199098Y8499836D01*
X8183664Y8484402D01*
X8172749Y8465498D01*
X8167100Y8444414D01*
Y8422586D01*
X8172749Y8401502D01*
X8183664Y8382598D01*
X8199098Y8367164D01*
X8218002Y8356249D01*
X8239086Y8350600D01*
X8260914D01*
X8281998Y8356249D01*
X8300902Y8367164D01*
X8316336Y8382598D01*
X8327251Y8401502D01*
X8332900Y8422586D01*
Y8444414D01*
X8327251Y8465498D01*
X8316336Y8484402D01*
X8300902Y8499836D01*
X8281998Y8510751D01*
X8260914Y8516400D01*
D02*
G37*
G36*
X13935400Y8485400D02*
X13764600D01*
Y8314600D01*
X13935400D01*
Y8485400D01*
D02*
G37*
G36*
X11985400D02*
X11814600D01*
Y8314600D01*
X11985400D01*
Y8485400D01*
D02*
G37*
G36*
X9985400D02*
X9814600D01*
Y8314600D01*
X9985400D01*
Y8485400D01*
D02*
G37*
G36*
X8035400D02*
X7864600D01*
Y8314600D01*
X8035400D01*
Y8485400D01*
D02*
G37*
G36*
X6185400D02*
X6014600D01*
Y8314600D01*
X6185400D01*
Y8485400D01*
D02*
G37*
G36*
X13861243Y7785400D02*
X13838757D01*
X13817036Y7779580D01*
X13797563Y7768337D01*
X13781664Y7752437D01*
X13770419Y7732963D01*
X13764600Y7711243D01*
Y7688757D01*
X13770419Y7667037D01*
X13781664Y7647563D01*
X13797563Y7631663D01*
X13817036Y7620420D01*
X13838757Y7614600D01*
X13861243D01*
X13882964Y7620420D01*
X13902437Y7631663D01*
X13918336Y7647563D01*
X13929581Y7667037D01*
X13935400Y7688757D01*
Y7711243D01*
X13929581Y7732963D01*
X13918336Y7752437D01*
X13902437Y7768337D01*
X13882964Y7779580D01*
X13861243Y7785400D01*
D02*
G37*
G36*
X11911243D02*
X11888757D01*
X11867037Y7779580D01*
X11847563Y7768337D01*
X11831663Y7752437D01*
X11820420Y7732963D01*
X11814600Y7711243D01*
Y7688757D01*
X11820420Y7667037D01*
X11831663Y7647563D01*
X11847563Y7631663D01*
X11867037Y7620420D01*
X11888757Y7614600D01*
X11911243D01*
X11932963Y7620420D01*
X11952437Y7631663D01*
X11968337Y7647563D01*
X11979580Y7667037D01*
X11985400Y7688757D01*
Y7711243D01*
X11979580Y7732963D01*
X11968337Y7752437D01*
X11952437Y7768337D01*
X11932963Y7779580D01*
X11911243Y7785400D01*
D02*
G37*
G36*
X9911243D02*
X9888757D01*
X9867037Y7779580D01*
X9847563Y7768337D01*
X9831663Y7752437D01*
X9820420Y7732963D01*
X9814600Y7711243D01*
Y7688757D01*
X9820420Y7667037D01*
X9831663Y7647563D01*
X9847563Y7631663D01*
X9867037Y7620420D01*
X9888757Y7614600D01*
X9911243D01*
X9932963Y7620420D01*
X9952437Y7631663D01*
X9968337Y7647563D01*
X9979580Y7667037D01*
X9985400Y7688757D01*
Y7711243D01*
X9979580Y7732963D01*
X9968337Y7752437D01*
X9952437Y7768337D01*
X9932963Y7779580D01*
X9911243Y7785400D01*
D02*
G37*
G36*
X7961243D02*
X7938757D01*
X7917037Y7779580D01*
X7897563Y7768337D01*
X7881663Y7752437D01*
X7870420Y7732963D01*
X7864600Y7711243D01*
Y7688757D01*
X7870420Y7667037D01*
X7881663Y7647563D01*
X7897563Y7631663D01*
X7917037Y7620420D01*
X7938757Y7614600D01*
X7961243D01*
X7982963Y7620420D01*
X8002437Y7631663D01*
X8018337Y7647563D01*
X8029580Y7667037D01*
X8035400Y7688757D01*
Y7711243D01*
X8029580Y7732963D01*
X8018337Y7752437D01*
X8002437Y7768337D01*
X7982963Y7779580D01*
X7961243Y7785400D01*
D02*
G37*
G36*
X6111243D02*
X6088757D01*
X6067037Y7779580D01*
X6047563Y7768337D01*
X6031663Y7752437D01*
X6020420Y7732963D01*
X6014600Y7711243D01*
Y7688757D01*
X6020420Y7667037D01*
X6031663Y7647563D01*
X6047563Y7631663D01*
X6067037Y7620420D01*
X6088757Y7614600D01*
X6111243D01*
X6132963Y7620420D01*
X6152437Y7631663D01*
X6168337Y7647563D01*
X6179580Y7667037D01*
X6185400Y7688757D01*
Y7711243D01*
X6179580Y7732963D01*
X6168337Y7752437D01*
X6152437Y7768337D01*
X6132963Y7779580D01*
X6111243Y7785400D01*
D02*
G37*
G36*
X14282899Y7749400D02*
X14117101D01*
Y7583600D01*
X14282899D01*
Y7749400D01*
D02*
G37*
G36*
X12282900D02*
X12117100D01*
Y7583600D01*
X12282900D01*
Y7749400D01*
D02*
G37*
G36*
X10282900D02*
X10117100D01*
Y7583600D01*
X10282900D01*
Y7749400D01*
D02*
G37*
G36*
X6449901D02*
X6284101D01*
Y7583600D01*
X6449901D01*
Y7749400D01*
D02*
G37*
G36*
X8332900Y7749400D02*
X8167100D01*
Y7583600D01*
X8332900D01*
Y7749400D01*
D02*
G37*
G36*
X14316400Y7432900D02*
X14150600D01*
Y7267100D01*
X14316400D01*
Y7432900D01*
D02*
G37*
G36*
X13477414D02*
X13455586D01*
X13434502Y7427251D01*
X13415598Y7416336D01*
X13400163Y7400902D01*
X13389249Y7381998D01*
X13383600Y7360914D01*
Y7339086D01*
X13389249Y7318002D01*
X13400163Y7299098D01*
X13415598Y7283664D01*
X13434502Y7272749D01*
X13455586Y7267100D01*
X13477414D01*
X13498499Y7272749D01*
X13517403Y7283664D01*
X13532835Y7299098D01*
X13543750Y7318002D01*
X13549400Y7339086D01*
Y7360914D01*
X13543750Y7381998D01*
X13532835Y7400902D01*
X13517403Y7416336D01*
X13498499Y7427251D01*
X13477414Y7432900D01*
D02*
G37*
G36*
X12266400D02*
X12100600D01*
Y7267100D01*
X12266400D01*
Y7432900D01*
D02*
G37*
G36*
X11427414D02*
X11405586D01*
X11384502Y7427251D01*
X11365598Y7416336D01*
X11350163Y7400902D01*
X11339249Y7381998D01*
X11333600Y7360914D01*
Y7339086D01*
X11339249Y7318002D01*
X11350163Y7299098D01*
X11365598Y7283664D01*
X11384502Y7272749D01*
X11405586Y7267100D01*
X11427414D01*
X11448498Y7272749D01*
X11467402Y7283664D01*
X11482836Y7299098D01*
X11493750Y7318002D01*
X11499400Y7339086D01*
Y7360914D01*
X11493750Y7381998D01*
X11482836Y7400902D01*
X11467402Y7416336D01*
X11448498Y7427251D01*
X11427414Y7432900D01*
D02*
G37*
G36*
X10266400D02*
X10100600D01*
Y7267100D01*
X10266400D01*
Y7432900D01*
D02*
G37*
G36*
X9427414D02*
X9405586D01*
X9384502Y7427251D01*
X9365598Y7416336D01*
X9350163Y7400902D01*
X9339249Y7381998D01*
X9333600Y7360914D01*
Y7339086D01*
X9339249Y7318002D01*
X9350163Y7299098D01*
X9365598Y7283664D01*
X9384502Y7272749D01*
X9405586Y7267100D01*
X9427414D01*
X9448498Y7272749D01*
X9467402Y7283664D01*
X9482836Y7299098D01*
X9493750Y7318002D01*
X9499400Y7339086D01*
Y7360914D01*
X9493750Y7381998D01*
X9482836Y7400902D01*
X9467402Y7416336D01*
X9448498Y7427251D01*
X9427414Y7432900D01*
D02*
G37*
G36*
X8332900D02*
X8167100D01*
Y7267100D01*
X8332900D01*
Y7432900D01*
D02*
G37*
G36*
X7493914D02*
X7472086D01*
X7451002Y7427251D01*
X7432098Y7416336D01*
X7416663Y7400902D01*
X7405749Y7381998D01*
X7400100Y7360914D01*
Y7339086D01*
X7405749Y7318002D01*
X7416663Y7299098D01*
X7432098Y7283664D01*
X7451002Y7272749D01*
X7472086Y7267100D01*
X7493914D01*
X7514998Y7272749D01*
X7533902Y7283664D01*
X7549336Y7299098D01*
X7560250Y7318002D01*
X7565900Y7339086D01*
Y7360914D01*
X7560250Y7381998D01*
X7549336Y7400902D01*
X7533902Y7416336D01*
X7514998Y7427251D01*
X7493914Y7432900D01*
D02*
G37*
G36*
X6466400D02*
X6300600D01*
Y7267100D01*
X6466400D01*
Y7432900D01*
D02*
G37*
G36*
X5627414D02*
X5605586D01*
X5584502Y7427251D01*
X5565598Y7416336D01*
X5550163Y7400902D01*
X5539249Y7381998D01*
X5533600Y7360914D01*
Y7339086D01*
X5539249Y7318002D01*
X5550163Y7299098D01*
X5565598Y7283664D01*
X5584502Y7272749D01*
X5605586Y7267100D01*
X5627414D01*
X5648498Y7272749D01*
X5667402Y7283664D01*
X5682836Y7299098D01*
X5693750Y7318002D01*
X5699400Y7339086D01*
Y7360914D01*
X5693750Y7381998D01*
X5682836Y7400902D01*
X5667402Y7416336D01*
X5648498Y7427251D01*
X5627414Y7432900D01*
D02*
G37*
G36*
X13682899Y6782900D02*
X13517101D01*
Y6768099D01*
X13504401Y6762838D01*
X13500902Y6766336D01*
X13481998Y6777251D01*
X13460915Y6782900D01*
X13439085D01*
X13418002Y6777251D01*
X13399098Y6766336D01*
X13383662Y6750902D01*
X13372749Y6731998D01*
X13367101Y6710914D01*
Y6689086D01*
X13372749Y6668002D01*
X13383662Y6649098D01*
X13399098Y6633664D01*
X13418002Y6622750D01*
X13439085Y6617100D01*
X13460915D01*
X13481998Y6622750D01*
X13500902Y6633664D01*
X13504401Y6637162D01*
X13517101Y6631901D01*
Y6617100D01*
X13682899D01*
Y6782900D01*
D02*
G37*
G36*
X11632900D02*
X11467100D01*
Y6768099D01*
X11454400Y6762838D01*
X11450902Y6766336D01*
X11431998Y6777251D01*
X11410914Y6782900D01*
X11389086D01*
X11368002Y6777251D01*
X11349098Y6766336D01*
X11333664Y6750902D01*
X11322750Y6731998D01*
X11317100Y6710914D01*
Y6689086D01*
X11322750Y6668002D01*
X11333664Y6649098D01*
X11349098Y6633664D01*
X11368002Y6622750D01*
X11389086Y6617100D01*
X11410914D01*
X11431998Y6622750D01*
X11450902Y6633664D01*
X11454400Y6637162D01*
X11467100Y6631901D01*
Y6617100D01*
X11511154D01*
Y6416091D01*
X11283909Y6188846D01*
X9400000D01*
X9385134Y6185889D01*
X9372531Y6177468D01*
X8633909Y5438847D01*
X7300000D01*
X7285134Y5435890D01*
X7272531Y5427469D01*
X6297531Y4452469D01*
X6289111Y4439866D01*
X6286154Y4425000D01*
Y4040230D01*
X6266423Y4028839D01*
X6248661Y4011077D01*
X6236102Y3989323D01*
X6229600Y3965060D01*
Y3939941D01*
X6236102Y3915677D01*
X6248661Y3893923D01*
X6266423Y3876161D01*
X6288177Y3863602D01*
X6312441Y3857100D01*
X6337560D01*
X6361823Y3863602D01*
X6383577Y3876161D01*
X6401339Y3893923D01*
X6413899Y3915677D01*
X6420400Y3939941D01*
Y3965060D01*
X6413899Y3989323D01*
X6401339Y4011077D01*
X6383577Y4028839D01*
X6363847Y4040230D01*
Y4408910D01*
X7316091Y5361154D01*
X8650000D01*
X8664866Y5364111D01*
X8677469Y5372532D01*
X9416090Y6111153D01*
X11300000D01*
X11314866Y6114110D01*
X11327469Y6122531D01*
X11577469Y6372532D01*
X11585890Y6385134D01*
X11588847Y6400000D01*
Y6617100D01*
X11632900D01*
Y6782900D01*
D02*
G37*
G36*
X9649399D02*
X9483599D01*
Y6768099D01*
X9470899Y6762838D01*
X9467401Y6766336D01*
X9448497Y6777251D01*
X9427413Y6782900D01*
X9405585D01*
X9384501Y6777251D01*
X9365597Y6766336D01*
X9350163Y6750902D01*
X9339249Y6731998D01*
X9333599Y6710914D01*
Y6689086D01*
X9339249Y6668002D01*
X9350163Y6649098D01*
X9365597Y6633664D01*
X9384501Y6622750D01*
X9405585Y6617100D01*
X9427413D01*
X9448497Y6622750D01*
X9467401Y6633664D01*
X9470899Y6637162D01*
X9483599Y6631901D01*
Y6617100D01*
X9649399D01*
Y6782900D01*
D02*
G37*
G36*
X7715900D02*
X7550100D01*
Y6768099D01*
X7537400Y6762838D01*
X7533902Y6766336D01*
X7514998Y6777251D01*
X7493914Y6782900D01*
X7472086D01*
X7451002Y6777251D01*
X7432098Y6766336D01*
X7416663Y6750902D01*
X7405749Y6731998D01*
X7400100Y6710914D01*
Y6689086D01*
X7405749Y6668002D01*
X7416663Y6649098D01*
X7432098Y6633664D01*
X7451002Y6622750D01*
X7472086Y6617100D01*
X7493914D01*
X7514998Y6622750D01*
X7533902Y6633664D01*
X7537400Y6637162D01*
X7550100Y6631901D01*
Y6617100D01*
X7594153D01*
Y6549091D01*
X7083909Y6038846D01*
X6150000D01*
X6135134Y6035889D01*
X6122531Y6027469D01*
X5783052Y5687989D01*
X5774631Y5675387D01*
X5771674Y5660521D01*
Y4840219D01*
X5774631Y4825354D01*
X5783052Y4812751D01*
X5786154Y4809650D01*
Y4040230D01*
X5766423Y4028839D01*
X5748661Y4011077D01*
X5736102Y3989323D01*
X5729600Y3965060D01*
Y3939941D01*
X5736102Y3915677D01*
X5748661Y3893923D01*
X5766423Y3876161D01*
X5788177Y3863602D01*
X5812440Y3857100D01*
X5837560D01*
X5861823Y3863602D01*
X5883577Y3876161D01*
X5901339Y3893923D01*
X5913899Y3915677D01*
X5920400Y3939941D01*
Y3965060D01*
X5913899Y3989323D01*
X5901339Y4011077D01*
X5883577Y4028839D01*
X5863847Y4040230D01*
Y4825740D01*
X5860889Y4840606D01*
X5852469Y4853209D01*
X5849367Y4856310D01*
Y5644430D01*
X6166091Y5961153D01*
X7100000D01*
X7114866Y5964110D01*
X7127468Y5972531D01*
X7660469Y6505532D01*
X7668889Y6518134D01*
X7671846Y6533000D01*
Y6617100D01*
X7715900D01*
Y6782900D01*
D02*
G37*
G36*
X5857900D02*
X5692100D01*
Y6768099D01*
X5679400Y6762838D01*
X5675902Y6766336D01*
X5656998Y6777251D01*
X5635914Y6782900D01*
X5614086D01*
X5593002Y6777251D01*
X5574098Y6766336D01*
X5558664Y6750902D01*
X5547749Y6731998D01*
X5542100Y6710914D01*
Y6689086D01*
X5547749Y6668002D01*
X5558664Y6649098D01*
X5574098Y6633664D01*
X5593002Y6622750D01*
X5614086Y6617100D01*
X5635914D01*
X5656998Y6622750D01*
X5675902Y6633664D01*
X5679400Y6637162D01*
X5692100Y6631901D01*
Y6617100D01*
X5857900D01*
Y6782900D01*
D02*
G37*
G36*
X14012700Y6488633D02*
Y6412700D01*
X14088634D01*
X14082841Y6434314D01*
X14071138Y6454586D01*
X14054585Y6471138D01*
X14034314Y6482841D01*
X14012700Y6488633D01*
D02*
G37*
G36*
X14088634Y6387300D02*
X14012700D01*
Y6311367D01*
X14034314Y6317158D01*
X14054585Y6328862D01*
X14071138Y6345414D01*
X14082841Y6365686D01*
X14088634Y6387300D01*
D02*
G37*
G36*
X12261704Y6488900D02*
X12238296D01*
X12215686Y6482841D01*
X12195414Y6471138D01*
X12178862Y6454586D01*
X12167158Y6434314D01*
X12161100Y6411704D01*
Y6388296D01*
X12165804Y6370741D01*
X11522531Y5727469D01*
X11514111Y5714866D01*
X11511154Y5700000D01*
Y5230225D01*
X11495414Y5221138D01*
X11478862Y5204586D01*
X11467158Y5184314D01*
X11461100Y5161704D01*
Y5138296D01*
X11467158Y5115686D01*
X11478862Y5095414D01*
X11495414Y5078862D01*
X11515686Y5067159D01*
X11538296Y5061100D01*
X11561704D01*
X11584314Y5067159D01*
X11604586Y5078862D01*
X11621138Y5095414D01*
X11632842Y5115686D01*
X11638900Y5138296D01*
Y5161704D01*
X11632842Y5184314D01*
X11621138Y5204586D01*
X11604586Y5221138D01*
X11588847Y5230225D01*
Y5683909D01*
X12220741Y6315804D01*
X12238296Y6311100D01*
X12261704D01*
X12284314Y6317158D01*
X12304586Y6328862D01*
X12321138Y6345414D01*
X12332841Y6365686D01*
X12338900Y6388296D01*
Y6411704D01*
X12332841Y6434314D01*
X12321138Y6454586D01*
X12304586Y6471138D01*
X12284314Y6482841D01*
X12261704Y6488900D01*
D02*
G37*
G36*
X12862700Y5838633D02*
Y5762700D01*
X12938634D01*
X12932841Y5784314D01*
X12921138Y5804586D01*
X12904585Y5821138D01*
X12884314Y5832842D01*
X12862700Y5838633D01*
D02*
G37*
G36*
X12837300D02*
X12815686Y5832842D01*
X12795414Y5821138D01*
X12778862Y5804586D01*
X12767158Y5784314D01*
X12761367Y5762700D01*
X12837300D01*
Y5838633D01*
D02*
G37*
G36*
X14032300Y5750400D02*
X14031783D01*
X14006247Y5743558D01*
X13983353Y5730340D01*
X13964661Y5711647D01*
X13951442Y5688753D01*
X13944600Y5663218D01*
Y5662700D01*
X14032300D01*
Y5750400D01*
D02*
G37*
G36*
X12432900Y5532900D02*
X12267100D01*
Y5518099D01*
X12254400Y5512838D01*
X12250902Y5516336D01*
X12231998Y5527251D01*
X12210914Y5532900D01*
X12189086D01*
X12168002Y5527251D01*
X12149098Y5516336D01*
X12133663Y5500902D01*
X12122749Y5481998D01*
X12117100Y5460914D01*
Y5439086D01*
X12122749Y5418002D01*
X12133663Y5399098D01*
X12149098Y5383664D01*
X12168002Y5372749D01*
X12189086Y5367100D01*
X12210914D01*
X12231998Y5372749D01*
X12250902Y5383664D01*
X12254400Y5387162D01*
X12267100Y5381901D01*
Y5367100D01*
X12432900D01*
Y5532900D01*
D02*
G37*
G36*
X10199400D02*
X10129200D01*
Y5462700D01*
X10199400D01*
Y5532900D01*
D02*
G37*
G36*
X10103800D02*
X10033600D01*
Y5462700D01*
X10103800D01*
Y5532900D01*
D02*
G37*
G36*
X10894414D02*
X10872586D01*
X10851502Y5527251D01*
X10832598Y5516336D01*
X10817164Y5500902D01*
X10806250Y5481998D01*
X10800600Y5460914D01*
Y5439086D01*
X10806250Y5418002D01*
X10817164Y5399098D01*
X10832598Y5383664D01*
X10851502Y5372749D01*
X10872586Y5367100D01*
X10894414D01*
X10915498Y5372749D01*
X10934402Y5383664D01*
X10949837Y5399098D01*
X10960751Y5418002D01*
X10966400Y5439086D01*
Y5460914D01*
X10960751Y5481998D01*
X10949837Y5500902D01*
X10934402Y5516336D01*
X10915498Y5527251D01*
X10894414Y5532900D01*
D02*
G37*
G36*
X10199400Y5437300D02*
X10129200D01*
Y5367100D01*
X10199400D01*
Y5437300D01*
D02*
G37*
G36*
X10103800D02*
X10033600D01*
Y5367100D01*
X10103800D01*
Y5437300D01*
D02*
G37*
G36*
X10332218Y4883900D02*
X10331700D01*
Y4796200D01*
X10419400D01*
Y4796718D01*
X10412558Y4822253D01*
X10399340Y4845147D01*
X10380647Y4863840D01*
X10357753Y4877058D01*
X10332218Y4883900D01*
D02*
G37*
G36*
X10306300D02*
X10305782D01*
X10280247Y4877058D01*
X10257353Y4863840D01*
X10238660Y4845147D01*
X10225442Y4822253D01*
X10218600Y4796718D01*
Y4796200D01*
X10306300D01*
Y4883900D01*
D02*
G37*
G36*
X8849400Y4932900D02*
X8683600D01*
Y4767100D01*
X8849400D01*
Y4932900D01*
D02*
G37*
G36*
X8444414D02*
X8422586D01*
X8401502Y4927250D01*
X8382598Y4916336D01*
X8367164Y4900902D01*
X8356249Y4881998D01*
X8350600Y4860914D01*
Y4839086D01*
X8356249Y4818002D01*
X8367164Y4799098D01*
X8382598Y4783664D01*
X8401502Y4772749D01*
X8422586Y4767100D01*
X8444414D01*
X8465498Y4772749D01*
X8484402Y4783664D01*
X8499836Y4799098D01*
X8510751Y4818002D01*
X8516400Y4839086D01*
Y4860914D01*
X8510751Y4881998D01*
X8499836Y4900902D01*
X8484402Y4916336D01*
X8465498Y4927250D01*
X8444414Y4932900D01*
D02*
G37*
G36*
X7749400D02*
X7583600D01*
Y4767100D01*
X7749400D01*
Y4932900D01*
D02*
G37*
G36*
X12932899Y4820800D02*
X12862700D01*
Y4750600D01*
X12932899D01*
Y4820800D01*
D02*
G37*
G36*
X12837300D02*
X12767100D01*
Y4750600D01*
X12837300D01*
Y4820800D01*
D02*
G37*
G36*
X14058218Y5750400D02*
X14057700D01*
Y5650000D01*
X14045000D01*
Y5637300D01*
X13944600D01*
Y5636782D01*
X13951442Y5611247D01*
X13964661Y5588353D01*
X13983353Y5569660D01*
X13994716Y5563100D01*
X13991313Y5550400D01*
X13944600D01*
Y5349600D01*
X14145399D01*
Y5550400D01*
X14098688D01*
X14095284Y5563100D01*
X14106647Y5569660D01*
X14125340Y5588353D01*
X14138504Y5611154D01*
X14233910D01*
X14261154Y5583909D01*
Y4816091D01*
X14183910Y4738847D01*
X14138504D01*
X14125340Y4761647D01*
X14106647Y4780340D01*
X14083752Y4793558D01*
X14058218Y4800400D01*
X14057700D01*
Y4700000D01*
X14045000D01*
Y4687300D01*
X13944600D01*
Y4686782D01*
X13951442Y4661247D01*
X13964661Y4638353D01*
X13983353Y4619660D01*
X13994716Y4613100D01*
X13991313Y4600400D01*
X13944600D01*
Y4399600D01*
X14145399D01*
Y4600400D01*
X14098688D01*
X14095284Y4613100D01*
X14106647Y4619660D01*
X14125340Y4638353D01*
X14138504Y4661153D01*
X14183910D01*
X14261154Y4583909D01*
Y4116091D01*
X14145238Y4000174D01*
X14131197Y4001503D01*
X14125340Y4011647D01*
X14106647Y4030340D01*
X14083752Y4043558D01*
X14058218Y4050400D01*
X14057700D01*
Y3950000D01*
X14045000D01*
Y3937300D01*
X13944600D01*
Y3936782D01*
X13951442Y3911247D01*
X13964661Y3888353D01*
X13983353Y3869660D01*
X13994716Y3863100D01*
X13991313Y3850400D01*
X13944600D01*
Y3649600D01*
X14145399D01*
Y3850400D01*
X14098688D01*
X14095284Y3863100D01*
X14106647Y3869660D01*
X14125340Y3888353D01*
X14138557Y3911247D01*
X14140703Y3919254D01*
X14158099D01*
X14172966Y3922211D01*
X14185568Y3930632D01*
X14327469Y4072532D01*
X14335890Y4085134D01*
X14338847Y4100000D01*
Y4600000D01*
X14335890Y4614866D01*
X14327469Y4627469D01*
X14254938Y4700000D01*
X14327469Y4772531D01*
X14335890Y4785134D01*
X14338847Y4800000D01*
Y5600000D01*
X14335890Y5614866D01*
X14327469Y5627469D01*
X14277469Y5677469D01*
X14264867Y5685890D01*
X14250000Y5688847D01*
X14138504D01*
X14125340Y5711647D01*
X14106647Y5730340D01*
X14083752Y5743558D01*
X14058218Y5750400D01*
D02*
G37*
G36*
X12938634Y5737300D02*
X12761367D01*
X12767158Y5715686D01*
X12778862Y5695414D01*
X12795414Y5678862D01*
X12811153Y5669775D01*
Y4916400D01*
X12767100D01*
Y4846200D01*
X12850000D01*
X12932899D01*
Y4861462D01*
X13117712Y5046274D01*
X13643790D01*
X13951414Y4738648D01*
X13944600Y4713218D01*
Y4712700D01*
X14032300D01*
Y4800400D01*
X14031783D01*
X14006352Y4793586D01*
X13687347Y5112589D01*
X13674745Y5121010D01*
X13659879Y5123967D01*
X13100000D01*
X13085133Y5121010D01*
X13072531Y5112589D01*
X13069267Y5107704D01*
X12900580Y4939017D01*
X12888846Y4943877D01*
Y5669775D01*
X12904585Y5678862D01*
X12921138Y5695414D01*
X12932841Y5715686D01*
X12938634Y5737300D01*
D02*
G37*
G36*
X10900000Y5088847D02*
X9733500D01*
X9718634Y5085889D01*
X9706032Y5077469D01*
X9557860Y4929297D01*
X9544414Y4932900D01*
X9522586D01*
X9501502Y4927250D01*
X9482598Y4916336D01*
X9467164Y4900902D01*
X9456250Y4881998D01*
X9450600Y4860914D01*
Y4839086D01*
X9456250Y4818002D01*
X9467164Y4799098D01*
X9482598Y4783664D01*
X9501502Y4772749D01*
X9522586Y4767100D01*
X9544414D01*
X9565498Y4772749D01*
X9584402Y4783664D01*
X9599837Y4799098D01*
X9610751Y4818002D01*
X9616400Y4839086D01*
Y4860914D01*
X9612797Y4874360D01*
X9749591Y5011154D01*
X10883909D01*
X10979853Y4915209D01*
Y4845800D01*
X10980600Y4842046D01*
Y4683100D01*
X11181400D01*
Y4744653D01*
X11500000D01*
X11514866Y4747611D01*
X11519340Y4750600D01*
X11632900D01*
Y4916400D01*
X11467100D01*
Y4822346D01*
X11181400D01*
Y4883900D01*
X11057546D01*
Y4931300D01*
X11054589Y4946166D01*
X11046169Y4958769D01*
X10927468Y5077469D01*
X10914866Y5085889D01*
X10900000Y5088847D01*
D02*
G37*
G36*
X10419400Y4770800D02*
X10331700D01*
Y4683100D01*
X10332218D01*
X10357753Y4689942D01*
X10380647Y4703160D01*
X10399340Y4721853D01*
X10412558Y4744747D01*
X10419400Y4770282D01*
Y4770800D01*
D02*
G37*
G36*
X10306300D02*
X10218600D01*
Y4770282D01*
X10225442Y4744747D01*
X10238660Y4721853D01*
X10257353Y4703160D01*
X10280247Y4689942D01*
X10305782Y4683100D01*
X10306300D01*
Y4770800D01*
D02*
G37*
G36*
X11982900Y4916400D02*
X11817100D01*
Y4805537D01*
X11600410Y4588847D01*
X10888846D01*
Y4703359D01*
X10907340Y4721853D01*
X10920558Y4744747D01*
X10927400Y4770282D01*
Y4796718D01*
X10920558Y4822253D01*
X10907340Y4845147D01*
X10888647Y4863840D01*
X10865753Y4877058D01*
X10840218Y4883900D01*
X10813782D01*
X10788247Y4877058D01*
X10765353Y4863840D01*
X10746660Y4845147D01*
X10733442Y4822253D01*
X10726600Y4796718D01*
Y4770282D01*
X10733442Y4744747D01*
X10746660Y4721853D01*
X10765353Y4703160D01*
X10788247Y4689942D01*
X10811153Y4683804D01*
Y4564879D01*
X10814110Y4550013D01*
X10822531Y4537411D01*
X10837410Y4522531D01*
X10850013Y4514111D01*
X10864879Y4511154D01*
X11616500D01*
X11631366Y4514111D01*
X11643969Y4522531D01*
X11849420Y4727983D01*
X11861153Y4723122D01*
Y4432590D01*
X11574360Y4145797D01*
X11560914Y4149399D01*
X11539086D01*
X11518002Y4143750D01*
X11499098Y4132836D01*
X11483664Y4117401D01*
X11472749Y4098498D01*
X11467100Y4077413D01*
Y4055585D01*
X11472749Y4034501D01*
X11483664Y4015598D01*
X11499098Y4000163D01*
X11518002Y3989249D01*
X11539086Y3983599D01*
X11560914D01*
X11581998Y3989249D01*
X11600902Y4000163D01*
X11616336Y4015598D01*
X11627251Y4034501D01*
X11632900Y4055585D01*
Y4077413D01*
X11629297Y4090859D01*
X11927468Y4389031D01*
X11935889Y4401633D01*
X11938846Y4416499D01*
Y4750600D01*
X11982900D01*
Y4916400D01*
D02*
G37*
G36*
X10586218Y4883900D02*
X10559782D01*
X10534247Y4877058D01*
X10511353Y4863840D01*
X10492660Y4845147D01*
X10479442Y4822253D01*
X10472600Y4796718D01*
Y4770282D01*
X10479442Y4744747D01*
X10492660Y4721853D01*
X10511153Y4703359D01*
Y4616091D01*
X10483909Y4588847D01*
X10149591D01*
X9982900Y4755537D01*
Y4866400D01*
X9817100D01*
Y4700600D01*
X9927963D01*
X10106032Y4522531D01*
X10118634Y4514111D01*
X10133500Y4511154D01*
X10500000D01*
X10514866Y4514111D01*
X10527469Y4522531D01*
X10577469Y4572531D01*
X10585889Y4585134D01*
X10588846Y4600000D01*
Y4683804D01*
X10611753Y4689942D01*
X10634647Y4703160D01*
X10653340Y4721853D01*
X10666558Y4744747D01*
X10673400Y4770282D01*
Y4796718D01*
X10666558Y4822253D01*
X10653340Y4845147D01*
X10634647Y4863840D01*
X10611753Y4877058D01*
X10586218Y4883900D01*
D02*
G37*
G36*
X12482900Y4557900D02*
X12412700D01*
Y4487699D01*
X12482900D01*
Y4557900D01*
D02*
G37*
G36*
X12387300D02*
X12317100D01*
Y4487699D01*
X12387300D01*
Y4557900D01*
D02*
G37*
G36*
X13432899Y4916400D02*
X13267101D01*
Y4750600D01*
X13311153D01*
Y4582590D01*
X12874361Y4145797D01*
X12860915Y4149399D01*
X12839085D01*
X12818002Y4143750D01*
X12799098Y4132836D01*
X12783664Y4117401D01*
X12772749Y4098498D01*
X12767100Y4077413D01*
Y4055585D01*
X12772749Y4034501D01*
X12783664Y4015598D01*
X12799098Y4000163D01*
X12818002Y3989249D01*
X12839085Y3983599D01*
X12860915D01*
X12881998Y3989249D01*
X12900902Y4000163D01*
X12916336Y4015598D01*
X12927251Y4034501D01*
X12932899Y4055585D01*
Y4077413D01*
X12929297Y4090859D01*
X13377469Y4539031D01*
X13385889Y4551634D01*
X13388846Y4566499D01*
Y4723123D01*
X13400580Y4727983D01*
X13527074Y4601489D01*
X13517159Y4584314D01*
X13511099Y4561704D01*
Y4538296D01*
X13517159Y4515686D01*
X13528862Y4495414D01*
X13545415Y4478862D01*
X13565686Y4467158D01*
X13588297Y4461100D01*
X13611703D01*
X13634314Y4467158D01*
X13654585Y4478862D01*
X13671138Y4495414D01*
X13682841Y4515686D01*
X13688901Y4538296D01*
Y4561704D01*
X13682841Y4584314D01*
X13671138Y4604586D01*
X13654585Y4621138D01*
X13634314Y4632842D01*
X13611703Y4638900D01*
X13599538D01*
X13432899Y4805537D01*
Y4916400D01*
D02*
G37*
G36*
X12482900Y4462299D02*
X12400000D01*
X12317100D01*
Y4392100D01*
X12331901D01*
X12337162Y4379400D01*
X12333663Y4375901D01*
X12322749Y4356998D01*
X12317100Y4335913D01*
Y4314086D01*
X12322749Y4293001D01*
X12333663Y4274098D01*
X12349098Y4258663D01*
X12368002Y4247749D01*
X12389086Y4242099D01*
X12410914D01*
X12431998Y4247749D01*
X12450902Y4258663D01*
X12466336Y4274098D01*
X12477250Y4293001D01*
X12482900Y4314086D01*
Y4335913D01*
X12477250Y4356998D01*
X12466336Y4375901D01*
X12462838Y4379400D01*
X12468099Y4392100D01*
X12482900D01*
Y4462299D01*
D02*
G37*
G36*
X11910914Y4149399D02*
X11889086D01*
X11868002Y4143750D01*
X11849098Y4132836D01*
X11833663Y4117401D01*
X11822749Y4098498D01*
X11817100Y4077413D01*
Y4055585D01*
X11822749Y4034501D01*
X11833663Y4015598D01*
X11849098Y4000163D01*
X11868002Y3989249D01*
X11889086Y3983599D01*
X11910914D01*
X11931998Y3989249D01*
X11950902Y4000163D01*
X11966336Y4015598D01*
X11977250Y4034501D01*
X11982900Y4055585D01*
Y4077413D01*
X11977250Y4098498D01*
X11966336Y4117401D01*
X11950902Y4132836D01*
X11931998Y4143750D01*
X11910914Y4149399D01*
D02*
G37*
G36*
X7587701Y4047862D02*
Y3965200D01*
X7670362D01*
X7663899Y3989323D01*
X7651339Y4011077D01*
X7633577Y4028839D01*
X7611823Y4041399D01*
X7587701Y4047862D01*
D02*
G37*
G36*
X7562301Y4047862D02*
X7538177Y4041399D01*
X7516423Y4028839D01*
X7498661Y4011077D01*
X7486102Y3989323D01*
X7479638Y3965200D01*
X7562301D01*
Y4047862D01*
D02*
G37*
G36*
X14032300Y4050400D02*
X14031783D01*
X14006247Y4043558D01*
X13983353Y4030340D01*
X13964661Y4011647D01*
X13951442Y3988753D01*
X13944600Y3963218D01*
Y3962700D01*
X14032300D01*
Y4050400D01*
D02*
G37*
G36*
X10840218Y4121900D02*
X10813782D01*
X10788247Y4115058D01*
X10765353Y4101840D01*
X10746660Y4083147D01*
X10733442Y4060253D01*
X10726600Y4034718D01*
Y4008282D01*
X10733442Y3982747D01*
X10746660Y3959853D01*
X10765353Y3941160D01*
X10788247Y3927942D01*
X10813782Y3921100D01*
X10840218D01*
X10865753Y3927942D01*
X10888647Y3941160D01*
X10907340Y3959853D01*
X10920558Y3982747D01*
X10927400Y4008282D01*
Y4034718D01*
X10920558Y4060253D01*
X10907340Y4083147D01*
X10888647Y4101840D01*
X10865753Y4115058D01*
X10840218Y4121900D01*
D02*
G37*
G36*
X10586218D02*
X10559782D01*
X10534247Y4115058D01*
X10511353Y4101840D01*
X10492660Y4083147D01*
X10479442Y4060253D01*
X10472600Y4034718D01*
Y4008282D01*
X10479442Y3982747D01*
X10492660Y3959853D01*
X10511353Y3941160D01*
X10534247Y3927942D01*
X10559782Y3921100D01*
X10586218D01*
X10611753Y3927942D01*
X10634647Y3941160D01*
X10653340Y3959853D01*
X10666558Y3982747D01*
X10673400Y4008282D01*
Y4034718D01*
X10666558Y4060253D01*
X10653340Y4083147D01*
X10634647Y4101840D01*
X10611753Y4115058D01*
X10586218Y4121900D01*
D02*
G37*
G36*
X10332218D02*
X10305782D01*
X10280247Y4115058D01*
X10257353Y4101840D01*
X10238660Y4083147D01*
X10225442Y4060253D01*
X10218600Y4034718D01*
Y4008282D01*
X10225442Y3982747D01*
X10238660Y3959853D01*
X10257353Y3941160D01*
X10280247Y3927942D01*
X10305782Y3921100D01*
X10332218D01*
X10357753Y3927942D01*
X10380647Y3941160D01*
X10399340Y3959853D01*
X10412558Y3982747D01*
X10419400Y4008282D01*
Y4034718D01*
X10412558Y4060253D01*
X10399340Y4083147D01*
X10380647Y4101840D01*
X10357753Y4115058D01*
X10332218Y4121900D01*
D02*
G37*
G36*
X9061704Y4938900D02*
X9038296D01*
X9015686Y4932842D01*
X8995414Y4921138D01*
X8978862Y4904586D01*
X8967158Y4884314D01*
X8961100Y4861704D01*
Y4838296D01*
X8967158Y4815686D01*
X8978862Y4795414D01*
X8995414Y4778862D01*
X9011153Y4769775D01*
Y4666091D01*
X8522531Y4177469D01*
X8514110Y4164866D01*
X8511153Y4150000D01*
Y4080225D01*
X8495414Y4071138D01*
X8478862Y4054586D01*
X8467158Y4034314D01*
X8461100Y4011704D01*
Y3988296D01*
X8467158Y3965686D01*
X8478862Y3945414D01*
X8495414Y3928862D01*
X8515686Y3917158D01*
X8538296Y3911100D01*
X8561704D01*
X8584314Y3917158D01*
X8604586Y3928862D01*
X8621138Y3945414D01*
X8632842Y3965686D01*
X8638900Y3988296D01*
Y4011704D01*
X8632842Y4034314D01*
X8621138Y4054586D01*
X8604586Y4071138D01*
X8588846Y4080225D01*
Y4133909D01*
X9077469Y4622532D01*
X9085889Y4635134D01*
X9088846Y4650000D01*
Y4769775D01*
X9104586Y4778862D01*
X9121138Y4795414D01*
X9132842Y4815686D01*
X9138900Y4838296D01*
Y4861704D01*
X9132842Y4884314D01*
X9121138Y4904586D01*
X9104586Y4921138D01*
X9084314Y4932842D01*
X9061704Y4938900D01*
D02*
G37*
G36*
X7670362Y3939800D02*
X7587701D01*
Y3857138D01*
X7611823Y3863602D01*
X7633577Y3876161D01*
X7651339Y3893923D01*
X7663899Y3915677D01*
X7670362Y3939800D01*
D02*
G37*
G36*
X7562301D02*
X7479638D01*
X7486102Y3915677D01*
X7498661Y3893923D01*
X7516423Y3876161D01*
X7538177Y3863602D01*
X7562301Y3857138D01*
Y3939800D01*
D02*
G37*
G36*
X7087560Y4047900D02*
X7062441D01*
X7038177Y4041399D01*
X7016423Y4028839D01*
X6998661Y4011077D01*
X6986102Y3989323D01*
X6979600Y3965060D01*
Y3939941D01*
X6986102Y3915677D01*
X6998661Y3893923D01*
X7016423Y3876161D01*
X7038177Y3863602D01*
X7062441Y3857100D01*
X7087560D01*
X7111823Y3863602D01*
X7133577Y3876161D01*
X7151339Y3893923D01*
X7163899Y3915677D01*
X7170400Y3939941D01*
Y3965060D01*
X7163899Y3989323D01*
X7151339Y4011077D01*
X7133577Y4028839D01*
X7111823Y4041399D01*
X7087560Y4047900D01*
D02*
G37*
G36*
X6837560D02*
X6812441D01*
X6788177Y4041399D01*
X6766423Y4028839D01*
X6748661Y4011077D01*
X6736102Y3989323D01*
X6729600Y3965060D01*
Y3939941D01*
X6736102Y3915677D01*
X6748661Y3893923D01*
X6766423Y3876161D01*
X6788177Y3863602D01*
X6812441Y3857100D01*
X6837560D01*
X6861823Y3863602D01*
X6883577Y3876161D01*
X6901339Y3893923D01*
X6913899Y3915677D01*
X6920400Y3939941D01*
Y3965060D01*
X6913899Y3989323D01*
X6901339Y4011077D01*
X6883577Y4028839D01*
X6861823Y4041399D01*
X6837560Y4047900D01*
D02*
G37*
G36*
X6587560D02*
X6562441D01*
X6538177Y4041399D01*
X6516423Y4028839D01*
X6498661Y4011077D01*
X6486102Y3989323D01*
X6479600Y3965060D01*
Y3939941D01*
X6486102Y3915677D01*
X6498661Y3893923D01*
X6516423Y3876161D01*
X6538177Y3863602D01*
X6562441Y3857100D01*
X6587560D01*
X6611823Y3863602D01*
X6633577Y3876161D01*
X6651339Y3893923D01*
X6663899Y3915677D01*
X6670400Y3939941D01*
Y3965060D01*
X6663899Y3989323D01*
X6651339Y4011077D01*
X6633577Y4028839D01*
X6611823Y4041399D01*
X6587560Y4047900D01*
D02*
G37*
G36*
X6087560D02*
X6062441D01*
X6038177Y4041399D01*
X6016423Y4028839D01*
X5998661Y4011077D01*
X5986102Y3989323D01*
X5979600Y3965060D01*
Y3939941D01*
X5986102Y3915677D01*
X5998661Y3893923D01*
X6016423Y3876161D01*
X6038177Y3863602D01*
X6062441Y3857100D01*
X6087560D01*
X6111823Y3863602D01*
X6133577Y3876161D01*
X6151339Y3893923D01*
X6163899Y3915677D01*
X6170400Y3939941D01*
Y3965060D01*
X6163899Y3989323D01*
X6151339Y4011077D01*
X6133577Y4028839D01*
X6111823Y4041399D01*
X6087560Y4047900D01*
D02*
G37*
G36*
X5670400D02*
X5479600D01*
Y3857100D01*
X5670400D01*
Y4047900D01*
D02*
G37*
G36*
X13360915Y4149400D02*
X13339085D01*
X13318002Y4143750D01*
X13299098Y4132836D01*
X13283664Y4117402D01*
X13272749Y4098498D01*
X13267101Y4077414D01*
Y4055586D01*
X13270703Y4042140D01*
X13231520Y4002957D01*
X13223099Y3990354D01*
X13220142Y3975488D01*
Y3889958D01*
X13169031Y3838847D01*
X11318591D01*
X11174586Y3982851D01*
X11181400Y4008282D01*
Y4034718D01*
X11174558Y4060253D01*
X11161340Y4083147D01*
X11142647Y4101840D01*
X11119753Y4115058D01*
X11094218Y4121900D01*
X11067782D01*
X11042247Y4115058D01*
X11019353Y4101840D01*
X11000660Y4083147D01*
X10987442Y4060253D01*
X10980600Y4034718D01*
Y4008282D01*
X10987414Y3982851D01*
X10843409Y3838847D01*
X10132591D01*
X9979297Y3992140D01*
X9982900Y4005586D01*
Y4027414D01*
X9977251Y4048498D01*
X9966336Y4067402D01*
X9950902Y4082836D01*
X9931998Y4093751D01*
X9910914Y4099400D01*
X9889086D01*
X9868002Y4093751D01*
X9849098Y4082836D01*
X9833664Y4067402D01*
X9822749Y4048498D01*
X9817100Y4027414D01*
Y4005586D01*
X9822749Y3984502D01*
X9833664Y3965598D01*
X9849098Y3950164D01*
X9861154Y3943203D01*
Y3716091D01*
X9683909Y3538847D01*
X7916091D01*
X7863847Y3591091D01*
Y3864770D01*
X7883577Y3876161D01*
X7901339Y3893923D01*
X7913899Y3915677D01*
X7920400Y3939941D01*
Y3965060D01*
X7913899Y3989323D01*
X7901339Y4011077D01*
X7883577Y4028839D01*
X7861823Y4041399D01*
X7837560Y4047900D01*
X7812441D01*
X7788177Y4041399D01*
X7766423Y4028839D01*
X7748661Y4011077D01*
X7736102Y3989323D01*
X7729600Y3965060D01*
Y3939941D01*
X7736102Y3915677D01*
X7748661Y3893923D01*
X7766423Y3876161D01*
X7786154Y3864770D01*
Y3575000D01*
X7789111Y3560134D01*
X7797532Y3547531D01*
X7872531Y3472532D01*
X7885134Y3464111D01*
X7900000Y3461154D01*
X9700000D01*
X9714866Y3464111D01*
X9727468Y3472532D01*
X9927469Y3672532D01*
X9935889Y3685134D01*
X9938847Y3700000D01*
Y3906123D01*
X9950580Y3910983D01*
X10089031Y3772531D01*
X10101634Y3764111D01*
X10116500Y3761154D01*
X10859500D01*
X10874366Y3764111D01*
X10886969Y3772531D01*
X11042351Y3927914D01*
X11067782Y3921100D01*
X11094218D01*
X11119649Y3927914D01*
X11275031Y3772531D01*
X11287634Y3764111D01*
X11302500Y3761154D01*
X13185121D01*
X13199986Y3764111D01*
X13212590Y3772531D01*
X13286456Y3846399D01*
X13294878Y3859001D01*
X13297835Y3873867D01*
Y3959397D01*
X13325639Y3987203D01*
X13339085Y3983600D01*
X13360915D01*
X13381998Y3989249D01*
X13400902Y4000163D01*
X13416336Y4015598D01*
X13427251Y4034502D01*
X13432899Y4055586D01*
Y4077414D01*
X13427251Y4098498D01*
X13416336Y4117402D01*
X13400902Y4132836D01*
X13381998Y4143750D01*
X13360915Y4149400D01*
D02*
G37*
G36*
X7337560Y4047900D02*
X7312441D01*
X7288177Y4041399D01*
X7266423Y4028839D01*
X7248661Y4011077D01*
X7236102Y3989323D01*
X7229600Y3965060D01*
Y3939941D01*
X7236102Y3915677D01*
X7248661Y3893923D01*
X7266423Y3876161D01*
X7288177Y3863602D01*
X7298654Y3860794D01*
Y3373008D01*
X7295414Y3371138D01*
X7278862Y3354586D01*
X7267158Y3334314D01*
X7261100Y3311704D01*
Y3288296D01*
X7267158Y3265686D01*
X7278862Y3245414D01*
X7295414Y3228862D01*
X7315686Y3217158D01*
X7338296Y3211100D01*
X7361704D01*
X7384314Y3217158D01*
X7404586Y3228862D01*
X7421138Y3245414D01*
X7432842Y3265686D01*
X7438900Y3288296D01*
Y3311704D01*
X7432842Y3334314D01*
X7421138Y3354586D01*
X7404586Y3371138D01*
X7384314Y3382842D01*
X7376347Y3384976D01*
Y3871987D01*
X7383577Y3876161D01*
X7401339Y3893923D01*
X7413899Y3915677D01*
X7420400Y3939941D01*
Y3965060D01*
X7413899Y3989323D01*
X7401339Y4011077D01*
X7383577Y4028839D01*
X7361823Y4041399D01*
X7337560Y4047900D01*
D02*
G37*
G36*
X14767274Y3425400D02*
X14732726D01*
X14698837Y3418659D01*
X14666917Y3405437D01*
X14638190Y3386242D01*
X14613757Y3361811D01*
X14594563Y3333083D01*
X14581342Y3301162D01*
X14574600Y3267275D01*
Y3232725D01*
X14581342Y3198838D01*
X14594563Y3166917D01*
X14613757Y3138189D01*
X14638190Y3113758D01*
X14666917Y3094563D01*
X14698837Y3081341D01*
X14732726Y3074600D01*
X14767274D01*
X14801163Y3081341D01*
X14833083Y3094563D01*
X14861810Y3113758D01*
X14886243Y3138189D01*
X14905437Y3166917D01*
X14918658Y3198838D01*
X14925400Y3232725D01*
Y3267275D01*
X14918658Y3301162D01*
X14905437Y3333083D01*
X14886243Y3361811D01*
X14861810Y3386242D01*
X14833083Y3405437D01*
X14801163Y3418659D01*
X14767274Y3425400D01*
D02*
G37*
G36*
X5267275D02*
X5232725D01*
X5198838Y3418659D01*
X5166917Y3405437D01*
X5138189Y3386242D01*
X5113758Y3361811D01*
X5094563Y3333083D01*
X5081341Y3301162D01*
X5074600Y3267275D01*
Y3232725D01*
X5081341Y3198838D01*
X5094563Y3166917D01*
X5113758Y3138189D01*
X5138189Y3113758D01*
X5166917Y3094563D01*
X5198838Y3081341D01*
X5232725Y3074600D01*
X5267275D01*
X5301162Y3081341D01*
X5333083Y3094563D01*
X5361811Y3113758D01*
X5386242Y3138189D01*
X5405437Y3166917D01*
X5418659Y3198838D01*
X5425400Y3232725D01*
Y3267275D01*
X5418659Y3301162D01*
X5405437Y3333083D01*
X5386242Y3361811D01*
X5361811Y3386242D01*
X5333083Y3405437D01*
X5301162Y3418659D01*
X5267275Y3425400D01*
D02*
G37*
%LPD*%
D12*
X11550000Y5700000D02*
X12250000Y6400000D01*
X11550000Y5150000D02*
Y5700000D01*
X13200000Y9050000D02*
X14600000D01*
X13050000Y9200000D02*
X13200000Y9050000D01*
X14685121Y5950000D02*
X14700000Y5964879D01*
Y8950000D01*
X13800000Y5950000D02*
X14685121D01*
X14600000Y9050000D02*
X14700000Y8950000D01*
X13600000Y5250000D02*
Y5750000D01*
X13800000Y5950000D01*
X13350000Y4833500D02*
X13600000Y4583500D01*
Y4550000D02*
Y4583500D01*
X10550000Y4600000D02*
Y4760500D01*
X10573000Y4783500D01*
X10500000Y4550000D02*
X10550000Y4600000D01*
X10133500Y4550000D02*
X10500000D01*
X9900000Y4783500D02*
X10133500Y4550000D01*
X11500000Y4783500D02*
X11550000Y4833500D01*
X11081000Y4783500D02*
X11500000D01*
X11018700Y4845800D02*
X11081000Y4783500D01*
X11018700Y4845800D02*
Y4931300D01*
X9733500Y5050000D02*
X10900000D01*
X11018700Y4931300D01*
X9533500Y4850000D02*
X9733500Y5050000D01*
X10864879Y4550000D02*
X11616500D01*
X10827000Y4783500D02*
X10850000Y4760500D01*
Y4564879D02*
X10864879Y4550000D01*
X10850000Y4564879D02*
Y4760500D01*
X11616500Y4550000D02*
X11900000Y4833500D01*
Y4416499D02*
Y4833500D01*
X11550000Y4066499D02*
X11900000Y4416499D01*
X12600000Y8350000D02*
X12717000Y8467000D01*
X12950000D01*
X12600000Y6750000D02*
Y8350000D01*
Y6750000D02*
X12950000Y6400000D01*
X14000000D01*
X12850000Y4833500D02*
Y5750000D01*
Y4066499D02*
X13350000Y4566499D01*
Y4833500D01*
X13659879Y5085121D02*
X14045000Y4700000D01*
X13100000Y5083500D02*
Y5085121D01*
X13659879D01*
X12850000Y4833500D02*
X13100000Y5083500D01*
X7325000Y3952500D02*
X7337500Y3940000D01*
Y3312500D02*
Y3940000D01*
Y3312500D02*
X7350000Y3300000D01*
X8550000Y4000000D02*
Y4150000D01*
X9050000Y4650000D02*
Y4850000D01*
X8550000Y4150000D02*
X9050000Y4650000D01*
X7825000Y3575000D02*
X7900000Y3500000D01*
X7825000Y3575000D02*
Y3952500D01*
X7900000Y3500000D02*
X9700000D01*
X9900000Y3700000D02*
Y4016500D01*
X9700000Y3500000D02*
X9900000Y3700000D01*
X6325000Y3952500D02*
Y4425000D01*
X7300000Y5400000D01*
X8650000D01*
X9400000Y6150000D01*
X11300000D01*
X11550000Y6400000D02*
Y6700000D01*
X11300000Y6150000D02*
X11550000Y6400000D01*
X5810521Y4840219D02*
Y5660521D01*
X6150000Y6000000D01*
X5825000Y3952500D02*
Y4825740D01*
X5810521Y4840219D02*
X5825000Y4825740D01*
X6150000Y6000000D02*
X7100000D01*
X7633000Y6533000D02*
Y6700000D01*
X7100000Y6000000D02*
X7633000Y6533000D01*
X9900000Y4016500D02*
X10116500Y3800000D01*
X10859500D01*
X11081000Y4021500D01*
X13258987Y3873867D02*
Y3975488D01*
X13185121Y3800000D02*
X13258987Y3873867D01*
X11302500Y3800000D02*
X13185121D01*
X13258987Y3975488D02*
X13350000Y4066500D01*
X11081000Y4021500D02*
X11302500Y3800000D01*
X14053101Y3958100D02*
X14158099D01*
X14045000Y3950000D02*
X14053101Y3958100D01*
X14158099D02*
X14300000Y4100000D01*
Y4600000D01*
X14045000Y4700000D02*
X14200000D01*
X14300000Y4600000D01*
X14200000Y4700000D02*
X14300000Y4800000D01*
Y5600000D01*
X14250000Y5650000D02*
X14300000Y5600000D01*
X14045000Y5650000D02*
X14250000D01*
X12350000Y9350000D02*
X14350000D01*
X10350000D02*
X12350000D01*
X8400000D02*
X10350000D01*
X6600000D02*
X8400000D01*
X11150000Y9200000D02*
X13050000D01*
X9150000D02*
X11150000D01*
X7200000D02*
X9150000D01*
X5350000D02*
X7200000D01*
X11050000Y8966500D02*
X12950000D01*
X9100000D02*
X11050000D01*
X7100000D02*
X9100000D01*
X5300000Y8959501D02*
X7093001D01*
X7100000Y8966500D01*
X12950000Y8467000D02*
Y8966500D01*
X11050000Y8467001D02*
Y8966500D01*
Y8467001D02*
X11050000Y8467000D01*
X9100000Y8450000D02*
X9100000Y8450000D01*
Y8966500D01*
X7100000Y8433500D02*
Y8966500D01*
X5300000Y8433501D02*
X5300000Y8433500D01*
X5300000Y8433501D02*
Y8959501D01*
X12950000Y7700000D02*
X13350000D01*
Y8400000D01*
X13666499Y8716500D01*
X14200000D01*
X11050000Y7700000D02*
X11400000D01*
Y8400000D01*
X11716500Y8716500D01*
X12200000D01*
X9141390Y7683000D02*
X9383000D01*
X9400000Y7700000D01*
X9126750Y7697639D02*
X9141390Y7683000D01*
X9126750Y7697639D02*
Y7698144D01*
X9400000Y7700000D02*
Y8400000D01*
X9716499Y8716500D01*
X10200000D01*
X7100000Y7666500D02*
X7416500D01*
X7450000Y7700000D01*
Y8400000D01*
X7766500Y8716500D01*
X8250000D01*
X5600000Y7700000D02*
Y8400000D01*
X5324246Y7666500D02*
X5357746Y7700000D01*
X5300000Y7666500D02*
X5324246D01*
X5357746Y7700000D02*
X5600000D01*
X5916500Y8716500D02*
X6400000D01*
X5600000Y8400000D02*
X5916500Y8716500D01*
D13*
X7666500Y4850000D02*
D03*
X13933501Y11100000D02*
D03*
X11983500D02*
D03*
X10033500D02*
D03*
X8083500D02*
D03*
X6283500D02*
D03*
X13600000Y6700000D02*
D03*
X11550000D02*
D03*
X9566499D02*
D03*
X7633000D02*
D03*
X5775000D02*
D03*
X10116500Y5450000D02*
D03*
X14233501Y7350000D02*
D03*
X12183500D02*
D03*
X10183500D02*
D03*
X6383500D02*
D03*
X8250000D02*
D03*
X12350000Y5450000D02*
D03*
X8766500Y4850000D02*
D03*
D14*
X8433500D02*
D03*
X13166499Y11100000D02*
D03*
X11216500D02*
D03*
X9266500D02*
D03*
X7316500D02*
D03*
X5516500D02*
D03*
X13450000Y6700000D02*
D03*
X11400000D02*
D03*
X9416499D02*
D03*
X7483000D02*
D03*
X5625000D02*
D03*
X10883500Y5450000D02*
D03*
X9900000Y4016500D02*
D03*
X11550000Y4066499D02*
D03*
X11900000D02*
D03*
X14200000Y8433500D02*
D03*
Y8716500D02*
D03*
Y9916500D02*
D03*
X13466499Y7350000D02*
D03*
X12950000Y7700000D02*
D03*
Y9733500D02*
D03*
X12200000Y9883500D02*
D03*
X12200000Y8433500D02*
D03*
X11416500Y7350000D02*
D03*
X11050000Y7700000D02*
D03*
X11050000Y9733500D02*
D03*
X10200000Y8433500D02*
D03*
X9416500Y7350000D02*
D03*
X9100000Y7683000D02*
D03*
X9100000Y9733500D02*
D03*
X10200000Y8716500D02*
D03*
Y9850000D02*
D03*
X6400000Y9866500D02*
D03*
X8250000D02*
D03*
Y8716500D02*
D03*
X7100000Y9733500D02*
D03*
X5300000Y9726501D02*
D03*
X6400000Y8716500D02*
D03*
X5616500Y7350000D02*
D03*
X7483000D02*
D03*
X8250000Y8433500D02*
D03*
X7100000Y7666500D02*
D03*
X5300000D02*
D03*
X6367001Y8433500D02*
D03*
X12200000Y8716500D02*
D03*
X13350000Y4066500D02*
D03*
X12400000Y4324999D02*
D03*
X12850000Y4066499D02*
D03*
X12200000Y5450000D02*
D03*
X9533500Y4850000D02*
D03*
D15*
X11900000Y7700000D02*
D03*
X9900000D02*
D03*
X7950000D02*
D03*
X13350000Y9900000D02*
D03*
X5600000D02*
D03*
X6100000Y10500000D02*
D03*
X9400000Y8400000D02*
D03*
Y9883500D02*
D03*
X9900000Y10483500D02*
D03*
X13850000Y7700000D02*
D03*
X6100000D02*
D03*
X13850000Y10500000D02*
D03*
X11900000D02*
D03*
X7950000D02*
D03*
X13350000Y8400000D02*
D03*
X11400000D02*
D03*
X7450000D02*
D03*
X5600000D02*
D03*
X11400000Y9900000D02*
D03*
X7450000Y9900000D02*
D03*
D16*
X11400000Y7700000D02*
D03*
X9400000D02*
D03*
X7450000D02*
D03*
X13850000Y9900000D02*
D03*
X6100000D02*
D03*
X5600000Y10500000D02*
D03*
X9900000Y8400000D02*
D03*
Y9883500D02*
D03*
X9400000Y10483500D02*
D03*
X13350000Y7700000D02*
D03*
X5600000D02*
D03*
X13350000Y10500000D02*
D03*
X11400000D02*
D03*
X7450000D02*
D03*
X13850000Y8400000D02*
D03*
X11900000D02*
D03*
X7950000D02*
D03*
X6100000D02*
D03*
X11900000Y9900000D02*
D03*
X7950000Y9900000D02*
D03*
D17*
X7825000Y3952500D02*
D03*
X7575000D02*
D03*
X7325000D02*
D03*
X7075000D02*
D03*
X6825000D02*
D03*
X6575000D02*
D03*
X6325000D02*
D03*
X6075000D02*
D03*
X5825000D02*
D03*
D18*
X5575000D02*
D03*
D19*
X11081000Y4783500D02*
D03*
X14045000Y3750000D02*
D03*
Y4500000D02*
D03*
Y5450000D02*
D03*
D20*
X10827000Y4783500D02*
D03*
X10573000D02*
D03*
X10319000D02*
D03*
X11081000Y4021500D02*
D03*
X10827000D02*
D03*
X10573000D02*
D03*
X10319000D02*
D03*
X14045000Y3950000D02*
D03*
Y4700000D02*
D03*
Y5650000D02*
D03*
D21*
X9900000Y4783500D02*
D03*
X11550000Y4833500D02*
D03*
X11900000D02*
D03*
X14200000Y7666500D02*
D03*
Y9483500D02*
D03*
Y10683500D02*
D03*
X12950000Y8467000D02*
D03*
Y8966500D02*
D03*
X12200000Y10650500D02*
D03*
X12200000Y7666500D02*
D03*
X11050000Y8467000D02*
D03*
X11050000Y8966500D02*
D03*
X10200000Y7666500D02*
D03*
X9100000Y8450000D02*
D03*
X9100000Y8966500D02*
D03*
X10200000Y9483500D02*
D03*
Y10617001D02*
D03*
X6400000Y10633500D02*
D03*
X8250000D02*
D03*
Y9483500D02*
D03*
X7100000Y8966500D02*
D03*
X5300000Y8959501D02*
D03*
X6400000Y9483500D02*
D03*
X8250000Y7666500D02*
D03*
X7100000Y8433500D02*
D03*
X5300000D02*
D03*
X6367001Y7666500D02*
D03*
X12200000Y9483500D02*
D03*
X13350000Y4833500D02*
D03*
X12400000Y4475000D02*
D03*
X12850000Y4833500D02*
D03*
D22*
X5250000Y11500000D02*
D03*
Y3250000D02*
D03*
X14750000D02*
D03*
Y11500000D02*
D03*
D23*
X12250000Y6400000D02*
D03*
X13600000Y5250000D02*
D03*
Y4550000D02*
D03*
X14000000Y6400000D02*
D03*
X12850000Y5750000D02*
D03*
X11550000Y5150000D02*
D03*
X7350000Y3300000D02*
D03*
X8550000Y4000000D02*
D03*
X9050000Y4850000D02*
D03*
X14350000Y9350000D02*
D03*
X12350000D02*
D03*
X10350000D02*
D03*
X8400000D02*
D03*
X6600000D02*
D03*
X13050000Y9200000D02*
D03*
X11150000D02*
D03*
X9150000D02*
D03*
X7200000D02*
D03*
X5350000D02*
D03*
%TF.MD5,bfc9f5e6ed3a677b51e058909a5664a6*%
M02*
