%TF.GenerationSoftware,Altium Limited,Altium Designer,24.10.1 (45)*%
G04 Layer_Color=65535*
%FSLAX45Y45*%
%MOMM*%
%TF.SameCoordinates,D700451D-F6DB-41F8-9F1A-DBDDD93A0A9D*%
%TF.FilePolarity,Positive*%
%TF.FileFunction,Legend,Top*%
%TF.Part,Single*%
G01*
G75*
%TA.AperFunction,NonConductor*%
%ADD24C,0.60000*%
%ADD25C,0.25000*%
%ADD26C,0.20000*%
%ADD27C,0.15000*%
%ADD28C,0.25400*%
%ADD29C,0.50000*%
D24*
X5820000Y9300000D02*
G03*
X5820000Y9300000I-30000J0D01*
G01*
X11140000Y4567500D02*
G03*
X11140000Y4567500I-30000J0D01*
G01*
X9619999Y9300000D02*
G03*
X9619999Y9300000I-30000J0D01*
G01*
X8980000Y3890000D02*
G03*
X8980000Y3890000I-30000J0D01*
G01*
X13570000Y9300000D02*
G03*
X13570000Y9300000I-30000J0D01*
G01*
X11607500D02*
G03*
X11607500Y9300000I-30000J0D01*
G01*
X7670000D02*
G03*
X7670000Y9300000I-30000J0D01*
G01*
D25*
X5600000Y9423000D02*
G03*
X5600000Y9423000I-12500J0D01*
G01*
X5282500Y3952500D02*
G03*
X5282500Y3952500I-12500J0D01*
G01*
X11223500Y4783500D02*
G03*
X11223500Y4783500I-12500J0D01*
G01*
X9399999Y9423000D02*
G03*
X9399999Y9423000I-12500J0D01*
G01*
X8839500Y3687500D02*
G03*
X8839500Y3687500I-12500J0D01*
G01*
X13350000Y9423000D02*
G03*
X13350000Y9423000I-12500J0D01*
G01*
X11387500D02*
G03*
X11387500Y9423000I-12500J0D01*
G01*
X7450000D02*
G03*
X7450000Y9423000I-12500J0D01*
G01*
D26*
X11210000Y4466000D02*
G03*
X11210000Y4339000I0J-63500D01*
G01*
X7812500Y4951500D02*
X8287500D01*
Y4748500D02*
Y4951500D01*
X7812500Y4748500D02*
X8287500D01*
X7812500D02*
Y4951500D01*
X7764000Y4850000D02*
X7812500D01*
X8287500D02*
X8336000D01*
X13312500Y10998500D02*
X13787500D01*
X13312500D02*
Y11201500D01*
X13787500D01*
Y10998500D02*
Y11201500D01*
Y11100000D02*
X13836000D01*
X13264000D02*
X13312500D01*
X11362500Y10998500D02*
X11837500D01*
X11362500D02*
Y11201500D01*
X11837500D01*
Y10998500D02*
Y11201500D01*
Y11100000D02*
X11886000D01*
X11314000D02*
X11362500D01*
X9412500Y10998500D02*
X9887500D01*
X9412500D02*
Y11201500D01*
X9887500D01*
Y10998500D02*
Y11201500D01*
Y11100000D02*
X9936000D01*
X9364000D02*
X9412500D01*
X7462500Y10998500D02*
X7937500D01*
X7462500D02*
Y11201500D01*
X7937500D01*
Y10998500D02*
Y11201500D01*
Y11100000D02*
X7986000D01*
X7414000D02*
X7462500D01*
X5662500Y10998500D02*
X6137500D01*
X5662500D02*
Y11201500D01*
X6137500D01*
Y10998500D02*
Y11201500D01*
Y11100000D02*
X6186000D01*
X5614000D02*
X5662500D01*
X11450000Y7797500D02*
Y7825000D01*
Y7575000D02*
Y7602500D01*
Y7575000D02*
X11850000D01*
Y7797500D02*
Y7825000D01*
Y7575000D02*
Y7602500D01*
X11450000Y7825000D02*
X11850000D01*
X9450000Y7797500D02*
Y7825000D01*
Y7575000D02*
Y7602500D01*
Y7575000D02*
X9850000D01*
Y7797500D02*
Y7825000D01*
Y7575000D02*
Y7602500D01*
X9450000Y7825000D02*
X9850000D01*
X7500000Y7797500D02*
Y7825000D01*
Y7575000D02*
Y7602500D01*
Y7575000D02*
X7900000D01*
Y7797500D02*
Y7825000D01*
Y7575000D02*
Y7602500D01*
X7500000Y7825000D02*
X7900000D01*
X5690000Y8900000D02*
X6010000D01*
X5690000Y9400000D02*
X6010000D01*
Y8900000D02*
Y9400000D01*
X5690000Y8900000D02*
Y9400000D01*
X8070000Y3612500D02*
Y4187500D01*
X5330000D02*
X8070000D01*
X5330000Y3612500D02*
Y4187500D01*
Y3612500D02*
X8070000D01*
X10190000Y4667500D02*
X11210000D01*
X10190000Y4137500D02*
X11210000D01*
Y4466000D02*
Y4667500D01*
Y4137500D02*
Y4339000D01*
X10190000Y4137500D02*
Y4667500D01*
X14325000Y3555000D02*
Y4145000D01*
X13875000D02*
X14325000D01*
X13875000Y3555000D02*
X14325000D01*
X13875000D02*
Y4145000D01*
X13712500Y6600000D02*
Y6800000D01*
X11662500Y6600000D02*
Y6800000D01*
X9678999Y6600000D02*
Y6800000D01*
X7745500Y6600000D02*
Y6800000D01*
X5887500Y6600000D02*
Y6800000D01*
X10737500Y5450000D02*
X10786000D01*
X10214000D02*
X10262500D01*
Y5348500D02*
Y5551500D01*
Y5348500D02*
X10737500D01*
Y5551500D01*
X10262500D02*
X10737500D01*
X9900000Y4114000D02*
Y4162500D01*
Y4637500D02*
Y4686000D01*
X9798500Y4637500D02*
X10001500D01*
X9798500Y4162500D02*
Y4637500D01*
Y4162500D02*
X10001500D01*
Y4637500D01*
X11550000Y4164000D02*
Y4212500D01*
Y4687499D02*
Y4735999D01*
X11448500Y4687499D02*
X11651500D01*
X11448500Y4212500D02*
Y4687499D01*
Y4212500D02*
X11651500D01*
Y4687499D01*
X11900000Y4164000D02*
Y4212500D01*
Y4687499D02*
Y4735999D01*
X11798500Y4687499D02*
X12001500D01*
X11798500Y4212500D02*
Y4687499D01*
Y4212500D02*
X12001500D01*
Y4687499D01*
X14200000Y8287500D02*
Y8336000D01*
Y7764000D02*
Y7812500D01*
X14098500D02*
X14301500D01*
Y8287500D01*
X14098500D02*
X14301500D01*
X14098500Y7812500D02*
Y8287500D01*
X14200000Y8814000D02*
Y8862500D01*
Y9337500D02*
Y9386000D01*
X14098500Y9337500D02*
X14301500D01*
X14098500Y8862500D02*
Y9337500D01*
Y8862500D02*
X14301500D01*
Y9337500D01*
X14200000Y10014000D02*
Y10062500D01*
Y10537500D02*
Y10586000D01*
X14098500Y10537500D02*
X14301500D01*
X14098500Y10062500D02*
Y10537500D01*
Y10062500D02*
X14301500D01*
Y10537500D01*
X13564000Y7350000D02*
X13612500D01*
X14087500D02*
X14136000D01*
X14087500Y7248500D02*
Y7451500D01*
X13612500D02*
X14087500D01*
X13612500Y7248500D02*
Y7451500D01*
Y7248500D02*
X14087500D01*
X12950000Y7797500D02*
Y7846000D01*
Y8321000D02*
Y8369500D01*
X12848500Y8321000D02*
X13051500D01*
X12848500Y7846000D02*
Y8321000D01*
Y7846000D02*
X13051500D01*
Y8321000D01*
X12950000Y9587500D02*
Y9636000D01*
Y9064000D02*
Y9112500D01*
X12848500D02*
X13051500D01*
Y9587500D01*
X12848500D02*
X13051500D01*
X12848500Y9112500D02*
Y9587500D01*
X12200000Y9981000D02*
Y10029500D01*
Y10504500D02*
Y10553000D01*
X12098500Y10504500D02*
X12301500D01*
X12098500Y10029500D02*
Y10504500D01*
Y10029500D02*
X12301500D01*
Y10504500D01*
X12200000Y8287500D02*
Y8336000D01*
Y7764000D02*
Y7812500D01*
X12098500D02*
X12301500D01*
Y8287500D01*
X12098500D02*
X12301500D01*
X12098500Y7812500D02*
Y8287500D01*
X11514000Y7350000D02*
X11562500D01*
X12037500D02*
X12086000D01*
X12037500Y7248500D02*
Y7451500D01*
X11562500D02*
X12037500D01*
X11562500Y7248500D02*
Y7451500D01*
Y7248500D02*
X12037500D01*
X11050000Y7797500D02*
Y7846000D01*
Y8321000D02*
Y8369500D01*
X10948500Y8321000D02*
X11151500D01*
X10948500Y7846000D02*
Y8321000D01*
Y7846000D02*
X11151500D01*
Y8321000D01*
X11050000Y9587500D02*
Y9636000D01*
Y9064000D02*
Y9112500D01*
X10948500D02*
X11151500D01*
Y9587500D01*
X10948500D02*
X11151500D01*
X10948500Y9112500D02*
Y9587500D01*
X10200000Y8287500D02*
Y8336000D01*
Y7764000D02*
Y7812500D01*
X10098500D02*
X10301500D01*
Y8287500D01*
X10098500D02*
X10301500D01*
X10098500Y7812500D02*
Y8287500D01*
X9514000Y7350000D02*
X9562500D01*
X10037500D02*
X10086000D01*
X10037500Y7248500D02*
Y7451500D01*
X9562500D02*
X10037500D01*
X9562500Y7248500D02*
Y7451500D01*
Y7248500D02*
X10037500D01*
X9100000Y7780500D02*
Y7829000D01*
Y8304000D02*
Y8352500D01*
X8998500Y8304000D02*
X9201500D01*
X8998500Y7829000D02*
Y8304000D01*
Y7829000D02*
X9201500D01*
Y8304000D01*
X9100000Y9587500D02*
Y9636000D01*
Y9064000D02*
Y9112500D01*
X8998500D02*
X9201500D01*
Y9587500D01*
X8998500D02*
X9201500D01*
X8998500Y9112500D02*
Y9587500D01*
X10200000Y8814000D02*
Y8862500D01*
Y9337500D02*
Y9386000D01*
X10098500Y9337500D02*
X10301500D01*
X10098500Y8862500D02*
Y9337500D01*
Y8862500D02*
X10301500D01*
Y9337500D01*
X10200000Y9947501D02*
Y9996001D01*
Y10471000D02*
Y10519500D01*
X10098500Y10471000D02*
X10301500D01*
X10098500Y9996001D02*
Y10471000D01*
Y9996001D02*
X10301500D01*
Y10471000D01*
X13800000Y9775000D02*
Y9802500D01*
Y9997500D02*
Y10025000D01*
X13400000D02*
X13800000D01*
X13400000Y9775000D02*
Y9802500D01*
Y9997500D02*
Y10025000D01*
Y9775000D02*
X13800000D01*
X6400000Y9964000D02*
Y10012500D01*
Y10487500D02*
Y10536000D01*
X6298500Y10487500D02*
X6501500D01*
X6298500Y10012500D02*
Y10487500D01*
Y10012500D02*
X6501500D01*
Y10487500D01*
X6050000Y9775000D02*
Y9802500D01*
Y9997500D02*
Y10025000D01*
X5650000D02*
X6050000D01*
X5650000Y9775000D02*
Y9802500D01*
Y9997500D02*
Y10025000D01*
Y9775000D02*
X6050000D01*
X5650000Y10597500D02*
Y10625000D01*
Y10375000D02*
Y10402500D01*
Y10375000D02*
X6050000D01*
Y10597500D02*
Y10625000D01*
Y10375000D02*
Y10402500D01*
X5650000Y10625000D02*
X6050000D01*
X8250000Y9964000D02*
Y10012500D01*
Y10487500D02*
Y10536000D01*
X8148500Y10487500D02*
X8351500D01*
X8148500Y10012500D02*
Y10487500D01*
Y10012500D02*
X8351500D01*
Y10487500D01*
X8250000Y8814000D02*
Y8862500D01*
Y9337500D02*
Y9386000D01*
X8148500Y9337500D02*
X8351500D01*
X8148500Y8862500D02*
Y9337500D01*
Y8862500D02*
X8351500D01*
Y9337500D01*
X7100000Y9587500D02*
Y9636000D01*
Y9064000D02*
Y9112500D01*
X6998500D02*
X7201500D01*
Y9587500D01*
X6998500D02*
X7201500D01*
X6998500Y9112500D02*
Y9587500D01*
X5300000Y9580501D02*
Y9629001D01*
Y9057001D02*
Y9105501D01*
X5198500D02*
X5401500D01*
Y9580501D01*
X5198500D02*
X5401500D01*
X5198500Y9105501D02*
Y9580501D01*
X6400000Y8814000D02*
Y8862500D01*
Y9337500D02*
Y9386000D01*
X6298500Y9337500D02*
X6501500D01*
X6298500Y8862500D02*
Y9337500D01*
Y8862500D02*
X6501500D01*
Y9337500D01*
X5714000Y7350000D02*
X5762500D01*
X6237500D02*
X6286000D01*
X6237500Y7248500D02*
Y7451500D01*
X5762500D02*
X6237500D01*
X5762500Y7248500D02*
Y7451500D01*
Y7248500D02*
X6237500D01*
X7580500Y7350000D02*
X7629000D01*
X8104000D02*
X8152500D01*
X8104000Y7248500D02*
Y7451500D01*
X7629000D02*
X8104000D01*
X7629000Y7248500D02*
Y7451500D01*
Y7248500D02*
X8104000D01*
X8250000Y8287500D02*
Y8336000D01*
Y7764000D02*
Y7812500D01*
X8148500D02*
X8351500D01*
Y8287500D01*
X8148500D02*
X8351500D01*
X8148500Y7812500D02*
Y8287500D01*
X7100000Y7764000D02*
Y7812500D01*
Y8287500D02*
Y8336000D01*
X6998500Y8287500D02*
X7201500D01*
X6998500Y7812500D02*
Y8287500D01*
Y7812500D02*
X7201500D01*
Y8287500D01*
X5300000Y7764000D02*
Y7812500D01*
Y8287500D02*
Y8336000D01*
X5198500Y8287500D02*
X5401500D01*
X5198500Y7812500D02*
Y8287500D01*
Y7812500D02*
X5401500D01*
Y8287500D01*
X6367001D02*
Y8336000D01*
Y7764000D02*
Y7812500D01*
X6265501D02*
X6468501D01*
Y8287500D01*
X6265501D02*
X6468501D01*
X6265501Y7812500D02*
Y8287500D01*
X12200000Y8814000D02*
Y8862500D01*
Y9337500D02*
Y9386000D01*
X12098500Y9337500D02*
X12301500D01*
X12098500Y8862500D02*
Y9337500D01*
Y8862500D02*
X12301500D01*
Y9337500D01*
X9850000Y8275000D02*
Y8302500D01*
Y8497500D02*
Y8525000D01*
X9450000D02*
X9850000D01*
X9450000Y8275000D02*
Y8302500D01*
Y8497500D02*
Y8525000D01*
Y8275000D02*
X9850000D01*
Y9758500D02*
Y9786000D01*
Y9981000D02*
Y10008500D01*
X9450000D02*
X9850000D01*
X9450000Y9758500D02*
Y9786000D01*
Y9981000D02*
Y10008500D01*
Y9758500D02*
X9850000D01*
X9489999Y8900000D02*
X9809999D01*
X9489999Y9400000D02*
X9809999D01*
Y8900000D02*
Y9400000D01*
X9489999Y8900000D02*
Y9400000D01*
X9450000Y10581000D02*
Y10608501D01*
Y10358500D02*
Y10386001D01*
Y10358500D02*
X9850000D01*
Y10581000D02*
Y10608501D01*
Y10358500D02*
Y10386001D01*
X9450000Y10608501D02*
X9850000D01*
X13350000Y4164000D02*
Y4212500D01*
Y4687500D02*
Y4736000D01*
X13248500Y4687500D02*
X13451500D01*
X13248500Y4212500D02*
Y4687500D01*
Y4212500D02*
X13451500D01*
Y4687500D01*
X12300000Y4587500D02*
X12500000D01*
X12850000Y4164000D02*
Y4212500D01*
Y4687499D02*
Y4735999D01*
X12748500Y4687499D02*
X12951500D01*
X12748500Y4212500D02*
Y4687499D01*
Y4212500D02*
X12951500D01*
Y4687499D01*
X12462500Y5350000D02*
Y5550000D01*
X9350000Y3790000D02*
Y4110000D01*
X8850000Y3790000D02*
Y4110000D01*
X9350000D01*
X8850000Y3790000D02*
X9350000D01*
X9387500Y4850000D02*
X9436000D01*
X8864000D02*
X8912500D01*
Y4748500D02*
Y4951500D01*
Y4748500D02*
X9387500D01*
Y4951500D01*
X8912500D02*
X9387500D01*
X14325000Y4305000D02*
Y4895000D01*
X13875000D02*
X14325000D01*
X13875000Y4305000D02*
X14325000D01*
X13875000D02*
Y4895000D01*
X14325000Y5255000D02*
Y5845000D01*
X13875000D02*
X14325000D01*
X13875000Y5255000D02*
X14325000D01*
X13875000D02*
Y5845000D01*
X13439999Y8900000D02*
X13760001D01*
X13439999Y9400000D02*
X13760001D01*
Y8900000D02*
Y9400000D01*
X13439999Y8900000D02*
Y9400000D01*
X11477500Y8900000D02*
X11797500D01*
X11477500Y9400000D02*
X11797500D01*
Y8900000D02*
Y9400000D01*
X11477500Y8900000D02*
Y9400000D01*
X7540000Y8900000D02*
X7860000D01*
X7540000Y9400000D02*
X7860000D01*
Y8900000D02*
Y9400000D01*
X7540000Y8900000D02*
Y9400000D01*
X13400000Y7797500D02*
Y7825000D01*
Y7575000D02*
Y7602500D01*
Y7575000D02*
X13800000D01*
Y7797500D02*
Y7825000D01*
Y7575000D02*
Y7602500D01*
X13400000Y7825000D02*
X13800000D01*
X5650000Y7797500D02*
Y7825000D01*
Y7575000D02*
Y7602500D01*
Y7575000D02*
X6050000D01*
Y7797500D02*
Y7825000D01*
Y7575000D02*
Y7602500D01*
X5650000Y7825000D02*
X6050000D01*
X13400000Y10597500D02*
Y10625000D01*
Y10375000D02*
Y10402500D01*
Y10375000D02*
X13800000D01*
Y10597500D02*
Y10625000D01*
Y10375000D02*
Y10402500D01*
X13400000Y10625000D02*
X13800000D01*
X11450000Y10597500D02*
Y10625000D01*
Y10375000D02*
Y10402500D01*
Y10375000D02*
X11850000D01*
Y10597500D02*
Y10625000D01*
Y10375000D02*
Y10402500D01*
X11450000Y10625000D02*
X11850000D01*
X7500000Y10597500D02*
Y10625000D01*
Y10375000D02*
Y10402500D01*
Y10375000D02*
X7900000D01*
Y10597500D02*
Y10625000D01*
Y10375000D02*
Y10402500D01*
X7500000Y10625000D02*
X7900000D01*
X13800000Y8275000D02*
Y8302500D01*
Y8497500D02*
Y8525000D01*
X13400000D02*
X13800000D01*
X13400000Y8275000D02*
Y8302500D01*
Y8497500D02*
Y8525000D01*
Y8275000D02*
X13800000D01*
X11850000D02*
Y8302500D01*
Y8497500D02*
Y8525000D01*
X11450000D02*
X11850000D01*
X11450000Y8275000D02*
Y8302500D01*
Y8497500D02*
Y8525000D01*
Y8275000D02*
X11850000D01*
X7900000D02*
Y8302500D01*
Y8497500D02*
Y8525000D01*
X7500000D02*
X7900000D01*
X7500000Y8275000D02*
Y8302500D01*
Y8497500D02*
Y8525000D01*
Y8275000D02*
X7900000D01*
X6050000D02*
Y8302500D01*
Y8497500D02*
Y8525000D01*
X5650000D02*
X6050000D01*
X5650000Y8275000D02*
Y8302500D01*
Y8497500D02*
Y8525000D01*
Y8275000D02*
X6050000D01*
X11850000Y9775000D02*
Y9802500D01*
Y9997500D02*
Y10025000D01*
X11450000D02*
X11850000D01*
X11450000Y9775000D02*
Y9802500D01*
Y9997500D02*
Y10025000D01*
Y9775000D02*
X11850000D01*
X7900000Y9775000D02*
Y9802500D01*
Y9997500D02*
Y10025000D01*
X7500000D02*
X7900000D01*
X7500000Y9775000D02*
Y9802500D01*
Y9997500D02*
Y10025000D01*
Y9775000D02*
X7900000D01*
D27*
X13750000Y6700000D02*
G03*
X13750000Y6700000I-225000J0D01*
G01*
X11700000D02*
G03*
X11700000Y6700000I-225000J0D01*
G01*
X9716499D02*
G03*
X9716499Y6700000I-225000J0D01*
G01*
X7783000D02*
G03*
X7783000Y6700000I-225000J0D01*
G01*
X5925000D02*
G03*
X5925000Y6700000I-225000J0D01*
G01*
X12625000Y4400000D02*
G03*
X12625000Y4400000I-225000J0D01*
G01*
X12500000Y5450000D02*
G03*
X12500000Y5450000I-225000J0D01*
G01*
D28*
X11826967Y3277751D02*
X11776183D01*
X11801575D01*
Y3150792D01*
X11776183Y3125400D01*
X11750792D01*
X11725400Y3150792D01*
X11877751Y3277751D02*
Y3125400D01*
X11979318D01*
X12131669Y3252359D02*
X12106277Y3277751D01*
X12055493D01*
X12030101Y3252359D01*
Y3150792D01*
X12055493Y3125400D01*
X12106277D01*
X12131669Y3150792D01*
X12284019Y3277751D02*
X12233236D01*
X12258628D01*
Y3150792D01*
X12233236Y3125400D01*
X12207844D01*
X12182452Y3150792D01*
X12334803Y3277751D02*
Y3125400D01*
X12436370D01*
X12588721Y3252359D02*
X12563329Y3277751D01*
X12512545D01*
X12487154Y3252359D01*
Y3150792D01*
X12512545Y3125400D01*
X12563329D01*
X12588721Y3150792D01*
X12741072Y3277751D02*
X12690288D01*
X12715680D01*
Y3150792D01*
X12690288Y3125400D01*
X12664896D01*
X12639504Y3150792D01*
X12791855Y3277751D02*
Y3125400D01*
X12893422D01*
X13045773Y3252359D02*
X13020381Y3277751D01*
X12969598D01*
X12944206Y3252359D01*
Y3150792D01*
X12969598Y3125400D01*
X13020381D01*
X13045773Y3150792D01*
X13198125Y3277751D02*
X13147340D01*
X13172733D01*
Y3150792D01*
X13147340Y3125400D01*
X13121948D01*
X13096556Y3150792D01*
X13248907Y3277751D02*
Y3125400D01*
X13350475D01*
X13502824Y3252359D02*
X13477432Y3277751D01*
X13426649D01*
X13401257Y3252359D01*
Y3150792D01*
X13426649Y3125400D01*
X13477432D01*
X13502824Y3150792D01*
X7614920Y5046980D02*
Y5199331D01*
X7691095D01*
X7716487Y5173939D01*
Y5123155D01*
X7691095Y5097763D01*
X7614920D01*
X7665703D02*
X7716487Y5046980D01*
X7767271D02*
X7818054D01*
X7792663D01*
Y5199331D01*
X7767271Y5173939D01*
X7970405Y5046980D02*
Y5199331D01*
X7894230Y5123155D01*
X7995797D01*
X13294514Y11286520D02*
Y11438871D01*
X13370689D01*
X13396082Y11413479D01*
Y11362696D01*
X13370689Y11337304D01*
X13294514D01*
X13345297D02*
X13396082Y11286520D01*
X13446866Y11413479D02*
X13472258Y11438871D01*
X13523041D01*
X13548433Y11413479D01*
Y11388088D01*
X13523041Y11362696D01*
X13497649D01*
X13523041D01*
X13548433Y11337304D01*
Y11311912D01*
X13523041Y11286520D01*
X13472258D01*
X13446866Y11311912D01*
X13599216Y11261129D02*
X13700784D01*
X13751567Y11438871D02*
Y11286520D01*
X13827742D01*
X13853134Y11311912D01*
Y11337304D01*
X13827742Y11362696D01*
X13751567D01*
X13827742D01*
X13853134Y11388088D01*
Y11413479D01*
X13827742Y11438871D01*
X13751567D01*
X14005486D02*
X13903918D01*
Y11362696D01*
X13954701Y11388088D01*
X13980093D01*
X14005486Y11362696D01*
Y11311912D01*
X13980093Y11286520D01*
X13929311D01*
X13903918Y11311912D01*
X11344515Y11286520D02*
Y11438871D01*
X11420690D01*
X11446082Y11413479D01*
Y11362696D01*
X11420690Y11337304D01*
X11344515D01*
X11395299D02*
X11446082Y11286520D01*
X11496866Y11413479D02*
X11522258Y11438871D01*
X11573041D01*
X11598433Y11413479D01*
Y11388088D01*
X11573041Y11362696D01*
X11547649D01*
X11573041D01*
X11598433Y11337304D01*
Y11311912D01*
X11573041Y11286520D01*
X11522258D01*
X11496866Y11311912D01*
X11649216Y11261129D02*
X11750784D01*
X11801567Y11438871D02*
Y11286520D01*
X11877743D01*
X11903134Y11311912D01*
Y11337304D01*
X11877743Y11362696D01*
X11801567D01*
X11877743D01*
X11903134Y11388088D01*
Y11413479D01*
X11877743Y11438871D01*
X11801567D01*
X12030093Y11286520D02*
Y11438871D01*
X11953918Y11362696D01*
X12055485D01*
X9344515Y11286520D02*
Y11438871D01*
X9420690D01*
X9446082Y11413479D01*
Y11362696D01*
X9420690Y11337304D01*
X9344515D01*
X9395298D02*
X9446082Y11286520D01*
X9496866Y11413479D02*
X9522258Y11438871D01*
X9573041D01*
X9598433Y11413479D01*
Y11388088D01*
X9573041Y11362696D01*
X9547649D01*
X9573041D01*
X9598433Y11337304D01*
Y11311912D01*
X9573041Y11286520D01*
X9522258D01*
X9496866Y11311912D01*
X9649216Y11261129D02*
X9750784D01*
X9801567Y11438871D02*
Y11286520D01*
X9877742D01*
X9903134Y11311912D01*
Y11337304D01*
X9877742Y11362696D01*
X9801567D01*
X9877742D01*
X9903134Y11388088D01*
Y11413479D01*
X9877742Y11438871D01*
X9801567D01*
X9953918Y11413479D02*
X9979310Y11438871D01*
X10030093D01*
X10055485Y11413479D01*
Y11388088D01*
X10030093Y11362696D01*
X10004701D01*
X10030093D01*
X10055485Y11337304D01*
Y11311912D01*
X10030093Y11286520D01*
X9979310D01*
X9953918Y11311912D01*
X7394515Y11286520D02*
Y11438871D01*
X7470690D01*
X7496082Y11413479D01*
Y11362696D01*
X7470690Y11337304D01*
X7394515D01*
X7445299D02*
X7496082Y11286520D01*
X7546866Y11413479D02*
X7572258Y11438871D01*
X7623041D01*
X7648433Y11413479D01*
Y11388088D01*
X7623041Y11362696D01*
X7597649D01*
X7623041D01*
X7648433Y11337304D01*
Y11311912D01*
X7623041Y11286520D01*
X7572258D01*
X7546866Y11311912D01*
X7699217Y11261129D02*
X7800784D01*
X7851567Y11438871D02*
Y11286520D01*
X7927743D01*
X7953134Y11311912D01*
Y11337304D01*
X7927743Y11362696D01*
X7851567D01*
X7927743D01*
X7953134Y11388088D01*
Y11413479D01*
X7927743Y11438871D01*
X7851567D01*
X8105485Y11286520D02*
X8003918D01*
X8105485Y11388088D01*
Y11413479D01*
X8080093Y11438871D01*
X8029310D01*
X8003918Y11413479D01*
X5569907Y11336521D02*
Y11488871D01*
X5646082D01*
X5671474Y11463479D01*
Y11412696D01*
X5646082Y11387304D01*
X5569907D01*
X5620690D02*
X5671474Y11336521D01*
X5722258Y11463479D02*
X5747649Y11488871D01*
X5798433D01*
X5823825Y11463479D01*
Y11438088D01*
X5798433Y11412696D01*
X5773041D01*
X5798433D01*
X5823825Y11387304D01*
Y11361913D01*
X5798433Y11336521D01*
X5747649D01*
X5722258Y11361913D01*
X5874608Y11311129D02*
X5976175D01*
X6026959Y11488871D02*
Y11336521D01*
X6103134D01*
X6128526Y11361913D01*
Y11387304D01*
X6103134Y11412696D01*
X6026959D01*
X6103134D01*
X6128526Y11438088D01*
Y11463479D01*
X6103134Y11488871D01*
X6026959D01*
X6179310Y11336521D02*
X6230093D01*
X6204702D01*
Y11488871D01*
X6179310Y11463479D01*
X5372067Y4434791D02*
X5321283D01*
X5346675D01*
Y4307832D01*
X5321283Y4282440D01*
X5295892D01*
X5270500Y4307832D01*
X5524418Y4282440D02*
X5422851D01*
X5524418Y4384007D01*
Y4409399D01*
X5499026Y4434791D01*
X5448243D01*
X5422851Y4409399D01*
X8826500Y4516071D02*
Y4389112D01*
X8851892Y4363720D01*
X8902675D01*
X8928067Y4389112D01*
Y4516071D01*
X8978851Y4490679D02*
X9004243Y4516071D01*
X9055026D01*
X9080418Y4490679D01*
Y4465287D01*
X9055026Y4439895D01*
X9029634D01*
X9055026D01*
X9080418Y4414503D01*
Y4389112D01*
X9055026Y4363720D01*
X9004243D01*
X8978851Y4389112D01*
X10373041Y5076175D02*
Y4949216D01*
X10398433Y4923825D01*
X10449217D01*
X10474608Y4949216D01*
Y5076175D01*
X10626959Y4923825D02*
X10525392D01*
X10626959Y5025392D01*
Y5050783D01*
X10601567Y5076175D01*
X10550784D01*
X10525392Y5050783D01*
X13288060Y9701951D02*
Y9574992D01*
X13313452Y9549600D01*
X13364235D01*
X13389627Y9574992D01*
Y9701951D01*
X13440411Y9549600D02*
X13491194D01*
X13465804D01*
Y9701951D01*
X13440411Y9676559D01*
X13567371Y9524208D02*
X13668938D01*
X13719720Y9701951D02*
Y9549600D01*
X13795895D01*
X13821288Y9574992D01*
Y9600384D01*
X13795895Y9625776D01*
X13719720D01*
X13795895D01*
X13821288Y9651167D01*
Y9676559D01*
X13795895Y9701951D01*
X13719720D01*
X13973637D02*
X13872070D01*
Y9625776D01*
X13922855Y9651167D01*
X13948245D01*
X13973637Y9625776D01*
Y9574992D01*
X13948245Y9549600D01*
X13897462D01*
X13872070Y9574992D01*
X11324640Y9701951D02*
Y9574992D01*
X11350032Y9549600D01*
X11400815D01*
X11426207Y9574992D01*
Y9701951D01*
X11476991Y9549600D02*
X11527774D01*
X11502383D01*
Y9701951D01*
X11476991Y9676559D01*
X11603950Y9524208D02*
X11705517D01*
X11756300Y9701951D02*
Y9549600D01*
X11832476D01*
X11857868Y9574992D01*
Y9600384D01*
X11832476Y9625776D01*
X11756300D01*
X11832476D01*
X11857868Y9651167D01*
Y9676559D01*
X11832476Y9701951D01*
X11756300D01*
X11984826Y9549600D02*
Y9701951D01*
X11908651Y9625776D01*
X12010218D01*
X9338360Y9701951D02*
Y9574992D01*
X9363752Y9549600D01*
X9414535D01*
X9439927Y9574992D01*
Y9701951D01*
X9490711Y9549600D02*
X9541494D01*
X9516103D01*
Y9701951D01*
X9490711Y9676559D01*
X9617670Y9524208D02*
X9719237D01*
X9770020Y9701951D02*
Y9549600D01*
X9846196D01*
X9871588Y9574992D01*
Y9600384D01*
X9846196Y9625776D01*
X9770020D01*
X9846196D01*
X9871588Y9651167D01*
Y9676559D01*
X9846196Y9701951D01*
X9770020D01*
X9922371Y9676559D02*
X9947763Y9701951D01*
X9998546D01*
X10023938Y9676559D01*
Y9651167D01*
X9998546Y9625776D01*
X9973155D01*
X9998546D01*
X10023938Y9600384D01*
Y9574992D01*
X9998546Y9549600D01*
X9947763D01*
X9922371Y9574992D01*
X7387640Y9701951D02*
Y9574992D01*
X7413032Y9549600D01*
X7463815D01*
X7489207Y9574992D01*
Y9701951D01*
X7539991Y9549600D02*
X7590774D01*
X7565383D01*
Y9701951D01*
X7539991Y9676559D01*
X7666950Y9524208D02*
X7768517D01*
X7819300Y9701951D02*
Y9549600D01*
X7895476D01*
X7920868Y9574992D01*
Y9600384D01*
X7895476Y9625776D01*
X7819300D01*
X7895476D01*
X7920868Y9651167D01*
Y9676559D01*
X7895476Y9701951D01*
X7819300D01*
X8073218Y9549600D02*
X7971651D01*
X8073218Y9651167D01*
Y9676559D01*
X8047826Y9701951D01*
X7997043D01*
X7971651Y9676559D01*
X5537200Y9702751D02*
Y9575792D01*
X5562592Y9550400D01*
X5613375D01*
X5638767Y9575792D01*
Y9702751D01*
X5689551Y9550400D02*
X5740334D01*
X5714943D01*
Y9702751D01*
X5689551Y9677359D01*
X5816510Y9525008D02*
X5918077D01*
X5968860Y9702751D02*
Y9550400D01*
X6045036D01*
X6070428Y9575792D01*
Y9601183D01*
X6045036Y9626575D01*
X5968860D01*
X6045036D01*
X6070428Y9651967D01*
Y9677359D01*
X6045036Y9702751D01*
X5968860D01*
X6121211Y9550400D02*
X6171995D01*
X6146603D01*
Y9702751D01*
X6121211Y9677359D01*
X8714740Y5046980D02*
Y5199331D01*
X8790915D01*
X8816307Y5173939D01*
Y5123155D01*
X8790915Y5097763D01*
X8714740D01*
X8765523D02*
X8816307Y5046980D01*
X8867091D02*
X8917874D01*
X8892483D01*
Y5199331D01*
X8867091Y5173939D01*
X9095617Y5199331D02*
X8994050D01*
Y5123155D01*
X9044833Y5148547D01*
X9070225D01*
X9095617Y5123155D01*
Y5072372D01*
X9070225Y5046980D01*
X9019441D01*
X8994050Y5072372D01*
X10063480Y5648960D02*
Y5801311D01*
X10139655D01*
X10165047Y5775919D01*
Y5725135D01*
X10139655Y5699743D01*
X10063480D01*
X10114263D02*
X10165047Y5648960D01*
X10215831D02*
X10266614D01*
X10241223D01*
Y5801311D01*
X10215831Y5775919D01*
X10342790D02*
X10368181Y5801311D01*
X10418965D01*
X10444357Y5775919D01*
Y5750527D01*
X10418965Y5725135D01*
X10393573D01*
X10418965D01*
X10444357Y5699743D01*
Y5674352D01*
X10418965Y5648960D01*
X10368181D01*
X10342790Y5674352D01*
X12753340Y4986020D02*
Y5138371D01*
X12829515D01*
X12854907Y5112979D01*
Y5062195D01*
X12829515Y5036803D01*
X12753340D01*
X12804123D02*
X12854907Y4986020D01*
X12905692D02*
X12956474D01*
X12931084D01*
Y5138371D01*
X12905692Y5112979D01*
X13134216Y4986020D02*
X13032651D01*
X13134216Y5087587D01*
Y5112979D01*
X13108826Y5138371D01*
X13058041D01*
X13032651Y5112979D01*
X9804400Y4937760D02*
Y5090111D01*
X9880575D01*
X9905967Y5064719D01*
Y5013935D01*
X9880575Y4988543D01*
X9804400D01*
X9855183D02*
X9905967Y4937760D01*
X9956751D02*
X10007534D01*
X9982143D01*
Y5090111D01*
X9956751Y5064719D01*
X10083710Y4937760D02*
X10134493D01*
X10109101D01*
Y5090111D01*
X10083710Y5064719D01*
X11803380Y4986020D02*
Y5138371D01*
X11879555D01*
X11904947Y5112979D01*
Y5062195D01*
X11879555Y5036803D01*
X11803380D01*
X11854163D02*
X11904947Y4986020D01*
X11955731D02*
X12006514D01*
X11981123D01*
Y5138371D01*
X11955731Y5112979D01*
X12082690D02*
X12108081Y5138371D01*
X12158865D01*
X12184257Y5112979D01*
Y5011412D01*
X12158865Y4986020D01*
X12108081D01*
X12082690Y5011412D01*
Y5112979D01*
X11452860Y4986020D02*
Y5138371D01*
X11529035D01*
X11554427Y5112979D01*
Y5062195D01*
X11529035Y5036803D01*
X11452860D01*
X11503643D02*
X11554427Y4986020D01*
X11605211Y5011412D02*
X11630603Y4986020D01*
X11681386D01*
X11706778Y5011412D01*
Y5112979D01*
X11681386Y5138371D01*
X11630603D01*
X11605211Y5112979D01*
Y5087587D01*
X11630603Y5062195D01*
X11706778D01*
X13253720Y4986020D02*
Y5138371D01*
X13329895D01*
X13355287Y5112979D01*
Y5062195D01*
X13329895Y5036803D01*
X13253720D01*
X13304503D02*
X13355287Y4986020D01*
X13406071Y5112979D02*
X13431464Y5138371D01*
X13482246D01*
X13507639Y5112979D01*
Y5087587D01*
X13482246Y5062195D01*
X13507639Y5036803D01*
Y5011412D01*
X13482246Y4986020D01*
X13431464D01*
X13406071Y5011412D01*
Y5036803D01*
X13431464Y5062195D01*
X13406071Y5087587D01*
Y5112979D01*
X13431464Y5062195D02*
X13482246D01*
X13013480Y6828015D02*
X12861130D01*
Y6904191D01*
X12886520Y6929583D01*
X12937305D01*
X12962695Y6904191D01*
Y6828015D01*
Y6878799D02*
X13013480Y6929583D01*
X12861130Y6980366D02*
Y7081933D01*
X12886520D01*
X12988087Y6980366D01*
X13013480D01*
X13038870Y7132717D02*
Y7234284D01*
X12861130Y7285067D02*
X13013480D01*
Y7361243D01*
X12988087Y7386635D01*
X12962695D01*
X12937305Y7361243D01*
Y7285067D01*
Y7361243D01*
X12911913Y7386635D01*
X12886520D01*
X12861130Y7361243D01*
Y7285067D01*
Y7538985D02*
Y7437418D01*
X12937305D01*
X12911913Y7488202D01*
Y7513594D01*
X12937305Y7538985D01*
X12988087D01*
X13013480Y7513594D01*
Y7462810D01*
X12988087Y7437418D01*
X11113479Y6878015D02*
X10961129D01*
Y6954190D01*
X10986521Y6979582D01*
X11037304D01*
X11062696Y6954190D01*
Y6878015D01*
Y6928798D02*
X11113479Y6979582D01*
X10961129Y7030366D02*
Y7131933D01*
X10986521D01*
X11088088Y7030366D01*
X11113479D01*
X11138871Y7182716D02*
Y7284284D01*
X10961129Y7335067D02*
X11113479D01*
Y7411242D01*
X11088088Y7436634D01*
X11062696D01*
X11037304Y7411242D01*
Y7335067D01*
Y7411242D01*
X11011912Y7436634D01*
X10986521D01*
X10961129Y7411242D01*
Y7335067D01*
X11113479Y7563593D02*
X10961129D01*
X11037304Y7487418D01*
Y7588985D01*
X9213479Y6794515D02*
X9061129D01*
Y6870691D01*
X9086521Y6896082D01*
X9137304D01*
X9162696Y6870691D01*
Y6794515D01*
Y6845299D02*
X9213479Y6896082D01*
X9061129Y6946866D02*
Y7048433D01*
X9086521D01*
X9188088Y6946866D01*
X9213479D01*
X9238871Y7099217D02*
Y7200784D01*
X9061129Y7251567D02*
X9213479D01*
Y7327743D01*
X9188088Y7353135D01*
X9162696D01*
X9137304Y7327743D01*
Y7251567D01*
Y7327743D01*
X9111912Y7353135D01*
X9086521D01*
X9061129Y7327743D01*
Y7251567D01*
X9086521Y7403918D02*
X9061129Y7429310D01*
Y7480093D01*
X9086521Y7505485D01*
X9111912D01*
X9137304Y7480093D01*
Y7454702D01*
Y7480093D01*
X9162696Y7505485D01*
X9188088D01*
X9213479Y7480093D01*
Y7429310D01*
X9188088Y7403918D01*
X7163479Y6794515D02*
X7011128D01*
Y6870690D01*
X7036520Y6896082D01*
X7087304D01*
X7112696Y6870690D01*
Y6794515D01*
Y6845298D02*
X7163479Y6896082D01*
X7011128Y6946866D02*
Y7048433D01*
X7036520D01*
X7138087Y6946866D01*
X7163479D01*
X7188871Y7099216D02*
Y7200784D01*
X7011128Y7251567D02*
X7163479D01*
Y7327743D01*
X7138087Y7353134D01*
X7112696D01*
X7087304Y7327743D01*
Y7251567D01*
Y7327743D01*
X7061912Y7353134D01*
X7036520D01*
X7011128Y7327743D01*
Y7251567D01*
X7163479Y7505485D02*
Y7403918D01*
X7061912Y7505485D01*
X7036520D01*
X7011128Y7480093D01*
Y7429310D01*
X7036520Y7403918D01*
X5363479Y6869907D02*
X5211129D01*
Y6946082D01*
X5236521Y6971474D01*
X5287304D01*
X5312696Y6946082D01*
Y6869907D01*
Y6920691D02*
X5363479Y6971474D01*
X5211129Y7022258D02*
Y7123825D01*
X5236521D01*
X5338088Y7022258D01*
X5363479D01*
X5388871Y7174608D02*
Y7276176D01*
X5211129Y7326959D02*
X5363479D01*
Y7403135D01*
X5338088Y7428526D01*
X5312696D01*
X5287304Y7403135D01*
Y7326959D01*
Y7403135D01*
X5261912Y7428526D01*
X5236521D01*
X5211129Y7403135D01*
Y7326959D01*
X5363479Y7479310D02*
Y7530093D01*
Y7504702D01*
X5211129D01*
X5236521Y7479310D01*
X13013480Y9894515D02*
X12861128D01*
Y9970690D01*
X12886520Y9996082D01*
X12937305D01*
X12962695Y9970690D01*
Y9894515D01*
Y9945298D02*
X13013480Y9996082D01*
X12861128Y10148433D02*
X12886520Y10097649D01*
X12937305Y10046866D01*
X12988087D01*
X13013480Y10072257D01*
Y10123041D01*
X12988087Y10148433D01*
X12962695D01*
X12937305Y10123041D01*
Y10046866D01*
X13038870Y10199216D02*
Y10300784D01*
X12861128Y10351567D02*
X13013480D01*
Y10427742D01*
X12988087Y10453134D01*
X12962695D01*
X12937305Y10427742D01*
Y10351567D01*
Y10427742D01*
X12911913Y10453134D01*
X12886520D01*
X12861128Y10427742D01*
Y10351567D01*
Y10605485D02*
Y10503918D01*
X12937305D01*
X12911913Y10554701D01*
Y10580093D01*
X12937305Y10605485D01*
X12988087D01*
X13013480Y10580093D01*
Y10529310D01*
X12988087Y10503918D01*
X11113479Y9894515D02*
X10961129D01*
Y9970690D01*
X10986521Y9996082D01*
X11037304D01*
X11062696Y9970690D01*
Y9894515D01*
Y9945299D02*
X11113479Y9996082D01*
X10961129Y10148433D02*
X10986521Y10097649D01*
X11037304Y10046866D01*
X11088088D01*
X11113479Y10072258D01*
Y10123041D01*
X11088088Y10148433D01*
X11062696D01*
X11037304Y10123041D01*
Y10046866D01*
X11138871Y10199217D02*
Y10300784D01*
X10961129Y10351567D02*
X11113479D01*
Y10427743D01*
X11088088Y10453135D01*
X11062696D01*
X11037304Y10427743D01*
Y10351567D01*
Y10427743D01*
X11011912Y10453135D01*
X10986521D01*
X10961129Y10427743D01*
Y10351567D01*
X11113479Y10580093D02*
X10961129D01*
X11037304Y10503918D01*
Y10605485D01*
X9163480Y9878015D02*
X9011129D01*
Y9954191D01*
X9036521Y9979583D01*
X9087304D01*
X9112696Y9954191D01*
Y9878015D01*
Y9928799D02*
X9163480Y9979583D01*
X9011129Y10131933D02*
X9036521Y10081150D01*
X9087304Y10030366D01*
X9138088D01*
X9163480Y10055758D01*
Y10106541D01*
X9138088Y10131933D01*
X9112696D01*
X9087304Y10106541D01*
Y10030366D01*
X9188872Y10182717D02*
Y10284284D01*
X9011129Y10335067D02*
X9163480D01*
Y10411243D01*
X9138088Y10436635D01*
X9112696D01*
X9087304Y10411243D01*
Y10335067D01*
Y10411243D01*
X9061913Y10436635D01*
X9036521D01*
X9011129Y10411243D01*
Y10335067D01*
X9036521Y10487418D02*
X9011129Y10512810D01*
Y10563594D01*
X9036521Y10588985D01*
X9061913D01*
X9087304Y10563594D01*
Y10538202D01*
Y10563594D01*
X9112696Y10588985D01*
X9138088D01*
X9163480Y10563594D01*
Y10512810D01*
X9138088Y10487418D01*
X7163479Y9894515D02*
X7011128D01*
Y9970690D01*
X7036520Y9996082D01*
X7087304D01*
X7112696Y9970690D01*
Y9894515D01*
Y9945298D02*
X7163479Y9996082D01*
X7011128Y10148433D02*
X7036520Y10097649D01*
X7087304Y10046866D01*
X7138087D01*
X7163479Y10072257D01*
Y10123041D01*
X7138087Y10148433D01*
X7112696D01*
X7087304Y10123041D01*
Y10046866D01*
X7188871Y10199216D02*
Y10300784D01*
X7011128Y10351567D02*
X7163479D01*
Y10427742D01*
X7138087Y10453134D01*
X7112696D01*
X7087304Y10427742D01*
Y10351567D01*
Y10427742D01*
X7061912Y10453134D01*
X7036520D01*
X7011128Y10427742D01*
Y10351567D01*
X7163479Y10605485D02*
Y10503918D01*
X7061912Y10605485D01*
X7036520D01*
X7011128Y10580093D01*
Y10529310D01*
X7036520Y10503918D01*
X5363479Y9919907D02*
X5211129D01*
Y9996082D01*
X5236521Y10021474D01*
X5287304D01*
X5312696Y9996082D01*
Y9919907D01*
Y9970690D02*
X5363479Y10021474D01*
X5211129Y10173825D02*
X5236521Y10123041D01*
X5287304Y10072258D01*
X5338088D01*
X5363479Y10097650D01*
Y10148433D01*
X5338088Y10173825D01*
X5312696D01*
X5287304Y10148433D01*
Y10072258D01*
X5388871Y10224608D02*
Y10326176D01*
X5211129Y10376959D02*
X5363479D01*
Y10453135D01*
X5338088Y10478526D01*
X5312696D01*
X5287304Y10453135D01*
Y10376959D01*
Y10453135D01*
X5261912Y10478526D01*
X5236521D01*
X5211129Y10453135D01*
Y10376959D01*
X5363479Y10529310D02*
Y10580093D01*
Y10554702D01*
X5211129D01*
X5236521Y10529310D01*
X13494514Y6986520D02*
Y7138871D01*
X13570689D01*
X13596082Y7113479D01*
Y7062696D01*
X13570689Y7037304D01*
X13494514D01*
X13545299D02*
X13596082Y6986520D01*
X13748433Y7138871D02*
X13646866D01*
Y7062696D01*
X13697649Y7088088D01*
X13723041D01*
X13748433Y7062696D01*
Y7011912D01*
X13723041Y6986520D01*
X13672258D01*
X13646866Y7011912D01*
X13799216Y6961129D02*
X13900784D01*
X13951567Y7138871D02*
Y6986520D01*
X14027744D01*
X14053134Y7011912D01*
Y7037304D01*
X14027744Y7062696D01*
X13951567D01*
X14027744D01*
X14053134Y7088088D01*
Y7113479D01*
X14027744Y7138871D01*
X13951567D01*
X14205486D02*
X14103918D01*
Y7062696D01*
X14154701Y7088088D01*
X14180093D01*
X14205486Y7062696D01*
Y7011912D01*
X14180093Y6986520D01*
X14129311D01*
X14103918Y7011912D01*
X11461015Y6986520D02*
Y7138871D01*
X11537191D01*
X11562582Y7113479D01*
Y7062696D01*
X11537191Y7037304D01*
X11461015D01*
X11511799D02*
X11562582Y6986520D01*
X11714933Y7138871D02*
X11613366D01*
Y7062696D01*
X11664149Y7088088D01*
X11689541D01*
X11714933Y7062696D01*
Y7011912D01*
X11689541Y6986520D01*
X11638758D01*
X11613366Y7011912D01*
X11765717Y6961129D02*
X11867284D01*
X11918067Y7138871D02*
Y6986520D01*
X11994243D01*
X12019635Y7011912D01*
Y7037304D01*
X11994243Y7062696D01*
X11918067D01*
X11994243D01*
X12019635Y7088088D01*
Y7113479D01*
X11994243Y7138871D01*
X11918067D01*
X12146593Y6986520D02*
Y7138871D01*
X12070418Y7062696D01*
X12171985D01*
X9478015Y7036521D02*
Y7188871D01*
X9554191D01*
X9579583Y7163479D01*
Y7112696D01*
X9554191Y7087304D01*
X9478015D01*
X9528799D02*
X9579583Y7036521D01*
X9731933Y7188871D02*
X9630366D01*
Y7112696D01*
X9681150Y7138088D01*
X9706541D01*
X9731933Y7112696D01*
Y7061912D01*
X9706541Y7036521D01*
X9655758D01*
X9630366Y7061912D01*
X9782717Y7011129D02*
X9884284D01*
X9935068Y7188871D02*
Y7036521D01*
X10011243D01*
X10036635Y7061912D01*
Y7087304D01*
X10011243Y7112696D01*
X9935068D01*
X10011243D01*
X10036635Y7138088D01*
Y7163479D01*
X10011243Y7188871D01*
X9935068D01*
X10087418Y7163479D02*
X10112810Y7188871D01*
X10163594D01*
X10188985Y7163479D01*
Y7138088D01*
X10163594Y7112696D01*
X10138202D01*
X10163594D01*
X10188985Y7087304D01*
Y7061912D01*
X10163594Y7036521D01*
X10112810D01*
X10087418Y7061912D01*
X7544515Y7036521D02*
Y7188871D01*
X7620690D01*
X7646082Y7163479D01*
Y7112696D01*
X7620690Y7087304D01*
X7544515D01*
X7595298D02*
X7646082Y7036521D01*
X7798432Y7188871D02*
X7696865D01*
Y7112696D01*
X7747649Y7138088D01*
X7773041D01*
X7798432Y7112696D01*
Y7061912D01*
X7773041Y7036521D01*
X7722257D01*
X7696865Y7061912D01*
X7849216Y7011129D02*
X7950783D01*
X8001567Y7188871D02*
Y7036521D01*
X8077742D01*
X8103134Y7061912D01*
Y7087304D01*
X8077742Y7112696D01*
X8001567D01*
X8077742D01*
X8103134Y7138088D01*
Y7163479D01*
X8077742Y7188871D01*
X8001567D01*
X8255485Y7036521D02*
X8153917D01*
X8255485Y7138088D01*
Y7163479D01*
X8230093Y7188871D01*
X8179309D01*
X8153917Y7163479D01*
X5686407Y6986520D02*
Y7138871D01*
X5762582D01*
X5787974Y7113479D01*
Y7062696D01*
X5762582Y7037304D01*
X5686407D01*
X5737190D02*
X5787974Y6986520D01*
X5940325Y7138871D02*
X5838757D01*
Y7062696D01*
X5889541Y7088088D01*
X5914933D01*
X5940325Y7062696D01*
Y7011912D01*
X5914933Y6986520D01*
X5864149D01*
X5838757Y7011912D01*
X5991108Y6961129D02*
X6092675D01*
X6143459Y7138871D02*
Y6986520D01*
X6219634D01*
X6245026Y7011912D01*
Y7037304D01*
X6219634Y7062696D01*
X6143459D01*
X6219634D01*
X6245026Y7088088D01*
Y7113479D01*
X6219634Y7138871D01*
X6143459D01*
X6295810Y6986520D02*
X6346593D01*
X6321201D01*
Y7138871D01*
X6295810Y7113479D01*
X14386520Y9555485D02*
X14538872D01*
Y9479309D01*
X14513480Y9453917D01*
X14462695D01*
X14437305Y9479309D01*
Y9555485D01*
Y9504701D02*
X14386520Y9453917D01*
Y9326958D02*
X14538872D01*
X14462695Y9403134D01*
Y9301567D01*
X14361130Y9250783D02*
Y9149216D01*
X14538872Y9098432D02*
X14386520D01*
Y9022257D01*
X14411913Y8996865D01*
X14437305D01*
X14462695Y9022257D01*
Y9098432D01*
Y9022257D01*
X14488087Y8996865D01*
X14513480D01*
X14538872Y9022257D01*
Y9098432D01*
Y8844514D02*
Y8946082D01*
X14462695D01*
X14488087Y8895298D01*
Y8869906D01*
X14462695Y8844514D01*
X14411913D01*
X14386520Y8869906D01*
Y8920690D01*
X14411913Y8946082D01*
X12386521Y9555485D02*
X12538871D01*
Y9479310D01*
X12513479Y9453918D01*
X12462696D01*
X12437304Y9479310D01*
Y9555485D01*
Y9504702D02*
X12386521Y9453918D01*
Y9326959D02*
X12538871D01*
X12462696Y9403134D01*
Y9301567D01*
X12361129Y9250784D02*
Y9149216D01*
X12538871Y9098433D02*
X12386521D01*
Y9022258D01*
X12411912Y8996866D01*
X12437304D01*
X12462696Y9022258D01*
Y9098433D01*
Y9022258D01*
X12488088Y8996866D01*
X12513479D01*
X12538871Y9022258D01*
Y9098433D01*
X12386521Y8869907D02*
X12538871D01*
X12462696Y8946082D01*
Y8844515D01*
X10436521Y9605485D02*
X10588872D01*
Y9529309D01*
X10563480Y9503917D01*
X10512696D01*
X10487304Y9529309D01*
Y9605485D01*
Y9554701D02*
X10436521Y9503917D01*
Y9376959D02*
X10588872D01*
X10512696Y9453134D01*
Y9351567D01*
X10411129Y9300783D02*
Y9199216D01*
X10588872Y9148433D02*
X10436521D01*
Y9072257D01*
X10461913Y9046865D01*
X10487304D01*
X10512696Y9072257D01*
Y9148433D01*
Y9072257D01*
X10538088Y9046865D01*
X10563480D01*
X10588872Y9072257D01*
Y9148433D01*
X10563480Y8996082D02*
X10588872Y8970690D01*
Y8919906D01*
X10563480Y8894515D01*
X10538088D01*
X10512696Y8919906D01*
Y8945298D01*
Y8919906D01*
X10487304Y8894515D01*
X10461913D01*
X10436521Y8919906D01*
Y8970690D01*
X10461913Y8996082D01*
X8436521Y9605485D02*
X8588872D01*
Y9529309D01*
X8563480Y9503917D01*
X8512696D01*
X8487304Y9529309D01*
Y9605485D01*
Y9554701D02*
X8436521Y9503917D01*
Y9376959D02*
X8588872D01*
X8512696Y9453134D01*
Y9351567D01*
X8411129Y9300783D02*
Y9199216D01*
X8588872Y9148433D02*
X8436521D01*
Y9072257D01*
X8461913Y9046865D01*
X8487304D01*
X8512696Y9072257D01*
Y9148433D01*
Y9072257D01*
X8538088Y9046865D01*
X8563480D01*
X8588872Y9072257D01*
Y9148433D01*
X8436521Y8894515D02*
Y8996082D01*
X8538088Y8894515D01*
X8563480D01*
X8588872Y8919906D01*
Y8970690D01*
X8563480Y8996082D01*
X6586521Y9580093D02*
X6738871D01*
Y9503917D01*
X6713480Y9478526D01*
X6662696D01*
X6637304Y9503917D01*
Y9580093D01*
Y9529309D02*
X6586521Y9478526D01*
Y9351567D02*
X6738871D01*
X6662696Y9427742D01*
Y9326175D01*
X6561129Y9275391D02*
Y9173824D01*
X6738871Y9123041D02*
X6586521D01*
Y9046865D01*
X6611913Y9021473D01*
X6637304D01*
X6662696Y9046865D01*
Y9123041D01*
Y9046865D01*
X6688088Y9021473D01*
X6713480D01*
X6738871Y9046865D01*
Y9123041D01*
X6586521Y8970690D02*
Y8919906D01*
Y8945298D01*
X6738871D01*
X6713480Y8970690D01*
X14386520Y8505485D02*
X14538870D01*
Y8429310D01*
X14513480Y8403918D01*
X14462695D01*
X14437305Y8429310D01*
Y8505485D01*
Y8454701D02*
X14386520Y8403918D01*
Y8251567D02*
Y8353134D01*
X14488087Y8251567D01*
X14513480D01*
X14538870Y8276959D01*
Y8327742D01*
X14513480Y8353134D01*
X14361130Y8200783D02*
Y8099216D01*
X14538870Y8048433D02*
X14386520D01*
Y7972257D01*
X14411913Y7946865D01*
X14437305D01*
X14462695Y7972257D01*
Y8048433D01*
Y7972257D01*
X14488087Y7946865D01*
X14513480D01*
X14538870Y7972257D01*
Y8048433D01*
Y7794515D02*
Y7896082D01*
X14462695D01*
X14488087Y7845299D01*
Y7819907D01*
X14462695Y7794515D01*
X14411913D01*
X14386520Y7819907D01*
Y7870690D01*
X14411913Y7896082D01*
X12386521Y8505485D02*
X12538871D01*
Y8429310D01*
X12513479Y8403918D01*
X12462696D01*
X12437304Y8429310D01*
Y8505485D01*
Y8454702D02*
X12386521Y8403918D01*
Y8251567D02*
Y8353134D01*
X12488088Y8251567D01*
X12513479D01*
X12538871Y8276959D01*
Y8327743D01*
X12513479Y8353134D01*
X12361129Y8200784D02*
Y8099216D01*
X12538871Y8048433D02*
X12386521D01*
Y7972258D01*
X12411912Y7946866D01*
X12437304D01*
X12462696Y7972258D01*
Y8048433D01*
Y7972258D01*
X12488088Y7946866D01*
X12513479D01*
X12538871Y7972258D01*
Y8048433D01*
X12386521Y7819907D02*
X12538871D01*
X12462696Y7896082D01*
Y7794515D01*
X10386521Y8505485D02*
X10538871D01*
Y8429310D01*
X10513479Y8403918D01*
X10462696D01*
X10437304Y8429310D01*
Y8505485D01*
Y8454702D02*
X10386521Y8403918D01*
Y8251567D02*
Y8353134D01*
X10488088Y8251567D01*
X10513479D01*
X10538871Y8276959D01*
Y8327743D01*
X10513479Y8353134D01*
X10361129Y8200784D02*
Y8099216D01*
X10538871Y8048433D02*
X10386521D01*
Y7972258D01*
X10411912Y7946866D01*
X10437304D01*
X10462696Y7972258D01*
Y8048433D01*
Y7972258D01*
X10488088Y7946866D01*
X10513479D01*
X10538871Y7972258D01*
Y8048433D01*
X10513479Y7896082D02*
X10538871Y7870690D01*
Y7819907D01*
X10513479Y7794515D01*
X10488088D01*
X10462696Y7819907D01*
Y7845299D01*
Y7819907D01*
X10437304Y7794515D01*
X10411912D01*
X10386521Y7819907D01*
Y7870690D01*
X10411912Y7896082D01*
X8436520Y8505485D02*
X8588871D01*
Y8429310D01*
X8563479Y8403918D01*
X8512696D01*
X8487304Y8429310D01*
Y8505485D01*
Y8454701D02*
X8436520Y8403918D01*
Y8251567D02*
Y8353134D01*
X8538088Y8251567D01*
X8563479D01*
X8588871Y8276959D01*
Y8327742D01*
X8563479Y8353134D01*
X8411128Y8200783D02*
Y8099216D01*
X8588871Y8048433D02*
X8436520D01*
Y7972257D01*
X8461912Y7946865D01*
X8487304D01*
X8512696Y7972257D01*
Y8048433D01*
Y7972257D01*
X8538088Y7946865D01*
X8563479D01*
X8588871Y7972257D01*
Y8048433D01*
X8436520Y7794515D02*
Y7896082D01*
X8538088Y7794515D01*
X8563479D01*
X8588871Y7819907D01*
Y7870690D01*
X8563479Y7896082D01*
X6586520Y8480093D02*
X6738871D01*
Y8403918D01*
X6713479Y8378526D01*
X6662696D01*
X6637304Y8403918D01*
Y8480093D01*
Y8429310D02*
X6586520Y8378526D01*
Y8226175D02*
Y8327742D01*
X6688088Y8226175D01*
X6713479D01*
X6738871Y8251567D01*
Y8302350D01*
X6713479Y8327742D01*
X6561129Y8175392D02*
Y8073824D01*
X6738871Y8023041D02*
X6586520D01*
Y7946865D01*
X6611912Y7921474D01*
X6637304D01*
X6662696Y7946865D01*
Y8023041D01*
Y7946865D01*
X6688088Y7921474D01*
X6713479D01*
X6738871Y7946865D01*
Y8023041D01*
X6586520Y7870690D02*
Y7819907D01*
Y7845298D01*
X6738871D01*
X6713479Y7870690D01*
X14386520Y10742789D02*
X14538872D01*
Y10666613D01*
X14513480Y10641222D01*
X14462695D01*
X14437305Y10666613D01*
Y10742789D01*
Y10692005D02*
X14386520Y10641222D01*
Y10590438D02*
Y10539655D01*
Y10565046D01*
X14538872D01*
X14513480Y10590438D01*
X14361130Y10463479D02*
Y10361912D01*
X14538872Y10311128D02*
X14386520D01*
Y10234953D01*
X14411913Y10209561D01*
X14437305D01*
X14462695Y10234953D01*
Y10311128D01*
Y10234953D01*
X14488087Y10209561D01*
X14513480D01*
X14538872Y10234953D01*
Y10311128D01*
Y10057211D02*
Y10158778D01*
X14462695D01*
X14488087Y10107994D01*
Y10082602D01*
X14462695Y10057211D01*
X14411913D01*
X14386520Y10082602D01*
Y10133386D01*
X14411913Y10158778D01*
X12386521Y10742789D02*
X12538872D01*
Y10666614D01*
X12513480Y10641222D01*
X12462696D01*
X12437304Y10666614D01*
Y10742789D01*
Y10692006D02*
X12386521Y10641222D01*
Y10590438D02*
Y10539655D01*
Y10565046D01*
X12538872D01*
X12513480Y10590438D01*
X12361129Y10463479D02*
Y10361912D01*
X12538872Y10311129D02*
X12386521D01*
Y10234953D01*
X12411913Y10209561D01*
X12437304D01*
X12462696Y10234953D01*
Y10311129D01*
Y10234953D01*
X12488088Y10209561D01*
X12513480D01*
X12538872Y10234953D01*
Y10311129D01*
X12386521Y10082603D02*
X12538872D01*
X12462696Y10158778D01*
Y10057211D01*
X10436521Y10692789D02*
X10588871D01*
Y10616614D01*
X10563480Y10591222D01*
X10512696D01*
X10487304Y10616614D01*
Y10692789D01*
Y10642006D02*
X10436521Y10591222D01*
Y10540438D02*
Y10489655D01*
Y10515047D01*
X10588871D01*
X10563480Y10540438D01*
X10411129Y10413480D02*
Y10311912D01*
X10588871Y10261129D02*
X10436521D01*
Y10184953D01*
X10461913Y10159562D01*
X10487304D01*
X10512696Y10184953D01*
Y10261129D01*
Y10184953D01*
X10538088Y10159562D01*
X10563480D01*
X10588871Y10184953D01*
Y10261129D01*
X10563480Y10108778D02*
X10588871Y10083386D01*
Y10032603D01*
X10563480Y10007211D01*
X10538088D01*
X10512696Y10032603D01*
Y10057995D01*
Y10032603D01*
X10487304Y10007211D01*
X10461913D01*
X10436521Y10032603D01*
Y10083386D01*
X10461913Y10108778D01*
X8486521Y10692789D02*
X8638871D01*
Y10616614D01*
X8613480Y10591222D01*
X8562696D01*
X8537304Y10616614D01*
Y10692789D01*
Y10642005D02*
X8486521Y10591222D01*
Y10540438D02*
Y10489655D01*
Y10515046D01*
X8638871D01*
X8613480Y10540438D01*
X8461129Y10413479D02*
Y10311912D01*
X8638871Y10261129D02*
X8486521D01*
Y10184953D01*
X8511913Y10159561D01*
X8537304D01*
X8562696Y10184953D01*
Y10261129D01*
Y10184953D01*
X8588088Y10159561D01*
X8613480D01*
X8638871Y10184953D01*
Y10261129D01*
X8486521Y10007211D02*
Y10108778D01*
X8588088Y10007211D01*
X8613480D01*
X8638871Y10032602D01*
Y10083386D01*
X8613480Y10108778D01*
X6636521Y10667397D02*
X6788872D01*
Y10591222D01*
X6763480Y10565830D01*
X6712696D01*
X6687304Y10591222D01*
Y10667397D01*
Y10616614D02*
X6636521Y10565830D01*
Y10515046D02*
Y10464263D01*
Y10489654D01*
X6788872D01*
X6763480Y10515046D01*
X6611129Y10388087D02*
Y10286520D01*
X6788872Y10235737D02*
X6636521D01*
Y10159561D01*
X6661913Y10134169D01*
X6687304D01*
X6712696Y10159561D01*
Y10235737D01*
Y10159561D01*
X6738088Y10134169D01*
X6763480D01*
X6788872Y10159561D01*
Y10235737D01*
X6636521Y10083386D02*
Y10032602D01*
Y10057994D01*
X6788872D01*
X6763480Y10083386D01*
X14074608Y3476175D02*
X14023825D01*
X14049217D01*
Y3349217D01*
X14023825Y3323825D01*
X13998433D01*
X13973041Y3349217D01*
X14201567Y3323825D02*
Y3476175D01*
X14125392Y3400000D01*
X14226959D01*
X13990286Y6085791D02*
X13939503D01*
X13964896D01*
Y5958832D01*
X13939503Y5933440D01*
X13914111D01*
X13888721Y5958832D01*
X14041071Y6060399D02*
X14066463Y6085791D01*
X14117245D01*
X14142638Y6060399D01*
Y6035007D01*
X14117245Y6009615D01*
X14091853D01*
X14117245D01*
X14142638Y5984223D01*
Y5958832D01*
X14117245Y5933440D01*
X14066463D01*
X14041071Y5958832D01*
X13990286Y5135831D02*
X13939503D01*
X13964896D01*
Y5008872D01*
X13939503Y4983480D01*
X13914111D01*
X13888721Y5008872D01*
X14041071Y4983480D02*
X14091853D01*
X14066463D01*
Y5135831D01*
X14041071Y5110439D01*
X12156407Y5897839D02*
X12131015Y5923231D01*
X12080232D01*
X12054840Y5897839D01*
Y5796272D01*
X12080232Y5770880D01*
X12131015D01*
X12156407Y5796272D01*
X12207191Y5770880D02*
X12257974D01*
X12232583D01*
Y5923231D01*
X12207191Y5897839D01*
X12334150Y5770880D02*
X12384933D01*
X12359541D01*
Y5923231D01*
X12334150Y5897839D01*
X12280867Y4848819D02*
X12255475Y4874211D01*
X12204692D01*
X12179300Y4848819D01*
Y4747252D01*
X12204692Y4721860D01*
X12255475D01*
X12280867Y4747252D01*
X12331651Y4721860D02*
X12382434D01*
X12357043D01*
Y4874211D01*
X12331651Y4848819D01*
X12458610D02*
X12484001Y4874211D01*
X12534785D01*
X12560177Y4848819D01*
Y4747252D01*
X12534785Y4721860D01*
X12484001D01*
X12458610Y4747252D01*
Y4848819D01*
X6124608Y6750784D02*
X6099216Y6776175D01*
X6048433D01*
X6023041Y6750784D01*
Y6649217D01*
X6048433Y6623825D01*
X6099216D01*
X6124608Y6649217D01*
X6175392D02*
X6200784Y6623825D01*
X6251567D01*
X6276959Y6649217D01*
Y6750784D01*
X6251567Y6776175D01*
X6200784D01*
X6175392Y6750784D01*
Y6725392D01*
X6200784Y6700000D01*
X6276959D01*
X8007608Y6750784D02*
X7982216Y6776175D01*
X7931433D01*
X7906041Y6750784D01*
Y6649217D01*
X7931433Y6623825D01*
X7982216D01*
X8007608Y6649217D01*
X8058392Y6750784D02*
X8083784Y6776175D01*
X8134567D01*
X8159959Y6750784D01*
Y6725392D01*
X8134567Y6700000D01*
X8159959Y6674608D01*
Y6649217D01*
X8134567Y6623825D01*
X8083784D01*
X8058392Y6649217D01*
Y6674608D01*
X8083784Y6700000D01*
X8058392Y6725392D01*
Y6750784D01*
X8083784Y6700000D02*
X8134567D01*
X9891107Y6700784D02*
X9865716Y6726176D01*
X9814932D01*
X9789540Y6700784D01*
Y6599217D01*
X9814932Y6573825D01*
X9865716D01*
X9891107Y6599217D01*
X9941891Y6726176D02*
X10043458D01*
Y6700784D01*
X9941891Y6599217D01*
Y6573825D01*
X11874608Y6700783D02*
X11849217Y6726175D01*
X11798433D01*
X11773041Y6700783D01*
Y6599216D01*
X11798433Y6573825D01*
X11849217D01*
X11874608Y6599216D01*
X12026959Y6726175D02*
X11976175Y6700783D01*
X11925392Y6650000D01*
Y6599216D01*
X11950784Y6573825D01*
X12001567D01*
X12026959Y6599216D01*
Y6624608D01*
X12001567Y6650000D01*
X11925392D01*
X13924608Y6750784D02*
X13899216Y6776175D01*
X13848433D01*
X13823041Y6750784D01*
Y6649217D01*
X13848433Y6623825D01*
X13899216D01*
X13924608Y6649217D01*
X14076959Y6776175D02*
X13975391D01*
Y6700000D01*
X14026175Y6725392D01*
X14051567D01*
X14076959Y6700000D01*
Y6649217D01*
X14051567Y6623825D01*
X14000783D01*
X13975391Y6649217D01*
X13397247Y8073819D02*
X13371855Y8099211D01*
X13321072D01*
X13295680Y8073819D01*
Y7972252D01*
X13321072Y7946860D01*
X13371855D01*
X13397247Y7972252D01*
X13524207Y7946860D02*
Y8099211D01*
X13448032Y8023036D01*
X13549599D01*
X13600381Y7921468D02*
X13701949D01*
X13752731Y8099211D02*
Y7946860D01*
X13828908D01*
X13854298Y7972252D01*
Y7997644D01*
X13828908Y8023036D01*
X13752731D01*
X13828908D01*
X13854298Y8048427D01*
Y8073819D01*
X13828908Y8099211D01*
X13752731D01*
X14006650D02*
X13905083D01*
Y8023036D01*
X13955865Y8048427D01*
X13981258D01*
X14006650Y8023036D01*
Y7972252D01*
X13981258Y7946860D01*
X13930475D01*
X13905083Y7972252D01*
X11396082Y8063479D02*
X11370690Y8088871D01*
X11319907D01*
X11294515Y8063479D01*
Y7961912D01*
X11319907Y7936521D01*
X11370690D01*
X11396082Y7961912D01*
X11523041Y7936521D02*
Y8088871D01*
X11446866Y8012696D01*
X11548433D01*
X11599217Y7911129D02*
X11700784D01*
X11751567Y8088871D02*
Y7936521D01*
X11827743D01*
X11853135Y7961912D01*
Y7987304D01*
X11827743Y8012696D01*
X11751567D01*
X11827743D01*
X11853135Y8038088D01*
Y8063479D01*
X11827743Y8088871D01*
X11751567D01*
X11980093Y7936521D02*
Y8088871D01*
X11903918Y8012696D01*
X12005485D01*
X9396082Y8063479D02*
X9370690Y8088871D01*
X9319907D01*
X9294515Y8063479D01*
Y7961912D01*
X9319907Y7936521D01*
X9370690D01*
X9396082Y7961912D01*
X9523041Y7936521D02*
Y8088871D01*
X9446866Y8012696D01*
X9548433D01*
X9599217Y7911129D02*
X9700784D01*
X9751567Y8088871D02*
Y7936521D01*
X9827743D01*
X9853134Y7961912D01*
Y7987304D01*
X9827743Y8012696D01*
X9751567D01*
X9827743D01*
X9853134Y8038088D01*
Y8063479D01*
X9827743Y8088871D01*
X9751567D01*
X9903918Y8063479D02*
X9929310Y8088871D01*
X9980093D01*
X10005485Y8063479D01*
Y8038088D01*
X9980093Y8012696D01*
X9954701D01*
X9980093D01*
X10005485Y7987304D01*
Y7961912D01*
X9980093Y7936521D01*
X9929310D01*
X9903918Y7961912D01*
X7446082Y8113479D02*
X7420691Y8138871D01*
X7369907D01*
X7344515Y8113479D01*
Y8011912D01*
X7369907Y7986520D01*
X7420691D01*
X7446082Y8011912D01*
X7573041Y7986520D02*
Y8138871D01*
X7496866Y8062696D01*
X7598433D01*
X7649217Y7961129D02*
X7750784D01*
X7801567Y8138871D02*
Y7986520D01*
X7877743D01*
X7903135Y8011912D01*
Y8037304D01*
X7877743Y8062696D01*
X7801567D01*
X7877743D01*
X7903135Y8088088D01*
Y8113479D01*
X7877743Y8138871D01*
X7801567D01*
X8055485Y7986520D02*
X7953918D01*
X8055485Y8088088D01*
Y8113479D01*
X8030093Y8138871D01*
X7979310D01*
X7953918Y8113479D01*
X5646387Y8074619D02*
X5620995Y8100011D01*
X5570212D01*
X5544820Y8074619D01*
Y7973052D01*
X5570212Y7947660D01*
X5620995D01*
X5646387Y7973052D01*
X5773346Y7947660D02*
Y8100011D01*
X5697171Y8023835D01*
X5798738D01*
X5849521Y7922268D02*
X5951089D01*
X6001872Y8100011D02*
Y7947660D01*
X6078048D01*
X6103439Y7973052D01*
Y7998443D01*
X6078048Y8023835D01*
X6001872D01*
X6078048D01*
X6103439Y8049227D01*
Y8074619D01*
X6078048Y8100011D01*
X6001872D01*
X6154223Y7947660D02*
X6205006D01*
X6179615D01*
Y8100011D01*
X6154223Y8074619D01*
X13397247Y10872899D02*
X13371855Y10898291D01*
X13321072D01*
X13295680Y10872899D01*
Y10771332D01*
X13321072Y10745940D01*
X13371855D01*
X13397247Y10771332D01*
X13448032Y10872899D02*
X13473422Y10898291D01*
X13524207D01*
X13549599Y10872899D01*
Y10847507D01*
X13524207Y10822116D01*
X13498814D01*
X13524207D01*
X13549599Y10796724D01*
Y10771332D01*
X13524207Y10745940D01*
X13473422D01*
X13448032Y10771332D01*
X13600381Y10720548D02*
X13701949D01*
X13752731Y10898291D02*
Y10745940D01*
X13828908D01*
X13854298Y10771332D01*
Y10796724D01*
X13828908Y10822116D01*
X13752731D01*
X13828908D01*
X13854298Y10847507D01*
Y10872899D01*
X13828908Y10898291D01*
X13752731D01*
X14006650D02*
X13905083D01*
Y10822116D01*
X13955865Y10847507D01*
X13981258D01*
X14006650Y10822116D01*
Y10771332D01*
X13981258Y10745940D01*
X13930475D01*
X13905083Y10771332D01*
X11446527Y10872899D02*
X11421135Y10898291D01*
X11370352D01*
X11344960Y10872899D01*
Y10771332D01*
X11370352Y10745940D01*
X11421135D01*
X11446527Y10771332D01*
X11497311Y10872899D02*
X11522703Y10898291D01*
X11573486D01*
X11598878Y10872899D01*
Y10847507D01*
X11573486Y10822116D01*
X11548094D01*
X11573486D01*
X11598878Y10796724D01*
Y10771332D01*
X11573486Y10745940D01*
X11522703D01*
X11497311Y10771332D01*
X11649661Y10720548D02*
X11751229D01*
X11802012Y10898291D02*
Y10745940D01*
X11878188D01*
X11903579Y10771332D01*
Y10796724D01*
X11878188Y10822116D01*
X11802012D01*
X11878188D01*
X11903579Y10847507D01*
Y10872899D01*
X11878188Y10898291D01*
X11802012D01*
X12030538Y10745940D02*
Y10898291D01*
X11954363Y10822116D01*
X12055930D01*
X9447547Y10857659D02*
X9422155Y10883051D01*
X9371372D01*
X9345980Y10857659D01*
Y10756092D01*
X9371372Y10730700D01*
X9422155D01*
X9447547Y10756092D01*
X9498331Y10857659D02*
X9523723Y10883051D01*
X9574506D01*
X9599898Y10857659D01*
Y10832267D01*
X9574506Y10806876D01*
X9549114D01*
X9574506D01*
X9599898Y10781484D01*
Y10756092D01*
X9574506Y10730700D01*
X9523723D01*
X9498331Y10756092D01*
X9650681Y10705308D02*
X9752249D01*
X9803032Y10883051D02*
Y10730700D01*
X9879208D01*
X9904599Y10756092D01*
Y10781484D01*
X9879208Y10806876D01*
X9803032D01*
X9879208D01*
X9904599Y10832267D01*
Y10857659D01*
X9879208Y10883051D01*
X9803032D01*
X9955383Y10857659D02*
X9980775Y10883051D01*
X10031558D01*
X10056950Y10857659D01*
Y10832267D01*
X10031558Y10806876D01*
X10006166D01*
X10031558D01*
X10056950Y10781484D01*
Y10756092D01*
X10031558Y10730700D01*
X9980775D01*
X9955383Y10756092D01*
X7496827Y10872899D02*
X7471435Y10898291D01*
X7420652D01*
X7395260Y10872899D01*
Y10771332D01*
X7420652Y10745940D01*
X7471435D01*
X7496827Y10771332D01*
X7547611Y10872899D02*
X7573003Y10898291D01*
X7623786D01*
X7649178Y10872899D01*
Y10847507D01*
X7623786Y10822116D01*
X7598394D01*
X7623786D01*
X7649178Y10796724D01*
Y10771332D01*
X7623786Y10745940D01*
X7573003D01*
X7547611Y10771332D01*
X7699961Y10720548D02*
X7801529D01*
X7852312Y10898291D02*
Y10745940D01*
X7928488D01*
X7953879Y10771332D01*
Y10796724D01*
X7928488Y10822116D01*
X7852312D01*
X7928488D01*
X7953879Y10847507D01*
Y10872899D01*
X7928488Y10898291D01*
X7852312D01*
X8106230Y10745940D02*
X8004663D01*
X8106230Y10847507D01*
Y10872899D01*
X8080838Y10898291D01*
X8030055D01*
X8004663Y10872899D01*
X5646387Y10873699D02*
X5620995Y10899091D01*
X5570212D01*
X5544820Y10873699D01*
Y10772132D01*
X5570212Y10746740D01*
X5620995D01*
X5646387Y10772132D01*
X5697171Y10873699D02*
X5722563Y10899091D01*
X5773346D01*
X5798738Y10873699D01*
Y10848307D01*
X5773346Y10822915D01*
X5747954D01*
X5773346D01*
X5798738Y10797523D01*
Y10772132D01*
X5773346Y10746740D01*
X5722563D01*
X5697171Y10772132D01*
X5849521Y10721348D02*
X5951089D01*
X6001872Y10899091D02*
Y10746740D01*
X6078048D01*
X6103439Y10772132D01*
Y10797523D01*
X6078048Y10822915D01*
X6001872D01*
X6078048D01*
X6103439Y10848307D01*
Y10873699D01*
X6078048Y10899091D01*
X6001872D01*
X6154223Y10746740D02*
X6205006D01*
X6179615D01*
Y10899091D01*
X6154223Y10873699D01*
X13397247Y8772319D02*
X13371855Y8797711D01*
X13321072D01*
X13295680Y8772319D01*
Y8670752D01*
X13321072Y8645360D01*
X13371855D01*
X13397247Y8670752D01*
X13549599Y8645360D02*
X13448032D01*
X13549599Y8746927D01*
Y8772319D01*
X13524207Y8797711D01*
X13473422D01*
X13448032Y8772319D01*
X13600381Y8619968D02*
X13701949D01*
X13752731Y8797711D02*
Y8645360D01*
X13828908D01*
X13854298Y8670752D01*
Y8696144D01*
X13828908Y8721536D01*
X13752731D01*
X13828908D01*
X13854298Y8746927D01*
Y8772319D01*
X13828908Y8797711D01*
X13752731D01*
X14006650D02*
X13905083D01*
Y8721536D01*
X13955865Y8746927D01*
X13981258D01*
X14006650Y8721536D01*
Y8670752D01*
X13981258Y8645360D01*
X13930475D01*
X13905083Y8670752D01*
X11446527Y8772319D02*
X11421135Y8797711D01*
X11370352D01*
X11344960Y8772319D01*
Y8670752D01*
X11370352Y8645360D01*
X11421135D01*
X11446527Y8670752D01*
X11598878Y8645360D02*
X11497311D01*
X11598878Y8746927D01*
Y8772319D01*
X11573486Y8797711D01*
X11522703D01*
X11497311Y8772319D01*
X11649661Y8619968D02*
X11751229D01*
X11802012Y8797711D02*
Y8645360D01*
X11878188D01*
X11903579Y8670752D01*
Y8696144D01*
X11878188Y8721536D01*
X11802012D01*
X11878188D01*
X11903579Y8746927D01*
Y8772319D01*
X11878188Y8797711D01*
X11802012D01*
X12030538Y8645360D02*
Y8797711D01*
X11954363Y8721536D01*
X12055930D01*
X9447547Y8772319D02*
X9422155Y8797711D01*
X9371372D01*
X9345980Y8772319D01*
Y8670752D01*
X9371372Y8645360D01*
X9422155D01*
X9447547Y8670752D01*
X9599898Y8645360D02*
X9498331D01*
X9599898Y8746927D01*
Y8772319D01*
X9574506Y8797711D01*
X9523723D01*
X9498331Y8772319D01*
X9650681Y8619968D02*
X9752249D01*
X9803032Y8797711D02*
Y8645360D01*
X9879208D01*
X9904599Y8670752D01*
Y8696144D01*
X9879208Y8721536D01*
X9803032D01*
X9879208D01*
X9904599Y8746927D01*
Y8772319D01*
X9879208Y8797711D01*
X9803032D01*
X9955383Y8772319D02*
X9980775Y8797711D01*
X10031558D01*
X10056950Y8772319D01*
Y8746927D01*
X10031558Y8721536D01*
X10006166D01*
X10031558D01*
X10056950Y8696144D01*
Y8670752D01*
X10031558Y8645360D01*
X9980775D01*
X9955383Y8670752D01*
X7496827Y8772319D02*
X7471435Y8797711D01*
X7420652D01*
X7395260Y8772319D01*
Y8670752D01*
X7420652Y8645360D01*
X7471435D01*
X7496827Y8670752D01*
X7649178Y8645360D02*
X7547611D01*
X7649178Y8746927D01*
Y8772319D01*
X7623786Y8797711D01*
X7573003D01*
X7547611Y8772319D01*
X7699961Y8619968D02*
X7801529D01*
X7852312Y8797711D02*
Y8645360D01*
X7928488D01*
X7953879Y8670752D01*
Y8696144D01*
X7928488Y8721536D01*
X7852312D01*
X7928488D01*
X7953879Y8746927D01*
Y8772319D01*
X7928488Y8797711D01*
X7852312D01*
X8106230Y8645360D02*
X8004663D01*
X8106230Y8746927D01*
Y8772319D01*
X8080838Y8797711D01*
X8030055D01*
X8004663Y8772319D01*
X5646387Y8773119D02*
X5620995Y8798511D01*
X5570212D01*
X5544820Y8773119D01*
Y8671552D01*
X5570212Y8646160D01*
X5620995D01*
X5646387Y8671552D01*
X5798738Y8646160D02*
X5697171D01*
X5798738Y8747727D01*
Y8773119D01*
X5773346Y8798511D01*
X5722563D01*
X5697171Y8773119D01*
X5849521Y8620768D02*
X5951089D01*
X6001872Y8798511D02*
Y8646160D01*
X6078048D01*
X6103439Y8671552D01*
Y8696943D01*
X6078048Y8722335D01*
X6001872D01*
X6078048D01*
X6103439Y8747727D01*
Y8773119D01*
X6078048Y8798511D01*
X6001872D01*
X6154223Y8646160D02*
X6205006D01*
X6179615D01*
Y8798511D01*
X6154223Y8773119D01*
X13358778Y10263479D02*
X13333386Y10288871D01*
X13282603D01*
X13257211Y10263479D01*
Y10161912D01*
X13282603Y10136520D01*
X13333386D01*
X13358778Y10161912D01*
X13409563Y10136520D02*
X13460345D01*
X13434953D01*
Y10288871D01*
X13409563Y10263479D01*
X13536520Y10111129D02*
X13638087D01*
X13688870Y10288871D02*
Y10136520D01*
X13765047D01*
X13790439Y10161912D01*
Y10187304D01*
X13765047Y10212696D01*
X13688870D01*
X13765047D01*
X13790439Y10238088D01*
Y10263479D01*
X13765047Y10288871D01*
X13688870D01*
X13942789D02*
X13841222D01*
Y10212696D01*
X13892004Y10238088D01*
X13917397D01*
X13942789Y10212696D01*
Y10161912D01*
X13917397Y10136520D01*
X13866614D01*
X13841222Y10161912D01*
X11446527Y10273459D02*
X11421135Y10298851D01*
X11370352D01*
X11344960Y10273459D01*
Y10171892D01*
X11370352Y10146500D01*
X11421135D01*
X11446527Y10171892D01*
X11497311Y10146500D02*
X11548094D01*
X11522703D01*
Y10298851D01*
X11497311Y10273459D01*
X11624270Y10121108D02*
X11725837D01*
X11776620Y10298851D02*
Y10146500D01*
X11852796D01*
X11878188Y10171892D01*
Y10197284D01*
X11852796Y10222676D01*
X11776620D01*
X11852796D01*
X11878188Y10248067D01*
Y10273459D01*
X11852796Y10298851D01*
X11776620D01*
X12005146Y10146500D02*
Y10298851D01*
X11928971Y10222676D01*
X12030538D01*
X9447547Y10258219D02*
X9422155Y10283611D01*
X9371372D01*
X9345980Y10258219D01*
Y10156652D01*
X9371372Y10131260D01*
X9422155D01*
X9447547Y10156652D01*
X9498331Y10131260D02*
X9549114D01*
X9523723D01*
Y10283611D01*
X9498331Y10258219D01*
X9625290Y10105868D02*
X9726857D01*
X9777640Y10283611D02*
Y10131260D01*
X9853816D01*
X9879208Y10156652D01*
Y10182044D01*
X9853816Y10207436D01*
X9777640D01*
X9853816D01*
X9879208Y10232827D01*
Y10258219D01*
X9853816Y10283611D01*
X9777640D01*
X9929991Y10258219D02*
X9955383Y10283611D01*
X10006166D01*
X10031558Y10258219D01*
Y10232827D01*
X10006166Y10207436D01*
X9980775D01*
X10006166D01*
X10031558Y10182044D01*
Y10156652D01*
X10006166Y10131260D01*
X9955383D01*
X9929991Y10156652D01*
X7496827Y10273459D02*
X7471435Y10298851D01*
X7420652D01*
X7395260Y10273459D01*
Y10171892D01*
X7420652Y10146500D01*
X7471435D01*
X7496827Y10171892D01*
X7547611Y10146500D02*
X7598394D01*
X7573003D01*
Y10298851D01*
X7547611Y10273459D01*
X7674570Y10121108D02*
X7776137D01*
X7826920Y10298851D02*
Y10146500D01*
X7903096D01*
X7928488Y10171892D01*
Y10197284D01*
X7903096Y10222676D01*
X7826920D01*
X7903096D01*
X7928488Y10248067D01*
Y10273459D01*
X7903096Y10298851D01*
X7826920D01*
X8080838Y10146500D02*
X7979271D01*
X8080838Y10248067D01*
Y10273459D01*
X8055446Y10298851D01*
X8004663D01*
X7979271Y10273459D01*
X5646387Y10274259D02*
X5620995Y10299651D01*
X5570212D01*
X5544820Y10274259D01*
Y10172692D01*
X5570212Y10147300D01*
X5620995D01*
X5646387Y10172692D01*
X5697171Y10147300D02*
X5747954D01*
X5722563D01*
Y10299651D01*
X5697171Y10274259D01*
X5824130Y10121908D02*
X5925697D01*
X5976480Y10299651D02*
Y10147300D01*
X6052656D01*
X6078048Y10172692D01*
Y10198083D01*
X6052656Y10223475D01*
X5976480D01*
X6052656D01*
X6078048Y10248867D01*
Y10274259D01*
X6052656Y10299651D01*
X5976480D01*
X6128831Y10147300D02*
X6179615D01*
X6154223D01*
Y10299651D01*
X6128831Y10274259D01*
D29*
X5483290Y6066580D02*
X5350000D01*
Y5966613D01*
X5416645D01*
X5350000D01*
Y5866645D01*
X5549936D02*
X5616581D01*
X5583258D01*
Y5999935D01*
X5549936D01*
X5716548D02*
X5783193Y5866645D01*
X5849839Y5999935D01*
X6016452Y5866645D02*
X5949806D01*
X5916484Y5899967D01*
Y5966613D01*
X5949806Y5999935D01*
X6016452D01*
X6049774Y5966613D01*
Y5933290D01*
X5916484D01*
X6316355Y6066580D02*
Y5866645D01*
X6416323D01*
X6449645Y5899967D01*
Y5933290D01*
X6416323Y5966613D01*
X6316355D01*
X6416323D01*
X6449645Y5999935D01*
Y6033258D01*
X6416323Y6066580D01*
X6316355D01*
X6549613Y5999935D02*
X6616259D01*
X6649581Y5966613D01*
Y5866645D01*
X6549613D01*
X6516291Y5899967D01*
X6549613Y5933290D01*
X6649581D01*
X6716226Y5866645D02*
Y5999935D01*
X6816194D01*
X6849517Y5966613D01*
Y5866645D01*
X7049452Y6066580D02*
Y5866645D01*
X6949484D01*
X6916162Y5899967D01*
Y5966613D01*
X6949484Y5999935D01*
X7049452D01*
X7449323Y6066580D02*
X7316033D01*
Y5866645D01*
X7449323D01*
X7316033Y5966613D02*
X7382678D01*
X7649259Y5800000D02*
Y5999935D01*
X7549291D01*
X7515969Y5966613D01*
Y5899967D01*
X7549291Y5866645D01*
X7649259D01*
X7715904Y5999935D02*
Y5899967D01*
X7749227Y5866645D01*
X7849195D01*
Y5999935D01*
X7949162D02*
X8015808D01*
X8049130Y5966613D01*
Y5866645D01*
X7949162D01*
X7915840Y5899967D01*
X7949162Y5933290D01*
X8049130D01*
X8115775Y5866645D02*
X8182421D01*
X8149098D01*
Y6066580D01*
X8115775D01*
X8282388Y5866645D02*
X8349033D01*
X8315711D01*
Y5999935D01*
X8282388D01*
X8449001D02*
X8582291D01*
X8449001Y5866645D01*
X8582291D01*
X8748905D02*
X8682259D01*
X8648937Y5899967D01*
Y5966613D01*
X8682259Y5999935D01*
X8748905D01*
X8782227Y5966613D01*
Y5933290D01*
X8648937D01*
X8848872Y5999935D02*
Y5866645D01*
Y5933290D01*
X8882195Y5966613D01*
X8915517Y5999935D01*
X8948840D01*
X5350000Y5649936D02*
Y5450000D01*
Y5549968D01*
X5483290D01*
Y5649936D01*
Y5450000D01*
X5649903D02*
X5583258D01*
X5549936Y5483323D01*
Y5549968D01*
X5583258Y5583290D01*
X5649903D01*
X5683226Y5549968D01*
Y5516645D01*
X5549936D01*
X5749871Y5583290D02*
Y5450000D01*
Y5516645D01*
X5783194Y5549968D01*
X5816516Y5583290D01*
X5849839D01*
X5983129Y5616613D02*
Y5583290D01*
X5949807D01*
X6016452D01*
X5983129D01*
Y5483323D01*
X6016452Y5450000D01*
X6116420Y5583290D02*
X6249710D01*
X6116420Y5450000D01*
X6249710D01*
X6516291Y5649936D02*
Y5450000D01*
X6649581D01*
X6749549Y5583290D02*
X6816194D01*
X6849517Y5549968D01*
Y5450000D01*
X6749549D01*
X6716226Y5483323D01*
X6749549Y5516645D01*
X6849517D01*
X6916162Y5649936D02*
Y5450000D01*
X7016130D01*
X7049452Y5483323D01*
Y5516645D01*
Y5549968D01*
X7016130Y5583290D01*
X6916162D01*
X7116098Y5450000D02*
X7216065D01*
X7249388Y5483323D01*
X7216065Y5516645D01*
X7149420D01*
X7116098Y5549968D01*
X7149420Y5583290D01*
X7249388D01*
%TF.MD5,fe64939ec36946b2dd331cf0faa93f69*%
M02*
