%TF.GenerationSoftware,Altium Limited,Altium Designer,24.10.1 (45)*%
G04 Layer_Physical_Order=1*
G04 Layer_Color=255*
%FSLAX45Y45*%
%MOMM*%
%TF.SameCoordinates,D700451D-F6DB-41F8-9F1A-DBDDD93A0A9D*%
%TF.FilePolarity,Positive*%
%TF.FileFunction,Copper,L1,Top,Signal*%
%TF.Part,Single*%
G01*
G75*
%TA.AperFunction,SMDPad,CuDef*%
G04:AMPARAMS|DCode=10|XSize=0.55mm|YSize=1.25mm|CornerRadius=0.0495mm|HoleSize=0mm|Usage=FLASHONLY|Rotation=90.000|XOffset=0mm|YOffset=0mm|HoleType=Round|Shape=RoundedRectangle|*
%AMROUNDEDRECTD10*
21,1,0.55000,1.15100,0,0,90.0*
21,1,0.45100,1.25000,0,0,90.0*
1,1,0.09900,0.57550,0.22550*
1,1,0.09900,0.57550,-0.22550*
1,1,0.09900,-0.57550,-0.22550*
1,1,0.09900,-0.57550,0.22550*
%
%ADD10ROUNDEDRECTD10*%
G04:AMPARAMS|DCode=11|XSize=0.55mm|YSize=1.25mm|CornerRadius=0.0495mm|HoleSize=0mm|Usage=FLASHONLY|Rotation=180.000|XOffset=0mm|YOffset=0mm|HoleType=Round|Shape=RoundedRectangle|*
%AMROUNDEDRECTD11*
21,1,0.55000,1.15100,0,0,180.0*
21,1,0.45100,1.25000,0,0,180.0*
1,1,0.09900,-0.22550,0.57550*
1,1,0.09900,0.22550,0.57550*
1,1,0.09900,0.22550,-0.57550*
1,1,0.09900,-0.22550,-0.57550*
%
%ADD11ROUNDEDRECTD11*%
%TA.AperFunction,Conductor*%
%ADD12C,0.25400*%
%TA.AperFunction,ComponentPad*%
%ADD13R,1.15000X1.15000*%
%ADD14C,1.15000*%
%ADD15C,1.20000*%
%ADD16R,1.20000X1.20000*%
%ADD17C,1.40000*%
%ADD18R,1.40000X1.40000*%
%ADD19R,1.50000X1.50000*%
%ADD20C,1.50000*%
%ADD21R,1.15000X1.15000*%
%TA.AperFunction,ViaPad*%
%ADD22C,3.00000*%
%ADD23C,1.27000*%
G36*
X15000000Y2996494D02*
X5003506D01*
X4996818Y2999265D01*
Y11746818D01*
X5000000Y11750000D01*
X15000000D01*
Y2996494D01*
D02*
G37*
%LPC*%
G36*
X14767274Y11675400D02*
X14732726D01*
X14698837Y11668659D01*
X14666917Y11655437D01*
X14638190Y11636242D01*
X14613757Y11611811D01*
X14594563Y11583083D01*
X14581342Y11551162D01*
X14574600Y11517275D01*
Y11482725D01*
X14581342Y11448838D01*
X14594563Y11416917D01*
X14613757Y11388189D01*
X14638190Y11363758D01*
X14666917Y11344563D01*
X14698837Y11331341D01*
X14732726Y11324600D01*
X14767274D01*
X14801163Y11331341D01*
X14833083Y11344563D01*
X14861810Y11363758D01*
X14886243Y11388189D01*
X14905437Y11416917D01*
X14918658Y11448838D01*
X14925400Y11482725D01*
Y11517275D01*
X14918658Y11551162D01*
X14905437Y11583083D01*
X14886243Y11611811D01*
X14861810Y11636242D01*
X14833083Y11655437D01*
X14801163Y11668659D01*
X14767274Y11675400D01*
D02*
G37*
G36*
X5267275D02*
X5232725D01*
X5198838Y11668659D01*
X5166917Y11655437D01*
X5138189Y11636242D01*
X5113758Y11611811D01*
X5094563Y11583083D01*
X5081341Y11551162D01*
X5074600Y11517275D01*
Y11482725D01*
X5081341Y11448838D01*
X5094563Y11416917D01*
X5113758Y11388189D01*
X5138189Y11363758D01*
X5166917Y11344563D01*
X5198838Y11331341D01*
X5232725Y11324600D01*
X5267275D01*
X5301162Y11331341D01*
X5333083Y11344563D01*
X5361811Y11363758D01*
X5386242Y11388189D01*
X5405437Y11416917D01*
X5418659Y11448838D01*
X5425400Y11482725D01*
Y11517275D01*
X5418659Y11551162D01*
X5405437Y11583083D01*
X5386242Y11611811D01*
X5361811Y11636242D01*
X5333083Y11655437D01*
X5301162Y11668659D01*
X5267275Y11675400D01*
D02*
G37*
G36*
X13935121Y11538847D02*
X6550000D01*
X6535134Y11535890D01*
X6522532Y11527469D01*
X6256031Y11260969D01*
X6247611Y11248366D01*
X6244653Y11233500D01*
Y11182900D01*
X6200600D01*
Y11017100D01*
X6366400D01*
Y11182900D01*
X6322347D01*
Y11217409D01*
X6566091Y11461154D01*
X8011153D01*
Y11182900D01*
X8000600D01*
Y11017100D01*
X8166400D01*
Y11182900D01*
X8088846D01*
Y11461154D01*
X10011153D01*
Y11182900D01*
X9992453D01*
X9988700Y11183647D01*
X9984947Y11182900D01*
X9950600D01*
Y11148553D01*
X9949854Y11144800D01*
X9950600Y11141047D01*
Y11017100D01*
X10116400D01*
Y11182900D01*
X10088846D01*
Y11461154D01*
X11961153D01*
Y11182900D01*
X11900600D01*
Y11017100D01*
X12066400D01*
Y11061154D01*
X12324671D01*
X12339537Y11064111D01*
X12352140Y11072532D01*
X12354841Y11075233D01*
X12611154D01*
Y6816091D01*
X12279259Y6484196D01*
X12261704Y6488900D01*
X12238296D01*
X12215686Y6482841D01*
X12195414Y6471138D01*
X12178862Y6454586D01*
X12167158Y6434314D01*
X12161100Y6411704D01*
Y6388296D01*
X12167158Y6365686D01*
X12178862Y6345414D01*
X12195414Y6328862D01*
X12215686Y6317158D01*
X12238296Y6311100D01*
X12261704D01*
X12284314Y6317158D01*
X12304586Y6328862D01*
X12321138Y6345414D01*
X12332841Y6365686D01*
X12338900Y6388296D01*
Y6411704D01*
X12334196Y6429259D01*
X12677469Y6772532D01*
X12685890Y6785134D01*
X12688847Y6800000D01*
Y11099200D01*
X12685890Y11114066D01*
X12677469Y11126669D01*
X12662590Y11141548D01*
X12649987Y11149969D01*
X12635121Y11152926D01*
X12338750D01*
X12323884Y11149969D01*
X12311281Y11141548D01*
X12308580Y11138847D01*
X12066400D01*
Y11182900D01*
X12038846D01*
Y11461154D01*
X13911154D01*
Y11182900D01*
X13850600D01*
Y11017100D01*
X14016400D01*
Y11182900D01*
X13988847D01*
Y11485121D01*
X13985889Y11499987D01*
X13977469Y11512590D01*
X13962590Y11527469D01*
X13949986Y11535890D01*
X13935121Y11538847D01*
D02*
G37*
G36*
X14282899Y10766400D02*
X14117101D01*
Y10722347D01*
X14033501D01*
X14018634Y10719390D01*
X14006032Y10710969D01*
X13876401Y10581338D01*
X13861243Y10585400D01*
X13838757D01*
X13817036Y10579580D01*
X13797563Y10568337D01*
X13781664Y10552437D01*
X13770419Y10532963D01*
X13764600Y10511243D01*
Y10488757D01*
X13770419Y10467037D01*
X13781664Y10447563D01*
X13797563Y10431663D01*
X13811153Y10423817D01*
Y10199392D01*
X13209431Y9597670D01*
X13201010Y9585067D01*
X13198053Y9570201D01*
Y9279100D01*
X13201010Y9264234D01*
X13209431Y9251632D01*
X13249005Y9212058D01*
Y9190950D01*
X13251361Y9179108D01*
X13258069Y9169069D01*
X13268108Y9162361D01*
X13279950Y9160006D01*
X13395050D01*
X13406892Y9162361D01*
X13416931Y9169069D01*
X13423639Y9179108D01*
X13425993Y9190950D01*
Y9236050D01*
X13423639Y9247892D01*
X13416931Y9257931D01*
X13406892Y9264639D01*
X13395050Y9266995D01*
X13303981D01*
X13296611Y9275927D01*
X13301341Y9287006D01*
X13395050D01*
X13406892Y9289361D01*
X13416931Y9296069D01*
X13423639Y9306108D01*
X13425993Y9317950D01*
Y9339058D01*
X13531590Y9444654D01*
X14117101D01*
Y9400600D01*
X14253587D01*
X14260921Y9387900D01*
X14258725Y9384097D01*
X13942490D01*
X13941931Y9384931D01*
X13931892Y9391639D01*
X13920050Y9393995D01*
X13804950D01*
X13793108Y9391639D01*
X13783069Y9384931D01*
X13776361Y9374892D01*
X13774005Y9363050D01*
Y9317950D01*
X13776361Y9306108D01*
X13783069Y9296069D01*
X13793108Y9289361D01*
X13804950Y9287006D01*
X13920050D01*
X13931892Y9289361D01*
X13941931Y9296069D01*
X13948639Y9306108D01*
X13948698Y9306404D01*
X14272517D01*
X14278862Y9295414D01*
X14295415Y9278862D01*
X14315686Y9267159D01*
X14323567Y9265047D01*
X14321895Y9252347D01*
X13945662D01*
X13941931Y9257931D01*
X13931892Y9264639D01*
X13920050Y9266995D01*
X13804950D01*
X13793108Y9264639D01*
X13783069Y9257931D01*
X13776361Y9247892D01*
X13774005Y9236050D01*
Y9190950D01*
X13776361Y9179108D01*
X13783069Y9169069D01*
X13793108Y9162361D01*
X13804950Y9160006D01*
X13920050D01*
X13931892Y9162361D01*
X13941931Y9169069D01*
X13945662Y9174654D01*
X14320409D01*
X14411154Y9083909D01*
Y8616091D01*
X14279509Y8484447D01*
X14266292D01*
X14250902Y8499837D01*
X14231998Y8510751D01*
X14210915Y8516400D01*
X14189085D01*
X14168002Y8510751D01*
X14149098Y8499837D01*
X14133664Y8484402D01*
X14126704Y8472347D01*
X13935400D01*
Y8485400D01*
X13764600D01*
Y8314600D01*
X13935400D01*
Y8394654D01*
X14126704D01*
X14133664Y8382598D01*
X14149098Y8367164D01*
X14168002Y8356250D01*
X14189085Y8350600D01*
X14210915D01*
X14224361Y8354203D01*
X14256754Y8321810D01*
Y7749400D01*
X14117101D01*
Y7738847D01*
X13926183D01*
X13918336Y7752437D01*
X13902437Y7768337D01*
X13882964Y7779580D01*
X13861243Y7785400D01*
X13838757D01*
X13823599Y7781338D01*
X13785979Y7818959D01*
X13773376Y7827380D01*
X13758510Y7830337D01*
X13739481D01*
X13688846Y7880970D01*
Y8711154D01*
X13950000D01*
X13964867Y8714111D01*
X13977469Y8722531D01*
X14127469Y8872531D01*
X14135889Y8885134D01*
X14138846Y8900000D01*
Y9000000D01*
X14135889Y9014866D01*
X14127469Y9027469D01*
X14040968Y9113969D01*
X14028366Y9122390D01*
X14013499Y9125347D01*
X13945662D01*
X13941931Y9130931D01*
X13931892Y9137639D01*
X13920050Y9139995D01*
X13804950D01*
X13793108Y9137639D01*
X13783069Y9130931D01*
X13776361Y9120892D01*
X13774005Y9109050D01*
Y9063950D01*
X13776361Y9052108D01*
X13783069Y9042069D01*
X13793108Y9035361D01*
X13804950Y9033006D01*
X13920050D01*
X13931892Y9035361D01*
X13941931Y9042069D01*
X13945662Y9047654D01*
X13997409D01*
X14061153Y8983909D01*
Y8916091D01*
X13933910Y8788847D01*
X13664879D01*
X13650014Y8785889D01*
X13637410Y8777469D01*
X13622531Y8762590D01*
X13614110Y8749987D01*
X13611153Y8735121D01*
Y7864879D01*
X13614110Y7850013D01*
X13622531Y7837411D01*
X13695920Y7764022D01*
X13708524Y7755601D01*
X13723389Y7752644D01*
X13742419D01*
X13768661Y7726401D01*
X13764600Y7711243D01*
Y7688757D01*
X13770419Y7667037D01*
X13781664Y7647563D01*
X13797563Y7631663D01*
X13817036Y7620420D01*
X13838757Y7614600D01*
X13861243D01*
X13882964Y7620420D01*
X13902437Y7631663D01*
X13918336Y7647563D01*
X13926183Y7661154D01*
X14117101D01*
Y7583600D01*
X14214452D01*
X14219312Y7571867D01*
X14206032Y7558587D01*
X14197610Y7545984D01*
X14194653Y7531119D01*
Y7432900D01*
X14150600D01*
Y7267100D01*
X14316400D01*
Y7432900D01*
X14272346D01*
Y7515028D01*
X14323068Y7565750D01*
X14331490Y7578353D01*
X14334447Y7593218D01*
Y8337900D01*
X14331490Y8352766D01*
X14323068Y8365369D01*
X14293163Y8395275D01*
X14298973Y8407425D01*
X14310466Y8409711D01*
X14323068Y8418131D01*
X14477469Y8572531D01*
X14485889Y8585134D01*
X14488847Y8600000D01*
Y9100000D01*
X14485889Y9114866D01*
X14477469Y9127469D01*
X14363968Y9240969D01*
X14362962Y9241641D01*
X14360033Y9258873D01*
X14361703Y9261100D01*
X14384314Y9267159D01*
X14404585Y9278862D01*
X14421138Y9295414D01*
X14430225Y9311154D01*
X14711153D01*
Y8566091D01*
X14522533Y8377469D01*
X14514111Y8364866D01*
X14511154Y8350000D01*
Y7166091D01*
X14372531Y7027468D01*
X14364110Y7014866D01*
X14361153Y7000000D01*
Y4538846D01*
X14145399D01*
Y4600400D01*
X14098688D01*
X14095284Y4613100D01*
X14106647Y4619660D01*
X14125340Y4638353D01*
X14138557Y4661247D01*
X14145399Y4686782D01*
Y4687300D01*
X14045000D01*
Y4700000D01*
D01*
Y4687300D01*
X13944600D01*
Y4686782D01*
X13951442Y4661247D01*
X13964661Y4638353D01*
X13983353Y4619660D01*
X13994716Y4613100D01*
X13991313Y4600400D01*
X13944600D01*
Y4454537D01*
X13595409Y4105346D01*
X13423296D01*
X13416336Y4117402D01*
X13400902Y4132836D01*
X13381998Y4143750D01*
X13360915Y4149400D01*
X13339085D01*
X13318002Y4143750D01*
X13299098Y4132836D01*
X13283664Y4117402D01*
X13272749Y4098498D01*
X13267101Y4077414D01*
Y4055586D01*
X13272749Y4034502D01*
X13283664Y4015598D01*
X13299098Y4000163D01*
X13318002Y3989249D01*
X13339085Y3983600D01*
X13360915D01*
X13381998Y3989249D01*
X13400902Y4000163D01*
X13416336Y4015598D01*
X13423296Y4027653D01*
X13611501D01*
X13626366Y4030610D01*
X13638969Y4039031D01*
X13999538Y4399600D01*
X14145399D01*
Y4461153D01*
X14385121D01*
X14399986Y4464110D01*
X14412589Y4472531D01*
X14427467Y4487410D01*
X14435889Y4500013D01*
X14438846Y4514879D01*
Y6983909D01*
X14577469Y7122531D01*
X14585890Y7135134D01*
X14588847Y7150000D01*
Y8333909D01*
X14777469Y8522531D01*
X14785889Y8535134D01*
X14788846Y8550000D01*
Y9335121D01*
X14785889Y9349987D01*
X14777469Y9362590D01*
X14762589Y9377469D01*
X14749986Y9385890D01*
X14735121Y9388847D01*
X14430225D01*
X14421138Y9404586D01*
X14404585Y9421138D01*
X14384314Y9432842D01*
X14361703Y9438900D01*
X14338297D01*
X14315686Y9432842D01*
X14295415Y9421138D01*
X14294633Y9420357D01*
X14282899Y9425217D01*
Y9566400D01*
X14238847D01*
Y9843204D01*
X14250902Y9850164D01*
X14266336Y9865598D01*
X14277251Y9884502D01*
X14282899Y9905586D01*
Y9927414D01*
X14277251Y9948498D01*
X14266336Y9967402D01*
X14250902Y9982837D01*
X14231998Y9993751D01*
X14210915Y9999400D01*
X14189085D01*
X14168002Y9993751D01*
X14155087Y9986294D01*
X14142255Y9988847D01*
X13850000D01*
X13835133Y9985890D01*
X13834401Y9985400D01*
X13764600D01*
Y9814600D01*
X13935400D01*
Y9911154D01*
X14117101D01*
Y9905586D01*
X14122749Y9884502D01*
X14133664Y9865598D01*
X14149098Y9850164D01*
X14161154Y9843204D01*
Y9566400D01*
X14117101D01*
Y9522347D01*
X13515500D01*
X13500633Y9519390D01*
X13488031Y9510969D01*
X13371057Y9393995D01*
X13279950D01*
X13275746Y9397445D01*
Y9554110D01*
X13877469Y10155833D01*
X13885889Y10168435D01*
X13888846Y10183301D01*
Y10423817D01*
X13902437Y10431663D01*
X13918336Y10447563D01*
X13929581Y10467037D01*
X13935400Y10488757D01*
Y10511243D01*
X13931339Y10526401D01*
X14049591Y10644654D01*
X14117101D01*
Y10600600D01*
X14282899D01*
Y10766400D01*
D02*
G37*
G36*
X12282900Y10733400D02*
X12117100D01*
Y10689346D01*
X12050500D01*
X12035634Y10686389D01*
X12023031Y10677968D01*
X11926401Y10581338D01*
X11911243Y10585400D01*
X11888757D01*
X11867037Y10579580D01*
X11847563Y10568337D01*
X11831663Y10552437D01*
X11820420Y10532963D01*
X11814600Y10511243D01*
Y10488757D01*
X11820420Y10467037D01*
X11831663Y10447563D01*
X11847563Y10431663D01*
X11861154Y10423817D01*
Y10205642D01*
X11246931Y9591419D01*
X11238510Y9578817D01*
X11235553Y9563951D01*
Y9279100D01*
X11238510Y9264234D01*
X11246931Y9251632D01*
X11286505Y9212058D01*
Y9190950D01*
X11288861Y9179108D01*
X11295569Y9169069D01*
X11305608Y9162361D01*
X11317450Y9160006D01*
X11432550D01*
X11444392Y9162361D01*
X11454431Y9169069D01*
X11461139Y9179108D01*
X11463494Y9190950D01*
Y9236050D01*
X11461139Y9247892D01*
X11454431Y9257931D01*
X11444392Y9264639D01*
X11432550Y9266995D01*
X11341481D01*
X11334111Y9275927D01*
X11338842Y9287006D01*
X11432550D01*
X11444392Y9289361D01*
X11454431Y9296069D01*
X11461139Y9306108D01*
X11463494Y9317950D01*
Y9339058D01*
X11569090Y9444654D01*
X12117100D01*
Y9400600D01*
X12253588D01*
X12260920Y9387900D01*
X12258725Y9384097D01*
X11979989D01*
X11979431Y9384931D01*
X11969392Y9391639D01*
X11957550Y9393995D01*
X11842450D01*
X11830608Y9391639D01*
X11820569Y9384931D01*
X11813861Y9374892D01*
X11811505Y9363050D01*
Y9317950D01*
X11813861Y9306108D01*
X11820569Y9296069D01*
X11830608Y9289361D01*
X11842450Y9287006D01*
X11957550D01*
X11969392Y9289361D01*
X11979431Y9296069D01*
X11986139Y9306108D01*
X11986198Y9306404D01*
X12272517D01*
X12278862Y9295414D01*
X12295414Y9278862D01*
X12315686Y9267159D01*
X12338296Y9261100D01*
X12361704D01*
X12384314Y9267159D01*
X12404586Y9278862D01*
X12421138Y9295414D01*
X12432842Y9315686D01*
X12438900Y9338296D01*
Y9361704D01*
X12432842Y9384314D01*
X12421138Y9404586D01*
X12404586Y9421138D01*
X12384314Y9432842D01*
X12361704Y9438900D01*
X12338296D01*
X12315686Y9432842D01*
X12295414Y9421138D01*
X12294633Y9420357D01*
X12282900Y9425217D01*
Y9566400D01*
X12238847D01*
Y9810203D01*
X12250902Y9817163D01*
X12266337Y9832598D01*
X12277251Y9851502D01*
X12282900Y9872586D01*
Y9894414D01*
X12277251Y9915498D01*
X12266337Y9934402D01*
X12250902Y9949836D01*
X12231998Y9960750D01*
X12210914Y9966400D01*
X12189086D01*
X12168002Y9960750D01*
X12149098Y9949836D01*
X12133664Y9934402D01*
X12126704Y9922346D01*
X11985400D01*
Y9985400D01*
X11814600D01*
Y9814600D01*
X11985400D01*
Y9844653D01*
X12126704D01*
X12133664Y9832598D01*
X12149098Y9817163D01*
X12161154Y9810203D01*
Y9566400D01*
X12117100D01*
Y9522347D01*
X11553000D01*
X11538134Y9519390D01*
X11525531Y9510969D01*
X11408557Y9393995D01*
X11317450D01*
X11313246Y9397445D01*
Y9547860D01*
X11927469Y10162083D01*
X11935890Y10174685D01*
X11938847Y10189551D01*
Y10423817D01*
X11952437Y10431663D01*
X11968337Y10447563D01*
X11979580Y10467037D01*
X11985400Y10488757D01*
Y10511243D01*
X11981338Y10526401D01*
X12066591Y10611653D01*
X12117100D01*
Y10567600D01*
X12282900D01*
Y10733400D01*
D02*
G37*
G36*
X8332900Y10716400D02*
X8167100D01*
Y10672347D01*
X8083500D01*
X8068634Y10669390D01*
X8056032Y10660969D01*
X7976401Y10581338D01*
X7961243Y10585400D01*
X7938757D01*
X7917037Y10579580D01*
X7897563Y10568337D01*
X7881663Y10552437D01*
X7870420Y10532963D01*
X7864600Y10511243D01*
Y10488757D01*
X7870420Y10467037D01*
X7881663Y10447563D01*
X7897563Y10431663D01*
X7911154Y10423817D01*
Y10199392D01*
X7309431Y9597669D01*
X7301011Y9585067D01*
X7298053Y9570201D01*
Y9279100D01*
X7301011Y9264234D01*
X7309431Y9251632D01*
X7349005Y9212058D01*
Y9190950D01*
X7351361Y9179108D01*
X7358069Y9169069D01*
X7368108Y9162361D01*
X7379950Y9160006D01*
X7495050D01*
X7506892Y9162361D01*
X7516931Y9169069D01*
X7523639Y9179108D01*
X7525995Y9190950D01*
Y9236050D01*
X7523639Y9247892D01*
X7516931Y9257931D01*
X7506892Y9264639D01*
X7495050Y9266995D01*
X7403981D01*
X7396611Y9275927D01*
X7401343Y9287006D01*
X7495050D01*
X7506892Y9289361D01*
X7516931Y9296069D01*
X7523639Y9306108D01*
X7525995Y9317950D01*
Y9339058D01*
X7648090Y9461154D01*
X8167100D01*
Y9400600D01*
X8303588D01*
X8310920Y9387900D01*
X8308725Y9384097D01*
X8042489D01*
X8041931Y9384931D01*
X8031892Y9391639D01*
X8020050Y9393995D01*
X7904950D01*
X7893108Y9391639D01*
X7883069Y9384931D01*
X7876361Y9374892D01*
X7874005Y9363050D01*
Y9317950D01*
X7876361Y9306108D01*
X7883069Y9296069D01*
X7893108Y9289361D01*
X7904950Y9287006D01*
X8020050D01*
X8031892Y9289361D01*
X8041931Y9296069D01*
X8048639Y9306108D01*
X8048698Y9306404D01*
X8322518D01*
X8328862Y9295414D01*
X8345414Y9278862D01*
X8365686Y9267159D01*
X8388296Y9261100D01*
X8411704D01*
X8434314Y9267159D01*
X8454586Y9278862D01*
X8471138Y9295414D01*
X8482842Y9315686D01*
X8488900Y9338296D01*
Y9361704D01*
X8482842Y9384314D01*
X8471138Y9404586D01*
X8454586Y9421138D01*
X8434314Y9432842D01*
X8411704Y9438900D01*
X8388296D01*
X8365686Y9432842D01*
X8345414Y9421138D01*
X8344634Y9420357D01*
X8332900Y9425218D01*
Y9566400D01*
X8288847D01*
Y9793203D01*
X8300902Y9800164D01*
X8316337Y9815598D01*
X8327251Y9834502D01*
X8332900Y9855586D01*
Y9877414D01*
X8327251Y9898498D01*
X8316337Y9917402D01*
X8300902Y9932836D01*
X8281998Y9943750D01*
X8260914Y9949400D01*
X8239086D01*
X8218002Y9943750D01*
X8199098Y9932836D01*
X8183664Y9917402D01*
X8176704Y9905346D01*
X8035400D01*
Y9985400D01*
X7864600D01*
Y9814600D01*
X8035400D01*
Y9827653D01*
X8176704D01*
X8183664Y9815598D01*
X8199098Y9800164D01*
X8211154Y9793203D01*
Y9566400D01*
X8167100D01*
Y9538847D01*
X7632000D01*
X7617134Y9535889D01*
X7604531Y9527469D01*
X7471057Y9393995D01*
X7379950D01*
X7375746Y9397445D01*
Y9554110D01*
X7977469Y10155832D01*
X7985890Y10168435D01*
X7988847Y10183301D01*
Y10423817D01*
X8002437Y10431663D01*
X8018337Y10447563D01*
X8029580Y10467037D01*
X8035400Y10488757D01*
Y10511243D01*
X8031338Y10526401D01*
X8099591Y10594654D01*
X8167100D01*
Y10550600D01*
X8332900D01*
Y10716400D01*
D02*
G37*
G36*
X6482900D02*
X6317100D01*
Y10672347D01*
X6233500D01*
X6218634Y10669390D01*
X6206032Y10660969D01*
X6126401Y10581338D01*
X6111243Y10585400D01*
X6088757D01*
X6067037Y10579580D01*
X6047563Y10568337D01*
X6031663Y10552437D01*
X6020420Y10532963D01*
X6014600Y10511243D01*
Y10488757D01*
X6020420Y10467037D01*
X6031663Y10447563D01*
X6047563Y10431663D01*
X6061153Y10423817D01*
Y10199392D01*
X5459431Y9597669D01*
X5451010Y9585067D01*
X5448053Y9570201D01*
Y9279100D01*
X5451010Y9264234D01*
X5459431Y9251632D01*
X5499005Y9212058D01*
Y9190950D01*
X5501361Y9179108D01*
X5508069Y9169069D01*
X5518108Y9162361D01*
X5529950Y9160006D01*
X5645050D01*
X5656892Y9162361D01*
X5666931Y9169069D01*
X5673639Y9179108D01*
X5675994Y9190950D01*
Y9236050D01*
X5673639Y9247892D01*
X5666931Y9257931D01*
X5656892Y9264639D01*
X5645050Y9266995D01*
X5553981D01*
X5546611Y9275927D01*
X5551342Y9287006D01*
X5645050D01*
X5656892Y9289361D01*
X5666931Y9296069D01*
X5670663Y9301654D01*
X5690500D01*
X5705366Y9304611D01*
X5717969Y9313032D01*
X5866091Y9461154D01*
X6317100D01*
Y9400600D01*
X6482900D01*
Y9566400D01*
X6438846D01*
Y9793203D01*
X6450902Y9800164D01*
X6466336Y9815598D01*
X6477250Y9834502D01*
X6482900Y9855586D01*
Y9877414D01*
X6477250Y9898498D01*
X6466336Y9917402D01*
X6450902Y9932836D01*
X6431998Y9943750D01*
X6410914Y9949400D01*
X6389086D01*
X6368002Y9943750D01*
X6355087Y9936294D01*
X6342254Y9938847D01*
X6185400D01*
Y9985400D01*
X6014600D01*
Y9814600D01*
X6185400D01*
Y9861154D01*
X6317100D01*
Y9855586D01*
X6322749Y9834502D01*
X6333663Y9815598D01*
X6349098Y9800164D01*
X6361153Y9793203D01*
Y9566400D01*
X6317100D01*
Y9538847D01*
X5850000D01*
X5835134Y9535889D01*
X5822531Y9527469D01*
X5681262Y9386200D01*
X5666931Y9384931D01*
X5656892Y9391639D01*
X5645050Y9393995D01*
X5529950D01*
X5525746Y9397445D01*
Y9554110D01*
X6127469Y10155832D01*
X6135889Y10168435D01*
X6138846Y10183301D01*
Y10423817D01*
X6152437Y10431663D01*
X6168337Y10447563D01*
X6179580Y10467037D01*
X6185400Y10488757D01*
Y10511243D01*
X6181338Y10526401D01*
X6249591Y10594654D01*
X6317100D01*
Y10550600D01*
X6482900D01*
Y10716400D01*
D02*
G37*
G36*
X10282900Y10699901D02*
X10117100D01*
Y10655847D01*
X10033500D01*
X10018634Y10652890D01*
X10006031Y10644469D01*
X9926401Y10564839D01*
X9911243Y10568900D01*
X9888757D01*
X9867037Y10563080D01*
X9847563Y10551837D01*
X9831663Y10535937D01*
X9820420Y10516464D01*
X9814600Y10494744D01*
Y10472257D01*
X9820420Y10450537D01*
X9831663Y10431064D01*
X9847563Y10415164D01*
X9861153Y10407317D01*
Y10201651D01*
X9259431Y9599928D01*
X9251010Y9587326D01*
X9248053Y9572460D01*
Y9279100D01*
X9251010Y9264234D01*
X9259431Y9251631D01*
X9299005Y9212058D01*
Y9190950D01*
X9301360Y9179108D01*
X9308068Y9169069D01*
X9318107Y9162361D01*
X9329949Y9160006D01*
X9445049D01*
X9456891Y9162361D01*
X9466931Y9169069D01*
X9473638Y9179108D01*
X9475994Y9190950D01*
Y9236050D01*
X9473638Y9247892D01*
X9466931Y9257931D01*
X9456891Y9264639D01*
X9445049Y9266994D01*
X9353980D01*
X9346611Y9275927D01*
X9351342Y9287006D01*
X9445049D01*
X9456891Y9289361D01*
X9466931Y9296069D01*
X9473638Y9306108D01*
X9475994Y9317950D01*
Y9339058D01*
X9581590Y9444654D01*
X10117100D01*
Y9400600D01*
X10253588D01*
X10260920Y9387900D01*
X10258724Y9384097D01*
X9992488D01*
X9991930Y9384931D01*
X9981891Y9391639D01*
X9970049Y9393994D01*
X9854949D01*
X9843107Y9391639D01*
X9833068Y9384931D01*
X9826360Y9374892D01*
X9824005Y9363050D01*
Y9317950D01*
X9826360Y9306108D01*
X9833068Y9296069D01*
X9843107Y9289361D01*
X9854949Y9287006D01*
X9970049D01*
X9981891Y9289361D01*
X9991930Y9296069D01*
X9998638Y9306108D01*
X9998697Y9306404D01*
X10272517D01*
X10278862Y9295414D01*
X10295414Y9278862D01*
X10315686Y9267159D01*
X10338296Y9261100D01*
X10361704D01*
X10384314Y9267159D01*
X10404586Y9278862D01*
X10421138Y9295414D01*
X10432841Y9315686D01*
X10438900Y9338296D01*
Y9361704D01*
X10432841Y9384314D01*
X10421138Y9404586D01*
X10404586Y9421138D01*
X10384314Y9432842D01*
X10361704Y9438900D01*
X10338296D01*
X10315686Y9432842D01*
X10295414Y9421138D01*
X10294633Y9420357D01*
X10282900Y9425217D01*
Y9566400D01*
X10238846D01*
Y9776704D01*
X10250902Y9783664D01*
X10266336Y9799099D01*
X10277250Y9818002D01*
X10282900Y9839086D01*
Y9860914D01*
X10277250Y9881999D01*
X10266336Y9900902D01*
X10250902Y9916337D01*
X10231998Y9927251D01*
X10210914Y9932900D01*
X10189086D01*
X10168002Y9927251D01*
X10155087Y9919794D01*
X10142254Y9922347D01*
X9985400D01*
Y9968900D01*
X9814600D01*
Y9798101D01*
X9985400D01*
Y9844654D01*
X10117100D01*
Y9839086D01*
X10122749Y9818002D01*
X10133664Y9799099D01*
X10149098Y9783664D01*
X10161153Y9776704D01*
Y9566400D01*
X10117100D01*
Y9522347D01*
X9565500D01*
X9550634Y9519390D01*
X9538031Y9510969D01*
X9421057Y9393994D01*
X9329950D01*
X9325746Y9397444D01*
Y9556369D01*
X9927468Y10158091D01*
X9935889Y10170694D01*
X9938846Y10185560D01*
Y10407317D01*
X9952437Y10415164D01*
X9968337Y10431064D01*
X9979580Y10450537D01*
X9985400Y10472257D01*
Y10494744D01*
X9981338Y10509902D01*
X10049591Y10578154D01*
X10117100D01*
Y10534101D01*
X10282900D01*
Y10699901D01*
D02*
G37*
G36*
X7327414Y11182900D02*
X7305586D01*
X7284502Y11177251D01*
X7265598Y11166337D01*
X7250164Y11150902D01*
X7239249Y11131998D01*
X7233600Y11110914D01*
Y11089086D01*
X7239249Y11068002D01*
X7250164Y11049098D01*
X7265598Y11033664D01*
X7277653Y11026704D01*
Y10633500D01*
X7280611Y10618634D01*
X7289031Y10606032D01*
X7364600Y10530463D01*
Y10414600D01*
X7411154D01*
Y9976184D01*
X7397563Y9968337D01*
X7381663Y9952437D01*
X7370420Y9932963D01*
X7364600Y9911243D01*
Y9888757D01*
X7368662Y9873599D01*
X7267409Y9772347D01*
X7173297D01*
X7166336Y9784402D01*
X7150902Y9799837D01*
X7131998Y9810751D01*
X7110914Y9816400D01*
X7089086D01*
X7068002Y9810751D01*
X7049098Y9799837D01*
X7033664Y9784402D01*
X7022749Y9765498D01*
X7017100Y9744414D01*
Y9722586D01*
X7022749Y9701502D01*
X7033664Y9682598D01*
X7049098Y9667164D01*
X7068002Y9656250D01*
X7089086Y9650600D01*
X7110914D01*
X7131998Y9656250D01*
X7150902Y9667164D01*
X7166336Y9682598D01*
X7173297Y9694654D01*
X7283500D01*
X7298366Y9697611D01*
X7310969Y9706032D01*
X7423599Y9818662D01*
X7438757Y9814600D01*
X7461243D01*
X7482963Y9820420D01*
X7502437Y9831663D01*
X7518337Y9847563D01*
X7529580Y9867037D01*
X7535400Y9888757D01*
Y9911243D01*
X7529580Y9932963D01*
X7518337Y9952437D01*
X7502437Y9968337D01*
X7488847Y9976184D01*
Y10414600D01*
X7535400D01*
Y10585400D01*
X7419537D01*
X7355346Y10649591D01*
Y11026704D01*
X7367402Y11033664D01*
X7382836Y11049098D01*
X7393751Y11068002D01*
X7399400Y11089086D01*
Y11110914D01*
X7393751Y11131998D01*
X7382836Y11150902D01*
X7367402Y11166337D01*
X7348498Y11177251D01*
X7327414Y11182900D01*
D02*
G37*
G36*
X13177414D02*
X13155586D01*
X13134502Y11177251D01*
X13115598Y11166337D01*
X13100163Y11150902D01*
X13089249Y11131998D01*
X13083600Y11110914D01*
Y11089086D01*
X13089249Y11068002D01*
X13100163Y11049098D01*
X13115598Y11033664D01*
X13127654Y11026704D01*
Y10683500D01*
X13130611Y10668634D01*
X13139030Y10656032D01*
X13264600Y10530463D01*
Y10414600D01*
X13311153D01*
Y9976183D01*
X13297563Y9968337D01*
X13281664Y9952437D01*
X13270419Y9932963D01*
X13267636Y9922574D01*
X13133910Y9788847D01*
X13011893D01*
X13000902Y9799837D01*
X12981998Y9810751D01*
X12960915Y9816400D01*
X12939085D01*
X12918002Y9810751D01*
X12899098Y9799837D01*
X12883664Y9784402D01*
X12872749Y9765498D01*
X12867101Y9744414D01*
Y9722586D01*
X12872749Y9701502D01*
X12883664Y9682598D01*
X12899098Y9667164D01*
X12918002Y9656250D01*
X12939085Y9650600D01*
X12960915D01*
X12981998Y9656250D01*
X13000902Y9667164D01*
X13016336Y9682598D01*
X13027251Y9701502D01*
X13029837Y9711154D01*
X13150000D01*
X13164867Y9714111D01*
X13177467Y9722531D01*
X13292082Y9837145D01*
X13297563Y9831663D01*
X13317036Y9820420D01*
X13338757Y9814600D01*
X13361243D01*
X13382964Y9820420D01*
X13402437Y9831663D01*
X13418336Y9847563D01*
X13429581Y9867037D01*
X13435400Y9888757D01*
Y9911243D01*
X13429581Y9932963D01*
X13418336Y9952437D01*
X13402437Y9968337D01*
X13388846Y9976183D01*
Y10414600D01*
X13435400D01*
Y10585400D01*
X13319537D01*
X13205347Y10699591D01*
Y11026704D01*
X13217403Y11033664D01*
X13232835Y11049098D01*
X13243752Y11068002D01*
X13249400Y11089086D01*
Y11110914D01*
X13243752Y11131998D01*
X13232835Y11150902D01*
X13217403Y11166337D01*
X13198499Y11177251D01*
X13177414Y11182900D01*
D02*
G37*
G36*
X11227414D02*
X11205586D01*
X11184502Y11177251D01*
X11165598Y11166337D01*
X11150163Y11150902D01*
X11139249Y11131998D01*
X11133600Y11110914D01*
Y11089086D01*
X11139249Y11068002D01*
X11150163Y11049098D01*
X11165598Y11033664D01*
X11177653Y11026704D01*
Y10683500D01*
X11180610Y10668634D01*
X11189031Y10656032D01*
X11314600Y10530463D01*
Y10414600D01*
X11361154D01*
Y9976183D01*
X11347563Y9968337D01*
X11331663Y9952437D01*
X11320420Y9932963D01*
X11314600Y9911243D01*
Y9888757D01*
X11318662Y9873599D01*
X11217410Y9772347D01*
X11123296D01*
X11116336Y9784402D01*
X11100902Y9799837D01*
X11081998Y9810751D01*
X11060914Y9816400D01*
X11039086D01*
X11018002Y9810751D01*
X10999098Y9799837D01*
X10983663Y9784402D01*
X10972749Y9765498D01*
X10967100Y9744414D01*
Y9722586D01*
X10972749Y9701502D01*
X10983663Y9682598D01*
X10999098Y9667164D01*
X11018002Y9656250D01*
X11039086Y9650600D01*
X11060914D01*
X11081998Y9656250D01*
X11100902Y9667164D01*
X11116336Y9682598D01*
X11123296Y9694654D01*
X11233500D01*
X11248366Y9697611D01*
X11260969Y9706032D01*
X11373599Y9818662D01*
X11388757Y9814600D01*
X11411243D01*
X11432963Y9820420D01*
X11452437Y9831663D01*
X11468337Y9847563D01*
X11479580Y9867037D01*
X11485400Y9888757D01*
Y9911243D01*
X11479580Y9932963D01*
X11468337Y9952437D01*
X11452437Y9968337D01*
X11438847Y9976183D01*
Y10414600D01*
X11485400D01*
Y10585400D01*
X11369537D01*
X11255346Y10699591D01*
Y11026704D01*
X11267402Y11033664D01*
X11282836Y11049098D01*
X11293750Y11068002D01*
X11299400Y11089086D01*
Y11110914D01*
X11293750Y11131998D01*
X11282836Y11150902D01*
X11267402Y11166337D01*
X11248498Y11177251D01*
X11227414Y11182900D01*
D02*
G37*
G36*
X5527414D02*
X5505586D01*
X5484502Y11177251D01*
X5465598Y11166337D01*
X5450163Y11150902D01*
X5439249Y11131998D01*
X5433600Y11110914D01*
Y11089086D01*
X5439249Y11068002D01*
X5450163Y11049098D01*
X5465598Y11033664D01*
X5477653Y11026704D01*
Y10583500D01*
X5480610Y10568634D01*
X5489031Y10556032D01*
X5514600Y10530463D01*
Y10414600D01*
X5561153D01*
Y9976183D01*
X5547563Y9968337D01*
X5531663Y9952437D01*
X5520420Y9932963D01*
X5514600Y9911243D01*
Y9888757D01*
X5518662Y9873599D01*
X5410410Y9765348D01*
X5373296D01*
X5366336Y9777403D01*
X5350902Y9792837D01*
X5331998Y9803752D01*
X5310914Y9809401D01*
X5289086D01*
X5268002Y9803752D01*
X5249098Y9792837D01*
X5233663Y9777403D01*
X5222749Y9758499D01*
X5217100Y9737415D01*
Y9715587D01*
X5222749Y9694503D01*
X5233663Y9675599D01*
X5249098Y9660165D01*
X5268002Y9649250D01*
X5289086Y9643601D01*
X5310914D01*
X5331998Y9649250D01*
X5350902Y9660165D01*
X5366336Y9675599D01*
X5373296Y9687654D01*
X5426501D01*
X5441367Y9690612D01*
X5453970Y9699032D01*
X5573599Y9818662D01*
X5588757Y9814600D01*
X5611243D01*
X5632963Y9820420D01*
X5652437Y9831663D01*
X5668337Y9847563D01*
X5679580Y9867037D01*
X5685400Y9888757D01*
Y9911243D01*
X5679580Y9932963D01*
X5668337Y9952437D01*
X5652437Y9968337D01*
X5638846Y9976183D01*
Y10414600D01*
X5685400D01*
Y10585400D01*
X5569537D01*
X5555346Y10599591D01*
Y11026704D01*
X5567402Y11033664D01*
X5582836Y11049098D01*
X5593750Y11068002D01*
X5599400Y11089086D01*
Y11110914D01*
X5593750Y11131998D01*
X5582836Y11150902D01*
X5567402Y11166337D01*
X5548498Y11177251D01*
X5527414Y11182900D01*
D02*
G37*
G36*
X9277414D02*
X9255586D01*
X9234502Y11177251D01*
X9215598Y11166337D01*
X9200163Y11150902D01*
X9189249Y11131998D01*
X9183600Y11110914D01*
Y11089086D01*
X9189249Y11068002D01*
X9200163Y11049098D01*
X9215598Y11033664D01*
X9227653Y11026704D01*
Y10617000D01*
X9230610Y10602134D01*
X9239031Y10589532D01*
X9314600Y10513963D01*
Y10398101D01*
X9361153D01*
Y9959684D01*
X9347563Y9951837D01*
X9331663Y9935937D01*
X9323817Y9922347D01*
X9233500D01*
X9218634Y9919390D01*
X9206032Y9910969D01*
X9111347Y9816284D01*
X9110914Y9816400D01*
X9089086D01*
X9068002Y9810751D01*
X9049098Y9799837D01*
X9033664Y9784402D01*
X9022750Y9765498D01*
X9017100Y9744414D01*
Y9722586D01*
X9022750Y9701502D01*
X9033664Y9682598D01*
X9049098Y9667164D01*
X9068002Y9656250D01*
X9089086Y9650600D01*
X9110914D01*
X9131998Y9656250D01*
X9150902Y9667164D01*
X9166337Y9682598D01*
X9177251Y9701502D01*
X9182900Y9722586D01*
Y9744414D01*
X9177251Y9765498D01*
X9174756Y9769819D01*
X9249591Y9844654D01*
X9323817D01*
X9331663Y9831064D01*
X9347563Y9815164D01*
X9367037Y9803920D01*
X9388757Y9798101D01*
X9411243D01*
X9432963Y9803920D01*
X9452437Y9815164D01*
X9468337Y9831064D01*
X9479580Y9850537D01*
X9485400Y9872257D01*
Y9894743D01*
X9479580Y9916464D01*
X9468337Y9935937D01*
X9452437Y9951837D01*
X9438846Y9959684D01*
Y10398101D01*
X9485400D01*
Y10568900D01*
X9369537D01*
X9305346Y10633091D01*
Y11026704D01*
X9317402Y11033664D01*
X9332836Y11049098D01*
X9343750Y11068002D01*
X9349400Y11089086D01*
Y11110914D01*
X9343750Y11131998D01*
X9332836Y11150902D01*
X9317402Y11166337D01*
X9298498Y11177251D01*
X9277414Y11182900D01*
D02*
G37*
G36*
X6611704Y9438900D02*
X6588296D01*
X6565686Y9432842D01*
X6545414Y9421138D01*
X6528862Y9404586D01*
X6517158Y9384314D01*
X6517100Y9384097D01*
X6192489D01*
X6191931Y9384931D01*
X6181892Y9391639D01*
X6170050Y9393995D01*
X6054950D01*
X6043108Y9391639D01*
X6033069Y9384931D01*
X6026361Y9374892D01*
X6024005Y9363050D01*
Y9317950D01*
X6026361Y9306108D01*
X6033069Y9296069D01*
X6043108Y9289361D01*
X6054950Y9287006D01*
X6170050D01*
X6181892Y9289361D01*
X6191931Y9296069D01*
X6198639Y9306108D01*
X6198698Y9306404D01*
X6522518D01*
X6528862Y9295414D01*
X6545414Y9278862D01*
X6565686Y9267159D01*
X6588296Y9261100D01*
X6611704D01*
X6634314Y9267159D01*
X6654586Y9278862D01*
X6671138Y9295414D01*
X6682842Y9315686D01*
X6688900Y9338296D01*
Y9361704D01*
X6682842Y9384314D01*
X6671138Y9404586D01*
X6654586Y9421138D01*
X6634314Y9432842D01*
X6611704Y9438900D01*
D02*
G37*
G36*
X12937300Y9049400D02*
X12867101D01*
Y8979200D01*
X12937300D01*
Y9049400D01*
D02*
G37*
G36*
X11037299D02*
X10967100D01*
Y8979200D01*
X11037299D01*
Y9049400D01*
D02*
G37*
G36*
X9087300D02*
X9017100D01*
Y8979200D01*
X9087300D01*
Y9049400D01*
D02*
G37*
G36*
X7087300D02*
X7017100D01*
Y8979200D01*
X7087300D01*
Y9049400D01*
D02*
G37*
G36*
X13395050Y9012995D02*
X13350200D01*
Y8972201D01*
X13425993D01*
Y8982050D01*
X13423639Y8993892D01*
X13416931Y9003931D01*
X13406892Y9010639D01*
X13395050Y9012995D01*
D02*
G37*
G36*
X5287299Y9042401D02*
X5217100D01*
Y8972201D01*
X5287299D01*
Y9042401D01*
D02*
G37*
G36*
X11432550Y9012995D02*
X11387700D01*
Y8972200D01*
X11463494D01*
Y8982050D01*
X11461139Y8993892D01*
X11454431Y9003931D01*
X11444392Y9010639D01*
X11432550Y9012995D01*
D02*
G37*
G36*
X7495050D02*
X7450200D01*
Y8972200D01*
X7525995D01*
Y8982050D01*
X7523639Y8993892D01*
X7516931Y9003931D01*
X7506892Y9010639D01*
X7495050Y9012995D01*
D02*
G37*
G36*
X5645050D02*
X5600200D01*
Y8972200D01*
X5675994D01*
Y8982050D01*
X5673639Y8993892D01*
X5666931Y9003931D01*
X5656892Y9010639D01*
X5645050Y9012995D01*
D02*
G37*
G36*
X13061703Y9288900D02*
X13038297D01*
X13015686Y9282841D01*
X12995415Y9271138D01*
X12978862Y9254586D01*
X12967159Y9234314D01*
X12961099Y9211704D01*
Y9188296D01*
X12967159Y9165686D01*
X12978862Y9145414D01*
X12995415Y9128862D01*
X13015686Y9117158D01*
X13038297Y9111100D01*
X13061703D01*
X13079259Y9115804D01*
X13122531Y9072532D01*
X13135133Y9064111D01*
X13150000Y9061154D01*
X13249562D01*
X13251361Y9052108D01*
X13258069Y9042069D01*
X13268108Y9035361D01*
X13279950Y9033006D01*
X13395050D01*
X13406892Y9035361D01*
X13416931Y9042069D01*
X13420663Y9047654D01*
X13547409D01*
X13561153Y9033909D01*
Y9000000D01*
X13564111Y8985134D01*
X13572531Y8972531D01*
X13613031Y8932031D01*
X13625633Y8923611D01*
X13640500Y8920654D01*
X13779337D01*
X13783069Y8915069D01*
X13793108Y8908361D01*
X13804950Y8906006D01*
X13920050D01*
X13931892Y8908361D01*
X13941931Y8915069D01*
X13948639Y8925108D01*
X13950993Y8936950D01*
Y8982050D01*
X13948639Y8993892D01*
X13941931Y9003931D01*
X13931892Y9010639D01*
X13920050Y9012995D01*
X13804950D01*
X13793108Y9010639D01*
X13783069Y9003931D01*
X13779337Y8998347D01*
X13656590D01*
X13638846Y9016091D01*
Y9050000D01*
X13635889Y9064866D01*
X13627469Y9077469D01*
X13590968Y9113969D01*
X13578366Y9122390D01*
X13563499Y9125347D01*
X13420663D01*
X13416931Y9130931D01*
X13406892Y9137639D01*
X13395050Y9139995D01*
X13279950D01*
X13274178Y9138847D01*
X13166090D01*
X13134196Y9170741D01*
X13138901Y9188296D01*
Y9211704D01*
X13132841Y9234314D01*
X13121138Y9254586D01*
X13104585Y9271138D01*
X13084314Y9282841D01*
X13061703Y9288900D01*
D02*
G37*
G36*
X13425993Y8946801D02*
X13350200D01*
Y8906006D01*
X13395050D01*
X13406892Y8908361D01*
X13416931Y8915069D01*
X13423639Y8925108D01*
X13425993Y8936950D01*
Y8946801D01*
D02*
G37*
G36*
X13032899Y9049400D02*
X12962700D01*
Y8966500D01*
Y8883600D01*
X13032899D01*
Y8920654D01*
X13254337D01*
X13258069Y8915069D01*
X13268108Y8908361D01*
X13279950Y8906006D01*
X13324800D01*
Y8959501D01*
Y9012995D01*
X13279950D01*
X13268108Y9010639D01*
X13258069Y9003931D01*
X13254337Y8998347D01*
X13032899D01*
Y9049400D01*
D02*
G37*
G36*
X11161704Y9288900D02*
X11138296D01*
X11115686Y9282841D01*
X11095414Y9271138D01*
X11078862Y9254586D01*
X11067158Y9234314D01*
X11061100Y9211704D01*
Y9188296D01*
X11067158Y9165686D01*
X11078862Y9145414D01*
X11095414Y9128862D01*
X11115686Y9117158D01*
X11138296Y9111100D01*
X11161704D01*
X11179259Y9115804D01*
X11222532Y9072532D01*
X11235134Y9064111D01*
X11250000Y9061154D01*
X11287061D01*
X11288861Y9052108D01*
X11295569Y9042069D01*
X11305608Y9035361D01*
X11317450Y9033006D01*
X11432550D01*
X11444392Y9035361D01*
X11454431Y9042069D01*
X11458163Y9047654D01*
X11597409D01*
X11611154Y9033909D01*
Y9000000D01*
X11614111Y8985134D01*
X11622531Y8972531D01*
X11663031Y8932031D01*
X11675634Y8923611D01*
X11690500Y8920654D01*
X11816837D01*
X11820569Y8915069D01*
X11830608Y8908361D01*
X11842450Y8906006D01*
X11957550D01*
X11969392Y8908361D01*
X11979431Y8915069D01*
X11986139Y8925108D01*
X11988494Y8936950D01*
Y8982050D01*
X11986139Y8993892D01*
X11979431Y9003931D01*
X11969392Y9010639D01*
X11957550Y9012995D01*
X11842450D01*
X11830608Y9010639D01*
X11820569Y9003931D01*
X11816837Y8998347D01*
X11706591D01*
X11688847Y9016091D01*
Y9050000D01*
X11685890Y9064866D01*
X11677469Y9077469D01*
X11640968Y9113969D01*
X11628366Y9122390D01*
X11613500Y9125347D01*
X11458163D01*
X11454431Y9130931D01*
X11444392Y9137639D01*
X11432550Y9139995D01*
X11317450D01*
X11311678Y9138847D01*
X11266091D01*
X11234196Y9170741D01*
X11238900Y9188296D01*
Y9211704D01*
X11232842Y9234314D01*
X11221138Y9254586D01*
X11204586Y9271138D01*
X11184314Y9282841D01*
X11161704Y9288900D01*
D02*
G37*
G36*
X11463494Y8946800D02*
X11387700D01*
Y8906006D01*
X11432550D01*
X11444392Y8908361D01*
X11454431Y8915069D01*
X11461139Y8925108D01*
X11463494Y8936950D01*
Y8946800D01*
D02*
G37*
G36*
X11132900Y9049400D02*
X11062699D01*
Y8966500D01*
Y8883600D01*
X11132900D01*
Y8920654D01*
X11291837D01*
X11295569Y8915069D01*
X11305608Y8908361D01*
X11317450Y8906006D01*
X11362300D01*
Y8959500D01*
Y9012995D01*
X11317450D01*
X11305608Y9010639D01*
X11295569Y9003931D01*
X11291837Y8998347D01*
X11132900D01*
Y9049400D01*
D02*
G37*
G36*
X7211704Y9288900D02*
X7188296D01*
X7165686Y9282841D01*
X7145414Y9271138D01*
X7128862Y9254586D01*
X7117158Y9234314D01*
X7111100Y9211704D01*
Y9188296D01*
X7117158Y9165686D01*
X7128862Y9145414D01*
X7145414Y9128862D01*
X7165686Y9117158D01*
X7188296Y9111100D01*
X7211704D01*
X7229259Y9115804D01*
X7279281Y9065781D01*
X7291884Y9057361D01*
X7306750Y9054404D01*
X7350905D01*
X7351361Y9052108D01*
X7358069Y9042069D01*
X7368108Y9035361D01*
X7379950Y9033006D01*
X7495050D01*
X7506892Y9035361D01*
X7516931Y9042069D01*
X7520663Y9047654D01*
X7647409D01*
X7661154Y9033909D01*
Y9000000D01*
X7664111Y8985134D01*
X7672532Y8972531D01*
X7713031Y8932031D01*
X7725634Y8923611D01*
X7740500Y8920654D01*
X7879337D01*
X7883069Y8915069D01*
X7893108Y8908361D01*
X7904950Y8906006D01*
X8020050D01*
X8031892Y8908361D01*
X8041931Y8915069D01*
X8048639Y8925108D01*
X8050995Y8936950D01*
Y8982050D01*
X8048639Y8993892D01*
X8041931Y9003931D01*
X8031892Y9010639D01*
X8020050Y9012995D01*
X7904950D01*
X7893108Y9010639D01*
X7883069Y9003931D01*
X7879337Y8998347D01*
X7756591D01*
X7738847Y9016091D01*
Y9050000D01*
X7735890Y9064866D01*
X7727469Y9077469D01*
X7690968Y9113969D01*
X7678366Y9122390D01*
X7663500Y9125347D01*
X7520663D01*
X7516931Y9130931D01*
X7506892Y9137639D01*
X7495050Y9139995D01*
X7379950D01*
X7368108Y9137639D01*
X7359813Y9132097D01*
X7322841D01*
X7284196Y9170741D01*
X7288900Y9188296D01*
Y9211704D01*
X7282842Y9234314D01*
X7271138Y9254586D01*
X7254586Y9271138D01*
X7234314Y9282841D01*
X7211704Y9288900D01*
D02*
G37*
G36*
X7525995Y8946800D02*
X7450200D01*
Y8906006D01*
X7495050D01*
X7506892Y8908361D01*
X7516931Y8915069D01*
X7523639Y8925108D01*
X7525995Y8936950D01*
Y8946800D01*
D02*
G37*
G36*
X7182900Y9049400D02*
X7112700D01*
Y8966500D01*
Y8883600D01*
X7182900D01*
Y8920654D01*
X7354337D01*
X7358069Y8915069D01*
X7368108Y8908361D01*
X7379950Y8906006D01*
X7424800D01*
Y8959500D01*
Y9012995D01*
X7379950D01*
X7368108Y9010639D01*
X7358069Y9003931D01*
X7354337Y8998347D01*
X7182900D01*
Y9049400D01*
D02*
G37*
G36*
X5361704Y9288900D02*
X5338296D01*
X5315686Y9282841D01*
X5295414Y9271138D01*
X5278862Y9254586D01*
X5267158Y9234314D01*
X5261100Y9211704D01*
Y9188296D01*
X5267158Y9165686D01*
X5278862Y9145414D01*
X5295414Y9128862D01*
X5315686Y9117158D01*
X5338296Y9111100D01*
X5361704D01*
X5379259Y9115804D01*
X5431939Y9063124D01*
X5444541Y9054703D01*
X5459407Y9051746D01*
X5501603D01*
X5508069Y9042069D01*
X5518108Y9035361D01*
X5529950Y9033006D01*
X5645050D01*
X5656892Y9035361D01*
X5666931Y9042069D01*
X5670663Y9047654D01*
X5797409D01*
X5811153Y9033909D01*
Y9000000D01*
X5814111Y8985134D01*
X5822531Y8972531D01*
X5863031Y8932031D01*
X5875634Y8923611D01*
X5890500Y8920654D01*
X6029337D01*
X6033069Y8915069D01*
X6043108Y8908361D01*
X6054950Y8906006D01*
X6170050D01*
X6181892Y8908361D01*
X6191931Y8915069D01*
X6198639Y8925108D01*
X6200994Y8936950D01*
Y8982050D01*
X6198639Y8993892D01*
X6191931Y9003931D01*
X6181892Y9010639D01*
X6170050Y9012995D01*
X6054950D01*
X6043108Y9010639D01*
X6033069Y9003931D01*
X6029337Y8998347D01*
X5906591D01*
X5888846Y9016091D01*
Y9050000D01*
X5885889Y9064866D01*
X5877469Y9077469D01*
X5840968Y9113969D01*
X5828366Y9122390D01*
X5813500Y9125347D01*
X5670663D01*
X5666931Y9130931D01*
X5656892Y9137639D01*
X5645050Y9139995D01*
X5529950D01*
X5518108Y9137639D01*
X5508069Y9130931D01*
X5507072Y9129439D01*
X5475498D01*
X5434196Y9170741D01*
X5438900Y9188296D01*
Y9211704D01*
X5432842Y9234314D01*
X5421138Y9254586D01*
X5404586Y9271138D01*
X5384314Y9282841D01*
X5361704Y9288900D01*
D02*
G37*
G36*
X5675994Y8946800D02*
X5600200D01*
Y8906006D01*
X5645050D01*
X5656892Y8908361D01*
X5666931Y8915069D01*
X5673639Y8925108D01*
X5675994Y8936950D01*
Y8946800D01*
D02*
G37*
G36*
X5382900Y9042401D02*
X5312699D01*
Y8959501D01*
Y8876601D01*
X5382900D01*
Y8920654D01*
X5504337D01*
X5508069Y8915069D01*
X5518108Y8908361D01*
X5529950Y8906006D01*
X5574800D01*
Y8959500D01*
Y9012995D01*
X5529950D01*
X5518108Y9010639D01*
X5508069Y9003931D01*
X5504337Y8998347D01*
X5382900D01*
Y9042401D01*
D02*
G37*
G36*
X9161704Y9288900D02*
X9138296D01*
X9115686Y9282841D01*
X9095414Y9271138D01*
X9078862Y9254586D01*
X9067158Y9234314D01*
X9061100Y9211704D01*
Y9188296D01*
X9067158Y9165686D01*
X9078862Y9145414D01*
X9095414Y9128862D01*
X9115686Y9117158D01*
X9138296Y9111100D01*
X9161704D01*
X9179259Y9115804D01*
X9222531Y9072532D01*
X9235134Y9064111D01*
X9250000Y9061154D01*
X9299561D01*
X9301360Y9052108D01*
X9308068Y9042069D01*
X9318107Y9035361D01*
X9329949Y9033006D01*
X9445049D01*
X9456891Y9035361D01*
X9466931Y9042069D01*
X9470662Y9047653D01*
X9597409D01*
X9611153Y9033909D01*
Y9000000D01*
X9614111Y8985134D01*
X9622531Y8972531D01*
X9663031Y8932031D01*
X9675634Y8923611D01*
X9690500Y8920653D01*
X9829337D01*
X9833068Y8915069D01*
X9843107Y8908361D01*
X9854949Y8906006D01*
X9970049D01*
X9981891Y8908361D01*
X9991930Y8915069D01*
X9998638Y8925108D01*
X10000994Y8936950D01*
Y8982050D01*
X9998638Y8993892D01*
X9991930Y9003931D01*
X9981891Y9010639D01*
X9970049Y9012994D01*
X9854949D01*
X9843107Y9010639D01*
X9833068Y9003931D01*
X9829337Y8998346D01*
X9706591D01*
X9688847Y9016091D01*
Y9050000D01*
X9685889Y9064866D01*
X9677469Y9077469D01*
X9640969Y9113969D01*
X9628366Y9122389D01*
X9613500Y9125346D01*
X9470662D01*
X9466931Y9130931D01*
X9456891Y9137639D01*
X9445049Y9139994D01*
X9329949D01*
X9324179Y9138847D01*
X9266091D01*
X9234196Y9170741D01*
X9238900Y9188296D01*
Y9211704D01*
X9232842Y9234314D01*
X9221138Y9254586D01*
X9204586Y9271138D01*
X9184314Y9282841D01*
X9161704Y9288900D01*
D02*
G37*
G36*
X9445049Y9012994D02*
X9400200D01*
Y8959500D01*
Y8906006D01*
X9445049D01*
X9456891Y8908361D01*
X9466931Y8915069D01*
X9467439Y8915830D01*
X9477468Y8922531D01*
X9485889Y8935134D01*
X9488846Y8950000D01*
X9485889Y8964866D01*
X9477468Y8977468D01*
X9475994Y8978454D01*
Y8982050D01*
X9473638Y8993892D01*
X9466931Y9003931D01*
X9456891Y9010639D01*
X9445049Y9012994D01*
D02*
G37*
G36*
X9182900Y9049400D02*
X9112700D01*
Y8966500D01*
Y8883600D01*
X9182900D01*
Y8911153D01*
X9313929D01*
X9318107Y8908361D01*
X9329949Y8906006D01*
X9374800D01*
Y8959500D01*
Y9012994D01*
X9329949D01*
X9318107Y9010639D01*
X9308068Y9003931D01*
X9301360Y8993892D01*
X9300357Y8988846D01*
X9182900D01*
Y9049400D01*
D02*
G37*
G36*
X12937300Y8953800D02*
X12867101D01*
Y8883600D01*
X12937300D01*
Y8953800D01*
D02*
G37*
G36*
X11037299D02*
X10967100D01*
Y8883600D01*
X11037299D01*
Y8953800D01*
D02*
G37*
G36*
X9087300D02*
X9017100D01*
Y8883600D01*
X9087300D01*
Y8953800D01*
D02*
G37*
G36*
X7087300D02*
X7017100D01*
Y8883600D01*
X7087300D01*
Y8953800D01*
D02*
G37*
G36*
X5287299Y8946801D02*
X5217100D01*
Y8876601D01*
X5287299D01*
Y8946801D01*
D02*
G37*
G36*
X14210915Y8799400D02*
X14189085D01*
X14168002Y8793751D01*
X14149098Y8782836D01*
X14133664Y8767402D01*
X14122749Y8748498D01*
X14117101Y8727414D01*
Y8705586D01*
X14122749Y8684502D01*
X14133664Y8665598D01*
X14149098Y8650164D01*
X14168002Y8639249D01*
X14189085Y8633600D01*
X14210915D01*
X14231998Y8639249D01*
X14250902Y8650164D01*
X14266336Y8665598D01*
X14277251Y8684502D01*
X14282899Y8705586D01*
Y8727414D01*
X14277251Y8748498D01*
X14266336Y8767402D01*
X14250902Y8782836D01*
X14231998Y8793751D01*
X14210915Y8799400D01*
D02*
G37*
G36*
X12210914D02*
X12189086D01*
X12168002Y8793751D01*
X12149098Y8782836D01*
X12133664Y8767402D01*
X12122749Y8748498D01*
X12117100Y8727414D01*
Y8705586D01*
X12122749Y8684502D01*
X12133664Y8665598D01*
X12149098Y8650164D01*
X12168002Y8639249D01*
X12189086Y8633600D01*
X12210914D01*
X12231998Y8639249D01*
X12250902Y8650164D01*
X12266336Y8665598D01*
X12277251Y8684502D01*
X12282900Y8705586D01*
Y8727414D01*
X12277251Y8748498D01*
X12266336Y8767402D01*
X12250902Y8782836D01*
X12231998Y8793751D01*
X12210914Y8799400D01*
D02*
G37*
G36*
X10210914D02*
X10189086D01*
X10168002Y8793751D01*
X10149098Y8782836D01*
X10133664Y8767402D01*
X10122749Y8748498D01*
X10117100Y8727414D01*
Y8705586D01*
X10122749Y8684502D01*
X10133664Y8665598D01*
X10149098Y8650164D01*
X10168002Y8639249D01*
X10189086Y8633600D01*
X10210914D01*
X10231998Y8639249D01*
X10250902Y8650164D01*
X10266336Y8665598D01*
X10277250Y8684502D01*
X10282900Y8705586D01*
Y8727414D01*
X10277250Y8748498D01*
X10266336Y8767402D01*
X10250902Y8782836D01*
X10231998Y8793751D01*
X10210914Y8799400D01*
D02*
G37*
G36*
X8260914D02*
X8239086D01*
X8218002Y8793751D01*
X8199098Y8782836D01*
X8183664Y8767402D01*
X8172750Y8748498D01*
X8167100Y8727414D01*
Y8705586D01*
X8172750Y8684502D01*
X8183664Y8665598D01*
X8199098Y8650164D01*
X8218002Y8639249D01*
X8239086Y8633600D01*
X8260914D01*
X8281998Y8639249D01*
X8300902Y8650164D01*
X8316337Y8665598D01*
X8327251Y8684502D01*
X8332900Y8705586D01*
Y8727414D01*
X8327251Y8748498D01*
X8316337Y8767402D01*
X8300902Y8782836D01*
X8281998Y8793751D01*
X8260914Y8799400D01*
D02*
G37*
G36*
X6410914D02*
X6389086D01*
X6368002Y8793751D01*
X6349098Y8782836D01*
X6333663Y8767402D01*
X6322749Y8748498D01*
X6317100Y8727414D01*
Y8705586D01*
X6322749Y8684502D01*
X6333663Y8665598D01*
X6349098Y8650164D01*
X6368002Y8639249D01*
X6389086Y8633600D01*
X6410914D01*
X6431998Y8639249D01*
X6450902Y8650164D01*
X6466336Y8665598D01*
X6477250Y8684502D01*
X6482900Y8705586D01*
Y8727414D01*
X6477250Y8748498D01*
X6466336Y8767402D01*
X6450902Y8782836D01*
X6431998Y8793751D01*
X6410914Y8799400D01*
D02*
G37*
G36*
X11957550Y9266995D02*
X11842450D01*
X11830608Y9264639D01*
X11820569Y9257931D01*
X11813861Y9247892D01*
X11811505Y9236050D01*
Y9190950D01*
X11813861Y9179108D01*
X11820569Y9169069D01*
X11830608Y9162361D01*
X11842450Y9160006D01*
X11957550D01*
X11963319Y9161153D01*
X12183909D01*
X12411153Y8933909D01*
Y8699591D01*
X12224360Y8512798D01*
X12210914Y8516400D01*
X12189086D01*
X12168002Y8510751D01*
X12149098Y8499837D01*
X12133664Y8484402D01*
X12126703Y8472347D01*
X11985400D01*
Y8485400D01*
X11814600D01*
Y8314600D01*
X11985400D01*
Y8394654D01*
X12126703D01*
X12133664Y8382598D01*
X12149098Y8367164D01*
X12168002Y8356250D01*
X12189086Y8350600D01*
X12210914D01*
X12224360Y8354203D01*
X12256753Y8321810D01*
Y7749400D01*
X12117100D01*
Y7738847D01*
X11976183D01*
X11968337Y7752437D01*
X11952437Y7768337D01*
X11932963Y7779580D01*
X11911243Y7785400D01*
X11888757D01*
X11873599Y7781338D01*
X11738846Y7916091D01*
Y8711154D01*
X12000000D01*
X12014866Y8714111D01*
X12027468Y8722531D01*
X12127469Y8822532D01*
X12135889Y8835134D01*
X12138846Y8850000D01*
Y9000000D01*
X12135889Y9014866D01*
X12127469Y9027469D01*
X12040968Y9113969D01*
X12028366Y9122390D01*
X12013500Y9125347D01*
X11983162D01*
X11979431Y9130931D01*
X11969392Y9137639D01*
X11957550Y9139995D01*
X11842450D01*
X11830608Y9137639D01*
X11820569Y9130931D01*
X11813861Y9120892D01*
X11811505Y9109050D01*
Y9063950D01*
X11813861Y9052108D01*
X11820569Y9042069D01*
X11830608Y9035361D01*
X11842450Y9033006D01*
X11957550D01*
X11969392Y9035361D01*
X11979431Y9042069D01*
X11983162Y9047654D01*
X11997409D01*
X12061153Y8983909D01*
Y8866091D01*
X11983909Y8788847D01*
X11714879D01*
X11700013Y8785889D01*
X11687410Y8777469D01*
X11672531Y8762590D01*
X11664111Y8749987D01*
X11661153Y8735121D01*
Y7900000D01*
X11664111Y7885134D01*
X11672531Y7872531D01*
X11818662Y7726401D01*
X11814600Y7711243D01*
Y7688757D01*
X11820420Y7667037D01*
X11831663Y7647563D01*
X11847563Y7631663D01*
X11867037Y7620420D01*
X11888757Y7614600D01*
X11911243D01*
X11932963Y7620420D01*
X11952437Y7631663D01*
X11968337Y7647563D01*
X11976183Y7661154D01*
X12117100D01*
Y7583600D01*
X12214451D01*
X12219311Y7571867D01*
X12156032Y7508587D01*
X12147611Y7495985D01*
X12144654Y7481119D01*
Y7432900D01*
X12100600D01*
Y7267100D01*
X12266400D01*
Y7432900D01*
X12222347D01*
Y7465028D01*
X12323069Y7565750D01*
X12331489Y7578353D01*
X12334447Y7593218D01*
Y8337900D01*
X12331489Y8352766D01*
X12323069Y8365369D01*
X12279297Y8409140D01*
X12282900Y8422586D01*
Y8444414D01*
X12279297Y8457860D01*
X12477469Y8656032D01*
X12485889Y8668634D01*
X12488846Y8683500D01*
Y8950000D01*
X12485889Y8964866D01*
X12477469Y8977468D01*
X12227469Y9227468D01*
X12214866Y9235889D01*
X12200000Y9238846D01*
X11987938D01*
X11986139Y9247892D01*
X11979431Y9257931D01*
X11969392Y9264639D01*
X11957550Y9266995D01*
D02*
G37*
G36*
X6170050D02*
X6054950D01*
X6043108Y9264639D01*
X6033069Y9257931D01*
X6026361Y9247892D01*
X6024005Y9236050D01*
Y9190950D01*
X6026361Y9179108D01*
X6033069Y9169069D01*
X6043108Y9162361D01*
X6054950Y9160006D01*
X6170050D01*
X6181892Y9162361D01*
X6191931Y9169069D01*
X6195662Y9174654D01*
X6270409D01*
X6561154Y8883909D01*
Y8616091D01*
X6509232Y8564169D01*
X6458823D01*
X6443957Y8561212D01*
X6431354Y8552791D01*
X6391361Y8512798D01*
X6377915Y8516400D01*
X6356087D01*
X6335003Y8510751D01*
X6316099Y8499837D01*
X6300664Y8484402D01*
X6293704Y8472347D01*
X6185400D01*
Y8485400D01*
X6014600D01*
Y8314600D01*
X6185400D01*
Y8394654D01*
X6293704D01*
X6300664Y8382598D01*
X6316099Y8367164D01*
X6335003Y8356250D01*
X6356087Y8350600D01*
X6377915D01*
X6391361Y8354203D01*
X6423754Y8321810D01*
Y7749400D01*
X6284101D01*
Y7705347D01*
X6185400D01*
Y7711243D01*
X6179580Y7732963D01*
X6168337Y7752437D01*
X6152437Y7768337D01*
X6132963Y7779580D01*
X6111243Y7785400D01*
X6088757D01*
X6073599Y7781338D01*
X6043418Y7811519D01*
X6030815Y7819940D01*
X6015950Y7822897D01*
X5982040D01*
X5938846Y7866091D01*
Y8711154D01*
X6200000D01*
X6214866Y8714111D01*
X6227469Y8722531D01*
X6327469Y8822532D01*
X6335890Y8835134D01*
X6338847Y8850000D01*
Y9000000D01*
X6335890Y9014866D01*
X6327469Y9027469D01*
X6240968Y9113969D01*
X6228366Y9122390D01*
X6213500Y9125347D01*
X6195662D01*
X6191931Y9130931D01*
X6181892Y9137639D01*
X6170050Y9139995D01*
X6054950D01*
X6043108Y9137639D01*
X6033069Y9130931D01*
X6026361Y9120892D01*
X6024005Y9109050D01*
Y9063950D01*
X6026361Y9052108D01*
X6033069Y9042069D01*
X6043108Y9035361D01*
X6054950Y9033006D01*
X6170050D01*
X6181892Y9035361D01*
X6191931Y9042069D01*
X6205518Y9039545D01*
X6261154Y8983909D01*
Y8866091D01*
X6183909Y8788847D01*
X5914879D01*
X5900013Y8785889D01*
X5887410Y8777469D01*
X5872531Y8762590D01*
X5864110Y8749987D01*
X5861153Y8735121D01*
Y7850000D01*
X5864110Y7835134D01*
X5872531Y7822531D01*
X5938481Y7756582D01*
X5951084Y7748161D01*
X5965949Y7745204D01*
X5999859D01*
X6018662Y7726401D01*
X6014600Y7711243D01*
Y7688757D01*
X6020420Y7667037D01*
X6031663Y7647563D01*
X6047563Y7631663D01*
X6067037Y7620420D01*
X6088757Y7614600D01*
X6111243D01*
X6132963Y7620420D01*
X6148979Y7629666D01*
X6159099Y7627654D01*
X6284101D01*
Y7583600D01*
X6381452D01*
X6386312Y7571867D01*
X6356031Y7541586D01*
X6347611Y7528984D01*
X6344654Y7514118D01*
Y7432900D01*
X6300600D01*
Y7267100D01*
X6466400D01*
Y7432900D01*
X6422347D01*
Y7498027D01*
X6490069Y7565750D01*
X6498490Y7578352D01*
X6501447Y7593218D01*
Y8337900D01*
X6498490Y8352766D01*
X6490069Y8365369D01*
X6446298Y8409140D01*
X6449901Y8422586D01*
Y8444414D01*
X6446298Y8457860D01*
X6474913Y8486476D01*
X6525322D01*
X6540188Y8489433D01*
X6552791Y8497854D01*
X6627469Y8572531D01*
X6635889Y8585134D01*
X6638847Y8600000D01*
Y8900000D01*
X6635889Y8914866D01*
X6627469Y8927469D01*
X6313968Y9240969D01*
X6301366Y9249390D01*
X6286500Y9252347D01*
X6195662D01*
X6191931Y9257931D01*
X6181892Y9264639D01*
X6170050Y9266995D01*
D02*
G37*
G36*
X9970049Y9266994D02*
X9854949D01*
X9843107Y9264639D01*
X9833068Y9257931D01*
X9826360Y9247892D01*
X9824005Y9236050D01*
Y9190950D01*
X9826360Y9179108D01*
X9833068Y9169069D01*
X9843107Y9162361D01*
X9854949Y9160006D01*
X9970049D01*
X9981891Y9162361D01*
X9991930Y9169069D01*
X9995662Y9174653D01*
X10120409D01*
X10411153Y8883909D01*
Y8530970D01*
X10405596Y8525412D01*
X10277311D01*
X10262445Y8522455D01*
X10249842Y8514034D01*
X10241229Y8505421D01*
X10231998Y8510751D01*
X10210914Y8516400D01*
X10189086D01*
X10168002Y8510751D01*
X10149098Y8499837D01*
X10133664Y8484402D01*
X10126703Y8472347D01*
X9985400D01*
Y8485400D01*
X9814600D01*
Y8314600D01*
X9985400D01*
Y8394654D01*
X10126703D01*
X10133664Y8382598D01*
X10149098Y8367164D01*
X10168002Y8356250D01*
X10189086Y8350600D01*
X10210914D01*
X10224360Y8354203D01*
X10256753Y8321810D01*
Y7749400D01*
X10117100D01*
Y7738847D01*
X9976183D01*
X9968337Y7752437D01*
X9952437Y7768337D01*
X9932963Y7779580D01*
X9911243Y7785400D01*
X9888757D01*
X9873599Y7781338D01*
X9843418Y7811519D01*
X9830815Y7819940D01*
X9815949Y7822897D01*
X9782040D01*
X9738846Y7866091D01*
Y8711154D01*
X10000000D01*
X10014866Y8714111D01*
X10027469Y8722531D01*
X10127469Y8822532D01*
X10135890Y8835134D01*
X10138847Y8850000D01*
Y9000000D01*
X10135890Y9014866D01*
X10127469Y9027469D01*
X10040969Y9113969D01*
X10028366Y9122389D01*
X10013500Y9125346D01*
X9995662D01*
X9991930Y9130931D01*
X9981891Y9137639D01*
X9970049Y9139994D01*
X9854949D01*
X9843107Y9137639D01*
X9833068Y9130931D01*
X9826360Y9120892D01*
X9824005Y9109050D01*
Y9063950D01*
X9826360Y9052108D01*
X9833068Y9042069D01*
X9843107Y9035361D01*
X9854949Y9033006D01*
X9970049D01*
X9981891Y9035361D01*
X9991930Y9042069D01*
X10005518Y9039545D01*
X10061154Y8983909D01*
Y8866091D01*
X9983909Y8788847D01*
X9714879D01*
X9700013Y8785889D01*
X9687410Y8777469D01*
X9672531Y8762590D01*
X9664110Y8749987D01*
X9661153Y8735121D01*
Y7850000D01*
X9664110Y7835134D01*
X9672531Y7822531D01*
X9738481Y7756582D01*
X9751084Y7748161D01*
X9765949Y7745204D01*
X9799859D01*
X9818662Y7726401D01*
X9814600Y7711243D01*
Y7688757D01*
X9820420Y7667037D01*
X9831663Y7647563D01*
X9847563Y7631663D01*
X9867037Y7620420D01*
X9888757Y7614600D01*
X9911243D01*
X9932963Y7620420D01*
X9952437Y7631663D01*
X9968337Y7647563D01*
X9976183Y7661154D01*
X10117100D01*
Y7583600D01*
X10214451D01*
X10219311Y7571867D01*
X10156032Y7508587D01*
X10147611Y7495985D01*
X10144654Y7481119D01*
Y7432900D01*
X10100600D01*
Y7267100D01*
X10266400D01*
Y7432900D01*
X10222347D01*
Y7465028D01*
X10323069Y7565750D01*
X10331489Y7578353D01*
X10334446Y7593218D01*
Y8337900D01*
X10331489Y8352766D01*
X10323069Y8365369D01*
X10279297Y8409140D01*
X10282900Y8422586D01*
Y8437217D01*
X10293402Y8447719D01*
X10421686D01*
X10436552Y8450676D01*
X10449155Y8459097D01*
X10477469Y8487411D01*
X10485889Y8500013D01*
X10488846Y8514879D01*
Y8900000D01*
X10485889Y8914866D01*
X10477469Y8927469D01*
X10163968Y9240969D01*
X10151366Y9249389D01*
X10136500Y9252346D01*
X9995662D01*
X9991930Y9257931D01*
X9981891Y9264639D01*
X9970049Y9266994D01*
D02*
G37*
G36*
X13032899Y8549900D02*
X12962700D01*
Y8479701D01*
X13032899D01*
Y8549900D01*
D02*
G37*
G36*
X12937300D02*
X12867101D01*
Y8479701D01*
X12937300D01*
Y8549900D01*
D02*
G37*
G36*
X11132900D02*
X11062699D01*
Y8479700D01*
X11132900D01*
Y8549900D01*
D02*
G37*
G36*
X11037299D02*
X10967100D01*
Y8479700D01*
X11037299D01*
Y8549900D01*
D02*
G37*
G36*
X8020050Y9266995D02*
X7904950D01*
X7893108Y9264639D01*
X7883069Y9257931D01*
X7876361Y9247892D01*
X7874005Y9236050D01*
Y9190950D01*
X7876361Y9179108D01*
X7883069Y9169069D01*
X7893108Y9162361D01*
X7904950Y9160006D01*
X8020050D01*
X8031892Y9162361D01*
X8041931Y9169069D01*
X8045663Y9174654D01*
X8170409D01*
X8461154Y8883909D01*
Y8566091D01*
X8367409Y8472347D01*
X8323297D01*
X8316336Y8484402D01*
X8300902Y8499836D01*
X8281998Y8510751D01*
X8260914Y8516400D01*
X8239086D01*
X8218002Y8510751D01*
X8199098Y8499836D01*
X8183664Y8484402D01*
X8172749Y8465498D01*
X8167100Y8444414D01*
Y8438847D01*
X8035400D01*
Y8485400D01*
X7864600D01*
Y8314600D01*
X8035400D01*
Y8361154D01*
X8192254D01*
X8205086Y8363706D01*
X8218002Y8356249D01*
X8239086Y8350600D01*
X8260914D01*
X8274360Y8354203D01*
X8306754Y8321809D01*
Y7749400D01*
X8167100D01*
Y7738847D01*
X8026183D01*
X8018337Y7752437D01*
X8002437Y7768337D01*
X7982963Y7779580D01*
X7961243Y7785400D01*
X7938757D01*
X7923599Y7781338D01*
X7788846Y7916091D01*
Y8711154D01*
X8050000D01*
X8064866Y8714111D01*
X8077468Y8722531D01*
X8177469Y8822532D01*
X8185889Y8835134D01*
X8188846Y8850000D01*
Y9000000D01*
X8185889Y9014866D01*
X8177469Y9027469D01*
X8090968Y9113969D01*
X8078366Y9122390D01*
X8063500Y9125347D01*
X8045663D01*
X8041931Y9130931D01*
X8031892Y9137639D01*
X8020050Y9139995D01*
X7904950D01*
X7893108Y9137639D01*
X7883069Y9130931D01*
X7876361Y9120892D01*
X7874005Y9109050D01*
Y9063950D01*
X7876361Y9052108D01*
X7883069Y9042069D01*
X7893108Y9035361D01*
X7904950Y9033006D01*
X8020050D01*
X8031892Y9035361D01*
X8041931Y9042069D01*
X8055518Y9039545D01*
X8111153Y8983909D01*
Y8866091D01*
X8033909Y8788847D01*
X7764879D01*
X7750013Y8785889D01*
X7737410Y8777469D01*
X7722531Y8762590D01*
X7714111Y8749987D01*
X7711153Y8735121D01*
Y7900000D01*
X7714111Y7885134D01*
X7722531Y7872532D01*
X7868662Y7726401D01*
X7864600Y7711243D01*
Y7688757D01*
X7870420Y7667037D01*
X7881663Y7647563D01*
X7897563Y7631663D01*
X7917037Y7620420D01*
X7938757Y7614600D01*
X7961243D01*
X7982963Y7620420D01*
X8002437Y7631663D01*
X8018337Y7647563D01*
X8026183Y7661154D01*
X8167100D01*
Y7583600D01*
X8264451D01*
X8269311Y7571866D01*
X8222531Y7525087D01*
X8214111Y7512484D01*
X8211154Y7497618D01*
Y7432900D01*
X8167100D01*
Y7267100D01*
X8332900D01*
Y7432900D01*
X8288847D01*
Y7481528D01*
X8373069Y7565750D01*
X8381489Y7578352D01*
X8384447Y7593218D01*
Y8337900D01*
X8381489Y8352766D01*
X8373069Y8365369D01*
X8355517Y8382920D01*
X8360377Y8394654D01*
X8383500D01*
X8398366Y8397611D01*
X8410969Y8406031D01*
X8527469Y8522531D01*
X8535889Y8535134D01*
X8538847Y8550000D01*
Y8900000D01*
X8535889Y8914866D01*
X8527469Y8927469D01*
X8213968Y9240969D01*
X8201366Y9249390D01*
X8186500Y9252347D01*
X8045663D01*
X8041931Y9257931D01*
X8031892Y9264639D01*
X8020050Y9266995D01*
D02*
G37*
G36*
X9182900Y8532900D02*
X9112700D01*
Y8462700D01*
X9182900D01*
Y8532900D01*
D02*
G37*
G36*
X9087300D02*
X9017100D01*
Y8462700D01*
X9087300D01*
Y8532900D01*
D02*
G37*
G36*
X7182900Y8516400D02*
X7112700D01*
Y8446200D01*
X7182900D01*
Y8516400D01*
D02*
G37*
G36*
X5382900D02*
X5312700D01*
Y8446200D01*
X5382900D01*
Y8516400D01*
D02*
G37*
G36*
X7087300D02*
X7017100D01*
Y8446200D01*
X7087300D01*
Y8516400D01*
D02*
G37*
G36*
X5287300D02*
X5217100D01*
Y8446200D01*
X5287300D01*
Y8516400D01*
D02*
G37*
G36*
X13032899Y8454301D02*
X12962700D01*
Y8384100D01*
X13032899D01*
Y8454301D01*
D02*
G37*
G36*
X12937300D02*
X12867101D01*
Y8384100D01*
X12937300D01*
Y8454301D01*
D02*
G37*
G36*
X11132900Y8454300D02*
X11062699D01*
Y8384100D01*
X11132900D01*
Y8454300D01*
D02*
G37*
G36*
X11037299D02*
X10967100D01*
Y8384100D01*
X11037299D01*
Y8454300D01*
D02*
G37*
G36*
X9182900Y8437300D02*
X9112700D01*
Y8367100D01*
X9182900D01*
Y8437300D01*
D02*
G37*
G36*
X9087300D02*
X9017100D01*
Y8367100D01*
X9087300D01*
Y8437300D01*
D02*
G37*
G36*
X7182900Y8420800D02*
X7112700D01*
Y8350600D01*
X7182900D01*
Y8420800D01*
D02*
G37*
G36*
X7087300D02*
X7017100D01*
Y8350600D01*
X7087300D01*
Y8420800D01*
D02*
G37*
G36*
X5382900D02*
X5312700D01*
Y8350600D01*
X5382900D01*
Y8420800D01*
D02*
G37*
G36*
X5287300D02*
X5217100D01*
Y8350600D01*
X5287300D01*
Y8420800D01*
D02*
G37*
G36*
X13361243Y8485400D02*
X13338757D01*
X13317036Y8479580D01*
X13297563Y8468337D01*
X13281664Y8452437D01*
X13270419Y8432963D01*
X13264600Y8411243D01*
Y8388757D01*
X13270419Y8367037D01*
X13281664Y8347563D01*
X13297563Y8331663D01*
X13317036Y8320420D01*
X13338757Y8314600D01*
X13361243D01*
X13382964Y8320420D01*
X13402437Y8331663D01*
X13418336Y8347563D01*
X13429581Y8367037D01*
X13435400Y8388757D01*
Y8411243D01*
X13429581Y8432963D01*
X13418336Y8452437D01*
X13402437Y8468337D01*
X13382964Y8479580D01*
X13361243Y8485400D01*
D02*
G37*
G36*
X11411243D02*
X11388757D01*
X11367037Y8479580D01*
X11347563Y8468337D01*
X11331663Y8452437D01*
X11320420Y8432963D01*
X11314600Y8411243D01*
Y8388757D01*
X11320420Y8367037D01*
X11331663Y8347563D01*
X11347563Y8331663D01*
X11367037Y8320420D01*
X11388757Y8314600D01*
X11411243D01*
X11432963Y8320420D01*
X11452437Y8331663D01*
X11468337Y8347563D01*
X11479580Y8367037D01*
X11485400Y8388757D01*
Y8411243D01*
X11479580Y8432963D01*
X11468337Y8452437D01*
X11452437Y8468337D01*
X11432963Y8479580D01*
X11411243Y8485400D01*
D02*
G37*
G36*
X9411243D02*
X9388757D01*
X9367037Y8479580D01*
X9347563Y8468337D01*
X9331663Y8452437D01*
X9320420Y8432963D01*
X9314600Y8411243D01*
Y8388757D01*
X9320420Y8367037D01*
X9331663Y8347563D01*
X9347563Y8331663D01*
X9367037Y8320420D01*
X9388757Y8314600D01*
X9411243D01*
X9432963Y8320420D01*
X9452437Y8331663D01*
X9468337Y8347563D01*
X9479580Y8367037D01*
X9485400Y8388757D01*
Y8411243D01*
X9479580Y8432963D01*
X9468337Y8452437D01*
X9452437Y8468337D01*
X9432963Y8479580D01*
X9411243Y8485400D01*
D02*
G37*
G36*
X7461243D02*
X7438757D01*
X7417037Y8479580D01*
X7397563Y8468337D01*
X7381663Y8452437D01*
X7370420Y8432963D01*
X7364600Y8411243D01*
Y8388757D01*
X7370420Y8367037D01*
X7381663Y8347563D01*
X7397563Y8331663D01*
X7417037Y8320420D01*
X7438757Y8314600D01*
X7461243D01*
X7482963Y8320420D01*
X7502437Y8331663D01*
X7518337Y8347563D01*
X7529580Y8367037D01*
X7535400Y8388757D01*
Y8411243D01*
X7529580Y8432963D01*
X7518337Y8452437D01*
X7502437Y8468337D01*
X7482963Y8479580D01*
X7461243Y8485400D01*
D02*
G37*
G36*
X5611243D02*
X5588757D01*
X5567037Y8479580D01*
X5547563Y8468337D01*
X5531663Y8452437D01*
X5520420Y8432963D01*
X5514600Y8411243D01*
Y8388757D01*
X5520420Y8367037D01*
X5531663Y8347563D01*
X5547563Y8331663D01*
X5567037Y8320420D01*
X5588757Y8314600D01*
X5611243D01*
X5632963Y8320420D01*
X5652437Y8331663D01*
X5668337Y8347563D01*
X5679580Y8367037D01*
X5685400Y8388757D01*
Y8411243D01*
X5679580Y8432963D01*
X5668337Y8452437D01*
X5652437Y8468337D01*
X5632963Y8479580D01*
X5611243Y8485400D01*
D02*
G37*
G36*
X12960915Y7782900D02*
X12939085D01*
X12918002Y7777251D01*
X12899098Y7766337D01*
X12883664Y7750902D01*
X12872749Y7731998D01*
X12867101Y7710914D01*
Y7689086D01*
X12872749Y7668002D01*
X12883664Y7649098D01*
X12899098Y7633664D01*
X12918002Y7622750D01*
X12939085Y7617100D01*
X12960915D01*
X12981998Y7622750D01*
X13000902Y7633664D01*
X13016336Y7649098D01*
X13027251Y7668002D01*
X13032899Y7689086D01*
Y7710914D01*
X13027251Y7731998D01*
X13016336Y7750902D01*
X13000902Y7766337D01*
X12981998Y7777251D01*
X12960915Y7782900D01*
D02*
G37*
G36*
X11060914D02*
X11039086D01*
X11018002Y7777251D01*
X10999098Y7766337D01*
X10983664Y7750902D01*
X10972749Y7731998D01*
X10967100Y7710914D01*
Y7689086D01*
X10972749Y7668002D01*
X10983664Y7649098D01*
X10999098Y7633664D01*
X11018002Y7622750D01*
X11039086Y7617100D01*
X11060914D01*
X11081998Y7622750D01*
X11100902Y7633664D01*
X11116336Y7649098D01*
X11127251Y7668002D01*
X11132900Y7689086D01*
Y7710914D01*
X11127251Y7731998D01*
X11116336Y7750902D01*
X11100902Y7766337D01*
X11081998Y7777251D01*
X11060914Y7782900D01*
D02*
G37*
G36*
X13435400Y7785400D02*
X13264600D01*
Y7614600D01*
X13435400D01*
Y7785400D01*
D02*
G37*
G36*
X11485400D02*
X11314600D01*
Y7614600D01*
X11485400D01*
Y7785400D01*
D02*
G37*
G36*
X9485400D02*
X9314600D01*
Y7614600D01*
X9485400D01*
Y7785400D01*
D02*
G37*
G36*
X7535400D02*
X7364600D01*
Y7614600D01*
X7535400D01*
Y7785400D01*
D02*
G37*
G36*
X5685400D02*
X5514600D01*
Y7614600D01*
X5685400D01*
Y7785400D01*
D02*
G37*
G36*
X9110914Y7765900D02*
X9089086D01*
X9068002Y7760250D01*
X9049098Y7749336D01*
X9033663Y7733902D01*
X9022749Y7714998D01*
X9017100Y7693914D01*
Y7672086D01*
X9022749Y7651002D01*
X9033663Y7632098D01*
X9049098Y7616663D01*
X9068002Y7605749D01*
X9089086Y7600100D01*
X9110914D01*
X9131998Y7605749D01*
X9150902Y7616663D01*
X9166336Y7632098D01*
X9177250Y7651002D01*
X9182900Y7672086D01*
Y7693914D01*
X9177250Y7714998D01*
X9166336Y7733902D01*
X9150902Y7749336D01*
X9131998Y7760250D01*
X9110914Y7765900D01*
D02*
G37*
G36*
X7110914Y7749400D02*
X7089086D01*
X7068002Y7743751D01*
X7049098Y7732836D01*
X7033664Y7717402D01*
X7022749Y7698498D01*
X7017100Y7677414D01*
Y7655586D01*
X7022749Y7634502D01*
X7033664Y7615598D01*
X7049098Y7600164D01*
X7068002Y7589249D01*
X7089086Y7583600D01*
X7110914D01*
X7131998Y7589249D01*
X7150902Y7600164D01*
X7166336Y7615598D01*
X7177251Y7634502D01*
X7182900Y7655586D01*
Y7677414D01*
X7177251Y7698498D01*
X7166336Y7717402D01*
X7150902Y7732836D01*
X7131998Y7743751D01*
X7110914Y7749400D01*
D02*
G37*
G36*
X5310914D02*
X5289086D01*
X5268002Y7743751D01*
X5249098Y7732836D01*
X5233664Y7717402D01*
X5222750Y7698498D01*
X5217100Y7677414D01*
Y7655586D01*
X5222750Y7634502D01*
X5233664Y7615598D01*
X5249098Y7600164D01*
X5268002Y7589249D01*
X5289086Y7583600D01*
X5310914D01*
X5331998Y7589249D01*
X5350902Y7600164D01*
X5366336Y7615598D01*
X5377251Y7634502D01*
X5382900Y7655586D01*
Y7677414D01*
X5377251Y7698498D01*
X5366336Y7717402D01*
X5350902Y7732836D01*
X5331998Y7743751D01*
X5310914Y7749400D01*
D02*
G37*
G36*
X11427414Y7432900D02*
X11405586D01*
X11384502Y7427251D01*
X11365598Y7416336D01*
X11350163Y7400902D01*
X11339249Y7381998D01*
X11333600Y7360914D01*
Y7339086D01*
X11339249Y7318002D01*
X11350163Y7299098D01*
X11365598Y7283664D01*
X11369403Y7281467D01*
Y6777626D01*
X11368002Y6777251D01*
X11349098Y6766336D01*
X11333664Y6750902D01*
X11322750Y6731998D01*
X11317100Y6710914D01*
Y6689086D01*
X11322750Y6668002D01*
X11333664Y6649098D01*
X11349098Y6633664D01*
X11368002Y6622750D01*
X11389086Y6617100D01*
X11410914D01*
X11431998Y6622750D01*
X11450902Y6633664D01*
X11454400Y6637162D01*
X11467100Y6631901D01*
Y6617100D01*
X11632900D01*
Y6782900D01*
X11467100D01*
Y6772031D01*
X11455071Y6766479D01*
X11447096Y6772128D01*
Y7272374D01*
X11448498Y7272749D01*
X11467402Y7283664D01*
X11482836Y7299098D01*
X11493750Y7318002D01*
X11499400Y7339086D01*
Y7360914D01*
X11493750Y7381998D01*
X11482836Y7400902D01*
X11467402Y7416336D01*
X11448498Y7427251D01*
X11427414Y7432900D01*
D02*
G37*
G36*
X7493914D02*
X7472086D01*
X7451002Y7427251D01*
X7432098Y7416336D01*
X7416663Y7400902D01*
X7405749Y7381998D01*
X7400100Y7360914D01*
Y7339086D01*
X7405749Y7318002D01*
X7416663Y7299098D01*
X7432098Y7283664D01*
X7444153Y7276704D01*
Y6773297D01*
X7432098Y6766336D01*
X7416663Y6750902D01*
X7405749Y6731998D01*
X7400100Y6710914D01*
Y6689086D01*
X7405749Y6668002D01*
X7416663Y6649098D01*
X7432098Y6633664D01*
X7451002Y6622750D01*
X7472086Y6617100D01*
X7493914D01*
X7514998Y6622750D01*
X7533902Y6633664D01*
X7537400Y6637162D01*
X7550100Y6631901D01*
Y6617100D01*
X7715900D01*
Y6782900D01*
X7550100D01*
Y6768099D01*
X7537400Y6762838D01*
X7533902Y6766336D01*
X7521846Y6773297D01*
Y7276704D01*
X7533902Y7283664D01*
X7549336Y7299098D01*
X7560250Y7318002D01*
X7565900Y7339086D01*
Y7360914D01*
X7560250Y7381998D01*
X7549336Y7400902D01*
X7533902Y7416336D01*
X7514998Y7427251D01*
X7493914Y7432900D01*
D02*
G37*
G36*
X14012700Y6488633D02*
Y6412700D01*
X14088634D01*
X14082841Y6434314D01*
X14071138Y6454586D01*
X14054585Y6471138D01*
X14034314Y6482841D01*
X14012700Y6488633D01*
D02*
G37*
G36*
X13987300D02*
X13965686Y6482841D01*
X13945415Y6471138D01*
X13928862Y6454586D01*
X13917159Y6434314D01*
X13911366Y6412700D01*
X13987300D01*
Y6488633D01*
D02*
G37*
G36*
X14088634Y6387300D02*
X14012700D01*
Y6311367D01*
X14034314Y6317158D01*
X14054585Y6328862D01*
X14071138Y6345414D01*
X14082841Y6365686D01*
X14088634Y6387300D01*
D02*
G37*
G36*
X13987300D02*
X13911366D01*
X13915804Y6370741D01*
X13333910Y5788846D01*
X12930225D01*
X12921138Y5804586D01*
X12904585Y5821138D01*
X12884314Y5832842D01*
X12862700Y5838633D01*
Y5750000D01*
Y5661367D01*
X12884314Y5667158D01*
X12904585Y5678862D01*
X12921138Y5695414D01*
X12930225Y5711153D01*
X13350000D01*
X13364867Y5714110D01*
X13377469Y5722531D01*
X13970741Y6315804D01*
X13987300Y6311367D01*
Y6387300D01*
D02*
G37*
G36*
X12837300Y5838633D02*
X12815686Y5832842D01*
X12795414Y5821138D01*
X12778862Y5804586D01*
X12767158Y5784314D01*
X12761367Y5762700D01*
X12837300D01*
Y5838633D01*
D02*
G37*
G36*
X14058218Y5750400D02*
X14057700D01*
Y5662700D01*
X14145399D01*
Y5663218D01*
X14138557Y5688753D01*
X14125340Y5711647D01*
X14106647Y5730340D01*
X14083752Y5743558D01*
X14058218Y5750400D01*
D02*
G37*
G36*
X14032300D02*
X14031783D01*
X14006247Y5743558D01*
X13983353Y5730340D01*
X13964661Y5711647D01*
X13951442Y5688753D01*
X13944600Y5663218D01*
Y5662700D01*
X14032300D01*
Y5750400D01*
D02*
G37*
G36*
X12837300Y5737300D02*
X12761367D01*
X12767158Y5715686D01*
X12778862Y5695414D01*
X12795414Y5678862D01*
X12815686Y5667158D01*
X12837300Y5661367D01*
Y5737300D01*
D02*
G37*
G36*
X14145399Y5637300D02*
X14045000D01*
X13944600D01*
Y5636782D01*
X13951442Y5611247D01*
X13964661Y5588353D01*
X13983353Y5569660D01*
X13994716Y5563100D01*
X13991313Y5550400D01*
X13944600D01*
Y5488847D01*
X12432900D01*
Y5532900D01*
X12267100D01*
Y5518099D01*
X12254400Y5512838D01*
X12250902Y5516336D01*
X12231998Y5527251D01*
X12210914Y5532900D01*
X12189086D01*
X12168002Y5527251D01*
X12149098Y5516336D01*
X12133663Y5500902D01*
X12126703Y5488847D01*
X10956797D01*
X10949837Y5500902D01*
X10934402Y5516336D01*
X10915498Y5527251D01*
X10894414Y5532900D01*
X10872586D01*
X10851502Y5527251D01*
X10832598Y5516336D01*
X10817164Y5500902D01*
X10806250Y5481998D01*
X10800600Y5460914D01*
Y5439086D01*
X10804203Y5425640D01*
X10545531Y5166968D01*
X10537110Y5154366D01*
X10534153Y5139500D01*
Y4877004D01*
X10511353Y4863840D01*
X10492660Y4845147D01*
X10479442Y4822253D01*
X10472600Y4796718D01*
Y4770282D01*
X10479442Y4744747D01*
X10492660Y4721853D01*
X10511353Y4703160D01*
X10534247Y4689942D01*
X10559782Y4683100D01*
X10586218D01*
X10611753Y4689942D01*
X10634647Y4703160D01*
X10653340Y4721853D01*
X10666558Y4744747D01*
X10673400Y4770282D01*
Y4796718D01*
X10666558Y4822253D01*
X10653340Y4845147D01*
X10634647Y4863840D01*
X10611846Y4877004D01*
Y5123409D01*
X10859140Y5370703D01*
X10872586Y5367100D01*
X10894414D01*
X10915498Y5372749D01*
X10934402Y5383664D01*
X10949837Y5399098D01*
X10956797Y5411154D01*
X12126703D01*
X12133663Y5399098D01*
X12149098Y5383664D01*
X12168002Y5372749D01*
X12189086Y5367100D01*
X12210914D01*
X12231998Y5372749D01*
X12250902Y5383664D01*
X12254400Y5387162D01*
X12267100Y5381901D01*
Y5367100D01*
X12432900D01*
Y5411154D01*
X13944600D01*
Y5349600D01*
X14145399D01*
Y5550400D01*
X14098688D01*
X14095284Y5563100D01*
X14106647Y5569660D01*
X14125340Y5588353D01*
X14138557Y5611247D01*
X14145399Y5636782D01*
Y5637300D01*
D02*
G37*
G36*
X10199400Y5532900D02*
X10129200D01*
Y5462700D01*
X10199400D01*
Y5532900D01*
D02*
G37*
G36*
X10103800D02*
X10033600D01*
Y5462700D01*
X10103800D01*
Y5532900D01*
D02*
G37*
G36*
Y5437300D02*
X10033600D01*
Y5367100D01*
X10103800D01*
Y5437300D01*
D02*
G37*
G36*
X9061704Y4938900D02*
X9038296D01*
X9015686Y4932842D01*
X8995414Y4921138D01*
X8978862Y4904586D01*
X8969775Y4888846D01*
X8849400D01*
Y4932900D01*
X8683600D01*
Y4888846D01*
X8506797D01*
X8499836Y4900902D01*
X8484402Y4916336D01*
X8465498Y4927250D01*
X8444414Y4932900D01*
X8422586D01*
X8401502Y4927250D01*
X8382598Y4916336D01*
X8367164Y4900902D01*
X8356249Y4881998D01*
X8350600Y4860914D01*
Y4839086D01*
X8356249Y4818002D01*
X8367164Y4799098D01*
X8382598Y4783664D01*
X8401502Y4772749D01*
X8422586Y4767100D01*
X8444414D01*
X8465498Y4772749D01*
X8484402Y4783664D01*
X8499836Y4799098D01*
X8506797Y4811153D01*
X8683600D01*
Y4767100D01*
X8849400D01*
Y4811153D01*
X8969775D01*
X8978862Y4795414D01*
X8995414Y4778862D01*
X9015686Y4767158D01*
X9038296Y4761100D01*
X9061704D01*
X9084314Y4767158D01*
X9104586Y4778862D01*
X9121138Y4795414D01*
X9132842Y4815686D01*
X9138900Y4838296D01*
Y4861704D01*
X9132842Y4884314D01*
X9121138Y4904586D01*
X9104586Y4921138D01*
X9084314Y4932842D01*
X9061704Y4938900D01*
D02*
G37*
G36*
X12932899Y4916400D02*
X12862700D01*
Y4846200D01*
X12932899D01*
Y4916400D01*
D02*
G37*
G36*
X10199400Y5437300D02*
X10129200D01*
Y5367100D01*
X10144463D01*
X10280153Y5231409D01*
Y4877004D01*
X10257353Y4863840D01*
X10238660Y4845147D01*
X10225442Y4822253D01*
X10218600Y4796718D01*
Y4796200D01*
X10319000D01*
X10419400D01*
Y4796718D01*
X10412558Y4822253D01*
X10399340Y4845147D01*
X10380647Y4863840D01*
X10357846Y4877004D01*
Y5247500D01*
X10354889Y5262366D01*
X10346469Y5274969D01*
X10199400Y5422037D01*
Y5437300D01*
D02*
G37*
G36*
X9544414Y4932900D02*
X9522586D01*
X9501502Y4927250D01*
X9482598Y4916336D01*
X9467164Y4900902D01*
X9456250Y4881998D01*
X9450600Y4860914D01*
Y4839086D01*
X9456250Y4818002D01*
X9467164Y4799098D01*
X9482598Y4783664D01*
X9501502Y4772749D01*
X9522586Y4767100D01*
X9544414D01*
X9565498Y4772749D01*
X9584402Y4783664D01*
X9599837Y4799098D01*
X9610751Y4818002D01*
X9616400Y4839086D01*
Y4860914D01*
X9610751Y4881998D01*
X9599837Y4900902D01*
X9584402Y4916336D01*
X9565498Y4927250D01*
X9544414Y4932900D01*
D02*
G37*
G36*
X7749400D02*
X7583600D01*
Y4888846D01*
X7550000D01*
X7535134Y4885889D01*
X7522531Y4877469D01*
X7047531Y4402469D01*
X7039111Y4389866D01*
X7036154Y4375000D01*
Y4040230D01*
X7016423Y4028839D01*
X6998661Y4011077D01*
X6986102Y3989323D01*
X6979600Y3965060D01*
Y3939941D01*
X6986102Y3915677D01*
X6998661Y3893923D01*
X7016423Y3876161D01*
X7038177Y3863602D01*
X7062441Y3857100D01*
X7087560D01*
X7111823Y3863602D01*
X7133577Y3876161D01*
X7151339Y3893923D01*
X7163899Y3915677D01*
X7170400Y3939941D01*
Y3965060D01*
X7163899Y3989323D01*
X7151339Y4011077D01*
X7133577Y4028839D01*
X7113847Y4040230D01*
Y4358909D01*
X7566091Y4811153D01*
X7583600D01*
Y4767100D01*
X7749400D01*
Y4932900D01*
D02*
G37*
G36*
X13432899Y4916400D02*
X13267101D01*
Y4750600D01*
X13432899D01*
Y4916400D01*
D02*
G37*
G36*
X12932899Y4820800D02*
X12862700D01*
Y4750600D01*
X12932899D01*
Y4820800D01*
D02*
G37*
G36*
X12837300Y4916400D02*
X12767100D01*
Y4872346D01*
X12758500D01*
X12743634Y4869389D01*
X12731031Y4860968D01*
X12427963Y4557900D01*
X12412700D01*
Y4487699D01*
X12482900D01*
Y4502963D01*
X12755367Y4775429D01*
X12767100Y4770569D01*
Y4750600D01*
X12837300D01*
Y4833500D01*
Y4916400D01*
D02*
G37*
G36*
X11982900D02*
X11817100D01*
Y4750600D01*
X11982900D01*
Y4916400D01*
D02*
G37*
G36*
X11561704Y5238900D02*
X11538296D01*
X11515686Y5232842D01*
X11495414Y5221138D01*
X11478862Y5204586D01*
X11467158Y5184314D01*
X11461100Y5161704D01*
Y5138296D01*
X11467158Y5115686D01*
X11478862Y5095414D01*
X11495414Y5078862D01*
X11511154Y5069775D01*
Y4916400D01*
X11467100D01*
Y4750600D01*
X11632900D01*
Y4916400D01*
X11588847D01*
Y5069775D01*
X11604586Y5078862D01*
X11621138Y5095414D01*
X11632842Y5115686D01*
X11638900Y5138296D01*
Y5161704D01*
X11632842Y5184314D01*
X11621138Y5204586D01*
X11604586Y5221138D01*
X11584314Y5232842D01*
X11561704Y5238900D01*
D02*
G37*
G36*
X14058218Y4800400D02*
X14057700D01*
Y4712700D01*
X14145399D01*
Y4713218D01*
X14138557Y4738753D01*
X14125340Y4761647D01*
X14106647Y4780340D01*
X14083752Y4793558D01*
X14058218Y4800400D01*
D02*
G37*
G36*
X14032300D02*
X14031783D01*
X14006247Y4793558D01*
X13983353Y4780340D01*
X13964661Y4761647D01*
X13951442Y4738753D01*
X13944600Y4713218D01*
Y4712700D01*
X14032300D01*
Y4800400D01*
D02*
G37*
G36*
X9982900Y4866400D02*
X9817100D01*
Y4700600D01*
X9982900D01*
Y4866400D01*
D02*
G37*
G36*
X11181400Y4883900D02*
X10980600D01*
Y4683100D01*
X11181400D01*
Y4883900D01*
D02*
G37*
G36*
X10840218D02*
X10813782D01*
X10788247Y4877058D01*
X10765353Y4863840D01*
X10746660Y4845147D01*
X10733442Y4822253D01*
X10726600Y4796718D01*
Y4770282D01*
X10733442Y4744747D01*
X10746660Y4721853D01*
X10765353Y4703160D01*
X10788247Y4689942D01*
X10813782Y4683100D01*
X10840218D01*
X10865753Y4689942D01*
X10888647Y4703160D01*
X10907340Y4721853D01*
X10920558Y4744747D01*
X10927400Y4770282D01*
Y4796718D01*
X10920558Y4822253D01*
X10907340Y4845147D01*
X10888647Y4863840D01*
X10865753Y4877058D01*
X10840218Y4883900D01*
D02*
G37*
G36*
X13611703Y5338900D02*
X13588297D01*
X13565686Y5332842D01*
X13545415Y5321138D01*
X13528862Y5304586D01*
X13517159Y5284314D01*
X13511099Y5261704D01*
Y5238296D01*
X13517159Y5215686D01*
X13528862Y5195414D01*
X13545415Y5178862D01*
X13561153Y5169775D01*
Y4630225D01*
X13545415Y4621138D01*
X13528862Y4604586D01*
X13517159Y4584314D01*
X13511099Y4561704D01*
Y4538296D01*
X13517159Y4515686D01*
X13528862Y4495414D01*
X13545415Y4478862D01*
X13565686Y4467158D01*
X13588297Y4461100D01*
X13611703D01*
X13634314Y4467158D01*
X13654585Y4478862D01*
X13671138Y4495414D01*
X13682841Y4515686D01*
X13688901Y4538296D01*
Y4561704D01*
X13682841Y4584314D01*
X13671138Y4604586D01*
X13654585Y4621138D01*
X13638846Y4630225D01*
Y5169775D01*
X13654585Y5178862D01*
X13671138Y5195414D01*
X13682841Y5215686D01*
X13688901Y5238296D01*
Y5261704D01*
X13682841Y5284314D01*
X13671138Y5304586D01*
X13654585Y5321138D01*
X13634314Y5332842D01*
X13611703Y5338900D01*
D02*
G37*
G36*
X9313050Y4300994D02*
X9267950D01*
X9256108Y4298639D01*
X9246069Y4291931D01*
X9239361Y4281892D01*
X9237006Y4270050D01*
Y4154950D01*
X9239361Y4143108D01*
X9246069Y4133069D01*
X9256108Y4126361D01*
X9267950Y4124005D01*
X9313050D01*
X9324892Y4126361D01*
X9334931Y4133069D01*
X9341639Y4143108D01*
X9343995Y4154950D01*
Y4270050D01*
X9341639Y4281892D01*
X9334931Y4291931D01*
X9324892Y4298639D01*
X9313050Y4300994D01*
D02*
G37*
G36*
X9186050D02*
X9140950D01*
X9129108Y4298639D01*
X9119069Y4291931D01*
X9112361Y4281892D01*
X9110006Y4270050D01*
Y4154950D01*
X9112361Y4143108D01*
X9119069Y4133069D01*
X9129108Y4126361D01*
X9140950Y4124005D01*
X9186050D01*
X9197892Y4126361D01*
X9207931Y4133069D01*
X9214639Y4143108D01*
X9216995Y4154950D01*
Y4270050D01*
X9214639Y4281892D01*
X9207931Y4291931D01*
X9197892Y4298639D01*
X9186050Y4300994D01*
D02*
G37*
G36*
X9059050D02*
X9013950D01*
X9002108Y4298639D01*
X8992069Y4291931D01*
X8985361Y4281892D01*
X8983006Y4270050D01*
Y4154950D01*
X8985361Y4143108D01*
X8992069Y4133069D01*
X9002108Y4126361D01*
X9013950Y4124005D01*
X9059050D01*
X9070892Y4126361D01*
X9080931Y4133069D01*
X9087639Y4143108D01*
X9089995Y4154950D01*
Y4270050D01*
X9087639Y4281892D01*
X9080931Y4291931D01*
X9070892Y4298639D01*
X9059050Y4300994D01*
D02*
G37*
G36*
X8932050D02*
X8886950D01*
X8875108Y4298639D01*
X8865069Y4291931D01*
X8858361Y4281892D01*
X8856006Y4270050D01*
Y4251346D01*
X8085000D01*
X8070134Y4248389D01*
X8057531Y4239968D01*
X7859566Y4042003D01*
X7837560Y4047900D01*
X7812441D01*
X7788177Y4041399D01*
X7766423Y4028839D01*
X7748661Y4011077D01*
X7736102Y3989323D01*
X7729600Y3965060D01*
Y3939941D01*
X7736102Y3915677D01*
X7748661Y3893923D01*
X7766423Y3876161D01*
X7788177Y3863602D01*
X7812441Y3857100D01*
X7837560D01*
X7861823Y3863602D01*
X7883577Y3876161D01*
X7901339Y3893923D01*
X7913899Y3915677D01*
X7920400Y3939941D01*
Y3965060D01*
X7914503Y3987066D01*
X8101090Y4173653D01*
X8856006D01*
Y4154950D01*
X8858361Y4143108D01*
X8865069Y4133069D01*
X8875108Y4126361D01*
X8886950Y4124005D01*
X8932050D01*
X8943892Y4126361D01*
X8953931Y4133069D01*
X8960639Y4143108D01*
X8962995Y4154950D01*
Y4270050D01*
X8960639Y4281892D01*
X8953931Y4291931D01*
X8943892Y4298639D01*
X8932050Y4300994D01*
D02*
G37*
G36*
X10419400Y4770800D02*
X10319000D01*
X10218600D01*
Y4770282D01*
X10225442Y4744747D01*
X10237290Y4724227D01*
X9550580Y4037517D01*
X9538847Y4042377D01*
Y4500000D01*
X9535889Y4514866D01*
X9527469Y4527468D01*
X9477469Y4577468D01*
X9464866Y4585889D01*
X9450000Y4588846D01*
X7900000D01*
X7885134Y4585889D01*
X7872531Y4577468D01*
X7547532Y4252469D01*
X7539111Y4239866D01*
X7536154Y4225000D01*
Y4040230D01*
X7516423Y4028839D01*
X7498661Y4011077D01*
X7486102Y3989323D01*
X7479638Y3965200D01*
X7575001D01*
Y3952500D01*
D01*
Y3965200D01*
X7670362D01*
X7663899Y3989323D01*
X7651339Y4011077D01*
X7633577Y4028839D01*
X7613847Y4040230D01*
Y4208909D01*
X7916091Y4511153D01*
X9433910D01*
X9461154Y4483909D01*
Y3948090D01*
X9289058Y3775994D01*
X9267950D01*
X9256108Y3773639D01*
X9246069Y3766931D01*
X9239361Y3756892D01*
X9237006Y3745050D01*
Y3700200D01*
X9290500D01*
X9343995D01*
Y3721057D01*
X9527469Y3904531D01*
X10268420Y4645483D01*
X10280153Y4640622D01*
Y4531000D01*
X10283110Y4516134D01*
X10291531Y4503532D01*
X10362011Y4433052D01*
X10374613Y4424631D01*
X10389479Y4421674D01*
X11365100D01*
X11379966Y4424631D01*
X11392569Y4433052D01*
X11395669Y4436153D01*
X12317100D01*
Y4392100D01*
X12331901D01*
X12337162Y4379400D01*
X12333663Y4375901D01*
X12322749Y4356998D01*
X12317100Y4335913D01*
Y4314086D01*
X12320703Y4300639D01*
X12125409Y4105346D01*
X11973296D01*
X11966336Y4117401D01*
X11950902Y4132836D01*
X11931998Y4143750D01*
X11910914Y4149399D01*
X11889086D01*
X11868002Y4143750D01*
X11849098Y4132836D01*
X11833663Y4117401D01*
X11822749Y4098498D01*
X11817100Y4077413D01*
Y4055585D01*
X11822749Y4034501D01*
X11825244Y4030181D01*
X11283909Y3488846D01*
X9202347D01*
Y3604337D01*
X9207931Y3608069D01*
X9214639Y3618108D01*
X9216995Y3629950D01*
Y3745050D01*
X9214639Y3756892D01*
X9207931Y3766931D01*
X9197892Y3773639D01*
X9186050Y3775994D01*
X9140950D01*
X9129108Y3773639D01*
X9119069Y3766931D01*
X9112361Y3756892D01*
X9110006Y3745050D01*
Y3629950D01*
X9112361Y3618108D01*
X9119069Y3608069D01*
X9124654Y3604337D01*
Y3464879D01*
X9127611Y3450013D01*
X9136032Y3437410D01*
X9150911Y3422531D01*
X9163513Y3414111D01*
X9178379Y3411153D01*
X11300000D01*
X11314866Y3414111D01*
X11327469Y3422531D01*
X11888653Y3983715D01*
X11889086Y3983599D01*
X11910914D01*
X11931998Y3989249D01*
X11950902Y4000163D01*
X11966336Y4015598D01*
X11973296Y4027653D01*
X12141500D01*
X12156366Y4030610D01*
X12168968Y4039031D01*
X12375640Y4245702D01*
X12389086Y4242099D01*
X12410914D01*
X12431998Y4247749D01*
X12450902Y4258663D01*
X12466336Y4274098D01*
X12473296Y4286153D01*
X12575409D01*
X12770703Y4090859D01*
X12767100Y4077413D01*
Y4055585D01*
X12772749Y4034501D01*
X12783664Y4015598D01*
X12799098Y4000163D01*
X12818002Y3989249D01*
X12839085Y3983599D01*
X12860915D01*
X12881998Y3989249D01*
X12900902Y4000163D01*
X12916336Y4015598D01*
X12927251Y4034501D01*
X12932899Y4055585D01*
Y4077413D01*
X12927251Y4098498D01*
X12916336Y4117401D01*
X12900902Y4132836D01*
X12881998Y4143750D01*
X12860915Y4149399D01*
X12839085D01*
X12825639Y4145797D01*
X12618968Y4352468D01*
X12606366Y4360889D01*
X12591500Y4363846D01*
X12473296D01*
X12466336Y4375901D01*
X12462838Y4379400D01*
X12468099Y4392100D01*
X12482900D01*
Y4462299D01*
X12400000D01*
Y4474999D01*
X12387300D01*
Y4557900D01*
X12317100D01*
Y4513846D01*
X11379579D01*
X11364713Y4510889D01*
X11352110Y4502468D01*
X11349009Y4499367D01*
X10405570D01*
X10357846Y4547091D01*
Y4689996D01*
X10380647Y4703160D01*
X10399340Y4721853D01*
X10412558Y4744747D01*
X10419400Y4770282D01*
Y4770800D01*
D02*
G37*
G36*
X11560914Y4149399D02*
X11539086D01*
X11518002Y4143750D01*
X11499098Y4132836D01*
X11483664Y4117401D01*
X11472749Y4098498D01*
X11467100Y4077413D01*
Y4055585D01*
X11472749Y4034501D01*
X11483664Y4015598D01*
X11499098Y4000163D01*
X11518002Y3989249D01*
X11539086Y3983599D01*
X11560914D01*
X11581998Y3989249D01*
X11600902Y4000163D01*
X11616336Y4015598D01*
X11627251Y4034501D01*
X11632900Y4055585D01*
Y4077413D01*
X11627251Y4098498D01*
X11616336Y4117401D01*
X11600902Y4132836D01*
X11581998Y4143750D01*
X11560914Y4149399D01*
D02*
G37*
G36*
X14058218Y4050400D02*
X14057700D01*
Y3962700D01*
X14145399D01*
Y3963218D01*
X14138557Y3988753D01*
X14125340Y4011647D01*
X14106647Y4030340D01*
X14083752Y4043558D01*
X14058218Y4050400D01*
D02*
G37*
G36*
X14032300D02*
X14031783D01*
X14006247Y4043558D01*
X13983353Y4030340D01*
X13964661Y4011647D01*
X13951442Y3988753D01*
X13944600Y3963218D01*
Y3962700D01*
X14032300D01*
Y4050400D01*
D02*
G37*
G36*
X9910914Y4099400D02*
X9889086D01*
X9868002Y4093751D01*
X9849098Y4082836D01*
X9833664Y4067402D01*
X9822749Y4048498D01*
X9817100Y4027414D01*
Y4005586D01*
X9822749Y3984502D01*
X9833664Y3965598D01*
X9849098Y3950164D01*
X9868002Y3939249D01*
X9889086Y3933600D01*
X9910914D01*
X9931998Y3939249D01*
X9950902Y3950164D01*
X9966336Y3965598D01*
X9977251Y3984502D01*
X9982900Y4005586D01*
Y4027414D01*
X9977251Y4048498D01*
X9966336Y4067402D01*
X9950902Y4082836D01*
X9931998Y4093751D01*
X9910914Y4099400D01*
D02*
G37*
G36*
X11094218Y4121900D02*
X11067782D01*
X11042247Y4115058D01*
X11019353Y4101840D01*
X11000660Y4083147D01*
X10987442Y4060253D01*
X10980600Y4034718D01*
Y4008282D01*
X10987442Y3982747D01*
X11000660Y3959853D01*
X11019353Y3941160D01*
X11042247Y3927942D01*
X11067782Y3921100D01*
X11094218D01*
X11119753Y3927942D01*
X11142647Y3941160D01*
X11161340Y3959853D01*
X11174558Y3982747D01*
X11181400Y4008282D01*
Y4034718D01*
X11174558Y4060253D01*
X11161340Y4083147D01*
X11142647Y4101840D01*
X11119753Y4115058D01*
X11094218Y4121900D01*
D02*
G37*
G36*
X10840218D02*
X10813782D01*
X10788247Y4115058D01*
X10765353Y4101840D01*
X10746660Y4083147D01*
X10733442Y4060253D01*
X10726600Y4034718D01*
Y4008282D01*
X10733442Y3982747D01*
X10746660Y3959853D01*
X10765353Y3941160D01*
X10788247Y3927942D01*
X10813782Y3921100D01*
X10840218D01*
X10865753Y3927942D01*
X10888647Y3941160D01*
X10907340Y3959853D01*
X10920558Y3982747D01*
X10927400Y4008282D01*
Y4034718D01*
X10920558Y4060253D01*
X10907340Y4083147D01*
X10888647Y4101840D01*
X10865753Y4115058D01*
X10840218Y4121900D01*
D02*
G37*
G36*
X10586218D02*
X10559782D01*
X10534247Y4115058D01*
X10511353Y4101840D01*
X10492660Y4083147D01*
X10479442Y4060253D01*
X10472600Y4034718D01*
Y4008282D01*
X10479442Y3982747D01*
X10492660Y3959853D01*
X10511353Y3941160D01*
X10534247Y3927942D01*
X10559782Y3921100D01*
X10586218D01*
X10611753Y3927942D01*
X10634647Y3941160D01*
X10653340Y3959853D01*
X10666558Y3982747D01*
X10673400Y4008282D01*
Y4034718D01*
X10666558Y4060253D01*
X10653340Y4083147D01*
X10634647Y4101840D01*
X10611753Y4115058D01*
X10586218Y4121900D01*
D02*
G37*
G36*
X10332218D02*
X10305782D01*
X10280247Y4115058D01*
X10257353Y4101840D01*
X10238660Y4083147D01*
X10225442Y4060253D01*
X10218600Y4034718D01*
Y4008282D01*
X10225442Y3982747D01*
X10238660Y3959853D01*
X10257353Y3941160D01*
X10280247Y3927942D01*
X10305782Y3921100D01*
X10332218D01*
X10357753Y3927942D01*
X10380647Y3941160D01*
X10399340Y3959853D01*
X10412558Y3982747D01*
X10419400Y4008282D01*
Y4034718D01*
X10412558Y4060253D01*
X10399340Y4083147D01*
X10380647Y4101840D01*
X10357753Y4115058D01*
X10332218Y4121900D01*
D02*
G37*
G36*
X7670362Y3939800D02*
X7587701D01*
Y3857138D01*
X7611823Y3863602D01*
X7633577Y3876161D01*
X7651339Y3893923D01*
X7663899Y3915677D01*
X7670362Y3939800D01*
D02*
G37*
G36*
X7562301D02*
X7479638D01*
X7486102Y3915677D01*
X7498661Y3893923D01*
X7516423Y3876161D01*
X7538177Y3863602D01*
X7562301Y3857138D01*
Y3939800D01*
D02*
G37*
G36*
X13477414Y7432900D02*
X13455586D01*
X13434502Y7427251D01*
X13415598Y7416336D01*
X13400163Y7400902D01*
X13389249Y7381998D01*
X13383600Y7360914D01*
Y7339086D01*
X13389249Y7318002D01*
X13400163Y7299098D01*
X13415598Y7283664D01*
X13419403Y7281467D01*
Y6777626D01*
X13418002Y6777251D01*
X13399098Y6766336D01*
X13383662Y6750902D01*
X13372749Y6731998D01*
X13367101Y6710914D01*
Y6689086D01*
X13372749Y6668002D01*
X13383662Y6649098D01*
X13399098Y6633664D01*
X13418002Y6622750D01*
X13439085Y6617100D01*
X13460915D01*
X13481998Y6622750D01*
X13500902Y6633664D01*
X13504401Y6637162D01*
X13517101Y6631901D01*
Y6617100D01*
X13561153D01*
Y6316091D01*
X13283910Y6038846D01*
X9500000D01*
X9485134Y6035889D01*
X9472531Y6027469D01*
X8683909Y5238847D01*
X7300000D01*
X7285134Y5235889D01*
X7272531Y5227469D01*
X6547531Y4502469D01*
X6539111Y4489866D01*
X6536154Y4475000D01*
Y4040230D01*
X6516423Y4028839D01*
X6498661Y4011077D01*
X6486102Y3989323D01*
X6479600Y3965060D01*
Y3939941D01*
X6486102Y3915677D01*
X6498661Y3893923D01*
X6516423Y3876161D01*
X6538177Y3863602D01*
X6562441Y3857100D01*
X6587560D01*
X6611823Y3863602D01*
X6633577Y3876161D01*
X6651339Y3893923D01*
X6663899Y3915677D01*
X6670400Y3939941D01*
Y3965060D01*
X6663899Y3989323D01*
X6651339Y4011077D01*
X6633577Y4028839D01*
X6613847Y4040230D01*
Y4458910D01*
X7316091Y5161154D01*
X8700000D01*
X8714866Y5164111D01*
X8727469Y5172531D01*
X9516091Y5961153D01*
X13300000D01*
X13314867Y5964110D01*
X13327467Y5972531D01*
X13627469Y6272532D01*
X13635889Y6285134D01*
X13638846Y6300000D01*
Y6617100D01*
X13682899D01*
Y6782900D01*
X13517101D01*
Y6772031D01*
X13505070Y6766479D01*
X13497096Y6772128D01*
Y7272374D01*
X13498499Y7272749D01*
X13517403Y7283664D01*
X13532835Y7299098D01*
X13543750Y7318002D01*
X13549400Y7339086D01*
Y7360914D01*
X13543750Y7381998D01*
X13532835Y7400902D01*
X13517403Y7416336D01*
X13498499Y7427251D01*
X13477414Y7432900D01*
D02*
G37*
G36*
X6337560Y4047900D02*
X6312441D01*
X6288177Y4041399D01*
X6266423Y4028839D01*
X6248661Y4011077D01*
X6236102Y3989323D01*
X6229600Y3965060D01*
Y3939941D01*
X6236102Y3915677D01*
X6248661Y3893923D01*
X6266423Y3876161D01*
X6288177Y3863602D01*
X6312441Y3857100D01*
X6337560D01*
X6361823Y3863602D01*
X6383577Y3876161D01*
X6401339Y3893923D01*
X6413899Y3915677D01*
X6420400Y3939941D01*
Y3965060D01*
X6413899Y3989323D01*
X6401339Y4011077D01*
X6383577Y4028839D01*
X6361823Y4041399D01*
X6337560Y4047900D01*
D02*
G37*
G36*
X9427414Y7432900D02*
X9405586D01*
X9384502Y7427251D01*
X9365598Y7416336D01*
X9350163Y7400902D01*
X9339249Y7381998D01*
X9333600Y7360914D01*
Y7339086D01*
X9339249Y7318002D01*
X9350163Y7299098D01*
X9365598Y7283664D01*
X9377653Y7276704D01*
Y6773297D01*
X9365597Y6766336D01*
X9350163Y6750902D01*
X9339249Y6731998D01*
X9333599Y6710914D01*
Y6689086D01*
X9339249Y6668002D01*
X9350163Y6649098D01*
X9365597Y6633664D01*
X9384501Y6622750D01*
X9405585Y6617100D01*
X9410702D01*
X9415962Y6604400D01*
X8800409Y5988847D01*
X7500000D01*
X7485134Y5985889D01*
X7472531Y5977469D01*
X6047531Y4552469D01*
X6039111Y4539866D01*
X6036154Y4525000D01*
Y4040230D01*
X6016423Y4028839D01*
X5998661Y4011077D01*
X5986102Y3989323D01*
X5979600Y3965060D01*
Y3939941D01*
X5986102Y3915677D01*
X5998661Y3893923D01*
X6016423Y3876161D01*
X6038177Y3863602D01*
X6062441Y3857100D01*
X6087560D01*
X6111823Y3863602D01*
X6133577Y3876161D01*
X6151339Y3893923D01*
X6163899Y3915677D01*
X6170400Y3939941D01*
Y3965060D01*
X6163899Y3989323D01*
X6151339Y4011077D01*
X6133577Y4028839D01*
X6113847Y4040230D01*
Y4508909D01*
X7516091Y5911154D01*
X8816499D01*
X8831365Y5914111D01*
X8843968Y5922531D01*
X9538536Y6617100D01*
X9649399D01*
Y6782900D01*
X9483599D01*
Y6768099D01*
X9470899Y6762838D01*
X9467401Y6766336D01*
X9455346Y6773296D01*
Y7276703D01*
X9467402Y7283664D01*
X9482836Y7299098D01*
X9493750Y7318002D01*
X9499400Y7339086D01*
Y7360914D01*
X9493750Y7381998D01*
X9482836Y7400902D01*
X9467402Y7416336D01*
X9448498Y7427251D01*
X9427414Y7432900D01*
D02*
G37*
G36*
X5837560Y4047900D02*
X5812440D01*
X5788177Y4041399D01*
X5766423Y4028839D01*
X5748661Y4011077D01*
X5736102Y3989323D01*
X5729600Y3965060D01*
Y3939941D01*
X5736102Y3915677D01*
X5748661Y3893923D01*
X5766423Y3876161D01*
X5788177Y3863602D01*
X5812440Y3857100D01*
X5837560D01*
X5861823Y3863602D01*
X5883577Y3876161D01*
X5901339Y3893923D01*
X5913899Y3915677D01*
X5920400Y3939941D01*
Y3965060D01*
X5913899Y3989323D01*
X5901339Y4011077D01*
X5883577Y4028839D01*
X5861823Y4041399D01*
X5837560Y4047900D01*
D02*
G37*
G36*
X5627414Y7432900D02*
X5605586D01*
X5584502Y7427251D01*
X5565598Y7416336D01*
X5550163Y7400902D01*
X5539249Y7381998D01*
X5533600Y7360914D01*
Y7339086D01*
X5539249Y7318002D01*
X5550163Y7299098D01*
X5565598Y7283664D01*
X5581903Y7274250D01*
Y6770843D01*
X5574098Y6766336D01*
X5558664Y6750902D01*
X5547749Y6731998D01*
X5542100Y6710914D01*
Y6689086D01*
X5547749Y6668002D01*
X5558664Y6649098D01*
X5574098Y6633664D01*
X5593002Y6622750D01*
X5614086Y6617100D01*
X5635914D01*
X5656998Y6622750D01*
X5675902Y6633664D01*
X5679400Y6637162D01*
X5692100Y6631901D01*
Y6617100D01*
X5736154D01*
Y5991091D01*
X5522532Y5777469D01*
X5514111Y5764866D01*
X5511154Y5750000D01*
Y4047900D01*
X5479600D01*
Y3857100D01*
X5670400D01*
Y4047900D01*
X5588847D01*
Y5733909D01*
X5802469Y5947531D01*
X5810890Y5960134D01*
X5813847Y5975000D01*
Y6617100D01*
X5857900D01*
Y6782900D01*
X5692100D01*
Y6768099D01*
X5679400Y6762838D01*
X5675902Y6766336D01*
X5659597Y6775750D01*
Y7279157D01*
X5667402Y7283664D01*
X5682836Y7299098D01*
X5693750Y7318002D01*
X5699400Y7339086D01*
Y7360914D01*
X5693750Y7381998D01*
X5682836Y7400902D01*
X5667402Y7416336D01*
X5648498Y7427251D01*
X5627414Y7432900D01*
D02*
G37*
G36*
X14145399Y3937300D02*
X14045000D01*
X13944600D01*
Y3936782D01*
X13951442Y3911247D01*
X13964661Y3888353D01*
X13983353Y3869660D01*
X13994716Y3863100D01*
X13991313Y3850400D01*
X13944600D01*
Y3788846D01*
X12050000D01*
X12035134Y3785889D01*
X12022531Y3777468D01*
X11533910Y3288847D01*
X7438900D01*
Y3311704D01*
X7432842Y3334314D01*
X7421138Y3354586D01*
X7404586Y3371138D01*
X7384314Y3382842D01*
X7361704Y3388900D01*
X7338296D01*
X7315686Y3382842D01*
X7295414Y3371138D01*
X7278862Y3354586D01*
X7267158Y3334314D01*
X7261100Y3311704D01*
Y3288296D01*
X7267158Y3265686D01*
X7278862Y3245414D01*
X7295414Y3228862D01*
X7315686Y3217158D01*
X7338296Y3211100D01*
X7361704D01*
X7381644Y3216443D01*
X7385134Y3214111D01*
X7400000Y3211154D01*
X11550000D01*
X11564866Y3214111D01*
X11577469Y3222532D01*
X12066091Y3711153D01*
X13944600D01*
Y3649600D01*
X14145399D01*
Y3850400D01*
X14098688D01*
X14095284Y3863100D01*
X14106647Y3869660D01*
X14125340Y3888353D01*
X14138557Y3911247D01*
X14145399Y3936782D01*
Y3937300D01*
D02*
G37*
G36*
X8561704Y4088900D02*
X8538296D01*
X8515686Y4082841D01*
X8495414Y4071138D01*
X8478862Y4054586D01*
X8467158Y4034314D01*
X8461100Y4011704D01*
Y3988296D01*
X8467158Y3965686D01*
X8478862Y3945414D01*
X8495414Y3928862D01*
X8515686Y3917158D01*
X8538296Y3911100D01*
X8561704D01*
X8584314Y3917158D01*
X8604586Y3928862D01*
X8621138Y3945414D01*
X8630225Y3961153D01*
X8983909D01*
X9011153Y3933909D01*
Y3775438D01*
X9002108Y3773639D01*
X8992069Y3766931D01*
X8985361Y3756892D01*
X8983006Y3745050D01*
Y3653981D01*
X8974073Y3646611D01*
X8962995Y3651342D01*
Y3745050D01*
X8960639Y3756892D01*
X8953931Y3766931D01*
X8943892Y3773639D01*
X8932050Y3775994D01*
X8886950D01*
X8875108Y3773639D01*
X8865069Y3766931D01*
X8858361Y3756892D01*
X8856006Y3745050D01*
Y3726346D01*
X7606091D01*
X7414503Y3917934D01*
X7420400Y3939941D01*
Y3965060D01*
X7413899Y3989323D01*
X7401339Y4011077D01*
X7383577Y4028839D01*
X7361823Y4041399D01*
X7337560Y4047900D01*
X7312441D01*
X7288177Y4041399D01*
X7266423Y4028839D01*
X7248661Y4011077D01*
X7236102Y3989323D01*
X7229600Y3965060D01*
Y3939941D01*
X7236102Y3915677D01*
X7248661Y3893923D01*
X7266423Y3876161D01*
X7288177Y3863602D01*
X7312441Y3857100D01*
X7337560D01*
X7359566Y3862997D01*
X7562532Y3660031D01*
X7575134Y3651610D01*
X7590000Y3648653D01*
X8856006D01*
Y3629950D01*
X8858361Y3618108D01*
X8865069Y3608069D01*
X8875108Y3601361D01*
X8886950Y3599005D01*
X8911475D01*
X8916335Y3587272D01*
X8817909Y3488846D01*
X7166091D01*
X6863847Y3791090D01*
Y3864770D01*
X6883577Y3876161D01*
X6901339Y3893923D01*
X6913899Y3915677D01*
X6920400Y3939941D01*
Y3965060D01*
X6913899Y3989323D01*
X6901339Y4011077D01*
X6883577Y4028839D01*
X6861823Y4041399D01*
X6837560Y4047900D01*
X6812441D01*
X6788177Y4041399D01*
X6766423Y4028839D01*
X6748661Y4011077D01*
X6736102Y3989323D01*
X6729600Y3965060D01*
Y3939941D01*
X6736102Y3915677D01*
X6748661Y3893923D01*
X6766423Y3876161D01*
X6786154Y3864770D01*
Y3775000D01*
X6789111Y3760134D01*
X6797531Y3747531D01*
X7122531Y3422531D01*
X7135134Y3414111D01*
X7150000Y3411153D01*
X8834000D01*
X8848866Y3414111D01*
X8861469Y3422531D01*
X9037943Y3599005D01*
X9059050D01*
X9070892Y3601361D01*
X9080931Y3608069D01*
X9087639Y3618108D01*
X9089995Y3629950D01*
Y3745050D01*
X9088846Y3750822D01*
Y3950000D01*
X9085889Y3964866D01*
X9077469Y3977469D01*
X9027469Y4027468D01*
X9014866Y4035889D01*
X9000000Y4038846D01*
X8630225D01*
X8621138Y4054586D01*
X8604586Y4071138D01*
X8584314Y4082841D01*
X8561704Y4088900D01*
D02*
G37*
G36*
X9343995Y3674800D02*
X9303200D01*
Y3599005D01*
X9313050D01*
X9324892Y3601361D01*
X9334931Y3608069D01*
X9341639Y3618108D01*
X9343995Y3629950D01*
Y3674800D01*
D02*
G37*
G36*
X9277800D02*
X9237006D01*
Y3629950D01*
X9239361Y3618108D01*
X9246069Y3608069D01*
X9256108Y3601361D01*
X9267950Y3599005D01*
X9277800D01*
Y3674800D01*
D02*
G37*
G36*
X14767274Y3425400D02*
X14732726D01*
X14698837Y3418659D01*
X14666917Y3405437D01*
X14638190Y3386242D01*
X14613757Y3361811D01*
X14594563Y3333083D01*
X14581342Y3301162D01*
X14574600Y3267275D01*
Y3232725D01*
X14581342Y3198838D01*
X14594563Y3166917D01*
X14613757Y3138189D01*
X14638190Y3113758D01*
X14666917Y3094563D01*
X14698837Y3081341D01*
X14732726Y3074600D01*
X14767274D01*
X14801163Y3081341D01*
X14833083Y3094563D01*
X14861810Y3113758D01*
X14886243Y3138189D01*
X14905437Y3166917D01*
X14918658Y3198838D01*
X14925400Y3232725D01*
Y3267275D01*
X14918658Y3301162D01*
X14905437Y3333083D01*
X14886243Y3361811D01*
X14861810Y3386242D01*
X14833083Y3405437D01*
X14801163Y3418659D01*
X14767274Y3425400D01*
D02*
G37*
G36*
X5267275D02*
X5232725D01*
X5198838Y3418659D01*
X5166917Y3405437D01*
X5138189Y3386242D01*
X5113758Y3361811D01*
X5094563Y3333083D01*
X5081341Y3301162D01*
X5074600Y3267275D01*
Y3232725D01*
X5081341Y3198838D01*
X5094563Y3166917D01*
X5113758Y3138189D01*
X5138189Y3113758D01*
X5166917Y3094563D01*
X5198838Y3081341D01*
X5232725Y3074600D01*
X5267275D01*
X5301162Y3081341D01*
X5333083Y3094563D01*
X5361811Y3113758D01*
X5386242Y3138189D01*
X5405437Y3166917D01*
X5418659Y3198838D01*
X5425400Y3232725D01*
Y3267275D01*
X5418659Y3301162D01*
X5405437Y3333083D01*
X5386242Y3361811D01*
X5361811Y3386242D01*
X5333083Y3405437D01*
X5301162Y3418659D01*
X5267275Y3425400D01*
D02*
G37*
%LPD*%
D10*
X6112500Y8959500D02*
D03*
Y9086500D02*
D03*
Y9213500D02*
D03*
Y9340500D02*
D03*
X5587500Y8959500D02*
D03*
Y9086500D02*
D03*
Y9213500D02*
D03*
Y9340500D02*
D03*
X9912499Y8959500D02*
D03*
Y9086500D02*
D03*
Y9213500D02*
D03*
Y9340500D02*
D03*
X9387499Y8959500D02*
D03*
Y9086500D02*
D03*
Y9213500D02*
D03*
Y9340500D02*
D03*
X13862500Y8959500D02*
D03*
Y9086500D02*
D03*
Y9213500D02*
D03*
Y9340500D02*
D03*
X13337500Y8959500D02*
D03*
Y9086500D02*
D03*
Y9213500D02*
D03*
Y9340500D02*
D03*
X11900000Y8959500D02*
D03*
Y9086500D02*
D03*
Y9213500D02*
D03*
Y9340500D02*
D03*
X11375000Y8959500D02*
D03*
Y9086500D02*
D03*
Y9213500D02*
D03*
Y9340500D02*
D03*
X7962500Y8959500D02*
D03*
Y9086500D02*
D03*
Y9213500D02*
D03*
Y9340500D02*
D03*
X7437500Y8959500D02*
D03*
Y9086500D02*
D03*
Y9213500D02*
D03*
Y9340500D02*
D03*
D11*
X9290500Y4212500D02*
D03*
X9163500D02*
D03*
X9036500D02*
D03*
X8909500D02*
D03*
X9290500Y3687500D02*
D03*
X9163500D02*
D03*
X9036500D02*
D03*
X8909500D02*
D03*
D12*
X11983500Y11100000D02*
X12324671D01*
X12338750Y11114079D01*
X12650000Y6800000D02*
Y11099200D01*
X12338750Y11114079D02*
X12635121D01*
X12650000Y11099200D01*
X12250000Y6400000D02*
X12650000Y6800000D01*
X13600000Y4550000D02*
Y5250000D01*
X10319000Y4751000D02*
Y4783500D01*
Y4531000D02*
Y4751000D01*
X11379579Y4475000D02*
X12400000D01*
X11365100Y4460521D02*
X11379579Y4475000D01*
X10319000Y4531000D02*
X10389479Y4460521D01*
X11365100D01*
X12850000Y5750000D02*
X13350000D01*
X14000000Y6400000D01*
X11550000Y4833500D02*
Y5150000D01*
X12400000Y4475000D02*
X12758500Y4833500D01*
X12850000D01*
X7350000Y3300000D02*
X7400000Y3250000D01*
X11550000D01*
X12050000Y3750000D01*
X14045000D01*
X12400000Y4324999D02*
X12591500D01*
X12850000Y4066499D01*
X12141500D02*
X12400000Y4324999D01*
X11900000Y4066499D02*
X12141500D01*
X11300000Y3450000D02*
X11900000Y4050000D01*
Y4066499D01*
X9163500Y3464879D02*
Y3687500D01*
Y3464879D02*
X9178379Y3450000D01*
X11300000D01*
X6825000Y3775000D02*
X7150000Y3450000D01*
X6825000Y3775000D02*
Y3952500D01*
X7150000Y3450000D02*
X8834000D01*
X9036500Y3652500D01*
Y3687500D01*
X9050000Y3701000D02*
Y3950000D01*
X9036500Y3687500D02*
X9050000Y3701000D01*
X9000000Y4000000D02*
X9050000Y3950000D01*
X8550000Y4000000D02*
X9000000D01*
X8766500Y4850000D02*
X9050000D01*
X9500000Y3932000D02*
X10319000Y4751000D01*
X9290500Y3722500D02*
X9500000Y3932000D01*
X9290500Y3687500D02*
Y3722500D01*
X9500000Y3932000D02*
Y4500000D01*
X7900000Y4550000D02*
X9450000D01*
X9500000Y4500000D01*
X7575000Y4225000D02*
X7900000Y4550000D01*
X7575000Y3952500D02*
Y4225000D01*
X7825000Y3952500D02*
X8085000Y4212500D01*
X8909500D01*
X7325000Y3952500D02*
X7590000Y3687500D01*
X8909500D01*
X8433500Y4850000D02*
X8766500D01*
X7550000D02*
X7666500D01*
X7075000Y4375000D02*
X7550000Y4850000D01*
X7075000Y3952500D02*
Y4375000D01*
X10116500Y5450000D02*
X10319000Y5247500D01*
Y4783500D02*
Y5247500D01*
X10573000Y4783500D02*
Y5139500D01*
X10883500Y5450000D01*
X12200000D01*
X12350000D02*
X14045000D01*
X6575000Y4475000D02*
X7300000Y5200000D01*
X6575000Y3952500D02*
Y4475000D01*
X7300000Y5200000D02*
X8700000D01*
X9500000Y6000000D01*
X13300000D01*
X13600000Y6300000D01*
Y6700000D01*
X6075000Y3952500D02*
Y4525000D01*
X7500000Y5950000D01*
X8816499D01*
X9566499Y6700000D01*
X5550000Y3977500D02*
X5575000Y3952500D01*
X5550000Y3977500D02*
Y5750000D01*
X5775000Y5975000D01*
Y6700000D01*
X14750000Y8550000D02*
Y9335121D01*
X14350000Y9350000D02*
X14735121D01*
X14750000Y9335121D01*
X14550000Y8350000D02*
X14750000Y8550000D01*
X14550000Y7150000D02*
Y8350000D01*
X14385121Y4500000D02*
X14400000Y4514879D01*
X14045000Y4500000D02*
X14385121D01*
X14400000Y4514879D02*
Y7000000D01*
X14550000Y7150000D01*
X13611501Y4066500D02*
X14045000Y4500000D01*
X13350000Y4066500D02*
X13611501D01*
X13867250Y9345250D02*
X14345250D01*
X14350000Y9350000D01*
X13862500Y9340500D02*
X13867250Y9345250D01*
X11904750D02*
X12345250D01*
X12350000Y9350000D01*
X11900000Y9340500D02*
X11904750Y9345250D01*
X9917249D02*
X10345250D01*
X9912499Y9340500D02*
X9917249Y9345250D01*
X10345250D02*
X10350000Y9350000D01*
X7967250Y9345250D02*
X8395250D01*
X7962500Y9340500D02*
X7967250Y9345250D01*
X8395250D02*
X8400000Y9350000D01*
X6117250Y9345250D02*
X6595250D01*
X6112500Y9340500D02*
X6117250Y9345250D01*
X6595250D02*
X6600000Y9350000D01*
X13324001Y9100000D02*
X13337500Y9086500D01*
X13150000Y9100000D02*
X13324001D01*
X13050000Y9200000D02*
X13150000Y9100000D01*
X11250000D02*
X11361500D01*
X11375000Y9086500D01*
X11150000Y9200000D02*
X11250000Y9100000D01*
X11150000Y9200000D02*
X11150000D01*
X9373999Y9100000D02*
X9387499Y9086500D01*
X9250000Y9100000D02*
X9373999D01*
X9150000Y9200000D02*
X9250000Y9100000D01*
X9150000Y9200000D02*
X9150000D01*
X7200000D02*
X7306750Y9093250D01*
X7430750D02*
X7437500Y9086500D01*
X7306750Y9093250D02*
X7430750D01*
X7437500Y9086500D02*
X7663500D01*
X5583407Y9090593D02*
X5587500Y9086500D01*
X5350000Y9200000D02*
X5459407Y9090593D01*
X5583407D01*
X5587500Y9086500D02*
X5813500D01*
X5890500Y8959500D02*
X6112500D01*
X5850000Y9000000D02*
X5890500Y8959500D01*
X5850000Y9000000D02*
Y9050000D01*
X5813500Y9086500D02*
X5850000Y9050000D01*
X13600000Y9000000D02*
X13640500Y8959500D01*
X13862500D01*
X13600000Y9000000D02*
Y9050000D01*
X13337500Y9086500D02*
X13563499D01*
X13600000Y9050000D01*
X11650000Y9000000D02*
X11690500Y8959500D01*
X11900000D01*
X11650000Y9000000D02*
Y9050000D01*
X11375000Y9086500D02*
X11613500D01*
X11650000Y9050000D01*
X9690500Y8959500D02*
X9912499D01*
X9650000Y9000000D02*
X9690500Y8959500D01*
X9650000Y9000000D02*
Y9050000D01*
X9387499Y9086500D02*
X9613500D01*
X9650000Y9050000D01*
X7740500Y8959500D02*
X7962500D01*
X7700000Y9000000D02*
X7740500Y8959500D01*
X7700000Y9000000D02*
Y9050000D01*
X7663500Y9086500D02*
X7700000Y9050000D01*
X13883501Y8433500D02*
X14200000D01*
X13850000Y8400000D02*
X13883501Y8433500D01*
X14295599Y8445600D02*
X14450000Y8600000D01*
X14200000Y8433500D02*
X14212100Y8445600D01*
X14295599D01*
X14450000Y8600000D02*
Y9100000D01*
X14336501Y9213500D02*
X14450000Y9100000D01*
X13862500Y9213500D02*
X14336501D01*
X11900000Y8400000D02*
X11933500Y8433500D01*
X12200000D01*
X12450000Y8683500D02*
Y8950000D01*
X12200000Y8433500D02*
X12450000Y8683500D01*
X12200000Y9200000D02*
X12450000Y8950000D01*
X11900000Y9213500D02*
X11913500Y9200000D01*
X12200000D01*
X9933500Y8433500D02*
X10200000D01*
X9900000Y8400000D02*
X9933500Y8433500D01*
X10200000D02*
X10224246D01*
X10277311Y8486565D01*
X10450000Y8514879D02*
Y8900000D01*
X10277311Y8486565D02*
X10421686D01*
X10450000Y8514879D01*
X10136500Y9213500D02*
X10450000Y8900000D01*
X9912499Y9213500D02*
X10136500D01*
X8192254Y8400000D02*
X8225754Y8433500D01*
X7950000Y8400000D02*
X8192254D01*
X8225754Y8433500D02*
X8250000D01*
X8383500D02*
X8500000Y8550000D01*
X8250000Y8433500D02*
X8383500D01*
X8500000Y8550000D02*
Y8900000D01*
X8186500Y9213500D02*
X8500000Y8900000D01*
X7962500Y9213500D02*
X8186500D01*
X13650000Y7864879D02*
X13723389Y7791490D01*
X13650000Y7864879D02*
Y8735121D01*
X13758510Y7791490D02*
X13850000Y7700000D01*
X13723389Y7791490D02*
X13758510D01*
X13650000Y8735121D02*
X13664879Y8750000D01*
X13950000D01*
X14100000Y8900000D01*
Y9000000D01*
X14013499Y9086500D02*
X14100000Y9000000D01*
X13862500Y9086500D02*
X14013499D01*
X11700000Y7900000D02*
X11900000Y7700000D01*
X11700000Y7900000D02*
Y8735121D01*
X11714879Y8750000D02*
X12000000D01*
X11700000Y8735121D02*
X11714879Y8750000D01*
X12000000D02*
X12100000Y8850000D01*
Y9000000D01*
X12013500Y9086500D02*
X12100000Y9000000D01*
X11900000Y9086500D02*
X12013500D01*
X9765949Y7784050D02*
X9815949D01*
X9700000Y7850000D02*
X9765949Y7784050D01*
X9815949D02*
X9900000Y7700000D01*
X9700000Y8735121D02*
X9714879Y8750000D01*
X9700000Y7850000D02*
Y8735121D01*
X9714879Y8750000D02*
X10000000D01*
X10100000Y8850000D01*
Y9000000D01*
X9912499Y9086500D02*
X10013500D01*
X10100000Y9000000D01*
X7750000Y8735121D02*
X7764879Y8750000D01*
X8050000D01*
X7750000Y7900000D02*
X7950000Y7700000D01*
X7750000Y7900000D02*
Y8735121D01*
X8050000Y8750000D02*
X8150000Y8850000D01*
Y9000000D01*
X8063500Y9086500D02*
X8150000Y9000000D01*
X7962500Y9086500D02*
X8063500D01*
X6100000Y8400000D02*
X6133500Y8433500D01*
X6367001D01*
X6458823Y8525322D02*
X6525322D01*
X6600000Y8600000D01*
X6367001Y8433500D02*
X6458823Y8525322D01*
X6600000Y8600000D02*
Y8900000D01*
X6112500Y9213500D02*
X6286500D01*
X6600000Y8900000D01*
X5965949Y7784050D02*
X6015950D01*
X5900000Y7850000D02*
X5965949Y7784050D01*
X6015950D02*
X6100000Y7700000D01*
X5900000Y8735121D02*
X5914879Y8750000D01*
X5900000Y7850000D02*
Y8735121D01*
X5914879Y8750000D02*
X6200000D01*
X6300000Y8850000D01*
Y9000000D01*
X6112500Y9086500D02*
X6213500D01*
X6300000Y9000000D01*
X9116500Y8950000D02*
X9450000D01*
X8250000Y8433500D02*
X8345600Y8337900D01*
X8250000Y7350000D02*
Y7497618D01*
X8345600Y7593218D01*
Y8337900D01*
X10295600Y7593218D02*
Y8337900D01*
X10200000Y8433500D02*
X10295600Y8337900D01*
X10183500Y7350000D02*
Y7481119D01*
X10295600Y7593218D01*
X12183500Y7350000D02*
Y7481119D01*
X12295600Y7593218D01*
Y8337900D01*
X12200000Y8433500D02*
X12295600Y8337900D01*
X14233501Y7531119D02*
X14295599Y7593218D01*
Y8337900D01*
X14233501Y7350000D02*
Y7531119D01*
X14200000Y8433500D02*
X14295599Y8337900D01*
X13850000Y7700000D02*
X14166499D01*
X14200000Y7666500D01*
X11900000Y7700000D02*
X12166500D01*
X12200000Y7666500D01*
X10166500Y7700000D02*
X10200000Y7666500D01*
X9900000Y7700000D02*
X10166500D01*
X8216500D02*
X8250000Y7666500D01*
X7950000Y7700000D02*
X8216500D01*
X6125599D02*
X6159099Y7666500D01*
X6367001D01*
X6100000Y7700000D02*
X6125599D01*
X6383500Y7514118D02*
X6462601Y7593218D01*
Y8337900D01*
X6383500Y7350000D02*
Y7514118D01*
X6367001Y8433500D02*
X6462601Y8337900D01*
X13458250Y7341750D02*
X13466499Y7350000D01*
X13458250Y6708250D02*
Y7341750D01*
X13450000Y6700000D02*
X13458250Y6708250D01*
X11408250D02*
Y7341750D01*
X11400000Y6700000D02*
X11408250Y6708250D01*
Y7341750D02*
X11416500Y7350000D01*
X9416500Y6700001D02*
Y7350000D01*
X9416499Y6700000D02*
X9416500Y6700001D01*
Y7350000D02*
X9416500Y7350000D01*
X7483000Y6700000D02*
Y7350000D01*
X5620750Y6704250D02*
Y7345750D01*
Y6704250D02*
X5625000Y6700000D01*
X5616500Y7350000D02*
X5620750Y7345750D01*
X12957001Y8959500D02*
X13337500D01*
X12950000Y8966500D02*
X12957001Y8959500D01*
X11056999D02*
X11375000D01*
X11050000Y8966500D02*
X11056999Y8959500D01*
X11050000Y8950000D02*
Y8966500D01*
Y8950000D02*
X11050000Y8950000D01*
X9100000Y8966500D02*
X9116500Y8950000D01*
X7100000Y8966500D02*
X7107000Y8959500D01*
X7437500D01*
X5300000Y8959501D02*
X5300000Y8959500D01*
X5587500D01*
X13850000Y10183301D02*
Y10500000D01*
X13236900Y9570201D02*
X13850000Y10183301D01*
X13236900Y9279100D02*
Y9570201D01*
Y9279100D02*
X13302499Y9213500D01*
X13337500D01*
X14033501Y10683500D02*
X14200000D01*
X13850000Y10500000D02*
X14033501Y10683500D01*
X11900000Y10189551D02*
Y10500000D01*
X11274400Y9563951D02*
X11900000Y10189551D01*
X11274400Y9279100D02*
Y9563951D01*
Y9279100D02*
X11340000Y9213500D01*
X11375000D01*
X11900000Y10500000D02*
X12050500Y10650500D01*
X12200000D01*
X9348703Y9217296D02*
X9405062D01*
X9286899Y9279100D02*
X9348703Y9217296D01*
X9286899Y9279100D02*
Y9572460D01*
X9900000Y10185560D01*
Y10483500D01*
X9916499Y10500000D02*
X10033500Y10617001D01*
X9900000Y10500000D02*
X9916499D01*
X10033500Y10617001D02*
X10200000D01*
X13372501Y9340500D02*
X13515500Y9483500D01*
X14200000D01*
X13337500Y9340500D02*
X13372501D01*
X14200000Y9483500D02*
Y9916500D01*
X14175754D02*
X14200000D01*
X13850000Y9950000D02*
X14142255D01*
X14175754Y9916500D01*
X11553000Y9483500D02*
X12200000D01*
X11410000Y9340500D02*
X11553000Y9483500D01*
X11375000Y9340500D02*
X11410000D01*
X12200000Y9483500D02*
X12200000Y9483500D01*
Y9883500D01*
X11900000Y9900000D02*
X11916500Y9883500D01*
X12200000D01*
X9565500Y9483500D02*
X10200000D01*
X9422499Y9340500D02*
X9565500Y9483500D01*
X9387499Y9340500D02*
X9422499D01*
X10200000Y9483500D02*
Y9850000D01*
X10142254Y9883500D02*
X10175754Y9850000D01*
X10200000D01*
X9900000Y9883500D02*
X10142254D01*
X7950000Y10183301D02*
Y10500000D01*
X7336900Y9570201D02*
X7950000Y10183301D01*
X7336900Y9279100D02*
Y9570201D01*
Y9279100D02*
X7402500Y9213500D01*
X7437500D01*
X8083500Y10633500D02*
X8250000D01*
X7950000Y10500000D02*
X8083500Y10633500D01*
X6100000Y10183301D02*
Y10500000D01*
X5486900Y9570201D02*
X6100000Y10183301D01*
X5486900Y9279100D02*
Y9570201D01*
Y9279100D02*
X5552500Y9213500D01*
X5587500D01*
X6100000Y10500000D02*
X6233500Y10633500D01*
X6400000D01*
X7437500Y9340500D02*
X7472500D01*
X7632000Y9500000D01*
X8233500D01*
X8250000Y9483500D01*
Y9866500D01*
X7950000Y9900000D02*
X7983500Y9866500D01*
X8250000D01*
X5690500Y9340500D02*
X5850000Y9500000D01*
X5587500Y9340500D02*
X5690500D01*
X5850000Y9500000D02*
X6383500D01*
X6400000Y9483500D01*
Y9866500D01*
X6100000Y9900000D02*
X6342254D01*
X6375754Y9866500D01*
X6400000D01*
X9400000Y9883500D02*
Y10483500D01*
X9100000Y9750000D02*
X9233500Y9883500D01*
X9400000D01*
X9266500Y10617000D02*
Y11100000D01*
Y10617000D02*
X9400000Y10483500D01*
X12950000Y9750000D02*
X13150000D01*
X13350000Y9950000D01*
Y10500000D01*
X13166499Y10683500D02*
X13350000Y10500000D01*
X13166499Y10683500D02*
Y11100000D01*
X7100000Y9733500D02*
X7283500D01*
X7450000Y9900000D01*
Y10500000D01*
X7316500Y10633500D02*
Y11100000D01*
Y10633500D02*
X7450000Y10500000D01*
X5300000Y9726501D02*
X5426501D01*
X5600000Y9900000D01*
Y10500000D01*
X5516500Y10583500D02*
X5600000Y10500000D01*
X5516500Y10583500D02*
Y11100000D01*
X11233500Y9733500D02*
X11400000Y9900000D01*
X11050000Y9733500D02*
X11233500D01*
X11400000Y9900000D02*
Y10500000D01*
X11216500Y10683500D02*
Y11100000D01*
Y10683500D02*
X11400000Y10500000D01*
X13935121Y11500000D02*
X13950000Y11485121D01*
X11985121Y11500000D02*
X13935121D01*
X13933501Y11100000D02*
X13950000Y11116500D01*
Y11485121D01*
X11983500Y11100000D02*
X12000000Y11116500D01*
X10050000Y11500000D02*
X11985121D01*
X12000000Y11116500D02*
Y11485121D01*
X11985121Y11500000D02*
X12000000Y11485121D01*
X8035121Y11500000D02*
X10050000D01*
X10033500Y11100000D02*
X10050000Y11116500D01*
Y11500000D01*
X8035121D02*
X8050000Y11485121D01*
X9988700Y11144800D02*
X10007555Y11125945D01*
Y11118716D02*
Y11125945D01*
X8050000Y11133500D02*
X8083500Y11100000D01*
X8050000Y11133500D02*
Y11485121D01*
X6550000Y11500000D02*
X8035121D01*
X6283500Y11233500D02*
X6550000Y11500000D01*
X6283500Y11100000D02*
Y11233500D01*
D13*
X7666500Y4850000D02*
D03*
X13933501Y11100000D02*
D03*
X11983500D02*
D03*
X10033500D02*
D03*
X8083500D02*
D03*
X6283500D02*
D03*
X13600000Y6700000D02*
D03*
X11550000D02*
D03*
X9566499D02*
D03*
X7633000D02*
D03*
X5775000D02*
D03*
X10116500Y5450000D02*
D03*
X14233501Y7350000D02*
D03*
X12183500D02*
D03*
X10183500D02*
D03*
X6383500D02*
D03*
X8250000D02*
D03*
X12350000Y5450000D02*
D03*
X8766500Y4850000D02*
D03*
D14*
X8433500D02*
D03*
X13166499Y11100000D02*
D03*
X11216500D02*
D03*
X9266500D02*
D03*
X7316500D02*
D03*
X5516500D02*
D03*
X13450000Y6700000D02*
D03*
X11400000D02*
D03*
X9416499D02*
D03*
X7483000D02*
D03*
X5625000D02*
D03*
X10883500Y5450000D02*
D03*
X9900000Y4016500D02*
D03*
X11550000Y4066499D02*
D03*
X11900000D02*
D03*
X14200000Y8433500D02*
D03*
Y8716500D02*
D03*
Y9916500D02*
D03*
X13466499Y7350000D02*
D03*
X12950000Y7700000D02*
D03*
Y9733500D02*
D03*
X12200000Y9883500D02*
D03*
X12200000Y8433500D02*
D03*
X11416500Y7350000D02*
D03*
X11050000Y7700000D02*
D03*
X11050000Y9733500D02*
D03*
X10200000Y8433500D02*
D03*
X9416500Y7350000D02*
D03*
X9100000Y7683000D02*
D03*
X9100000Y9733500D02*
D03*
X10200000Y8716500D02*
D03*
Y9850000D02*
D03*
X6400000Y9866500D02*
D03*
X8250000D02*
D03*
Y8716500D02*
D03*
X7100000Y9733500D02*
D03*
X5300000Y9726501D02*
D03*
X6400000Y8716500D02*
D03*
X5616500Y7350000D02*
D03*
X7483000D02*
D03*
X8250000Y8433500D02*
D03*
X7100000Y7666500D02*
D03*
X5300000D02*
D03*
X6367001Y8433500D02*
D03*
X12200000Y8716500D02*
D03*
X13350000Y4066500D02*
D03*
X12400000Y4324999D02*
D03*
X12850000Y4066499D02*
D03*
X12200000Y5450000D02*
D03*
X9533500Y4850000D02*
D03*
D15*
X11900000Y7700000D02*
D03*
X9900000D02*
D03*
X7950000D02*
D03*
X13350000Y9900000D02*
D03*
X5600000D02*
D03*
X6100000Y10500000D02*
D03*
X9400000Y8400000D02*
D03*
Y9883500D02*
D03*
X9900000Y10483500D02*
D03*
X13850000Y7700000D02*
D03*
X6100000D02*
D03*
X13850000Y10500000D02*
D03*
X11900000D02*
D03*
X7950000D02*
D03*
X13350000Y8400000D02*
D03*
X11400000D02*
D03*
X7450000D02*
D03*
X5600000D02*
D03*
X11400000Y9900000D02*
D03*
X7450000Y9900000D02*
D03*
D16*
X11400000Y7700000D02*
D03*
X9400000D02*
D03*
X7450000D02*
D03*
X13850000Y9900000D02*
D03*
X6100000D02*
D03*
X5600000Y10500000D02*
D03*
X9900000Y8400000D02*
D03*
Y9883500D02*
D03*
X9400000Y10483500D02*
D03*
X13350000Y7700000D02*
D03*
X5600000D02*
D03*
X13350000Y10500000D02*
D03*
X11400000D02*
D03*
X7450000D02*
D03*
X13850000Y8400000D02*
D03*
X11900000D02*
D03*
X7950000D02*
D03*
X6100000D02*
D03*
X11900000Y9900000D02*
D03*
X7950000Y9900000D02*
D03*
D17*
X7825000Y3952500D02*
D03*
X7575000D02*
D03*
X7325000D02*
D03*
X7075000D02*
D03*
X6825000D02*
D03*
X6575000D02*
D03*
X6325000D02*
D03*
X6075000D02*
D03*
X5825000D02*
D03*
D18*
X5575000D02*
D03*
D19*
X11081000Y4783500D02*
D03*
X14045000Y3750000D02*
D03*
Y4500000D02*
D03*
Y5450000D02*
D03*
D20*
X10827000Y4783500D02*
D03*
X10573000D02*
D03*
X10319000D02*
D03*
X11081000Y4021500D02*
D03*
X10827000D02*
D03*
X10573000D02*
D03*
X10319000D02*
D03*
X14045000Y3950000D02*
D03*
Y4700000D02*
D03*
Y5650000D02*
D03*
D21*
X9900000Y4783500D02*
D03*
X11550000Y4833500D02*
D03*
X11900000D02*
D03*
X14200000Y7666500D02*
D03*
Y9483500D02*
D03*
Y10683500D02*
D03*
X12950000Y8467000D02*
D03*
Y8966500D02*
D03*
X12200000Y10650500D02*
D03*
X12200000Y7666500D02*
D03*
X11050000Y8467000D02*
D03*
X11050000Y8966500D02*
D03*
X10200000Y7666500D02*
D03*
X9100000Y8450000D02*
D03*
X9100000Y8966500D02*
D03*
X10200000Y9483500D02*
D03*
Y10617001D02*
D03*
X6400000Y10633500D02*
D03*
X8250000D02*
D03*
Y9483500D02*
D03*
X7100000Y8966500D02*
D03*
X5300000Y8959501D02*
D03*
X6400000Y9483500D02*
D03*
X8250000Y7666500D02*
D03*
X7100000Y8433500D02*
D03*
X5300000D02*
D03*
X6367001Y7666500D02*
D03*
X12200000Y9483500D02*
D03*
X13350000Y4833500D02*
D03*
X12400000Y4475000D02*
D03*
X12850000Y4833500D02*
D03*
D22*
X5250000Y11500000D02*
D03*
Y3250000D02*
D03*
X14750000D02*
D03*
Y11500000D02*
D03*
D23*
X12250000Y6400000D02*
D03*
X13600000Y5250000D02*
D03*
Y4550000D02*
D03*
X14000000Y6400000D02*
D03*
X12850000Y5750000D02*
D03*
X11550000Y5150000D02*
D03*
X7350000Y3300000D02*
D03*
X8550000Y4000000D02*
D03*
X9050000Y4850000D02*
D03*
X14350000Y9350000D02*
D03*
X12350000D02*
D03*
X10350000D02*
D03*
X8400000D02*
D03*
X6600000D02*
D03*
X13050000Y9200000D02*
D03*
X11150000D02*
D03*
X9150000D02*
D03*
X7200000D02*
D03*
X5350000D02*
D03*
%TF.MD5,5486bb4dfc989c90b0636d719a5202a7*%
M02*
