G04*
G04 #@! TF.GenerationSoftware,Altium Limited,Altium Designer,24.6.1 (21)*
G04*
G04 Layer_Color=65535*
%FSLAX25Y25*%
%MOIN*%
G70*
G04*
G04 #@! TF.SameCoordinates,BD51E7C1-7467-4EA1-BF67-8BC641B90C76*
G04*
G04*
G04 #@! TF.FilePolarity,Positive*
G04*
G01*
G75*
%ADD10C,0.00984*%
%ADD11C,0.02362*%
%ADD12C,0.00787*%
%ADD13C,0.03937*%
%ADD14C,0.01000*%
G36*
X481546Y204656D02*
X481563Y204654D01*
X481583Y204652D01*
X481604Y204650D01*
X481628Y204645D01*
X481678Y204633D01*
X481733Y204617D01*
X481761Y204606D01*
X481787Y204593D01*
X481813Y204576D01*
X481839Y204559D01*
X481840Y204558D01*
X481844Y204556D01*
X481852Y204550D01*
X481861Y204541D01*
X481870Y204532D01*
X481883Y204519D01*
X481896Y204504D01*
X481911Y204489D01*
X481926Y204471D01*
X481940Y204449D01*
X481957Y204426D01*
X481972Y204402D01*
X481985Y204375D01*
X481999Y204347D01*
X482011Y204317D01*
X482022Y204284D01*
X481855Y204245D01*
Y204247D01*
X481853Y204251D01*
X481850Y204258D01*
X481846Y204267D01*
X481842Y204278D01*
X481837Y204293D01*
X481822Y204323D01*
X481803Y204356D01*
X481781Y204389D01*
X481753Y204421D01*
X481724Y204449D01*
X481720Y204452D01*
X481709Y204460D01*
X481691Y204469D01*
X481667Y204482D01*
X481635Y204493D01*
X481600Y204504D01*
X481557Y204511D01*
X481511Y204513D01*
X481496D01*
X481487Y204511D01*
X481474D01*
X481459Y204510D01*
X481424Y204504D01*
X481385Y204497D01*
X481345Y204484D01*
X481302Y204465D01*
X481263Y204441D01*
X481261D01*
X481260Y204437D01*
X481247Y204428D01*
X481230Y204413D01*
X481210Y204391D01*
X481185Y204363D01*
X481163Y204332D01*
X481143Y204293D01*
X481124Y204251D01*
Y204249D01*
X481123Y204245D01*
X481121Y204240D01*
X481119Y204230D01*
X481115Y204219D01*
X481111Y204206D01*
X481106Y204175D01*
X481099Y204138D01*
X481091Y204097D01*
X481087Y204053D01*
X481086Y204005D01*
Y204003D01*
Y203997D01*
Y203988D01*
Y203977D01*
X481087Y203964D01*
Y203947D01*
X481089Y203929D01*
X481091Y203908D01*
X481097Y203864D01*
X481106Y203816D01*
X481117Y203768D01*
X481132Y203720D01*
Y203718D01*
X481134Y203714D01*
X481137Y203709D01*
X481141Y203699D01*
X481152Y203677D01*
X481169Y203651D01*
X481189Y203622D01*
X481215Y203590D01*
X481245Y203562D01*
X481280Y203537D01*
X481282D01*
X481285Y203535D01*
X481291Y203531D01*
X481298Y203527D01*
X481308Y203524D01*
X481319Y203518D01*
X481345Y203507D01*
X481378Y203496D01*
X481415Y203487D01*
X481456Y203479D01*
X481498Y203477D01*
X481511D01*
X481522Y203479D01*
X481535D01*
X481548Y203481D01*
X481581Y203488D01*
X481620Y203498D01*
X481659Y203512D01*
X481700Y203533D01*
X481720Y203544D01*
X481739Y203559D01*
X481741Y203560D01*
X481742Y203562D01*
X481748Y203568D01*
X481755Y203573D01*
X481763Y203583D01*
X481772Y203594D01*
X481783Y203605D01*
X481792Y203620D01*
X481803Y203636D01*
X481816Y203655D01*
X481827Y203673D01*
X481839Y203696D01*
X481848Y203720D01*
X481857Y203746D01*
X481866Y203773D01*
X481874Y203803D01*
X482044Y203760D01*
Y203759D01*
X482042Y203751D01*
X482038Y203740D01*
X482033Y203725D01*
X482027Y203709D01*
X482020Y203688D01*
X482011Y203666D01*
X481999Y203642D01*
X481974Y203590D01*
X481940Y203538D01*
X481920Y203512D01*
X481900Y203487D01*
X481878Y203464D01*
X481852Y203442D01*
X481850Y203440D01*
X481846Y203437D01*
X481837Y203433D01*
X481827Y203426D01*
X481813Y203416D01*
X481798Y203407D01*
X481777Y203398D01*
X481757Y203389D01*
X481733Y203377D01*
X481707Y203368D01*
X481679Y203359D01*
X481650Y203350D01*
X481618Y203342D01*
X481585Y203339D01*
X481550Y203335D01*
X481513Y203333D01*
X481493D01*
X481478Y203335D01*
X481461D01*
X481441Y203337D01*
X481419Y203340D01*
X481393Y203344D01*
X481339Y203353D01*
X481284Y203368D01*
X481228Y203389D01*
X481202Y203401D01*
X481176Y203416D01*
X481174Y203418D01*
X481171Y203420D01*
X481163Y203426D01*
X481156Y203433D01*
X481145Y203440D01*
X481132Y203451D01*
X481117Y203464D01*
X481102Y203479D01*
X481087Y203496D01*
X481071Y203512D01*
X481038Y203555D01*
X481006Y203605D01*
X480978Y203660D01*
Y203662D01*
X480975Y203668D01*
X480973Y203677D01*
X480967Y203688D01*
X480964Y203703D01*
X480958Y203721D01*
X480951Y203742D01*
X480945Y203764D01*
X480939Y203788D01*
X480932Y203816D01*
X480923Y203873D01*
X480915Y203938D01*
X480912Y204005D01*
Y204006D01*
Y204014D01*
Y204025D01*
X480914Y204038D01*
Y204056D01*
X480915Y204075D01*
X480917Y204099D01*
X480921Y204123D01*
X480930Y204177D01*
X480943Y204236D01*
X480962Y204295D01*
X480988Y204352D01*
X480990Y204354D01*
X480991Y204360D01*
X480995Y204367D01*
X481002Y204376D01*
X481010Y204389D01*
X481019Y204404D01*
X481043Y204437D01*
X481074Y204474D01*
X481111Y204511D01*
X481154Y204549D01*
X481204Y204580D01*
X481206Y204582D01*
X481211Y204584D01*
X481219Y204587D01*
X481228Y204593D01*
X481243Y204598D01*
X481258Y204604D01*
X481276Y204611D01*
X481297Y204619D01*
X481319Y204626D01*
X481343Y204633D01*
X481395Y204645D01*
X481454Y204654D01*
X481515Y204658D01*
X481533D01*
X481546Y204656D01*
D02*
G37*
G36*
X479889Y204302D02*
X479902Y204300D01*
X479929Y204297D01*
X479963Y204290D01*
X479998Y204278D01*
X480033Y204262D01*
X480068Y204241D01*
X480070D01*
X480072Y204238D01*
X480083Y204230D01*
X480100Y204216D01*
X480120Y204197D01*
X480142Y204173D01*
X480164Y204143D01*
X480187Y204108D01*
X480205Y204069D01*
Y204067D01*
X480207Y204064D01*
X480209Y204058D01*
X480212Y204051D01*
X480216Y204040D01*
X480220Y204027D01*
X480229Y203997D01*
X480238Y203960D01*
X480246Y203920D01*
X480251Y203873D01*
X480253Y203825D01*
Y203823D01*
Y203820D01*
Y203812D01*
Y203801D01*
X480251Y203788D01*
Y203773D01*
X480248Y203740D01*
X480240Y203699D01*
X480231Y203657D01*
X480218Y203612D01*
X480201Y203568D01*
Y203566D01*
X480199Y203562D01*
X480196Y203557D01*
X480192Y203550D01*
X480179Y203529D01*
X480162Y203503D01*
X480142Y203475D01*
X480116Y203448D01*
X480087Y203420D01*
X480052Y203394D01*
X480050D01*
X480048Y203392D01*
X480042Y203389D01*
X480035Y203385D01*
X480016Y203376D01*
X479990Y203364D01*
X479959Y203353D01*
X479926Y203344D01*
X479887Y203337D01*
X479848Y203335D01*
X479835D01*
X479820Y203337D01*
X479802Y203339D01*
X479780Y203342D01*
X479755Y203348D01*
X479732Y203355D01*
X479707Y203366D01*
X479706Y203368D01*
X479696Y203372D01*
X479685Y203379D01*
X479670Y203390D01*
X479656Y203401D01*
X479637Y203416D01*
X479620Y203433D01*
X479606Y203451D01*
Y203000D01*
X479448D01*
Y204284D01*
X479591D01*
Y204162D01*
X479593Y204166D01*
X479600Y204173D01*
X479609Y204186D01*
X479624Y204201D01*
X479641Y204219D01*
X479659Y204236D01*
X479681Y204252D01*
X479704Y204267D01*
X479707Y204269D01*
X479715Y204273D01*
X479730Y204278D01*
X479748Y204286D01*
X479770Y204293D01*
X479796Y204299D01*
X479826Y204302D01*
X479859Y204304D01*
X479879D01*
X479889Y204302D01*
D02*
G37*
G36*
X484688D02*
X484708Y204300D01*
X484732Y204297D01*
X484758Y204291D01*
X484786Y204284D01*
X484811Y204273D01*
X484815Y204271D01*
X484823Y204267D01*
X484836Y204262D01*
X484850Y204252D01*
X484869Y204241D01*
X484886Y204226D01*
X484902Y204212D01*
X484917Y204193D01*
X484919Y204191D01*
X484923Y204184D01*
X484928Y204175D01*
X484937Y204162D01*
X484945Y204143D01*
X484952Y204125D01*
X484961Y204103D01*
X484967Y204079D01*
Y204077D01*
X484969Y204069D01*
X484971Y204058D01*
X484972Y204043D01*
Y204021D01*
X484974Y203995D01*
X484976Y203964D01*
Y203925D01*
Y203355D01*
X484819D01*
Y203918D01*
Y203920D01*
Y203921D01*
Y203934D01*
Y203951D01*
X484817Y203971D01*
X484815Y203995D01*
X484811Y204019D01*
X484806Y204042D01*
X484800Y204062D01*
Y204064D01*
X484797Y204069D01*
X484791Y204079D01*
X484786Y204090D01*
X484776Y204101D01*
X484765Y204114D01*
X484751Y204127D01*
X484734Y204138D01*
X484732Y204140D01*
X484726Y204143D01*
X484715Y204147D01*
X484702Y204152D01*
X484688Y204158D01*
X484669Y204164D01*
X484647Y204166D01*
X484625Y204167D01*
X484615D01*
X484608Y204166D01*
X484589Y204164D01*
X484565Y204160D01*
X484540Y204151D01*
X484510Y204140D01*
X484480Y204125D01*
X484453Y204103D01*
X484449Y204099D01*
X484442Y204090D01*
X484436Y204082D01*
X484431Y204073D01*
X484423Y204062D01*
X484417Y204049D01*
X484410Y204034D01*
X484403Y204016D01*
X484397Y203995D01*
X484392Y203973D01*
X484388Y203949D01*
X484384Y203923D01*
X484380Y203892D01*
Y203860D01*
Y203355D01*
X484223D01*
Y204284D01*
X484364D01*
Y204151D01*
X484366Y204152D01*
X484369Y204158D01*
X484375Y204166D01*
X484382Y204175D01*
X484394Y204186D01*
X484406Y204199D01*
X484421Y204214D01*
X484440Y204228D01*
X484458Y204241D01*
X484480Y204256D01*
X484504Y204269D01*
X484530Y204280D01*
X484560Y204290D01*
X484589Y204297D01*
X484623Y204302D01*
X484658Y204304D01*
X484673D01*
X484688Y204302D01*
D02*
G37*
G36*
X483692D02*
X483713Y204300D01*
X483737Y204297D01*
X483763Y204291D01*
X483790Y204284D01*
X483816Y204273D01*
X483820Y204271D01*
X483827Y204267D01*
X483840Y204262D01*
X483855Y204252D01*
X483874Y204241D01*
X483890Y204226D01*
X483907Y204212D01*
X483922Y204193D01*
X483923Y204191D01*
X483927Y204184D01*
X483933Y204175D01*
X483942Y204162D01*
X483949Y204143D01*
X483957Y204125D01*
X483966Y204103D01*
X483972Y204079D01*
Y204077D01*
X483974Y204069D01*
X483975Y204058D01*
X483977Y204043D01*
Y204021D01*
X483979Y203995D01*
X483981Y203964D01*
Y203925D01*
Y203355D01*
X483824D01*
Y203918D01*
Y203920D01*
Y203921D01*
Y203934D01*
Y203951D01*
X483822Y203971D01*
X483820Y203995D01*
X483816Y204019D01*
X483811Y204042D01*
X483805Y204062D01*
Y204064D01*
X483802Y204069D01*
X483796Y204079D01*
X483790Y204090D01*
X483781Y204101D01*
X483770Y204114D01*
X483755Y204127D01*
X483739Y204138D01*
X483737Y204140D01*
X483731Y204143D01*
X483720Y204147D01*
X483707Y204152D01*
X483692Y204158D01*
X483674Y204164D01*
X483652Y204166D01*
X483629Y204167D01*
X483620D01*
X483613Y204166D01*
X483594Y204164D01*
X483570Y204160D01*
X483544Y204151D01*
X483515Y204140D01*
X483485Y204125D01*
X483457Y204103D01*
X483454Y204099D01*
X483446Y204090D01*
X483441Y204082D01*
X483435Y204073D01*
X483428Y204062D01*
X483422Y204049D01*
X483415Y204034D01*
X483407Y204016D01*
X483402Y203995D01*
X483396Y203973D01*
X483393Y203949D01*
X483389Y203923D01*
X483385Y203892D01*
Y203860D01*
Y203355D01*
X483228D01*
Y204284D01*
X483368D01*
Y204151D01*
X483370Y204152D01*
X483374Y204158D01*
X483380Y204166D01*
X483387Y204175D01*
X483398Y204186D01*
X483411Y204199D01*
X483426Y204214D01*
X483444Y204228D01*
X483463Y204241D01*
X483485Y204256D01*
X483509Y204269D01*
X483535Y204280D01*
X483565Y204290D01*
X483594Y204297D01*
X483628Y204302D01*
X483663Y204304D01*
X483677D01*
X483692Y204302D01*
D02*
G37*
G36*
X478951D02*
X478964D01*
X478977Y204300D01*
X479008Y204295D01*
X479041Y204286D01*
X479077Y204271D01*
X479112Y204252D01*
X479141Y204226D01*
X479145Y204223D01*
X479152Y204212D01*
X479165Y204195D01*
X479171Y204182D01*
X479178Y204169D01*
X479186Y204152D01*
X479191Y204136D01*
X479199Y204117D01*
X479204Y204095D01*
X479208Y204073D01*
X479212Y204047D01*
X479215Y204021D01*
Y203992D01*
Y203355D01*
X479058D01*
Y203938D01*
Y203940D01*
Y203942D01*
Y203953D01*
Y203969D01*
X479056Y203990D01*
X479054Y204012D01*
X479052Y204034D01*
X479049Y204056D01*
X479043Y204073D01*
Y204075D01*
X479039Y204080D01*
X479036Y204088D01*
X479030Y204097D01*
X479023Y204108D01*
X479014Y204119D01*
X479003Y204130D01*
X478988Y204141D01*
X478986Y204143D01*
X478980Y204145D01*
X478973Y204149D01*
X478960Y204154D01*
X478947Y204160D01*
X478930Y204164D01*
X478914Y204166D01*
X478893Y204167D01*
X478884D01*
X478877Y204166D01*
X478858Y204164D01*
X478836Y204160D01*
X478810Y204151D01*
X478782Y204140D01*
X478755Y204123D01*
X478729Y204101D01*
X478727Y204097D01*
X478720Y204088D01*
X478708Y204073D01*
X478697Y204051D01*
X478684Y204021D01*
X478675Y203986D01*
X478668Y203943D01*
X478664Y203894D01*
Y203355D01*
X478507D01*
Y203956D01*
Y203958D01*
Y203962D01*
Y203966D01*
Y203973D01*
X478505Y203994D01*
X478501Y204016D01*
X478498Y204042D01*
X478490Y204067D01*
X478481Y204092D01*
X478468Y204114D01*
X478466Y204116D01*
X478461Y204123D01*
X478451Y204130D01*
X478438Y204141D01*
X478422Y204151D01*
X478399Y204160D01*
X478373Y204166D01*
X478342Y204167D01*
X478331D01*
X478318Y204166D01*
X478303Y204164D01*
X478285Y204158D01*
X478263Y204152D01*
X478242Y204143D01*
X478220Y204132D01*
X478218Y204130D01*
X478211Y204125D01*
X478201Y204117D01*
X478189Y204106D01*
X478176Y204092D01*
X478163Y204073D01*
X478150Y204053D01*
X478139Y204029D01*
X478137Y204025D01*
X478135Y204016D01*
X478131Y204001D01*
X478126Y203980D01*
X478120Y203953D01*
X478116Y203920D01*
X478115Y203881D01*
X478113Y203836D01*
Y203355D01*
X477955D01*
Y204284D01*
X478096D01*
Y204151D01*
X478098Y204154D01*
X478103Y204162D01*
X478115Y204175D01*
X478127Y204190D01*
X478144Y204208D01*
X478164Y204226D01*
X478187Y204245D01*
X478213Y204262D01*
X478216Y204264D01*
X478226Y204269D01*
X478240Y204275D01*
X478261Y204284D01*
X478285Y204291D01*
X478312Y204297D01*
X478344Y204302D01*
X478377Y204304D01*
X478394D01*
X478414Y204302D01*
X478436Y204299D01*
X478464Y204293D01*
X478492Y204286D01*
X478520Y204275D01*
X478546Y204260D01*
X478549Y204258D01*
X478557Y204252D01*
X478568Y204243D01*
X478583Y204228D01*
X478597Y204212D01*
X478614Y204191D01*
X478629Y204167D01*
X478640Y204140D01*
X478642Y204141D01*
X478646Y204147D01*
X478651Y204154D01*
X478660Y204166D01*
X478671Y204178D01*
X478684Y204191D01*
X478699Y204206D01*
X478718Y204223D01*
X478738Y204238D01*
X478758Y204252D01*
X478782Y204265D01*
X478808Y204278D01*
X478836Y204290D01*
X478866Y204297D01*
X478895Y204302D01*
X478929Y204304D01*
X478941D01*
X478951Y204302D01*
D02*
G37*
G36*
X490935D02*
X490963Y204300D01*
X490992Y204297D01*
X491024Y204290D01*
X491057Y204282D01*
X491089Y204271D01*
X491090D01*
X491092Y204269D01*
X491102Y204265D01*
X491116Y204258D01*
X491135Y204249D01*
X491155Y204236D01*
X491176Y204221D01*
X491194Y204204D01*
X491211Y204186D01*
X491213Y204184D01*
X491216Y204177D01*
X491224Y204164D01*
X491233Y204149D01*
X491242Y204127D01*
X491251Y204103D01*
X491259Y204075D01*
X491266Y204043D01*
X491113Y204023D01*
Y204027D01*
X491111Y204034D01*
X491107Y204047D01*
X491102Y204064D01*
X491092Y204080D01*
X491081Y204099D01*
X491068Y204117D01*
X491050Y204134D01*
X491048Y204136D01*
X491041Y204140D01*
X491029Y204147D01*
X491013Y204154D01*
X490994Y204162D01*
X490970Y204169D01*
X490941Y204173D01*
X490909Y204175D01*
X490891D01*
X490872Y204173D01*
X490848Y204171D01*
X490824Y204166D01*
X490798Y204160D01*
X490774Y204151D01*
X490754Y204138D01*
X490752Y204136D01*
X490746Y204132D01*
X490739Y204125D01*
X490731Y204114D01*
X490722Y204103D01*
X490715Y204088D01*
X490709Y204071D01*
X490707Y204054D01*
Y204053D01*
Y204049D01*
X490709Y204043D01*
Y204036D01*
X490715Y204017D01*
X490726Y203999D01*
X490728Y203997D01*
X490730Y203995D01*
X490733Y203990D01*
X490741Y203984D01*
X490748Y203979D01*
X490759Y203971D01*
X490772Y203966D01*
X490787Y203958D01*
X490789D01*
X490793Y203956D01*
X490800Y203955D01*
X490813Y203949D01*
X490832Y203943D01*
X490856Y203938D01*
X490870Y203932D01*
X490887Y203929D01*
X490906Y203923D01*
X490926Y203918D01*
X490928D01*
X490933Y203916D01*
X490942Y203914D01*
X490953Y203910D01*
X490967Y203906D01*
X490983Y203903D01*
X491018Y203892D01*
X491057Y203881D01*
X491096Y203868D01*
X491131Y203855D01*
X491146Y203849D01*
X491159Y203844D01*
X491163Y203842D01*
X491170Y203838D01*
X491181Y203833D01*
X491198Y203823D01*
X491214Y203812D01*
X491231Y203797D01*
X491248Y203781D01*
X491262Y203762D01*
X491264Y203760D01*
X491268Y203753D01*
X491276Y203742D01*
X491283Y203725D01*
X491288Y203705D01*
X491296Y203683D01*
X491299Y203657D01*
X491301Y203627D01*
Y203624D01*
Y203614D01*
X491299Y203599D01*
X491296Y203579D01*
X491290Y203557D01*
X491281Y203533D01*
X491270Y203505D01*
X491255Y203479D01*
X491253Y203475D01*
X491246Y203468D01*
X491237Y203455D01*
X491222Y203440D01*
X491201Y203424D01*
X491179Y203405D01*
X491153Y203389D01*
X491122Y203372D01*
X491120D01*
X491118Y203370D01*
X491107Y203366D01*
X491089Y203361D01*
X491065Y203353D01*
X491035Y203346D01*
X491002Y203340D01*
X490967Y203337D01*
X490926Y203335D01*
X490909D01*
X490896Y203337D01*
X490881D01*
X490863Y203339D01*
X490844Y203340D01*
X490824Y203344D01*
X490780Y203353D01*
X490733Y203366D01*
X490689Y203385D01*
X490669Y203396D01*
X490650Y203409D01*
X490648Y203411D01*
X490647Y203413D01*
X490635Y203424D01*
X490619Y203440D01*
X490600Y203466D01*
X490580Y203498D01*
X490559Y203535D01*
X490543Y203581D01*
X490530Y203633D01*
X490685Y203657D01*
Y203655D01*
Y203653D01*
X490689Y203642D01*
X490693Y203624D01*
X490700Y203603D01*
X490709Y203581D01*
X490720Y203557D01*
X490737Y203533D01*
X490757Y203512D01*
X490761Y203511D01*
X490768Y203505D01*
X490783Y203498D01*
X490802Y203488D01*
X490826Y203479D01*
X490854Y203472D01*
X490887Y203466D01*
X490926Y203464D01*
X490944D01*
X490963Y203466D01*
X490987Y203470D01*
X491013Y203475D01*
X491041Y203483D01*
X491065Y203492D01*
X491087Y203507D01*
X491089Y203509D01*
X491096Y203514D01*
X491103Y203524D01*
X491115Y203537D01*
X491124Y203551D01*
X491133Y203570D01*
X491139Y203588D01*
X491140Y203610D01*
Y203612D01*
Y203620D01*
X491139Y203629D01*
X491135Y203642D01*
X491129Y203655D01*
X491120Y203668D01*
X491109Y203683D01*
X491092Y203694D01*
X491090Y203696D01*
X491085Y203697D01*
X491076Y203703D01*
X491061Y203709D01*
X491039Y203716D01*
X491026Y203721D01*
X491011Y203725D01*
X490994Y203731D01*
X490976Y203736D01*
X490955Y203742D01*
X490931Y203747D01*
X490930D01*
X490924Y203749D01*
X490915Y203751D01*
X490904Y203755D01*
X490889Y203759D01*
X490872Y203764D01*
X490837Y203773D01*
X490796Y203786D01*
X490757Y203797D01*
X490720Y203810D01*
X490704Y203818D01*
X490691Y203823D01*
X490687Y203825D01*
X490680Y203829D01*
X490669Y203836D01*
X490654Y203846D01*
X490637Y203858D01*
X490621Y203873D01*
X490604Y203890D01*
X490589Y203910D01*
X490587Y203912D01*
X490584Y203920D01*
X490578Y203932D01*
X490573Y203947D01*
X490567Y203966D01*
X490561Y203988D01*
X490558Y204010D01*
X490556Y204036D01*
Y204040D01*
Y204047D01*
X490558Y204058D01*
X490559Y204075D01*
X490563Y204092D01*
X490567Y204112D01*
X490574Y204130D01*
X490584Y204151D01*
X490585Y204152D01*
X490589Y204160D01*
X490595Y204169D01*
X490604Y204182D01*
X490615Y204195D01*
X490628Y204212D01*
X490643Y204226D01*
X490661Y204240D01*
X490663Y204241D01*
X490669Y204243D01*
X490676Y204249D01*
X490687Y204254D01*
X490702Y204262D01*
X490719Y204269D01*
X490739Y204276D01*
X490761Y204284D01*
X490765Y204286D01*
X490772Y204288D01*
X490785Y204291D01*
X490802Y204295D01*
X490822Y204299D01*
X490844Y204300D01*
X490870Y204304D01*
X490915D01*
X490935Y204302D01*
D02*
G37*
G36*
X486615D02*
X486626D01*
X486641Y204300D01*
X486676Y204295D01*
X486715Y204286D01*
X486756Y204271D01*
X486797Y204252D01*
X486835Y204226D01*
X486837D01*
X486839Y204223D01*
X486850Y204212D01*
X486867Y204195D01*
X486887Y204171D01*
X486908Y204141D01*
X486928Y204104D01*
X486946Y204062D01*
X486959Y204012D01*
X486806Y203988D01*
Y203990D01*
X486804Y203992D01*
X486802Y204003D01*
X486797Y204019D01*
X486787Y204040D01*
X486778Y204062D01*
X486763Y204086D01*
X486747Y204108D01*
X486728Y204127D01*
X486726Y204129D01*
X486719Y204134D01*
X486706Y204141D01*
X486691Y204151D01*
X486671Y204160D01*
X486649Y204167D01*
X486623Y204173D01*
X486595Y204175D01*
X486584D01*
X486575Y204173D01*
X486554Y204171D01*
X486526Y204164D01*
X486497Y204154D01*
X486464Y204140D01*
X486432Y204117D01*
X486417Y204104D01*
X486403Y204090D01*
Y204088D01*
X486399Y204086D01*
X486395Y204080D01*
X486391Y204073D01*
X486386Y204064D01*
X486378Y204053D01*
X486373Y204040D01*
X486366Y204025D01*
X486358Y204006D01*
X486353Y203986D01*
X486345Y203964D01*
X486340Y203940D01*
X486336Y203914D01*
X486332Y203884D01*
X486329Y203853D01*
Y203820D01*
Y203818D01*
Y203812D01*
Y203801D01*
X486330Y203790D01*
Y203773D01*
X486332Y203757D01*
X486338Y203716D01*
X486345Y203672D01*
X486358Y203625D01*
X486375Y203585D01*
X486386Y203564D01*
X486399Y203548D01*
X486403Y203544D01*
X486412Y203535D01*
X486428Y203522D01*
X486449Y203507D01*
X486477Y203490D01*
X486508Y203477D01*
X486545Y203468D01*
X486565Y203466D01*
X486586Y203464D01*
X486589D01*
X486600Y203466D01*
X486619Y203468D01*
X486639Y203472D01*
X486663Y203477D01*
X486689Y203488D01*
X486715Y203501D01*
X486739Y203520D01*
X486743Y203522D01*
X486749Y203531D01*
X486760Y203544D01*
X486772Y203564D01*
X486786Y203588D01*
X486800Y203618D01*
X486811Y203655D01*
X486819Y203696D01*
X486974Y203675D01*
Y203673D01*
X486972Y203668D01*
X486971Y203660D01*
X486969Y203649D01*
X486965Y203635D01*
X486961Y203620D01*
X486948Y203583D01*
X486932Y203544D01*
X486908Y203501D01*
X486878Y203461D01*
X486861Y203442D01*
X486843Y203424D01*
X486841Y203422D01*
X486837Y203420D01*
X486832Y203416D01*
X486824Y203411D01*
X486815Y203403D01*
X486802Y203396D01*
X486787Y203389D01*
X486772Y203379D01*
X486735Y203363D01*
X486691Y203350D01*
X486643Y203339D01*
X486615Y203337D01*
X486588Y203335D01*
X486569D01*
X486556Y203337D01*
X486540Y203339D01*
X486521Y203342D01*
X486501Y203346D01*
X486478Y203350D01*
X486428Y203364D01*
X486404Y203376D01*
X486378Y203387D01*
X486353Y203401D01*
X486329Y203418D01*
X486305Y203437D01*
X486282Y203459D01*
X486280Y203461D01*
X486277Y203464D01*
X486271Y203472D01*
X486264Y203481D01*
X486256Y203494D01*
X486245Y203511D01*
X486236Y203529D01*
X486225Y203550D01*
X486214Y203573D01*
X486205Y203601D01*
X486194Y203629D01*
X486186Y203662D01*
X486179Y203696D01*
X486173Y203734D01*
X486169Y203773D01*
X486168Y203816D01*
Y203818D01*
Y203823D01*
Y203831D01*
Y203842D01*
X486169Y203855D01*
Y203870D01*
X486171Y203886D01*
X486173Y203905D01*
X486179Y203945D01*
X486188Y203990D01*
X486199Y204034D01*
X486216Y204079D01*
Y204080D01*
X486218Y204084D01*
X486221Y204090D01*
X486225Y204097D01*
X486236Y204117D01*
X486253Y204141D01*
X486275Y204169D01*
X486301Y204197D01*
X486332Y204225D01*
X486367Y204247D01*
X486369D01*
X486373Y204249D01*
X486378Y204252D01*
X486386Y204256D01*
X486395Y204260D01*
X486406Y204265D01*
X486434Y204276D01*
X486465Y204286D01*
X486504Y204295D01*
X486545Y204302D01*
X486589Y204304D01*
X486604D01*
X486615Y204302D01*
D02*
G37*
G36*
X476705Y203762D02*
Y203760D01*
Y203755D01*
Y203747D01*
Y203736D01*
X476703Y203721D01*
Y203707D01*
X476699Y203672D01*
X476696Y203631D01*
X476688Y203588D01*
X476677Y203550D01*
X476664Y203512D01*
Y203511D01*
X476662Y203509D01*
X476657Y203498D01*
X476648Y203483D01*
X476635Y203463D01*
X476616Y203442D01*
X476596Y203420D01*
X476570Y203398D01*
X476540Y203379D01*
X476537Y203377D01*
X476525Y203372D01*
X476509Y203364D01*
X476485Y203357D01*
X476455Y203348D01*
X476422Y203340D01*
X476385Y203335D01*
X476344Y203333D01*
X476328D01*
X476316Y203335D01*
X476302Y203337D01*
X476287Y203339D01*
X476248Y203346D01*
X476207Y203357D01*
X476165Y203374D01*
X476143Y203385D01*
X476122Y203398D01*
X476104Y203413D01*
X476085Y203429D01*
X476083Y203431D01*
X476081Y203433D01*
X476078Y203440D01*
X476072Y203448D01*
X476065Y203457D01*
X476057Y203470D01*
X476050Y203485D01*
X476041Y203501D01*
X476033Y203520D01*
X476026Y203542D01*
X476018Y203564D01*
X476011Y203590D01*
X476007Y203618D01*
X476002Y203649D01*
X476000Y203681D01*
Y203716D01*
X476154Y203738D01*
Y203736D01*
Y203733D01*
Y203725D01*
X476155Y203714D01*
X476157Y203703D01*
Y203690D01*
X476163Y203659D01*
X476168Y203625D01*
X476179Y203592D01*
X476191Y203562D01*
X476198Y203550D01*
X476207Y203538D01*
X476209Y203537D01*
X476216Y203531D01*
X476228Y203522D01*
X476242Y203512D01*
X476263Y203501D01*
X476285Y203494D01*
X476313Y203487D01*
X476342Y203485D01*
X476353D01*
X476365Y203487D01*
X476381Y203488D01*
X476398Y203492D01*
X476416Y203496D01*
X476435Y203503D01*
X476453Y203512D01*
X476455Y203514D01*
X476461Y203518D01*
X476468Y203525D01*
X476479Y203533D01*
X476488Y203546D01*
X476500Y203559D01*
X476509Y203573D01*
X476516Y203592D01*
Y203594D01*
X476520Y203601D01*
X476522Y203614D01*
X476525Y203631D01*
X476529Y203653D01*
X476531Y203681D01*
X476535Y203714D01*
Y203753D01*
Y204635D01*
X476705D01*
Y203762D01*
D02*
G37*
G36*
X477711Y203355D02*
X477571D01*
Y203490D01*
X477569Y203488D01*
X477565Y203483D01*
X477560Y203475D01*
X477550Y203466D01*
X477539Y203455D01*
X477526Y203440D01*
X477511Y203427D01*
X477493Y203413D01*
X477473Y203398D01*
X477450Y203385D01*
X477426Y203372D01*
X477400Y203359D01*
X477371Y203350D01*
X477341Y203342D01*
X477308Y203337D01*
X477275Y203335D01*
X477262D01*
X477245Y203337D01*
X477225Y203339D01*
X477201Y203342D01*
X477175Y203348D01*
X477149Y203355D01*
X477121Y203366D01*
X477117Y203368D01*
X477110Y203372D01*
X477097Y203379D01*
X477082Y203389D01*
X477064Y203400D01*
X477047Y203413D01*
X477031Y203427D01*
X477016Y203444D01*
X477014Y203446D01*
X477010Y203453D01*
X477005Y203463D01*
X476997Y203477D01*
X476988Y203494D01*
X476980Y203514D01*
X476973Y203537D01*
X476968Y203560D01*
Y203562D01*
X476966Y203570D01*
X476964Y203581D01*
Y203596D01*
X476962Y203618D01*
X476960Y203642D01*
X476958Y203673D01*
Y203709D01*
Y204284D01*
X477115D01*
Y203768D01*
Y203766D01*
Y203762D01*
Y203757D01*
Y203747D01*
Y203727D01*
X477117Y203701D01*
Y203673D01*
X477119Y203646D01*
X477121Y203622D01*
X477125Y203601D01*
Y203599D01*
X477129Y203592D01*
X477132Y203581D01*
X477138Y203566D01*
X477147Y203551D01*
X477158Y203535D01*
X477171Y203520D01*
X477188Y203505D01*
X477189Y203503D01*
X477197Y203500D01*
X477206Y203494D01*
X477221Y203488D01*
X477238Y203481D01*
X477258Y203475D01*
X477280Y203472D01*
X477306Y203470D01*
X477319D01*
X477332Y203472D01*
X477349Y203474D01*
X477369Y203479D01*
X477391Y203485D01*
X477415Y203494D01*
X477439Y203505D01*
X477443Y203507D01*
X477450Y203512D01*
X477461Y203520D01*
X477474Y203531D01*
X477489Y203546D01*
X477504Y203562D01*
X477517Y203581D01*
X477528Y203603D01*
X477530Y203607D01*
X477532Y203614D01*
X477535Y203629D01*
X477541Y203649D01*
X477547Y203675D01*
X477550Y203707D01*
X477552Y203744D01*
X477554Y203786D01*
Y204284D01*
X477711D01*
Y203355D01*
D02*
G37*
G36*
X488760Y204177D02*
X488761Y204178D01*
X488765Y204182D01*
X488771Y204188D01*
X488780Y204197D01*
X488789Y204206D01*
X488802Y204217D01*
X488819Y204228D01*
X488835Y204241D01*
X488854Y204252D01*
X488874Y204264D01*
X488922Y204284D01*
X488948Y204293D01*
X488976Y204299D01*
X489006Y204302D01*
X489035Y204304D01*
X489052D01*
X489072Y204302D01*
X489096Y204299D01*
X489124Y204295D01*
X489153Y204288D01*
X489183Y204276D01*
X489213Y204264D01*
X489216Y204262D01*
X489226Y204256D01*
X489239Y204247D01*
X489255Y204234D01*
X489272Y204217D01*
X489290Y204199D01*
X489307Y204177D01*
X489322Y204151D01*
X489324Y204147D01*
X489327Y204138D01*
X489333Y204121D01*
X489338Y204097D01*
X489344Y204067D01*
X489350Y204032D01*
X489353Y203990D01*
X489355Y203942D01*
Y203355D01*
X489198D01*
Y203943D01*
Y203945D01*
Y203949D01*
Y203955D01*
Y203962D01*
X489196Y203982D01*
X489192Y204008D01*
X489185Y204036D01*
X489176Y204064D01*
X489163Y204092D01*
X489146Y204114D01*
X489144Y204116D01*
X489137Y204123D01*
X489126Y204132D01*
X489109Y204141D01*
X489089Y204152D01*
X489065Y204160D01*
X489035Y204167D01*
X489002Y204169D01*
X488991D01*
X488978Y204167D01*
X488959Y204166D01*
X488941Y204160D01*
X488918Y204154D01*
X488896Y204145D01*
X488872Y204132D01*
X488870Y204130D01*
X488863Y204125D01*
X488852Y204117D01*
X488839Y204106D01*
X488824Y204092D01*
X488809Y204075D01*
X488797Y204054D01*
X488785Y204032D01*
X488784Y204029D01*
X488782Y204021D01*
X488778Y204006D01*
X488772Y203988D01*
X488767Y203964D01*
X488763Y203934D01*
X488761Y203901D01*
X488760Y203862D01*
Y203355D01*
X488602D01*
Y204635D01*
X488760D01*
Y204177D01*
D02*
G37*
G36*
X488288Y204284D02*
X488447D01*
Y204162D01*
X488288D01*
Y203616D01*
Y203612D01*
Y203605D01*
Y203594D01*
X488289Y203581D01*
X488291Y203551D01*
X488293Y203538D01*
X488295Y203529D01*
X488297Y203525D01*
X488303Y203518D01*
X488310Y203509D01*
X488323Y203500D01*
X488327Y203498D01*
X488336Y203494D01*
X488352Y203490D01*
X488377Y203488D01*
X488395D01*
X488404Y203490D01*
X488417D01*
X488432Y203492D01*
X488447Y203494D01*
X488467Y203355D01*
X488463D01*
X488456Y203353D01*
X488443Y203351D01*
X488426Y203350D01*
X488408Y203346D01*
X488388Y203344D01*
X488347Y203342D01*
X488332D01*
X488317Y203344D01*
X488299Y203346D01*
X488277Y203348D01*
X488254Y203353D01*
X488234Y203359D01*
X488214Y203368D01*
X488212Y203370D01*
X488206Y203374D01*
X488199Y203379D01*
X488188Y203389D01*
X488178Y203398D01*
X488167Y203411D01*
X488156Y203424D01*
X488149Y203440D01*
Y203442D01*
X488145Y203450D01*
X488143Y203463D01*
X488140Y203481D01*
X488136Y203505D01*
X488134Y203520D01*
Y203537D01*
X488132Y203557D01*
X488131Y203577D01*
Y203599D01*
Y203625D01*
Y204162D01*
X488014D01*
Y204284D01*
X488131D01*
Y204513D01*
X488288Y204608D01*
Y204284D01*
D02*
G37*
G36*
X487292D02*
X487452D01*
Y204162D01*
X487292D01*
Y203616D01*
Y203612D01*
Y203605D01*
Y203594D01*
X487294Y203581D01*
X487296Y203551D01*
X487298Y203538D01*
X487300Y203529D01*
X487302Y203525D01*
X487307Y203518D01*
X487315Y203509D01*
X487327Y203500D01*
X487331Y203498D01*
X487340Y203494D01*
X487357Y203490D01*
X487381Y203488D01*
X487400D01*
X487409Y203490D01*
X487422D01*
X487437Y203492D01*
X487452Y203494D01*
X487472Y203355D01*
X487468D01*
X487461Y203353D01*
X487448Y203351D01*
X487431Y203350D01*
X487413Y203346D01*
X487392Y203344D01*
X487352Y203342D01*
X487337D01*
X487322Y203344D01*
X487303Y203346D01*
X487281Y203348D01*
X487259Y203353D01*
X487239Y203359D01*
X487218Y203368D01*
X487217Y203370D01*
X487211Y203374D01*
X487204Y203379D01*
X487192Y203389D01*
X487183Y203398D01*
X487172Y203411D01*
X487161Y203424D01*
X487154Y203440D01*
Y203442D01*
X487150Y203450D01*
X487148Y203463D01*
X487144Y203481D01*
X487141Y203505D01*
X487139Y203520D01*
Y203537D01*
X487137Y203557D01*
X487135Y203577D01*
Y203599D01*
Y203625D01*
Y204162D01*
X487019D01*
Y204284D01*
X487135D01*
Y204513D01*
X487292Y204608D01*
Y204284D01*
D02*
G37*
G36*
X491899Y204302D02*
X491914Y204300D01*
X491932Y204297D01*
X491953Y204293D01*
X491977Y204288D01*
X491999Y204282D01*
X492025Y204273D01*
X492049Y204264D01*
X492075Y204251D01*
X492101Y204236D01*
X492127Y204219D01*
X492150Y204199D01*
X492173Y204177D01*
X492174Y204175D01*
X492178Y204171D01*
X492184Y204164D01*
X492191Y204152D01*
X492201Y204140D01*
X492210Y204125D01*
X492221Y204106D01*
X492232Y204084D01*
X492243Y204060D01*
X492254Y204034D01*
X492263Y204005D01*
X492273Y203973D01*
X492280Y203938D01*
X492285Y203901D01*
X492289Y203862D01*
X492291Y203820D01*
Y203818D01*
Y203810D01*
Y203797D01*
X492289Y203779D01*
X491596D01*
Y203777D01*
Y203771D01*
X491597Y203764D01*
Y203753D01*
X491599Y203740D01*
X491603Y203725D01*
X491608Y203692D01*
X491619Y203655D01*
X491634Y203614D01*
X491655Y203577D01*
X491681Y203544D01*
X491682D01*
X491684Y203540D01*
X491695Y203531D01*
X491712Y203518D01*
X491734Y203505D01*
X491764Y203490D01*
X491797Y203477D01*
X491834Y203468D01*
X491854Y203466D01*
X491877Y203464D01*
X491891D01*
X491908Y203466D01*
X491928Y203470D01*
X491951Y203475D01*
X491977Y203483D01*
X492001Y203494D01*
X492025Y203509D01*
X492027Y203511D01*
X492036Y203518D01*
X492047Y203529D01*
X492060Y203544D01*
X492075Y203564D01*
X492091Y203590D01*
X492108Y203620D01*
X492123Y203655D01*
X492285Y203635D01*
Y203633D01*
X492284Y203629D01*
X492282Y203622D01*
X492278Y203610D01*
X492273Y203599D01*
X492267Y203585D01*
X492252Y203553D01*
X492234Y203518D01*
X492208Y203481D01*
X492178Y203446D01*
X492141Y203413D01*
X492139D01*
X492136Y203409D01*
X492130Y203405D01*
X492123Y203400D01*
X492112Y203394D01*
X492101Y203389D01*
X492086Y203381D01*
X492069Y203374D01*
X492051Y203366D01*
X492032Y203359D01*
X491986Y203348D01*
X491934Y203339D01*
X491877Y203335D01*
X491856D01*
X491843Y203337D01*
X491827Y203339D01*
X491806Y203342D01*
X491784Y203346D01*
X491760Y203350D01*
X491708Y203364D01*
X491681Y203376D01*
X491655Y203387D01*
X491627Y203401D01*
X491601Y203418D01*
X491577Y203437D01*
X491553Y203459D01*
X491551Y203461D01*
X491547Y203464D01*
X491542Y203472D01*
X491535Y203483D01*
X491525Y203496D01*
X491516Y203511D01*
X491505Y203529D01*
X491494Y203550D01*
X491483Y203573D01*
X491472Y203599D01*
X491462Y203629D01*
X491453Y203660D01*
X491446Y203694D01*
X491440Y203731D01*
X491436Y203770D01*
X491435Y203810D01*
Y203812D01*
Y203821D01*
Y203833D01*
X491436Y203849D01*
X491438Y203870D01*
X491440Y203892D01*
X491444Y203918D01*
X491449Y203943D01*
X491464Y204003D01*
X491473Y204032D01*
X491484Y204064D01*
X491499Y204093D01*
X491516Y204121D01*
X491535Y204149D01*
X491555Y204175D01*
X491557Y204177D01*
X491560Y204180D01*
X491568Y204186D01*
X491577Y204195D01*
X491588Y204204D01*
X491603Y204216D01*
X491619Y204228D01*
X491640Y204240D01*
X491660Y204252D01*
X491684Y204264D01*
X491710Y204275D01*
X491738Y204284D01*
X491768Y204293D01*
X491799Y204299D01*
X491832Y204302D01*
X491867Y204304D01*
X491886D01*
X491899Y204302D01*
D02*
G37*
G36*
X490008D02*
X490023Y204300D01*
X490041Y204297D01*
X490062Y204293D01*
X490086Y204288D01*
X490108Y204282D01*
X490134Y204273D01*
X490158Y204264D01*
X490184Y204251D01*
X490210Y204236D01*
X490236Y204219D01*
X490260Y204199D01*
X490282Y204177D01*
X490284Y204175D01*
X490288Y204171D01*
X490293Y204164D01*
X490301Y204152D01*
X490310Y204140D01*
X490319Y204125D01*
X490330Y204106D01*
X490341Y204084D01*
X490352Y204060D01*
X490363Y204034D01*
X490373Y204005D01*
X490382Y203973D01*
X490389Y203938D01*
X490395Y203901D01*
X490399Y203862D01*
X490400Y203820D01*
Y203818D01*
Y203810D01*
Y203797D01*
X490399Y203779D01*
X489705D01*
Y203777D01*
Y203771D01*
X489707Y203764D01*
Y203753D01*
X489709Y203740D01*
X489712Y203725D01*
X489718Y203692D01*
X489729Y203655D01*
X489744Y203614D01*
X489764Y203577D01*
X489790Y203544D01*
X489792D01*
X489794Y203540D01*
X489805Y203531D01*
X489821Y203518D01*
X489844Y203505D01*
X489873Y203490D01*
X489907Y203477D01*
X489944Y203468D01*
X489964Y203466D01*
X489986Y203464D01*
X490001D01*
X490018Y203466D01*
X490038Y203470D01*
X490060Y203475D01*
X490086Y203483D01*
X490110Y203494D01*
X490134Y203509D01*
X490136Y203511D01*
X490145Y203518D01*
X490156Y203529D01*
X490169Y203544D01*
X490184Y203564D01*
X490201Y203590D01*
X490217Y203620D01*
X490232Y203655D01*
X490395Y203635D01*
Y203633D01*
X490393Y203629D01*
X490391Y203622D01*
X490387Y203610D01*
X490382Y203599D01*
X490376Y203585D01*
X490361Y203553D01*
X490343Y203518D01*
X490317Y203481D01*
X490288Y203446D01*
X490251Y203413D01*
X490249D01*
X490245Y203409D01*
X490239Y203405D01*
X490232Y203400D01*
X490221Y203394D01*
X490210Y203389D01*
X490195Y203381D01*
X490178Y203374D01*
X490160Y203366D01*
X490141Y203359D01*
X490095Y203348D01*
X490043Y203339D01*
X489986Y203335D01*
X489966D01*
X489953Y203337D01*
X489936Y203339D01*
X489916Y203342D01*
X489893Y203346D01*
X489869Y203350D01*
X489818Y203364D01*
X489790Y203376D01*
X489764Y203387D01*
X489736Y203401D01*
X489710Y203418D01*
X489686Y203437D01*
X489662Y203459D01*
X489660Y203461D01*
X489657Y203464D01*
X489651Y203472D01*
X489644Y203483D01*
X489635Y203496D01*
X489625Y203511D01*
X489614Y203529D01*
X489603Y203550D01*
X489592Y203573D01*
X489581Y203599D01*
X489572Y203629D01*
X489562Y203660D01*
X489555Y203694D01*
X489549Y203731D01*
X489546Y203770D01*
X489544Y203810D01*
Y203812D01*
Y203821D01*
Y203833D01*
X489546Y203849D01*
X489547Y203870D01*
X489549Y203892D01*
X489553Y203918D01*
X489559Y203943D01*
X489573Y204003D01*
X489583Y204032D01*
X489594Y204064D01*
X489609Y204093D01*
X489625Y204121D01*
X489644Y204149D01*
X489664Y204175D01*
X489666Y204177D01*
X489670Y204180D01*
X489677Y204186D01*
X489686Y204195D01*
X489697Y204204D01*
X489712Y204216D01*
X489729Y204228D01*
X489749Y204240D01*
X489770Y204252D01*
X489794Y204264D01*
X489819Y204275D01*
X489847Y204284D01*
X489877Y204293D01*
X489908Y204299D01*
X489942Y204302D01*
X489977Y204304D01*
X489995D01*
X490008Y204302D01*
D02*
G37*
G36*
X485629D02*
X485644Y204300D01*
X485663Y204297D01*
X485683Y204293D01*
X485707Y204288D01*
X485729Y204282D01*
X485755Y204273D01*
X485779Y204264D01*
X485805Y204251D01*
X485831Y204236D01*
X485857Y204219D01*
X485881Y204199D01*
X485903Y204177D01*
X485905Y204175D01*
X485909Y204171D01*
X485914Y204164D01*
X485922Y204152D01*
X485931Y204140D01*
X485940Y204125D01*
X485951Y204106D01*
X485962Y204084D01*
X485973Y204060D01*
X485985Y204034D01*
X485994Y204005D01*
X486003Y203973D01*
X486010Y203938D01*
X486016Y203901D01*
X486020Y203862D01*
X486022Y203820D01*
Y203818D01*
Y203810D01*
Y203797D01*
X486020Y203779D01*
X485326D01*
Y203777D01*
Y203771D01*
X485328Y203764D01*
Y203753D01*
X485330Y203740D01*
X485333Y203725D01*
X485339Y203692D01*
X485350Y203655D01*
X485365Y203614D01*
X485385Y203577D01*
X485411Y203544D01*
X485413D01*
X485415Y203540D01*
X485426Y203531D01*
X485442Y203518D01*
X485465Y203505D01*
X485494Y203490D01*
X485528Y203477D01*
X485565Y203468D01*
X485585Y203466D01*
X485607Y203464D01*
X485622D01*
X485639Y203466D01*
X485659Y203470D01*
X485681Y203475D01*
X485707Y203483D01*
X485731Y203494D01*
X485755Y203509D01*
X485757Y203511D01*
X485766Y203518D01*
X485777Y203529D01*
X485790Y203544D01*
X485805Y203564D01*
X485822Y203590D01*
X485838Y203620D01*
X485853Y203655D01*
X486016Y203635D01*
Y203633D01*
X486014Y203629D01*
X486012Y203622D01*
X486009Y203610D01*
X486003Y203599D01*
X485997Y203585D01*
X485983Y203553D01*
X485964Y203518D01*
X485938Y203481D01*
X485909Y203446D01*
X485872Y203413D01*
X485870D01*
X485866Y203409D01*
X485860Y203405D01*
X485853Y203400D01*
X485842Y203394D01*
X485831Y203389D01*
X485816Y203381D01*
X485799Y203374D01*
X485781Y203366D01*
X485762Y203359D01*
X485716Y203348D01*
X485664Y203339D01*
X485607Y203335D01*
X485587D01*
X485574Y203337D01*
X485557Y203339D01*
X485537Y203342D01*
X485514Y203346D01*
X485491Y203350D01*
X485439Y203364D01*
X485411Y203376D01*
X485385Y203387D01*
X485357Y203401D01*
X485331Y203418D01*
X485307Y203437D01*
X485283Y203459D01*
X485282Y203461D01*
X485278Y203464D01*
X485272Y203472D01*
X485265Y203483D01*
X485256Y203496D01*
X485246Y203511D01*
X485235Y203529D01*
X485224Y203550D01*
X485213Y203573D01*
X485202Y203599D01*
X485193Y203629D01*
X485183Y203660D01*
X485176Y203694D01*
X485170Y203731D01*
X485167Y203770D01*
X485165Y203810D01*
Y203812D01*
Y203821D01*
Y203833D01*
X485167Y203849D01*
X485169Y203870D01*
X485170Y203892D01*
X485174Y203918D01*
X485180Y203943D01*
X485194Y204003D01*
X485204Y204032D01*
X485215Y204064D01*
X485230Y204093D01*
X485246Y204121D01*
X485265Y204149D01*
X485285Y204175D01*
X485287Y204177D01*
X485291Y204180D01*
X485298Y204186D01*
X485307Y204195D01*
X485319Y204204D01*
X485333Y204216D01*
X485350Y204228D01*
X485370Y204240D01*
X485391Y204252D01*
X485415Y204264D01*
X485440Y204275D01*
X485468Y204284D01*
X485498Y204293D01*
X485529Y204299D01*
X485563Y204302D01*
X485598Y204304D01*
X485616D01*
X485629Y204302D01*
D02*
G37*
G36*
X482640D02*
X482656Y204300D01*
X482675Y204297D01*
X482695Y204293D01*
X482719Y204290D01*
X482769Y204273D01*
X482795Y204264D01*
X482821Y204251D01*
X482847Y204238D01*
X482873Y204219D01*
X482897Y204201D01*
X482921Y204178D01*
X482923Y204177D01*
X482926Y204173D01*
X482932Y204166D01*
X482939Y204156D01*
X482949Y204143D01*
X482960Y204127D01*
X482971Y204108D01*
X482982Y204088D01*
X482993Y204066D01*
X483004Y204038D01*
X483015Y204010D01*
X483024Y203979D01*
X483032Y203945D01*
X483037Y203910D01*
X483041Y203873D01*
X483043Y203833D01*
Y203831D01*
Y203825D01*
Y203816D01*
Y203803D01*
X483041Y203788D01*
X483039Y203770D01*
Y203751D01*
X483036Y203731D01*
X483030Y203684D01*
X483019Y203638D01*
X483006Y203592D01*
X482987Y203550D01*
Y203548D01*
X482986Y203546D01*
X482982Y203540D01*
X482978Y203533D01*
X482965Y203514D01*
X482949Y203492D01*
X482926Y203466D01*
X482899Y203440D01*
X482867Y203414D01*
X482830Y203390D01*
X482828D01*
X482827Y203389D01*
X482821Y203385D01*
X482812Y203381D01*
X482802Y203377D01*
X482791Y203374D01*
X482764Y203363D01*
X482732Y203353D01*
X482693Y203344D01*
X482653Y203337D01*
X482608Y203335D01*
X482590D01*
X482575Y203337D01*
X482558Y203339D01*
X482540Y203342D01*
X482518Y203346D01*
X482495Y203350D01*
X482445Y203364D01*
X482418Y203376D01*
X482392Y203387D01*
X482366Y203401D01*
X482340Y203418D01*
X482316Y203437D01*
X482292Y203459D01*
X482290Y203461D01*
X482286Y203464D01*
X482281Y203472D01*
X482273Y203483D01*
X482264Y203496D01*
X482255Y203511D01*
X482244Y203529D01*
X482233Y203551D01*
X482222Y203575D01*
X482210Y203603D01*
X482201Y203633D01*
X482192Y203664D01*
X482185Y203699D01*
X482179Y203736D01*
X482175Y203777D01*
X482173Y203820D01*
Y203823D01*
Y203831D01*
X482175Y203844D01*
Y203862D01*
X482177Y203882D01*
X482181Y203908D01*
X482185Y203934D01*
X482192Y203964D01*
X482199Y203994D01*
X482209Y204025D01*
X482220Y204058D01*
X482234Y204090D01*
X482249Y204119D01*
X482270Y204149D01*
X482290Y204177D01*
X482316Y204201D01*
X482318Y204203D01*
X482322Y204204D01*
X482329Y204210D01*
X482338Y204217D01*
X482349Y204225D01*
X482364Y204234D01*
X482379Y204243D01*
X482397Y204252D01*
X482418Y204262D01*
X482440Y204271D01*
X482490Y204288D01*
X482547Y204300D01*
X482577Y204302D01*
X482608Y204304D01*
X482627D01*
X482640Y204302D01*
D02*
G37*
%LPC*%
G36*
X479844Y204180D02*
X479835D01*
X479828Y204178D01*
X479809Y204175D01*
X479785Y204169D01*
X479757Y204158D01*
X479728Y204141D01*
X479711Y204130D01*
X479696Y204117D01*
X479681Y204103D01*
X479667Y204086D01*
Y204084D01*
X479663Y204082D01*
X479659Y204077D01*
X479656Y204069D01*
X479650Y204058D01*
X479643Y204047D01*
X479635Y204032D01*
X479630Y204017D01*
X479622Y203999D01*
X479615Y203979D01*
X479609Y203956D01*
X479602Y203932D01*
X479598Y203905D01*
X479595Y203877D01*
X479591Y203847D01*
Y203814D01*
Y203812D01*
Y203807D01*
Y203797D01*
X479593Y203784D01*
Y203770D01*
X479595Y203753D01*
X479600Y203714D01*
X479609Y203670D01*
X479620Y203627D01*
X479639Y203585D01*
X479650Y203566D01*
X479663Y203550D01*
X479667Y203546D01*
X479676Y203537D01*
X479691Y203522D01*
X479711Y203507D01*
X479737Y203492D01*
X479767Y203477D01*
X479800Y203468D01*
X479818Y203466D01*
X479837Y203464D01*
X479848D01*
X479855Y203466D01*
X479874Y203470D01*
X479900Y203475D01*
X479927Y203487D01*
X479957Y203501D01*
X479987Y203524D01*
X480002Y203537D01*
X480016Y203551D01*
Y203553D01*
X480020Y203555D01*
X480024Y203560D01*
X480027Y203568D01*
X480035Y203577D01*
X480040Y203590D01*
X480048Y203603D01*
X480055Y203620D01*
X480061Y203636D01*
X480068Y203659D01*
X480076Y203681D01*
X480081Y203705D01*
X480085Y203733D01*
X480089Y203762D01*
X480092Y203794D01*
Y203827D01*
Y203829D01*
Y203834D01*
Y203844D01*
X480090Y203856D01*
Y203871D01*
X480089Y203888D01*
X480083Y203927D01*
X480074Y203969D01*
X480061Y204012D01*
X480042Y204054D01*
X480031Y204075D01*
X480018Y204092D01*
Y204093D01*
X480015Y204095D01*
X480005Y204106D01*
X479990Y204119D01*
X479970Y204136D01*
X479944Y204152D01*
X479915Y204167D01*
X479881Y204177D01*
X479863Y204178D01*
X479844Y204180D01*
D02*
G37*
G36*
X491869Y204175D02*
X491858D01*
X491851Y204173D01*
X491830Y204171D01*
X491806Y204166D01*
X491777Y204156D01*
X491745Y204143D01*
X491716Y204125D01*
X491686Y204101D01*
X491682Y204097D01*
X491675Y204088D01*
X491662Y204071D01*
X491649Y204049D01*
X491634Y204023D01*
X491621Y203990D01*
X491610Y203951D01*
X491605Y203908D01*
X492125D01*
Y203910D01*
Y203914D01*
X492123Y203920D01*
Y203927D01*
X492119Y203949D01*
X492113Y203973D01*
X492104Y204003D01*
X492095Y204030D01*
X492080Y204058D01*
X492064Y204082D01*
Y204084D01*
X492060Y204086D01*
X492051Y204097D01*
X492034Y204112D01*
X492012Y204129D01*
X491984Y204145D01*
X491951Y204160D01*
X491912Y204171D01*
X491891Y204173D01*
X491869Y204175D01*
D02*
G37*
G36*
X489979D02*
X489967D01*
X489960Y204173D01*
X489940Y204171D01*
X489916Y204166D01*
X489886Y204156D01*
X489855Y204143D01*
X489825Y204125D01*
X489795Y204101D01*
X489792Y204097D01*
X489784Y204088D01*
X489771Y204071D01*
X489758Y204049D01*
X489744Y204023D01*
X489731Y203990D01*
X489720Y203951D01*
X489714Y203908D01*
X490234D01*
Y203910D01*
Y203914D01*
X490232Y203920D01*
Y203927D01*
X490228Y203949D01*
X490223Y203973D01*
X490214Y204003D01*
X490204Y204030D01*
X490190Y204058D01*
X490173Y204082D01*
Y204084D01*
X490169Y204086D01*
X490160Y204097D01*
X490143Y204112D01*
X490121Y204129D01*
X490093Y204145D01*
X490060Y204160D01*
X490021Y204171D01*
X490001Y204173D01*
X489979Y204175D01*
D02*
G37*
G36*
X485600D02*
X485589D01*
X485581Y204173D01*
X485561Y204171D01*
X485537Y204166D01*
X485507Y204156D01*
X485476Y204143D01*
X485446Y204125D01*
X485417Y204101D01*
X485413Y204097D01*
X485405Y204088D01*
X485393Y204071D01*
X485380Y204049D01*
X485365Y204023D01*
X485352Y203990D01*
X485341Y203951D01*
X485335Y203908D01*
X485855D01*
Y203910D01*
Y203914D01*
X485853Y203920D01*
Y203927D01*
X485849Y203949D01*
X485844Y203973D01*
X485835Y204003D01*
X485825Y204030D01*
X485811Y204058D01*
X485794Y204082D01*
Y204084D01*
X485790Y204086D01*
X485781Y204097D01*
X485764Y204112D01*
X485742Y204129D01*
X485714Y204145D01*
X485681Y204160D01*
X485642Y204171D01*
X485622Y204173D01*
X485600Y204175D01*
D02*
G37*
G36*
X482608D02*
X482597D01*
X482588Y204173D01*
X482568Y204171D01*
X482540Y204164D01*
X482508Y204152D01*
X482475Y204138D01*
X482444Y204116D01*
X482427Y204101D01*
X482412Y204086D01*
Y204084D01*
X482408Y204082D01*
X482405Y204077D01*
X482399Y204069D01*
X482394Y204060D01*
X482388Y204049D01*
X482381Y204034D01*
X482373Y204019D01*
X482366Y204001D01*
X482358Y203982D01*
X482353Y203960D01*
X482347Y203936D01*
X482342Y203910D01*
X482338Y203882D01*
X482336Y203851D01*
X482334Y203820D01*
Y203818D01*
Y203812D01*
Y203803D01*
X482336Y203790D01*
Y203775D01*
X482338Y203759D01*
X482344Y203720D01*
X482353Y203675D01*
X482368Y203631D01*
X482386Y203588D01*
X482399Y203570D01*
X482412Y203551D01*
X482414D01*
X482416Y203548D01*
X482427Y203538D01*
X482444Y203524D01*
X482466Y203509D01*
X482493Y203492D01*
X482527Y203477D01*
X482566Y203468D01*
X482586Y203466D01*
X482608Y203464D01*
X482619D01*
X482628Y203466D01*
X482649Y203470D01*
X482677Y203475D01*
X482706Y203487D01*
X482739Y203501D01*
X482771Y203524D01*
X482788Y203538D01*
X482802Y203553D01*
X482804Y203555D01*
X482806Y203557D01*
X482810Y203562D01*
X482815Y203570D01*
X482821Y203579D01*
X482828Y203590D01*
X482836Y203605D01*
X482843Y203620D01*
X482851Y203638D01*
X482856Y203659D01*
X482864Y203681D01*
X482869Y203705D01*
X482875Y203733D01*
X482878Y203760D01*
X482882Y203792D01*
Y203825D01*
Y203827D01*
Y203833D01*
Y203842D01*
X482880Y203853D01*
Y203868D01*
X482878Y203884D01*
X482873Y203923D01*
X482864Y203964D01*
X482849Y204008D01*
X482828Y204049D01*
X482817Y204069D01*
X482802Y204086D01*
Y204088D01*
X482799Y204090D01*
X482788Y204101D01*
X482771Y204114D01*
X482749Y204130D01*
X482721Y204147D01*
X482688Y204162D01*
X482651Y204171D01*
X482630Y204173D01*
X482608Y204175D01*
D02*
G37*
%LPD*%
D10*
X507984Y119000D02*
X507246Y119426D01*
Y118574D01*
X507984Y119000D01*
X168492Y154642D02*
X167754Y155068D01*
Y154216D01*
X168492Y154642D01*
X335492Y286382D02*
X334754Y286808D01*
Y285956D01*
X335492Y286382D01*
X317846Y116921D02*
X317108Y117348D01*
Y116495D01*
X317846Y116921D01*
X525992Y286382D02*
X525254Y286808D01*
Y285956D01*
X525992Y286382D01*
X209492D02*
X208754Y286808D01*
Y285956D01*
X209492Y286382D01*
X398992Y285882D02*
X398254Y286308D01*
Y285456D01*
X398992Y285882D01*
X463492D02*
X462754Y286308D01*
Y285456D01*
X463492Y285882D01*
X179492Y493590D02*
X178754Y494017D01*
Y493164D01*
X179492Y493590D01*
X208992D02*
X208254Y494017D01*
Y493164D01*
X208992Y493590D01*
X272492D02*
X271754Y494017D01*
Y493164D01*
X272492Y493590D01*
X305992Y493248D02*
X305254Y493674D01*
Y492822D01*
X305992Y493248D01*
X335453D02*
X334715Y493674D01*
Y492822D01*
X335453Y493248D01*
X369492D02*
X368754Y493674D01*
Y492822D01*
X369492Y493248D01*
X398953D02*
X398215Y493674D01*
Y492822D01*
X398953Y493248D01*
X433492Y493590D02*
X432754Y494017D01*
Y493164D01*
X433492Y493590D01*
X462953Y493563D02*
X462215Y493989D01*
Y493137D01*
X462953Y493563D01*
X497453Y492591D02*
X496715Y493017D01*
Y492164D01*
X497453Y492591D01*
X526953Y492878D02*
X526215Y493304D01*
Y492452D01*
X526953Y492878D01*
X242992Y493590D02*
X242254Y494017D01*
Y493164D01*
X242992Y493590D01*
X271992Y286382D02*
X271254Y286808D01*
Y285956D01*
X271992Y286382D01*
X541492Y132886D02*
X540754Y133312D01*
Y132460D01*
X541492Y132886D01*
X504638Y119638D02*
X503900Y120064D01*
Y119212D01*
X504638Y119638D01*
X412484Y119000D02*
X411746Y119426D01*
Y118574D01*
X412484Y119000D01*
X218347Y277543D02*
X217608Y277970D01*
Y277117D01*
X218347Y277543D01*
X210906Y119831D02*
X210167Y120257D01*
Y119404D01*
X210906Y119831D01*
X280346Y277543D02*
X279608Y277970D01*
Y277117D01*
X280346Y277543D01*
X345346D02*
X344608Y277970D01*
Y277117D01*
X345346Y277543D01*
X407346Y278043D02*
X406608Y278469D01*
Y277617D01*
X407346Y278043D01*
X470847Y277543D02*
X470108Y277970D01*
Y277117D01*
X470847Y277543D01*
X520492Y276543D02*
X519754Y276970D01*
Y276117D01*
X520492Y276543D01*
D11*
X327677Y289374D02*
X327233Y290297D01*
X326233Y290526D01*
X325432Y289886D01*
Y288862D01*
X326233Y288223D01*
X327233Y288451D01*
X327677Y289374D01*
X518177D02*
X517732Y290297D01*
X516733Y290526D01*
X515932Y289886D01*
Y288862D01*
X516733Y288223D01*
X517732Y288451D01*
X518177Y289374D01*
X201677D02*
X201233Y290297D01*
X200233Y290526D01*
X199432Y289886D01*
Y288862D01*
X200233Y288223D01*
X201233Y288451D01*
X201677Y289374D01*
X391177Y288874D02*
X390733Y289797D01*
X389733Y290025D01*
X388932Y289387D01*
Y288362D01*
X389733Y287722D01*
X390733Y287951D01*
X391177Y288874D01*
X455677D02*
X455232Y289797D01*
X454233Y290025D01*
X453432Y289387D01*
Y288362D01*
X454233Y287722D01*
X455232Y287951D01*
X455677Y288874D01*
X264177Y289374D02*
X263733Y290297D01*
X262733Y290526D01*
X261932Y289886D01*
Y288862D01*
X262733Y288223D01*
X263733Y288451D01*
X264177Y289374D01*
D12*
X322500Y285437D02*
X322310Y286394D01*
X321768Y287205D01*
X320957Y287747D01*
X320000Y287937D01*
X319043Y287747D01*
X318232Y287205D01*
X317690Y286394D01*
X317500Y285437D01*
X513000D02*
X512810Y286394D01*
X512268Y287205D01*
X511457Y287747D01*
X510500Y287937D01*
X509543Y287747D01*
X508732Y287205D01*
X508190Y286394D01*
X508000Y285437D01*
X196500D02*
X196310Y286394D01*
X195768Y287205D01*
X194957Y287747D01*
X194000Y287937D01*
X193043Y287747D01*
X192232Y287205D01*
X191690Y286394D01*
X191500Y285437D01*
X386000Y284937D02*
X385810Y285894D01*
X385268Y286705D01*
X384457Y287247D01*
X383500Y287437D01*
X382543Y287247D01*
X381732Y286705D01*
X381190Y285894D01*
X381000Y284937D01*
X450500D02*
X450310Y285894D01*
X449768Y286705D01*
X448957Y287247D01*
X448000Y287437D01*
X447043Y287247D01*
X446232Y286705D01*
X445690Y285894D01*
X445500Y284937D01*
X259000Y285437D02*
X258810Y286394D01*
X258268Y287205D01*
X257457Y287747D01*
X256500Y287937D01*
X255543Y287747D01*
X254732Y287205D01*
X254190Y286394D01*
X254000Y285437D01*
X546256Y152114D02*
X545399Y152639D01*
X544490Y153069D01*
X543539Y153397D01*
X542558Y153620D01*
X541559Y153735D01*
X540553Y153741D01*
X539553Y153638D01*
X538570Y153427D01*
X537615Y153111D01*
X536700Y152692D01*
X535837Y152177D01*
X535034Y151571D01*
X534302Y150882D01*
X533648Y150117D01*
X533082Y149286D01*
X532610Y148398D01*
X532236Y147465D01*
X531966Y146496D01*
X531803Y145503D01*
X531748Y144499D01*
X531803Y143495D01*
X531966Y142503D01*
X532236Y141534D01*
X532610Y140600D01*
X533083Y139713D01*
X533649Y138882D01*
X534303Y138117D01*
X535035Y137428D01*
X535838Y136822D01*
X536702Y136307D01*
X537616Y135889D01*
X538571Y135573D01*
X539555Y135362D01*
X540555Y135259D01*
X541561Y135265D01*
X542560Y135380D01*
X543540Y135604D01*
X544491Y135932D01*
X545400Y136362D01*
X546258Y136887D01*
X411823Y104433D02*
X505130D01*
X411823D02*
Y137898D01*
X505130D01*
Y104433D02*
Y137898D01*
X157173Y149327D02*
X163374D01*
X172626D02*
X178827D01*
Y131610D02*
Y149327D01*
X157173Y131610D02*
Y149327D01*
X172626Y127673D02*
X174890D01*
X161110D02*
X163374D01*
X174890D02*
X178827Y131610D01*
X157173D02*
X161110Y127673D01*
X309567Y377563D02*
X330433D01*
X309567Y285437D02*
X317500D01*
X322500D02*
X330433D01*
X309567D02*
Y377563D01*
X330433Y285437D02*
Y377563D01*
X532776Y368902D02*
X542224D01*
Y344098D02*
Y368902D01*
X532776Y344098D02*
Y368902D01*
Y344098D02*
X542224D01*
X346776Y365902D02*
X356224D01*
Y341098D02*
Y365902D01*
X346776Y341098D02*
Y365902D01*
Y341098D02*
X356224D01*
X283276D02*
X292724D01*
X283276D02*
Y365902D01*
X292724Y341098D02*
Y365902D01*
X283276D02*
X292724D01*
X532776Y300598D02*
X542224D01*
X532776D02*
Y325402D01*
X542224Y300598D02*
Y325402D01*
X532776D02*
X542224D01*
X472776Y340598D02*
X482224D01*
X472776D02*
Y365402D01*
X482224Y340598D02*
Y365402D01*
X472776D02*
X482224D01*
X472276Y295598D02*
X481724D01*
X472276D02*
Y320402D01*
X481724Y295598D02*
Y320402D01*
X472276D02*
X481724D01*
X409776Y340098D02*
X419224D01*
X409776D02*
Y364902D01*
X419224Y340098D02*
Y364902D01*
X409776D02*
X419224D01*
X409776Y296098D02*
X419224D01*
X409776D02*
Y320902D01*
X419224Y296098D02*
Y320902D01*
X409776D02*
X419224D01*
X346776Y296098D02*
X356224D01*
X346776D02*
Y320902D01*
X356224Y296098D02*
Y320902D01*
X346776D02*
X356224D01*
X283276Y297098D02*
X292724D01*
X283276D02*
Y321902D01*
X292724Y297098D02*
Y321902D01*
X283276D02*
X292724D01*
X220276Y296598D02*
X229724D01*
X220276D02*
Y321402D01*
X229724Y296598D02*
Y321402D01*
X220276D02*
X229724D01*
X220276Y341098D02*
X229724D01*
X220276D02*
Y365902D01*
X229724Y341098D02*
Y365902D01*
X220276D02*
X229724D01*
X182598Y177776D02*
Y187224D01*
X207402D01*
X182598Y177776D02*
X207402D01*
Y187224D01*
X246098Y176776D02*
Y186224D01*
X270902D01*
X246098Y176776D02*
X270902D01*
Y186224D01*
X309598Y176276D02*
Y185724D01*
X334402D01*
X309598Y176276D02*
X334402D01*
Y185724D01*
X374598Y176776D02*
Y186224D01*
X399402D01*
X374598Y176776D02*
X399402D01*
Y186224D01*
X437098Y176776D02*
Y186224D01*
X461902D01*
X437098Y176776D02*
X461902D01*
Y186224D01*
X502598Y174776D02*
Y184224D01*
X527402D01*
X502598Y174776D02*
X527402D01*
Y184224D01*
X214008Y129028D02*
X314992D01*
Y104815D02*
Y129028D01*
X214008Y104815D02*
X314992D01*
X214008D02*
Y129028D01*
X500067Y377563D02*
X520933D01*
X500067Y285437D02*
X508000D01*
X513000D02*
X520933D01*
X500067D02*
Y377563D01*
X520933Y285437D02*
Y377563D01*
X183567D02*
X204433D01*
X183567Y285437D02*
X191500D01*
X196500D02*
X204433D01*
X183567D02*
Y377563D01*
X204433Y285437D02*
Y377563D01*
X393933Y284937D02*
Y377063D01*
X373067Y284937D02*
Y377063D01*
X386000Y284937D02*
X393933D01*
X373067D02*
X381000D01*
X373067Y377063D02*
X393933D01*
X458433Y284937D02*
Y377063D01*
X437567Y284937D02*
Y377063D01*
X450500Y284937D02*
X458433D01*
X437567D02*
X445500D01*
X437567Y377063D02*
X458433D01*
X207402Y188276D02*
Y197724D01*
X182598Y188276D02*
X207402D01*
X182598Y197724D02*
X207402D01*
X182598Y188276D02*
Y197724D01*
Y209276D02*
Y218724D01*
X207402D01*
X182598Y209276D02*
X207402D01*
Y218724D01*
X182598Y198776D02*
Y208224D01*
X207402D01*
X182598Y198776D02*
X207402D01*
Y208224D01*
X182598Y219776D02*
Y229224D01*
X207402D01*
X182598Y219776D02*
X207402D01*
Y229224D01*
X270902Y187776D02*
Y197224D01*
X246098Y187776D02*
X270902D01*
X246098Y197224D02*
X270902D01*
X246098Y187776D02*
Y197224D01*
X334402Y186776D02*
Y196224D01*
X309598Y186776D02*
X334402D01*
X309598Y196224D02*
X334402D01*
X309598Y186776D02*
Y196224D01*
Y197276D02*
Y206724D01*
X334402D01*
X309598Y197276D02*
X334402D01*
Y206724D01*
X310098Y207776D02*
Y217224D01*
X334902D01*
X310098Y207776D02*
X334902D01*
Y217224D01*
X309598Y218276D02*
Y227724D01*
X334402D01*
X309598Y218276D02*
X334402D01*
Y227724D01*
X399402Y187276D02*
Y196724D01*
X374598Y187276D02*
X399402D01*
X374598Y196724D02*
X399402D01*
X374598Y187276D02*
Y196724D01*
Y197776D02*
Y207224D01*
X399402D01*
X374598Y197776D02*
X399402D01*
Y207224D01*
X374598Y208276D02*
Y217724D01*
X399402D01*
X374598Y208276D02*
X399402D01*
Y217724D01*
X374598Y218776D02*
Y228224D01*
X399402D01*
X374598Y218776D02*
X399402D01*
Y228224D01*
X461902Y187276D02*
Y196724D01*
X437098Y187276D02*
X461902D01*
X437098Y196724D02*
X461902D01*
X437098Y187276D02*
Y196724D01*
Y197776D02*
Y207224D01*
X461902D01*
X437098Y197776D02*
X461902D01*
Y207224D01*
X437098Y208276D02*
Y217724D01*
X461902D01*
X437098Y208276D02*
X461902D01*
Y217724D01*
X437098Y218776D02*
Y228224D01*
X461902D01*
X437098Y218776D02*
X461902D01*
Y228224D01*
X526902Y185776D02*
Y195224D01*
X502098Y185776D02*
X526902D01*
X502098Y195224D02*
X526902D01*
X502098Y185776D02*
Y195224D01*
Y196276D02*
Y205724D01*
X526902D01*
X502098Y196276D02*
X526902D01*
Y205724D01*
X502098Y206776D02*
Y216224D01*
X526902D01*
X502098Y206776D02*
X526902D01*
Y216224D01*
X502098Y217276D02*
Y226724D01*
X526902D01*
X502098Y217276D02*
X526902D01*
Y226724D01*
X246098Y198276D02*
Y207724D01*
X270902D01*
X246098Y198276D02*
X270902D01*
Y207724D01*
X165614Y383354D02*
X188252D01*
Y491228D01*
X165614D02*
X188252D01*
X165614Y383354D02*
Y491228D01*
X195114Y383354D02*
X217752D01*
Y491228D01*
X195114D02*
X217752D01*
X195114Y383354D02*
Y491228D01*
X258614Y383354D02*
X281252D01*
Y491228D01*
X258614D02*
X281252D01*
X258614Y383354D02*
Y491228D01*
X292114Y383012D02*
X314752D01*
Y490886D01*
X292114D02*
X314752D01*
X292114Y383012D02*
Y490886D01*
X321575Y383012D02*
X344213D01*
Y490886D01*
X321575D02*
X344213D01*
X321575Y383012D02*
Y490886D01*
X355614Y383012D02*
X378252D01*
Y490886D01*
X355614D02*
X378252D01*
X355614Y383012D02*
Y490886D01*
X385075Y383012D02*
X407713D01*
Y490886D01*
X385075D02*
X407713D01*
X385075Y383012D02*
Y490886D01*
X419614Y383354D02*
X442252D01*
Y491228D01*
X419614D02*
X442252D01*
X419614Y383354D02*
Y491228D01*
X449075Y383327D02*
X471713D01*
Y491201D01*
X449075D02*
X471713D01*
X449075Y383327D02*
Y491201D01*
X483575Y382354D02*
X506213D01*
Y490228D01*
X483575D02*
X506213D01*
X483575Y382354D02*
Y490228D01*
X513075Y382642D02*
X535713D01*
Y490516D01*
X513075D02*
X535713D01*
X513075Y382642D02*
Y490516D01*
X246098Y219276D02*
Y228724D01*
X270902D01*
X246098Y219276D02*
X270902D01*
Y228724D01*
X246098Y208776D02*
Y218224D01*
X270902D01*
X246098Y208776D02*
X270902D01*
Y218224D01*
X229114Y383354D02*
X251752D01*
Y491228D01*
X229114D02*
X251752D01*
X229114Y383354D02*
Y491228D01*
X266933Y285437D02*
Y377563D01*
X246067Y285437D02*
Y377563D01*
X259000Y285437D02*
X266933D01*
X246067D02*
X254000D01*
X246067Y377563D02*
X266933D01*
X546256Y136887D02*
Y152113D01*
X523535Y133260D02*
X532492D01*
X506508D02*
X515465D01*
X532492Y105740D02*
Y115602D01*
Y123673D02*
Y133260D01*
X506508Y123673D02*
Y133260D01*
Y105740D02*
Y115602D01*
Y105740D02*
X532492D01*
X536776Y164598D02*
X546224D01*
X536776D02*
Y189402D01*
X546224Y164598D02*
Y189402D01*
X536776D02*
X546224D01*
X409630Y104433D02*
Y137898D01*
X316323D02*
X409630D01*
X316323Y104433D02*
Y137898D01*
Y104433D02*
X409630D01*
X224350Y256658D02*
Y276343D01*
X230650Y256658D02*
Y276343D01*
X224350D02*
X230650D01*
X224350Y256658D02*
X230650D01*
X172028Y106248D02*
X212972D01*
X212972Y104279D02*
Y122390D01*
X172028D02*
X212972D01*
X172028Y104279D02*
Y122390D01*
Y104279D02*
X212972D01*
X213402Y128276D02*
Y137724D01*
X188598Y128276D02*
X213402D01*
X188598Y137724D02*
X213402D01*
X188598Y128276D02*
Y137724D01*
X286350Y256658D02*
Y276343D01*
X292650Y256658D02*
Y276343D01*
X286350D02*
X292650D01*
X286350Y256658D02*
X292650D01*
X351350D02*
Y276343D01*
X357650Y256658D02*
Y276343D01*
X351350D02*
X357650D01*
X351350Y256658D02*
X357650D01*
X413350Y257157D02*
Y276842D01*
X419650Y257157D02*
Y276842D01*
X413350D02*
X419650D01*
X413350Y257157D02*
X419650D01*
X476850Y256658D02*
Y276343D01*
X483150Y256658D02*
Y276343D01*
X476850D02*
X483150D01*
X476850Y256658D02*
X483150D01*
X526496Y255658D02*
Y275342D01*
X532795Y255658D02*
Y275342D01*
X526496D02*
X532795D01*
X526496Y255658D02*
X532795D01*
D13*
X487500Y200000D02*
X491500Y196000D01*
X487500Y188000D02*
Y199000D01*
X489500Y194000D02*
X497000D01*
X485500Y190000D02*
X489500Y194000D01*
X485500Y189000D02*
Y190000D01*
Y189000D02*
X487500Y187000D01*
X492500D01*
X493000Y187500D01*
X498500D01*
X500000Y189000D01*
Y191000D01*
X497500Y193500D02*
X500000Y191000D01*
X495500Y193500D02*
X497500D01*
X494000Y192000D02*
X495500Y193500D01*
X493000Y192000D02*
X494000D01*
X493000D02*
X495500Y189500D01*
X497000D01*
X496922Y189422D02*
X497000Y189500D01*
X489422Y189422D02*
X496922D01*
D14*
X238999Y468831D02*
Y470830D01*
Y469831D01*
X234000D01*
X233001Y470830D01*
Y471830D01*
X234000Y472830D01*
X233001Y466832D02*
Y464832D01*
Y465832D01*
X238999D01*
X237999Y466832D01*
X232001Y461833D02*
Y457835D01*
X238999Y455835D02*
Y453836D01*
Y454836D01*
X233001D01*
Y455835D01*
Y453836D01*
Y450837D02*
X237000D01*
Y447838D01*
X236000Y446838D01*
X233001D01*
X238999Y440840D02*
X233001D01*
Y443839D01*
X234000Y444839D01*
X236000D01*
X237000Y443839D01*
Y440840D01*
X233001Y438841D02*
Y436841D01*
Y437841D01*
X237000D01*
Y438841D01*
Y429844D02*
Y432843D01*
X236000Y433843D01*
X234000D01*
X233001Y432843D01*
Y429844D01*
X237000Y426845D02*
Y424845D01*
X236000Y423846D01*
X233001D01*
Y426845D01*
X234000Y427844D01*
X235000Y426845D01*
Y423846D01*
X237999Y420847D02*
X237000D01*
Y421846D01*
Y419847D01*
Y420847D01*
X234000D01*
X233001Y419847D01*
Y415848D02*
Y413849D01*
X234000Y412849D01*
X236000D01*
X237000Y413849D01*
Y415848D01*
X236000Y416848D01*
X234000D01*
X233001Y415848D01*
X237000Y410850D02*
X233001D01*
X235000D01*
X236000Y409850D01*
X237000Y408851D01*
Y407851D01*
X238999Y394855D02*
Y398854D01*
X236000D01*
X237000Y396854D01*
Y395855D01*
X236000Y394855D01*
X234000D01*
X233001Y395855D01*
Y397854D01*
X234000Y398854D01*
X415999Y147698D02*
X413999D01*
X414999D01*
Y142700D01*
X413999Y141700D01*
X413000D01*
X412000Y142700D01*
X417998Y146698D02*
X418998Y147698D01*
X420997D01*
X421997Y146698D01*
Y145699D01*
X420997Y144699D01*
X419997D01*
X420997D01*
X421997Y143699D01*
Y142700D01*
X420997Y141700D01*
X418998D01*
X417998Y142700D01*
X184500Y161499D02*
X183501Y162499D01*
X181501D01*
X180502Y161499D01*
Y157501D01*
X181501Y156501D01*
X183501D01*
X184500Y157501D01*
X186500Y156501D02*
Y162499D01*
X189499D01*
X190498Y161499D01*
Y159500D01*
X189499Y158500D01*
X186500D01*
X188499D02*
X190498Y156501D01*
X309003Y339499D02*
Y334501D01*
X310003Y333501D01*
X312002D01*
X313002Y334501D01*
Y339499D01*
X315002Y333501D02*
X317001D01*
X316001D01*
Y339499D01*
X315002Y338499D01*
X320000Y332501D02*
X323998D01*
X328997Y333501D02*
Y339499D01*
X325998Y336500D01*
X329997D01*
X535001Y366496D02*
X540999D01*
Y363497D01*
X539999Y362497D01*
X538000D01*
X537000Y363497D01*
Y366496D01*
Y364496D02*
X535001Y362497D01*
Y360498D02*
Y358498D01*
Y359498D01*
X540999D01*
X539999Y360498D01*
X534001Y355499D02*
Y351501D01*
X535001Y349501D02*
Y347502D01*
Y348502D01*
X540999D01*
X539999Y349501D01*
X436503Y335999D02*
Y331000D01*
X437503Y330001D01*
X439502D01*
X440502Y331000D01*
Y335999D01*
X442501Y330001D02*
X444501D01*
X443501D01*
Y335999D01*
X442501Y334999D01*
X447500Y329001D02*
X451499D01*
X457497Y330001D02*
X453498D01*
X457497Y333999D01*
Y334999D01*
X456497Y335999D01*
X454498D01*
X453498Y334999D01*
X349001Y363713D02*
X354999D01*
Y360714D01*
X353999Y359714D01*
X352000D01*
X351000Y360714D01*
Y363713D01*
Y361714D02*
X349001Y359714D01*
Y357715D02*
Y355716D01*
Y356715D01*
X354999D01*
X353999Y357715D01*
X348001Y352717D02*
Y348718D01*
X349001Y343720D02*
X354999D01*
X352000Y346719D01*
Y342720D01*
X285501Y363997D02*
X291499D01*
Y360998D01*
X290499Y359998D01*
X288500D01*
X287500Y360998D01*
Y363997D01*
Y361997D02*
X285501Y359998D01*
Y357998D02*
Y355999D01*
Y356999D01*
X291499D01*
X290499Y357998D01*
X284501Y353000D02*
Y349002D01*
X291499Y343003D02*
Y347002D01*
X288500D01*
X289499Y345003D01*
Y344003D01*
X288500Y343003D01*
X286501D01*
X285501Y344003D01*
Y346002D01*
X286501Y347002D01*
X535001Y322996D02*
X540999D01*
Y319997D01*
X539999Y318997D01*
X538000D01*
X537000Y319997D01*
Y322996D01*
Y320996D02*
X535001Y318997D01*
Y312999D02*
Y316998D01*
X539000Y312999D01*
X539999D01*
X540999Y313999D01*
Y315998D01*
X539999Y316998D01*
X534001Y310999D02*
Y307001D01*
X535001Y305001D02*
Y303002D01*
Y304002D01*
X540999D01*
X539999Y305001D01*
X474501Y362997D02*
X480499D01*
Y359998D01*
X479499Y358998D01*
X477500D01*
X476500Y359998D01*
Y362997D01*
Y360997D02*
X474501Y358998D01*
Y356998D02*
Y354999D01*
Y355999D01*
X480499D01*
X479499Y356998D01*
X473501Y352000D02*
Y348002D01*
X474501Y342003D02*
Y346002D01*
X478500Y342003D01*
X479499D01*
X480499Y343003D01*
Y345002D01*
X479499Y346002D01*
X474501Y318496D02*
X480499D01*
Y315497D01*
X479499Y314498D01*
X477500D01*
X476500Y315497D01*
Y318496D01*
Y316497D02*
X474501Y314498D01*
Y308500D02*
Y312498D01*
X478500Y308500D01*
X479499D01*
X480499Y309499D01*
Y311499D01*
X479499Y312498D01*
X473501Y306500D02*
Y302502D01*
X474501Y296503D02*
Y300502D01*
X478500Y296503D01*
X479499D01*
X480499Y297503D01*
Y299503D01*
X479499Y300502D01*
X412001Y362997D02*
X417999D01*
Y359998D01*
X416999Y358998D01*
X415000D01*
X414000Y359998D01*
Y362997D01*
Y360997D02*
X412001Y358998D01*
Y356998D02*
Y354999D01*
Y355999D01*
X417999D01*
X416999Y356998D01*
X411001Y352000D02*
Y348002D01*
X416999Y346002D02*
X417999Y345002D01*
Y343003D01*
X416999Y342003D01*
X416000D01*
X415000Y343003D01*
Y344003D01*
Y343003D01*
X414000Y342003D01*
X413000D01*
X412001Y343003D01*
Y345002D01*
X413000Y346002D01*
X412001Y318496D02*
X417999D01*
Y315497D01*
X416999Y314498D01*
X415000D01*
X414000Y315497D01*
Y318496D01*
Y316497D02*
X412001Y314498D01*
Y308500D02*
Y312498D01*
X416000Y308500D01*
X416999D01*
X417999Y309499D01*
Y311499D01*
X416999Y312498D01*
X411001Y306500D02*
Y302502D01*
X416999Y300502D02*
X417999Y299503D01*
Y297503D01*
X416999Y296503D01*
X416000D01*
X415000Y297503D01*
Y298503D01*
Y297503D01*
X414000Y296503D01*
X413000D01*
X412001Y297503D01*
Y299503D01*
X413000Y300502D01*
X349001Y319496D02*
X354999D01*
Y316497D01*
X353999Y315498D01*
X352000D01*
X351000Y316497D01*
Y319496D01*
Y317497D02*
X349001Y315498D01*
Y309500D02*
Y313498D01*
X352999Y309500D01*
X353999D01*
X354999Y310499D01*
Y312499D01*
X353999Y313498D01*
X348001Y307500D02*
Y303502D01*
X349001Y298503D02*
X354999D01*
X352000Y301502D01*
Y297503D01*
X285501Y320496D02*
X291499D01*
Y317497D01*
X290499Y316498D01*
X288500D01*
X287500Y317497D01*
Y320496D01*
Y318497D02*
X285501Y316498D01*
Y310500D02*
Y314498D01*
X289499Y310500D01*
X290499D01*
X291499Y311499D01*
Y313499D01*
X290499Y314498D01*
X284501Y308500D02*
Y304502D01*
X291499Y298503D02*
Y302502D01*
X288500D01*
X289499Y300503D01*
Y299503D01*
X288500Y298503D01*
X286501D01*
X285501Y299503D01*
Y301503D01*
X286501Y302502D01*
X222501Y319496D02*
X228499D01*
Y316497D01*
X227499Y315498D01*
X225500D01*
X224500Y316497D01*
Y319496D01*
Y317497D02*
X222501Y315498D01*
Y309500D02*
Y313498D01*
X226500Y309500D01*
X227499D01*
X228499Y310499D01*
Y312499D01*
X227499Y313498D01*
X221501Y307500D02*
Y303502D01*
X228499Y297503D02*
X227499Y299503D01*
X225500Y301502D01*
X223500D01*
X222501Y300503D01*
Y298503D01*
X223500Y297503D01*
X224500D01*
X225500Y298503D01*
Y301502D01*
X221501Y363997D02*
X227499D01*
Y360998D01*
X226499Y359998D01*
X224500D01*
X223500Y360998D01*
Y363997D01*
Y361997D02*
X221501Y359998D01*
Y357998D02*
Y355999D01*
Y356999D01*
X227499D01*
X226499Y357998D01*
X220501Y353000D02*
Y349002D01*
X227499Y343003D02*
X226499Y345003D01*
X224500Y347002D01*
X222500D01*
X221501Y346002D01*
Y344003D01*
X222500Y343003D01*
X223500D01*
X224500Y344003D01*
Y347002D01*
X190002Y180001D02*
Y185999D01*
X193001D01*
X194000Y184999D01*
Y183000D01*
X193001Y182000D01*
X190002D01*
X192001D02*
X194000Y180001D01*
X196000Y184999D02*
X196999Y185999D01*
X198999D01*
X199998Y184999D01*
Y184000D01*
X197999Y182000D01*
Y181001D02*
Y180001D01*
X253502Y178501D02*
Y184499D01*
X256501D01*
X257500Y183499D01*
Y181500D01*
X256501Y180500D01*
X253502D01*
X255501D02*
X257500Y178501D01*
X263498Y184499D02*
X259500D01*
Y181500D01*
X261499Y182500D01*
X262499D01*
X263498Y181500D01*
Y179501D01*
X262499Y178501D01*
X260499D01*
X259500Y179501D01*
X316502Y178501D02*
Y184499D01*
X319501D01*
X320500Y183499D01*
Y181500D01*
X319501Y180500D01*
X316502D01*
X318501D02*
X320500Y178501D01*
X325499D02*
Y184499D01*
X322500Y181500D01*
X326498D01*
X383785Y179001D02*
Y184999D01*
X386784D01*
X387784Y183999D01*
Y182000D01*
X386784Y181000D01*
X383785D01*
X385784D02*
X387784Y179001D01*
X389783Y183999D02*
X390783Y184999D01*
X392782D01*
X393782Y183999D01*
Y183000D01*
X392782Y182000D01*
X391782D01*
X392782D01*
X393782Y181000D01*
Y180001D01*
X392782Y179001D01*
X390783D01*
X389783Y180001D01*
X445502Y178501D02*
Y184499D01*
X448501D01*
X449500Y183499D01*
Y181500D01*
X448501Y180500D01*
X445502D01*
X447501D02*
X449500Y178501D01*
X455498D02*
X451500D01*
X455498Y182500D01*
Y183499D01*
X454499Y184499D01*
X452499D01*
X451500Y183499D01*
X510501Y177001D02*
Y182999D01*
X513500D01*
X514500Y181999D01*
Y180000D01*
X513500Y179000D01*
X510501D01*
X512501D02*
X514500Y177001D01*
X516499D02*
X518499D01*
X517499D01*
Y182999D01*
X516499Y181999D01*
X233000Y138499D02*
X231001D01*
X232000D01*
Y133501D01*
X231001Y132501D01*
X230001D01*
X229001Y133501D01*
X234999Y132501D02*
X236999D01*
X235999D01*
Y138499D01*
X234999Y137499D01*
X496504Y336999D02*
Y332000D01*
X497504Y331001D01*
X499503D01*
X500503Y332000D01*
Y336999D01*
X502502Y331001D02*
X504502D01*
X503502D01*
Y336999D01*
X502502Y335999D01*
X507501Y330001D02*
X511499D01*
X513499Y331001D02*
X515498D01*
X514498D01*
Y336999D01*
X513499Y335999D01*
X182003Y335999D02*
Y331000D01*
X183003Y330001D01*
X185002D01*
X186002Y331000D01*
Y335999D01*
X188002Y330001D02*
X190001D01*
X189001D01*
Y335999D01*
X188002Y334999D01*
X193000Y329001D02*
X196999D01*
X202997Y335999D02*
X200997Y334999D01*
X198998Y333000D01*
Y331000D01*
X199998Y330001D01*
X201997D01*
X202997Y331000D01*
Y332000D01*
X201997Y333000D01*
X198998D01*
X266499Y473729D02*
Y475728D01*
Y474728D01*
X261501D01*
X260501Y475728D01*
Y476728D01*
X261501Y477727D01*
X260501Y467731D02*
Y471729D01*
X264499Y467731D01*
X265499D01*
X266499Y468730D01*
Y470730D01*
X265499Y471729D01*
X259501Y465731D02*
Y461732D01*
X266499Y459733D02*
Y457734D01*
Y458734D01*
X260501D01*
Y459733D01*
Y457734D01*
Y454735D02*
X264499D01*
Y451736D01*
X263500Y450736D01*
X260501D01*
X266499Y444738D02*
X260501D01*
Y447737D01*
X261501Y448737D01*
X263500D01*
X264499Y447737D01*
Y444738D01*
X260501Y442739D02*
Y440739D01*
Y441739D01*
X264499D01*
Y442739D01*
Y433742D02*
Y436741D01*
X263500Y437740D01*
X261501D01*
X260501Y436741D01*
Y433742D01*
X264499Y430743D02*
Y428743D01*
X263500Y427743D01*
X260501D01*
Y430743D01*
X261501Y431742D01*
X262500Y430743D01*
Y427743D01*
X265499Y424745D02*
X264499D01*
Y425744D01*
Y423745D01*
Y424745D01*
X261501D01*
X260501Y423745D01*
Y419746D02*
Y417747D01*
X261501Y416747D01*
X263500D01*
X264499Y417747D01*
Y419746D01*
X263500Y420746D01*
X261501D01*
X260501Y419746D01*
X264499Y414748D02*
X260501D01*
X262500D01*
X263500Y413748D01*
X264499Y412748D01*
Y411749D01*
X266499Y398753D02*
Y402752D01*
X263500D01*
X264499Y400752D01*
Y399753D01*
X263500Y398753D01*
X261501D01*
X260501Y399753D01*
Y401752D01*
X261501Y402752D01*
X504200Y142798D02*
Y138799D01*
X506199Y136800D01*
X508199Y138799D01*
Y142798D01*
X510198Y136800D02*
Y142798D01*
X513197D01*
X514197Y141798D01*
Y139799D01*
X513197Y138799D01*
X510198D01*
X512197D02*
X514197Y136800D01*
X537300Y200900D02*
Y206898D01*
X540299D01*
X541299Y205898D01*
Y203899D01*
X540299Y202899D01*
X537300D01*
X539299D02*
X541299Y200900D01*
X543298Y206898D02*
Y202899D01*
X545297Y200900D01*
X547297Y202899D01*
Y206898D01*
X536299Y158200D02*
Y162198D01*
X535299Y163198D01*
X533300D01*
X532300Y162198D01*
Y158200D01*
X533300Y157200D01*
X535299D01*
X534299Y159199D02*
X536299Y157200D01*
X535299D02*
X536299Y158200D01*
X538298Y157200D02*
X540297D01*
X539298D01*
Y163198D01*
X538298Y162198D01*
X172600Y131798D02*
Y126800D01*
X173600Y125800D01*
X175599D01*
X176599Y126800D01*
Y131798D01*
X178598Y125800D02*
Y131798D01*
X181597D01*
X182597Y130798D01*
Y128799D01*
X181597Y127799D01*
X178598D01*
X180597D02*
X182597Y125800D01*
X211900Y288498D02*
Y283500D01*
X212900Y282500D01*
X214899D01*
X215899Y283500D01*
Y288498D01*
X221897Y282500D02*
X217898D01*
X221897Y286499D01*
Y287498D01*
X220897Y288498D01*
X218898D01*
X217898Y287498D01*
X223896Y281500D02*
X227895D01*
X233893Y288498D02*
X231893Y287498D01*
X229894Y285499D01*
Y283500D01*
X230894Y282500D01*
X232893D01*
X233893Y283500D01*
Y284499D01*
X232893Y285499D01*
X229894D01*
X181100Y141200D02*
Y147198D01*
X184099D01*
X185099Y146198D01*
Y144199D01*
X184099Y143199D01*
X181100D01*
X183099D02*
X185099Y141200D01*
X187098D02*
Y147198D01*
X190097D01*
X191097Y146198D01*
Y144199D01*
X190097Y143199D01*
X187098D01*
X189097D02*
X191097Y141200D01*
X192001Y197498D02*
X197999D01*
Y194499D01*
X196999Y193500D01*
X195000D01*
X194000Y194499D01*
Y197498D01*
Y195499D02*
X192001Y193500D01*
X197999Y187502D02*
X196999Y189501D01*
X195000Y191500D01*
X193001D01*
X192001Y190501D01*
Y188501D01*
X193001Y187502D01*
X194000D01*
X195000Y188501D01*
Y191500D01*
X192001Y229498D02*
X197999D01*
Y226499D01*
X196999Y225500D01*
X195000D01*
X194000Y226499D01*
Y229498D01*
Y227499D02*
X192001Y225500D01*
X197999Y219502D02*
Y223500D01*
X195000D01*
X196000Y221501D01*
Y220501D01*
X195000Y219502D01*
X193001D01*
X192001Y220501D01*
Y222501D01*
X193001Y223500D01*
X192001Y208498D02*
X197999D01*
Y205499D01*
X196999Y204500D01*
X195000D01*
X194000Y205499D01*
Y208498D01*
Y206499D02*
X192001Y204500D01*
Y199501D02*
X197999D01*
X195000Y202500D01*
Y198502D01*
X192001Y218498D02*
X197999D01*
Y215499D01*
X196999Y214500D01*
X195000D01*
X194000Y215499D01*
Y218498D01*
Y216499D02*
X192001Y214500D01*
X196999Y212500D02*
X197999Y211501D01*
Y209501D01*
X196999Y208502D01*
X196000D01*
X195000Y209501D01*
Y210501D01*
Y209501D01*
X194000Y208502D01*
X193001D01*
X192001Y209501D01*
Y211501D01*
X193001Y212500D01*
X320499Y147698D02*
X318499D01*
X319499D01*
Y142700D01*
X318499Y141700D01*
X317500D01*
X316500Y142700D01*
X326497Y141700D02*
X322498D01*
X326497Y145699D01*
Y146698D01*
X325497Y147698D01*
X323498D01*
X322498Y146698D01*
X204499Y471886D02*
Y473885D01*
Y472886D01*
X199501D01*
X198501Y473885D01*
Y474885D01*
X199501Y475885D01*
X198501Y465888D02*
Y469887D01*
X202500Y465888D01*
X203499D01*
X204499Y466888D01*
Y468887D01*
X203499Y469887D01*
X197501Y463889D02*
Y459890D01*
X204499Y457891D02*
Y455891D01*
Y456891D01*
X198501D01*
Y457891D01*
Y455891D01*
Y452892D02*
X202500D01*
Y449893D01*
X201500Y448894D01*
X198501D01*
X204499Y442896D02*
X198501D01*
Y445894D01*
X199501Y446894D01*
X201500D01*
X202500Y445894D01*
Y442896D01*
X198501Y440896D02*
Y438897D01*
Y439896D01*
X202500D01*
Y440896D01*
Y431899D02*
Y434898D01*
X201500Y435898D01*
X199501D01*
X198501Y434898D01*
Y431899D01*
X202500Y428900D02*
Y426901D01*
X201500Y425901D01*
X198501D01*
Y428900D01*
X199501Y429900D01*
X200500Y428900D01*
Y425901D01*
X203499Y422902D02*
X202500D01*
Y423902D01*
Y421902D01*
Y422902D01*
X199501D01*
X198501Y421902D01*
Y417904D02*
Y415904D01*
X199501Y414905D01*
X201500D01*
X202500Y415904D01*
Y417904D01*
X201500Y418903D01*
X199501D01*
X198501Y417904D01*
X202500Y412905D02*
X198501D01*
X200500D01*
X201500Y411906D01*
X202500Y410906D01*
Y409906D01*
X204499Y396910D02*
X203499Y398910D01*
X201500Y400909D01*
X199501D01*
X198501Y399909D01*
Y397910D01*
X199501Y396910D01*
X200500D01*
X201500Y397910D01*
Y400909D01*
X174999Y468516D02*
Y470516D01*
Y469516D01*
X170001D01*
X169001Y470516D01*
Y471515D01*
X170001Y472515D01*
X169001Y466517D02*
Y464517D01*
Y465517D01*
X174999D01*
X173999Y466517D01*
X168001Y461518D02*
Y457520D01*
X174999Y455520D02*
Y453521D01*
Y454521D01*
X169001D01*
Y455520D01*
Y453521D01*
Y450522D02*
X173000D01*
Y447523D01*
X172000Y446523D01*
X169001D01*
X174999Y440525D02*
X169001D01*
Y443524D01*
X170001Y444524D01*
X172000D01*
X173000Y443524D01*
Y440525D01*
X169001Y438526D02*
Y436527D01*
Y437526D01*
X173000D01*
Y438526D01*
Y429529D02*
Y432528D01*
X172000Y433528D01*
X170001D01*
X169001Y432528D01*
Y429529D01*
X173000Y426530D02*
Y424531D01*
X172000Y423531D01*
X169001D01*
Y426530D01*
X170001Y427529D01*
X171000Y426530D01*
Y423531D01*
X173999Y420532D02*
X173000D01*
Y421531D01*
Y419532D01*
Y420532D01*
X170001D01*
X169001Y419532D01*
Y415533D02*
Y413534D01*
X170001Y412534D01*
X172000D01*
X173000Y413534D01*
Y415533D01*
X172000Y416533D01*
X170001D01*
X169001Y415533D01*
X173000Y410535D02*
X169001D01*
X171000D01*
X172000Y409535D01*
X173000Y408536D01*
Y407536D01*
X174999Y394540D02*
X173999Y396539D01*
X172000Y398539D01*
X170001D01*
X169001Y397539D01*
Y395540D01*
X170001Y394540D01*
X171000D01*
X172000Y395540D01*
Y398539D01*
X273900Y288498D02*
Y283500D01*
X274900Y282500D01*
X276899D01*
X277899Y283500D01*
Y288498D01*
X283897Y282500D02*
X279898D01*
X283897Y286499D01*
Y287498D01*
X282897Y288498D01*
X280898D01*
X279898Y287498D01*
X285896Y281500D02*
X289895D01*
X295893Y288498D02*
X291894D01*
Y285499D01*
X293894Y286499D01*
X294893D01*
X295893Y285499D01*
Y283500D01*
X294893Y282500D01*
X292894D01*
X291894Y283500D01*
X338900Y288498D02*
Y283500D01*
X339900Y282500D01*
X341899D01*
X342899Y283500D01*
Y288498D01*
X348897Y282500D02*
X344898D01*
X348897Y286499D01*
Y287498D01*
X347897Y288498D01*
X345898D01*
X344898Y287498D01*
X350896Y281500D02*
X354895D01*
X359893Y282500D02*
Y288498D01*
X356894Y285499D01*
X360893D01*
X400900Y288998D02*
Y284000D01*
X401900Y283000D01*
X403899D01*
X404899Y284000D01*
Y288998D01*
X410897Y283000D02*
X406898D01*
X410897Y286999D01*
Y287998D01*
X409897Y288998D01*
X407898D01*
X406898Y287998D01*
X412896Y282000D02*
X416895D01*
X418894Y287998D02*
X419894Y288998D01*
X421893D01*
X422893Y287998D01*
Y286999D01*
X421893Y285999D01*
X420893D01*
X421893D01*
X422893Y284999D01*
Y284000D01*
X421893Y283000D01*
X419894D01*
X418894Y284000D01*
X464400Y288498D02*
Y283500D01*
X465400Y282500D01*
X467399D01*
X468399Y283500D01*
Y288498D01*
X474397Y282500D02*
X470398D01*
X474397Y286499D01*
Y287498D01*
X473397Y288498D01*
X471398D01*
X470398Y287498D01*
X476396Y281500D02*
X480395D01*
X486393Y282500D02*
X482394D01*
X486393Y286499D01*
Y287498D01*
X485393Y288498D01*
X483394D01*
X482394Y287498D01*
X514000Y287498D02*
Y282500D01*
X515000Y281500D01*
X516999D01*
X517999Y282500D01*
Y287498D01*
X523997Y281500D02*
X519998D01*
X523997Y285499D01*
Y286498D01*
X522997Y287498D01*
X520998D01*
X519998Y286498D01*
X525996Y280500D02*
X529995D01*
X531994Y281500D02*
X533993D01*
X532994D01*
Y287498D01*
X531994Y286498D01*
X246503Y337499D02*
Y332501D01*
X247503Y331501D01*
X249502D01*
X250502Y332501D01*
Y337499D01*
X252502Y331501D02*
X254501D01*
X253501D01*
Y337499D01*
X252502Y336499D01*
X257500Y330501D02*
X261498D01*
X267497Y337499D02*
X263498D01*
Y334500D01*
X265497Y335500D01*
X266497D01*
X267497Y334500D01*
Y332501D01*
X266497Y331501D01*
X264498D01*
X263498Y332501D01*
X374503Y337499D02*
Y332501D01*
X375503Y331501D01*
X377502D01*
X378502Y332501D01*
Y337499D01*
X380502Y331501D02*
X382501D01*
X381501D01*
Y337499D01*
X380502Y336499D01*
X385500Y330501D02*
X389498D01*
X391498Y336499D02*
X392498Y337499D01*
X394497D01*
X395497Y336499D01*
Y335500D01*
X394497Y334500D01*
X393497D01*
X394497D01*
X395497Y333500D01*
Y332501D01*
X394497Y331501D01*
X392498D01*
X391498Y332501D01*
X255501Y196998D02*
X261499D01*
Y193999D01*
X260499Y193000D01*
X258500D01*
X257500Y193999D01*
Y196998D01*
Y194999D02*
X255501Y193000D01*
X261499Y187002D02*
X260499Y189001D01*
X258500Y191000D01*
X256501D01*
X255501Y190001D01*
Y188001D01*
X256501Y187002D01*
X257500D01*
X258500Y188001D01*
Y191000D01*
X319001Y196498D02*
X324999D01*
Y193499D01*
X323999Y192500D01*
X322000D01*
X321000Y193499D01*
Y196498D01*
Y194499D02*
X319001Y192500D01*
X324999Y186502D02*
X323999Y188501D01*
X322000Y190500D01*
X320001D01*
X319001Y189501D01*
Y187501D01*
X320001Y186502D01*
X321000D01*
X322000Y187501D01*
Y190500D01*
X384501Y196498D02*
X390499D01*
Y193499D01*
X389499Y192500D01*
X387500D01*
X386500Y193499D01*
Y196498D01*
Y194499D02*
X384501Y192500D01*
X390499Y186502D02*
X389499Y188501D01*
X387500Y190500D01*
X385501D01*
X384501Y189501D01*
Y187501D01*
X385501Y186502D01*
X386500D01*
X387500Y187501D01*
Y190500D01*
X446501Y196498D02*
X452499D01*
Y193499D01*
X451499Y192500D01*
X449500D01*
X448500Y193499D01*
Y196498D01*
Y194499D02*
X446501Y192500D01*
X452499Y186502D02*
X451499Y188501D01*
X449500Y190500D01*
X447501D01*
X446501Y189501D01*
Y187501D01*
X447501Y186502D01*
X448500D01*
X449500Y187501D01*
Y190500D01*
X511501Y194998D02*
X517499D01*
Y191999D01*
X516499Y191000D01*
X514500D01*
X513500Y191999D01*
Y194998D01*
Y192999D02*
X511501Y191000D01*
X517499Y185002D02*
X516499Y187001D01*
X514500Y189000D01*
X512501D01*
X511501Y188001D01*
Y186001D01*
X512501Y185002D01*
X513500D01*
X514500Y186001D01*
Y189000D01*
X255501Y229498D02*
X261499D01*
Y226499D01*
X260499Y225500D01*
X258500D01*
X257500Y226499D01*
Y229498D01*
Y227499D02*
X255501Y225500D01*
X261499Y219502D02*
Y223500D01*
X258500D01*
X259500Y221501D01*
Y220501D01*
X258500Y219502D01*
X256501D01*
X255501Y220501D01*
Y222501D01*
X256501Y223500D01*
X319501Y227998D02*
X325499D01*
Y224999D01*
X324499Y224000D01*
X322500D01*
X321500Y224999D01*
Y227998D01*
Y225999D02*
X319501Y224000D01*
X325499Y218002D02*
Y222000D01*
X322500D01*
X323500Y220001D01*
Y219001D01*
X322500Y218002D01*
X320501D01*
X319501Y219001D01*
Y221001D01*
X320501Y222000D01*
X384501Y228998D02*
X390499D01*
Y225999D01*
X389499Y225000D01*
X387500D01*
X386500Y225999D01*
Y228998D01*
Y226999D02*
X384501Y225000D01*
X390499Y219002D02*
Y223000D01*
X387500D01*
X388500Y221001D01*
Y220001D01*
X387500Y219002D01*
X385501D01*
X384501Y220001D01*
Y222001D01*
X385501Y223000D01*
X446501Y228498D02*
X452499D01*
Y225499D01*
X451499Y224500D01*
X449500D01*
X448500Y225499D01*
Y228498D01*
Y226499D02*
X446501Y224500D01*
X452499Y218502D02*
Y222500D01*
X449500D01*
X450500Y220501D01*
Y219501D01*
X449500Y218502D01*
X447501D01*
X446501Y219501D01*
Y221501D01*
X447501Y222500D01*
X512001Y226998D02*
X517999D01*
Y223999D01*
X516999Y223000D01*
X515000D01*
X514000Y223999D01*
Y226998D01*
Y224999D02*
X512001Y223000D01*
X517999Y217002D02*
Y221000D01*
X515000D01*
X516000Y219001D01*
Y218001D01*
X515000Y217002D01*
X513001D01*
X512001Y218001D01*
Y220001D01*
X513001Y221000D01*
X255501Y207998D02*
X261499D01*
Y204999D01*
X260499Y204000D01*
X258500D01*
X257500Y204999D01*
Y207998D01*
Y205999D02*
X255501Y204000D01*
Y199001D02*
X261499D01*
X258500Y202000D01*
Y198002D01*
X319501Y206998D02*
X325499D01*
Y203999D01*
X324499Y203000D01*
X322500D01*
X321500Y203999D01*
Y206998D01*
Y204999D02*
X319501Y203000D01*
Y198001D02*
X325499D01*
X322500Y201000D01*
Y197002D01*
X384501Y206498D02*
X390499D01*
Y203499D01*
X389499Y202500D01*
X387500D01*
X386500Y203499D01*
Y206498D01*
Y204499D02*
X384501Y202500D01*
Y197501D02*
X390499D01*
X387500Y200500D01*
Y196502D01*
X446501Y206498D02*
X452499D01*
Y203499D01*
X451499Y202500D01*
X449500D01*
X448500Y203499D01*
Y206498D01*
Y204499D02*
X446501Y202500D01*
Y197501D02*
X452499D01*
X449500Y200500D01*
Y196502D01*
X511501Y205498D02*
X517499D01*
Y202499D01*
X516499Y201500D01*
X514500D01*
X513500Y202499D01*
Y205498D01*
Y203499D02*
X511501Y201500D01*
Y196501D02*
X517499D01*
X514500Y199500D01*
Y195502D01*
X255501Y218498D02*
X261499D01*
Y215499D01*
X260499Y214500D01*
X258500D01*
X257500Y215499D01*
Y218498D01*
Y216499D02*
X255501Y214500D01*
X260499Y212500D02*
X261499Y211501D01*
Y209501D01*
X260499Y208502D01*
X259500D01*
X258500Y209501D01*
Y210501D01*
Y209501D01*
X257500Y208502D01*
X256501D01*
X255501Y209501D01*
Y211501D01*
X256501Y212500D01*
X319501Y217498D02*
X325499D01*
Y214499D01*
X324499Y213500D01*
X322500D01*
X321500Y214499D01*
Y217498D01*
Y215499D02*
X319501Y213500D01*
X324499Y211500D02*
X325499Y210501D01*
Y208501D01*
X324499Y207502D01*
X323500D01*
X322500Y208501D01*
Y209501D01*
Y208501D01*
X321500Y207502D01*
X320501D01*
X319501Y208501D01*
Y210501D01*
X320501Y211500D01*
X384501Y217498D02*
X390499D01*
Y214499D01*
X389499Y213500D01*
X387500D01*
X386500Y214499D01*
Y217498D01*
Y215499D02*
X384501Y213500D01*
X389499Y211500D02*
X390499Y210501D01*
Y208501D01*
X389499Y207502D01*
X388500D01*
X387500Y208501D01*
Y209501D01*
Y208501D01*
X386500Y207502D01*
X385501D01*
X384501Y208501D01*
Y210501D01*
X385501Y211500D01*
X446501Y217498D02*
X452499D01*
Y214499D01*
X451499Y213500D01*
X449500D01*
X448500Y214499D01*
Y217498D01*
Y215499D02*
X446501Y213500D01*
X451499Y211500D02*
X452499Y210501D01*
Y208501D01*
X451499Y207502D01*
X450500D01*
X449500Y208501D01*
Y209501D01*
Y208501D01*
X448500Y207502D01*
X447501D01*
X446501Y208501D01*
Y210501D01*
X447501Y211500D01*
X511501Y216498D02*
X517499D01*
Y213499D01*
X516499Y212500D01*
X514500D01*
X513500Y213499D01*
Y216498D01*
Y214499D02*
X511501Y212500D01*
X516499Y210500D02*
X517499Y209501D01*
Y207501D01*
X516499Y206502D01*
X515500D01*
X514500Y207501D01*
Y208501D01*
Y207501D01*
X513500Y206502D01*
X512501D01*
X511501Y207501D01*
Y209501D01*
X512501Y210500D01*
X329960Y465831D02*
Y467830D01*
Y466831D01*
X324961D01*
X323961Y467830D01*
Y468830D01*
X324961Y469830D01*
X323961Y459833D02*
Y463832D01*
X327960Y459833D01*
X328960D01*
X329960Y460833D01*
Y462832D01*
X328960Y463832D01*
X322962Y457834D02*
Y453835D01*
X329960Y451836D02*
Y449836D01*
Y450836D01*
X323961D01*
Y451836D01*
Y449836D01*
Y446837D02*
X327960D01*
Y443838D01*
X326960Y442838D01*
X323961D01*
X329960Y436840D02*
X323961D01*
Y439839D01*
X324961Y440839D01*
X326960D01*
X327960Y439839D01*
Y436840D01*
X323961Y434841D02*
Y432842D01*
Y433841D01*
X327960D01*
Y434841D01*
Y425844D02*
Y428843D01*
X326960Y429843D01*
X324961D01*
X323961Y428843D01*
Y425844D01*
X327960Y422845D02*
Y420846D01*
X326960Y419846D01*
X323961D01*
Y422845D01*
X324961Y423845D01*
X325961Y422845D01*
Y419846D01*
X328960Y416847D02*
X327960D01*
Y417847D01*
Y415847D01*
Y416847D01*
X324961D01*
X323961Y415847D01*
Y411848D02*
Y409849D01*
X324961Y408849D01*
X326960D01*
X327960Y409849D01*
Y411848D01*
X326960Y412848D01*
X324961D01*
X323961Y411848D01*
X327960Y406850D02*
X323961D01*
X325961D01*
X326960Y405850D01*
X327960Y404851D01*
Y403851D01*
X323961Y391855D02*
X329960D01*
X326960Y394854D01*
Y390855D01*
X394893Y471437D02*
Y473437D01*
Y472437D01*
X389894D01*
X388895Y473437D01*
Y474436D01*
X389894Y475436D01*
X388895Y465439D02*
Y469438D01*
X392893Y465439D01*
X393893D01*
X394893Y466439D01*
Y468438D01*
X393893Y469438D01*
X387895Y463440D02*
Y459441D01*
X394893Y457442D02*
Y455442D01*
Y456442D01*
X388895D01*
Y457442D01*
Y455442D01*
Y452444D02*
X392893D01*
Y449444D01*
X391894Y448445D01*
X388895D01*
X394893Y442447D02*
X388895D01*
Y445446D01*
X389894Y446445D01*
X391894D01*
X392893Y445446D01*
Y442447D01*
X388895Y440447D02*
Y438448D01*
Y439448D01*
X392893D01*
Y440447D01*
Y431450D02*
Y434449D01*
X391894Y435449D01*
X389894D01*
X388895Y434449D01*
Y431450D01*
X392893Y428451D02*
Y426452D01*
X391894Y425452D01*
X388895D01*
Y428451D01*
X389894Y429451D01*
X390894Y428451D01*
Y425452D01*
X393893Y422453D02*
X392893D01*
Y423453D01*
Y421454D01*
Y422453D01*
X389894D01*
X388895Y421454D01*
Y417455D02*
Y415455D01*
X389894Y414456D01*
X391894D01*
X392893Y415455D01*
Y417455D01*
X391894Y418455D01*
X389894D01*
X388895Y417455D01*
X392893Y412456D02*
X388895D01*
X390894D01*
X391894Y411457D01*
X392893Y410457D01*
Y409457D01*
X393893Y400460D02*
X394893Y399461D01*
Y397461D01*
X393893Y396462D01*
X392893D01*
X391894Y397461D01*
Y398461D01*
Y397461D01*
X390894Y396462D01*
X389894D01*
X388895Y397461D01*
Y399461D01*
X389894Y400460D01*
X457459Y467988D02*
Y469988D01*
Y468988D01*
X452461D01*
X451461Y469988D01*
Y470988D01*
X452461Y471987D01*
X451461Y461990D02*
Y465989D01*
X455460Y461990D01*
X456460D01*
X457459Y462990D01*
Y464990D01*
X456460Y465989D01*
X450462Y459991D02*
Y455992D01*
X457459Y453993D02*
Y451994D01*
Y452993D01*
X451461D01*
Y453993D01*
Y451994D01*
Y448995D02*
X455460D01*
Y445996D01*
X454460Y444996D01*
X451461D01*
X457459Y438998D02*
X451461D01*
Y441997D01*
X452461Y442997D01*
X454460D01*
X455460Y441997D01*
Y438998D01*
X451461Y436999D02*
Y434999D01*
Y435999D01*
X455460D01*
Y436999D01*
Y428001D02*
Y431001D01*
X454460Y432000D01*
X452461D01*
X451461Y431001D01*
Y428001D01*
X455460Y425002D02*
Y423003D01*
X454460Y422003D01*
X451461D01*
Y425002D01*
X452461Y426002D01*
X453461Y425002D01*
Y422003D01*
X456460Y419004D02*
X455460D01*
Y420004D01*
Y418005D01*
Y419004D01*
X452461D01*
X451461Y418005D01*
Y414006D02*
Y412007D01*
X452461Y411007D01*
X454460D01*
X455460Y412007D01*
Y414006D01*
X454460Y415006D01*
X452461D01*
X451461Y414006D01*
X455460Y409008D02*
X451461D01*
X453461D01*
X454460Y408008D01*
X455460Y407008D01*
Y406009D01*
X451461Y393013D02*
Y397011D01*
X455460Y393013D01*
X456460D01*
X457459Y394012D01*
Y396012D01*
X456460Y397011D01*
X513962Y417355D02*
Y415355D01*
Y416355D01*
X518960D01*
X519960Y415355D01*
Y414356D01*
X518960Y413356D01*
X519960Y423353D02*
Y419354D01*
X515961Y423353D01*
X514961D01*
X513962Y422353D01*
Y420354D01*
X514961Y419354D01*
X520960Y425352D02*
Y429351D01*
X513962Y431350D02*
Y433350D01*
Y432350D01*
X519960D01*
Y431350D01*
Y433350D01*
Y436349D02*
X515961D01*
Y439348D01*
X516961Y440347D01*
X519960D01*
X513962Y446345D02*
X519960D01*
Y443346D01*
X518960Y442347D01*
X516961D01*
X515961Y443346D01*
Y446345D01*
X519960Y448345D02*
Y450344D01*
Y449344D01*
X515961D01*
Y448345D01*
Y457342D02*
Y454343D01*
X516961Y453343D01*
X518960D01*
X519960Y454343D01*
Y457342D01*
X515961Y460341D02*
Y462340D01*
X516961Y463340D01*
X519960D01*
Y460341D01*
X518960Y459341D01*
X517961Y460341D01*
Y463340D01*
X514961Y466339D02*
X515961D01*
Y465339D01*
Y467339D01*
Y466339D01*
X518960D01*
X519960Y467339D01*
Y471337D02*
Y473337D01*
X518960Y474336D01*
X516961D01*
X515961Y473337D01*
Y471337D01*
X516961Y470338D01*
X518960D01*
X519960Y471337D01*
X515961Y476336D02*
X519960D01*
X517961D01*
X516961Y477335D01*
X515961Y478335D01*
Y479335D01*
X519960Y488332D02*
Y490331D01*
Y489331D01*
X513962D01*
X514961Y488332D01*
X300999Y469174D02*
Y471173D01*
Y470173D01*
X296001D01*
X295001Y471173D01*
Y472173D01*
X296001Y473172D01*
X295001Y467174D02*
Y465175D01*
Y466175D01*
X300999D01*
X299999Y467174D01*
X294001Y462176D02*
Y458177D01*
X300999Y456178D02*
Y454179D01*
Y455178D01*
X295001D01*
Y456178D01*
Y454179D01*
Y451180D02*
X299000D01*
Y448180D01*
X298000Y447181D01*
X295001D01*
X300999Y441183D02*
X295001D01*
Y444182D01*
X296001Y445182D01*
X298000D01*
X299000Y444182D01*
Y441183D01*
X295001Y439183D02*
Y437184D01*
Y438184D01*
X299000D01*
Y439183D01*
Y430186D02*
Y433185D01*
X298000Y434185D01*
X296001D01*
X295001Y433185D01*
Y430186D01*
X299000Y427187D02*
Y425188D01*
X298000Y424188D01*
X295001D01*
Y427187D01*
X296001Y428187D01*
X297000Y427187D01*
Y424188D01*
X299999Y421189D02*
X299000D01*
Y422189D01*
Y420190D01*
Y421189D01*
X296001D01*
X295001Y420190D01*
Y416191D02*
Y414191D01*
X296001Y413192D01*
X298000D01*
X299000Y414191D01*
Y416191D01*
X298000Y417191D01*
X296001D01*
X295001Y416191D01*
X299000Y411193D02*
X295001D01*
X297000D01*
X298000Y410193D01*
X299000Y409193D01*
Y408193D01*
X295001Y396197D02*
X300999D01*
X298000Y399196D01*
Y395198D01*
X363999Y466016D02*
Y468016D01*
Y467016D01*
X359000D01*
X358001Y468016D01*
Y469015D01*
X359000Y470015D01*
X358001Y464017D02*
Y462017D01*
Y463017D01*
X363999D01*
X362999Y464017D01*
X357001Y459019D02*
Y455020D01*
X363999Y453020D02*
Y451021D01*
Y452021D01*
X358001D01*
Y453020D01*
Y451021D01*
Y448022D02*
X362000D01*
Y445023D01*
X361000Y444023D01*
X358001D01*
X363999Y438025D02*
X358001D01*
Y441024D01*
X359000Y442024D01*
X361000D01*
X362000Y441024D01*
Y438025D01*
X358001Y436026D02*
Y434027D01*
Y435026D01*
X362000D01*
Y436026D01*
Y427029D02*
Y430028D01*
X361000Y431028D01*
X359000D01*
X358001Y430028D01*
Y427029D01*
X362000Y424030D02*
Y422030D01*
X361000Y421031D01*
X358001D01*
Y424030D01*
X359000Y425030D01*
X360000Y424030D01*
Y421031D01*
X362999Y418032D02*
X362000D01*
Y419031D01*
Y417032D01*
Y418032D01*
X359000D01*
X358001Y417032D01*
Y413033D02*
Y411034D01*
X359000Y410034D01*
X361000D01*
X362000Y411034D01*
Y413033D01*
X361000Y414033D01*
X359000D01*
X358001Y413033D01*
X362000Y408035D02*
X358001D01*
X360000D01*
X361000Y407035D01*
X362000Y406036D01*
Y405036D01*
X362999Y396039D02*
X363999Y395039D01*
Y393040D01*
X362999Y392040D01*
X362000D01*
X361000Y393040D01*
Y394040D01*
Y393040D01*
X360000Y392040D01*
X359000D01*
X358001Y393040D01*
Y395039D01*
X359000Y396039D01*
X429499Y461174D02*
Y463173D01*
Y462173D01*
X424501D01*
X423501Y463173D01*
Y464173D01*
X424501Y465172D01*
X423501Y459174D02*
Y457175D01*
Y458175D01*
X429499D01*
X428499Y459174D01*
X422501Y454176D02*
Y450177D01*
X429499Y448178D02*
Y446179D01*
Y447178D01*
X423501D01*
Y448178D01*
Y446179D01*
Y443180D02*
X427499D01*
Y440180D01*
X426500Y439181D01*
X423501D01*
X429499Y433183D02*
X423501D01*
Y436182D01*
X424501Y437182D01*
X426500D01*
X427499Y436182D01*
Y433183D01*
X423501Y431183D02*
Y429184D01*
Y430184D01*
X427499D01*
Y431183D01*
Y422186D02*
Y425185D01*
X426500Y426185D01*
X424501D01*
X423501Y425185D01*
Y422186D01*
X427499Y419187D02*
Y417188D01*
X426500Y416188D01*
X423501D01*
Y419187D01*
X424501Y420187D01*
X425500Y419187D01*
Y416188D01*
X428499Y413189D02*
X427499D01*
Y414189D01*
Y412190D01*
Y413189D01*
X424501D01*
X423501Y412190D01*
Y408191D02*
Y406191D01*
X424501Y405192D01*
X426500D01*
X427499Y406191D01*
Y408191D01*
X426500Y409191D01*
X424501D01*
X423501Y408191D01*
X427499Y403193D02*
X423501D01*
X425500D01*
X426500Y402193D01*
X427499Y401193D01*
Y400193D01*
X423501Y387198D02*
Y391196D01*
X427499Y387198D01*
X428499D01*
X429499Y388197D01*
Y390197D01*
X428499Y391196D01*
X492959Y460358D02*
Y462357D01*
Y461358D01*
X487961D01*
X486961Y462357D01*
Y463357D01*
X487961Y464357D01*
X486961Y458359D02*
Y456359D01*
Y457359D01*
X492959D01*
X491960Y458359D01*
X485962Y453360D02*
Y449362D01*
X492959Y447362D02*
Y445363D01*
Y446362D01*
X486961D01*
Y447362D01*
Y445363D01*
Y442364D02*
X490960D01*
Y439365D01*
X489960Y438365D01*
X486961D01*
X492959Y432367D02*
X486961D01*
Y435366D01*
X487961Y436366D01*
X489960D01*
X490960Y435366D01*
Y432367D01*
X486961Y430368D02*
Y428368D01*
Y429368D01*
X490960D01*
Y430368D01*
Y421371D02*
Y424370D01*
X489960Y425369D01*
X487961D01*
X486961Y424370D01*
Y421371D01*
X490960Y418371D02*
Y416372D01*
X489960Y415373D01*
X486961D01*
Y418371D01*
X487961Y419371D01*
X488961Y418371D01*
Y415373D01*
X491960Y412373D02*
X490960D01*
Y413373D01*
Y411374D01*
Y412373D01*
X487961D01*
X486961Y411374D01*
Y407375D02*
Y405376D01*
X487961Y404376D01*
X489960D01*
X490960Y405376D01*
Y407375D01*
X489960Y408375D01*
X487961D01*
X486961Y407375D01*
X490960Y402377D02*
X486961D01*
X488961D01*
X489960Y401377D01*
X490960Y400377D01*
Y399378D01*
X486961Y390381D02*
Y388381D01*
Y389381D01*
X492959D01*
X491960Y390381D01*
M02*
