M48
;Layer_Color=9474304
;FILE_FORMAT=2:4
INCH,TZ
;TYPE=PLATED
T01F00S00C0.0280
T02F00S00C0.0295
T03F00S00C0.0315
T04F00S00C0.0335
T05F00S00C0.0354
T06F00S00C0.0433
T07F00S00C0.0469
T08F00S00C0.0650
T09F00S00C0.1181
%
T01
X48650Y17000
X48942Y18942
X49450Y28000
X53750Y27950
X43300
X36750Y28000
X30500Y28050
X24300
X16550Y16400
X15950
T02
X50950Y11964
X51950Y12964
X52950Y11964
T03
X54100Y13950
Y14450
Y14950
T04
X18328Y13300
X21872
X49728Y17950
X49678Y19050
Y20100
Y21150
Y22200
X53222
Y21150
Y20100
Y19050
X53272Y17950
X54150Y19472
Y15928
X53750Y29528
X47700Y29028
X41450Y29078
X35150
X33972Y22300
X34022Y21250
X33972Y20200
Y19150
Y18100
X36928Y18150
Y19200
Y20250
Y21300
Y22350
X40472
Y21300
Y20250
Y19200
Y18150
X43178
Y19200
Y20250
Y21300
Y22350
X46722
Y21300
Y20250
Y19200
Y18150
X30428Y18100
Y19150
Y20200
X30478Y21250
X30428Y22300
X27622Y22400
Y21350
Y20300
Y19250
Y18150
X24078
Y19250
Y20300
Y21350
Y22400
X21272Y22450
Y21400
Y20350
Y19300
Y18250
X17728
Y19300
Y20350
Y21400
Y22450
X22500Y29128
X28800Y29178
Y32722
Y33578
Y37122
X22500
Y33578
Y32672
X35150Y32622
Y33578
Y37122
X41450Y37022
Y33478
Y32622
X47700Y32572
X47750Y33528
Y37072
X53750Y37422
Y33878
Y33072
T05
X49550Y29150
Y30150
Y31150
X52550
Y30150
Y29150
X46300Y29100
Y30100
Y31100
X43300
Y30100
Y29100
X39850
Y30100
Y31100
X36850
Y30100
Y29100
X33500Y29150
Y30150
Y31150
X30500
Y30150
Y29150
X27150
Y30150
Y31150
X24150
Y30150
Y29150
X20900
Y30150
Y31150
X17900
Y30150
Y29150
Y32150
Y33150
Y34150
Y35150
Y36150
Y37150
Y39300
Y40284
Y41269
Y42253
Y43237
Y44221
Y45206
Y46190
X20850
Y45206
Y44221
Y43237
Y42253
Y41269
Y40284
Y39300
X20900Y37150
Y36150
Y35150
Y34150
Y33150
Y32150
X24150
Y33150
Y34150
Y35150
Y36150
Y37150
X24250Y39300
Y40284
Y41269
Y42253
Y43237
Y44221
Y45206
Y46190
X27200
Y45206
Y44221
Y43237
Y42253
Y41269
Y40284
Y39300
X27150Y37150
Y36150
Y35150
Y34150
Y33150
Y32150
X30500
Y33150
Y34150
Y35150
Y36150
Y37150
X30550Y39266
Y40250
Y41234
Y42218
Y43203
Y44187
Y45171
Y46156
X33496
Y45171
Y44187
Y43203
Y42218
Y41234
Y40250
Y39266
X33500Y37150
Y36150
Y35150
Y34150
Y33150
Y32150
X36850Y32100
Y33100
Y34100
Y35100
Y36100
Y37100
X36900Y39266
Y40250
Y41234
Y42218
Y43203
Y44187
Y45171
Y46156
X39846
Y45171
Y44187
Y43203
Y42218
Y41234
Y40250
Y39266
X39850Y37100
Y36100
Y35100
Y34100
Y33100
Y32100
X43300
Y33100
Y34100
Y35100
Y36100
Y37100
Y39300
Y40284
Y41269
Y42253
Y43237
Y44221
Y45206
Y46190
X46246Y46187
Y45203
Y44219
Y43234
Y42250
Y41266
Y40282
Y39297
X46300Y37100
Y36100
Y35100
Y34100
Y33100
Y32100
X49550Y32150
Y33150
Y34150
Y35150
Y36150
Y37150
X49696Y39200
Y40184
Y41168
Y42153
Y43137
Y44121
Y45106
Y46090
X52646Y46118
Y45134
Y44150
Y43166
Y42182
Y41197
Y40213
Y39229
X52550Y37150
Y36150
Y35150
Y34150
Y33150
Y32150
X52646Y47103
Y48087
X49696Y48058
Y47074
X46246Y47171
Y48156
X43300Y48158
Y47174
X39846Y47140
Y48124
X36900
Y47140
X33496
Y48124
X30550
Y47140
X27200Y47174
Y48158
X24250
Y47174
X20850
Y48158
X17900
Y47174
T06
X18250Y11550
X19250
X20250
T07
X21950Y11700
X22950
X23950
X24950
X25950
X26950
X27950
X28950
X29950
X30950
T08
X32400Y11900
X33959
X35518
X37077
X38636
X40195
X41950
X43509
X45068
X46627
X48186
X49745
T09
X16250Y11000
X54050Y11050
X54000Y48600
X16400
M30
