G04*
G04 #@! TF.GenerationSoftware,Altium Limited,Altium Designer,24.6.1 (21)*
G04*
G04 Layer_Color=8421504*
%FSLAX25Y25*%
%MOIN*%
G70*
G04*
G04 #@! TF.SameCoordinates,BD51E7C1-7467-4EA1-BF67-8BC641B90C76*
G04*
G04*
G04 #@! TF.FilePolarity,Positive*
G04*
G01*
G75*
%ADD15R,0.06299X0.11024*%
%ADD16O,0.09843X0.02756*%
D15*
X168000Y146965D02*
D03*
Y130035D02*
D03*
D16*
X217854Y274000D02*
D03*
Y269000D02*
D03*
Y264000D02*
D03*
Y259000D02*
D03*
X237146Y274000D02*
D03*
Y269000D02*
D03*
Y264000D02*
D03*
Y259000D02*
D03*
X279854Y274000D02*
D03*
Y269000D02*
D03*
Y264000D02*
D03*
Y259000D02*
D03*
X299146Y274000D02*
D03*
Y269000D02*
D03*
Y264000D02*
D03*
Y259000D02*
D03*
X344854Y274000D02*
D03*
Y269000D02*
D03*
Y264000D02*
D03*
Y259000D02*
D03*
X364146Y274000D02*
D03*
Y269000D02*
D03*
Y264000D02*
D03*
Y259000D02*
D03*
X406854Y274500D02*
D03*
Y269500D02*
D03*
Y264500D02*
D03*
Y259500D02*
D03*
X426146Y274500D02*
D03*
Y269500D02*
D03*
Y264500D02*
D03*
Y259500D02*
D03*
X470354Y274000D02*
D03*
Y269000D02*
D03*
Y264000D02*
D03*
Y259000D02*
D03*
X489646Y274000D02*
D03*
Y269000D02*
D03*
Y264000D02*
D03*
Y259000D02*
D03*
X520000Y273000D02*
D03*
Y268000D02*
D03*
Y263000D02*
D03*
Y258000D02*
D03*
X539291Y273000D02*
D03*
Y268000D02*
D03*
Y263000D02*
D03*
Y258000D02*
D03*
M02*
