G04*
G04 #@! TF.GenerationSoftware,Altium Limited,Altium Designer,24.6.1 (21)*
G04*
G04 Layer_Color=16711935*
%FSLAX25Y25*%
%MOIN*%
G70*
G04*
G04 #@! TF.SameCoordinates,BD51E7C1-7467-4EA1-BF67-8BC641B90C76*
G04*
G04*
G04 #@! TF.FilePolarity,Negative*
G04*
G01*
G75*
%ADD18R,0.09843X0.09843*%
%ADD19C,0.09843*%
%ADD20C,0.06706*%
%ADD21R,0.06706X0.06706*%
%ADD22R,0.06115X0.06115*%
%ADD23C,0.06115*%
%ADD24R,0.06115X0.06115*%
%ADD25R,0.07244X0.07244*%
%ADD26C,0.07244*%
%ADD27C,0.05512*%
%ADD28R,0.05512X0.05512*%
%ADD29R,0.04934X0.04934*%
%ADD30C,0.04934*%
%ADD31R,0.05721X0.05721*%
%ADD32C,0.05721*%
%ADD33C,0.07493*%
%ADD34R,0.07493X0.07493*%
%ADD35C,0.12611*%
%ADD36C,0.05800*%
D18*
X497453Y119000D02*
D03*
X401953D02*
D03*
D19*
X481862D02*
D03*
X466272D02*
D03*
X450681D02*
D03*
X435090D02*
D03*
X419500D02*
D03*
X324000D02*
D03*
X339591D02*
D03*
X355181D02*
D03*
X370772D02*
D03*
X386362D02*
D03*
D20*
X305000Y371500D02*
D03*
Y361500D02*
D03*
Y351500D02*
D03*
Y341500D02*
D03*
Y331500D02*
D03*
Y321500D02*
D03*
Y311500D02*
D03*
Y301500D02*
D03*
Y291500D02*
D03*
X335000Y371500D02*
D03*
Y361500D02*
D03*
Y351500D02*
D03*
Y341500D02*
D03*
Y331500D02*
D03*
Y321500D02*
D03*
Y311500D02*
D03*
Y301500D02*
D03*
X495500Y371500D02*
D03*
Y361500D02*
D03*
Y351500D02*
D03*
Y341500D02*
D03*
Y331500D02*
D03*
Y321500D02*
D03*
Y311500D02*
D03*
Y301500D02*
D03*
Y291500D02*
D03*
X525500Y371500D02*
D03*
Y361500D02*
D03*
Y351500D02*
D03*
Y341500D02*
D03*
Y331500D02*
D03*
Y321500D02*
D03*
Y311500D02*
D03*
Y301500D02*
D03*
X179000Y371500D02*
D03*
Y361500D02*
D03*
Y351500D02*
D03*
Y341500D02*
D03*
Y331500D02*
D03*
Y321500D02*
D03*
Y311500D02*
D03*
Y301500D02*
D03*
Y291500D02*
D03*
X209000Y371500D02*
D03*
Y361500D02*
D03*
Y351500D02*
D03*
Y341500D02*
D03*
Y331500D02*
D03*
Y321500D02*
D03*
Y311500D02*
D03*
Y301500D02*
D03*
X398500Y301000D02*
D03*
Y311000D02*
D03*
Y321000D02*
D03*
Y331000D02*
D03*
Y341000D02*
D03*
Y351000D02*
D03*
Y361000D02*
D03*
Y371000D02*
D03*
X368500Y291000D02*
D03*
Y301000D02*
D03*
Y311000D02*
D03*
Y321000D02*
D03*
Y331000D02*
D03*
Y341000D02*
D03*
Y351000D02*
D03*
Y361000D02*
D03*
Y371000D02*
D03*
X463000Y301000D02*
D03*
Y311000D02*
D03*
Y321000D02*
D03*
Y331000D02*
D03*
Y341000D02*
D03*
Y351000D02*
D03*
Y361000D02*
D03*
Y371000D02*
D03*
X433000Y291000D02*
D03*
Y301000D02*
D03*
Y311000D02*
D03*
Y321000D02*
D03*
Y331000D02*
D03*
Y341000D02*
D03*
Y351000D02*
D03*
Y361000D02*
D03*
Y371000D02*
D03*
X271500Y301500D02*
D03*
Y311500D02*
D03*
Y321500D02*
D03*
Y331500D02*
D03*
Y341500D02*
D03*
Y351500D02*
D03*
Y361500D02*
D03*
Y371500D02*
D03*
X241500Y291500D02*
D03*
Y301500D02*
D03*
Y311500D02*
D03*
Y321500D02*
D03*
Y331500D02*
D03*
Y341500D02*
D03*
Y351500D02*
D03*
Y361500D02*
D03*
Y371500D02*
D03*
D21*
X335000Y291500D02*
D03*
X525500D02*
D03*
X209000D02*
D03*
X398500Y291000D02*
D03*
X463000D02*
D03*
X271500Y291500D02*
D03*
D22*
X537500Y338784D02*
D03*
X351500Y335784D02*
D03*
X288000D02*
D03*
X537500Y295284D02*
D03*
X477500Y335283D02*
D03*
X477000Y290283D02*
D03*
X414500Y334784D02*
D03*
Y290784D02*
D03*
X351500D02*
D03*
X288000Y291783D02*
D03*
X225000Y291283D02*
D03*
Y335784D02*
D03*
X541500Y194717D02*
D03*
D23*
X537500Y374217D02*
D03*
X351500Y371217D02*
D03*
X288000D02*
D03*
X537500Y330716D02*
D03*
X477500Y370717D02*
D03*
X477000Y325716D02*
D03*
X414500Y370216D02*
D03*
Y326217D02*
D03*
X351500D02*
D03*
X288000Y327217D02*
D03*
X225000Y326716D02*
D03*
Y371217D02*
D03*
X212717Y182500D02*
D03*
X276217Y181500D02*
D03*
X339717Y181000D02*
D03*
X404716Y181500D02*
D03*
X467216D02*
D03*
X532717Y179500D02*
D03*
X212717Y193000D02*
D03*
X177284Y214000D02*
D03*
Y203500D02*
D03*
Y224500D02*
D03*
X276217Y192500D02*
D03*
X339717Y191500D02*
D03*
X304283Y202000D02*
D03*
X304784Y212500D02*
D03*
X304283Y223000D02*
D03*
X404716Y192000D02*
D03*
X369284Y202500D02*
D03*
Y213000D02*
D03*
Y223500D02*
D03*
X467216Y192000D02*
D03*
X431783Y202500D02*
D03*
Y213000D02*
D03*
Y223500D02*
D03*
X532217Y190500D02*
D03*
X496783Y201000D02*
D03*
Y211500D02*
D03*
Y222000D02*
D03*
X240784Y203000D02*
D03*
Y224000D02*
D03*
Y213500D02*
D03*
X541500Y159283D02*
D03*
X218717Y133000D02*
D03*
D24*
X177284Y182500D02*
D03*
X240784Y181500D02*
D03*
X304283Y181000D02*
D03*
X369284Y181500D02*
D03*
X431783D02*
D03*
X497284Y179500D02*
D03*
X177284Y193000D02*
D03*
X212717Y214000D02*
D03*
Y203500D02*
D03*
Y224500D02*
D03*
X240784Y192500D02*
D03*
X304283Y191500D02*
D03*
X339717Y202000D02*
D03*
X340216Y212500D02*
D03*
X339717Y223000D02*
D03*
X369284Y192000D02*
D03*
X404716Y202500D02*
D03*
Y213000D02*
D03*
Y223500D02*
D03*
X431783Y192000D02*
D03*
X467216Y202500D02*
D03*
Y213000D02*
D03*
Y223500D02*
D03*
X496783Y190500D02*
D03*
X532217Y201000D02*
D03*
Y211500D02*
D03*
Y222000D02*
D03*
X276217Y203000D02*
D03*
Y224000D02*
D03*
Y213500D02*
D03*
X183283Y133000D02*
D03*
D25*
X309500Y117000D02*
D03*
D26*
X299500D02*
D03*
X289500D02*
D03*
X279500D02*
D03*
X269500D02*
D03*
X259500D02*
D03*
X249500D02*
D03*
X239500D02*
D03*
X229500D02*
D03*
X219500D02*
D03*
D27*
X179000Y393000D02*
D03*
Y402843D02*
D03*
Y412685D02*
D03*
Y422528D02*
D03*
Y432370D02*
D03*
Y442213D02*
D03*
Y452055D02*
D03*
Y461898D02*
D03*
Y471740D02*
D03*
X208500Y393000D02*
D03*
Y402843D02*
D03*
Y412685D02*
D03*
Y422528D02*
D03*
Y432370D02*
D03*
Y442213D02*
D03*
Y452055D02*
D03*
Y461898D02*
D03*
Y471740D02*
D03*
X272000Y393000D02*
D03*
Y402843D02*
D03*
Y412685D02*
D03*
Y422528D02*
D03*
Y432370D02*
D03*
Y442213D02*
D03*
Y452055D02*
D03*
Y461898D02*
D03*
Y471740D02*
D03*
X305500Y392657D02*
D03*
Y402500D02*
D03*
Y412343D02*
D03*
Y422185D02*
D03*
Y432028D02*
D03*
Y441870D02*
D03*
Y451713D02*
D03*
Y461555D02*
D03*
Y471398D02*
D03*
X334961Y392657D02*
D03*
Y402500D02*
D03*
Y412343D02*
D03*
Y422185D02*
D03*
Y432028D02*
D03*
Y441870D02*
D03*
Y451713D02*
D03*
Y461555D02*
D03*
Y471398D02*
D03*
X369000Y392657D02*
D03*
Y402500D02*
D03*
Y412343D02*
D03*
Y422185D02*
D03*
Y432028D02*
D03*
Y441870D02*
D03*
Y451713D02*
D03*
Y461555D02*
D03*
Y471398D02*
D03*
X398461Y392657D02*
D03*
Y402500D02*
D03*
Y412343D02*
D03*
Y422185D02*
D03*
Y432028D02*
D03*
Y441870D02*
D03*
Y451713D02*
D03*
Y461555D02*
D03*
Y471398D02*
D03*
X433000Y393000D02*
D03*
Y402843D02*
D03*
Y412685D02*
D03*
Y422528D02*
D03*
Y432370D02*
D03*
Y442213D02*
D03*
Y452055D02*
D03*
Y461898D02*
D03*
Y471740D02*
D03*
X462461Y392972D02*
D03*
Y402815D02*
D03*
Y412657D02*
D03*
Y422500D02*
D03*
Y432342D02*
D03*
Y442185D02*
D03*
Y452028D02*
D03*
Y461870D02*
D03*
Y471713D02*
D03*
X496961Y392000D02*
D03*
Y401842D02*
D03*
Y411685D02*
D03*
Y421528D02*
D03*
Y431370D02*
D03*
Y441213D02*
D03*
Y451055D02*
D03*
Y460898D02*
D03*
Y470740D02*
D03*
X526461Y392287D02*
D03*
Y402130D02*
D03*
Y411972D02*
D03*
Y421815D02*
D03*
Y431658D02*
D03*
Y441500D02*
D03*
Y451342D02*
D03*
Y461185D02*
D03*
Y471028D02*
D03*
X242500Y393000D02*
D03*
Y402843D02*
D03*
Y412685D02*
D03*
Y422528D02*
D03*
Y432370D02*
D03*
Y442213D02*
D03*
Y452055D02*
D03*
Y461898D02*
D03*
Y471740D02*
D03*
D28*
X179000Y481583D02*
D03*
X208500D02*
D03*
X272000D02*
D03*
X305500Y481240D02*
D03*
X334961D02*
D03*
X369000D02*
D03*
X398461D02*
D03*
X433000Y481583D02*
D03*
X462461Y481555D02*
D03*
X496961Y480583D02*
D03*
X526461Y480870D02*
D03*
X242500Y481583D02*
D03*
D29*
X541000Y139500D02*
D03*
D30*
Y144500D02*
D03*
Y149500D02*
D03*
D31*
X509500Y119638D02*
D03*
D32*
X519500Y129638D02*
D03*
X529500Y119638D02*
D03*
D33*
X182500Y115500D02*
D03*
X192500D02*
D03*
D34*
X202500D02*
D03*
D35*
X540000Y486000D02*
D03*
X540500Y110500D02*
D03*
X164000Y486000D02*
D03*
X162500Y110000D02*
D03*
D36*
X489422Y189422D02*
D03*
X486500Y170000D02*
D03*
X159500Y164000D02*
D03*
X165500D02*
D03*
X537500Y279500D02*
D03*
X494500Y280000D02*
D03*
X433000Y279500D02*
D03*
X367500Y280000D02*
D03*
X305000Y280500D02*
D03*
X243000D02*
D03*
M02*
