G04*
G04 #@! TF.GenerationSoftware,Altium Limited,Altium Designer,24.6.1 (21)*
G04*
G04 Layer_Physical_Order=2*
G04 Layer_Color=16711680*
%FSLAX25Y25*%
%MOIN*%
G70*
G04*
G04 #@! TF.SameCoordinates,BD51E7C1-7467-4EA1-BF67-8BC641B90C76*
G04*
G04*
G04 #@! TF.FilePolarity,Positive*
G04*
G01*
G75*
%ADD14C,0.01000*%
%ADD18R,0.09843X0.09843*%
%ADD19C,0.09843*%
%ADD25R,0.07244X0.07244*%
%ADD26C,0.07244*%
%ADD27C,0.05512*%
%ADD28R,0.05512X0.05512*%
%ADD37C,0.05906*%
%ADD38R,0.05906X0.05906*%
%ADD39R,0.05315X0.05315*%
%ADD40C,0.05315*%
%ADD41R,0.05315X0.05315*%
%ADD42R,0.04134X0.04134*%
%ADD43C,0.04134*%
%ADD44R,0.04921X0.04921*%
%ADD45C,0.04921*%
%ADD46C,0.06693*%
%ADD47R,0.06693X0.06693*%
%ADD48C,0.11811*%
%ADD49C,0.05000*%
G36*
X185000Y495000D02*
X521500D01*
Y491500D01*
X527912Y485088D01*
X527721Y484626D01*
X522705D01*
Y477114D01*
X530217D01*
Y482130D01*
X530679Y482322D01*
X548000Y465000D01*
Y173494D01*
X547818Y173375D01*
X547500Y173302D01*
X543029Y177772D01*
Y191059D01*
X543510D01*
X543657Y191030D01*
X543805Y191059D01*
X545157D01*
Y192411D01*
X545187Y192559D01*
X545157Y192707D01*
Y198374D01*
X537843D01*
Y191059D01*
X539971D01*
Y177139D01*
X540087Y176554D01*
X540419Y176058D01*
X544971Y171505D01*
Y161587D01*
X544471Y161453D01*
X544427Y161529D01*
X543746Y162210D01*
X542912Y162692D01*
X541982Y162941D01*
X541018D01*
X540088Y162692D01*
X539254Y162210D01*
X538573Y161529D01*
X538092Y160695D01*
X537843Y159765D01*
Y158802D01*
X538092Y157872D01*
X538573Y157038D01*
X539254Y156357D01*
X540088Y155875D01*
X541018Y155626D01*
X541982D01*
X542912Y155875D01*
X543746Y156357D01*
X544427Y157038D01*
X544471Y157114D01*
X544971Y156980D01*
Y128170D01*
X534007Y117207D01*
X532629D01*
X532381Y117707D01*
X532725Y118302D01*
X532961Y119182D01*
Y120093D01*
X532725Y120974D01*
X532269Y121763D01*
X531625Y122407D01*
X530836Y122863D01*
X529956Y123098D01*
X529044D01*
X528164Y122863D01*
X527375Y122407D01*
X526731Y121763D01*
X526275Y120974D01*
X526039Y120093D01*
Y119289D01*
X525610Y119010D01*
X523902Y120719D01*
X523406Y121051D01*
X522820Y121167D01*
X512961D01*
Y123098D01*
X506039D01*
Y116177D01*
X512961D01*
Y118108D01*
X522187D01*
X525700Y114596D01*
X526196Y114264D01*
X526781Y114148D01*
X533941D01*
X534148Y113648D01*
X522000Y101500D01*
X174000D01*
Y109500D01*
X155000Y128500D01*
X156000Y471000D01*
X159000D01*
X184000Y496000D01*
X185000Y495000D01*
D02*
G37*
%LPC*%
G36*
X275756Y485339D02*
X268244D01*
Y477827D01*
X275756D01*
Y485339D01*
D02*
G37*
G36*
X212256D02*
X204744D01*
Y477827D01*
X212256D01*
Y485339D01*
D02*
G37*
G36*
X466217Y485311D02*
X458705D01*
Y477799D01*
X466217D01*
Y485311D01*
D02*
G37*
G36*
X402216Y484996D02*
X394705D01*
Y477484D01*
X402216D01*
Y484996D01*
D02*
G37*
G36*
X338717D02*
X331205D01*
Y477484D01*
X338717D01*
Y484996D01*
D02*
G37*
G36*
X272495Y475496D02*
X271505D01*
X270550Y475240D01*
X269694Y474746D01*
X268994Y474046D01*
X268500Y473190D01*
X268244Y472235D01*
Y471246D01*
X268500Y470290D01*
X268994Y469434D01*
X269694Y468735D01*
X270550Y468240D01*
X271505Y467984D01*
X272495D01*
X273450Y468240D01*
X274306Y468735D01*
X275006Y469434D01*
X275500Y470290D01*
X275756Y471246D01*
Y472235D01*
X275500Y473190D01*
X275006Y474046D01*
X274306Y474746D01*
X273450Y475240D01*
X272495Y475496D01*
D02*
G37*
G36*
X208995D02*
X208005D01*
X207050Y475240D01*
X206194Y474746D01*
X205494Y474046D01*
X205000Y473190D01*
X204744Y472235D01*
Y471246D01*
X205000Y470290D01*
X205494Y469434D01*
X206194Y468735D01*
X207050Y468240D01*
X208005Y467984D01*
X208995D01*
X209950Y468240D01*
X210806Y468735D01*
X211506Y469434D01*
X212000Y470290D01*
X212256Y471246D01*
Y472235D01*
X212000Y473190D01*
X211506Y474046D01*
X210806Y474746D01*
X209950Y475240D01*
X208995Y475496D01*
D02*
G37*
G36*
X462955Y475468D02*
X461966D01*
X461011Y475212D01*
X460154Y474718D01*
X459455Y474019D01*
X458961Y473162D01*
X458705Y472207D01*
Y471218D01*
X458961Y470263D01*
X459455Y469406D01*
X460154Y468707D01*
X461011Y468213D01*
X461966Y467957D01*
X462955D01*
X463910Y468213D01*
X464767Y468707D01*
X465466Y469406D01*
X465961Y470263D01*
X466217Y471218D01*
Y472207D01*
X465961Y473162D01*
X465466Y474019D01*
X464767Y474718D01*
X463910Y475212D01*
X462955Y475468D01*
D02*
G37*
G36*
X398955Y475153D02*
X397966D01*
X397011Y474898D01*
X396154Y474403D01*
X395455Y473704D01*
X394961Y472847D01*
X394705Y471892D01*
Y470903D01*
X394961Y469948D01*
X395455Y469092D01*
X396154Y468392D01*
X397011Y467898D01*
X397966Y467642D01*
X398955D01*
X399910Y467898D01*
X400767Y468392D01*
X401466Y469092D01*
X401961Y469948D01*
X402216Y470903D01*
Y471892D01*
X401961Y472847D01*
X401466Y473704D01*
X400767Y474403D01*
X399910Y474898D01*
X398955Y475153D01*
D02*
G37*
G36*
X335455D02*
X334466D01*
X333511Y474898D01*
X332654Y474403D01*
X331955Y473704D01*
X331461Y472847D01*
X331205Y471892D01*
Y470903D01*
X331461Y469948D01*
X331955Y469092D01*
X332654Y468392D01*
X333511Y467898D01*
X334466Y467642D01*
X335455D01*
X336410Y467898D01*
X337267Y468392D01*
X337966Y469092D01*
X338461Y469948D01*
X338717Y470903D01*
Y471892D01*
X338461Y472847D01*
X337966Y473704D01*
X337267Y474403D01*
X336410Y474898D01*
X335455Y475153D01*
D02*
G37*
G36*
X526955Y474784D02*
X525966D01*
X525011Y474528D01*
X524154Y474033D01*
X523455Y473334D01*
X522961Y472477D01*
X522705Y471522D01*
Y470533D01*
X522961Y469578D01*
X523455Y468721D01*
X524154Y468022D01*
X525011Y467528D01*
X525966Y467272D01*
X526955D01*
X527910Y467528D01*
X528767Y468022D01*
X529466Y468721D01*
X529961Y469578D01*
X530217Y470533D01*
Y471522D01*
X529961Y472477D01*
X529466Y473334D01*
X528767Y474033D01*
X527910Y474528D01*
X526955Y474784D01*
D02*
G37*
G36*
X246256Y485339D02*
X238744D01*
Y477827D01*
X244093D01*
X251971Y469949D01*
Y465139D01*
X251471Y464932D01*
X246024Y470379D01*
X246256Y471246D01*
Y472235D01*
X246000Y473190D01*
X245505Y474046D01*
X244806Y474746D01*
X243950Y475240D01*
X242994Y475496D01*
X242005D01*
X241050Y475240D01*
X240194Y474746D01*
X239494Y474046D01*
X239000Y473190D01*
X238744Y472235D01*
Y471246D01*
X239000Y470290D01*
X239494Y469434D01*
X240194Y468735D01*
X241050Y468240D01*
X242005Y467984D01*
X242994D01*
X243861Y468216D01*
X249226Y462851D01*
Y454164D01*
X248765Y453972D01*
X244504Y458233D01*
X244544Y458741D01*
X244806Y458892D01*
X245505Y459591D01*
X246000Y460448D01*
X246256Y461403D01*
Y462392D01*
X246000Y463347D01*
X245505Y464204D01*
X244806Y464903D01*
X243950Y465398D01*
X242994Y465654D01*
X242005D01*
X241050Y465398D01*
X240194Y464903D01*
X239494Y464204D01*
X239000Y463347D01*
X238744Y462392D01*
Y461403D01*
X239000Y460448D01*
X239494Y459591D01*
X240194Y458892D01*
X241050Y458398D01*
X241403Y458303D01*
Y457642D01*
X241519Y457057D01*
X241851Y456560D01*
X242154Y456257D01*
X241917Y455787D01*
X241050Y455555D01*
X240194Y455061D01*
X239494Y454361D01*
X239000Y453505D01*
X238744Y452550D01*
Y451561D01*
X239000Y450605D01*
X239494Y449749D01*
X240194Y449050D01*
X241050Y448555D01*
X241403Y448461D01*
Y447799D01*
X241519Y447214D01*
X241851Y446718D01*
X242154Y446415D01*
X241917Y445945D01*
X241050Y445713D01*
X240194Y445218D01*
X239494Y444519D01*
X239000Y443662D01*
X238744Y442707D01*
Y441718D01*
X239000Y440763D01*
X239494Y439906D01*
X240194Y439207D01*
X241050Y438713D01*
X242005Y438457D01*
X242994D01*
X243950Y438713D01*
X244726Y439161D01*
X245227Y438996D01*
Y435587D01*
X244726Y435422D01*
X243950Y435870D01*
X242994Y436126D01*
X242005D01*
X241050Y435870D01*
X240194Y435376D01*
X239494Y434676D01*
X239000Y433820D01*
X238744Y432865D01*
Y431876D01*
X239000Y430920D01*
X239494Y430064D01*
X240194Y429365D01*
X241050Y428870D01*
X242005Y428614D01*
X242994D01*
X243950Y428870D01*
X244726Y429319D01*
X245227Y429154D01*
Y425744D01*
X244726Y425579D01*
X243950Y426027D01*
X242994Y426284D01*
X242005D01*
X241050Y426027D01*
X240194Y425533D01*
X239494Y424834D01*
X239000Y423977D01*
X238744Y423022D01*
Y422033D01*
X239000Y421078D01*
X239494Y420221D01*
X240194Y419522D01*
X241050Y419028D01*
X242005Y418772D01*
X242994D01*
X243950Y419028D01*
X244726Y419476D01*
X245227Y419311D01*
Y415902D01*
X244726Y415736D01*
X243950Y416185D01*
X242994Y416441D01*
X242005D01*
X241050Y416185D01*
X240194Y415691D01*
X239494Y414991D01*
X239000Y414135D01*
X238744Y413179D01*
Y412191D01*
X239000Y411235D01*
X239494Y410379D01*
X240194Y409680D01*
X241050Y409185D01*
X242005Y408929D01*
X242994D01*
X243950Y409185D01*
X244726Y409634D01*
X245227Y409469D01*
Y406059D01*
X244726Y405894D01*
X243950Y406343D01*
X242994Y406598D01*
X242005D01*
X241050Y406343D01*
X240194Y405848D01*
X239494Y405149D01*
X239000Y404292D01*
X238744Y403337D01*
Y402348D01*
X239000Y401393D01*
X239494Y400536D01*
X240194Y399837D01*
X241050Y399343D01*
X242005Y399087D01*
X242994D01*
X243950Y399343D01*
X244726Y399791D01*
X245227Y399626D01*
Y396217D01*
X244726Y396052D01*
X243950Y396500D01*
X242994Y396756D01*
X242005D01*
X241050Y396500D01*
X240194Y396006D01*
X239494Y395306D01*
X239000Y394450D01*
X238744Y393495D01*
Y392506D01*
X239000Y391550D01*
X239494Y390694D01*
X240194Y389995D01*
X241050Y389500D01*
X242005Y389244D01*
X242994D01*
X243950Y389500D01*
X244726Y389949D01*
X245227Y389784D01*
Y373951D01*
X244726Y373817D01*
X244663Y373927D01*
X243927Y374663D01*
X243026Y375183D01*
X242020Y375453D01*
X240980D01*
X239974Y375183D01*
X239073Y374663D01*
X238337Y373927D01*
X237817Y373026D01*
X237547Y372020D01*
Y370980D01*
X237817Y369974D01*
X238337Y369073D01*
X239073Y368337D01*
X239974Y367817D01*
X240980Y367547D01*
X242020D01*
X243026Y367817D01*
X243927Y368337D01*
X244663Y369073D01*
X244726Y369183D01*
X245227Y369049D01*
Y363951D01*
X244726Y363817D01*
X244663Y363927D01*
X243927Y364663D01*
X243026Y365183D01*
X242020Y365453D01*
X240980D01*
X239974Y365183D01*
X239073Y364663D01*
X238337Y363927D01*
X237817Y363026D01*
X237547Y362020D01*
Y360980D01*
X237817Y359974D01*
X238337Y359073D01*
X239073Y358337D01*
X239974Y357817D01*
X240980Y357547D01*
X242020D01*
X243026Y357817D01*
X243927Y358337D01*
X244663Y359073D01*
X244726Y359183D01*
X245227Y359049D01*
Y353951D01*
X244726Y353817D01*
X244663Y353927D01*
X243927Y354663D01*
X243026Y355183D01*
X242020Y355453D01*
X240980D01*
X239974Y355183D01*
X239073Y354663D01*
X238337Y353927D01*
X237817Y353026D01*
X237547Y352020D01*
Y350980D01*
X237817Y349974D01*
X238337Y349073D01*
X239073Y348337D01*
X239974Y347817D01*
X240980Y347547D01*
X242020D01*
X243026Y347817D01*
X243927Y348337D01*
X244663Y349073D01*
X244726Y349183D01*
X245227Y349049D01*
Y343951D01*
X244726Y343817D01*
X244663Y343927D01*
X243927Y344663D01*
X243026Y345183D01*
X242020Y345453D01*
X240980D01*
X239974Y345183D01*
X239073Y344663D01*
X238337Y343927D01*
X237817Y343026D01*
X237547Y342020D01*
Y340980D01*
X237817Y339974D01*
X238337Y339073D01*
X239073Y338337D01*
X239974Y337817D01*
X240980Y337547D01*
X242020D01*
X243026Y337817D01*
X243927Y338337D01*
X244663Y339073D01*
X244726Y339183D01*
X245227Y339049D01*
Y333951D01*
X244726Y333817D01*
X244663Y333927D01*
X243927Y334663D01*
X243026Y335183D01*
X242020Y335453D01*
X240980D01*
X239974Y335183D01*
X239073Y334663D01*
X238337Y333927D01*
X237817Y333026D01*
X237547Y332020D01*
Y330980D01*
X237817Y329974D01*
X238337Y329073D01*
X239073Y328337D01*
X239974Y327817D01*
X240980Y327547D01*
X242020D01*
X243026Y327817D01*
X243927Y328337D01*
X244663Y329073D01*
X244726Y329183D01*
X245227Y329049D01*
Y323951D01*
X244726Y323817D01*
X244663Y323927D01*
X243927Y324663D01*
X243026Y325183D01*
X242020Y325453D01*
X240980D01*
X239974Y325183D01*
X239073Y324663D01*
X238337Y323927D01*
X237817Y323026D01*
X237547Y322020D01*
Y320980D01*
X237817Y319974D01*
X238337Y319073D01*
X239073Y318337D01*
X239974Y317817D01*
X240980Y317547D01*
X242020D01*
X243026Y317817D01*
X243927Y318337D01*
X244663Y319073D01*
X244726Y319183D01*
X245227Y319049D01*
Y317389D01*
X243022Y315184D01*
X242020Y315453D01*
X240980D01*
X239974Y315183D01*
X239073Y314663D01*
X238337Y313927D01*
X237817Y313026D01*
X237547Y312020D01*
Y310980D01*
X237817Y309974D01*
X238337Y309073D01*
X239073Y308337D01*
X239974Y307817D01*
X240980Y307547D01*
X242020D01*
X243026Y307817D01*
X243927Y308337D01*
X244663Y309073D01*
X245183Y309974D01*
X245453Y310980D01*
Y312020D01*
X245184Y313022D01*
X246509Y314346D01*
X246971Y314154D01*
Y309134D01*
X243022Y305185D01*
X242020Y305453D01*
X240980D01*
X239974Y305183D01*
X239073Y304663D01*
X238337Y303927D01*
X237817Y303026D01*
X237547Y302020D01*
Y300980D01*
X237817Y299974D01*
X238337Y299073D01*
X239073Y298337D01*
X239974Y297817D01*
X240980Y297547D01*
X242020D01*
X243026Y297817D01*
X243927Y298337D01*
X244663Y299073D01*
X245183Y299974D01*
X245453Y300980D01*
Y302020D01*
X245184Y303022D01*
X248765Y306602D01*
X249226Y306410D01*
Y301389D01*
X243022Y295184D01*
X242020Y295453D01*
X240980D01*
X239974Y295183D01*
X239073Y294663D01*
X238337Y293927D01*
X237817Y293026D01*
X237547Y292020D01*
Y290980D01*
X237817Y289974D01*
X238337Y289073D01*
X239073Y288337D01*
X239974Y287817D01*
X240980Y287547D01*
X242020D01*
X243026Y287817D01*
X243927Y288337D01*
X244663Y289073D01*
X245183Y289974D01*
X245453Y290980D01*
Y292020D01*
X245184Y293022D01*
X251837Y299675D01*
X251909Y299781D01*
X252104Y299834D01*
X252528Y299809D01*
X261919Y290419D01*
X262415Y290087D01*
X263000Y289971D01*
X267547D01*
Y287547D01*
X275453D01*
Y295453D01*
X267547D01*
Y293029D01*
X263633D01*
X255029Y301634D01*
Y470583D01*
X254913Y471168D01*
X254581Y471664D01*
X246256Y479990D01*
Y485339D01*
D02*
G37*
G36*
X436756D02*
X429244D01*
Y477827D01*
X434593D01*
X442471Y469949D01*
Y461262D01*
X442009Y461071D01*
X435004Y468075D01*
X435044Y468583D01*
X435306Y468735D01*
X436005Y469434D01*
X436500Y470290D01*
X436756Y471246D01*
Y472235D01*
X436500Y473190D01*
X436005Y474046D01*
X435306Y474746D01*
X434450Y475240D01*
X433495Y475496D01*
X432506D01*
X431550Y475240D01*
X430694Y474746D01*
X429994Y474046D01*
X429500Y473190D01*
X429244Y472235D01*
Y471246D01*
X429500Y470290D01*
X429994Y469434D01*
X430694Y468735D01*
X431550Y468240D01*
X431903Y468146D01*
Y467484D01*
X432019Y466899D01*
X432351Y466403D01*
X432654Y466100D01*
X432417Y465630D01*
X431550Y465398D01*
X430694Y464903D01*
X429994Y464204D01*
X429500Y463347D01*
X429244Y462392D01*
Y461403D01*
X429500Y460448D01*
X429994Y459591D01*
X430694Y458892D01*
X431550Y458398D01*
X431903Y458303D01*
Y457642D01*
X432019Y457057D01*
X432351Y456560D01*
X432654Y456257D01*
X432417Y455787D01*
X431550Y455555D01*
X430694Y455061D01*
X429994Y454361D01*
X429500Y453505D01*
X429244Y452550D01*
Y451561D01*
X429500Y450605D01*
X429994Y449749D01*
X430694Y449050D01*
X431550Y448555D01*
X432506Y448299D01*
X433495D01*
X434361Y448531D01*
X435923Y446969D01*
Y445254D01*
X435461Y445063D01*
X435306Y445218D01*
X434450Y445713D01*
X433495Y445968D01*
X432506D01*
X431550Y445713D01*
X430694Y445218D01*
X429994Y444519D01*
X429500Y443662D01*
X429244Y442707D01*
Y441718D01*
X429500Y440763D01*
X429994Y439906D01*
X430694Y439207D01*
X431550Y438713D01*
X432506Y438457D01*
X433495D01*
X434450Y438713D01*
X435306Y439207D01*
X435461Y439362D01*
X435923Y439171D01*
Y435412D01*
X435461Y435220D01*
X435306Y435376D01*
X434450Y435870D01*
X433495Y436126D01*
X432506D01*
X431550Y435870D01*
X430694Y435376D01*
X429994Y434676D01*
X429500Y433820D01*
X429244Y432865D01*
Y431876D01*
X429500Y430920D01*
X429994Y430064D01*
X430694Y429365D01*
X431550Y428870D01*
X432506Y428614D01*
X433495D01*
X434450Y428870D01*
X435306Y429365D01*
X435461Y429520D01*
X435923Y429328D01*
Y425569D01*
X435461Y425378D01*
X435306Y425533D01*
X434450Y426027D01*
X433495Y426284D01*
X432506D01*
X431550Y426027D01*
X430694Y425533D01*
X429994Y424834D01*
X429500Y423977D01*
X429244Y423022D01*
Y422033D01*
X429500Y421078D01*
X429994Y420221D01*
X430694Y419522D01*
X431550Y419028D01*
X432506Y418772D01*
X433495D01*
X434450Y419028D01*
X435306Y419522D01*
X435461Y419677D01*
X435923Y419486D01*
Y415727D01*
X435461Y415535D01*
X435306Y415691D01*
X434450Y416185D01*
X433495Y416441D01*
X432506D01*
X431550Y416185D01*
X430694Y415691D01*
X429994Y414991D01*
X429500Y414135D01*
X429244Y413179D01*
Y412191D01*
X429500Y411235D01*
X429994Y410379D01*
X430694Y409680D01*
X431550Y409185D01*
X432506Y408929D01*
X433495D01*
X434450Y409185D01*
X435306Y409680D01*
X435461Y409835D01*
X435923Y409644D01*
Y405884D01*
X435461Y405693D01*
X435306Y405848D01*
X434450Y406343D01*
X433495Y406598D01*
X432506D01*
X431550Y406343D01*
X430694Y405848D01*
X429994Y405149D01*
X429500Y404292D01*
X429244Y403337D01*
Y402348D01*
X429500Y401393D01*
X429994Y400536D01*
X430694Y399837D01*
X431550Y399343D01*
X432506Y399087D01*
X433495D01*
X434450Y399343D01*
X435306Y399837D01*
X435461Y399992D01*
X435923Y399801D01*
Y396042D01*
X435461Y395850D01*
X435306Y396006D01*
X434450Y396500D01*
X433495Y396756D01*
X432506D01*
X431550Y396500D01*
X430694Y396006D01*
X429994Y395306D01*
X429500Y394450D01*
X429244Y393495D01*
Y392506D01*
X429500Y391550D01*
X429994Y390694D01*
X430694Y389995D01*
X431550Y389500D01*
X432506Y389244D01*
X433495D01*
X434450Y389500D01*
X435306Y389995D01*
X435461Y390150D01*
X435923Y389958D01*
Y374320D01*
X435461Y374129D01*
X435427Y374163D01*
X434526Y374683D01*
X433520Y374953D01*
X432480D01*
X431474Y374683D01*
X430573Y374163D01*
X429837Y373427D01*
X429317Y372526D01*
X429047Y371520D01*
Y370480D01*
X429317Y369474D01*
X429837Y368573D01*
X430573Y367837D01*
X431474Y367317D01*
X432480Y367047D01*
X433520D01*
X434526Y367317D01*
X435427Y367837D01*
X435461Y367871D01*
X435923Y367680D01*
Y364320D01*
X435461Y364129D01*
X435427Y364163D01*
X434526Y364683D01*
X433520Y364953D01*
X432480D01*
X431474Y364683D01*
X430573Y364163D01*
X429837Y363427D01*
X429317Y362526D01*
X429047Y361520D01*
Y360480D01*
X429317Y359474D01*
X429837Y358573D01*
X430573Y357837D01*
X431474Y357317D01*
X432480Y357047D01*
X433520D01*
X434526Y357317D01*
X435427Y357837D01*
X435461Y357871D01*
X435923Y357680D01*
Y354320D01*
X435461Y354129D01*
X435427Y354163D01*
X434526Y354683D01*
X433520Y354953D01*
X432480D01*
X431474Y354683D01*
X430573Y354163D01*
X429837Y353427D01*
X429317Y352526D01*
X429047Y351520D01*
Y350480D01*
X429317Y349474D01*
X429837Y348573D01*
X430573Y347837D01*
X431474Y347317D01*
X432480Y347047D01*
X433520D01*
X434526Y347317D01*
X435427Y347837D01*
X435461Y347871D01*
X435923Y347680D01*
Y344320D01*
X435461Y344129D01*
X435427Y344163D01*
X434526Y344683D01*
X433520Y344953D01*
X432480D01*
X431474Y344683D01*
X430573Y344163D01*
X429837Y343427D01*
X429317Y342526D01*
X429047Y341520D01*
Y340480D01*
X429317Y339474D01*
X429837Y338573D01*
X430573Y337837D01*
X431474Y337317D01*
X432480Y337047D01*
X433520D01*
X434526Y337317D01*
X435427Y337837D01*
X435461Y337871D01*
X435923Y337680D01*
Y334320D01*
X435461Y334129D01*
X435427Y334163D01*
X434526Y334683D01*
X433520Y334953D01*
X432480D01*
X431474Y334683D01*
X430573Y334163D01*
X429837Y333427D01*
X429317Y332526D01*
X429047Y331520D01*
Y330480D01*
X429317Y329474D01*
X429837Y328573D01*
X430573Y327837D01*
X431474Y327317D01*
X432480Y327047D01*
X433520D01*
X434526Y327317D01*
X435427Y327837D01*
X435461Y327871D01*
X435923Y327680D01*
Y324320D01*
X435461Y324129D01*
X435427Y324163D01*
X434526Y324683D01*
X433520Y324953D01*
X432480D01*
X431474Y324683D01*
X430573Y324163D01*
X429837Y323427D01*
X429317Y322526D01*
X429047Y321520D01*
Y320480D01*
X429317Y319474D01*
X429837Y318573D01*
X430573Y317837D01*
X431474Y317317D01*
X432480Y317047D01*
X433520D01*
X434526Y317317D01*
X435427Y317837D01*
X435461Y317871D01*
X435923Y317680D01*
Y316086D01*
X434522Y314685D01*
X433520Y314953D01*
X432480D01*
X431474Y314683D01*
X430573Y314163D01*
X429837Y313427D01*
X429317Y312526D01*
X429047Y311520D01*
Y310480D01*
X429317Y309474D01*
X429837Y308573D01*
X430573Y307837D01*
X431474Y307317D01*
X432480Y307047D01*
X433520D01*
X434526Y307317D01*
X435427Y307837D01*
X436163Y308573D01*
X436683Y309474D01*
X436953Y310480D01*
Y311520D01*
X436685Y312522D01*
X437461Y313299D01*
X437923Y313107D01*
Y308086D01*
X434522Y304684D01*
X433520Y304953D01*
X432480D01*
X431474Y304683D01*
X430573Y304163D01*
X429837Y303427D01*
X429317Y302526D01*
X429047Y301520D01*
Y300480D01*
X429317Y299474D01*
X429837Y298573D01*
X430573Y297837D01*
X431474Y297317D01*
X432480Y297047D01*
X433520D01*
X434526Y297317D01*
X435427Y297837D01*
X436163Y298573D01*
X436683Y299474D01*
X436953Y300480D01*
Y301520D01*
X436685Y302522D01*
X439461Y305298D01*
X439923Y305107D01*
Y300086D01*
X434522Y294685D01*
X433520Y294953D01*
X432480D01*
X431474Y294683D01*
X430573Y294163D01*
X429837Y293427D01*
X429317Y292526D01*
X429047Y291520D01*
Y290480D01*
X429317Y289474D01*
X429837Y288573D01*
X430573Y287837D01*
X430957Y287615D01*
X430823Y287115D01*
X418653D01*
X418157Y287126D01*
Y294441D01*
X410843D01*
Y289289D01*
X408669Y287115D01*
X402453D01*
Y294953D01*
X394547D01*
Y292529D01*
X390634D01*
X382029Y301133D01*
Y465916D01*
X381913Y466502D01*
X381581Y466998D01*
X371844Y476735D01*
X371471Y476984D01*
X371616Y477484D01*
X372756D01*
Y484996D01*
X365244D01*
Y477484D01*
X367471D01*
Y476984D01*
X367587Y476399D01*
X367919Y475903D01*
X368225Y475596D01*
X368076Y475038D01*
X367550Y474898D01*
X366694Y474403D01*
X365995Y473704D01*
X365500Y472847D01*
X365244Y471892D01*
Y470903D01*
X365500Y469948D01*
X365995Y469092D01*
X366694Y468392D01*
X367550Y467898D01*
X368506Y467642D01*
X369495D01*
X370361Y467874D01*
X375727Y462508D01*
Y453821D01*
X375265Y453630D01*
X371004Y457890D01*
X371044Y458398D01*
X371306Y458550D01*
X372006Y459249D01*
X372500Y460105D01*
X372756Y461061D01*
Y462050D01*
X372500Y463005D01*
X372006Y463861D01*
X371306Y464561D01*
X370450Y465055D01*
X369495Y465311D01*
X368506D01*
X367550Y465055D01*
X366694Y464561D01*
X365995Y463861D01*
X365500Y463005D01*
X365244Y462050D01*
Y461061D01*
X365500Y460105D01*
X365995Y459249D01*
X366694Y458550D01*
X367550Y458055D01*
X367903Y457961D01*
Y457299D01*
X368019Y456714D01*
X368351Y456218D01*
X368653Y455915D01*
X368417Y455445D01*
X367550Y455212D01*
X366694Y454718D01*
X365995Y454019D01*
X365500Y453162D01*
X365244Y452207D01*
Y451218D01*
X365500Y450263D01*
X365995Y449406D01*
X366694Y448707D01*
X367550Y448213D01*
X367903Y448118D01*
Y447457D01*
X368019Y446871D01*
X368351Y446375D01*
X368653Y446072D01*
X368417Y445602D01*
X367550Y445370D01*
X366694Y444876D01*
X365995Y444176D01*
X365500Y443320D01*
X365244Y442365D01*
Y441376D01*
X365500Y440420D01*
X365995Y439564D01*
X366694Y438865D01*
X367550Y438370D01*
X368506Y438114D01*
X369495D01*
X370450Y438370D01*
X371227Y438819D01*
X371726Y438654D01*
Y435244D01*
X371227Y435079D01*
X370450Y435528D01*
X369495Y435783D01*
X368506D01*
X367550Y435528D01*
X366694Y435033D01*
X365995Y434334D01*
X365500Y433477D01*
X365244Y432522D01*
Y431533D01*
X365500Y430578D01*
X365995Y429721D01*
X366694Y429022D01*
X367550Y428528D01*
X368506Y428272D01*
X369495D01*
X370450Y428528D01*
X371227Y428976D01*
X371726Y428811D01*
Y425401D01*
X371227Y425237D01*
X370450Y425685D01*
X369495Y425941D01*
X368506D01*
X367550Y425685D01*
X366694Y425190D01*
X365995Y424491D01*
X365500Y423635D01*
X365244Y422680D01*
Y421691D01*
X365500Y420735D01*
X365995Y419879D01*
X366694Y419180D01*
X367550Y418685D01*
X368506Y418429D01*
X369495D01*
X370450Y418685D01*
X371227Y419134D01*
X371726Y418968D01*
Y415559D01*
X371227Y415394D01*
X370450Y415842D01*
X369495Y416098D01*
X368506D01*
X367550Y415842D01*
X366694Y415348D01*
X365995Y414649D01*
X365500Y413792D01*
X365244Y412837D01*
Y411848D01*
X365500Y410893D01*
X365995Y410036D01*
X366694Y409337D01*
X367550Y408843D01*
X368506Y408587D01*
X369495D01*
X370450Y408843D01*
X371227Y409291D01*
X371726Y409126D01*
Y405717D01*
X371227Y405551D01*
X370450Y406000D01*
X369495Y406256D01*
X368506D01*
X367550Y406000D01*
X366694Y405506D01*
X365995Y404806D01*
X365500Y403950D01*
X365244Y402994D01*
Y402005D01*
X365500Y401050D01*
X365995Y400194D01*
X366694Y399495D01*
X367550Y399000D01*
X368506Y398744D01*
X369495D01*
X370450Y399000D01*
X371227Y399448D01*
X371726Y399284D01*
Y395874D01*
X371227Y395709D01*
X370450Y396157D01*
X369495Y396413D01*
X368506D01*
X367550Y396157D01*
X366694Y395663D01*
X365995Y394964D01*
X365500Y394107D01*
X365244Y393152D01*
Y392163D01*
X365500Y391208D01*
X365995Y390351D01*
X366694Y389652D01*
X367550Y389158D01*
X368506Y388902D01*
X369495D01*
X370450Y389158D01*
X371227Y389606D01*
X371726Y389441D01*
Y374071D01*
X371227Y373864D01*
X370927Y374163D01*
X370026Y374683D01*
X369020Y374953D01*
X367980D01*
X366974Y374683D01*
X366073Y374163D01*
X365337Y373427D01*
X364817Y372526D01*
X364547Y371520D01*
Y370480D01*
X364817Y369474D01*
X365337Y368573D01*
X366073Y367837D01*
X366974Y367317D01*
X367980Y367047D01*
X369020D01*
X370026Y367317D01*
X370927Y367837D01*
X371227Y368137D01*
X371726Y367929D01*
Y364071D01*
X371227Y363863D01*
X370927Y364163D01*
X370026Y364683D01*
X369020Y364953D01*
X367980D01*
X366974Y364683D01*
X366073Y364163D01*
X365337Y363427D01*
X364817Y362526D01*
X364547Y361520D01*
Y360480D01*
X364817Y359474D01*
X365337Y358573D01*
X366073Y357837D01*
X366974Y357317D01*
X367980Y357047D01*
X369020D01*
X370026Y357317D01*
X370927Y357837D01*
X371227Y358137D01*
X371726Y357929D01*
Y354071D01*
X371227Y353864D01*
X370927Y354163D01*
X370026Y354683D01*
X369020Y354953D01*
X367980D01*
X366974Y354683D01*
X366073Y354163D01*
X365337Y353427D01*
X364817Y352526D01*
X364547Y351520D01*
Y350480D01*
X364817Y349474D01*
X365337Y348573D01*
X366073Y347837D01*
X366974Y347317D01*
X367980Y347047D01*
X369020D01*
X370026Y347317D01*
X370927Y347837D01*
X371227Y348136D01*
X371726Y347929D01*
Y344071D01*
X371227Y343864D01*
X370927Y344163D01*
X370026Y344683D01*
X369020Y344953D01*
X367980D01*
X366974Y344683D01*
X366073Y344163D01*
X365337Y343427D01*
X364817Y342526D01*
X364547Y341520D01*
Y340480D01*
X364817Y339474D01*
X365337Y338573D01*
X366073Y337837D01*
X366974Y337317D01*
X367980Y337047D01*
X369020D01*
X370026Y337317D01*
X370927Y337837D01*
X371227Y338137D01*
X371726Y337929D01*
Y334071D01*
X371227Y333863D01*
X370927Y334163D01*
X370026Y334683D01*
X369020Y334953D01*
X367980D01*
X366974Y334683D01*
X366073Y334163D01*
X365337Y333427D01*
X364817Y332526D01*
X364547Y331520D01*
Y330480D01*
X364817Y329474D01*
X365337Y328573D01*
X366073Y327837D01*
X366974Y327317D01*
X367980Y327047D01*
X369020D01*
X370026Y327317D01*
X370927Y327837D01*
X371227Y328136D01*
X371726Y327929D01*
Y324071D01*
X371227Y323864D01*
X370927Y324163D01*
X370026Y324683D01*
X369020Y324953D01*
X367980D01*
X366974Y324683D01*
X366073Y324163D01*
X365337Y323427D01*
X364817Y322526D01*
X364547Y321520D01*
Y320480D01*
X364817Y319474D01*
X365337Y318573D01*
X366073Y317837D01*
X366974Y317317D01*
X367980Y317047D01*
X369020D01*
X370026Y317317D01*
X370927Y317837D01*
X371227Y318137D01*
X371726Y317929D01*
Y316389D01*
X370022Y314685D01*
X369020Y314953D01*
X367980D01*
X366974Y314683D01*
X366073Y314163D01*
X365337Y313427D01*
X364817Y312526D01*
X364547Y311520D01*
Y310480D01*
X364817Y309474D01*
X365337Y308573D01*
X366073Y307837D01*
X366974Y307317D01*
X367980Y307047D01*
X369020D01*
X370026Y307317D01*
X370927Y307837D01*
X371663Y308573D01*
X372183Y309474D01*
X372453Y310480D01*
Y311520D01*
X372184Y312522D01*
X373265Y313602D01*
X373727Y313410D01*
Y308389D01*
X370022Y304684D01*
X369020Y304953D01*
X367980D01*
X366974Y304683D01*
X366073Y304163D01*
X365337Y303427D01*
X364817Y302526D01*
X364547Y301520D01*
Y300480D01*
X364817Y299474D01*
X365337Y298573D01*
X366073Y297837D01*
X366974Y297317D01*
X367980Y297047D01*
X369020D01*
X370026Y297317D01*
X370927Y297837D01*
X371663Y298573D01*
X372183Y299474D01*
X372453Y300480D01*
Y301520D01*
X372184Y302522D01*
X375265Y305602D01*
X375727Y305410D01*
Y300389D01*
X370022Y294685D01*
X369020Y294953D01*
X367980D01*
X366974Y294683D01*
X366073Y294163D01*
X365337Y293427D01*
X364817Y292526D01*
X364547Y291520D01*
Y290480D01*
X364817Y289474D01*
X365337Y288573D01*
X366073Y287837D01*
X366457Y287615D01*
X366323Y287115D01*
X355653D01*
X355157Y287126D01*
Y294441D01*
X347843D01*
Y289289D01*
X345669Y287115D01*
X339117D01*
X338953Y287547D01*
X338953Y287615D01*
Y295453D01*
X331047D01*
Y293029D01*
X329633D01*
X320029Y302634D01*
Y464416D01*
X319913Y465002D01*
X319581Y465498D01*
X308344Y476735D01*
X307971Y476984D01*
X308116Y477484D01*
X309256D01*
Y484996D01*
X301744D01*
Y477484D01*
X303971D01*
Y476984D01*
X304087Y476399D01*
X304419Y475903D01*
X304725Y475596D01*
X304576Y475038D01*
X304050Y474898D01*
X303194Y474403D01*
X302495Y473704D01*
X302000Y472847D01*
X301744Y471892D01*
Y470903D01*
X302000Y469948D01*
X302495Y469092D01*
X303194Y468392D01*
X304050Y467898D01*
X305006Y467642D01*
X305995D01*
X306861Y467874D01*
X314227Y460508D01*
Y451821D01*
X313765Y451630D01*
X307504Y457890D01*
X307544Y458398D01*
X307806Y458550D01*
X308506Y459249D01*
X309000Y460105D01*
X309256Y461061D01*
Y462050D01*
X309000Y463005D01*
X308506Y463861D01*
X307806Y464561D01*
X306950Y465055D01*
X305995Y465311D01*
X305006D01*
X304050Y465055D01*
X303194Y464561D01*
X302495Y463861D01*
X302000Y463005D01*
X301744Y462050D01*
Y461061D01*
X302000Y460105D01*
X302495Y459249D01*
X303194Y458550D01*
X304050Y458055D01*
X304403Y457961D01*
Y457299D01*
X304519Y456714D01*
X304851Y456218D01*
X305153Y455915D01*
X304917Y455445D01*
X304050Y455212D01*
X303194Y454718D01*
X302495Y454019D01*
X302000Y453162D01*
X301744Y452207D01*
Y451218D01*
X302000Y450263D01*
X302495Y449406D01*
X303194Y448707D01*
X304050Y448213D01*
X304403Y448118D01*
Y447457D01*
X304519Y446871D01*
X304851Y446375D01*
X305153Y446072D01*
X304917Y445602D01*
X304050Y445370D01*
X303194Y444876D01*
X302495Y444176D01*
X302000Y443320D01*
X301744Y442365D01*
Y441376D01*
X302000Y440420D01*
X302495Y439564D01*
X303194Y438865D01*
X304050Y438370D01*
X305006Y438114D01*
X305995D01*
X306861Y438346D01*
X308226Y436981D01*
Y435244D01*
X307727Y435079D01*
X306950Y435528D01*
X305995Y435783D01*
X305006D01*
X304050Y435528D01*
X303194Y435033D01*
X302495Y434334D01*
X302000Y433477D01*
X301744Y432522D01*
Y431533D01*
X302000Y430578D01*
X302495Y429721D01*
X303194Y429022D01*
X304050Y428528D01*
X305006Y428272D01*
X305995D01*
X306950Y428528D01*
X307727Y428976D01*
X308226Y428811D01*
Y425401D01*
X307727Y425237D01*
X306950Y425685D01*
X305995Y425941D01*
X305006D01*
X304050Y425685D01*
X303194Y425190D01*
X302495Y424491D01*
X302000Y423635D01*
X301744Y422680D01*
Y421691D01*
X302000Y420735D01*
X302495Y419879D01*
X303194Y419180D01*
X304050Y418685D01*
X305006Y418429D01*
X305995D01*
X306950Y418685D01*
X307727Y419134D01*
X308226Y418968D01*
Y415559D01*
X307727Y415394D01*
X306950Y415842D01*
X305995Y416098D01*
X305006D01*
X304050Y415842D01*
X303194Y415348D01*
X302495Y414649D01*
X302000Y413792D01*
X301744Y412837D01*
Y411848D01*
X302000Y410893D01*
X302495Y410036D01*
X303194Y409337D01*
X304050Y408843D01*
X305006Y408587D01*
X305995D01*
X306950Y408843D01*
X307727Y409291D01*
X308226Y409126D01*
Y405717D01*
X307727Y405551D01*
X306950Y406000D01*
X305995Y406256D01*
X305006D01*
X304050Y406000D01*
X303194Y405506D01*
X302495Y404806D01*
X302000Y403950D01*
X301744Y402994D01*
Y402005D01*
X302000Y401050D01*
X302495Y400194D01*
X303194Y399495D01*
X304050Y399000D01*
X305006Y398744D01*
X305995D01*
X306950Y399000D01*
X307727Y399448D01*
X308226Y399284D01*
Y395874D01*
X307727Y395709D01*
X306950Y396157D01*
X305995Y396413D01*
X305006D01*
X304050Y396157D01*
X303194Y395663D01*
X302495Y394964D01*
X302000Y394107D01*
X301744Y393152D01*
Y392163D01*
X302000Y391208D01*
X302495Y390351D01*
X303194Y389652D01*
X304050Y389158D01*
X305006Y388902D01*
X305995D01*
X306950Y389158D01*
X307727Y389606D01*
X308226Y389441D01*
Y374571D01*
X307727Y374363D01*
X307427Y374663D01*
X306526Y375183D01*
X305520Y375453D01*
X304480D01*
X303474Y375183D01*
X302573Y374663D01*
X301837Y373927D01*
X301317Y373026D01*
X301047Y372020D01*
Y370980D01*
X301317Y369974D01*
X301837Y369073D01*
X302573Y368337D01*
X303474Y367817D01*
X304480Y367547D01*
X305520D01*
X306526Y367817D01*
X307427Y368337D01*
X307727Y368636D01*
X308226Y368429D01*
Y364571D01*
X307727Y364364D01*
X307427Y364663D01*
X306526Y365183D01*
X305520Y365453D01*
X304480D01*
X303474Y365183D01*
X302573Y364663D01*
X301837Y363927D01*
X301317Y363026D01*
X301047Y362020D01*
Y360980D01*
X301317Y359974D01*
X301837Y359073D01*
X302573Y358337D01*
X303474Y357817D01*
X304480Y357547D01*
X305520D01*
X306526Y357817D01*
X307427Y358337D01*
X307727Y358636D01*
X308226Y358429D01*
Y354571D01*
X307727Y354363D01*
X307427Y354663D01*
X306526Y355183D01*
X305520Y355453D01*
X304480D01*
X303474Y355183D01*
X302573Y354663D01*
X301837Y353927D01*
X301317Y353026D01*
X301047Y352020D01*
Y350980D01*
X301317Y349974D01*
X301837Y349073D01*
X302573Y348337D01*
X303474Y347817D01*
X304480Y347547D01*
X305520D01*
X306526Y347817D01*
X307427Y348337D01*
X307727Y348637D01*
X308226Y348429D01*
Y344571D01*
X307727Y344363D01*
X307427Y344663D01*
X306526Y345183D01*
X305520Y345453D01*
X304480D01*
X303474Y345183D01*
X302573Y344663D01*
X301837Y343927D01*
X301317Y343026D01*
X301047Y342020D01*
Y340980D01*
X301317Y339974D01*
X301837Y339073D01*
X302573Y338337D01*
X303474Y337817D01*
X304480Y337547D01*
X305520D01*
X306526Y337817D01*
X307427Y338337D01*
X307727Y338636D01*
X308226Y338429D01*
Y334571D01*
X307727Y334364D01*
X307427Y334663D01*
X306526Y335183D01*
X305520Y335453D01*
X304480D01*
X303474Y335183D01*
X302573Y334663D01*
X301837Y333927D01*
X301317Y333026D01*
X301047Y332020D01*
Y330980D01*
X301317Y329974D01*
X301837Y329073D01*
X302573Y328337D01*
X303474Y327817D01*
X304480Y327547D01*
X305520D01*
X306526Y327817D01*
X307427Y328337D01*
X307727Y328637D01*
X308226Y328429D01*
Y326889D01*
X306522Y325184D01*
X305520Y325453D01*
X304480D01*
X303474Y325183D01*
X302573Y324663D01*
X301837Y323927D01*
X301317Y323026D01*
X301047Y322020D01*
Y320980D01*
X301317Y319974D01*
X301837Y319073D01*
X302573Y318337D01*
X303474Y317817D01*
X304480Y317547D01*
X305520D01*
X306526Y317817D01*
X307427Y318337D01*
X308163Y319073D01*
X308683Y319974D01*
X308953Y320980D01*
Y322020D01*
X308684Y323022D01*
X309765Y324102D01*
X310226Y323910D01*
Y318889D01*
X306522Y315184D01*
X305520Y315453D01*
X304480D01*
X303474Y315183D01*
X302573Y314663D01*
X301837Y313927D01*
X301317Y313026D01*
X301047Y312020D01*
Y310980D01*
X301317Y309974D01*
X301837Y309073D01*
X302573Y308337D01*
X303474Y307817D01*
X304480Y307547D01*
X305520D01*
X306526Y307817D01*
X307427Y308337D01*
X308163Y309073D01*
X308683Y309974D01*
X308953Y310980D01*
Y312020D01*
X308684Y313022D01*
X311765Y316102D01*
X312227Y315910D01*
Y310889D01*
X306522Y305185D01*
X305520Y305453D01*
X304480D01*
X303474Y305183D01*
X302573Y304663D01*
X301837Y303927D01*
X301317Y303026D01*
X301047Y302020D01*
Y300980D01*
X301317Y299974D01*
X301837Y299073D01*
X302573Y298337D01*
X303474Y297817D01*
X304480Y297547D01*
X305520D01*
X306526Y297817D01*
X307427Y298337D01*
X308163Y299073D01*
X308683Y299974D01*
X308953Y300980D01*
Y302020D01*
X308684Y303022D01*
X313765Y308102D01*
X314227Y307910D01*
Y302889D01*
X306522Y295184D01*
X305520Y295453D01*
X304480D01*
X303474Y295183D01*
X302573Y294663D01*
X301837Y293927D01*
X301317Y293026D01*
X301047Y292020D01*
Y290980D01*
X301317Y289974D01*
X301837Y289073D01*
X302573Y288337D01*
X303474Y287817D01*
X304226Y287615D01*
X304160Y287115D01*
X286029D01*
Y287650D01*
X286505Y288126D01*
X291657D01*
Y295441D01*
X284343D01*
Y290289D01*
X283419Y289365D01*
X283087Y288869D01*
X282971Y288283D01*
Y286529D01*
X231917D01*
X228658Y289789D01*
Y294941D01*
X221342D01*
Y292813D01*
X218783D01*
X218198Y292696D01*
X217702Y292365D01*
X213415Y288078D01*
X212953Y288269D01*
Y295453D01*
X205047D01*
Y293029D01*
X199634D01*
X192029Y300634D01*
Y466259D01*
X191913Y466844D01*
X191581Y467340D01*
X181844Y477077D01*
X181471Y477327D01*
X181616Y477827D01*
X182756D01*
Y485339D01*
X175244D01*
Y477827D01*
X177471D01*
Y477327D01*
X177587Y476742D01*
X177919Y476245D01*
X178225Y475939D01*
X178076Y475381D01*
X177550Y475240D01*
X176694Y474746D01*
X175995Y474046D01*
X175500Y473190D01*
X175244Y472235D01*
Y471246D01*
X175500Y470290D01*
X175995Y469434D01*
X176694Y468735D01*
X177550Y468240D01*
X177903Y468146D01*
Y467484D01*
X178019Y466899D01*
X178351Y466403D01*
X178654Y466100D01*
X178417Y465630D01*
X177550Y465398D01*
X176694Y464903D01*
X175995Y464204D01*
X175500Y463347D01*
X175244Y462392D01*
Y461403D01*
X175500Y460448D01*
X175995Y459591D01*
X176694Y458892D01*
X177550Y458398D01*
X177903Y458303D01*
Y457642D01*
X178019Y457057D01*
X178351Y456560D01*
X178654Y456257D01*
X178417Y455787D01*
X177550Y455555D01*
X176694Y455061D01*
X175995Y454361D01*
X175500Y453505D01*
X175244Y452550D01*
Y451561D01*
X175500Y450605D01*
X175995Y449749D01*
X176694Y449050D01*
X177550Y448555D01*
X177903Y448461D01*
Y447799D01*
X178019Y447214D01*
X178351Y446718D01*
X178654Y446415D01*
X178417Y445945D01*
X177550Y445713D01*
X176694Y445218D01*
X175995Y444519D01*
X175500Y443662D01*
X175244Y442707D01*
Y441718D01*
X175500Y440763D01*
X175995Y439906D01*
X176694Y439207D01*
X177550Y438713D01*
X178506Y438457D01*
X179495D01*
X180450Y438713D01*
X181306Y439207D01*
X181461Y439362D01*
X181923Y439171D01*
Y435412D01*
X181461Y435220D01*
X181306Y435376D01*
X180450Y435870D01*
X179495Y436126D01*
X178506D01*
X177550Y435870D01*
X176694Y435376D01*
X175995Y434676D01*
X175500Y433820D01*
X175244Y432865D01*
Y431876D01*
X175500Y430920D01*
X175995Y430064D01*
X176694Y429365D01*
X177550Y428870D01*
X178506Y428614D01*
X179495D01*
X180450Y428870D01*
X181306Y429365D01*
X181461Y429520D01*
X181923Y429328D01*
Y425569D01*
X181461Y425378D01*
X181306Y425533D01*
X180450Y426027D01*
X179495Y426284D01*
X178506D01*
X177550Y426027D01*
X176694Y425533D01*
X175995Y424834D01*
X175500Y423977D01*
X175244Y423022D01*
Y422033D01*
X175500Y421078D01*
X175995Y420221D01*
X176694Y419522D01*
X177550Y419028D01*
X178506Y418772D01*
X179495D01*
X180450Y419028D01*
X181306Y419522D01*
X181461Y419677D01*
X181923Y419486D01*
Y415727D01*
X181461Y415535D01*
X181306Y415691D01*
X180450Y416185D01*
X179495Y416441D01*
X178506D01*
X177550Y416185D01*
X176694Y415691D01*
X175995Y414991D01*
X175500Y414135D01*
X175244Y413179D01*
Y412191D01*
X175500Y411235D01*
X175995Y410379D01*
X176694Y409680D01*
X177550Y409185D01*
X178506Y408929D01*
X179495D01*
X180450Y409185D01*
X181306Y409680D01*
X181461Y409835D01*
X181923Y409644D01*
Y405884D01*
X181461Y405693D01*
X181306Y405848D01*
X180450Y406343D01*
X179495Y406598D01*
X178506D01*
X177550Y406343D01*
X176694Y405848D01*
X175995Y405149D01*
X175500Y404292D01*
X175244Y403337D01*
Y402348D01*
X175500Y401393D01*
X175995Y400536D01*
X176694Y399837D01*
X177550Y399343D01*
X178506Y399087D01*
X179495D01*
X180450Y399343D01*
X181306Y399837D01*
X181461Y399992D01*
X181923Y399801D01*
Y396042D01*
X181461Y395850D01*
X181306Y396006D01*
X180450Y396500D01*
X179495Y396756D01*
X178506D01*
X177550Y396500D01*
X176694Y396006D01*
X175995Y395306D01*
X175500Y394450D01*
X175244Y393495D01*
Y392506D01*
X175500Y391550D01*
X175995Y390694D01*
X176694Y389995D01*
X177550Y389500D01*
X178506Y389244D01*
X179495D01*
X180450Y389500D01*
X181306Y389995D01*
X181461Y390150D01*
X181923Y389958D01*
Y374820D01*
X181461Y374629D01*
X181427Y374663D01*
X180526Y375183D01*
X179520Y375453D01*
X178480D01*
X177474Y375183D01*
X176573Y374663D01*
X175837Y373927D01*
X175317Y373026D01*
X175047Y372020D01*
Y370980D01*
X175317Y369974D01*
X175837Y369073D01*
X176573Y368337D01*
X177474Y367817D01*
X178480Y367547D01*
X179520D01*
X180526Y367817D01*
X181427Y368337D01*
X181461Y368371D01*
X181923Y368180D01*
Y364820D01*
X181461Y364629D01*
X181427Y364663D01*
X180526Y365183D01*
X179520Y365453D01*
X178480D01*
X177474Y365183D01*
X176573Y364663D01*
X175837Y363927D01*
X175317Y363026D01*
X175047Y362020D01*
Y360980D01*
X175317Y359974D01*
X175837Y359073D01*
X176573Y358337D01*
X177474Y357817D01*
X178480Y357547D01*
X179520D01*
X180526Y357817D01*
X181427Y358337D01*
X181461Y358371D01*
X181923Y358180D01*
Y354820D01*
X181461Y354629D01*
X181427Y354663D01*
X180526Y355183D01*
X179520Y355453D01*
X178480D01*
X177474Y355183D01*
X176573Y354663D01*
X175837Y353927D01*
X175317Y353026D01*
X175047Y352020D01*
Y350980D01*
X175317Y349974D01*
X175837Y349073D01*
X176573Y348337D01*
X177474Y347817D01*
X178480Y347547D01*
X179520D01*
X180526Y347817D01*
X181427Y348337D01*
X181461Y348371D01*
X181923Y348180D01*
Y344820D01*
X181461Y344629D01*
X181427Y344663D01*
X180526Y345183D01*
X179520Y345453D01*
X178480D01*
X177474Y345183D01*
X176573Y344663D01*
X175837Y343927D01*
X175317Y343026D01*
X175047Y342020D01*
Y340980D01*
X175317Y339974D01*
X175837Y339073D01*
X176573Y338337D01*
X177474Y337817D01*
X178480Y337547D01*
X179520D01*
X180526Y337817D01*
X181427Y338337D01*
X181461Y338371D01*
X181923Y338180D01*
Y334820D01*
X181461Y334629D01*
X181427Y334663D01*
X180526Y335183D01*
X179520Y335453D01*
X178480D01*
X177474Y335183D01*
X176573Y334663D01*
X175837Y333927D01*
X175317Y333026D01*
X175047Y332020D01*
Y330980D01*
X175317Y329974D01*
X175837Y329073D01*
X176573Y328337D01*
X177474Y327817D01*
X178480Y327547D01*
X179520D01*
X180526Y327817D01*
X181427Y328337D01*
X181461Y328371D01*
X181923Y328180D01*
Y326386D01*
X181650Y325976D01*
X181533Y325391D01*
Y325179D01*
X181033Y324890D01*
X180526Y325183D01*
X179520Y325453D01*
X178480D01*
X177474Y325183D01*
X176573Y324663D01*
X175837Y323927D01*
X175317Y323026D01*
X175047Y322020D01*
Y320980D01*
X175317Y319974D01*
X175837Y319073D01*
X176573Y318337D01*
X177474Y317817D01*
X178480Y317547D01*
X178528D01*
X178720Y317085D01*
X178630Y316996D01*
X178298Y316499D01*
X178182Y315914D01*
Y315373D01*
X177474Y315183D01*
X176573Y314663D01*
X175837Y313927D01*
X175317Y313026D01*
X175047Y312020D01*
Y310980D01*
X175317Y309974D01*
X175837Y309073D01*
X176573Y308337D01*
X177474Y307817D01*
X178480Y307547D01*
X179520D01*
X180526Y307817D01*
X181427Y308337D01*
X182163Y309073D01*
X182683Y309974D01*
X182953Y310980D01*
Y312020D01*
X182683Y313026D01*
X182163Y313927D01*
X181899Y314191D01*
X181816Y314316D01*
X181319Y314813D01*
Y315359D01*
X183461Y317501D01*
X183923Y317310D01*
Y308586D01*
X180522Y305185D01*
X179520Y305453D01*
X178480D01*
X177474Y305183D01*
X176573Y304663D01*
X175837Y303927D01*
X175317Y303026D01*
X175047Y302020D01*
Y300980D01*
X175317Y299974D01*
X175837Y299073D01*
X176573Y298337D01*
X177474Y297817D01*
X178480Y297547D01*
X179520D01*
X180526Y297817D01*
X181427Y298337D01*
X182163Y299073D01*
X182683Y299974D01*
X182953Y300980D01*
Y302020D01*
X182685Y303022D01*
X185461Y305799D01*
X185923Y305607D01*
Y300586D01*
X180522Y295184D01*
X179520Y295453D01*
X178480D01*
X177474Y295183D01*
X176573Y294663D01*
X175837Y293927D01*
X175317Y293026D01*
X175047Y292020D01*
Y290980D01*
X175317Y289974D01*
X175837Y289073D01*
X176573Y288337D01*
X177474Y287817D01*
X178480Y287547D01*
X179520D01*
X180526Y287817D01*
X181427Y288337D01*
X182163Y289073D01*
X182683Y289974D01*
X182953Y290980D01*
Y292020D01*
X182685Y293022D01*
X188534Y298871D01*
X188691Y299107D01*
X189287Y299116D01*
X189419Y298919D01*
X197919Y290419D01*
X198415Y290087D01*
X199000Y289971D01*
X205047D01*
Y287547D01*
X212231D01*
X212422Y287085D01*
X164419Y239081D01*
X164087Y238585D01*
X163971Y238000D01*
Y167158D01*
X163351Y166801D01*
X162813Y166262D01*
X162500Y166193D01*
X162187Y166262D01*
X161649Y166801D01*
X160851Y167262D01*
X159961Y167500D01*
X159039D01*
X158149Y167262D01*
X157351Y166801D01*
X156699Y166149D01*
X156238Y165351D01*
X156000Y164461D01*
Y163539D01*
X156238Y162649D01*
X156699Y161851D01*
X157351Y161199D01*
X158149Y160739D01*
X158736Y160581D01*
Y160235D01*
X158852Y159649D01*
X159184Y159153D01*
X160919Y157419D01*
X161415Y157087D01*
X162000Y156971D01*
X167157D01*
X167742Y157087D01*
X168238Y157419D01*
X170581Y159762D01*
X170913Y160258D01*
X171029Y160843D01*
Y236367D01*
X213633Y278971D01*
X239842D01*
X240199Y278351D01*
X240851Y277699D01*
X241649Y277238D01*
X242539Y277000D01*
X243461D01*
X244351Y277238D01*
X245149Y277699D01*
X245801Y278351D01*
X246159Y278971D01*
X301841D01*
X302199Y278351D01*
X302851Y277699D01*
X303649Y277238D01*
X304539Y277000D01*
X305461D01*
X306351Y277238D01*
X307149Y277699D01*
X307801Y278351D01*
X308014Y278721D01*
X364219D01*
X364239Y278649D01*
X364699Y277851D01*
X365351Y277199D01*
X366149Y276739D01*
X367039Y276500D01*
X367961D01*
X368851Y276739D01*
X369649Y277199D01*
X370301Y277851D01*
X370514Y278221D01*
X429719D01*
X429739Y278149D01*
X430199Y277351D01*
X430851Y276699D01*
X431649Y276238D01*
X432539Y276000D01*
X433461D01*
X434351Y276238D01*
X435149Y276699D01*
X435801Y277351D01*
X436262Y278149D01*
X436281Y278221D01*
X491486D01*
X491699Y277851D01*
X492351Y277199D01*
X493149Y276739D01*
X494039Y276500D01*
X494961D01*
X495851Y276739D01*
X496649Y277199D01*
X497301Y277851D01*
X497658Y278471D01*
X534152D01*
X534238Y278149D01*
X534699Y277351D01*
X535351Y276699D01*
X536149Y276238D01*
X537039Y276000D01*
X537961D01*
X538851Y276238D01*
X539649Y276699D01*
X540301Y277351D01*
X540762Y278149D01*
X541000Y279039D01*
Y279961D01*
X540762Y280851D01*
X540301Y281649D01*
X539649Y282301D01*
X538851Y282762D01*
X537961Y283000D01*
X537039D01*
X536149Y282762D01*
X535351Y282301D01*
X534699Y281649D01*
X534630Y281529D01*
X497658D01*
X497301Y282149D01*
X496649Y282801D01*
X495851Y283261D01*
X494961Y283500D01*
X494039D01*
X493149Y283261D01*
X492351Y282801D01*
X491699Y282149D01*
X491238Y281351D01*
X491219Y281279D01*
X436014D01*
X435801Y281649D01*
X435149Y282301D01*
X434351Y282762D01*
X433461Y283000D01*
X432539D01*
X431649Y282762D01*
X430851Y282301D01*
X430199Y281649D01*
X429986Y281279D01*
X370781D01*
X370761Y281351D01*
X370301Y282149D01*
X369649Y282801D01*
X368851Y283261D01*
X367961Y283500D01*
X367039D01*
X366149Y283261D01*
X365351Y282801D01*
X364699Y282149D01*
X364486Y281779D01*
X308281D01*
X308261Y281851D01*
X307801Y282649D01*
X307149Y283301D01*
X306706Y283556D01*
X306840Y284056D01*
X472302D01*
X472888Y284173D01*
X473384Y284504D01*
X473492Y284612D01*
X528358D01*
X528943Y284729D01*
X529440Y285060D01*
X536005Y291626D01*
X541157D01*
Y298941D01*
X533843D01*
Y293789D01*
X529915Y289861D01*
X529453Y290052D01*
Y295453D01*
X523710D01*
X510029Y309134D01*
Y469043D01*
X509913Y469629D01*
X509581Y470125D01*
X500716Y478990D01*
Y484339D01*
X493205D01*
Y476827D01*
X498554D01*
X506971Y468410D01*
Y463546D01*
X506509Y463355D01*
X500484Y469379D01*
X500716Y470246D01*
Y471235D01*
X500461Y472190D01*
X499966Y473046D01*
X499267Y473746D01*
X498410Y474240D01*
X497455Y474496D01*
X496466D01*
X495511Y474240D01*
X494654Y473746D01*
X493955Y473046D01*
X493461Y472190D01*
X493205Y471235D01*
Y470246D01*
X493461Y469290D01*
X493955Y468434D01*
X494654Y467735D01*
X495511Y467240D01*
X496466Y466984D01*
X497455D01*
X498321Y467216D01*
X504471Y461067D01*
Y456204D01*
X504009Y456012D01*
X500484Y459537D01*
X500716Y460403D01*
Y461392D01*
X500461Y462347D01*
X499966Y463204D01*
X499267Y463903D01*
X498410Y464398D01*
X497455Y464653D01*
X496466D01*
X495511Y464398D01*
X494654Y463903D01*
X493955Y463204D01*
X493461Y462347D01*
X493205Y461392D01*
Y460403D01*
X493461Y459448D01*
X493955Y458592D01*
X494654Y457892D01*
X495511Y457398D01*
X496466Y457142D01*
X497455D01*
X498321Y457374D01*
X502471Y453225D01*
Y449346D01*
X502009Y449154D01*
X500692Y450470D01*
X500716Y450561D01*
Y451550D01*
X500461Y452505D01*
X499966Y453361D01*
X499267Y454061D01*
X498410Y454555D01*
X497455Y454811D01*
X496466D01*
X495511Y454555D01*
X494654Y454061D01*
X493955Y453361D01*
X493461Y452505D01*
X493205Y451550D01*
Y450561D01*
X493461Y449605D01*
X493955Y448749D01*
X494654Y448050D01*
X495511Y447555D01*
X496466Y447299D01*
X497455D01*
X498410Y447555D01*
X498963Y447874D01*
X500471Y446367D01*
Y443645D01*
X499971Y443511D01*
X499966Y443519D01*
X499267Y444218D01*
X498410Y444712D01*
X497455Y444969D01*
X496466D01*
X495511Y444712D01*
X494654Y444218D01*
X493955Y443519D01*
X493461Y442662D01*
X493205Y441707D01*
Y440718D01*
X493461Y439763D01*
X493955Y438906D01*
X494654Y438207D01*
X495511Y437713D01*
X496466Y437457D01*
X497455D01*
X498410Y437713D01*
X499267Y438207D01*
X499966Y438906D01*
X499971Y438914D01*
X500471Y438780D01*
Y433802D01*
X499971Y433669D01*
X499966Y433676D01*
X499267Y434376D01*
X498410Y434870D01*
X497455Y435126D01*
X496466D01*
X495511Y434870D01*
X494654Y434376D01*
X493955Y433676D01*
X493461Y432820D01*
X493205Y431865D01*
Y430876D01*
X493461Y429920D01*
X493955Y429064D01*
X494654Y428365D01*
X495511Y427870D01*
X496466Y427614D01*
X497455D01*
X498410Y427870D01*
X499267Y428365D01*
X499966Y429064D01*
X499971Y429072D01*
X500471Y428938D01*
Y423960D01*
X499971Y423826D01*
X499966Y423834D01*
X499267Y424533D01*
X498410Y425028D01*
X497455Y425283D01*
X496466D01*
X495511Y425028D01*
X494654Y424533D01*
X493955Y423834D01*
X493461Y422977D01*
X493205Y422022D01*
Y421033D01*
X493461Y420078D01*
X493955Y419221D01*
X494654Y418522D01*
X495511Y418028D01*
X496466Y417772D01*
X497455D01*
X498410Y418028D01*
X499267Y418522D01*
X499966Y419221D01*
X499971Y419229D01*
X500471Y419095D01*
Y414117D01*
X499971Y413983D01*
X499966Y413991D01*
X499267Y414690D01*
X498410Y415185D01*
X497455Y415441D01*
X496466D01*
X495511Y415185D01*
X494654Y414690D01*
X493955Y413991D01*
X493461Y413135D01*
X493205Y412180D01*
Y411191D01*
X493461Y410235D01*
X493955Y409379D01*
X494654Y408680D01*
X495511Y408185D01*
X496466Y407929D01*
X497455D01*
X498410Y408185D01*
X499267Y408680D01*
X499966Y409379D01*
X499971Y409387D01*
X500471Y409253D01*
Y404275D01*
X499971Y404141D01*
X499966Y404149D01*
X499267Y404848D01*
X498410Y405342D01*
X497455Y405598D01*
X496466D01*
X495511Y405342D01*
X494654Y404848D01*
X493955Y404149D01*
X493461Y403292D01*
X493205Y402337D01*
Y401348D01*
X493461Y400393D01*
X493955Y399536D01*
X494654Y398837D01*
X495511Y398343D01*
X496466Y398087D01*
X497455D01*
X498410Y398343D01*
X499267Y398837D01*
X499966Y399536D01*
X499971Y399544D01*
X500471Y399410D01*
Y394432D01*
X499971Y394298D01*
X499966Y394306D01*
X499267Y395005D01*
X498410Y395500D01*
X497455Y395756D01*
X496466D01*
X495511Y395500D01*
X494654Y395005D01*
X493955Y394306D01*
X493461Y393450D01*
X493205Y392495D01*
Y391506D01*
X493461Y390550D01*
X493955Y389694D01*
X494654Y388995D01*
X495511Y388500D01*
X496466Y388244D01*
X497455D01*
X498410Y388500D01*
X499267Y388995D01*
X499966Y389694D01*
X499971Y389702D01*
X500471Y389568D01*
Y318634D01*
X497022Y315184D01*
X496020Y315453D01*
X494980D01*
X493974Y315183D01*
X493073Y314663D01*
X492337Y313927D01*
X491817Y313026D01*
X491547Y312020D01*
Y310980D01*
X491817Y309974D01*
X492337Y309073D01*
X493073Y308337D01*
X493974Y307817D01*
X494980Y307547D01*
X496020D01*
X497026Y307817D01*
X497927Y308337D01*
X498663Y309073D01*
X499183Y309974D01*
X499453Y310980D01*
Y312020D01*
X499185Y313022D01*
X502009Y315846D01*
X502471Y315654D01*
Y310633D01*
X497022Y305185D01*
X496020Y305453D01*
X494980D01*
X493974Y305183D01*
X493073Y304663D01*
X492337Y303927D01*
X491817Y303026D01*
X491547Y302020D01*
Y300980D01*
X491817Y299974D01*
X492337Y299073D01*
X493073Y298337D01*
X493974Y297817D01*
X494980Y297547D01*
X496020D01*
X497026Y297817D01*
X497927Y298337D01*
X498663Y299073D01*
X499183Y299974D01*
X499453Y300980D01*
Y302020D01*
X499185Y303022D01*
X504009Y307846D01*
X504471Y307654D01*
Y302634D01*
X497022Y295184D01*
X496020Y295453D01*
X494980D01*
X493974Y295183D01*
X493073Y294663D01*
X492337Y293927D01*
X491817Y293026D01*
X491547Y292020D01*
Y290980D01*
X491817Y289974D01*
X492337Y289073D01*
X493073Y288337D01*
X493360Y288171D01*
X493226Y287671D01*
X480657D01*
Y293941D01*
X473343D01*
Y288789D01*
X471669Y287115D01*
X466953D01*
Y294953D01*
X459047D01*
Y292529D01*
X454134D01*
X445529Y301133D01*
Y470583D01*
X445413Y471168D01*
X445081Y471664D01*
X436756Y479990D01*
Y485339D01*
D02*
G37*
G36*
X272495Y465654D02*
X271505D01*
X270550Y465398D01*
X269694Y464903D01*
X268994Y464204D01*
X268500Y463347D01*
X268244Y462392D01*
Y461403D01*
X268500Y460448D01*
X268994Y459591D01*
X269694Y458892D01*
X270550Y458398D01*
X271505Y458142D01*
X272495D01*
X273450Y458398D01*
X274306Y458892D01*
X275006Y459591D01*
X275500Y460448D01*
X275756Y461403D01*
Y462392D01*
X275500Y463347D01*
X275006Y464204D01*
X274306Y464903D01*
X273450Y465398D01*
X272495Y465654D01*
D02*
G37*
G36*
X208995D02*
X208005D01*
X207050Y465398D01*
X206194Y464903D01*
X205494Y464204D01*
X205000Y463347D01*
X204744Y462392D01*
Y461403D01*
X205000Y460448D01*
X205494Y459591D01*
X206194Y458892D01*
X207050Y458398D01*
X208005Y458142D01*
X208995D01*
X209950Y458398D01*
X210806Y458892D01*
X211506Y459591D01*
X212000Y460448D01*
X212256Y461403D01*
Y462392D01*
X212000Y463347D01*
X211506Y464204D01*
X210806Y464903D01*
X209950Y465398D01*
X208995Y465654D01*
D02*
G37*
G36*
X462955Y465626D02*
X461966D01*
X461011Y465370D01*
X460154Y464876D01*
X459455Y464176D01*
X458961Y463320D01*
X458705Y462364D01*
Y461376D01*
X458961Y460420D01*
X459455Y459564D01*
X460154Y458865D01*
X461011Y458370D01*
X461966Y458114D01*
X462955D01*
X463910Y458370D01*
X464767Y458865D01*
X465466Y459564D01*
X465961Y460420D01*
X466217Y461376D01*
Y462364D01*
X465961Y463320D01*
X465466Y464176D01*
X464767Y464876D01*
X463910Y465370D01*
X462955Y465626D01*
D02*
G37*
G36*
X398955Y465311D02*
X397966D01*
X397011Y465055D01*
X396154Y464561D01*
X395455Y463861D01*
X394961Y463005D01*
X394705Y462050D01*
Y461061D01*
X394961Y460105D01*
X395455Y459249D01*
X396154Y458550D01*
X397011Y458055D01*
X397966Y457799D01*
X398955D01*
X399910Y458055D01*
X400767Y458550D01*
X401466Y459249D01*
X401961Y460105D01*
X402216Y461061D01*
Y462050D01*
X401961Y463005D01*
X401466Y463861D01*
X400767Y464561D01*
X399910Y465055D01*
X398955Y465311D01*
D02*
G37*
G36*
X335455D02*
X334466D01*
X333511Y465055D01*
X332654Y464561D01*
X331955Y463861D01*
X331461Y463005D01*
X331205Y462050D01*
Y461061D01*
X331461Y460105D01*
X331955Y459249D01*
X332654Y458550D01*
X333511Y458055D01*
X334466Y457799D01*
X335455D01*
X336410Y458055D01*
X337267Y458550D01*
X337966Y459249D01*
X338461Y460105D01*
X338717Y461061D01*
Y462050D01*
X338461Y463005D01*
X337966Y463861D01*
X337267Y464561D01*
X336410Y465055D01*
X335455Y465311D01*
D02*
G37*
G36*
X526955Y464941D02*
X525966D01*
X525011Y464685D01*
X524154Y464190D01*
X523455Y463491D01*
X522961Y462635D01*
X522705Y461680D01*
Y460691D01*
X522961Y459735D01*
X523455Y458879D01*
X524154Y458180D01*
X525011Y457685D01*
X525966Y457429D01*
X526955D01*
X527910Y457685D01*
X528767Y458180D01*
X529466Y458879D01*
X529961Y459735D01*
X530217Y460691D01*
Y461680D01*
X529961Y462635D01*
X529466Y463491D01*
X528767Y464190D01*
X527910Y464685D01*
X526955Y464941D01*
D02*
G37*
G36*
X272495Y455811D02*
X271505D01*
X270550Y455555D01*
X269694Y455061D01*
X268994Y454361D01*
X268500Y453505D01*
X268244Y452550D01*
Y451561D01*
X268500Y450605D01*
X268994Y449749D01*
X269694Y449050D01*
X270550Y448555D01*
X271505Y448299D01*
X272495D01*
X273450Y448555D01*
X274306Y449050D01*
X275006Y449749D01*
X275500Y450605D01*
X275756Y451561D01*
Y452550D01*
X275500Y453505D01*
X275006Y454361D01*
X274306Y455061D01*
X273450Y455555D01*
X272495Y455811D01*
D02*
G37*
G36*
X208995D02*
X208005D01*
X207050Y455555D01*
X206194Y455061D01*
X205494Y454361D01*
X205000Y453505D01*
X204744Y452550D01*
Y451561D01*
X205000Y450605D01*
X205494Y449749D01*
X206194Y449050D01*
X207050Y448555D01*
X208005Y448299D01*
X208995D01*
X209950Y448555D01*
X210806Y449050D01*
X211506Y449749D01*
X212000Y450605D01*
X212256Y451561D01*
Y452550D01*
X212000Y453505D01*
X211506Y454361D01*
X210806Y455061D01*
X209950Y455555D01*
X208995Y455811D01*
D02*
G37*
G36*
X462955Y455784D02*
X461966D01*
X461011Y455527D01*
X460154Y455033D01*
X459455Y454334D01*
X458961Y453477D01*
X458705Y452522D01*
Y451533D01*
X458961Y450578D01*
X459455Y449721D01*
X460154Y449022D01*
X461011Y448528D01*
X461966Y448272D01*
X462955D01*
X463910Y448528D01*
X464767Y449022D01*
X465466Y449721D01*
X465961Y450578D01*
X466217Y451533D01*
Y452522D01*
X465961Y453477D01*
X465466Y454334D01*
X464767Y455033D01*
X463910Y455527D01*
X462955Y455784D01*
D02*
G37*
G36*
X398955Y455469D02*
X397966D01*
X397011Y455212D01*
X396154Y454718D01*
X395455Y454019D01*
X394961Y453162D01*
X394705Y452207D01*
Y451218D01*
X394961Y450263D01*
X395455Y449406D01*
X396154Y448707D01*
X397011Y448213D01*
X397966Y447957D01*
X398955D01*
X399910Y448213D01*
X400767Y448707D01*
X401466Y449406D01*
X401961Y450263D01*
X402216Y451218D01*
Y452207D01*
X401961Y453162D01*
X401466Y454019D01*
X400767Y454718D01*
X399910Y455212D01*
X398955Y455469D01*
D02*
G37*
G36*
X335455D02*
X334466D01*
X333511Y455212D01*
X332654Y454718D01*
X331955Y454019D01*
X331461Y453162D01*
X331205Y452207D01*
Y451218D01*
X331461Y450263D01*
X331955Y449406D01*
X332654Y448707D01*
X333511Y448213D01*
X334466Y447957D01*
X335455D01*
X336410Y448213D01*
X337267Y448707D01*
X337966Y449406D01*
X338461Y450263D01*
X338717Y451218D01*
Y452207D01*
X338461Y453162D01*
X337966Y454019D01*
X337267Y454718D01*
X336410Y455212D01*
X335455Y455469D01*
D02*
G37*
G36*
X526955Y455098D02*
X525966D01*
X525011Y454843D01*
X524154Y454348D01*
X523455Y453649D01*
X522961Y452792D01*
X522705Y451837D01*
Y450848D01*
X522961Y449893D01*
X523455Y449036D01*
X524154Y448337D01*
X525011Y447843D01*
X525966Y447587D01*
X526955D01*
X527910Y447843D01*
X528767Y448337D01*
X529466Y449036D01*
X529961Y449893D01*
X530217Y450848D01*
Y451837D01*
X529961Y452792D01*
X529466Y453649D01*
X528767Y454348D01*
X527910Y454843D01*
X526955Y455098D01*
D02*
G37*
G36*
X272495Y445968D02*
X271505D01*
X270550Y445713D01*
X269694Y445218D01*
X268994Y444519D01*
X268500Y443662D01*
X268244Y442707D01*
Y441718D01*
X268500Y440763D01*
X268994Y439906D01*
X269694Y439207D01*
X270550Y438713D01*
X271505Y438457D01*
X272495D01*
X273450Y438713D01*
X274306Y439207D01*
X275006Y439906D01*
X275500Y440763D01*
X275756Y441718D01*
Y442707D01*
X275500Y443662D01*
X275006Y444519D01*
X274306Y445218D01*
X273450Y445713D01*
X272495Y445968D01*
D02*
G37*
G36*
X208995D02*
X208005D01*
X207050Y445713D01*
X206194Y445218D01*
X205494Y444519D01*
X205000Y443662D01*
X204744Y442707D01*
Y441718D01*
X205000Y440763D01*
X205494Y439906D01*
X206194Y439207D01*
X207050Y438713D01*
X208005Y438457D01*
X208995D01*
X209950Y438713D01*
X210806Y439207D01*
X211506Y439906D01*
X212000Y440763D01*
X212256Y441718D01*
Y442707D01*
X212000Y443662D01*
X211506Y444519D01*
X210806Y445218D01*
X209950Y445713D01*
X208995Y445968D01*
D02*
G37*
G36*
X462955Y445941D02*
X461966D01*
X461011Y445685D01*
X460154Y445190D01*
X459455Y444491D01*
X458961Y443635D01*
X458705Y442680D01*
Y441691D01*
X458961Y440735D01*
X459455Y439879D01*
X460154Y439180D01*
X461011Y438685D01*
X461966Y438429D01*
X462955D01*
X463910Y438685D01*
X464767Y439180D01*
X465466Y439879D01*
X465961Y440735D01*
X466217Y441691D01*
Y442680D01*
X465961Y443635D01*
X465466Y444491D01*
X464767Y445190D01*
X463910Y445685D01*
X462955Y445941D01*
D02*
G37*
G36*
X398955Y445626D02*
X397966D01*
X397011Y445370D01*
X396154Y444876D01*
X395455Y444176D01*
X394961Y443320D01*
X394705Y442365D01*
Y441376D01*
X394961Y440420D01*
X395455Y439564D01*
X396154Y438865D01*
X397011Y438370D01*
X397966Y438114D01*
X398955D01*
X399910Y438370D01*
X400767Y438865D01*
X401466Y439564D01*
X401961Y440420D01*
X402216Y441376D01*
Y442365D01*
X401961Y443320D01*
X401466Y444176D01*
X400767Y444876D01*
X399910Y445370D01*
X398955Y445626D01*
D02*
G37*
G36*
X335455D02*
X334466D01*
X333511Y445370D01*
X332654Y444876D01*
X331955Y444176D01*
X331461Y443320D01*
X331205Y442365D01*
Y441376D01*
X331461Y440420D01*
X331955Y439564D01*
X332654Y438865D01*
X333511Y438370D01*
X334466Y438114D01*
X335455D01*
X336410Y438370D01*
X337267Y438865D01*
X337966Y439564D01*
X338461Y440420D01*
X338717Y441376D01*
Y442365D01*
X338461Y443320D01*
X337966Y444176D01*
X337267Y444876D01*
X336410Y445370D01*
X335455Y445626D01*
D02*
G37*
G36*
X526955Y445256D02*
X525966D01*
X525011Y445000D01*
X524154Y444506D01*
X523455Y443806D01*
X522961Y442950D01*
X522705Y441994D01*
Y441006D01*
X522961Y440050D01*
X523455Y439194D01*
X524154Y438494D01*
X525011Y438000D01*
X525966Y437744D01*
X526955D01*
X527910Y438000D01*
X528767Y438494D01*
X529466Y439194D01*
X529961Y440050D01*
X530217Y441006D01*
Y441994D01*
X529961Y442950D01*
X529466Y443806D01*
X528767Y444506D01*
X527910Y445000D01*
X526955Y445256D01*
D02*
G37*
G36*
X272495Y436126D02*
X271505D01*
X270550Y435870D01*
X269694Y435376D01*
X268994Y434676D01*
X268500Y433820D01*
X268244Y432865D01*
Y431876D01*
X268500Y430920D01*
X268994Y430064D01*
X269694Y429365D01*
X270550Y428870D01*
X271505Y428614D01*
X272495D01*
X273450Y428870D01*
X274306Y429365D01*
X275006Y430064D01*
X275500Y430920D01*
X275756Y431876D01*
Y432865D01*
X275500Y433820D01*
X275006Y434676D01*
X274306Y435376D01*
X273450Y435870D01*
X272495Y436126D01*
D02*
G37*
G36*
X208995D02*
X208005D01*
X207050Y435870D01*
X206194Y435376D01*
X205494Y434676D01*
X205000Y433820D01*
X204744Y432865D01*
Y431876D01*
X205000Y430920D01*
X205494Y430064D01*
X206194Y429365D01*
X207050Y428870D01*
X208005Y428614D01*
X208995D01*
X209950Y428870D01*
X210806Y429365D01*
X211506Y430064D01*
X212000Y430920D01*
X212256Y431876D01*
Y432865D01*
X212000Y433820D01*
X211506Y434676D01*
X210806Y435376D01*
X209950Y435870D01*
X208995Y436126D01*
D02*
G37*
G36*
X462955Y436098D02*
X461966D01*
X461011Y435843D01*
X460154Y435348D01*
X459455Y434649D01*
X458961Y433792D01*
X458705Y432837D01*
Y431848D01*
X458961Y430893D01*
X459455Y430036D01*
X460154Y429337D01*
X461011Y428843D01*
X461966Y428587D01*
X462955D01*
X463910Y428843D01*
X464767Y429337D01*
X465466Y430036D01*
X465961Y430893D01*
X466217Y431848D01*
Y432837D01*
X465961Y433792D01*
X465466Y434649D01*
X464767Y435348D01*
X463910Y435843D01*
X462955Y436098D01*
D02*
G37*
G36*
X398955Y435783D02*
X397966D01*
X397011Y435528D01*
X396154Y435033D01*
X395455Y434334D01*
X394961Y433477D01*
X394705Y432522D01*
Y431533D01*
X394961Y430578D01*
X395455Y429721D01*
X396154Y429022D01*
X397011Y428528D01*
X397966Y428272D01*
X398955D01*
X399910Y428528D01*
X400767Y429022D01*
X401466Y429721D01*
X401961Y430578D01*
X402216Y431533D01*
Y432522D01*
X401961Y433477D01*
X401466Y434334D01*
X400767Y435033D01*
X399910Y435528D01*
X398955Y435783D01*
D02*
G37*
G36*
X335455D02*
X334466D01*
X333511Y435528D01*
X332654Y435033D01*
X331955Y434334D01*
X331461Y433477D01*
X331205Y432522D01*
Y431533D01*
X331461Y430578D01*
X331955Y429721D01*
X332654Y429022D01*
X333511Y428528D01*
X334466Y428272D01*
X335455D01*
X336410Y428528D01*
X337267Y429022D01*
X337966Y429721D01*
X338461Y430578D01*
X338717Y431533D01*
Y432522D01*
X338461Y433477D01*
X337966Y434334D01*
X337267Y435033D01*
X336410Y435528D01*
X335455Y435783D01*
D02*
G37*
G36*
X526955Y435413D02*
X525966D01*
X525011Y435157D01*
X524154Y434663D01*
X523455Y433964D01*
X522961Y433107D01*
X522705Y432152D01*
Y431163D01*
X522961Y430208D01*
X523455Y429351D01*
X524154Y428652D01*
X525011Y428158D01*
X525966Y427902D01*
X526955D01*
X527910Y428158D01*
X528767Y428652D01*
X529466Y429351D01*
X529961Y430208D01*
X530217Y431163D01*
Y432152D01*
X529961Y433107D01*
X529466Y433964D01*
X528767Y434663D01*
X527910Y435157D01*
X526955Y435413D01*
D02*
G37*
G36*
X272495Y426284D02*
X271505D01*
X270550Y426027D01*
X269694Y425533D01*
X268994Y424834D01*
X268500Y423977D01*
X268244Y423022D01*
Y422033D01*
X268500Y421078D01*
X268994Y420221D01*
X269694Y419522D01*
X270550Y419028D01*
X271505Y418772D01*
X272495D01*
X273450Y419028D01*
X274306Y419522D01*
X275006Y420221D01*
X275500Y421078D01*
X275756Y422033D01*
Y423022D01*
X275500Y423977D01*
X275006Y424834D01*
X274306Y425533D01*
X273450Y426027D01*
X272495Y426284D01*
D02*
G37*
G36*
X208995D02*
X208005D01*
X207050Y426027D01*
X206194Y425533D01*
X205494Y424834D01*
X205000Y423977D01*
X204744Y423022D01*
Y422033D01*
X205000Y421078D01*
X205494Y420221D01*
X206194Y419522D01*
X207050Y419028D01*
X208005Y418772D01*
X208995D01*
X209950Y419028D01*
X210806Y419522D01*
X211506Y420221D01*
X212000Y421078D01*
X212256Y422033D01*
Y423022D01*
X212000Y423977D01*
X211506Y424834D01*
X210806Y425533D01*
X209950Y426027D01*
X208995Y426284D01*
D02*
G37*
G36*
X462955Y426256D02*
X461966D01*
X461011Y426000D01*
X460154Y425505D01*
X459455Y424806D01*
X458961Y423950D01*
X458705Y422995D01*
Y422006D01*
X458961Y421050D01*
X459455Y420194D01*
X460154Y419494D01*
X461011Y419000D01*
X461966Y418744D01*
X462955D01*
X463910Y419000D01*
X464767Y419494D01*
X465466Y420194D01*
X465961Y421050D01*
X466217Y422006D01*
Y422995D01*
X465961Y423950D01*
X465466Y424806D01*
X464767Y425505D01*
X463910Y426000D01*
X462955Y426256D01*
D02*
G37*
G36*
X398955Y425941D02*
X397966D01*
X397011Y425685D01*
X396154Y425190D01*
X395455Y424491D01*
X394961Y423635D01*
X394705Y422680D01*
Y421691D01*
X394961Y420735D01*
X395455Y419879D01*
X396154Y419180D01*
X397011Y418685D01*
X397966Y418429D01*
X398955D01*
X399910Y418685D01*
X400767Y419180D01*
X401466Y419879D01*
X401961Y420735D01*
X402216Y421691D01*
Y422680D01*
X401961Y423635D01*
X401466Y424491D01*
X400767Y425190D01*
X399910Y425685D01*
X398955Y425941D01*
D02*
G37*
G36*
X335455D02*
X334466D01*
X333511Y425685D01*
X332654Y425190D01*
X331955Y424491D01*
X331461Y423635D01*
X331205Y422680D01*
Y421691D01*
X331461Y420735D01*
X331955Y419879D01*
X332654Y419180D01*
X333511Y418685D01*
X334466Y418429D01*
X335455D01*
X336410Y418685D01*
X337267Y419180D01*
X337966Y419879D01*
X338461Y420735D01*
X338717Y421691D01*
Y422680D01*
X338461Y423635D01*
X337966Y424491D01*
X337267Y425190D01*
X336410Y425685D01*
X335455Y425941D01*
D02*
G37*
G36*
X526955Y425571D02*
X525966D01*
X525011Y425315D01*
X524154Y424820D01*
X523455Y424121D01*
X522961Y423265D01*
X522705Y422309D01*
Y421320D01*
X522961Y420365D01*
X523455Y419509D01*
X524154Y418810D01*
X525011Y418315D01*
X525966Y418059D01*
X526955D01*
X527910Y418315D01*
X528767Y418810D01*
X529466Y419509D01*
X529961Y420365D01*
X530217Y421320D01*
Y422309D01*
X529961Y423265D01*
X529466Y424121D01*
X528767Y424820D01*
X527910Y425315D01*
X526955Y425571D01*
D02*
G37*
G36*
X272495Y416441D02*
X271505D01*
X270550Y416185D01*
X269694Y415691D01*
X268994Y414991D01*
X268500Y414135D01*
X268244Y413179D01*
Y412191D01*
X268500Y411235D01*
X268994Y410379D01*
X269694Y409680D01*
X270550Y409185D01*
X271505Y408929D01*
X272495D01*
X273450Y409185D01*
X274306Y409680D01*
X275006Y410379D01*
X275500Y411235D01*
X275756Y412191D01*
Y413179D01*
X275500Y414135D01*
X275006Y414991D01*
X274306Y415691D01*
X273450Y416185D01*
X272495Y416441D01*
D02*
G37*
G36*
X208995D02*
X208005D01*
X207050Y416185D01*
X206194Y415691D01*
X205494Y414991D01*
X205000Y414135D01*
X204744Y413179D01*
Y412191D01*
X205000Y411235D01*
X205494Y410379D01*
X206194Y409680D01*
X207050Y409185D01*
X208005Y408929D01*
X208995D01*
X209950Y409185D01*
X210806Y409680D01*
X211506Y410379D01*
X212000Y411235D01*
X212256Y412191D01*
Y413179D01*
X212000Y414135D01*
X211506Y414991D01*
X210806Y415691D01*
X209950Y416185D01*
X208995Y416441D01*
D02*
G37*
G36*
X462955Y416413D02*
X461966D01*
X461011Y416157D01*
X460154Y415663D01*
X459455Y414964D01*
X458961Y414107D01*
X458705Y413152D01*
Y412163D01*
X458961Y411208D01*
X459455Y410351D01*
X460154Y409652D01*
X461011Y409158D01*
X461966Y408902D01*
X462955D01*
X463910Y409158D01*
X464767Y409652D01*
X465466Y410351D01*
X465961Y411208D01*
X466217Y412163D01*
Y413152D01*
X465961Y414107D01*
X465466Y414964D01*
X464767Y415663D01*
X463910Y416157D01*
X462955Y416413D01*
D02*
G37*
G36*
X398955Y416098D02*
X397966D01*
X397011Y415842D01*
X396154Y415348D01*
X395455Y414649D01*
X394961Y413792D01*
X394705Y412837D01*
Y411848D01*
X394961Y410893D01*
X395455Y410036D01*
X396154Y409337D01*
X397011Y408843D01*
X397966Y408587D01*
X398955D01*
X399910Y408843D01*
X400767Y409337D01*
X401466Y410036D01*
X401961Y410893D01*
X402216Y411848D01*
Y412837D01*
X401961Y413792D01*
X401466Y414649D01*
X400767Y415348D01*
X399910Y415842D01*
X398955Y416098D01*
D02*
G37*
G36*
X335455D02*
X334466D01*
X333511Y415842D01*
X332654Y415348D01*
X331955Y414649D01*
X331461Y413792D01*
X331205Y412837D01*
Y411848D01*
X331461Y410893D01*
X331955Y410036D01*
X332654Y409337D01*
X333511Y408843D01*
X334466Y408587D01*
X335455D01*
X336410Y408843D01*
X337267Y409337D01*
X337966Y410036D01*
X338461Y410893D01*
X338717Y411848D01*
Y412837D01*
X338461Y413792D01*
X337966Y414649D01*
X337267Y415348D01*
X336410Y415842D01*
X335455Y416098D01*
D02*
G37*
G36*
X526955Y415728D02*
X525966D01*
X525011Y415472D01*
X524154Y414978D01*
X523455Y414279D01*
X522961Y413422D01*
X522705Y412467D01*
Y411478D01*
X522961Y410523D01*
X523455Y409666D01*
X524154Y408967D01*
X525011Y408472D01*
X525966Y408216D01*
X526955D01*
X527910Y408472D01*
X528767Y408967D01*
X529466Y409666D01*
X529961Y410523D01*
X530217Y411478D01*
Y412467D01*
X529961Y413422D01*
X529466Y414279D01*
X528767Y414978D01*
X527910Y415472D01*
X526955Y415728D01*
D02*
G37*
G36*
X272495Y406598D02*
X271505D01*
X270550Y406343D01*
X269694Y405848D01*
X268994Y405149D01*
X268500Y404292D01*
X268244Y403337D01*
Y402348D01*
X268500Y401393D01*
X268994Y400536D01*
X269694Y399837D01*
X270550Y399343D01*
X271505Y399087D01*
X272495D01*
X273450Y399343D01*
X274306Y399837D01*
X275006Y400536D01*
X275500Y401393D01*
X275756Y402348D01*
Y403337D01*
X275500Y404292D01*
X275006Y405149D01*
X274306Y405848D01*
X273450Y406343D01*
X272495Y406598D01*
D02*
G37*
G36*
X208995D02*
X208005D01*
X207050Y406343D01*
X206194Y405848D01*
X205494Y405149D01*
X205000Y404292D01*
X204744Y403337D01*
Y402348D01*
X205000Y401393D01*
X205494Y400536D01*
X206194Y399837D01*
X207050Y399343D01*
X208005Y399087D01*
X208995D01*
X209950Y399343D01*
X210806Y399837D01*
X211506Y400536D01*
X212000Y401393D01*
X212256Y402348D01*
Y403337D01*
X212000Y404292D01*
X211506Y405149D01*
X210806Y405848D01*
X209950Y406343D01*
X208995Y406598D01*
D02*
G37*
G36*
X462955Y406571D02*
X461966D01*
X461011Y406315D01*
X460154Y405820D01*
X459455Y405121D01*
X458961Y404265D01*
X458705Y403309D01*
Y402320D01*
X458961Y401365D01*
X459455Y400509D01*
X460154Y399810D01*
X461011Y399315D01*
X461966Y399059D01*
X462955D01*
X463910Y399315D01*
X464767Y399810D01*
X465466Y400509D01*
X465961Y401365D01*
X466217Y402320D01*
Y403309D01*
X465961Y404265D01*
X465466Y405121D01*
X464767Y405820D01*
X463910Y406315D01*
X462955Y406571D01*
D02*
G37*
G36*
X398955Y406256D02*
X397966D01*
X397011Y406000D01*
X396154Y405506D01*
X395455Y404806D01*
X394961Y403950D01*
X394705Y402994D01*
Y402005D01*
X394961Y401050D01*
X395455Y400194D01*
X396154Y399495D01*
X397011Y399000D01*
X397966Y398744D01*
X398955D01*
X399910Y399000D01*
X400767Y399495D01*
X401466Y400194D01*
X401961Y401050D01*
X402216Y402005D01*
Y402994D01*
X401961Y403950D01*
X401466Y404806D01*
X400767Y405506D01*
X399910Y406000D01*
X398955Y406256D01*
D02*
G37*
G36*
X335455D02*
X334466D01*
X333511Y406000D01*
X332654Y405506D01*
X331955Y404806D01*
X331461Y403950D01*
X331205Y402994D01*
Y402005D01*
X331461Y401050D01*
X331955Y400194D01*
X332654Y399495D01*
X333511Y399000D01*
X334466Y398744D01*
X335455D01*
X336410Y399000D01*
X337267Y399495D01*
X337966Y400194D01*
X338461Y401050D01*
X338717Y402005D01*
Y402994D01*
X338461Y403950D01*
X337966Y404806D01*
X337267Y405506D01*
X336410Y406000D01*
X335455Y406256D01*
D02*
G37*
G36*
X526955Y405886D02*
X525966D01*
X525011Y405630D01*
X524154Y405135D01*
X523455Y404436D01*
X522961Y403580D01*
X522705Y402624D01*
Y401635D01*
X522961Y400680D01*
X523455Y399824D01*
X524154Y399124D01*
X525011Y398630D01*
X525966Y398374D01*
X526955D01*
X527910Y398630D01*
X528767Y399124D01*
X529466Y399824D01*
X529961Y400680D01*
X530217Y401635D01*
Y402624D01*
X529961Y403580D01*
X529466Y404436D01*
X528767Y405135D01*
X527910Y405630D01*
X526955Y405886D01*
D02*
G37*
G36*
X272495Y396756D02*
X271505D01*
X270550Y396500D01*
X269694Y396006D01*
X268994Y395306D01*
X268500Y394450D01*
X268244Y393495D01*
Y392506D01*
X268500Y391550D01*
X268994Y390694D01*
X269694Y389995D01*
X270550Y389500D01*
X271505Y389244D01*
X272495D01*
X273450Y389500D01*
X274306Y389995D01*
X275006Y390694D01*
X275500Y391550D01*
X275756Y392506D01*
Y393495D01*
X275500Y394450D01*
X275006Y395306D01*
X274306Y396006D01*
X273450Y396500D01*
X272495Y396756D01*
D02*
G37*
G36*
X208995D02*
X208005D01*
X207050Y396500D01*
X206194Y396006D01*
X205494Y395306D01*
X205000Y394450D01*
X204744Y393495D01*
Y392506D01*
X205000Y391550D01*
X205494Y390694D01*
X206194Y389995D01*
X207050Y389500D01*
X208005Y389244D01*
X208995D01*
X209950Y389500D01*
X210806Y389995D01*
X211506Y390694D01*
X212000Y391550D01*
X212256Y392506D01*
Y393495D01*
X212000Y394450D01*
X211506Y395306D01*
X210806Y396006D01*
X209950Y396500D01*
X208995Y396756D01*
D02*
G37*
G36*
X462955Y396728D02*
X461966D01*
X461011Y396472D01*
X460154Y395978D01*
X459455Y395279D01*
X458961Y394422D01*
X458705Y393467D01*
Y392478D01*
X458961Y391523D01*
X459455Y390666D01*
X460154Y389967D01*
X461011Y389473D01*
X461966Y389216D01*
X462955D01*
X463910Y389473D01*
X464767Y389967D01*
X465466Y390666D01*
X465961Y391523D01*
X466217Y392478D01*
Y393467D01*
X465961Y394422D01*
X465466Y395279D01*
X464767Y395978D01*
X463910Y396472D01*
X462955Y396728D01*
D02*
G37*
G36*
X398955Y396413D02*
X397966D01*
X397011Y396157D01*
X396154Y395663D01*
X395455Y394964D01*
X394961Y394107D01*
X394705Y393152D01*
Y392163D01*
X394961Y391208D01*
X395455Y390351D01*
X396154Y389652D01*
X397011Y389158D01*
X397966Y388902D01*
X398955D01*
X399910Y389158D01*
X400767Y389652D01*
X401466Y390351D01*
X401961Y391208D01*
X402216Y392163D01*
Y393152D01*
X401961Y394107D01*
X401466Y394964D01*
X400767Y395663D01*
X399910Y396157D01*
X398955Y396413D01*
D02*
G37*
G36*
X335455D02*
X334466D01*
X333511Y396157D01*
X332654Y395663D01*
X331955Y394964D01*
X331461Y394107D01*
X331205Y393152D01*
Y392163D01*
X331461Y391208D01*
X331955Y390351D01*
X332654Y389652D01*
X333511Y389158D01*
X334466Y388902D01*
X335455D01*
X336410Y389158D01*
X337267Y389652D01*
X337966Y390351D01*
X338461Y391208D01*
X338717Y392163D01*
Y393152D01*
X338461Y394107D01*
X337966Y394964D01*
X337267Y395663D01*
X336410Y396157D01*
X335455Y396413D01*
D02*
G37*
G36*
X526955Y396043D02*
X525966D01*
X525011Y395787D01*
X524154Y395293D01*
X523455Y394594D01*
X522961Y393737D01*
X522705Y392782D01*
Y391793D01*
X522961Y390838D01*
X523455Y389981D01*
X524154Y389282D01*
X525011Y388788D01*
X525966Y388531D01*
X526955D01*
X527910Y388788D01*
X528767Y389282D01*
X529466Y389981D01*
X529961Y390838D01*
X530217Y391793D01*
Y392782D01*
X529961Y393737D01*
X529466Y394594D01*
X528767Y395293D01*
X527910Y395787D01*
X526955Y396043D01*
D02*
G37*
G36*
X526020Y375453D02*
X524980D01*
X523974Y375183D01*
X523073Y374663D01*
X522337Y373927D01*
X521817Y373026D01*
X521547Y372020D01*
Y370980D01*
X521817Y369974D01*
X522337Y369073D01*
X523073Y368337D01*
X523974Y367817D01*
X524980Y367547D01*
X526020D01*
X527026Y367817D01*
X527927Y368337D01*
X528663Y369073D01*
X529183Y369974D01*
X529453Y370980D01*
Y372020D01*
X529183Y373026D01*
X528663Y373927D01*
X527927Y374663D01*
X527026Y375183D01*
X526020Y375453D01*
D02*
G37*
G36*
X496020D02*
X494980D01*
X493974Y375183D01*
X493073Y374663D01*
X492337Y373927D01*
X491817Y373026D01*
X491547Y372020D01*
Y370980D01*
X491817Y369974D01*
X492337Y369073D01*
X493073Y368337D01*
X493974Y367817D01*
X494980Y367547D01*
X496020D01*
X497026Y367817D01*
X497927Y368337D01*
X498663Y369073D01*
X499183Y369974D01*
X499453Y370980D01*
Y372020D01*
X499183Y373026D01*
X498663Y373927D01*
X497927Y374663D01*
X497026Y375183D01*
X496020Y375453D01*
D02*
G37*
G36*
X335520D02*
X334480D01*
X333474Y375183D01*
X332573Y374663D01*
X331837Y373927D01*
X331317Y373026D01*
X331047Y372020D01*
Y370980D01*
X331317Y369974D01*
X331837Y369073D01*
X332573Y368337D01*
X333474Y367817D01*
X334480Y367547D01*
X335520D01*
X336526Y367817D01*
X337427Y368337D01*
X338163Y369073D01*
X338683Y369974D01*
X338953Y370980D01*
Y372020D01*
X338683Y373026D01*
X338163Y373927D01*
X337427Y374663D01*
X336526Y375183D01*
X335520Y375453D01*
D02*
G37*
G36*
X272020D02*
X270980D01*
X269974Y375183D01*
X269073Y374663D01*
X268337Y373927D01*
X267817Y373026D01*
X267547Y372020D01*
Y370980D01*
X267817Y369974D01*
X268337Y369073D01*
X269073Y368337D01*
X269974Y367817D01*
X270980Y367547D01*
X272020D01*
X273026Y367817D01*
X273927Y368337D01*
X274663Y369073D01*
X275183Y369974D01*
X275453Y370980D01*
Y372020D01*
X275183Y373026D01*
X274663Y373927D01*
X273927Y374663D01*
X273026Y375183D01*
X272020Y375453D01*
D02*
G37*
G36*
X209520D02*
X208480D01*
X207474Y375183D01*
X206573Y374663D01*
X205837Y373927D01*
X205317Y373026D01*
X205047Y372020D01*
Y370980D01*
X205317Y369974D01*
X205837Y369073D01*
X206573Y368337D01*
X207474Y367817D01*
X208480Y367547D01*
X209520D01*
X210526Y367817D01*
X211427Y368337D01*
X212163Y369073D01*
X212683Y369974D01*
X212953Y370980D01*
Y372020D01*
X212683Y373026D01*
X212163Y373927D01*
X211427Y374663D01*
X210526Y375183D01*
X209520Y375453D01*
D02*
G37*
G36*
X463520Y374953D02*
X462480D01*
X461474Y374683D01*
X460573Y374163D01*
X459837Y373427D01*
X459317Y372526D01*
X459047Y371520D01*
Y370480D01*
X459317Y369474D01*
X459837Y368573D01*
X460573Y367837D01*
X461474Y367317D01*
X462480Y367047D01*
X463520D01*
X464526Y367317D01*
X465427Y367837D01*
X466163Y368573D01*
X466683Y369474D01*
X466953Y370480D01*
Y371520D01*
X466683Y372526D01*
X466163Y373427D01*
X465427Y374163D01*
X464526Y374683D01*
X463520Y374953D01*
D02*
G37*
G36*
X399020D02*
X397980D01*
X396974Y374683D01*
X396073Y374163D01*
X395337Y373427D01*
X394817Y372526D01*
X394547Y371520D01*
Y370480D01*
X394817Y369474D01*
X395337Y368573D01*
X396073Y367837D01*
X396974Y367317D01*
X397980Y367047D01*
X399020D01*
X400026Y367317D01*
X400927Y367837D01*
X401663Y368573D01*
X402183Y369474D01*
X402453Y370480D01*
Y371520D01*
X402183Y372526D01*
X401663Y373427D01*
X400927Y374163D01*
X400026Y374683D01*
X399020Y374953D01*
D02*
G37*
G36*
X537982Y377874D02*
X537018D01*
X536088Y377625D01*
X535254Y377143D01*
X534573Y376462D01*
X534092Y375628D01*
X533843Y374698D01*
Y373735D01*
X534092Y372805D01*
X534573Y371971D01*
X535254Y371290D01*
X535971Y370876D01*
Y367836D01*
X529915Y361780D01*
X529453Y361972D01*
Y362020D01*
X529183Y363026D01*
X528663Y363927D01*
X527927Y364663D01*
X527026Y365183D01*
X526020Y365453D01*
X524980D01*
X523974Y365183D01*
X523073Y364663D01*
X522337Y363927D01*
X521817Y363026D01*
X521547Y362020D01*
Y360980D01*
X521817Y359974D01*
X522337Y359073D01*
X523073Y358337D01*
X523974Y357817D01*
X524980Y357547D01*
X525028D01*
X525220Y357085D01*
X525169Y357034D01*
X524837Y356538D01*
X524720Y355953D01*
Y355383D01*
X523974Y355183D01*
X523073Y354663D01*
X522337Y353927D01*
X521817Y353026D01*
X521547Y352020D01*
Y350980D01*
X521817Y349974D01*
X522337Y349073D01*
X523073Y348337D01*
X523974Y347817D01*
X524980Y347547D01*
X526020D01*
X527026Y347817D01*
X527927Y348337D01*
X528663Y349073D01*
X529183Y349974D01*
X529453Y350980D01*
Y352020D01*
X529183Y353026D01*
X528663Y353927D01*
X527927Y354663D01*
X527779Y354748D01*
Y355319D01*
X538581Y366121D01*
X538913Y366618D01*
X539029Y367203D01*
Y370876D01*
X539746Y371290D01*
X540427Y371971D01*
X540908Y372805D01*
X541157Y373735D01*
Y374698D01*
X540908Y375628D01*
X540427Y376462D01*
X539746Y377143D01*
X538912Y377625D01*
X537982Y377874D01*
D02*
G37*
G36*
X477982Y374374D02*
X477018D01*
X476088Y374125D01*
X475254Y373643D01*
X474573Y372962D01*
X474092Y372128D01*
X473842Y371198D01*
Y370235D01*
X474092Y369305D01*
X474573Y368471D01*
X474777Y368267D01*
X467453Y360943D01*
X466953Y361150D01*
Y361520D01*
X466683Y362526D01*
X466163Y363427D01*
X465427Y364163D01*
X464526Y364683D01*
X463520Y364953D01*
X462480D01*
X461474Y364683D01*
X460573Y364163D01*
X459837Y363427D01*
X459317Y362526D01*
X459047Y361520D01*
Y360480D01*
X459317Y359474D01*
X459837Y358573D01*
X460573Y357837D01*
X461474Y357317D01*
X462480Y357047D01*
X462850D01*
X463057Y356547D01*
X462857Y356347D01*
X462526Y355851D01*
X462409Y355266D01*
Y354934D01*
X461474Y354683D01*
X460573Y354163D01*
X459837Y353427D01*
X459317Y352526D01*
X459047Y351520D01*
Y350480D01*
X459317Y349474D01*
X459837Y348573D01*
X460573Y347837D01*
X461474Y347317D01*
X462480Y347047D01*
X463520D01*
X464526Y347317D01*
X465427Y347837D01*
X466163Y348573D01*
X466683Y349474D01*
X466953Y350480D01*
Y351520D01*
X466683Y352526D01*
X466163Y353427D01*
X465468Y354122D01*
Y354633D01*
X477756Y366920D01*
X477848Y367059D01*
X477982D01*
X478912Y367308D01*
X479746Y367790D01*
X480427Y368471D01*
X480908Y369305D01*
X481157Y370235D01*
Y371198D01*
X480908Y372128D01*
X480427Y372962D01*
X479746Y373643D01*
X478912Y374125D01*
X477982Y374374D01*
D02*
G37*
G36*
X496020Y365453D02*
X494980D01*
X493974Y365183D01*
X493073Y364663D01*
X492337Y363927D01*
X491817Y363026D01*
X491547Y362020D01*
Y360980D01*
X491817Y359974D01*
X492337Y359073D01*
X493073Y358337D01*
X493974Y357817D01*
X494980Y357547D01*
X496020D01*
X497026Y357817D01*
X497927Y358337D01*
X498663Y359073D01*
X499183Y359974D01*
X499453Y360980D01*
Y362020D01*
X499183Y363026D01*
X498663Y363927D01*
X497927Y364663D01*
X497026Y365183D01*
X496020Y365453D01*
D02*
G37*
G36*
X335520D02*
X334480D01*
X333474Y365183D01*
X332573Y364663D01*
X331837Y363927D01*
X331317Y363026D01*
X331047Y362020D01*
Y360980D01*
X331317Y359974D01*
X331837Y359073D01*
X332573Y358337D01*
X333474Y357817D01*
X334480Y357547D01*
X335520D01*
X336526Y357817D01*
X337427Y358337D01*
X338163Y359073D01*
X338683Y359974D01*
X338953Y360980D01*
Y362020D01*
X338683Y363026D01*
X338163Y363927D01*
X337427Y364663D01*
X336526Y365183D01*
X335520Y365453D01*
D02*
G37*
G36*
X272020D02*
X270980D01*
X269974Y365183D01*
X269073Y364663D01*
X268337Y363927D01*
X267817Y363026D01*
X267547Y362020D01*
Y360980D01*
X267817Y359974D01*
X268337Y359073D01*
X269073Y358337D01*
X269974Y357817D01*
X270980Y357547D01*
X272020D01*
X273026Y357817D01*
X273927Y358337D01*
X274663Y359073D01*
X275183Y359974D01*
X275453Y360980D01*
Y362020D01*
X275183Y363026D01*
X274663Y363927D01*
X273927Y364663D01*
X273026Y365183D01*
X272020Y365453D01*
D02*
G37*
G36*
X209520D02*
X208480D01*
X207474Y365183D01*
X206573Y364663D01*
X205837Y363927D01*
X205317Y363026D01*
X205047Y362020D01*
Y360980D01*
X205317Y359974D01*
X205837Y359073D01*
X206573Y358337D01*
X207474Y357817D01*
X208480Y357547D01*
X209520D01*
X210526Y357817D01*
X211427Y358337D01*
X212163Y359073D01*
X212683Y359974D01*
X212953Y360980D01*
Y362020D01*
X212683Y363026D01*
X212163Y363927D01*
X211427Y364663D01*
X210526Y365183D01*
X209520Y365453D01*
D02*
G37*
G36*
X399020Y364953D02*
X397980D01*
X396974Y364683D01*
X396073Y364163D01*
X395337Y363427D01*
X394817Y362526D01*
X394547Y361520D01*
Y360480D01*
X394817Y359474D01*
X395337Y358573D01*
X396073Y357837D01*
X396974Y357317D01*
X397980Y357047D01*
X399020D01*
X400026Y357317D01*
X400927Y357837D01*
X401663Y358573D01*
X402183Y359474D01*
X402453Y360480D01*
Y361520D01*
X402183Y362526D01*
X401663Y363427D01*
X400927Y364163D01*
X400026Y364683D01*
X399020Y364953D01*
D02*
G37*
G36*
X351981Y374874D02*
X351019D01*
X350088Y374625D01*
X349254Y374143D01*
X348573Y373462D01*
X348092Y372628D01*
X347843Y371698D01*
Y370735D01*
X348092Y369805D01*
X348573Y368971D01*
X349145Y368399D01*
Y367808D01*
X336522Y355185D01*
X335520Y355453D01*
X334480D01*
X333474Y355183D01*
X332573Y354663D01*
X331837Y353927D01*
X331317Y353026D01*
X331047Y352020D01*
Y350980D01*
X331317Y349974D01*
X331837Y349073D01*
X332573Y348337D01*
X333474Y347817D01*
X334480Y347547D01*
X335520D01*
X336526Y347817D01*
X337427Y348337D01*
X338163Y349073D01*
X338683Y349974D01*
X338953Y350980D01*
Y352020D01*
X338685Y353022D01*
X351756Y366093D01*
X352087Y366589D01*
X352204Y367174D01*
Y367619D01*
X352912Y367808D01*
X353746Y368290D01*
X354427Y368971D01*
X354908Y369805D01*
X355157Y370735D01*
Y371698D01*
X354908Y372628D01*
X354427Y373462D01*
X353746Y374143D01*
X352912Y374625D01*
X351981Y374874D01*
D02*
G37*
G36*
X288481D02*
X287519D01*
X286588Y374625D01*
X285754Y374143D01*
X285073Y373462D01*
X284592Y372628D01*
X284343Y371698D01*
Y370735D01*
X284592Y369805D01*
X285073Y368971D01*
X285645Y368399D01*
Y367808D01*
X273022Y355185D01*
X272020Y355453D01*
X270980D01*
X269974Y355183D01*
X269073Y354663D01*
X268337Y353927D01*
X267817Y353026D01*
X267547Y352020D01*
Y350980D01*
X267817Y349974D01*
X268337Y349073D01*
X269073Y348337D01*
X269974Y347817D01*
X270980Y347547D01*
X272020D01*
X273026Y347817D01*
X273927Y348337D01*
X274663Y349073D01*
X275183Y349974D01*
X275453Y350980D01*
Y352020D01*
X275184Y353022D01*
X288256Y366093D01*
X288587Y366589D01*
X288704Y367174D01*
Y367619D01*
X289412Y367808D01*
X290246Y368290D01*
X290927Y368971D01*
X291408Y369805D01*
X291657Y370735D01*
Y371698D01*
X291408Y372628D01*
X290927Y373462D01*
X290246Y374143D01*
X289412Y374625D01*
X288481Y374874D01*
D02*
G37*
G36*
X225482D02*
X224518D01*
X223588Y374625D01*
X222754Y374143D01*
X222073Y373462D01*
X221592Y372628D01*
X221342Y371698D01*
Y370735D01*
X221592Y369805D01*
X222073Y368971D01*
X222754Y368290D01*
X222967Y368167D01*
X223005Y367668D01*
X210522Y355185D01*
X209520Y355453D01*
X208480D01*
X207474Y355183D01*
X206573Y354663D01*
X205837Y353927D01*
X205317Y353026D01*
X205047Y352020D01*
Y350980D01*
X205317Y349974D01*
X205837Y349073D01*
X206573Y348337D01*
X207474Y347817D01*
X208480Y347547D01*
X209520D01*
X210526Y347817D01*
X211427Y348337D01*
X212163Y349073D01*
X212683Y349974D01*
X212953Y350980D01*
Y352020D01*
X212684Y353022D01*
X225641Y365978D01*
X225972Y366474D01*
X226089Y367059D01*
Y367722D01*
X226412Y367808D01*
X227246Y368290D01*
X227927Y368971D01*
X228408Y369805D01*
X228658Y370735D01*
Y371698D01*
X228408Y372628D01*
X227927Y373462D01*
X227246Y374143D01*
X226412Y374625D01*
X225482Y374874D01*
D02*
G37*
G36*
X414982Y373874D02*
X414018D01*
X413088Y373625D01*
X412254Y373143D01*
X411573Y372462D01*
X411092Y371628D01*
X410843Y370698D01*
Y369735D01*
X411092Y368805D01*
X411573Y367971D01*
X412145Y367399D01*
Y366808D01*
X400022Y354684D01*
X399020Y354953D01*
X397980D01*
X396974Y354683D01*
X396073Y354163D01*
X395337Y353427D01*
X394817Y352526D01*
X394547Y351520D01*
Y350480D01*
X394817Y349474D01*
X395337Y348573D01*
X396073Y347837D01*
X396974Y347317D01*
X397980Y347047D01*
X399020D01*
X400026Y347317D01*
X400927Y347837D01*
X401663Y348573D01*
X402183Y349474D01*
X402453Y350480D01*
Y351520D01*
X402184Y352522D01*
X414756Y365093D01*
X415087Y365589D01*
X415204Y366174D01*
Y366619D01*
X415912Y366808D01*
X416746Y367290D01*
X417427Y367971D01*
X417908Y368805D01*
X418157Y369735D01*
Y370698D01*
X417908Y371628D01*
X417427Y372462D01*
X416746Y373143D01*
X415912Y373625D01*
X414982Y373874D01*
D02*
G37*
G36*
X496020Y355453D02*
X494980D01*
X493974Y355183D01*
X493073Y354663D01*
X492337Y353927D01*
X491817Y353026D01*
X491547Y352020D01*
Y350980D01*
X491817Y349974D01*
X492337Y349073D01*
X493073Y348337D01*
X493974Y347817D01*
X494980Y347547D01*
X496020D01*
X497026Y347817D01*
X497927Y348337D01*
X498663Y349073D01*
X499183Y349974D01*
X499453Y350980D01*
Y352020D01*
X499183Y353026D01*
X498663Y353927D01*
X497927Y354663D01*
X497026Y355183D01*
X496020Y355453D01*
D02*
G37*
G36*
X526020Y345453D02*
X524980D01*
X523974Y345183D01*
X523073Y344663D01*
X522337Y343927D01*
X521817Y343026D01*
X521547Y342020D01*
Y340980D01*
X521817Y339974D01*
X522337Y339073D01*
X523073Y338337D01*
X523974Y337817D01*
X524980Y337547D01*
X526020D01*
X527026Y337817D01*
X527927Y338337D01*
X528663Y339073D01*
X529183Y339974D01*
X529453Y340980D01*
Y342020D01*
X529183Y343026D01*
X528663Y343927D01*
X527927Y344663D01*
X527026Y345183D01*
X526020Y345453D01*
D02*
G37*
G36*
X496020D02*
X494980D01*
X493974Y345183D01*
X493073Y344663D01*
X492337Y343927D01*
X491817Y343026D01*
X491547Y342020D01*
Y340980D01*
X491817Y339974D01*
X492337Y339073D01*
X493073Y338337D01*
X493974Y337817D01*
X494980Y337547D01*
X496020D01*
X497026Y337817D01*
X497927Y338337D01*
X498663Y339073D01*
X499183Y339974D01*
X499453Y340980D01*
Y342020D01*
X499183Y343026D01*
X498663Y343927D01*
X497927Y344663D01*
X497026Y345183D01*
X496020Y345453D01*
D02*
G37*
G36*
X335520D02*
X334480D01*
X333474Y345183D01*
X332573Y344663D01*
X331837Y343927D01*
X331317Y343026D01*
X331047Y342020D01*
Y340980D01*
X331317Y339974D01*
X331837Y339073D01*
X332573Y338337D01*
X333474Y337817D01*
X334480Y337547D01*
X335520D01*
X336526Y337817D01*
X337427Y338337D01*
X338163Y339073D01*
X338683Y339974D01*
X338953Y340980D01*
Y342020D01*
X338683Y343026D01*
X338163Y343927D01*
X337427Y344663D01*
X336526Y345183D01*
X335520Y345453D01*
D02*
G37*
G36*
X272020D02*
X270980D01*
X269974Y345183D01*
X269073Y344663D01*
X268337Y343927D01*
X267817Y343026D01*
X267547Y342020D01*
Y340980D01*
X267817Y339974D01*
X268337Y339073D01*
X269073Y338337D01*
X269974Y337817D01*
X270980Y337547D01*
X272020D01*
X273026Y337817D01*
X273927Y338337D01*
X274663Y339073D01*
X275183Y339974D01*
X275453Y340980D01*
Y342020D01*
X275183Y343026D01*
X274663Y343927D01*
X273927Y344663D01*
X273026Y345183D01*
X272020Y345453D01*
D02*
G37*
G36*
X209520D02*
X208480D01*
X207474Y345183D01*
X206573Y344663D01*
X205837Y343927D01*
X205317Y343026D01*
X205047Y342020D01*
Y340980D01*
X205317Y339974D01*
X205837Y339073D01*
X206573Y338337D01*
X207474Y337817D01*
X208480Y337547D01*
X209520D01*
X210526Y337817D01*
X211427Y338337D01*
X212163Y339073D01*
X212683Y339974D01*
X212953Y340980D01*
Y342020D01*
X212683Y343026D01*
X212163Y343927D01*
X211427Y344663D01*
X210526Y345183D01*
X209520Y345453D01*
D02*
G37*
G36*
X463520Y344953D02*
X462480D01*
X461474Y344683D01*
X460573Y344163D01*
X459837Y343427D01*
X459317Y342526D01*
X459047Y341520D01*
Y340480D01*
X459317Y339474D01*
X459837Y338573D01*
X460573Y337837D01*
X461474Y337317D01*
X462480Y337047D01*
X463520D01*
X464526Y337317D01*
X465427Y337837D01*
X466163Y338573D01*
X466683Y339474D01*
X466953Y340480D01*
Y341520D01*
X466683Y342526D01*
X466163Y343427D01*
X465427Y344163D01*
X464526Y344683D01*
X463520Y344953D01*
D02*
G37*
G36*
X399020D02*
X397980D01*
X396974Y344683D01*
X396073Y344163D01*
X395337Y343427D01*
X394817Y342526D01*
X394547Y341520D01*
Y340480D01*
X394817Y339474D01*
X395337Y338573D01*
X396073Y337837D01*
X396974Y337317D01*
X397980Y337047D01*
X399020D01*
X400026Y337317D01*
X400927Y337837D01*
X401663Y338573D01*
X402183Y339474D01*
X402453Y340480D01*
Y341520D01*
X402183Y342526D01*
X401663Y343427D01*
X400927Y344163D01*
X400026Y344683D01*
X399020Y344953D01*
D02*
G37*
G36*
X541157Y342441D02*
X533843D01*
Y335126D01*
X541157D01*
Y342441D01*
D02*
G37*
G36*
X355157Y339441D02*
X347843D01*
Y332126D01*
X355157D01*
Y339441D01*
D02*
G37*
G36*
X291657D02*
X284343D01*
Y332126D01*
X291657D01*
Y339441D01*
D02*
G37*
G36*
X228658D02*
X221342D01*
Y332126D01*
X228658D01*
Y339441D01*
D02*
G37*
G36*
X481157Y338941D02*
X473842D01*
Y331626D01*
X481157D01*
Y338941D01*
D02*
G37*
G36*
X418157Y338441D02*
X410843D01*
Y331126D01*
X418157D01*
Y338441D01*
D02*
G37*
G36*
X526020Y335453D02*
X524980D01*
X523974Y335183D01*
X523073Y334663D01*
X522337Y333927D01*
X521817Y333026D01*
X521547Y332020D01*
Y330980D01*
X521817Y329974D01*
X522337Y329073D01*
X523073Y328337D01*
X523974Y327817D01*
X524980Y327547D01*
X526020D01*
X527026Y327817D01*
X527927Y328337D01*
X528663Y329073D01*
X529183Y329974D01*
X529453Y330980D01*
Y332020D01*
X529183Y333026D01*
X528663Y333927D01*
X527927Y334663D01*
X527026Y335183D01*
X526020Y335453D01*
D02*
G37*
G36*
X496020D02*
X494980D01*
X493974Y335183D01*
X493073Y334663D01*
X492337Y333927D01*
X491817Y333026D01*
X491547Y332020D01*
Y330980D01*
X491817Y329974D01*
X492337Y329073D01*
X493073Y328337D01*
X493974Y327817D01*
X494980Y327547D01*
X496020D01*
X497026Y327817D01*
X497927Y328337D01*
X498663Y329073D01*
X499183Y329974D01*
X499453Y330980D01*
Y332020D01*
X499183Y333026D01*
X498663Y333927D01*
X497927Y334663D01*
X497026Y335183D01*
X496020Y335453D01*
D02*
G37*
G36*
X335520D02*
X334480D01*
X333474Y335183D01*
X332573Y334663D01*
X331837Y333927D01*
X331317Y333026D01*
X331047Y332020D01*
Y330980D01*
X331317Y329974D01*
X331837Y329073D01*
X332573Y328337D01*
X333474Y327817D01*
X334480Y327547D01*
X335520D01*
X336526Y327817D01*
X337427Y328337D01*
X338163Y329073D01*
X338683Y329974D01*
X338953Y330980D01*
Y332020D01*
X338683Y333026D01*
X338163Y333927D01*
X337427Y334663D01*
X336526Y335183D01*
X335520Y335453D01*
D02*
G37*
G36*
X272020D02*
X270980D01*
X269974Y335183D01*
X269073Y334663D01*
X268337Y333927D01*
X267817Y333026D01*
X267547Y332020D01*
Y330980D01*
X267817Y329974D01*
X268337Y329073D01*
X269073Y328337D01*
X269974Y327817D01*
X270980Y327547D01*
X272020D01*
X273026Y327817D01*
X273927Y328337D01*
X274663Y329073D01*
X275183Y329974D01*
X275453Y330980D01*
Y332020D01*
X275183Y333026D01*
X274663Y333927D01*
X273927Y334663D01*
X273026Y335183D01*
X272020Y335453D01*
D02*
G37*
G36*
X209520D02*
X208480D01*
X207474Y335183D01*
X206573Y334663D01*
X205837Y333927D01*
X205317Y333026D01*
X205047Y332020D01*
Y330980D01*
X205317Y329974D01*
X205837Y329073D01*
X206573Y328337D01*
X207474Y327817D01*
X208480Y327547D01*
X209520D01*
X210526Y327817D01*
X211427Y328337D01*
X212163Y329073D01*
X212683Y329974D01*
X212953Y330980D01*
Y332020D01*
X212683Y333026D01*
X212163Y333927D01*
X211427Y334663D01*
X210526Y335183D01*
X209520Y335453D01*
D02*
G37*
G36*
X537982Y334374D02*
X537018D01*
X536088Y334125D01*
X535254Y333643D01*
X534573Y332962D01*
X534092Y332128D01*
X533843Y331198D01*
Y330235D01*
X534092Y329305D01*
X534573Y328471D01*
X535254Y327790D01*
X536088Y327308D01*
X537018Y327059D01*
X537982D01*
X538912Y327308D01*
X539746Y327790D01*
X540427Y328471D01*
X540908Y329305D01*
X541157Y330235D01*
Y331198D01*
X540908Y332128D01*
X540427Y332962D01*
X539746Y333643D01*
X538912Y334125D01*
X537982Y334374D01*
D02*
G37*
G36*
X463520Y334953D02*
X462480D01*
X461474Y334683D01*
X460573Y334163D01*
X459837Y333427D01*
X459317Y332526D01*
X459047Y331520D01*
Y330480D01*
X459317Y329474D01*
X459837Y328573D01*
X460573Y327837D01*
X461474Y327317D01*
X462480Y327047D01*
X463520D01*
X464526Y327317D01*
X465427Y327837D01*
X466163Y328573D01*
X466683Y329474D01*
X466953Y330480D01*
Y331520D01*
X466683Y332526D01*
X466163Y333427D01*
X465427Y334163D01*
X464526Y334683D01*
X463520Y334953D01*
D02*
G37*
G36*
X399020D02*
X397980D01*
X396974Y334683D01*
X396073Y334163D01*
X395337Y333427D01*
X394817Y332526D01*
X394547Y331520D01*
Y330480D01*
X394817Y329474D01*
X395337Y328573D01*
X396073Y327837D01*
X396974Y327317D01*
X397980Y327047D01*
X399020D01*
X400026Y327317D01*
X400927Y327837D01*
X401663Y328573D01*
X402183Y329474D01*
X402453Y330480D01*
Y331520D01*
X402183Y332526D01*
X401663Y333427D01*
X400927Y334163D01*
X400026Y334683D01*
X399020Y334953D01*
D02*
G37*
G36*
X288481Y330874D02*
X287519D01*
X286588Y330625D01*
X285754Y330143D01*
X285073Y329462D01*
X284592Y328628D01*
X284343Y327698D01*
Y326735D01*
X284592Y325805D01*
X285073Y324971D01*
X285754Y324290D01*
X286588Y323808D01*
X287519Y323559D01*
X288481D01*
X289412Y323808D01*
X290246Y324290D01*
X290927Y324971D01*
X291408Y325805D01*
X291657Y326735D01*
Y327698D01*
X291408Y328628D01*
X290927Y329462D01*
X290246Y330143D01*
X289412Y330625D01*
X288481Y330874D01*
D02*
G37*
G36*
X225482Y330374D02*
X224518D01*
X223588Y330125D01*
X222754Y329643D01*
X222073Y328962D01*
X221592Y328128D01*
X221342Y327198D01*
Y326235D01*
X221592Y325305D01*
X222073Y324471D01*
X222754Y323790D01*
X223588Y323308D01*
X224518Y323059D01*
X225482D01*
X226412Y323308D01*
X227246Y323790D01*
X227927Y324471D01*
X228408Y325305D01*
X228658Y326235D01*
Y327198D01*
X228408Y328128D01*
X227927Y328962D01*
X227246Y329643D01*
X226412Y330125D01*
X225482Y330374D01*
D02*
G37*
G36*
X414982Y329874D02*
X414018D01*
X413088Y329625D01*
X412254Y329143D01*
X411573Y328462D01*
X411092Y327628D01*
X410843Y326698D01*
Y325735D01*
X411092Y324805D01*
X411573Y323971D01*
X412254Y323290D01*
X413088Y322808D01*
X414018Y322559D01*
X414982D01*
X415912Y322808D01*
X416746Y323290D01*
X417427Y323971D01*
X417908Y324805D01*
X418157Y325735D01*
Y326698D01*
X417908Y327628D01*
X417427Y328462D01*
X416746Y329143D01*
X415912Y329625D01*
X414982Y329874D01*
D02*
G37*
G36*
X351981D02*
X351019D01*
X350088Y329625D01*
X349254Y329143D01*
X348573Y328462D01*
X348092Y327628D01*
X347843Y326698D01*
Y325735D01*
X348092Y324805D01*
X348573Y323971D01*
X349254Y323290D01*
X350088Y322808D01*
X351019Y322559D01*
X351981D01*
X352912Y322808D01*
X353746Y323290D01*
X354427Y323971D01*
X354908Y324805D01*
X355157Y325735D01*
Y326698D01*
X354908Y327628D01*
X354427Y328462D01*
X353746Y329143D01*
X352912Y329625D01*
X351981Y329874D01*
D02*
G37*
G36*
X477482Y329374D02*
X476518D01*
X475588Y329125D01*
X474754Y328643D01*
X474073Y327962D01*
X473592Y327128D01*
X473343Y326198D01*
Y325235D01*
X473592Y324305D01*
X474073Y323471D01*
X474754Y322790D01*
X475588Y322308D01*
X476518Y322059D01*
X477482D01*
X478412Y322308D01*
X479246Y322790D01*
X479927Y323471D01*
X480408Y324305D01*
X480657Y325235D01*
Y326198D01*
X480408Y327128D01*
X479927Y327962D01*
X479246Y328643D01*
X478412Y329125D01*
X477482Y329374D01*
D02*
G37*
G36*
X526020Y325453D02*
X524980D01*
X523974Y325183D01*
X523073Y324663D01*
X522337Y323927D01*
X521817Y323026D01*
X521547Y322020D01*
Y320980D01*
X521817Y319974D01*
X522337Y319073D01*
X523073Y318337D01*
X523974Y317817D01*
X524980Y317547D01*
X526020D01*
X527026Y317817D01*
X527927Y318337D01*
X528663Y319073D01*
X529183Y319974D01*
X529453Y320980D01*
Y322020D01*
X529183Y323026D01*
X528663Y323927D01*
X527927Y324663D01*
X527026Y325183D01*
X526020Y325453D01*
D02*
G37*
G36*
X496020D02*
X494980D01*
X493974Y325183D01*
X493073Y324663D01*
X492337Y323927D01*
X491817Y323026D01*
X491547Y322020D01*
Y320980D01*
X491817Y319974D01*
X492337Y319073D01*
X493073Y318337D01*
X493974Y317817D01*
X494980Y317547D01*
X496020D01*
X497026Y317817D01*
X497927Y318337D01*
X498663Y319073D01*
X499183Y319974D01*
X499453Y320980D01*
Y322020D01*
X499183Y323026D01*
X498663Y323927D01*
X497927Y324663D01*
X497026Y325183D01*
X496020Y325453D01*
D02*
G37*
G36*
X335520D02*
X334480D01*
X333474Y325183D01*
X332573Y324663D01*
X331837Y323927D01*
X331317Y323026D01*
X331047Y322020D01*
Y320980D01*
X331317Y319974D01*
X331837Y319073D01*
X332573Y318337D01*
X333474Y317817D01*
X334480Y317547D01*
X335520D01*
X336526Y317817D01*
X337427Y318337D01*
X338163Y319073D01*
X338683Y319974D01*
X338953Y320980D01*
Y322020D01*
X338683Y323026D01*
X338163Y323927D01*
X337427Y324663D01*
X336526Y325183D01*
X335520Y325453D01*
D02*
G37*
G36*
X272020D02*
X270980D01*
X269974Y325183D01*
X269073Y324663D01*
X268337Y323927D01*
X267817Y323026D01*
X267547Y322020D01*
Y320980D01*
X267817Y319974D01*
X268337Y319073D01*
X269073Y318337D01*
X269974Y317817D01*
X270980Y317547D01*
X272020D01*
X273026Y317817D01*
X273927Y318337D01*
X274663Y319073D01*
X275183Y319974D01*
X275453Y320980D01*
Y322020D01*
X275183Y323026D01*
X274663Y323927D01*
X273927Y324663D01*
X273026Y325183D01*
X272020Y325453D01*
D02*
G37*
G36*
X209520D02*
X208480D01*
X207474Y325183D01*
X206573Y324663D01*
X205837Y323927D01*
X205317Y323026D01*
X205047Y322020D01*
Y320980D01*
X205317Y319974D01*
X205837Y319073D01*
X206573Y318337D01*
X207474Y317817D01*
X208480Y317547D01*
X209520D01*
X210526Y317817D01*
X211427Y318337D01*
X212163Y319073D01*
X212683Y319974D01*
X212953Y320980D01*
Y322020D01*
X212683Y323026D01*
X212163Y323927D01*
X211427Y324663D01*
X210526Y325183D01*
X209520Y325453D01*
D02*
G37*
G36*
X463520Y324953D02*
X462480D01*
X461474Y324683D01*
X460573Y324163D01*
X459837Y323427D01*
X459317Y322526D01*
X459047Y321520D01*
Y320480D01*
X459317Y319474D01*
X459837Y318573D01*
X460573Y317837D01*
X461474Y317317D01*
X462480Y317047D01*
X463520D01*
X464526Y317317D01*
X465427Y317837D01*
X466163Y318573D01*
X466683Y319474D01*
X466953Y320480D01*
Y321520D01*
X466683Y322526D01*
X466163Y323427D01*
X465427Y324163D01*
X464526Y324683D01*
X463520Y324953D01*
D02*
G37*
G36*
X399020D02*
X397980D01*
X396974Y324683D01*
X396073Y324163D01*
X395337Y323427D01*
X394817Y322526D01*
X394547Y321520D01*
Y320480D01*
X394817Y319474D01*
X395337Y318573D01*
X396073Y317837D01*
X396974Y317317D01*
X397980Y317047D01*
X399020D01*
X400026Y317317D01*
X400927Y317837D01*
X401663Y318573D01*
X402183Y319474D01*
X402453Y320480D01*
Y321520D01*
X402183Y322526D01*
X401663Y323427D01*
X400927Y324163D01*
X400026Y324683D01*
X399020Y324953D01*
D02*
G37*
G36*
X526020Y315453D02*
X524980D01*
X523974Y315183D01*
X523073Y314663D01*
X522337Y313927D01*
X521817Y313026D01*
X521547Y312020D01*
Y310980D01*
X521817Y309974D01*
X522337Y309073D01*
X523073Y308337D01*
X523974Y307817D01*
X524980Y307547D01*
X526020D01*
X527026Y307817D01*
X527927Y308337D01*
X528663Y309073D01*
X529183Y309974D01*
X529453Y310980D01*
Y312020D01*
X529183Y313026D01*
X528663Y313927D01*
X527927Y314663D01*
X527026Y315183D01*
X526020Y315453D01*
D02*
G37*
G36*
X335520D02*
X334480D01*
X333474Y315183D01*
X332573Y314663D01*
X331837Y313927D01*
X331317Y313026D01*
X331047Y312020D01*
Y310980D01*
X331317Y309974D01*
X331837Y309073D01*
X332573Y308337D01*
X333474Y307817D01*
X334480Y307547D01*
X335520D01*
X336526Y307817D01*
X337427Y308337D01*
X338163Y309073D01*
X338683Y309974D01*
X338953Y310980D01*
Y312020D01*
X338683Y313026D01*
X338163Y313927D01*
X337427Y314663D01*
X336526Y315183D01*
X335520Y315453D01*
D02*
G37*
G36*
X272020D02*
X270980D01*
X269974Y315183D01*
X269073Y314663D01*
X268337Y313927D01*
X267817Y313026D01*
X267547Y312020D01*
Y310980D01*
X267817Y309974D01*
X268337Y309073D01*
X269073Y308337D01*
X269974Y307817D01*
X270980Y307547D01*
X272020D01*
X273026Y307817D01*
X273927Y308337D01*
X274663Y309073D01*
X275183Y309974D01*
X275453Y310980D01*
Y312020D01*
X275183Y313026D01*
X274663Y313927D01*
X273927Y314663D01*
X273026Y315183D01*
X272020Y315453D01*
D02*
G37*
G36*
X209520D02*
X208480D01*
X207474Y315183D01*
X206573Y314663D01*
X205837Y313927D01*
X205317Y313026D01*
X205047Y312020D01*
Y310980D01*
X205317Y309974D01*
X205837Y309073D01*
X206573Y308337D01*
X207474Y307817D01*
X208480Y307547D01*
X209520D01*
X210526Y307817D01*
X211427Y308337D01*
X212163Y309073D01*
X212683Y309974D01*
X212953Y310980D01*
Y312020D01*
X212683Y313026D01*
X212163Y313927D01*
X211427Y314663D01*
X210526Y315183D01*
X209520Y315453D01*
D02*
G37*
G36*
X463520Y314953D02*
X462480D01*
X461474Y314683D01*
X460573Y314163D01*
X459837Y313427D01*
X459317Y312526D01*
X459047Y311520D01*
Y310480D01*
X459317Y309474D01*
X459837Y308573D01*
X460573Y307837D01*
X461474Y307317D01*
X462480Y307047D01*
X463520D01*
X464526Y307317D01*
X465427Y307837D01*
X466163Y308573D01*
X466683Y309474D01*
X466953Y310480D01*
Y311520D01*
X466683Y312526D01*
X466163Y313427D01*
X465427Y314163D01*
X464526Y314683D01*
X463520Y314953D01*
D02*
G37*
G36*
X399020D02*
X397980D01*
X396974Y314683D01*
X396073Y314163D01*
X395337Y313427D01*
X394817Y312526D01*
X394547Y311520D01*
Y310480D01*
X394817Y309474D01*
X395337Y308573D01*
X396073Y307837D01*
X396974Y307317D01*
X397980Y307047D01*
X399020D01*
X400026Y307317D01*
X400927Y307837D01*
X401663Y308573D01*
X402183Y309474D01*
X402453Y310480D01*
Y311520D01*
X402183Y312526D01*
X401663Y313427D01*
X400927Y314163D01*
X400026Y314683D01*
X399020Y314953D01*
D02*
G37*
G36*
X526020Y305453D02*
X524980D01*
X523974Y305183D01*
X523073Y304663D01*
X522337Y303927D01*
X521817Y303026D01*
X521547Y302020D01*
Y300980D01*
X521817Y299974D01*
X522337Y299073D01*
X523073Y298337D01*
X523974Y297817D01*
X524980Y297547D01*
X526020D01*
X527026Y297817D01*
X527927Y298337D01*
X528663Y299073D01*
X529183Y299974D01*
X529453Y300980D01*
Y302020D01*
X529183Y303026D01*
X528663Y303927D01*
X527927Y304663D01*
X527026Y305183D01*
X526020Y305453D01*
D02*
G37*
G36*
X335520D02*
X334480D01*
X333474Y305183D01*
X332573Y304663D01*
X331837Y303927D01*
X331317Y303026D01*
X331047Y302020D01*
Y300980D01*
X331317Y299974D01*
X331837Y299073D01*
X332573Y298337D01*
X333474Y297817D01*
X334480Y297547D01*
X335520D01*
X336526Y297817D01*
X337427Y298337D01*
X338163Y299073D01*
X338683Y299974D01*
X338953Y300980D01*
Y302020D01*
X338683Y303026D01*
X338163Y303927D01*
X337427Y304663D01*
X336526Y305183D01*
X335520Y305453D01*
D02*
G37*
G36*
X272020D02*
X270980D01*
X269974Y305183D01*
X269073Y304663D01*
X268337Y303927D01*
X267817Y303026D01*
X267547Y302020D01*
Y300980D01*
X267817Y299974D01*
X268337Y299073D01*
X269073Y298337D01*
X269974Y297817D01*
X270980Y297547D01*
X272020D01*
X273026Y297817D01*
X273927Y298337D01*
X274663Y299073D01*
X275183Y299974D01*
X275453Y300980D01*
Y302020D01*
X275183Y303026D01*
X274663Y303927D01*
X273927Y304663D01*
X273026Y305183D01*
X272020Y305453D01*
D02*
G37*
G36*
X209520D02*
X208480D01*
X207474Y305183D01*
X206573Y304663D01*
X205837Y303927D01*
X205317Y303026D01*
X205047Y302020D01*
Y300980D01*
X205317Y299974D01*
X205837Y299073D01*
X206573Y298337D01*
X207474Y297817D01*
X208480Y297547D01*
X209520D01*
X210526Y297817D01*
X211427Y298337D01*
X212163Y299073D01*
X212683Y299974D01*
X212953Y300980D01*
Y302020D01*
X212683Y303026D01*
X212163Y303927D01*
X211427Y304663D01*
X210526Y305183D01*
X209520Y305453D01*
D02*
G37*
G36*
X463520Y304953D02*
X462480D01*
X461474Y304683D01*
X460573Y304163D01*
X459837Y303427D01*
X459317Y302526D01*
X459047Y301520D01*
Y300480D01*
X459317Y299474D01*
X459837Y298573D01*
X460573Y297837D01*
X461474Y297317D01*
X462480Y297047D01*
X463520D01*
X464526Y297317D01*
X465427Y297837D01*
X466163Y298573D01*
X466683Y299474D01*
X466953Y300480D01*
Y301520D01*
X466683Y302526D01*
X466163Y303427D01*
X465427Y304163D01*
X464526Y304683D01*
X463520Y304953D01*
D02*
G37*
G36*
X399020D02*
X397980D01*
X396974Y304683D01*
X396073Y304163D01*
X395337Y303427D01*
X394817Y302526D01*
X394547Y301520D01*
Y300480D01*
X394817Y299474D01*
X395337Y298573D01*
X396073Y297837D01*
X396974Y297317D01*
X397980Y297047D01*
X399020D01*
X400026Y297317D01*
X400927Y297837D01*
X401663Y298573D01*
X402183Y299474D01*
X402453Y300480D01*
Y301520D01*
X402183Y302526D01*
X401663Y303427D01*
X400927Y304163D01*
X400026Y304683D01*
X399020Y304953D01*
D02*
G37*
G36*
X216374Y228157D02*
X209059D01*
Y220843D01*
X216374D01*
Y228157D01*
D02*
G37*
G36*
X177765D02*
X176802D01*
X175872Y227908D01*
X175038Y227427D01*
X174357Y226746D01*
X173875Y225912D01*
X173626Y224981D01*
Y224019D01*
X173875Y223088D01*
X174357Y222254D01*
X175038Y221573D01*
X175872Y221092D01*
X176802Y220843D01*
X177765D01*
X178695Y221092D01*
X179529Y221573D01*
X180210Y222254D01*
X180692Y223088D01*
X180941Y224019D01*
Y224981D01*
X180692Y225912D01*
X180210Y226746D01*
X179529Y227427D01*
X178695Y227908D01*
X177765Y228157D01*
D02*
G37*
G36*
X279874Y227658D02*
X272559D01*
Y220342D01*
X279874D01*
Y227658D01*
D02*
G37*
G36*
X241265D02*
X240302D01*
X239372Y227408D01*
X238538Y226927D01*
X237857Y226246D01*
X237375Y225412D01*
X237126Y224482D01*
Y223518D01*
X237375Y222588D01*
X237857Y221754D01*
X238538Y221073D01*
X239372Y220592D01*
X240302Y220342D01*
X241265D01*
X242195Y220592D01*
X243029Y221073D01*
X243710Y221754D01*
X244192Y222588D01*
X244441Y223518D01*
Y224482D01*
X244192Y225412D01*
X243710Y226246D01*
X243029Y226927D01*
X242195Y227408D01*
X241265Y227658D01*
D02*
G37*
G36*
X470874Y227157D02*
X463559D01*
Y219843D01*
X470874D01*
Y227157D01*
D02*
G37*
G36*
X432265D02*
X431302D01*
X430372Y226908D01*
X429538Y226427D01*
X428857Y225746D01*
X428375Y224912D01*
X428126Y223981D01*
Y223019D01*
X428375Y222088D01*
X428857Y221254D01*
X429538Y220573D01*
X430372Y220092D01*
X431302Y219843D01*
X432265D01*
X433195Y220092D01*
X434029Y220573D01*
X434710Y221254D01*
X435192Y222088D01*
X435441Y223019D01*
Y223981D01*
X435192Y224912D01*
X434710Y225746D01*
X434029Y226427D01*
X433195Y226908D01*
X432265Y227157D01*
D02*
G37*
G36*
X408374D02*
X401059D01*
Y219843D01*
X408374D01*
Y227157D01*
D02*
G37*
G36*
X369765D02*
X368802D01*
X367872Y226908D01*
X367038Y226427D01*
X366357Y225746D01*
X365875Y224912D01*
X365626Y223981D01*
Y223019D01*
X365875Y222088D01*
X366357Y221254D01*
X367038Y220573D01*
X367872Y220092D01*
X368802Y219843D01*
X369765D01*
X370695Y220092D01*
X371529Y220573D01*
X372210Y221254D01*
X372692Y222088D01*
X372941Y223019D01*
Y223981D01*
X372692Y224912D01*
X372210Y225746D01*
X371529Y226427D01*
X370695Y226908D01*
X369765Y227157D01*
D02*
G37*
G36*
X343374Y226658D02*
X336059D01*
Y219342D01*
X343374D01*
Y226658D01*
D02*
G37*
G36*
X304765D02*
X303802D01*
X302872Y226408D01*
X302038Y225927D01*
X301357Y225246D01*
X300875Y224412D01*
X300626Y223481D01*
Y222518D01*
X300875Y221588D01*
X301357Y220754D01*
X302038Y220073D01*
X302872Y219592D01*
X303802Y219342D01*
X304765D01*
X305695Y219592D01*
X306529Y220073D01*
X307210Y220754D01*
X307692Y221588D01*
X307941Y222518D01*
Y223481D01*
X307692Y224412D01*
X307210Y225246D01*
X306529Y225927D01*
X305695Y226408D01*
X304765Y226658D01*
D02*
G37*
G36*
X535874Y225658D02*
X528559D01*
Y218342D01*
X535874D01*
Y225658D01*
D02*
G37*
G36*
X497265D02*
X496302D01*
X495372Y225408D01*
X494538Y224927D01*
X493857Y224246D01*
X493375Y223412D01*
X493126Y222481D01*
Y221518D01*
X493375Y220588D01*
X493857Y219754D01*
X494538Y219073D01*
X495372Y218592D01*
X496302Y218342D01*
X497265D01*
X498195Y218592D01*
X499029Y219073D01*
X499710Y219754D01*
X500192Y220588D01*
X500441Y221518D01*
Y222481D01*
X500192Y223412D01*
X499710Y224246D01*
X499029Y224927D01*
X498195Y225408D01*
X497265Y225658D01*
D02*
G37*
G36*
X216374Y217657D02*
X209059D01*
Y210343D01*
X216374D01*
Y217657D01*
D02*
G37*
G36*
X177765D02*
X176802D01*
X175872Y217408D01*
X175038Y216927D01*
X174357Y216246D01*
X173875Y215412D01*
X173626Y214481D01*
Y213519D01*
X173875Y212588D01*
X174357Y211754D01*
X175038Y211073D01*
X175872Y210592D01*
X176802Y210343D01*
X177765D01*
X178695Y210592D01*
X179529Y211073D01*
X180210Y211754D01*
X180692Y212588D01*
X180941Y213519D01*
Y214481D01*
X180692Y215412D01*
X180210Y216246D01*
X179529Y216927D01*
X178695Y217408D01*
X177765Y217657D01*
D02*
G37*
G36*
X279874Y217158D02*
X272559D01*
Y209842D01*
X279874D01*
Y217158D01*
D02*
G37*
G36*
X241265D02*
X240302D01*
X239372Y216908D01*
X238538Y216427D01*
X237857Y215746D01*
X237375Y214912D01*
X237126Y213982D01*
Y213018D01*
X237375Y212088D01*
X237857Y211254D01*
X238538Y210573D01*
X239372Y210092D01*
X240302Y209842D01*
X241265D01*
X242195Y210092D01*
X243029Y210573D01*
X243710Y211254D01*
X244192Y212088D01*
X244441Y213018D01*
Y213982D01*
X244192Y214912D01*
X243710Y215746D01*
X243029Y216427D01*
X242195Y216908D01*
X241265Y217158D01*
D02*
G37*
G36*
X470874Y216657D02*
X463559D01*
Y209343D01*
X470874D01*
Y216657D01*
D02*
G37*
G36*
X432265D02*
X431302D01*
X430372Y216408D01*
X429538Y215927D01*
X428857Y215246D01*
X428375Y214412D01*
X428126Y213481D01*
Y212519D01*
X428375Y211588D01*
X428857Y210754D01*
X429538Y210073D01*
X430372Y209592D01*
X431302Y209343D01*
X432265D01*
X433195Y209592D01*
X434029Y210073D01*
X434710Y210754D01*
X435192Y211588D01*
X435441Y212519D01*
Y213481D01*
X435192Y214412D01*
X434710Y215246D01*
X434029Y215927D01*
X433195Y216408D01*
X432265Y216657D01*
D02*
G37*
G36*
X408374D02*
X401059D01*
Y209343D01*
X408374D01*
Y216657D01*
D02*
G37*
G36*
X369765D02*
X368802D01*
X367872Y216408D01*
X367038Y215927D01*
X366357Y215246D01*
X365875Y214412D01*
X365626Y213481D01*
Y212519D01*
X365875Y211588D01*
X366357Y210754D01*
X367038Y210073D01*
X367872Y209592D01*
X368802Y209343D01*
X369765D01*
X370695Y209592D01*
X371529Y210073D01*
X372210Y210754D01*
X372692Y211588D01*
X372941Y212519D01*
Y213481D01*
X372692Y214412D01*
X372210Y215246D01*
X371529Y215927D01*
X370695Y216408D01*
X369765Y216657D01*
D02*
G37*
G36*
X343874Y216158D02*
X336559D01*
Y208842D01*
X343874D01*
Y216158D01*
D02*
G37*
G36*
X305265D02*
X304302D01*
X303372Y215908D01*
X302538Y215427D01*
X301857Y214746D01*
X301375Y213912D01*
X301126Y212982D01*
Y212018D01*
X301375Y211088D01*
X301857Y210254D01*
X302538Y209573D01*
X303372Y209092D01*
X304302Y208842D01*
X305265D01*
X306195Y209092D01*
X307029Y209573D01*
X307710Y210254D01*
X308192Y211088D01*
X308441Y212018D01*
Y212982D01*
X308192Y213912D01*
X307710Y214746D01*
X307029Y215427D01*
X306195Y215908D01*
X305265Y216158D01*
D02*
G37*
G36*
X535874Y215158D02*
X528559D01*
Y207842D01*
X535874D01*
Y215158D01*
D02*
G37*
G36*
X497265D02*
X496302D01*
X495372Y214908D01*
X494538Y214427D01*
X493857Y213746D01*
X493375Y212912D01*
X493126Y211982D01*
Y211018D01*
X493375Y210088D01*
X493857Y209254D01*
X494538Y208573D01*
X495372Y208092D01*
X496302Y207842D01*
X497265D01*
X498195Y208092D01*
X499029Y208573D01*
X499710Y209254D01*
X500192Y210088D01*
X500441Y211018D01*
Y211982D01*
X500192Y212912D01*
X499710Y213746D01*
X499029Y214427D01*
X498195Y214908D01*
X497265Y215158D01*
D02*
G37*
G36*
X216374Y207157D02*
X209059D01*
Y199843D01*
X216374D01*
Y207157D01*
D02*
G37*
G36*
X177765D02*
X176802D01*
X175872Y206908D01*
X175038Y206427D01*
X174357Y205746D01*
X173875Y204912D01*
X173626Y203981D01*
Y203018D01*
X173875Y202088D01*
X174357Y201254D01*
X175038Y200573D01*
X175872Y200092D01*
X176802Y199843D01*
X177765D01*
X178695Y200092D01*
X179529Y200573D01*
X180210Y201254D01*
X180692Y202088D01*
X180941Y203018D01*
Y203981D01*
X180692Y204912D01*
X180210Y205746D01*
X179529Y206427D01*
X178695Y206908D01*
X177765Y207157D01*
D02*
G37*
G36*
X279874Y206658D02*
X272559D01*
Y199343D01*
X279874D01*
Y206658D01*
D02*
G37*
G36*
X241265D02*
X240302D01*
X239372Y206408D01*
X238538Y205927D01*
X237857Y205246D01*
X237375Y204412D01*
X237126Y203482D01*
Y202519D01*
X237375Y201588D01*
X237857Y200754D01*
X238538Y200073D01*
X239372Y199592D01*
X240302Y199343D01*
X241265D01*
X242195Y199592D01*
X243029Y200073D01*
X243710Y200754D01*
X244192Y201588D01*
X244441Y202519D01*
Y203482D01*
X244192Y204412D01*
X243710Y205246D01*
X243029Y205927D01*
X242195Y206408D01*
X241265Y206658D01*
D02*
G37*
G36*
X470874Y206157D02*
X463559D01*
Y198843D01*
X470874D01*
Y206157D01*
D02*
G37*
G36*
X432265D02*
X431302D01*
X430372Y205908D01*
X429538Y205427D01*
X428857Y204746D01*
X428375Y203912D01*
X428126Y202981D01*
Y202018D01*
X428375Y201088D01*
X428857Y200254D01*
X429538Y199573D01*
X430372Y199092D01*
X431302Y198843D01*
X432265D01*
X433195Y199092D01*
X434029Y199573D01*
X434710Y200254D01*
X435192Y201088D01*
X435441Y202018D01*
Y202981D01*
X435192Y203912D01*
X434710Y204746D01*
X434029Y205427D01*
X433195Y205908D01*
X432265Y206157D01*
D02*
G37*
G36*
X408374D02*
X401059D01*
Y198843D01*
X408374D01*
Y206157D01*
D02*
G37*
G36*
X369765D02*
X368802D01*
X367872Y205908D01*
X367038Y205427D01*
X366357Y204746D01*
X365875Y203912D01*
X365626Y202981D01*
Y202018D01*
X365875Y201088D01*
X366357Y200254D01*
X367038Y199573D01*
X367872Y199092D01*
X368802Y198843D01*
X369765D01*
X370695Y199092D01*
X371529Y199573D01*
X372210Y200254D01*
X372692Y201088D01*
X372941Y202018D01*
Y202981D01*
X372692Y203912D01*
X372210Y204746D01*
X371529Y205427D01*
X370695Y205908D01*
X369765Y206157D01*
D02*
G37*
G36*
X343374Y205658D02*
X336059D01*
Y198343D01*
X343374D01*
Y205658D01*
D02*
G37*
G36*
X304765D02*
X303802D01*
X302872Y205408D01*
X302038Y204927D01*
X301357Y204246D01*
X300875Y203412D01*
X300626Y202482D01*
Y201519D01*
X300875Y200588D01*
X301357Y199754D01*
X302038Y199073D01*
X302872Y198592D01*
X303802Y198343D01*
X304765D01*
X305695Y198592D01*
X306529Y199073D01*
X307210Y199754D01*
X307692Y200588D01*
X307941Y201519D01*
Y202482D01*
X307692Y203412D01*
X307210Y204246D01*
X306529Y204927D01*
X305695Y205408D01*
X304765Y205658D01*
D02*
G37*
G36*
X535874Y204658D02*
X528559D01*
Y197343D01*
X535874D01*
Y204658D01*
D02*
G37*
G36*
X497265D02*
X496302D01*
X495372Y204408D01*
X494538Y203927D01*
X493857Y203246D01*
X493375Y202412D01*
X493126Y201482D01*
Y200518D01*
X493375Y199588D01*
X493857Y198754D01*
X494538Y198073D01*
X495372Y197592D01*
X496302Y197343D01*
X497265D01*
X498195Y197592D01*
X499029Y198073D01*
X499710Y198754D01*
X500192Y199588D01*
X500441Y200518D01*
Y201482D01*
X500192Y202412D01*
X499710Y203246D01*
X499029Y203927D01*
X498195Y204408D01*
X497265Y204658D01*
D02*
G37*
G36*
X213198Y196658D02*
X212235D01*
X211305Y196408D01*
X210471Y195927D01*
X209790Y195246D01*
X209308Y194412D01*
X209059Y193482D01*
Y192518D01*
X209308Y191588D01*
X209790Y190754D01*
X210471Y190073D01*
X211305Y189592D01*
X212235Y189342D01*
X213198D01*
X214128Y189592D01*
X214962Y190073D01*
X215643Y190754D01*
X216125Y191588D01*
X216374Y192518D01*
Y193482D01*
X216125Y194412D01*
X215643Y195246D01*
X214962Y195927D01*
X214128Y196408D01*
X213198Y196658D01*
D02*
G37*
G36*
X532698Y194158D02*
X531735D01*
X530805Y193908D01*
X529971Y193427D01*
X529290Y192746D01*
X528808Y191912D01*
X528559Y190981D01*
Y190018D01*
X528808Y189088D01*
X529290Y188254D01*
X529971Y187573D01*
X530805Y187092D01*
X531735Y186843D01*
X532698D01*
X533628Y187092D01*
X534462Y187573D01*
X535143Y188254D01*
X535625Y189088D01*
X535874Y190018D01*
Y190981D01*
X535625Y191912D01*
X535143Y192746D01*
X534462Y193427D01*
X533628Y193908D01*
X532698Y194158D01*
D02*
G37*
G36*
X180941Y196658D02*
X173626D01*
Y189342D01*
X178778D01*
X181919Y186202D01*
X182415Y185871D01*
X183000Y185754D01*
X210091D01*
X210298Y185254D01*
X209790Y184746D01*
X209308Y183912D01*
X209059Y182982D01*
Y182018D01*
X209308Y181088D01*
X209790Y180254D01*
X210471Y179573D01*
X211187Y179160D01*
Y178284D01*
X211304Y177698D01*
X211635Y177202D01*
X214114Y174723D01*
X214611Y174391D01*
X215196Y174275D01*
X294734D01*
X302703Y166306D01*
X303199Y165974D01*
X303784Y165858D01*
X472666D01*
X472971Y165553D01*
Y152134D01*
X454366Y133529D01*
X437500D01*
X436915Y133413D01*
X436419Y133081D01*
X430429Y127092D01*
X430429Y127092D01*
X425231Y121894D01*
X425136Y121877D01*
X424663Y121931D01*
X424099Y122775D01*
X423275Y123599D01*
X422305Y124247D01*
X421227Y124694D01*
X420083Y124921D01*
X418917D01*
X417773Y124694D01*
X416695Y124247D01*
X415725Y123599D01*
X414901Y122775D01*
X414253Y121805D01*
X413806Y120727D01*
X413579Y119583D01*
Y118417D01*
X413806Y117273D01*
X414253Y116195D01*
X414901Y115225D01*
X415725Y114401D01*
X416695Y113753D01*
X417773Y113306D01*
X418917Y113079D01*
X420083D01*
X421227Y113306D01*
X422305Y113753D01*
X423275Y114401D01*
X424099Y115225D01*
X424747Y116195D01*
X425194Y117273D01*
X425421Y118417D01*
Y118693D01*
X425723D01*
X426308Y118810D01*
X426804Y119141D01*
X429185Y121522D01*
X429609Y121239D01*
X429397Y120727D01*
X429169Y119583D01*
Y118417D01*
X429397Y117273D01*
X429843Y116195D01*
X430491Y115225D01*
X431316Y114401D01*
X432286Y113753D01*
X433363Y113306D01*
X434507Y113079D01*
X435674D01*
X436818Y113306D01*
X437895Y113753D01*
X438865Y114401D01*
X439690Y115225D01*
X440338Y116195D01*
X440784Y117273D01*
X441012Y118417D01*
Y119583D01*
X440784Y120727D01*
X440338Y121805D01*
X440026Y122272D01*
X445724Y127971D01*
X454177D01*
X454369Y127509D01*
X451811Y124951D01*
X451729Y124829D01*
X451264Y124921D01*
X450098D01*
X448954Y124694D01*
X447876Y124247D01*
X446907Y123599D01*
X446082Y122775D01*
X445434Y121805D01*
X444987Y120727D01*
X444760Y119583D01*
Y118417D01*
X444987Y117273D01*
X445434Y116195D01*
X446082Y115225D01*
X446907Y114401D01*
X447876Y113753D01*
X448954Y113306D01*
X450098Y113079D01*
X451264D01*
X452408Y113306D01*
X453486Y113753D01*
X454456Y114401D01*
X455280Y115225D01*
X455928Y116195D01*
X456375Y117273D01*
X456602Y118417D01*
Y119583D01*
X456375Y120727D01*
X455928Y121805D01*
X455280Y122775D01*
X454620Y123435D01*
X463509Y132323D01*
X463971Y132132D01*
Y124456D01*
X463467Y124247D01*
X462497Y123599D01*
X461672Y122775D01*
X461024Y121805D01*
X460578Y120727D01*
X460350Y119583D01*
Y118417D01*
X460578Y117273D01*
X461024Y116195D01*
X461672Y115225D01*
X462497Y114401D01*
X463467Y113753D01*
X464544Y113306D01*
X465689Y113079D01*
X466855D01*
X467999Y113306D01*
X469076Y113753D01*
X470046Y114401D01*
X470871Y115225D01*
X471519Y116195D01*
X471965Y117273D01*
X472193Y118417D01*
Y119583D01*
X471965Y120727D01*
X471519Y121805D01*
X470871Y122775D01*
X470046Y123599D01*
X469076Y124247D01*
X467999Y124694D01*
X467029Y124887D01*
Y132367D01*
X469009Y134346D01*
X469471Y134154D01*
Y131181D01*
X469587Y130596D01*
X469919Y130100D01*
X477255Y122763D01*
X476615Y121805D01*
X476168Y120727D01*
X475941Y119583D01*
Y118417D01*
X476168Y117273D01*
X476615Y116195D01*
X477263Y115225D01*
X478088Y114401D01*
X479057Y113753D01*
X480135Y113306D01*
X481279Y113079D01*
X482445D01*
X483589Y113306D01*
X484667Y113753D01*
X485637Y114401D01*
X486461Y115225D01*
X487110Y116195D01*
X487556Y117273D01*
X487783Y118417D01*
Y119583D01*
X487556Y120727D01*
X487110Y121805D01*
X486461Y122775D01*
X485637Y123599D01*
X484667Y124247D01*
X483589Y124694D01*
X482445Y124921D01*
X481279D01*
X480135Y124694D01*
X479792Y124552D01*
X472705Y131639D01*
X472741Y131889D01*
X473272Y132065D01*
X477165Y128172D01*
X477661Y127841D01*
X478246Y127724D01*
X486566D01*
X491532Y122758D01*
Y113079D01*
X503374D01*
Y124921D01*
X493694D01*
X488281Y130335D01*
X487784Y130666D01*
X487199Y130783D01*
X478880D01*
X475663Y134000D01*
X486508Y144845D01*
X486840Y145342D01*
X486956Y145927D01*
Y162172D01*
X487023Y162239D01*
X487129Y162310D01*
X487738Y162918D01*
X487738Y162919D01*
X494081Y169262D01*
X494413Y169758D01*
X494529Y170343D01*
Y171971D01*
X526717D01*
X527302Y172087D01*
X527798Y172419D01*
X531436Y176057D01*
X532235Y175842D01*
X533198D01*
X534128Y176092D01*
X534962Y176573D01*
X535643Y177254D01*
X536125Y178088D01*
X536374Y179018D01*
Y179982D01*
X536125Y180912D01*
X535643Y181746D01*
X534962Y182427D01*
X534128Y182908D01*
X533198Y183158D01*
X532235D01*
X531305Y182908D01*
X530471Y182427D01*
X529790Y181746D01*
X529308Y180912D01*
X529059Y179982D01*
Y179018D01*
X529273Y178219D01*
X526083Y175029D01*
X493500D01*
X492915Y174913D01*
X492418Y174581D01*
X491833Y173996D01*
X491501Y173500D01*
X491385Y172914D01*
Y172086D01*
X491471Y171654D01*
Y170977D01*
X490500Y170006D01*
X490000Y170213D01*
Y170461D01*
X489761Y171351D01*
X489301Y172149D01*
X488649Y172801D01*
X488029Y173159D01*
Y185709D01*
X488450Y186058D01*
X488961Y185922D01*
X489882D01*
X490772Y186160D01*
X491571Y186621D01*
X492222Y187273D01*
X492626Y187972D01*
X493099Y187900D01*
X493126Y187889D01*
Y186843D01*
X500441D01*
Y194158D01*
X495289D01*
X493865Y195581D01*
X493369Y195913D01*
X492783Y196029D01*
X484000D01*
X483415Y195913D01*
X482919Y195581D01*
X476150Y188813D01*
X469909D01*
X469702Y189313D01*
X470143Y189754D01*
X470625Y190588D01*
X470874Y191518D01*
Y192482D01*
X470625Y193412D01*
X470143Y194246D01*
X469462Y194927D01*
X468628Y195408D01*
X467698Y195658D01*
X466735D01*
X465805Y195408D01*
X464971Y194927D01*
X464290Y194246D01*
X463808Y193412D01*
X463559Y192482D01*
Y191518D01*
X463808Y190588D01*
X464290Y189754D01*
X464731Y189313D01*
X464524Y188813D01*
X435441D01*
Y195658D01*
X428126D01*
Y190505D01*
X426433Y188813D01*
X407409D01*
X407202Y189313D01*
X407643Y189754D01*
X408125Y190588D01*
X408374Y191518D01*
Y192482D01*
X408125Y193412D01*
X407643Y194246D01*
X406962Y194927D01*
X406128Y195408D01*
X405198Y195658D01*
X404235D01*
X403305Y195408D01*
X402471Y194927D01*
X401790Y194246D01*
X401308Y193412D01*
X401059Y192482D01*
Y191518D01*
X401308Y190588D01*
X401790Y189754D01*
X402231Y189313D01*
X402024Y188813D01*
X372941D01*
Y195658D01*
X365626D01*
Y190505D01*
X363933Y188813D01*
X342827D01*
X342677Y189313D01*
X343125Y190088D01*
X343374Y191018D01*
Y191981D01*
X343125Y192912D01*
X342643Y193746D01*
X341962Y194427D01*
X341128Y194908D01*
X340198Y195158D01*
X339235D01*
X338305Y194908D01*
X337471Y194427D01*
X336790Y193746D01*
X336308Y192912D01*
X336059Y191981D01*
Y191018D01*
X336308Y190088D01*
X336756Y189313D01*
X336606Y188813D01*
X307941D01*
Y195158D01*
X300626D01*
Y190005D01*
X299433Y188813D01*
X278145D01*
X278011Y189313D01*
X278462Y189573D01*
X279143Y190254D01*
X279625Y191088D01*
X279874Y192018D01*
Y192982D01*
X279625Y193912D01*
X279143Y194746D01*
X278462Y195427D01*
X277628Y195908D01*
X276698Y196158D01*
X275735D01*
X274805Y195908D01*
X273971Y195427D01*
X273290Y194746D01*
X272808Y193912D01*
X272559Y192982D01*
Y192018D01*
X272808Y191088D01*
X273290Y190254D01*
X273971Y189573D01*
X274422Y189313D01*
X274288Y188813D01*
X244929D01*
X244441Y188842D01*
Y196158D01*
X237126D01*
Y188842D01*
X236638Y188813D01*
X183633D01*
X180941Y191505D01*
Y196658D01*
D02*
G37*
G36*
X500941Y183158D02*
X493626D01*
Y175842D01*
X500941D01*
Y183158D01*
D02*
G37*
G36*
X541404Y152567D02*
X540596D01*
X539816Y152358D01*
X539117Y151954D01*
X538546Y151383D01*
X538142Y150684D01*
X537933Y149904D01*
Y149096D01*
X538142Y148316D01*
X538546Y147617D01*
X538827Y147336D01*
X539082Y147000D01*
X538827Y146665D01*
X538546Y146383D01*
X538142Y145684D01*
X537933Y144904D01*
Y144096D01*
X538142Y143316D01*
X538286Y143067D01*
X537997Y142567D01*
X537933D01*
Y136433D01*
X544067D01*
Y142567D01*
X544003D01*
X543714Y143067D01*
X543858Y143316D01*
X544067Y144096D01*
Y144904D01*
X543858Y145684D01*
X543454Y146383D01*
X543173Y146665D01*
X542918Y147000D01*
X543173Y147336D01*
X543454Y147617D01*
X543858Y148316D01*
X544067Y149096D01*
Y149904D01*
X543858Y150684D01*
X543454Y151383D01*
X542883Y151954D01*
X542184Y152358D01*
X541404Y152567D01*
D02*
G37*
G36*
X219198Y136658D02*
X218235D01*
X217305Y136408D01*
X216471Y135927D01*
X215790Y135246D01*
X215308Y134412D01*
X215059Y133482D01*
Y132518D01*
X215308Y131588D01*
X215790Y130754D01*
X216471Y130073D01*
X217305Y129592D01*
X218235Y129342D01*
X219198D01*
X220128Y129592D01*
X220962Y130073D01*
X221643Y130754D01*
X222125Y131588D01*
X222374Y132518D01*
Y133482D01*
X222125Y134412D01*
X221643Y135246D01*
X220962Y135927D01*
X220128Y136408D01*
X219198Y136658D01*
D02*
G37*
G36*
X186941D02*
X179626D01*
Y129342D01*
X186941D01*
Y136658D01*
D02*
G37*
G36*
X519956Y133098D02*
X519044D01*
X518164Y132863D01*
X517375Y132407D01*
X516731Y131763D01*
X516275Y130974D01*
X516039Y130093D01*
Y129182D01*
X516275Y128302D01*
X516731Y127513D01*
X517375Y126869D01*
X518164Y126413D01*
X519044Y126177D01*
X519956D01*
X520836Y126413D01*
X521625Y126869D01*
X522269Y127513D01*
X522725Y128302D01*
X522961Y129182D01*
Y130093D01*
X522725Y130974D01*
X522269Y131763D01*
X521625Y132407D01*
X520836Y132863D01*
X519956Y133098D01*
D02*
G37*
G36*
X407874Y124921D02*
X396031D01*
Y115242D01*
X394197Y113407D01*
X389550D01*
X389399Y113907D01*
X390137Y114401D01*
X390962Y115225D01*
X391610Y116195D01*
X392056Y117273D01*
X392284Y118417D01*
Y119583D01*
X392056Y120727D01*
X391610Y121805D01*
X390962Y122775D01*
X390137Y123599D01*
X389167Y124247D01*
X388089Y124694D01*
X386945Y124921D01*
X385779D01*
X384635Y124694D01*
X383557Y124247D01*
X382588Y123599D01*
X381763Y122775D01*
X381115Y121805D01*
X380668Y120727D01*
X380441Y119583D01*
Y118417D01*
X380668Y117273D01*
X381115Y116195D01*
X381763Y115225D01*
X382588Y114401D01*
X383326Y113907D01*
X383174Y113407D01*
X373960D01*
X373808Y113907D01*
X374546Y114401D01*
X375371Y115225D01*
X376019Y116195D01*
X376465Y117273D01*
X376693Y118417D01*
Y119583D01*
X376465Y120727D01*
X376019Y121805D01*
X375371Y122775D01*
X374546Y123599D01*
X373576Y124247D01*
X372499Y124694D01*
X371355Y124921D01*
X370188D01*
X369044Y124694D01*
X367967Y124247D01*
X366997Y123599D01*
X366172Y122775D01*
X365524Y121805D01*
X365078Y120727D01*
X364850Y119583D01*
Y118417D01*
X365078Y117273D01*
X365524Y116195D01*
X366172Y115225D01*
X366997Y114401D01*
X367735Y113907D01*
X367584Y113407D01*
X358369D01*
X358217Y113907D01*
X358956Y114401D01*
X359780Y115225D01*
X360429Y116195D01*
X360875Y117273D01*
X361102Y118417D01*
Y119583D01*
X360875Y120727D01*
X360429Y121805D01*
X359780Y122775D01*
X358956Y123599D01*
X357986Y124247D01*
X356908Y124694D01*
X355764Y124921D01*
X354598D01*
X353454Y124694D01*
X352376Y124247D01*
X351407Y123599D01*
X350582Y122775D01*
X349934Y121805D01*
X349487Y120727D01*
X349260Y119583D01*
Y118417D01*
X349487Y117273D01*
X349934Y116195D01*
X350582Y115225D01*
X351407Y114401D01*
X352145Y113907D01*
X351993Y113407D01*
X342778D01*
X342627Y113907D01*
X343365Y114401D01*
X344190Y115225D01*
X344838Y116195D01*
X345284Y117273D01*
X345512Y118417D01*
Y119583D01*
X345284Y120727D01*
X344838Y121805D01*
X344190Y122775D01*
X343365Y123599D01*
X342395Y124247D01*
X341318Y124694D01*
X340174Y124921D01*
X339007D01*
X337863Y124694D01*
X336786Y124247D01*
X335816Y123599D01*
X334991Y122775D01*
X334343Y121805D01*
X333897Y120727D01*
X333669Y119583D01*
Y118417D01*
X333897Y117273D01*
X334343Y116195D01*
X334991Y115225D01*
X335816Y114401D01*
X336554Y113907D01*
X336403Y113407D01*
X327188D01*
X327036Y113907D01*
X327775Y114401D01*
X328599Y115225D01*
X329247Y116195D01*
X329694Y117273D01*
X329921Y118417D01*
Y119583D01*
X329694Y120727D01*
X329247Y121805D01*
X328599Y122775D01*
X327775Y123599D01*
X326805Y124247D01*
X325727Y124694D01*
X324583Y124921D01*
X323417D01*
X322273Y124694D01*
X321195Y124247D01*
X320225Y123599D01*
X319401Y122775D01*
X318753Y121805D01*
X318306Y120727D01*
X318079Y119583D01*
Y118417D01*
X318306Y117273D01*
X318753Y116195D01*
X319401Y115225D01*
X320225Y114401D01*
X320964Y113907D01*
X320812Y113407D01*
X314122D01*
Y121622D01*
X304878D01*
Y113407D01*
X303097D01*
X302906Y113869D01*
X303199Y114162D01*
X303807Y115216D01*
X304122Y116392D01*
Y117608D01*
X303807Y118784D01*
X303199Y119838D01*
X302338Y120699D01*
X301284Y121307D01*
X300109Y121622D01*
X298891D01*
X297716Y121307D01*
X296662Y120699D01*
X295801Y119838D01*
X295193Y118784D01*
X294878Y117608D01*
Y116392D01*
X295193Y115216D01*
X295801Y114162D01*
X296094Y113869D01*
X295903Y113407D01*
X293097D01*
X292906Y113869D01*
X293198Y114162D01*
X293807Y115216D01*
X294122Y116392D01*
Y117608D01*
X293807Y118784D01*
X293198Y119838D01*
X292338Y120699D01*
X291284Y121307D01*
X290108Y121622D01*
X288892D01*
X287716Y121307D01*
X286662Y120699D01*
X285802Y119838D01*
X285193Y118784D01*
X284878Y117608D01*
Y116392D01*
X285193Y115216D01*
X285802Y114162D01*
X286094Y113869D01*
X285903Y113407D01*
X283097D01*
X282906Y113869D01*
X283198Y114162D01*
X283807Y115216D01*
X284122Y116392D01*
Y117608D01*
X283807Y118784D01*
X283198Y119838D01*
X282338Y120699D01*
X281284Y121307D01*
X280108Y121622D01*
X278891D01*
X277716Y121307D01*
X276662Y120699D01*
X275801Y119838D01*
X275193Y118784D01*
X274878Y117608D01*
Y116392D01*
X275193Y115216D01*
X275801Y114162D01*
X276094Y113869D01*
X275903Y113407D01*
X273097D01*
X272906Y113869D01*
X273199Y114162D01*
X273807Y115216D01*
X274122Y116392D01*
Y117608D01*
X273807Y118784D01*
X273199Y119838D01*
X272338Y120699D01*
X271284Y121307D01*
X270109Y121622D01*
X268892D01*
X267716Y121307D01*
X266662Y120699D01*
X265802Y119838D01*
X265193Y118784D01*
X264878Y117608D01*
Y116392D01*
X265193Y115216D01*
X265802Y114162D01*
X266094Y113869D01*
X265903Y113407D01*
X263097D01*
X262906Y113869D01*
X263198Y114162D01*
X263807Y115216D01*
X264122Y116392D01*
Y117608D01*
X263807Y118784D01*
X263198Y119838D01*
X262338Y120699D01*
X261284Y121307D01*
X260108Y121622D01*
X258892D01*
X257716Y121307D01*
X256662Y120699D01*
X255802Y119838D01*
X255193Y118784D01*
X254878Y117608D01*
Y116392D01*
X255193Y115216D01*
X255802Y114162D01*
X256094Y113869D01*
X255903Y113407D01*
X255256D01*
X253675Y114988D01*
X253807Y115216D01*
X254122Y116392D01*
Y117608D01*
X253807Y118784D01*
X253199Y119838D01*
X252338Y120699D01*
X251284Y121307D01*
X250109Y121622D01*
X248891D01*
X247716Y121307D01*
X246662Y120699D01*
X245801Y119838D01*
X245193Y118784D01*
X244878Y117608D01*
Y116392D01*
X245193Y115216D01*
X245801Y114162D01*
X246662Y113301D01*
X247716Y112693D01*
X248891Y112378D01*
X250109D01*
X251284Y112693D01*
X251512Y112825D01*
X253541Y110796D01*
X254037Y110465D01*
X254622Y110349D01*
X394831D01*
X395416Y110465D01*
X395912Y110796D01*
X398194Y113079D01*
X407874D01*
Y124921D01*
D02*
G37*
G36*
X180941Y186158D02*
X173626D01*
Y178842D01*
X178778D01*
X187702Y169919D01*
X188198Y169587D01*
X188784Y169471D01*
X220866D01*
X231971Y158367D01*
Y123000D01*
X232087Y122415D01*
X232419Y121919D01*
X235325Y119012D01*
X235193Y118784D01*
X234878Y117608D01*
Y116392D01*
X235193Y115216D01*
X235802Y114162D01*
X236662Y113301D01*
X237716Y112693D01*
X238892Y112378D01*
X240108D01*
X241284Y112693D01*
X242338Y113301D01*
X243198Y114162D01*
X243807Y115216D01*
X244122Y116392D01*
Y117608D01*
X243807Y118784D01*
X243198Y119838D01*
X242338Y120699D01*
X241284Y121307D01*
X240108Y121622D01*
X238892D01*
X237716Y121307D01*
X237488Y121175D01*
X235029Y123634D01*
Y159000D01*
X234913Y159585D01*
X234581Y160081D01*
X222581Y172081D01*
X222085Y172413D01*
X221500Y172529D01*
X189417D01*
X180941Y181005D01*
Y186158D01*
D02*
G37*
G36*
X230108Y121622D02*
X228891D01*
X227716Y121307D01*
X226662Y120699D01*
X225801Y119838D01*
X225193Y118784D01*
X224878Y117608D01*
Y116392D01*
X225193Y115216D01*
X225801Y114162D01*
X226662Y113301D01*
X227716Y112693D01*
X228891Y112378D01*
X230108D01*
X231284Y112693D01*
X232338Y113301D01*
X233198Y114162D01*
X233807Y115216D01*
X234122Y116392D01*
Y117608D01*
X233807Y118784D01*
X233198Y119838D01*
X232338Y120699D01*
X231284Y121307D01*
X230108Y121622D01*
D02*
G37*
G36*
X220109D02*
X218892D01*
X217716Y121307D01*
X216662Y120699D01*
X215802Y119838D01*
X215193Y118784D01*
X214878Y117608D01*
Y116392D01*
X215193Y115216D01*
X215802Y114162D01*
X216662Y113301D01*
X217716Y112693D01*
X218892Y112378D01*
X220109D01*
X221284Y112693D01*
X222338Y113301D01*
X223199Y114162D01*
X223807Y115216D01*
X224122Y116392D01*
Y117608D01*
X223807Y118784D01*
X223199Y119838D01*
X222338Y120699D01*
X221284Y121307D01*
X220109Y121622D01*
D02*
G37*
G36*
X206846Y119846D02*
X198153D01*
Y111153D01*
X206846D01*
Y119846D01*
D02*
G37*
G36*
X193072D02*
X191928D01*
X190822Y119550D01*
X189831Y118978D01*
X189022Y118169D01*
X188450Y117178D01*
X188154Y116072D01*
Y114928D01*
X188450Y113822D01*
X189022Y112831D01*
X189831Y112022D01*
X190822Y111450D01*
X191928Y111153D01*
X193072D01*
X194178Y111450D01*
X195169Y112022D01*
X195978Y112831D01*
X196550Y113822D01*
X196846Y114928D01*
Y116072D01*
X196550Y117178D01*
X195978Y118169D01*
X195169Y118978D01*
X194178Y119550D01*
X193072Y119846D01*
D02*
G37*
G36*
X183072D02*
X181928D01*
X180822Y119550D01*
X179831Y118978D01*
X179022Y118169D01*
X178450Y117178D01*
X178154Y116072D01*
Y114928D01*
X178450Y113822D01*
X179022Y112831D01*
X179831Y112022D01*
X180822Y111450D01*
X181928Y111153D01*
X183072D01*
X184178Y111450D01*
X185169Y112022D01*
X185978Y112831D01*
X186550Y113822D01*
X186846Y114928D01*
Y116072D01*
X186550Y117178D01*
X185978Y118169D01*
X185169Y118978D01*
X184178Y119550D01*
X183072Y119846D01*
D02*
G37*
%LPD*%
G36*
X188971Y465625D02*
Y460792D01*
X188729Y460655D01*
X188471Y460609D01*
X181004Y468075D01*
X181044Y468583D01*
X181306Y468735D01*
X182006Y469434D01*
X182500Y470290D01*
X182732Y471157D01*
X183202Y471394D01*
X188971Y465625D01*
D02*
G37*
G36*
X521547Y293290D02*
Y287671D01*
X497774D01*
X497640Y288171D01*
X497927Y288337D01*
X498663Y289073D01*
X499183Y289974D01*
X499453Y290980D01*
Y292020D01*
X499185Y293022D01*
X507081Y300919D01*
X507413Y301415D01*
X507529Y302000D01*
Y306654D01*
X507991Y306846D01*
X521547Y293290D01*
D02*
G37*
G36*
X452419Y289919D02*
X452915Y289587D01*
X453500Y289471D01*
X459047D01*
Y287115D01*
X435177D01*
X435043Y287615D01*
X435427Y287837D01*
X436163Y288573D01*
X436683Y289474D01*
X436953Y290480D01*
Y291520D01*
X436685Y292522D01*
X442534Y298371D01*
X442824Y298806D01*
X443265Y298989D01*
X443329Y299008D01*
X452419Y289919D01*
D02*
G37*
G36*
X379419Y299419D02*
X388919Y289919D01*
X389415Y289587D01*
X390000Y289471D01*
X394547D01*
Y287115D01*
X370677D01*
X370543Y287615D01*
X370927Y287837D01*
X371663Y288573D01*
X372183Y289474D01*
X372453Y290480D01*
Y291520D01*
X372184Y292522D01*
X378337Y298675D01*
X378669Y299171D01*
X378741Y299533D01*
X379272Y299638D01*
X379419Y299419D01*
D02*
G37*
G36*
X317343Y301031D02*
X317419Y300919D01*
X327919Y290419D01*
X328415Y290087D01*
X329000Y289971D01*
X331047D01*
Y287615D01*
X331047Y287547D01*
X330883Y287115D01*
X305840D01*
X305774Y287615D01*
X306526Y287817D01*
X307427Y288337D01*
X308163Y289073D01*
X308683Y289974D01*
X308953Y290980D01*
Y292020D01*
X308684Y293022D01*
X316723Y301060D01*
X317159Y301084D01*
X317343Y301031D01*
D02*
G37*
G36*
X303294Y283556D02*
X302851Y283301D01*
X302199Y282649D01*
X301841Y282029D01*
X246159D01*
X245801Y282649D01*
X245479Y282971D01*
X245686Y283471D01*
X283914D01*
X284500Y283587D01*
X284996Y283919D01*
X285134Y284056D01*
X303160D01*
X303294Y283556D01*
D02*
G37*
G36*
X221342Y287626D02*
X226495D01*
X230202Y283919D01*
X230698Y283587D01*
X231283Y283471D01*
X240314D01*
X240521Y282971D01*
X240199Y282649D01*
X239842Y282029D01*
X213000D01*
X212415Y281913D01*
X212018Y281648D01*
X211699Y282036D01*
X219417Y289754D01*
X221342D01*
Y287626D01*
D02*
G37*
G36*
X168352Y237982D02*
X168087Y237585D01*
X167971Y237000D01*
Y167140D01*
X167471Y166904D01*
X167029Y167158D01*
Y237367D01*
X167964Y238301D01*
X168352Y237982D01*
D02*
G37*
G36*
X487703Y192471D02*
X487273Y192222D01*
X486621Y191571D01*
X486160Y190772D01*
X485922Y189882D01*
Y188961D01*
X486107Y188270D01*
X485419Y187581D01*
X485087Y187085D01*
X484971Y186500D01*
Y173159D01*
X484351Y172801D01*
X483699Y172149D01*
X483341Y171529D01*
X482777Y171386D01*
X476581Y177581D01*
X476085Y177913D01*
X475500Y178029D01*
X472850D01*
X470660Y180219D01*
X470874Y181018D01*
Y181982D01*
X470625Y182912D01*
X470143Y183746D01*
X469462Y184427D01*
X468628Y184908D01*
X467698Y185158D01*
X466735D01*
X465805Y184908D01*
X464971Y184427D01*
X464290Y183746D01*
X463808Y182912D01*
X463559Y181982D01*
Y181018D01*
X463808Y180088D01*
X464290Y179254D01*
X464971Y178573D01*
X465805Y178092D01*
X466735Y177842D01*
X467698D01*
X468497Y178057D01*
X471024Y175529D01*
X470887Y175092D01*
X470840Y175029D01*
X413350D01*
X408160Y180219D01*
X408374Y181018D01*
Y181982D01*
X408125Y182912D01*
X407643Y183746D01*
X406962Y184427D01*
X406128Y184908D01*
X405198Y185158D01*
X404235D01*
X403305Y184908D01*
X402471Y184427D01*
X401790Y183746D01*
X401308Y182912D01*
X401059Y181982D01*
Y181018D01*
X401308Y180088D01*
X401790Y179254D01*
X402471Y178573D01*
X403305Y178092D01*
X404235Y177842D01*
X405198D01*
X405997Y178057D01*
X410562Y173491D01*
X410371Y173029D01*
X349850D01*
X343160Y179719D01*
X343374Y180518D01*
Y181482D01*
X343125Y182412D01*
X342643Y183246D01*
X341962Y183927D01*
X341128Y184408D01*
X340198Y184658D01*
X339235D01*
X338305Y184408D01*
X337471Y183927D01*
X336790Y183246D01*
X336308Y182412D01*
X336059Y181482D01*
Y180518D01*
X336308Y179588D01*
X336790Y178754D01*
X337471Y178073D01*
X338305Y177592D01*
X339235Y177342D01*
X340198D01*
X340997Y177557D01*
X347062Y171491D01*
X346871Y171029D01*
X305134D01*
X293581Y182581D01*
X293085Y182913D01*
X292500Y183029D01*
X279557D01*
X279143Y183746D01*
X278462Y184427D01*
X277628Y184908D01*
X276698Y185158D01*
X275735D01*
X274805Y184908D01*
X273971Y184427D01*
X273290Y183746D01*
X272808Y182912D01*
X272559Y181982D01*
Y181018D01*
X272808Y180088D01*
X273290Y179254D01*
X273971Y178573D01*
X274805Y178092D01*
X275735Y177842D01*
X276698D01*
X277628Y178092D01*
X278462Y178573D01*
X279143Y179254D01*
X279557Y179971D01*
X291866D01*
X294042Y177795D01*
X293850Y177333D01*
X215829D01*
X214443Y178720D01*
X214505Y179309D01*
X214962Y179573D01*
X215643Y180254D01*
X216125Y181088D01*
X216374Y182018D01*
Y182982D01*
X216125Y183912D01*
X215643Y184746D01*
X215135Y185254D01*
X215342Y185754D01*
X476784D01*
X477369Y185871D01*
X477865Y186202D01*
X484633Y192971D01*
X487569D01*
X487703Y192471D01*
D02*
G37*
G36*
X443436Y130009D02*
X437740Y124312D01*
X436818Y124694D01*
X435674Y124921D01*
X434507D01*
X433363Y124694D01*
X432852Y124482D01*
X432835Y124506D01*
X432592Y124929D01*
X438133Y130471D01*
X443245D01*
X443436Y130009D01*
D02*
G37*
%LPC*%
G36*
X435441Y185158D02*
X428126D01*
Y177842D01*
X435441D01*
Y185158D01*
D02*
G37*
G36*
X372941D02*
X365626D01*
Y177842D01*
X372941D01*
Y185158D01*
D02*
G37*
G36*
X244441D02*
X237126D01*
Y177842D01*
X244441D01*
Y185158D01*
D02*
G37*
G36*
X307941Y184658D02*
X300626D01*
Y177342D01*
X307941D01*
Y184658D01*
D02*
G37*
%LPD*%
D14*
X492783Y194500D02*
X496783Y190500D01*
X484000Y194500D02*
X492783D01*
X486500Y186500D02*
X489422Y189422D01*
X476784Y187284D02*
X484000Y194500D01*
X486500Y170000D02*
Y186500D01*
X427067Y187284D02*
X476784D01*
X427067D02*
X431783Y192000D01*
X486657Y164000D02*
X486657D01*
X485427Y145927D02*
Y162805D01*
X486048Y163391D02*
X486657Y164000D01*
X485427Y162805D02*
X486013Y163391D01*
X486048D01*
X486657Y164000D02*
X493000Y170343D01*
X492914Y172086D02*
X493000Y172000D01*
Y170343D02*
Y172000D01*
X493500Y173500D02*
X526717D01*
X492914Y172086D02*
Y172914D01*
X493500Y173500D01*
X473914Y134414D02*
X485427Y145927D01*
X474015Y169500D02*
X476500Y167015D01*
X474843Y171500D02*
X478500Y167843D01*
X474500Y151500D02*
Y166186D01*
X480500Y148000D02*
Y168672D01*
X475672Y173500D02*
X480500Y168672D01*
X478500Y149477D02*
Y167843D01*
X476500Y150306D02*
Y167015D01*
X482500Y146681D02*
Y169500D01*
X475500Y176500D02*
X482500Y169500D01*
X473299Y167387D02*
X474500Y166186D01*
X526717Y173500D02*
X532717Y179500D01*
X303784Y167387D02*
X473299D01*
X465500Y133000D02*
X480500Y148000D01*
X304500Y169500D02*
X474015D01*
X471000Y135181D02*
X482500Y146681D01*
X436853Y171500D02*
X474843D01*
X469500Y173500D02*
X475672D01*
X412716D02*
X469500D01*
X467216Y181500D02*
X472217Y176500D01*
X455000Y132000D02*
X474500Y151500D01*
X472217Y176500D02*
X475500D01*
X339717Y181000D02*
X349217Y171500D01*
X404716Y181500D02*
X412716Y173500D01*
X292500Y181500D02*
X304500Y169500D01*
X455694Y129500D02*
X476500Y150306D01*
X452892Y123870D02*
X478500Y149477D01*
X534641Y115677D02*
X546500Y127537D01*
Y172139D01*
X541500Y177139D02*
X546500Y172139D01*
X526781Y115677D02*
X534641D01*
X541500Y177139D02*
Y194717D01*
X522820Y119638D02*
X526781Y115677D01*
X509500Y119638D02*
X522820D01*
X473914Y133586D02*
X478246Y129253D01*
X487199D01*
X473914Y133586D02*
Y134414D01*
X487199Y129253D02*
X497453Y119000D01*
X159500Y164000D02*
X160265Y163235D01*
Y160235D02*
X162000Y158500D01*
X160265Y160235D02*
Y163235D01*
X165500Y164000D02*
Y238000D01*
X169500Y237000D02*
X213000Y280500D01*
X169500Y160843D02*
Y237000D01*
X162000Y158500D02*
X167157D01*
X165500Y238000D02*
X218783Y291283D01*
X167157Y158500D02*
X169500Y160843D01*
X213000Y280500D02*
X243000D01*
X218783Y291283D02*
X225000D01*
X537000Y280000D02*
X537500Y279500D01*
X494500Y280000D02*
X537000D01*
X494250Y279750D02*
X494500Y280000D01*
X433000Y279500D02*
X433250Y279750D01*
X494250D01*
X367750D02*
X432750D01*
X433000Y279500D01*
X367500Y280000D02*
X367750Y279750D01*
X409302Y285586D02*
X472302D01*
X367250Y280250D02*
X367500Y280000D01*
X305000Y280500D02*
X305250Y280250D01*
X367250D01*
X243000Y280500D02*
X305000D01*
X284500Y285586D02*
X346302D01*
X472858Y286142D02*
X477000Y290283D01*
X472302Y285586D02*
X472858Y286142D01*
X528358D01*
X537500Y295284D01*
X409302Y285586D02*
X414500Y290784D01*
X346302Y285586D02*
X409302D01*
X346302D02*
X351500Y290784D01*
X284500Y288283D02*
X288000Y291783D01*
X284500Y285586D02*
Y288283D01*
X231283Y285000D02*
X283914D01*
X284500Y285586D01*
X225000Y291283D02*
X231283Y285000D01*
X287174Y370391D02*
X288000Y371217D01*
X271500Y351500D02*
X287174Y367174D01*
Y370391D01*
X350674Y367174D02*
Y370391D01*
X351500Y371217D01*
X335000Y351500D02*
X350674Y367174D01*
X413674Y366174D02*
Y369391D01*
X398500Y351000D02*
X413674Y366174D01*
Y369391D02*
X414500Y370216D01*
X476674Y368002D02*
Y369891D01*
X477500Y370717D01*
X463000Y351000D02*
X463939Y351939D01*
Y355266D01*
X476674Y368002D01*
X526250Y355953D02*
X537500Y367203D01*
Y374217D01*
X525500Y351500D02*
X526250Y352250D01*
Y355953D01*
X463000Y361000D02*
X463939Y360061D01*
X224559Y367059D02*
Y370776D01*
X225000Y371217D01*
X209000Y351500D02*
X224559Y367059D01*
X335000Y361500D02*
X335750Y360750D01*
X477000Y334784D02*
X477500Y335283D01*
X525500Y361500D02*
X526250Y360750D01*
X209000Y361500D02*
X209750Y360750D01*
X444000Y300500D02*
X453500Y291000D01*
X463000D01*
X433000Y481583D02*
X444000Y470583D01*
Y300500D02*
Y470583D01*
X433000Y291000D02*
X441453Y299453D01*
Y459464D01*
X433432Y467484D02*
X441453Y459464D01*
X433432Y467484D02*
Y471308D01*
X433000Y471740D02*
X433432Y471308D01*
X433000Y301000D02*
X439453Y307453D01*
Y451621D01*
X433432Y457642D02*
X439453Y451621D01*
X433432Y457642D02*
Y461466D01*
X433000Y461898D02*
X433432Y461466D01*
X433000Y311000D02*
X437453Y315453D01*
Y447602D01*
X433000Y452055D02*
X437453Y447602D01*
X373256Y315756D02*
Y443633D01*
X375256Y343370D02*
Y354413D01*
X377256Y344198D02*
Y353584D01*
X380500Y300500D02*
X390000Y291000D01*
X398500D01*
X380500Y300500D02*
Y465916D01*
X369000Y476984D02*
X370331Y475654D01*
X369000Y476984D02*
Y481240D01*
X370763Y475654D02*
X380500Y465916D01*
X375256Y307756D02*
Y343370D01*
X377256Y299756D02*
Y344198D01*
Y353584D02*
Y463142D01*
X375256Y354413D02*
Y451475D01*
X370331Y475654D02*
X370763D01*
X368500Y291000D02*
X377256Y299756D01*
X369000Y471398D02*
X377256Y463142D01*
X368500Y301000D02*
X375256Y307756D01*
X369432Y457299D02*
X375256Y451475D01*
X369432Y457299D02*
Y461123D01*
X369000Y461555D02*
X369432Y461123D01*
Y447457D02*
X373256Y443633D01*
X369432Y447457D02*
Y451280D01*
X368500Y311000D02*
X373256Y315756D01*
X369000Y451713D02*
X369432Y451280D01*
X329000Y291500D02*
X335000D01*
X318500Y302000D02*
X329000Y291500D01*
X318500Y302000D02*
Y464416D01*
X307263Y475654D02*
X318500Y464416D01*
X306831Y475654D02*
X307263D01*
X305500Y476984D02*
X306831Y475654D01*
X305500Y476984D02*
Y481240D01*
X305932Y457299D02*
X313756Y449475D01*
X305500Y471398D02*
X315756Y461142D01*
Y302256D02*
Y461142D01*
X305932Y447457D02*
X311756Y441633D01*
Y318256D02*
Y441633D01*
X313756Y310256D02*
Y449475D01*
X305000Y291500D02*
X315756Y302256D01*
X305932Y447457D02*
Y451280D01*
Y457299D02*
Y461123D01*
X305500Y441870D02*
X309756Y437614D01*
Y326256D02*
Y437614D01*
X305000Y301500D02*
X313756Y310256D01*
X305500Y461555D02*
X305932Y461123D01*
X305000Y311500D02*
X311756Y318256D01*
X305500Y451713D02*
X305932Y451280D01*
X305000Y321500D02*
X309756Y326256D01*
X242932Y457642D02*
X248756Y451818D01*
Y439621D02*
Y451818D01*
X248756Y390409D02*
X248756Y390409D01*
X248756Y315928D02*
Y390409D01*
X246756Y316756D02*
Y391237D01*
X248500Y315672D02*
X248756Y315928D01*
X246756Y391237D02*
X246756Y391237D01*
X241500Y311500D02*
X246756Y316756D01*
X248500Y308500D02*
Y315672D01*
X246756Y391237D02*
Y443975D01*
X248756Y395591D02*
Y400251D01*
X242932Y447799D02*
X246756Y443975D01*
X248756Y405434D02*
Y410094D01*
Y415276D02*
Y419936D01*
Y434961D02*
Y439621D01*
Y425119D02*
Y429779D01*
X253500Y301000D02*
Y470583D01*
X250756Y300756D02*
Y463484D01*
X248756Y419936D02*
Y425119D01*
Y429779D02*
Y434961D01*
X253500Y301000D02*
X263000Y291500D01*
X271500D01*
X242500Y481583D02*
X253500Y470583D01*
X241500Y291500D02*
X250756Y300756D01*
X242500Y471740D02*
X250756Y463484D01*
X241500Y301500D02*
X248500Y308500D01*
X248756Y390409D02*
Y395591D01*
Y400251D02*
Y405434D01*
Y410094D02*
Y415276D01*
X242932Y457642D02*
Y461466D01*
X242500Y461898D02*
X242932Y461466D01*
Y447799D02*
Y451623D01*
X242500Y452055D02*
X242932Y451623D01*
X190500Y300000D02*
X199000Y291500D01*
X209000D01*
X190500Y300000D02*
Y466259D01*
X180763Y475996D02*
X190500Y466259D01*
X180331Y475996D02*
X180763D01*
X179000Y477327D02*
X180331Y475996D01*
X179000Y477327D02*
Y481583D01*
Y291500D02*
X187453Y299953D01*
X179432Y467484D02*
X187453Y459464D01*
Y299953D02*
Y459464D01*
X179432Y467484D02*
Y471308D01*
X179000Y471740D02*
X179432Y471308D01*
X179000Y301500D02*
X185453Y307953D01*
Y451621D01*
X179432Y457642D02*
X185453Y451621D01*
X179432Y457642D02*
Y461466D01*
X179000Y461898D02*
X179432Y461466D01*
X179711Y314257D02*
Y315914D01*
X183453Y319656D02*
Y323344D01*
Y325781D02*
Y443779D01*
X183063Y325391D02*
X183453Y325781D01*
X179000Y311500D02*
X180734Y313234D01*
X179711Y315914D02*
X183453Y319656D01*
X183063Y323734D02*
Y325391D01*
Y323734D02*
X183453Y323344D01*
X179711Y314257D02*
X180734Y313234D01*
X179432Y447799D02*
X183453Y443779D01*
X179432Y447799D02*
Y451623D01*
X179000Y452055D02*
X179432Y451623D01*
X465500Y119772D02*
Y133000D01*
X471000Y131181D02*
X481862Y120319D01*
X471000Y131181D02*
Y135181D01*
X481862Y119500D02*
Y120319D01*
X450681Y119000D02*
Y121393D01*
X452892Y123604D02*
Y123870D01*
X450681Y121393D02*
X452892Y123604D01*
X445090Y129500D02*
X455694D01*
X437500Y132000D02*
X455000D01*
X465500Y119772D02*
X466272Y119000D01*
X420223Y120223D02*
X425723D01*
X431510Y126010D01*
X431510D02*
X437500Y132000D01*
X431510Y126010D02*
X431510D01*
X435090Y119500D02*
X445090Y129500D01*
X419500Y119500D02*
X420223Y120223D01*
X295368Y175804D02*
X303784Y167387D01*
X349217Y171500D02*
X436853D01*
X215196Y175804D02*
X295368D01*
X276217Y181500D02*
X292500D01*
X212717Y178284D02*
X215196Y175804D01*
X212717Y178284D02*
Y182500D01*
X233500Y123000D02*
X239500Y117000D01*
X233500Y123000D02*
Y159000D01*
X221500Y171000D02*
X233500Y159000D01*
X188784Y171000D02*
X221500D01*
X177284Y182500D02*
X188784Y171000D01*
X394831Y111878D02*
X401953Y119000D01*
X254622Y111878D02*
X394831D01*
X249500Y117000D02*
X254622Y111878D01*
X364567Y187284D02*
X427067D01*
X300067D02*
X364567D01*
X369284Y192000D01*
X300067Y187284D02*
X304283Y191500D01*
X239784Y187284D02*
X300067D01*
X240784Y188284D02*
Y192500D01*
X239784Y187284D02*
X240784Y188284D01*
X183000Y187284D02*
X239784D01*
X177284Y193000D02*
X183000Y187284D01*
X541500Y194717D02*
X543657Y192559D01*
X496961Y480583D02*
X508500Y469043D01*
Y308500D02*
Y469043D01*
Y308500D02*
X525500Y291500D01*
X504000Y310000D02*
Y453858D01*
X496961Y460898D02*
X504000Y453858D01*
X495500Y291500D02*
X506000Y302000D01*
Y461701D01*
X502000Y318000D02*
Y447000D01*
X495500Y301500D02*
X504000Y310000D01*
X497945Y451055D02*
X502000Y447000D01*
X495500Y311500D02*
X502000Y318000D01*
X496961Y470740D02*
X506000Y461701D01*
X496961Y451055D02*
X497945D01*
D18*
X497453Y119000D02*
D03*
X401953D02*
D03*
D19*
X481862D02*
D03*
X466272D02*
D03*
X450681D02*
D03*
X435090D02*
D03*
X419500D02*
D03*
X324000D02*
D03*
X339591D02*
D03*
X355181D02*
D03*
X370772D02*
D03*
X386362D02*
D03*
D25*
X309500Y117000D02*
D03*
D26*
X299500D02*
D03*
X289500D02*
D03*
X279500D02*
D03*
X269500D02*
D03*
X259500D02*
D03*
X249500D02*
D03*
X239500D02*
D03*
X229500D02*
D03*
X219500D02*
D03*
D27*
X179000Y393000D02*
D03*
Y402843D02*
D03*
Y412685D02*
D03*
Y422528D02*
D03*
Y432370D02*
D03*
Y442213D02*
D03*
Y452055D02*
D03*
Y461898D02*
D03*
Y471740D02*
D03*
X208500Y393000D02*
D03*
Y402843D02*
D03*
Y412685D02*
D03*
Y422528D02*
D03*
Y432370D02*
D03*
Y442213D02*
D03*
Y452055D02*
D03*
Y461898D02*
D03*
Y471740D02*
D03*
X272000Y393000D02*
D03*
Y402843D02*
D03*
Y412685D02*
D03*
Y422528D02*
D03*
Y432370D02*
D03*
Y442213D02*
D03*
Y452055D02*
D03*
Y461898D02*
D03*
Y471740D02*
D03*
X305500Y392657D02*
D03*
Y402500D02*
D03*
Y412343D02*
D03*
Y422185D02*
D03*
Y432028D02*
D03*
Y441870D02*
D03*
Y451713D02*
D03*
Y461555D02*
D03*
Y471398D02*
D03*
X334961Y392657D02*
D03*
Y402500D02*
D03*
Y412343D02*
D03*
Y422185D02*
D03*
Y432028D02*
D03*
Y441870D02*
D03*
Y451713D02*
D03*
Y461555D02*
D03*
Y471398D02*
D03*
X369000Y392657D02*
D03*
Y402500D02*
D03*
Y412343D02*
D03*
Y422185D02*
D03*
Y432028D02*
D03*
Y441870D02*
D03*
Y451713D02*
D03*
Y461555D02*
D03*
Y471398D02*
D03*
X398461Y392657D02*
D03*
Y402500D02*
D03*
Y412343D02*
D03*
Y422185D02*
D03*
Y432028D02*
D03*
Y441870D02*
D03*
Y451713D02*
D03*
Y461555D02*
D03*
Y471398D02*
D03*
X433000Y393000D02*
D03*
Y402843D02*
D03*
Y412685D02*
D03*
Y422528D02*
D03*
Y432370D02*
D03*
Y442213D02*
D03*
Y452055D02*
D03*
Y461898D02*
D03*
Y471740D02*
D03*
X462461Y392972D02*
D03*
Y402815D02*
D03*
Y412657D02*
D03*
Y422500D02*
D03*
Y432342D02*
D03*
Y442185D02*
D03*
Y452028D02*
D03*
Y461870D02*
D03*
Y471713D02*
D03*
X496961Y392000D02*
D03*
Y401842D02*
D03*
Y411685D02*
D03*
Y421528D02*
D03*
Y431370D02*
D03*
Y441213D02*
D03*
Y451055D02*
D03*
Y460898D02*
D03*
Y470740D02*
D03*
X526461Y392287D02*
D03*
Y402130D02*
D03*
Y411972D02*
D03*
Y421815D02*
D03*
Y431658D02*
D03*
Y441500D02*
D03*
Y451342D02*
D03*
Y461185D02*
D03*
Y471028D02*
D03*
X242500Y393000D02*
D03*
Y402843D02*
D03*
Y412685D02*
D03*
Y422528D02*
D03*
Y432370D02*
D03*
Y442213D02*
D03*
Y452055D02*
D03*
Y461898D02*
D03*
Y471740D02*
D03*
D28*
X179000Y481583D02*
D03*
X208500D02*
D03*
X272000D02*
D03*
X305500Y481240D02*
D03*
X334961D02*
D03*
X369000D02*
D03*
X398461D02*
D03*
X433000Y481583D02*
D03*
X462461Y481555D02*
D03*
X496961Y480583D02*
D03*
X526461Y480870D02*
D03*
X242500Y481583D02*
D03*
D37*
X305000Y371500D02*
D03*
Y361500D02*
D03*
Y351500D02*
D03*
Y341500D02*
D03*
Y331500D02*
D03*
Y321500D02*
D03*
Y311500D02*
D03*
Y301500D02*
D03*
Y291500D02*
D03*
X335000Y371500D02*
D03*
Y361500D02*
D03*
Y351500D02*
D03*
Y341500D02*
D03*
Y331500D02*
D03*
Y321500D02*
D03*
Y311500D02*
D03*
Y301500D02*
D03*
X495500Y371500D02*
D03*
Y361500D02*
D03*
Y351500D02*
D03*
Y341500D02*
D03*
Y331500D02*
D03*
Y321500D02*
D03*
Y311500D02*
D03*
Y301500D02*
D03*
Y291500D02*
D03*
X525500Y371500D02*
D03*
Y361500D02*
D03*
Y351500D02*
D03*
Y341500D02*
D03*
Y331500D02*
D03*
Y321500D02*
D03*
Y311500D02*
D03*
Y301500D02*
D03*
X179000Y371500D02*
D03*
Y361500D02*
D03*
Y351500D02*
D03*
Y341500D02*
D03*
Y331500D02*
D03*
Y321500D02*
D03*
Y311500D02*
D03*
Y301500D02*
D03*
Y291500D02*
D03*
X209000Y371500D02*
D03*
Y361500D02*
D03*
Y351500D02*
D03*
Y341500D02*
D03*
Y331500D02*
D03*
Y321500D02*
D03*
Y311500D02*
D03*
Y301500D02*
D03*
X398500Y301000D02*
D03*
Y311000D02*
D03*
Y321000D02*
D03*
Y331000D02*
D03*
Y341000D02*
D03*
Y351000D02*
D03*
Y361000D02*
D03*
Y371000D02*
D03*
X368500Y291000D02*
D03*
Y301000D02*
D03*
Y311000D02*
D03*
Y321000D02*
D03*
Y331000D02*
D03*
Y341000D02*
D03*
Y351000D02*
D03*
Y361000D02*
D03*
Y371000D02*
D03*
X463000Y301000D02*
D03*
Y311000D02*
D03*
Y321000D02*
D03*
Y331000D02*
D03*
Y341000D02*
D03*
Y351000D02*
D03*
Y361000D02*
D03*
Y371000D02*
D03*
X433000Y291000D02*
D03*
Y301000D02*
D03*
Y311000D02*
D03*
Y321000D02*
D03*
Y331000D02*
D03*
Y341000D02*
D03*
Y351000D02*
D03*
Y361000D02*
D03*
Y371000D02*
D03*
X271500Y301500D02*
D03*
Y311500D02*
D03*
Y321500D02*
D03*
Y331500D02*
D03*
Y341500D02*
D03*
Y351500D02*
D03*
Y361500D02*
D03*
Y371500D02*
D03*
X241500Y291500D02*
D03*
Y301500D02*
D03*
Y311500D02*
D03*
Y321500D02*
D03*
Y331500D02*
D03*
Y341500D02*
D03*
Y351500D02*
D03*
Y361500D02*
D03*
Y371500D02*
D03*
D38*
X335000Y291500D02*
D03*
X525500D02*
D03*
X209000D02*
D03*
X398500Y291000D02*
D03*
X463000D02*
D03*
X271500Y291500D02*
D03*
D39*
X537500Y338784D02*
D03*
X351500Y335784D02*
D03*
X288000D02*
D03*
X537500Y295284D02*
D03*
X477500Y335283D02*
D03*
X477000Y290283D02*
D03*
X414500Y334784D02*
D03*
Y290784D02*
D03*
X351500D02*
D03*
X288000Y291783D02*
D03*
X225000Y291283D02*
D03*
Y335784D02*
D03*
X541500Y194717D02*
D03*
D40*
X537500Y374217D02*
D03*
X351500Y371217D02*
D03*
X288000D02*
D03*
X537500Y330716D02*
D03*
X477500Y370717D02*
D03*
X477000Y325716D02*
D03*
X414500Y370216D02*
D03*
Y326217D02*
D03*
X351500D02*
D03*
X288000Y327217D02*
D03*
X225000Y326716D02*
D03*
Y371217D02*
D03*
X212717Y182500D02*
D03*
X276217Y181500D02*
D03*
X339717Y181000D02*
D03*
X404716Y181500D02*
D03*
X467216D02*
D03*
X532717Y179500D02*
D03*
X212717Y193000D02*
D03*
X177284Y214000D02*
D03*
Y203500D02*
D03*
Y224500D02*
D03*
X276217Y192500D02*
D03*
X339717Y191500D02*
D03*
X304283Y202000D02*
D03*
X304784Y212500D02*
D03*
X304283Y223000D02*
D03*
X404716Y192000D02*
D03*
X369284Y202500D02*
D03*
Y213000D02*
D03*
Y223500D02*
D03*
X467216Y192000D02*
D03*
X431783Y202500D02*
D03*
Y213000D02*
D03*
Y223500D02*
D03*
X532217Y190500D02*
D03*
X496783Y201000D02*
D03*
Y211500D02*
D03*
Y222000D02*
D03*
X240784Y203000D02*
D03*
Y224000D02*
D03*
Y213500D02*
D03*
X541500Y159283D02*
D03*
X218717Y133000D02*
D03*
D41*
X177284Y182500D02*
D03*
X240784Y181500D02*
D03*
X304283Y181000D02*
D03*
X369284Y181500D02*
D03*
X431783D02*
D03*
X497284Y179500D02*
D03*
X177284Y193000D02*
D03*
X212717Y214000D02*
D03*
Y203500D02*
D03*
Y224500D02*
D03*
X240784Y192500D02*
D03*
X304283Y191500D02*
D03*
X339717Y202000D02*
D03*
X340216Y212500D02*
D03*
X339717Y223000D02*
D03*
X369284Y192000D02*
D03*
X404716Y202500D02*
D03*
Y213000D02*
D03*
Y223500D02*
D03*
X431783Y192000D02*
D03*
X467216Y202500D02*
D03*
Y213000D02*
D03*
Y223500D02*
D03*
X496783Y190500D02*
D03*
X532217Y201000D02*
D03*
Y211500D02*
D03*
Y222000D02*
D03*
X276217Y203000D02*
D03*
Y224000D02*
D03*
Y213500D02*
D03*
X183283Y133000D02*
D03*
D42*
X541000Y139500D02*
D03*
D43*
Y144500D02*
D03*
Y149500D02*
D03*
D44*
X509500Y119638D02*
D03*
D45*
X519500Y129638D02*
D03*
X529500Y119638D02*
D03*
D46*
X182500Y115500D02*
D03*
X192500D02*
D03*
D47*
X202500D02*
D03*
D48*
X540000Y486000D02*
D03*
X540500Y110500D02*
D03*
X164000Y486000D02*
D03*
X162500Y110000D02*
D03*
D49*
X489422Y189422D02*
D03*
X486500Y170000D02*
D03*
X159500Y164000D02*
D03*
X165500D02*
D03*
X537500Y279500D02*
D03*
X494500Y280000D02*
D03*
X433000Y279500D02*
D03*
X367500Y280000D02*
D03*
X305000Y280500D02*
D03*
X243000D02*
D03*
M02*
