G04*
G04 #@! TF.GenerationSoftware,Altium Limited,Altium Designer,24.6.1 (21)*
G04*
G04 Layer_Physical_Order=1*
G04 Layer_Color=255*
%FSLAX25Y25*%
%MOIN*%
G70*
G04*
G04 #@! TF.SameCoordinates,BD51E7C1-7467-4EA1-BF67-8BC641B90C76*
G04*
G04*
G04 #@! TF.FilePolarity,Positive*
G04*
G01*
G75*
%ADD14C,0.01000*%
%ADD15R,0.06299X0.11024*%
%ADD16O,0.09843X0.02756*%
%ADD18R,0.09843X0.09843*%
%ADD19C,0.09843*%
%ADD25R,0.07244X0.07244*%
%ADD26C,0.07244*%
%ADD27C,0.05512*%
%ADD28R,0.05512X0.05512*%
%ADD37C,0.05906*%
%ADD38R,0.05906X0.05906*%
%ADD39R,0.05315X0.05315*%
%ADD40C,0.05315*%
%ADD41R,0.05315X0.05315*%
%ADD42R,0.04134X0.04134*%
%ADD43C,0.04134*%
%ADD44R,0.04921X0.04921*%
%ADD45C,0.04921*%
%ADD46C,0.06693*%
%ADD47R,0.06693X0.06693*%
%ADD48C,0.11811*%
%ADD49C,0.05000*%
G36*
X521000Y491500D02*
X527412Y485088D01*
X527221Y484626D01*
X524868D01*
X522574Y486920D01*
X522077Y487252D01*
X521492Y487368D01*
X212756D01*
X212171Y487252D01*
X211674Y486920D01*
X210093Y485339D01*
X204744D01*
Y477827D01*
X206971D01*
Y475194D01*
X206194Y474746D01*
X205494Y474046D01*
X205000Y473190D01*
X204744Y472235D01*
Y471246D01*
X205000Y470290D01*
X205494Y469434D01*
X206194Y468735D01*
X206971Y468286D01*
Y465352D01*
X206194Y464903D01*
X205494Y464204D01*
X205000Y463347D01*
X204744Y462392D01*
Y461403D01*
X205000Y460448D01*
X205494Y459591D01*
X206194Y458892D01*
X206971Y458444D01*
Y455509D01*
X206194Y455061D01*
X205494Y454361D01*
X205000Y453505D01*
X204744Y452550D01*
Y451561D01*
X205000Y450605D01*
X205494Y449749D01*
X206194Y449050D01*
X206971Y448601D01*
Y445667D01*
X206194Y445218D01*
X205494Y444519D01*
X205000Y443662D01*
X204744Y442707D01*
Y441718D01*
X205000Y440763D01*
X205494Y439906D01*
X206194Y439207D01*
X206971Y438759D01*
Y435824D01*
X206194Y435376D01*
X205494Y434676D01*
X205000Y433820D01*
X204744Y432865D01*
Y431876D01*
X205000Y430920D01*
X205494Y430064D01*
X206194Y429365D01*
X206971Y428916D01*
Y425982D01*
X206194Y425533D01*
X205494Y424834D01*
X205000Y423977D01*
X204744Y423022D01*
Y422033D01*
X205000Y421078D01*
X205494Y420221D01*
X206194Y419522D01*
X206971Y419074D01*
Y416139D01*
X206194Y415691D01*
X205494Y414991D01*
X205000Y414135D01*
X204744Y413179D01*
Y412191D01*
X205000Y411235D01*
X205494Y410379D01*
X206194Y409680D01*
X206971Y409231D01*
Y406296D01*
X206194Y405848D01*
X205494Y405149D01*
X205000Y404292D01*
X204744Y403337D01*
Y402348D01*
X205000Y401393D01*
X205494Y400536D01*
X206194Y399837D01*
X206971Y399389D01*
Y396454D01*
X206194Y396006D01*
X205494Y395306D01*
X205000Y394450D01*
X204744Y393495D01*
Y392506D01*
X205000Y391550D01*
X205494Y390694D01*
X206194Y389995D01*
X207050Y389500D01*
X208005Y389244D01*
X208995D01*
X209950Y389500D01*
X210806Y389995D01*
X211506Y390694D01*
X212000Y391550D01*
X212256Y392506D01*
Y393495D01*
X212000Y394450D01*
X211506Y395306D01*
X210806Y396006D01*
X210029Y396454D01*
Y399389D01*
X210806Y399837D01*
X211506Y400536D01*
X212000Y401393D01*
X212256Y402348D01*
Y403337D01*
X212000Y404292D01*
X211506Y405149D01*
X210806Y405848D01*
X210029Y406296D01*
Y409231D01*
X210806Y409680D01*
X211506Y410379D01*
X212000Y411235D01*
X212256Y412191D01*
Y413179D01*
X212000Y414135D01*
X211506Y414991D01*
X210806Y415691D01*
X210029Y416139D01*
Y419074D01*
X210806Y419522D01*
X211506Y420221D01*
X212000Y421078D01*
X212256Y422033D01*
Y423022D01*
X212000Y423977D01*
X211506Y424834D01*
X210806Y425533D01*
X210029Y425982D01*
Y428916D01*
X210806Y429365D01*
X211506Y430064D01*
X212000Y430920D01*
X212256Y431876D01*
Y432865D01*
X212000Y433820D01*
X211506Y434676D01*
X210806Y435376D01*
X210029Y435824D01*
Y438759D01*
X210806Y439207D01*
X211506Y439906D01*
X212000Y440763D01*
X212256Y441718D01*
Y442707D01*
X212000Y443662D01*
X211506Y444519D01*
X210806Y445218D01*
X210029Y445667D01*
Y448601D01*
X210806Y449050D01*
X211506Y449749D01*
X212000Y450605D01*
X212256Y451561D01*
Y452550D01*
X212000Y453505D01*
X211506Y454361D01*
X210806Y455061D01*
X210029Y455509D01*
Y458444D01*
X210806Y458892D01*
X211506Y459591D01*
X212000Y460448D01*
X212256Y461403D01*
Y462392D01*
X212000Y463347D01*
X211506Y464204D01*
X210806Y464903D01*
X210029Y465352D01*
Y468286D01*
X210806Y468735D01*
X211506Y469434D01*
X212000Y470290D01*
X212256Y471246D01*
Y472235D01*
X212000Y473190D01*
X211506Y474046D01*
X210806Y474746D01*
X210029Y475194D01*
Y477827D01*
X212256D01*
Y483176D01*
X213389Y484309D01*
X238744D01*
Y477827D01*
X246256D01*
Y484309D01*
X268244D01*
Y477827D01*
X270471D01*
Y475194D01*
X269694Y474746D01*
X268994Y474046D01*
X268500Y473190D01*
X268244Y472235D01*
Y471246D01*
X268500Y470290D01*
X268994Y469434D01*
X269694Y468735D01*
X270471Y468286D01*
Y465352D01*
X269694Y464903D01*
X268994Y464204D01*
X268500Y463347D01*
X268244Y462392D01*
Y461403D01*
X268500Y460448D01*
X268994Y459591D01*
X269694Y458892D01*
X270471Y458444D01*
Y455509D01*
X269694Y455061D01*
X268994Y454361D01*
X268500Y453505D01*
X268244Y452550D01*
Y451561D01*
X268500Y450605D01*
X268994Y449749D01*
X269694Y449050D01*
X270471Y448601D01*
Y445667D01*
X269694Y445218D01*
X268994Y444519D01*
X268500Y443662D01*
X268244Y442707D01*
Y441718D01*
X268500Y440763D01*
X268994Y439906D01*
X269694Y439207D01*
X270471Y438759D01*
Y435824D01*
X269694Y435376D01*
X268994Y434676D01*
X268500Y433820D01*
X268244Y432865D01*
Y431876D01*
X268500Y430920D01*
X268994Y430064D01*
X269694Y429365D01*
X270471Y428916D01*
Y425982D01*
X269694Y425533D01*
X268994Y424834D01*
X268500Y423977D01*
X268244Y423022D01*
Y422033D01*
X268500Y421078D01*
X268994Y420221D01*
X269694Y419522D01*
X270471Y419074D01*
Y416139D01*
X269694Y415691D01*
X268994Y414991D01*
X268500Y414135D01*
X268244Y413179D01*
Y412191D01*
X268500Y411235D01*
X268994Y410379D01*
X269694Y409680D01*
X270471Y409231D01*
Y406296D01*
X269694Y405848D01*
X268994Y405149D01*
X268500Y404292D01*
X268244Y403337D01*
Y402348D01*
X268500Y401393D01*
X268994Y400536D01*
X269694Y399837D01*
X270471Y399389D01*
Y396454D01*
X269694Y396006D01*
X268994Y395306D01*
X268500Y394450D01*
X268244Y393495D01*
Y392506D01*
X268500Y391550D01*
X268994Y390694D01*
X269694Y389995D01*
X270550Y389500D01*
X271505Y389244D01*
X272495D01*
X273450Y389500D01*
X274306Y389995D01*
X275006Y390694D01*
X275500Y391550D01*
X275756Y392506D01*
Y393495D01*
X275500Y394450D01*
X275006Y395306D01*
X274306Y396006D01*
X273529Y396454D01*
Y399389D01*
X274306Y399837D01*
X275006Y400536D01*
X275500Y401393D01*
X275756Y402348D01*
Y403337D01*
X275500Y404292D01*
X275006Y405149D01*
X274306Y405848D01*
X273529Y406296D01*
Y409231D01*
X274306Y409680D01*
X275006Y410379D01*
X275500Y411235D01*
X275756Y412191D01*
Y413179D01*
X275500Y414135D01*
X275006Y414991D01*
X274306Y415691D01*
X273529Y416139D01*
Y419074D01*
X274306Y419522D01*
X275006Y420221D01*
X275500Y421078D01*
X275756Y422033D01*
Y423022D01*
X275500Y423977D01*
X275006Y424834D01*
X274306Y425533D01*
X273529Y425982D01*
Y428916D01*
X274306Y429365D01*
X275006Y430064D01*
X275500Y430920D01*
X275756Y431876D01*
Y432865D01*
X275500Y433820D01*
X275006Y434676D01*
X274306Y435376D01*
X273529Y435824D01*
Y438759D01*
X274306Y439207D01*
X275006Y439906D01*
X275500Y440763D01*
X275756Y441718D01*
Y442707D01*
X275500Y443662D01*
X275006Y444519D01*
X274306Y445218D01*
X273529Y445667D01*
Y448601D01*
X274306Y449050D01*
X275006Y449749D01*
X275500Y450605D01*
X275756Y451561D01*
Y452550D01*
X275500Y453505D01*
X275006Y454361D01*
X274306Y455061D01*
X273529Y455509D01*
Y458444D01*
X274306Y458892D01*
X275006Y459591D01*
X275500Y460448D01*
X275756Y461403D01*
Y462392D01*
X275500Y463347D01*
X275006Y464204D01*
X274306Y464903D01*
X273529Y465352D01*
Y468286D01*
X274306Y468735D01*
X275006Y469434D01*
X275500Y470290D01*
X275756Y471246D01*
Y472235D01*
X275500Y473190D01*
X275006Y474046D01*
X274306Y474746D01*
X273529Y475194D01*
Y477827D01*
X275756D01*
Y483176D01*
X276889Y484309D01*
X301744D01*
Y477484D01*
X309256D01*
Y484309D01*
X329729D01*
X331205Y482833D01*
Y477484D01*
X333431D01*
Y474852D01*
X332654Y474403D01*
X331955Y473704D01*
X331461Y472847D01*
X331205Y471892D01*
Y470903D01*
X331461Y469948D01*
X331955Y469092D01*
X332654Y468392D01*
X333431Y467944D01*
Y465009D01*
X332654Y464561D01*
X331955Y463861D01*
X331461Y463005D01*
X331205Y462050D01*
Y461061D01*
X331461Y460105D01*
X331955Y459249D01*
X332654Y458550D01*
X333431Y458101D01*
Y455166D01*
X332654Y454718D01*
X331955Y454019D01*
X331461Y453162D01*
X331205Y452207D01*
Y451218D01*
X331461Y450263D01*
X331955Y449406D01*
X332654Y448707D01*
X333431Y448259D01*
Y445324D01*
X332654Y444876D01*
X331955Y444176D01*
X331461Y443320D01*
X331205Y442365D01*
Y441376D01*
X331461Y440420D01*
X331955Y439564D01*
X332654Y438865D01*
X333431Y438416D01*
Y435482D01*
X332654Y435033D01*
X331955Y434334D01*
X331461Y433477D01*
X331205Y432522D01*
Y431533D01*
X331461Y430578D01*
X331955Y429721D01*
X332654Y429022D01*
X333431Y428574D01*
Y425639D01*
X332654Y425190D01*
X331955Y424491D01*
X331461Y423635D01*
X331205Y422680D01*
Y421691D01*
X331461Y420735D01*
X331955Y419879D01*
X332654Y419180D01*
X333431Y418731D01*
Y415797D01*
X332654Y415348D01*
X331955Y414649D01*
X331461Y413792D01*
X331205Y412837D01*
Y411848D01*
X331461Y410893D01*
X331955Y410036D01*
X332654Y409337D01*
X333431Y408889D01*
Y405954D01*
X332654Y405506D01*
X331955Y404806D01*
X331461Y403950D01*
X331205Y402994D01*
Y402005D01*
X331461Y401050D01*
X331955Y400194D01*
X332654Y399495D01*
X333431Y399046D01*
Y396111D01*
X332654Y395663D01*
X331955Y394964D01*
X331461Y394107D01*
X331205Y393152D01*
Y392163D01*
X331461Y391208D01*
X331955Y390351D01*
X332654Y389652D01*
X333511Y389158D01*
X334466Y388902D01*
X335455D01*
X336410Y389158D01*
X337267Y389652D01*
X337966Y390351D01*
X338461Y391208D01*
X338717Y392163D01*
Y393152D01*
X338461Y394107D01*
X337966Y394964D01*
X337267Y395663D01*
X336490Y396111D01*
Y399046D01*
X337267Y399495D01*
X337966Y400194D01*
X338461Y401050D01*
X338717Y402005D01*
Y402994D01*
X338461Y403950D01*
X337966Y404806D01*
X337267Y405506D01*
X336490Y405954D01*
Y408889D01*
X337267Y409337D01*
X337966Y410036D01*
X338461Y410893D01*
X338717Y411848D01*
Y412837D01*
X338461Y413792D01*
X337966Y414649D01*
X337267Y415348D01*
X336490Y415797D01*
Y418731D01*
X337267Y419180D01*
X337966Y419879D01*
X338461Y420735D01*
X338717Y421691D01*
Y422680D01*
X338461Y423635D01*
X337966Y424491D01*
X337267Y425190D01*
X336490Y425639D01*
Y428574D01*
X337267Y429022D01*
X337966Y429721D01*
X338461Y430578D01*
X338717Y431533D01*
Y432522D01*
X338461Y433477D01*
X337966Y434334D01*
X337267Y435033D01*
X336490Y435482D01*
Y438416D01*
X337267Y438865D01*
X337966Y439564D01*
X338461Y440420D01*
X338717Y441376D01*
Y442365D01*
X338461Y443320D01*
X337966Y444176D01*
X337267Y444876D01*
X336490Y445324D01*
Y448259D01*
X337267Y448707D01*
X337966Y449406D01*
X338461Y450263D01*
X338717Y451218D01*
Y452207D01*
X338461Y453162D01*
X337966Y454019D01*
X337267Y454718D01*
X336490Y455166D01*
Y458101D01*
X337267Y458550D01*
X337966Y459249D01*
X338461Y460105D01*
X338717Y461061D01*
Y462050D01*
X338461Y463005D01*
X337966Y463861D01*
X337267Y464561D01*
X336490Y465009D01*
Y467944D01*
X337267Y468392D01*
X337966Y469092D01*
X338461Y469948D01*
X338717Y470903D01*
Y471892D01*
X338461Y472847D01*
X337966Y473704D01*
X337267Y474403D01*
X336490Y474852D01*
Y477484D01*
X338717D01*
Y484309D01*
X365244D01*
Y477484D01*
X372756D01*
Y484309D01*
X394705D01*
Y477484D01*
X396931D01*
Y474852D01*
X396154Y474403D01*
X395455Y473704D01*
X394961Y472847D01*
X394705Y471892D01*
Y470903D01*
X394961Y469948D01*
X395455Y469092D01*
X396154Y468392D01*
X396931Y467944D01*
Y465009D01*
X396154Y464561D01*
X395455Y463861D01*
X394961Y463005D01*
X394705Y462050D01*
Y461061D01*
X394961Y460105D01*
X395455Y459249D01*
X396154Y458550D01*
X396931Y458101D01*
Y455166D01*
X396154Y454718D01*
X395455Y454019D01*
X394961Y453162D01*
X394705Y452207D01*
Y451218D01*
X394961Y450263D01*
X395455Y449406D01*
X396154Y448707D01*
X396931Y448259D01*
Y445324D01*
X396154Y444876D01*
X395455Y444176D01*
X394961Y443320D01*
X394705Y442365D01*
Y441376D01*
X394961Y440420D01*
X395455Y439564D01*
X396154Y438865D01*
X396931Y438416D01*
Y435482D01*
X396154Y435033D01*
X395455Y434334D01*
X394961Y433477D01*
X394705Y432522D01*
Y431533D01*
X394961Y430578D01*
X395455Y429721D01*
X396154Y429022D01*
X396931Y428574D01*
Y425639D01*
X396154Y425190D01*
X395455Y424491D01*
X394961Y423635D01*
X394705Y422680D01*
Y421691D01*
X394961Y420735D01*
X395455Y419879D01*
X396154Y419180D01*
X396931Y418731D01*
Y415797D01*
X396154Y415348D01*
X395455Y414649D01*
X394961Y413792D01*
X394705Y412837D01*
Y411848D01*
X394961Y410893D01*
X395455Y410036D01*
X396154Y409337D01*
X396931Y408889D01*
Y405954D01*
X396154Y405506D01*
X395455Y404806D01*
X394961Y403950D01*
X394705Y402994D01*
Y402005D01*
X394961Y401050D01*
X395455Y400194D01*
X396154Y399495D01*
X396931Y399046D01*
Y396111D01*
X396154Y395663D01*
X395455Y394964D01*
X394961Y394107D01*
X394705Y393152D01*
Y392163D01*
X394961Y391208D01*
X395455Y390351D01*
X396154Y389652D01*
X397011Y389158D01*
X397966Y388902D01*
X398955D01*
X399910Y389158D01*
X400767Y389652D01*
X401466Y390351D01*
X401961Y391208D01*
X402216Y392163D01*
Y393152D01*
X401961Y394107D01*
X401466Y394964D01*
X400767Y395663D01*
X399990Y396111D01*
Y399046D01*
X400767Y399495D01*
X401466Y400194D01*
X401961Y401050D01*
X402216Y402005D01*
Y402994D01*
X401961Y403950D01*
X401466Y404806D01*
X400767Y405506D01*
X399990Y405954D01*
Y408889D01*
X400767Y409337D01*
X401466Y410036D01*
X401961Y410893D01*
X402216Y411848D01*
Y412837D01*
X401961Y413792D01*
X401466Y414649D01*
X400767Y415348D01*
X399990Y415797D01*
Y418731D01*
X400767Y419180D01*
X401466Y419879D01*
X401961Y420735D01*
X402216Y421691D01*
Y422680D01*
X401961Y423635D01*
X401466Y424491D01*
X400767Y425190D01*
X399990Y425639D01*
Y428574D01*
X400767Y429022D01*
X401466Y429721D01*
X401961Y430578D01*
X402216Y431533D01*
Y432522D01*
X401961Y433477D01*
X401466Y434334D01*
X400767Y435033D01*
X399990Y435482D01*
Y438416D01*
X400767Y438865D01*
X401466Y439564D01*
X401961Y440420D01*
X402216Y441376D01*
Y442365D01*
X401961Y443320D01*
X401466Y444176D01*
X400767Y444876D01*
X399990Y445324D01*
Y448259D01*
X400767Y448707D01*
X401466Y449406D01*
X401961Y450263D01*
X402216Y451218D01*
Y452207D01*
X401961Y453162D01*
X401466Y454019D01*
X400767Y454718D01*
X399990Y455166D01*
Y458101D01*
X400767Y458550D01*
X401466Y459249D01*
X401961Y460105D01*
X402216Y461061D01*
Y462050D01*
X401961Y463005D01*
X401466Y463861D01*
X400767Y464561D01*
X399990Y465009D01*
Y467944D01*
X400767Y468392D01*
X401466Y469092D01*
X401961Y469948D01*
X402216Y470903D01*
Y471892D01*
X401961Y472847D01*
X401466Y473704D01*
X400767Y474403D01*
X399990Y474852D01*
Y477484D01*
X402216D01*
Y482833D01*
X403692Y484309D01*
X429244D01*
Y477827D01*
X436756D01*
Y484309D01*
X458705D01*
Y477799D01*
X460931D01*
Y475167D01*
X460154Y474718D01*
X459455Y474019D01*
X458961Y473162D01*
X458705Y472207D01*
Y471218D01*
X458961Y470263D01*
X459455Y469406D01*
X460154Y468707D01*
X460931Y468259D01*
Y465324D01*
X460154Y464876D01*
X459455Y464176D01*
X458961Y463320D01*
X458705Y462364D01*
Y461376D01*
X458961Y460420D01*
X459455Y459564D01*
X460154Y458865D01*
X460931Y458416D01*
Y455481D01*
X460154Y455033D01*
X459455Y454334D01*
X458961Y453477D01*
X458705Y452522D01*
Y451533D01*
X458961Y450578D01*
X459455Y449721D01*
X460154Y449022D01*
X460931Y448574D01*
Y445639D01*
X460154Y445190D01*
X459455Y444491D01*
X458961Y443635D01*
X458705Y442680D01*
Y441691D01*
X458961Y440735D01*
X459455Y439879D01*
X460154Y439180D01*
X460931Y438731D01*
Y435796D01*
X460154Y435348D01*
X459455Y434649D01*
X458961Y433792D01*
X458705Y432837D01*
Y431848D01*
X458961Y430893D01*
X459455Y430036D01*
X460154Y429337D01*
X460931Y428889D01*
Y425954D01*
X460154Y425505D01*
X459455Y424806D01*
X458961Y423950D01*
X458705Y422995D01*
Y422006D01*
X458961Y421050D01*
X459455Y420194D01*
X460154Y419494D01*
X460931Y419046D01*
Y416111D01*
X460154Y415663D01*
X459455Y414964D01*
X458961Y414107D01*
X458705Y413152D01*
Y412163D01*
X458961Y411208D01*
X459455Y410351D01*
X460154Y409652D01*
X460931Y409203D01*
Y406269D01*
X460154Y405820D01*
X459455Y405121D01*
X458961Y404265D01*
X458705Y403309D01*
Y402320D01*
X458961Y401365D01*
X459455Y400509D01*
X460154Y399810D01*
X460931Y399361D01*
Y396426D01*
X460154Y395978D01*
X459455Y395279D01*
X458961Y394422D01*
X458705Y393467D01*
Y392478D01*
X458961Y391523D01*
X459455Y390666D01*
X460154Y389967D01*
X461011Y389473D01*
X461966Y389216D01*
X462955D01*
X463910Y389473D01*
X464767Y389967D01*
X465466Y390666D01*
X465961Y391523D01*
X466217Y392478D01*
Y393467D01*
X465961Y394422D01*
X465466Y395279D01*
X464767Y395978D01*
X463990Y396426D01*
Y399361D01*
X464767Y399810D01*
X465466Y400509D01*
X465961Y401365D01*
X466217Y402320D01*
Y403309D01*
X465961Y404265D01*
X465466Y405121D01*
X464767Y405820D01*
X463990Y406269D01*
Y409203D01*
X464767Y409652D01*
X465466Y410351D01*
X465961Y411208D01*
X466217Y412163D01*
Y413152D01*
X465961Y414107D01*
X465466Y414964D01*
X464767Y415663D01*
X463990Y416111D01*
Y419046D01*
X464767Y419494D01*
X465466Y420194D01*
X465961Y421050D01*
X466217Y422006D01*
Y422995D01*
X465961Y423950D01*
X465466Y424806D01*
X464767Y425505D01*
X463990Y425954D01*
Y428889D01*
X464767Y429337D01*
X465466Y430036D01*
X465961Y430893D01*
X466217Y431848D01*
Y432837D01*
X465961Y433792D01*
X465466Y434649D01*
X464767Y435348D01*
X463990Y435796D01*
Y438731D01*
X464767Y439180D01*
X465466Y439879D01*
X465961Y440735D01*
X466217Y441691D01*
Y442680D01*
X465961Y443635D01*
X465466Y444491D01*
X464767Y445190D01*
X463990Y445639D01*
Y448574D01*
X464767Y449022D01*
X465466Y449721D01*
X465961Y450578D01*
X466217Y451533D01*
Y452522D01*
X465961Y453477D01*
X465466Y454334D01*
X464767Y455033D01*
X463990Y455481D01*
Y458416D01*
X464767Y458865D01*
X465466Y459564D01*
X465961Y460420D01*
X466217Y461376D01*
Y462364D01*
X465961Y463320D01*
X465466Y464176D01*
X464767Y464876D01*
X463990Y465324D01*
Y468259D01*
X464767Y468707D01*
X465466Y469406D01*
X465961Y470263D01*
X466217Y471218D01*
Y472207D01*
X465961Y473162D01*
X465466Y474019D01*
X464767Y474718D01*
X463990Y475167D01*
Y477799D01*
X466217D01*
Y483148D01*
X467378Y484309D01*
X493205D01*
Y476827D01*
X500716D01*
Y484309D01*
X520859D01*
X522705Y482463D01*
Y477114D01*
X524931D01*
Y474481D01*
X524154Y474033D01*
X523455Y473334D01*
X522961Y472477D01*
X522705Y471522D01*
Y470533D01*
X522961Y469578D01*
X523455Y468721D01*
X524154Y468022D01*
X524931Y467574D01*
Y464639D01*
X524154Y464190D01*
X523455Y463491D01*
X522961Y462635D01*
X522705Y461680D01*
Y460691D01*
X522961Y459735D01*
X523455Y458879D01*
X524154Y458180D01*
X524931Y457731D01*
Y454797D01*
X524154Y454348D01*
X523455Y453649D01*
X522961Y452792D01*
X522705Y451837D01*
Y450848D01*
X522961Y449893D01*
X523455Y449036D01*
X524154Y448337D01*
X524931Y447889D01*
Y444954D01*
X524154Y444506D01*
X523455Y443806D01*
X522961Y442950D01*
X522705Y441994D01*
Y441006D01*
X522961Y440050D01*
X523455Y439194D01*
X524154Y438494D01*
X524931Y438046D01*
Y435111D01*
X524154Y434663D01*
X523455Y433964D01*
X522961Y433107D01*
X522705Y432152D01*
Y431163D01*
X522961Y430208D01*
X523455Y429351D01*
X524154Y428652D01*
X524931Y428203D01*
Y425269D01*
X524154Y424820D01*
X523455Y424121D01*
X522961Y423265D01*
X522705Y422309D01*
Y421320D01*
X522961Y420365D01*
X523455Y419509D01*
X524154Y418810D01*
X524931Y418361D01*
Y415426D01*
X524154Y414978D01*
X523455Y414279D01*
X522961Y413422D01*
X522705Y412467D01*
Y411478D01*
X522961Y410523D01*
X523455Y409666D01*
X524154Y408967D01*
X524931Y408519D01*
Y405584D01*
X524154Y405135D01*
X523455Y404436D01*
X522961Y403580D01*
X522705Y402624D01*
Y401635D01*
X522961Y400680D01*
X523455Y399824D01*
X524154Y399124D01*
X524931Y398676D01*
Y395741D01*
X524154Y395293D01*
X523455Y394594D01*
X522961Y393737D01*
X522705Y392782D01*
Y391793D01*
X522961Y390838D01*
X523455Y389981D01*
X524154Y389282D01*
X525011Y388788D01*
X525966Y388531D01*
X526955D01*
X527910Y388788D01*
X528767Y389282D01*
X529466Y389981D01*
X529961Y390838D01*
X530217Y391793D01*
Y392782D01*
X529961Y393737D01*
X529466Y394594D01*
X528767Y395293D01*
X527990Y395741D01*
Y398676D01*
X528767Y399124D01*
X529466Y399824D01*
X529961Y400680D01*
X530217Y401635D01*
Y402624D01*
X529961Y403580D01*
X529466Y404436D01*
X528767Y405135D01*
X527990Y405584D01*
Y408519D01*
X528767Y408967D01*
X529466Y409666D01*
X529961Y410523D01*
X530217Y411478D01*
Y412467D01*
X529961Y413422D01*
X529466Y414279D01*
X528767Y414978D01*
X527990Y415426D01*
Y418361D01*
X528767Y418810D01*
X529466Y419509D01*
X529961Y420365D01*
X530217Y421320D01*
Y422309D01*
X529961Y423265D01*
X529466Y424121D01*
X528767Y424820D01*
X527990Y425269D01*
Y428203D01*
X528767Y428652D01*
X529466Y429351D01*
X529961Y430208D01*
X530217Y431163D01*
Y432152D01*
X529961Y433107D01*
X529466Y433964D01*
X528767Y434663D01*
X527990Y435111D01*
Y438046D01*
X528767Y438494D01*
X529466Y439194D01*
X529961Y440050D01*
X530217Y441006D01*
Y441994D01*
X529961Y442950D01*
X529466Y443806D01*
X528767Y444506D01*
X527990Y444954D01*
Y447889D01*
X528767Y448337D01*
X529466Y449036D01*
X529961Y449893D01*
X530217Y450848D01*
Y451837D01*
X529961Y452792D01*
X529466Y453649D01*
X528767Y454348D01*
X527990Y454797D01*
Y457731D01*
X528767Y458180D01*
X529466Y458879D01*
X529961Y459735D01*
X530217Y460691D01*
Y461680D01*
X529961Y462635D01*
X529466Y463491D01*
X528767Y464190D01*
X527990Y464639D01*
Y467574D01*
X528767Y468022D01*
X529466Y468721D01*
X529961Y469578D01*
X530217Y470533D01*
Y471522D01*
X529961Y472477D01*
X529466Y473334D01*
X528767Y474033D01*
X527990Y474481D01*
Y477114D01*
X530217D01*
Y481630D01*
X530679Y481821D01*
X546971Y465529D01*
Y271734D01*
X546471Y271527D01*
X545216Y272782D01*
X545259Y273000D01*
X545075Y273928D01*
X544549Y274714D01*
X543762Y275240D01*
X543185Y275355D01*
X543187Y275366D01*
Y277000D01*
Y308000D01*
Y355343D01*
X543070Y355928D01*
X542739Y356424D01*
X529184Y369978D01*
X529453Y370980D01*
Y372020D01*
X529183Y373026D01*
X528663Y373927D01*
X527927Y374663D01*
X527026Y375183D01*
X526020Y375453D01*
X524980D01*
X523974Y375183D01*
X523073Y374663D01*
X522337Y373927D01*
X521817Y373026D01*
X521547Y372020D01*
Y370980D01*
X521817Y369974D01*
X522337Y369073D01*
X523073Y368337D01*
X523974Y367817D01*
X524980Y367547D01*
X526020D01*
X527022Y367815D01*
X540128Y354709D01*
Y342441D01*
X539029D01*
Y345797D01*
X538913Y346382D01*
X538581Y346879D01*
X527779Y357681D01*
Y358252D01*
X527927Y358337D01*
X528663Y359073D01*
X529183Y359974D01*
X529453Y360980D01*
Y362020D01*
X529183Y363026D01*
X528663Y363927D01*
X527927Y364663D01*
X527026Y365183D01*
X526020Y365453D01*
X524980D01*
X523974Y365183D01*
X523073Y364663D01*
X522337Y363927D01*
X521817Y363026D01*
X521547Y362020D01*
Y360980D01*
X521817Y359974D01*
X522337Y359073D01*
X523073Y358337D01*
X523974Y357817D01*
X524720Y357617D01*
Y357047D01*
X524837Y356462D01*
X525169Y355966D01*
X525220Y355915D01*
X525028Y355453D01*
X524980D01*
X523974Y355183D01*
X523073Y354663D01*
X522337Y353927D01*
X521817Y353026D01*
X521547Y352020D01*
Y350980D01*
X521817Y349974D01*
X522337Y349073D01*
X523073Y348337D01*
X523971Y347819D01*
Y345181D01*
X523073Y344663D01*
X522337Y343927D01*
X521817Y343026D01*
X521547Y342020D01*
Y340980D01*
X521817Y339974D01*
X522337Y339073D01*
X523073Y338337D01*
X523974Y337817D01*
X524980Y337547D01*
X526020D01*
X527026Y337817D01*
X527927Y338337D01*
X528663Y339073D01*
X529183Y339974D01*
X529453Y340980D01*
Y342020D01*
X529183Y343026D01*
X528663Y343927D01*
X527927Y344663D01*
X527029Y345181D01*
Y347819D01*
X527927Y348337D01*
X528663Y349073D01*
X529183Y349974D01*
X529453Y350980D01*
Y351028D01*
X529915Y351220D01*
X535971Y345164D01*
Y342441D01*
X533843D01*
Y335126D01*
X535971D01*
Y334057D01*
X535254Y333643D01*
X534573Y332962D01*
X534092Y332128D01*
X533843Y331198D01*
Y330235D01*
X534092Y329305D01*
X534573Y328471D01*
X535254Y327790D01*
X536088Y327308D01*
X537018Y327059D01*
X537982D01*
X538912Y327308D01*
X539628Y327722D01*
X540128Y327529D01*
Y312346D01*
X539666Y312154D01*
X539239Y312581D01*
X538743Y312913D01*
X538158Y313029D01*
X529181D01*
X528663Y313927D01*
X527927Y314663D01*
X527026Y315183D01*
X526020Y315453D01*
X524980D01*
X523974Y315183D01*
X523073Y314663D01*
X522337Y313927D01*
X522029Y313394D01*
X521529Y313528D01*
Y317367D01*
X522786Y318623D01*
X523073Y318337D01*
X523974Y317817D01*
X524980Y317547D01*
X526020D01*
X527026Y317817D01*
X527927Y318337D01*
X528663Y319073D01*
X529183Y319974D01*
X529453Y320980D01*
Y322020D01*
X529183Y323026D01*
X528663Y323927D01*
X527927Y324663D01*
X527026Y325183D01*
X526020Y325453D01*
X525972D01*
X525780Y325915D01*
X525832Y325966D01*
X526163Y326462D01*
X526279Y327047D01*
Y327617D01*
X527026Y327817D01*
X527927Y328337D01*
X528663Y329073D01*
X529183Y329974D01*
X529453Y330980D01*
Y332020D01*
X529183Y333026D01*
X528663Y333927D01*
X527927Y334663D01*
X527026Y335183D01*
X526020Y335453D01*
X524980D01*
X523974Y335183D01*
X523073Y334663D01*
X522337Y333927D01*
X521817Y333026D01*
X521547Y332020D01*
Y330980D01*
X521817Y329974D01*
X522337Y329073D01*
X523073Y328337D01*
X523221Y328252D01*
Y327681D01*
X516919Y321379D01*
X516587Y320882D01*
X516471Y320297D01*
Y306172D01*
X516587Y305586D01*
X516919Y305090D01*
X519518Y302491D01*
Y275425D01*
X516457D01*
X515529Y275240D01*
X514742Y274714D01*
X514217Y273928D01*
X514032Y273000D01*
X514076Y272782D01*
X495702Y254408D01*
X495370Y253912D01*
X495254Y253327D01*
Y225340D01*
X494538Y224927D01*
X493857Y224246D01*
X493375Y223412D01*
X493126Y222481D01*
Y221518D01*
X493375Y220588D01*
X493857Y219754D01*
X494538Y219073D01*
X495372Y218592D01*
X496302Y218342D01*
X497265D01*
X498195Y218592D01*
X499029Y219073D01*
X499710Y219754D01*
X500192Y220588D01*
X500441Y221518D01*
Y222481D01*
X500192Y223412D01*
X499710Y224246D01*
X499029Y224927D01*
X498313Y225340D01*
Y252693D01*
X506464Y260844D01*
X506852Y260526D01*
X506587Y260129D01*
X506471Y259543D01*
Y252000D01*
X506587Y251415D01*
X506919Y250919D01*
X530687Y227150D01*
Y225658D01*
X528559D01*
Y218342D01*
X530687D01*
Y215158D01*
X528559D01*
Y207842D01*
X535874D01*
Y215158D01*
X533746D01*
Y218342D01*
X535874D01*
Y225658D01*
X533746D01*
Y227783D01*
X533630Y228369D01*
X533364Y228766D01*
X533752Y229085D01*
X536471Y226366D01*
Y207417D01*
X533711Y204658D01*
X528559D01*
Y197343D01*
X530687D01*
Y193840D01*
X529971Y193427D01*
X529290Y192746D01*
X528808Y191912D01*
X528559Y190981D01*
Y190018D01*
X528808Y189088D01*
X529290Y188254D01*
X529971Y187573D01*
X530805Y187092D01*
X531735Y186843D01*
X532698D01*
X533628Y187092D01*
X534462Y187573D01*
X535143Y188254D01*
X535625Y189088D01*
X535874Y190018D01*
Y190981D01*
X535625Y191912D01*
X535143Y192746D01*
X534462Y193427D01*
X533746Y193840D01*
Y197343D01*
X535874D01*
Y202495D01*
X539081Y205702D01*
X539413Y206198D01*
X539471Y206488D01*
X539971Y206439D01*
Y198374D01*
X537843D01*
Y191059D01*
X544183D01*
Y162399D01*
X543683Y162246D01*
X542912Y162692D01*
X541982Y162941D01*
X541018D01*
X540219Y162727D01*
X530365Y172581D01*
X529869Y172913D01*
X529284Y173029D01*
X492845D01*
X492796Y173529D01*
X493085Y173587D01*
X493581Y173919D01*
X495505Y175842D01*
X500941D01*
Y183158D01*
X499693D01*
X499502Y183619D01*
X502022Y186140D01*
X502354Y186636D01*
X502470Y187221D01*
Y196843D01*
X502354Y197428D01*
X502022Y197924D01*
X500227Y199720D01*
X500441Y200518D01*
Y201482D01*
X500192Y202412D01*
X499710Y203246D01*
X499029Y203927D01*
X498195Y204408D01*
X497265Y204658D01*
X496302D01*
X495372Y204408D01*
X494538Y203927D01*
X493857Y203246D01*
X493375Y202412D01*
X493126Y201482D01*
Y200518D01*
X493375Y199588D01*
X493857Y198754D01*
X494538Y198073D01*
X495372Y197592D01*
X496302Y197343D01*
X497265D01*
X498064Y197557D01*
X499411Y196209D01*
Y194158D01*
X493126D01*
Y190954D01*
X493099Y190943D01*
X492626Y190871D01*
X492222Y191571D01*
X491571Y192222D01*
X490772Y192683D01*
X489882Y192922D01*
X488961D01*
X488071Y192683D01*
X487273Y192222D01*
X486621Y191571D01*
X486160Y190772D01*
X485922Y189882D01*
Y188961D01*
X486160Y188071D01*
X486621Y187273D01*
X487273Y186621D01*
X488071Y186160D01*
X488961Y185922D01*
X489882D01*
X490772Y186160D01*
X491571Y186621D01*
X492222Y187273D01*
X492626Y187972D01*
X493099Y187900D01*
X493126Y187889D01*
Y186843D01*
X497746D01*
X497937Y186381D01*
X496419Y184862D01*
X496087Y184365D01*
X495971Y183780D01*
Y183158D01*
X493626D01*
Y178289D01*
X491866Y176529D01*
X429629D01*
X429438Y176991D01*
X430289Y177842D01*
X435441D01*
Y182995D01*
X437022Y184576D01*
X437354Y185072D01*
X437470Y185658D01*
Y198343D01*
X437354Y198928D01*
X437022Y199424D01*
X435227Y201220D01*
X435441Y202018D01*
Y202981D01*
X435192Y203912D01*
X434710Y204746D01*
X434029Y205427D01*
X433195Y205908D01*
X432265Y206157D01*
X431302D01*
X430372Y205908D01*
X429538Y205427D01*
X428857Y204746D01*
X428375Y203912D01*
X428126Y202981D01*
Y202018D01*
X428375Y201088D01*
X428857Y200254D01*
X429538Y199573D01*
X430372Y199092D01*
X431302Y198843D01*
X432265D01*
X433064Y199057D01*
X434411Y197709D01*
Y195658D01*
X428126D01*
Y188342D01*
X434411D01*
Y186291D01*
X433278Y185158D01*
X428126D01*
Y180005D01*
X424650Y176529D01*
X367129D01*
X366938Y176991D01*
X367789Y177842D01*
X372941D01*
Y182995D01*
X374522Y184576D01*
X374854Y185072D01*
X374970Y185658D01*
Y198343D01*
X374854Y198928D01*
X374522Y199424D01*
X372727Y201220D01*
X372941Y202018D01*
Y202981D01*
X372692Y203912D01*
X372210Y204746D01*
X371529Y205427D01*
X370695Y205908D01*
X369765Y206157D01*
X368802D01*
X367872Y205908D01*
X367038Y205427D01*
X366357Y204746D01*
X365875Y203912D01*
X365626Y202981D01*
Y202018D01*
X365875Y201088D01*
X366357Y200254D01*
X367038Y199573D01*
X367872Y199092D01*
X368802Y198843D01*
X369765D01*
X370564Y199057D01*
X371912Y197709D01*
Y195658D01*
X365626D01*
Y188342D01*
X371912D01*
Y186291D01*
X370778Y185158D01*
X365626D01*
Y180005D01*
X362150Y176529D01*
X302629D01*
X302438Y176991D01*
X302789Y177342D01*
X307941D01*
Y180843D01*
X308440Y180942D01*
X308937Y181274D01*
X311917Y184254D01*
X312249Y184750D01*
X312365Y185336D01*
Y186164D01*
X312249Y186749D01*
X312029Y187078D01*
Y200000D01*
X311913Y200585D01*
X311581Y201081D01*
X310407Y202256D01*
X309911Y202587D01*
X309326Y202704D01*
X307881D01*
X307692Y203412D01*
X307210Y204246D01*
X306529Y204927D01*
X305695Y205408D01*
X304765Y205658D01*
X303802D01*
X302872Y205408D01*
X302038Y204927D01*
X301357Y204246D01*
X300875Y203412D01*
X300626Y202482D01*
Y201519D01*
X300875Y200588D01*
X301357Y199754D01*
X302038Y199073D01*
X302872Y198592D01*
X303802Y198343D01*
X304765D01*
X305695Y198592D01*
X306529Y199073D01*
X307101Y199645D01*
X308692D01*
X308971Y199366D01*
Y186500D01*
X309087Y185915D01*
X309153Y185816D01*
X308295Y184958D01*
X307941Y184658D01*
Y184658D01*
X307941Y184658D01*
X300626D01*
Y179505D01*
X297650Y176529D01*
X244529D01*
Y179283D01*
X244441Y179728D01*
Y185158D01*
X239289D01*
X236529Y187917D01*
Y196583D01*
X239503Y199557D01*
X240302Y199343D01*
X241265D01*
X242195Y199592D01*
X243029Y200073D01*
X243710Y200754D01*
X244192Y201588D01*
X244441Y202519D01*
Y203482D01*
X244192Y204412D01*
X243710Y205246D01*
X243029Y205927D01*
X242195Y206408D01*
X241265Y206658D01*
X240302D01*
X239372Y206408D01*
X238538Y205927D01*
X237857Y205246D01*
X237375Y204412D01*
X237126Y203482D01*
Y202519D01*
X237340Y201719D01*
X233919Y198298D01*
X233587Y197802D01*
X233471Y197216D01*
Y187284D01*
X233587Y186698D01*
X233919Y186202D01*
X237126Y182995D01*
Y177842D01*
X240971D01*
Y176000D01*
X241087Y175415D01*
X241419Y174919D01*
X241471Y174866D01*
Y133500D01*
X241587Y132915D01*
X241919Y132419D01*
X255325Y119012D01*
X255193Y118784D01*
X254878Y117608D01*
Y116392D01*
X255193Y115216D01*
X255802Y114162D01*
X256662Y113301D01*
X257716Y112693D01*
X258892Y112378D01*
X260108D01*
X261284Y112693D01*
X262338Y113301D01*
X263198Y114162D01*
X263807Y115216D01*
X264122Y116392D01*
Y117608D01*
X263807Y118784D01*
X263198Y119838D01*
X262338Y120699D01*
X261284Y121307D01*
X260108Y121622D01*
X258892D01*
X257716Y121307D01*
X257488Y121175D01*
X244529Y134134D01*
Y173471D01*
X484511D01*
X484645Y172971D01*
X484351Y172801D01*
X483699Y172149D01*
X483239Y171351D01*
X483000Y170461D01*
Y169539D01*
X483239Y168649D01*
X483699Y167851D01*
X484351Y167199D01*
X485149Y166738D01*
X486039Y166500D01*
X486961D01*
X487851Y166738D01*
X488649Y167199D01*
X489301Y167851D01*
X489761Y168649D01*
X490000Y169539D01*
Y169971D01*
X528650D01*
X538057Y160564D01*
X537843Y159765D01*
Y158802D01*
X538092Y157872D01*
X538573Y157038D01*
X539254Y156357D01*
X539721Y156088D01*
Y152303D01*
X539117Y151954D01*
X538546Y151383D01*
X538142Y150684D01*
X537933Y149904D01*
Y149096D01*
X538142Y148316D01*
X538546Y147617D01*
X538827Y147336D01*
X539082Y147000D01*
X538827Y146665D01*
X538546Y146383D01*
X538342Y146029D01*
X538000D01*
X537415Y145913D01*
X536919Y145581D01*
X534919Y143581D01*
X534587Y143085D01*
X534471Y142500D01*
Y136634D01*
X529004Y131167D01*
X522613D01*
X522269Y131763D01*
X521625Y132407D01*
X520836Y132863D01*
X519956Y133098D01*
X519044D01*
X518164Y132863D01*
X517375Y132407D01*
X516731Y131763D01*
X516275Y130974D01*
X516039Y130093D01*
Y129182D01*
X516275Y128302D01*
X516731Y127513D01*
X517375Y126869D01*
X518164Y126413D01*
X519044Y126177D01*
X519956D01*
X520836Y126413D01*
X521625Y126869D01*
X522269Y127513D01*
X522613Y128108D01*
X529638D01*
X530223Y128225D01*
X530719Y128556D01*
X537081Y134919D01*
X537413Y135415D01*
X537529Y136000D01*
Y136200D01*
X537933Y136433D01*
X539471D01*
Y128271D01*
X532813Y121614D01*
X532317Y121679D01*
X532269Y121763D01*
X531625Y122407D01*
X530836Y122863D01*
X529956Y123098D01*
X529044D01*
X528164Y122863D01*
X527375Y122407D01*
X526731Y121763D01*
X526275Y120974D01*
X526039Y120093D01*
Y119182D01*
X526275Y118302D01*
X526731Y117513D01*
X527375Y116869D01*
X528164Y116413D01*
X529044Y116177D01*
X529956D01*
X530836Y116413D01*
X531625Y116869D01*
X532269Y117513D01*
X532613Y118108D01*
X533000D01*
X533585Y118225D01*
X534081Y118556D01*
X542081Y126556D01*
X542413Y127052D01*
X542529Y127638D01*
Y136433D01*
X544067D01*
Y140360D01*
X546471Y142763D01*
X546971Y142556D01*
Y128971D01*
X521529Y103529D01*
X177500D01*
Y105500D01*
X156329Y126671D01*
Y161539D01*
X156829Y161722D01*
X157270Y161280D01*
Y141598D01*
X157386Y141013D01*
X157718Y140517D01*
X163850Y134384D01*
Y123524D01*
X169987D01*
X178003Y115508D01*
X178154Y115407D01*
Y114928D01*
X178450Y113822D01*
X179022Y112831D01*
X179831Y112022D01*
X180822Y111450D01*
X181928Y111153D01*
X183072D01*
X184178Y111450D01*
X185169Y112022D01*
X185978Y112831D01*
X186550Y113822D01*
X186846Y114928D01*
Y116072D01*
X186550Y117178D01*
X185978Y118169D01*
X185169Y118978D01*
X184178Y119550D01*
X183072Y119846D01*
X181928D01*
X180822Y119550D01*
X179831Y118978D01*
X179345Y118491D01*
X172150Y125687D01*
Y133852D01*
X172611Y134044D01*
X188826Y117829D01*
X188450Y117178D01*
X188154Y116072D01*
Y114928D01*
X188450Y113822D01*
X189022Y112831D01*
X189831Y112022D01*
X190822Y111450D01*
X191928Y111153D01*
X193072D01*
X193983Y111398D01*
X194445Y111151D01*
X194514Y111074D01*
X194845Y110577D01*
X196004Y109419D01*
X196501Y109087D01*
X197086Y108971D01*
X223000D01*
X223585Y109087D01*
X224081Y109419D01*
X227488Y112825D01*
X227716Y112693D01*
X228891Y112378D01*
X230108D01*
X231284Y112693D01*
X232338Y113301D01*
X233198Y114162D01*
X233807Y115216D01*
X234122Y116392D01*
Y117608D01*
X233807Y118784D01*
X233198Y119838D01*
X232338Y120699D01*
X231284Y121307D01*
X230108Y121622D01*
X228891D01*
X227716Y121307D01*
X226662Y120699D01*
X225801Y119838D01*
X225193Y118784D01*
X224878Y117608D01*
Y116392D01*
X225193Y115216D01*
X225325Y114988D01*
X222366Y112029D01*
X220740D01*
X220674Y112529D01*
X221284Y112693D01*
X222338Y113301D01*
X223199Y114162D01*
X223807Y115216D01*
X224122Y116392D01*
Y117608D01*
X223807Y118784D01*
X223199Y119838D01*
X222338Y120699D01*
X221284Y121307D01*
X220638Y121480D01*
Y129886D01*
X220962Y130073D01*
X221643Y130754D01*
X222125Y131588D01*
X222374Y132518D01*
Y133482D01*
X222125Y134412D01*
X221643Y135246D01*
X220962Y135927D01*
X220128Y136408D01*
X219198Y136658D01*
X218235D01*
X217305Y136408D01*
X216471Y135927D01*
X215790Y135246D01*
X215308Y134412D01*
X215059Y133482D01*
Y132518D01*
X215308Y131588D01*
X215790Y130754D01*
X216471Y130073D01*
X217305Y129592D01*
X217579Y129518D01*
Y121228D01*
X216662Y120699D01*
X215802Y119838D01*
X215193Y118784D01*
X214878Y117608D01*
Y116392D01*
X215193Y115216D01*
X215802Y114162D01*
X216662Y113301D01*
X217716Y112693D01*
X218326Y112529D01*
X218261Y112029D01*
X206846D01*
Y119846D01*
X199801D01*
X199653Y119876D01*
X198571D01*
X186941Y131505D01*
Y136658D01*
X179626D01*
Y132008D01*
X179164Y131817D01*
X172179Y138802D01*
Y144315D01*
X172150Y144463D01*
Y153476D01*
X167029D01*
Y160842D01*
X167649Y161199D01*
X168301Y161851D01*
X168762Y162649D01*
X169000Y163539D01*
Y164461D01*
X168762Y165351D01*
X168301Y166149D01*
X167649Y166801D01*
X166851Y167262D01*
X165961Y167500D01*
X165039D01*
X164149Y167262D01*
X163351Y166801D01*
X162813Y166262D01*
X162500Y166193D01*
X162187Y166262D01*
X161649Y166801D01*
X160851Y167262D01*
X159961Y167500D01*
X159039D01*
X158149Y167262D01*
X157351Y166801D01*
X156829Y166278D01*
X156329Y166461D01*
Y471000D01*
X160000D01*
X183171Y494171D01*
X521000D01*
Y491500D01*
D02*
G37*
G36*
X540128Y307366D02*
Y298941D01*
X536005D01*
X532365Y302581D01*
X531869Y302913D01*
X531284Y303029D01*
X529181D01*
X528663Y303927D01*
X527927Y304663D01*
X527026Y305183D01*
X526020Y305453D01*
X524980D01*
X523978Y305185D01*
X521529Y307633D01*
Y309472D01*
X522029Y309606D01*
X522337Y309073D01*
X523073Y308337D01*
X523974Y307817D01*
X524980Y307547D01*
X526020D01*
X527026Y307817D01*
X527927Y308337D01*
X528663Y309073D01*
X529181Y309971D01*
X537524D01*
X540128Y307366D01*
D02*
G37*
G36*
X533843Y296778D02*
Y291626D01*
X535682D01*
Y290845D01*
X528919Y284081D01*
X528587Y283585D01*
X528471Y283000D01*
Y265090D01*
X526453Y263073D01*
X525919Y263246D01*
X525783Y263928D01*
X525258Y264714D01*
X524471Y265240D01*
X524445Y265245D01*
Y265755D01*
X524471Y265760D01*
X525258Y266286D01*
X525783Y267072D01*
X525968Y268000D01*
X525783Y268928D01*
X525258Y269714D01*
X524471Y270240D01*
X524445Y270245D01*
Y270755D01*
X524471Y270760D01*
X525258Y271286D01*
X525783Y272072D01*
X525968Y273000D01*
X525783Y273928D01*
X525258Y274714D01*
X524471Y275240D01*
X523543Y275425D01*
X522577D01*
Y287547D01*
X529453D01*
Y295453D01*
X522577D01*
Y298180D01*
X523039Y298371D01*
X523073Y298337D01*
X523974Y297817D01*
X524980Y297547D01*
X526020D01*
X527026Y297817D01*
X527927Y298337D01*
X528663Y299073D01*
X529181Y299971D01*
X530650D01*
X533843Y296778D01*
D02*
G37*
G36*
X540128Y282475D02*
X539894Y282378D01*
X539628Y282313D01*
X538851Y282762D01*
X537961Y283000D01*
X537039D01*
X536149Y282762D01*
X535351Y282301D01*
X534699Y281649D01*
X534238Y280851D01*
X534000Y279961D01*
Y279039D01*
X534238Y278149D01*
X534699Y277351D01*
X535351Y276699D01*
X536149Y276238D01*
X537039Y276000D01*
X537961D01*
X538851Y276238D01*
X539107Y276387D01*
X539569Y275924D01*
X539569Y275899D01*
X539415Y275425D01*
X535748D01*
X534820Y275240D01*
X534034Y274714D01*
X533508Y273928D01*
X533323Y273000D01*
X533508Y272072D01*
X534034Y271286D01*
X534820Y270760D01*
X534846Y270755D01*
Y270245D01*
X534820Y270240D01*
X534034Y269714D01*
X533508Y268928D01*
X533323Y268000D01*
X533508Y267072D01*
X534034Y266286D01*
X534820Y265760D01*
X534846Y265755D01*
Y265245D01*
X534820Y265240D01*
X534034Y264714D01*
X533508Y263928D01*
X533323Y263000D01*
X533508Y262072D01*
X534034Y261286D01*
X534820Y260760D01*
X534846Y260755D01*
Y260245D01*
X534820Y260240D01*
X534034Y259714D01*
X533508Y258928D01*
X533323Y258000D01*
X533508Y257072D01*
X534034Y256286D01*
X534820Y255760D01*
X535748Y255575D01*
X542835D01*
X543683Y255744D01*
X544183Y255507D01*
Y198374D01*
X543029D01*
Y228500D01*
X542913Y229085D01*
X542581Y229581D01*
X521529Y250634D01*
Y255575D01*
X523543D01*
X524471Y255760D01*
X525258Y256286D01*
X525783Y257072D01*
X525968Y258000D01*
X525924Y258218D01*
X531081Y263375D01*
X531413Y263871D01*
X531529Y264457D01*
Y282366D01*
X538293Y289130D01*
X538625Y289627D01*
X538741Y290212D01*
Y291626D01*
X540128D01*
Y282475D01*
D02*
G37*
G36*
X514081Y257754D02*
X514217Y257072D01*
X514742Y256286D01*
X515529Y255760D01*
X516457Y255575D01*
X518471D01*
Y250000D01*
X518587Y249415D01*
X518852Y249018D01*
X518464Y248699D01*
X512529Y254633D01*
Y256910D01*
X513547Y257927D01*
X514081Y257754D01*
D02*
G37*
G36*
X162813Y161738D02*
X163351Y161199D01*
X163971Y160842D01*
Y153476D01*
X163850D01*
Y140453D01*
X169120D01*
Y138169D01*
X169237Y137583D01*
X169568Y137087D01*
X169646Y137009D01*
X169455Y136547D01*
X166013D01*
X160329Y142232D01*
Y160599D01*
X160851Y160739D01*
X161649Y161199D01*
X162187Y161738D01*
X162500Y161807D01*
X162813Y161738D01*
D02*
G37*
G36*
X194007Y120114D02*
X193748Y119665D01*
X193072Y119846D01*
X191928D01*
X191302Y119679D01*
X182100Y128881D01*
X182292Y129342D01*
X184778D01*
X194007Y120114D01*
D02*
G37*
%LPC*%
G36*
X182756Y485339D02*
X175244D01*
Y477827D01*
X182756D01*
Y485339D01*
D02*
G37*
G36*
X433495Y475496D02*
X432506D01*
X431550Y475240D01*
X430694Y474746D01*
X429994Y474046D01*
X429500Y473190D01*
X429244Y472235D01*
Y471246D01*
X429500Y470290D01*
X429994Y469434D01*
X430694Y468735D01*
X431550Y468240D01*
X432506Y467984D01*
X433495D01*
X434450Y468240D01*
X435306Y468735D01*
X436005Y469434D01*
X436500Y470290D01*
X436756Y471246D01*
Y472235D01*
X436500Y473190D01*
X436005Y474046D01*
X435306Y474746D01*
X434450Y475240D01*
X433495Y475496D01*
D02*
G37*
G36*
X242994D02*
X242005D01*
X241050Y475240D01*
X240194Y474746D01*
X239494Y474046D01*
X239000Y473190D01*
X238744Y472235D01*
Y471246D01*
X239000Y470290D01*
X239494Y469434D01*
X240194Y468735D01*
X241050Y468240D01*
X242005Y467984D01*
X242994D01*
X243950Y468240D01*
X244806Y468735D01*
X245505Y469434D01*
X246000Y470290D01*
X246256Y471246D01*
Y472235D01*
X246000Y473190D01*
X245505Y474046D01*
X244806Y474746D01*
X243950Y475240D01*
X242994Y475496D01*
D02*
G37*
G36*
X179495D02*
X178506D01*
X177550Y475240D01*
X176694Y474746D01*
X175995Y474046D01*
X175500Y473190D01*
X175244Y472235D01*
Y471246D01*
X175500Y470290D01*
X175995Y469434D01*
X176694Y468735D01*
X177550Y468240D01*
X178506Y467984D01*
X179495D01*
X180450Y468240D01*
X181306Y468735D01*
X182006Y469434D01*
X182500Y470290D01*
X182756Y471246D01*
Y472235D01*
X182500Y473190D01*
X182006Y474046D01*
X181306Y474746D01*
X180450Y475240D01*
X179495Y475496D01*
D02*
G37*
G36*
X369495Y475153D02*
X368506D01*
X367550Y474898D01*
X366694Y474403D01*
X365995Y473704D01*
X365500Y472847D01*
X365244Y471892D01*
Y470903D01*
X365500Y469948D01*
X365995Y469092D01*
X366694Y468392D01*
X367550Y467898D01*
X368506Y467642D01*
X369495D01*
X370450Y467898D01*
X371306Y468392D01*
X372006Y469092D01*
X372500Y469948D01*
X372756Y470903D01*
Y471892D01*
X372500Y472847D01*
X372006Y473704D01*
X371306Y474403D01*
X370450Y474898D01*
X369495Y475153D01*
D02*
G37*
G36*
X305995D02*
X305006D01*
X304050Y474898D01*
X303194Y474403D01*
X302495Y473704D01*
X302000Y472847D01*
X301744Y471892D01*
Y470903D01*
X302000Y469948D01*
X302495Y469092D01*
X303194Y468392D01*
X304050Y467898D01*
X305006Y467642D01*
X305995D01*
X306950Y467898D01*
X307806Y468392D01*
X308506Y469092D01*
X309000Y469948D01*
X309256Y470903D01*
Y471892D01*
X309000Y472847D01*
X308506Y473704D01*
X307806Y474403D01*
X306950Y474898D01*
X305995Y475153D01*
D02*
G37*
G36*
X497455Y474496D02*
X496466D01*
X495511Y474240D01*
X494654Y473746D01*
X493955Y473046D01*
X493461Y472190D01*
X493205Y471235D01*
Y470246D01*
X493461Y469290D01*
X493955Y468434D01*
X494654Y467735D01*
X495511Y467240D01*
X496466Y466984D01*
X497455D01*
X498410Y467240D01*
X499267Y467735D01*
X499966Y468434D01*
X500461Y469290D01*
X500716Y470246D01*
Y471235D01*
X500461Y472190D01*
X499966Y473046D01*
X499267Y473746D01*
X498410Y474240D01*
X497455Y474496D01*
D02*
G37*
G36*
X433495Y465654D02*
X432506D01*
X431550Y465398D01*
X430694Y464903D01*
X429994Y464204D01*
X429500Y463347D01*
X429244Y462392D01*
Y461403D01*
X429500Y460448D01*
X429994Y459591D01*
X430694Y458892D01*
X431550Y458398D01*
X432506Y458142D01*
X433495D01*
X434450Y458398D01*
X435306Y458892D01*
X436005Y459591D01*
X436500Y460448D01*
X436756Y461403D01*
Y462392D01*
X436500Y463347D01*
X436005Y464204D01*
X435306Y464903D01*
X434450Y465398D01*
X433495Y465654D01*
D02*
G37*
G36*
X242994D02*
X242005D01*
X241050Y465398D01*
X240194Y464903D01*
X239494Y464204D01*
X239000Y463347D01*
X238744Y462392D01*
Y461403D01*
X239000Y460448D01*
X239494Y459591D01*
X240194Y458892D01*
X241050Y458398D01*
X242005Y458142D01*
X242994D01*
X243950Y458398D01*
X244806Y458892D01*
X245505Y459591D01*
X246000Y460448D01*
X246256Y461403D01*
Y462392D01*
X246000Y463347D01*
X245505Y464204D01*
X244806Y464903D01*
X243950Y465398D01*
X242994Y465654D01*
D02*
G37*
G36*
X179495D02*
X178506D01*
X177550Y465398D01*
X176694Y464903D01*
X175995Y464204D01*
X175500Y463347D01*
X175244Y462392D01*
Y461403D01*
X175500Y460448D01*
X175995Y459591D01*
X176694Y458892D01*
X177550Y458398D01*
X178506Y458142D01*
X179495D01*
X180450Y458398D01*
X181306Y458892D01*
X182006Y459591D01*
X182500Y460448D01*
X182756Y461403D01*
Y462392D01*
X182500Y463347D01*
X182006Y464204D01*
X181306Y464903D01*
X180450Y465398D01*
X179495Y465654D01*
D02*
G37*
G36*
X369495Y465311D02*
X368506D01*
X367550Y465055D01*
X366694Y464561D01*
X365995Y463861D01*
X365500Y463005D01*
X365244Y462050D01*
Y461061D01*
X365500Y460105D01*
X365995Y459249D01*
X366694Y458550D01*
X367550Y458055D01*
X368506Y457799D01*
X369495D01*
X370450Y458055D01*
X371306Y458550D01*
X372006Y459249D01*
X372500Y460105D01*
X372756Y461061D01*
Y462050D01*
X372500Y463005D01*
X372006Y463861D01*
X371306Y464561D01*
X370450Y465055D01*
X369495Y465311D01*
D02*
G37*
G36*
X305995D02*
X305006D01*
X304050Y465055D01*
X303194Y464561D01*
X302495Y463861D01*
X302000Y463005D01*
X301744Y462050D01*
Y461061D01*
X302000Y460105D01*
X302495Y459249D01*
X303194Y458550D01*
X304050Y458055D01*
X305006Y457799D01*
X305995D01*
X306950Y458055D01*
X307806Y458550D01*
X308506Y459249D01*
X309000Y460105D01*
X309256Y461061D01*
Y462050D01*
X309000Y463005D01*
X308506Y463861D01*
X307806Y464561D01*
X306950Y465055D01*
X305995Y465311D01*
D02*
G37*
G36*
X497455Y464653D02*
X496466D01*
X495511Y464398D01*
X494654Y463903D01*
X493955Y463204D01*
X493461Y462347D01*
X493205Y461392D01*
Y460403D01*
X493461Y459448D01*
X493955Y458592D01*
X494654Y457892D01*
X495511Y457398D01*
X496466Y457142D01*
X497455D01*
X498410Y457398D01*
X499267Y457892D01*
X499966Y458592D01*
X500461Y459448D01*
X500716Y460403D01*
Y461392D01*
X500461Y462347D01*
X499966Y463204D01*
X499267Y463903D01*
X498410Y464398D01*
X497455Y464653D01*
D02*
G37*
G36*
X433495Y455811D02*
X432506D01*
X431550Y455555D01*
X430694Y455061D01*
X429994Y454361D01*
X429500Y453505D01*
X429244Y452550D01*
Y451561D01*
X429500Y450605D01*
X429994Y449749D01*
X430694Y449050D01*
X431550Y448555D01*
X432506Y448299D01*
X433495D01*
X434450Y448555D01*
X435306Y449050D01*
X436005Y449749D01*
X436500Y450605D01*
X436756Y451561D01*
Y452550D01*
X436500Y453505D01*
X436005Y454361D01*
X435306Y455061D01*
X434450Y455555D01*
X433495Y455811D01*
D02*
G37*
G36*
X242994D02*
X242005D01*
X241050Y455555D01*
X240194Y455061D01*
X239494Y454361D01*
X239000Y453505D01*
X238744Y452550D01*
Y451561D01*
X239000Y450605D01*
X239494Y449749D01*
X240194Y449050D01*
X241050Y448555D01*
X242005Y448299D01*
X242994D01*
X243950Y448555D01*
X244806Y449050D01*
X245505Y449749D01*
X246000Y450605D01*
X246256Y451561D01*
Y452550D01*
X246000Y453505D01*
X245505Y454361D01*
X244806Y455061D01*
X243950Y455555D01*
X242994Y455811D01*
D02*
G37*
G36*
X179495D02*
X178506D01*
X177550Y455555D01*
X176694Y455061D01*
X175995Y454361D01*
X175500Y453505D01*
X175244Y452550D01*
Y451561D01*
X175500Y450605D01*
X175995Y449749D01*
X176694Y449050D01*
X177550Y448555D01*
X178506Y448299D01*
X179495D01*
X180450Y448555D01*
X181306Y449050D01*
X182006Y449749D01*
X182500Y450605D01*
X182756Y451561D01*
Y452550D01*
X182500Y453505D01*
X182006Y454361D01*
X181306Y455061D01*
X180450Y455555D01*
X179495Y455811D01*
D02*
G37*
G36*
X369495Y455469D02*
X368506D01*
X367550Y455212D01*
X366694Y454718D01*
X365995Y454019D01*
X365500Y453162D01*
X365244Y452207D01*
Y451218D01*
X365500Y450263D01*
X365995Y449406D01*
X366694Y448707D01*
X367550Y448213D01*
X368506Y447957D01*
X369495D01*
X370450Y448213D01*
X371306Y448707D01*
X372006Y449406D01*
X372500Y450263D01*
X372756Y451218D01*
Y452207D01*
X372500Y453162D01*
X372006Y454019D01*
X371306Y454718D01*
X370450Y455212D01*
X369495Y455469D01*
D02*
G37*
G36*
X305995D02*
X305006D01*
X304050Y455212D01*
X303194Y454718D01*
X302495Y454019D01*
X302000Y453162D01*
X301744Y452207D01*
Y451218D01*
X302000Y450263D01*
X302495Y449406D01*
X303194Y448707D01*
X304050Y448213D01*
X305006Y447957D01*
X305995D01*
X306950Y448213D01*
X307806Y448707D01*
X308506Y449406D01*
X309000Y450263D01*
X309256Y451218D01*
Y452207D01*
X309000Y453162D01*
X308506Y454019D01*
X307806Y454718D01*
X306950Y455212D01*
X305995Y455469D01*
D02*
G37*
G36*
X497455Y454811D02*
X496466D01*
X495511Y454555D01*
X494654Y454061D01*
X493955Y453361D01*
X493461Y452505D01*
X493205Y451550D01*
Y450561D01*
X493461Y449605D01*
X493955Y448749D01*
X494654Y448050D01*
X495511Y447555D01*
X496466Y447299D01*
X497455D01*
X498410Y447555D01*
X499267Y448050D01*
X499966Y448749D01*
X500461Y449605D01*
X500716Y450561D01*
Y451550D01*
X500461Y452505D01*
X499966Y453361D01*
X499267Y454061D01*
X498410Y454555D01*
X497455Y454811D01*
D02*
G37*
G36*
Y444969D02*
X496466D01*
X495511Y444712D01*
X494654Y444218D01*
X493955Y443519D01*
X493461Y442662D01*
X493205Y441707D01*
Y440718D01*
X493461Y439763D01*
X493955Y438906D01*
X494654Y438207D01*
X495511Y437713D01*
X496466Y437457D01*
X497455D01*
X498321Y437689D01*
X507971Y428040D01*
Y423176D01*
X507509Y422985D01*
X500484Y430009D01*
X500716Y430876D01*
Y431865D01*
X500461Y432820D01*
X499966Y433676D01*
X499267Y434376D01*
X498410Y434870D01*
X497455Y435126D01*
X496466D01*
X495511Y434870D01*
X494654Y434376D01*
X493955Y433676D01*
X493461Y432820D01*
X493205Y431865D01*
Y430876D01*
X493461Y429920D01*
X493955Y429064D01*
X494654Y428365D01*
X495511Y427870D01*
X496466Y427614D01*
X497455D01*
X498321Y427846D01*
X505971Y420197D01*
Y416346D01*
X505509Y416154D01*
X500698Y420965D01*
X500716Y421033D01*
Y422022D01*
X500461Y422977D01*
X499966Y423834D01*
X499267Y424533D01*
X498410Y425028D01*
X497455Y425283D01*
X496466D01*
X495511Y425028D01*
X494654Y424533D01*
X493955Y423834D01*
X493461Y422977D01*
X493205Y422022D01*
Y421033D01*
X493461Y420078D01*
X493955Y419221D01*
X494654Y418522D01*
X495511Y418028D01*
X496466Y417772D01*
X497455D01*
X498410Y418028D01*
X498980Y418357D01*
X503971Y413367D01*
Y407346D01*
X503509Y407154D01*
X500449Y410214D01*
X500461Y410235D01*
X500716Y411191D01*
Y412180D01*
X500461Y413135D01*
X499966Y413991D01*
X499267Y414690D01*
X498410Y415185D01*
X497455Y415441D01*
X496466D01*
X495511Y415185D01*
X494654Y414690D01*
X493955Y413991D01*
X493461Y413135D01*
X493205Y412180D01*
Y411191D01*
X493461Y410235D01*
X493955Y409379D01*
X494654Y408680D01*
X495511Y408185D01*
X496466Y407929D01*
X497455D01*
X498207Y408131D01*
X501971Y404366D01*
Y399649D01*
X501509Y399457D01*
X500484Y400482D01*
X500716Y401348D01*
Y402337D01*
X500461Y403292D01*
X499966Y404149D01*
X499267Y404848D01*
X498410Y405342D01*
X497455Y405598D01*
X496466D01*
X495511Y405342D01*
X494654Y404848D01*
X493955Y404149D01*
X493461Y403292D01*
X493205Y402337D01*
Y401348D01*
X493461Y400393D01*
X493955Y399536D01*
X494654Y398837D01*
X495511Y398343D01*
X496466Y398087D01*
X497455D01*
X498321Y398319D01*
X499687Y396953D01*
Y395216D01*
X499187Y395052D01*
X498410Y395500D01*
X497455Y395756D01*
X496466D01*
X495511Y395500D01*
X494654Y395005D01*
X493955Y394306D01*
X493461Y393450D01*
X493205Y392495D01*
Y391506D01*
X493461Y390550D01*
X493955Y389694D01*
X494654Y388995D01*
X494701Y388968D01*
Y375378D01*
X493974Y375183D01*
X493073Y374663D01*
X492337Y373927D01*
X491817Y373026D01*
X491547Y372020D01*
Y370980D01*
X491817Y369974D01*
X492337Y369073D01*
X493073Y368337D01*
X493974Y367817D01*
X494980Y367547D01*
X496020D01*
X497026Y367817D01*
X497927Y368337D01*
X498663Y369073D01*
X499183Y369974D01*
X499187Y369988D01*
X499687Y369922D01*
Y367850D01*
X497022Y365184D01*
X496020Y365453D01*
X494980D01*
X493974Y365183D01*
X493073Y364663D01*
X492337Y363927D01*
X491817Y363026D01*
X491547Y362020D01*
Y360980D01*
X491817Y359974D01*
X492337Y359073D01*
X493073Y358337D01*
X493974Y357817D01*
X494980Y357547D01*
X496020D01*
X497026Y357817D01*
X497927Y358337D01*
X498663Y359073D01*
X499183Y359974D01*
X499453Y360980D01*
Y362020D01*
X499185Y363022D01*
X501509Y365346D01*
X501971Y365154D01*
Y360134D01*
X497022Y355185D01*
X496020Y355453D01*
X494980D01*
X493974Y355183D01*
X493073Y354663D01*
X492337Y353927D01*
X491817Y353026D01*
X491547Y352020D01*
Y350980D01*
X491817Y349974D01*
X492337Y349073D01*
X493073Y348337D01*
X493974Y347817D01*
X494980Y347547D01*
X496020D01*
X497026Y347817D01*
X497927Y348337D01*
X498663Y349073D01*
X499183Y349974D01*
X499453Y350980D01*
Y352020D01*
X499185Y353022D01*
X503509Y357346D01*
X503971Y357154D01*
Y352133D01*
X497022Y345184D01*
X496020Y345453D01*
X494980D01*
X493974Y345183D01*
X493073Y344663D01*
X492337Y343927D01*
X491817Y343026D01*
X491675Y342497D01*
X491175Y342563D01*
Y344354D01*
X491059Y344940D01*
X490727Y345436D01*
X466684Y369478D01*
X466953Y370480D01*
Y371520D01*
X466683Y372526D01*
X466163Y373427D01*
X465427Y374163D01*
X464526Y374683D01*
X463520Y374953D01*
X462480D01*
X461474Y374683D01*
X460573Y374163D01*
X459837Y373427D01*
X459317Y372526D01*
X459047Y371520D01*
Y370480D01*
X459317Y369474D01*
X459837Y368573D01*
X460573Y367837D01*
X461474Y367317D01*
X462480Y367047D01*
X463520D01*
X464522Y367316D01*
X488116Y343721D01*
Y306346D01*
X487654Y306154D01*
X481727Y312081D01*
X481231Y312413D01*
X480646Y312529D01*
X466681D01*
X466163Y313427D01*
X465427Y314163D01*
X464526Y314683D01*
X463520Y314953D01*
X462480D01*
X461474Y314683D01*
X460573Y314163D01*
X460491Y314081D01*
X460029Y314273D01*
Y317673D01*
X460519Y317891D01*
X460573Y317837D01*
X461474Y317317D01*
X462480Y317047D01*
X463520D01*
X464526Y317317D01*
X465427Y317837D01*
X466163Y318573D01*
X466683Y319474D01*
X466953Y320480D01*
Y321520D01*
X466683Y322526D01*
X466163Y323427D01*
X465427Y324163D01*
X464526Y324683D01*
X463520Y324953D01*
X462480D01*
X461474Y324683D01*
X460573Y324163D01*
X459837Y323427D01*
X459317Y322526D01*
X459047Y321520D01*
Y321188D01*
X458980Y321143D01*
X458491Y320654D01*
X458029Y320846D01*
Y323867D01*
X461478Y327315D01*
X462480Y327047D01*
X463520D01*
X464526Y327317D01*
X465427Y327837D01*
X466163Y328573D01*
X466683Y329474D01*
X466953Y330480D01*
Y331520D01*
X466683Y332526D01*
X466163Y333427D01*
X465427Y334163D01*
X464526Y334683D01*
X463520Y334953D01*
X462480D01*
X461474Y334683D01*
X460573Y334163D01*
X459837Y333427D01*
X459317Y332526D01*
X459047Y331520D01*
Y330480D01*
X459315Y329478D01*
X455419Y325581D01*
X455087Y325085D01*
X454971Y324500D01*
Y284311D01*
X455087Y283726D01*
X455419Y283230D01*
X464430Y274218D01*
X464387Y274000D01*
X464430Y273782D01*
X430702Y240054D01*
X430371Y239558D01*
X430254Y238972D01*
Y226840D01*
X429538Y226427D01*
X428857Y225746D01*
X428375Y224912D01*
X428126Y223981D01*
Y223019D01*
X428375Y222088D01*
X428857Y221254D01*
X429538Y220573D01*
X430372Y220092D01*
X431302Y219843D01*
X432265D01*
X433195Y220092D01*
X434029Y220573D01*
X434710Y221254D01*
X435192Y222088D01*
X435441Y223019D01*
Y223981D01*
X435192Y224912D01*
X434710Y225746D01*
X434029Y226427D01*
X433313Y226840D01*
Y238339D01*
X453464Y258490D01*
X453852Y258171D01*
X453587Y257774D01*
X453471Y257189D01*
Y239000D01*
X453587Y238415D01*
X453919Y237919D01*
X464218Y227619D01*
X464026Y227157D01*
X463559D01*
Y219843D01*
X465687D01*
Y216657D01*
X463559D01*
Y209343D01*
X470874D01*
Y216657D01*
X468746D01*
Y219843D01*
X470874D01*
Y224313D01*
X471374Y224580D01*
X471471Y224516D01*
Y205984D01*
X471374Y205920D01*
X470874Y206157D01*
Y206157D01*
X463559D01*
Y198843D01*
X465687D01*
Y195340D01*
X464971Y194927D01*
X464290Y194246D01*
X463808Y193412D01*
X463559Y192482D01*
Y191518D01*
X463808Y190588D01*
X464290Y189754D01*
X464971Y189073D01*
X465805Y188592D01*
X466735Y188342D01*
X467698D01*
X468628Y188592D01*
X469462Y189073D01*
X470143Y189754D01*
X470625Y190588D01*
X470874Y191518D01*
Y192482D01*
X470625Y193412D01*
X470143Y194246D01*
X469462Y194927D01*
X468746Y195340D01*
Y198843D01*
X470874D01*
Y200497D01*
X471081Y200635D01*
X471413Y201131D01*
X471443Y201280D01*
X474081Y203919D01*
X474413Y204415D01*
X474529Y205000D01*
Y225500D01*
X474413Y226085D01*
X474081Y226581D01*
X460029Y240634D01*
Y255055D01*
X463901Y258927D01*
X464435Y258754D01*
X464571Y258072D01*
X465097Y257286D01*
X465883Y256760D01*
X466811Y256575D01*
X473898D01*
X474825Y256760D01*
X475612Y257286D01*
X475736Y257471D01*
X476000D01*
X476585Y257587D01*
X477081Y257919D01*
X481081Y261919D01*
X481413Y262415D01*
X481529Y263000D01*
Y287283D01*
X481413Y287869D01*
X481081Y288365D01*
X480657Y288789D01*
Y293941D01*
X475505D01*
X472114Y297333D01*
X471618Y297664D01*
X471032Y297780D01*
X468382D01*
X466684Y299478D01*
X466953Y300480D01*
Y301520D01*
X466683Y302526D01*
X466163Y303427D01*
X465427Y304163D01*
X464526Y304683D01*
X463520Y304953D01*
X462480D01*
X461478Y304684D01*
X460029Y306134D01*
Y307727D01*
X460491Y307919D01*
X460573Y307837D01*
X461474Y307317D01*
X462480Y307047D01*
X463520D01*
X464526Y307317D01*
X465427Y307837D01*
X466163Y308573D01*
X466681Y309471D01*
X480012D01*
X488116Y301366D01*
Y277500D01*
Y276425D01*
X486102D01*
X485175Y276240D01*
X484388Y275714D01*
X483862Y274928D01*
X483678Y274000D01*
X483862Y273072D01*
X484388Y272286D01*
X485175Y271760D01*
X485200Y271755D01*
Y271245D01*
X485175Y271240D01*
X484388Y270714D01*
X483862Y269928D01*
X483678Y269000D01*
X483862Y268072D01*
X484388Y267286D01*
X485175Y266760D01*
X485200Y266755D01*
Y266245D01*
X485175Y266240D01*
X484388Y265714D01*
X483862Y264928D01*
X483678Y264000D01*
X483862Y263072D01*
X484388Y262286D01*
X485175Y261760D01*
X485200Y261755D01*
Y261245D01*
X485175Y261240D01*
X484388Y260714D01*
X483862Y259928D01*
X483678Y259000D01*
X483862Y258072D01*
X484388Y257286D01*
X485175Y256760D01*
X486102Y256575D01*
X493189D01*
X494117Y256760D01*
X494903Y257286D01*
X495429Y258072D01*
X495613Y259000D01*
X495429Y259928D01*
X494903Y260714D01*
X494117Y261240D01*
X494091Y261245D01*
Y261755D01*
X494117Y261760D01*
X494903Y262286D01*
X495429Y263072D01*
X495613Y264000D01*
X495429Y264928D01*
X494903Y265714D01*
X494117Y266240D01*
X494091Y266245D01*
Y266755D01*
X494117Y266760D01*
X494903Y267286D01*
X495429Y268072D01*
X495613Y269000D01*
X495429Y269928D01*
X494903Y270714D01*
X494117Y271240D01*
X494091Y271245D01*
Y271755D01*
X494117Y271760D01*
X494903Y272286D01*
X495429Y273072D01*
X495613Y274000D01*
X495429Y274928D01*
X494903Y275714D01*
X494476Y276000D01*
X494628Y276500D01*
X494961D01*
X495851Y276739D01*
X496649Y277199D01*
X497301Y277851D01*
X497761Y278649D01*
X498000Y279539D01*
Y280461D01*
X497761Y281351D01*
X497301Y282149D01*
X496649Y282801D01*
X495851Y283261D01*
X494961Y283500D01*
X494039D01*
X493149Y283261D01*
X492351Y282801D01*
X491699Y282149D01*
X491675Y282107D01*
X491175Y282241D01*
Y290437D01*
X491675Y290503D01*
X491817Y289974D01*
X492337Y289073D01*
X493073Y288337D01*
X493974Y287817D01*
X494980Y287547D01*
X496020D01*
X497026Y287817D01*
X497927Y288337D01*
X498663Y289073D01*
X499183Y289974D01*
X499453Y290980D01*
Y292020D01*
X499183Y293026D01*
X498663Y293927D01*
X497927Y294663D01*
X497026Y295183D01*
X496020Y295453D01*
X494980D01*
X493974Y295183D01*
X493073Y294663D01*
X492337Y293927D01*
X491817Y293026D01*
X491675Y292497D01*
X491175Y292563D01*
Y300437D01*
X491675Y300503D01*
X491817Y299974D01*
X492337Y299073D01*
X493073Y298337D01*
X493974Y297817D01*
X494980Y297547D01*
X496020D01*
X497026Y297817D01*
X497927Y298337D01*
X498663Y299073D01*
X499183Y299974D01*
X499453Y300980D01*
Y302020D01*
X499183Y303026D01*
X498663Y303927D01*
X497927Y304663D01*
X497026Y305183D01*
X496020Y305453D01*
X494980D01*
X493974Y305183D01*
X493073Y304663D01*
X492337Y303927D01*
X491817Y303026D01*
X491675Y302497D01*
X491175Y302563D01*
Y310437D01*
X491675Y310503D01*
X491817Y309974D01*
X492337Y309073D01*
X493073Y308337D01*
X493974Y307817D01*
X494980Y307547D01*
X496020D01*
X497026Y307817D01*
X497927Y308337D01*
X498663Y309073D01*
X499183Y309974D01*
X499453Y310980D01*
Y312020D01*
X499183Y313026D01*
X498663Y313927D01*
X497927Y314663D01*
X497026Y315183D01*
X496020Y315453D01*
X494980D01*
X493974Y315183D01*
X493073Y314663D01*
X492337Y313927D01*
X491817Y313026D01*
X491675Y312497D01*
X491175Y312563D01*
Y320437D01*
X491675Y320503D01*
X491817Y319974D01*
X492337Y319073D01*
X493073Y318337D01*
X493974Y317817D01*
X494980Y317547D01*
X496020D01*
X497026Y317817D01*
X497927Y318337D01*
X498663Y319073D01*
X499183Y319974D01*
X499453Y320980D01*
Y322020D01*
X499185Y323022D01*
X510581Y334419D01*
X510913Y334915D01*
X511029Y335500D01*
Y428673D01*
X510913Y429258D01*
X510581Y429755D01*
X500484Y439852D01*
X500716Y440718D01*
Y441707D01*
X500461Y442662D01*
X499966Y443519D01*
X499267Y444218D01*
X498410Y444712D01*
X497455Y444969D01*
D02*
G37*
G36*
X242994Y445968D02*
X242005D01*
X241050Y445713D01*
X240194Y445218D01*
X239494Y444519D01*
X239000Y443662D01*
X238744Y442707D01*
Y441718D01*
X239000Y440763D01*
X239494Y439906D01*
X240194Y439207D01*
X241050Y438713D01*
X241403Y438618D01*
Y437957D01*
X241519Y437371D01*
X241851Y436875D01*
X242154Y436572D01*
X241917Y436102D01*
X241050Y435870D01*
X240194Y435376D01*
X239494Y434676D01*
X239000Y433820D01*
X238744Y432865D01*
Y431876D01*
X239000Y430920D01*
X239494Y430064D01*
X240194Y429365D01*
X241050Y428870D01*
X242005Y428614D01*
X242994D01*
X243861Y428846D01*
X250971Y421737D01*
Y416873D01*
X250509Y416682D01*
X246024Y421167D01*
X246256Y422033D01*
Y423022D01*
X246000Y423977D01*
X245505Y424834D01*
X244806Y425533D01*
X243950Y426027D01*
X242994Y426284D01*
X242005D01*
X241050Y426027D01*
X240194Y425533D01*
X239494Y424834D01*
X239000Y423977D01*
X238744Y423022D01*
Y422033D01*
X239000Y421078D01*
X239494Y420221D01*
X240194Y419522D01*
X241050Y419028D01*
X242005Y418772D01*
X242994D01*
X243861Y419004D01*
X248971Y413894D01*
Y409031D01*
X248509Y408839D01*
X246024Y411324D01*
X246256Y412191D01*
Y413179D01*
X246000Y414135D01*
X245505Y414991D01*
X244806Y415691D01*
X243950Y416185D01*
X242994Y416441D01*
X242005D01*
X241050Y416185D01*
X240194Y415691D01*
X239494Y414991D01*
X239000Y414135D01*
X238744Y413179D01*
Y412191D01*
X239000Y411235D01*
X239494Y410379D01*
X240194Y409680D01*
X241050Y409185D01*
X242005Y408929D01*
X242994D01*
X243861Y409161D01*
X246971Y406051D01*
Y401188D01*
X246509Y400997D01*
X246024Y401482D01*
X246256Y402348D01*
Y403337D01*
X246000Y404292D01*
X245505Y405149D01*
X244806Y405848D01*
X243950Y406343D01*
X242994Y406598D01*
X242005D01*
X241050Y406343D01*
X240194Y405848D01*
X239494Y405149D01*
X239000Y404292D01*
X238744Y403337D01*
Y402348D01*
X239000Y401393D01*
X239494Y400536D01*
X240194Y399837D01*
X241050Y399343D01*
X242005Y399087D01*
X242994D01*
X243861Y399319D01*
X244971Y398209D01*
Y396488D01*
X244471Y396199D01*
X243950Y396500D01*
X242994Y396756D01*
X242005D01*
X241050Y396500D01*
X240194Y396006D01*
X239494Y395306D01*
X239000Y394450D01*
X238744Y393495D01*
Y392506D01*
X239000Y391550D01*
X239494Y390694D01*
X240194Y389995D01*
X240471Y389835D01*
Y375316D01*
X239974Y375183D01*
X239073Y374663D01*
X238337Y373927D01*
X237817Y373026D01*
X237547Y372020D01*
Y370980D01*
X237817Y369974D01*
X238337Y369073D01*
X239073Y368337D01*
X239974Y367817D01*
X240980Y367547D01*
X242020D01*
X243026Y367817D01*
X243927Y368337D01*
X244471Y368881D01*
X244971Y368673D01*
Y367133D01*
X243022Y365184D01*
X242020Y365453D01*
X240980D01*
X239974Y365183D01*
X239073Y364663D01*
X238337Y363927D01*
X237817Y363026D01*
X237547Y362020D01*
Y360980D01*
X237817Y359974D01*
X238337Y359073D01*
X239073Y358337D01*
X239974Y357817D01*
X240980Y357547D01*
X242020D01*
X243026Y357817D01*
X243927Y358337D01*
X244663Y359073D01*
X245183Y359974D01*
X245453Y360980D01*
Y362020D01*
X245184Y363022D01*
X246509Y364346D01*
X246971Y364154D01*
Y359134D01*
X243022Y355185D01*
X242020Y355453D01*
X240980D01*
X239974Y355183D01*
X239073Y354663D01*
X238337Y353927D01*
X237817Y353026D01*
X237547Y352020D01*
Y350980D01*
X237817Y349974D01*
X238337Y349073D01*
X239073Y348337D01*
X239974Y347817D01*
X240980Y347547D01*
X242020D01*
X243026Y347817D01*
X243927Y348337D01*
X244663Y349073D01*
X245183Y349974D01*
X245453Y350980D01*
Y352020D01*
X245184Y353022D01*
X248509Y356346D01*
X248971Y356154D01*
Y351133D01*
X243022Y345184D01*
X242020Y345453D01*
X240980D01*
X239974Y345183D01*
X239073Y344663D01*
X238337Y343927D01*
X237817Y343026D01*
X237547Y342020D01*
Y340980D01*
X237817Y339974D01*
X238337Y339073D01*
X239073Y338337D01*
X239974Y337817D01*
X240980Y337547D01*
X241028D01*
X241220Y337085D01*
X241168Y337034D01*
X240837Y336538D01*
X240721Y335953D01*
Y335383D01*
X239974Y335183D01*
X239073Y334663D01*
X238337Y333927D01*
X237817Y333026D01*
X237547Y332020D01*
Y330980D01*
X237817Y329974D01*
X238337Y329073D01*
X239073Y328337D01*
X239974Y327817D01*
X240980Y327547D01*
X242020D01*
X243026Y327817D01*
X243927Y328337D01*
X244663Y329073D01*
X245183Y329974D01*
X245453Y330980D01*
Y332020D01*
X245183Y333026D01*
X244663Y333927D01*
X243927Y334663D01*
X243779Y334748D01*
Y335319D01*
X252765Y344305D01*
X253226Y344113D01*
Y335389D01*
X243022Y325184D01*
X242020Y325453D01*
X240980D01*
X239974Y325183D01*
X239073Y324663D01*
X238337Y323927D01*
X237817Y323026D01*
X237547Y322020D01*
Y320980D01*
X237817Y319974D01*
X238337Y319073D01*
X239073Y318337D01*
X239974Y317817D01*
X240980Y317547D01*
X242020D01*
X243026Y317817D01*
X243927Y318337D01*
X244663Y319073D01*
X245183Y319974D01*
X245453Y320980D01*
Y322020D01*
X245184Y323022D01*
X255837Y333675D01*
X256169Y334171D01*
X256285Y334756D01*
Y426133D01*
X256169Y426718D01*
X255837Y427214D01*
X244504Y438548D01*
X244544Y439056D01*
X244806Y439207D01*
X245505Y439906D01*
X246000Y440763D01*
X246256Y441718D01*
Y442707D01*
X246000Y443662D01*
X245505Y444519D01*
X244806Y445218D01*
X243950Y445713D01*
X242994Y445968D01*
D02*
G37*
G36*
X305995Y445626D02*
X305006D01*
X304050Y445370D01*
X303194Y444876D01*
X302495Y444176D01*
X302000Y443320D01*
X301744Y442365D01*
Y441376D01*
X302000Y440420D01*
X302495Y439564D01*
X303194Y438865D01*
X304050Y438370D01*
X304403Y438276D01*
Y437614D01*
X304519Y437029D01*
X304851Y436533D01*
X305153Y436230D01*
X304917Y435760D01*
X304050Y435528D01*
X303194Y435033D01*
X302495Y434334D01*
X302000Y433477D01*
X301744Y432522D01*
Y431533D01*
X302000Y430578D01*
X302495Y429721D01*
X303194Y429022D01*
X304050Y428528D01*
X305006Y428272D01*
X305995D01*
X306861Y428504D01*
X314227Y421138D01*
Y412451D01*
X313765Y412260D01*
X307504Y418520D01*
X307544Y419028D01*
X307806Y419180D01*
X308506Y419879D01*
X309000Y420735D01*
X309256Y421691D01*
Y422680D01*
X309000Y423635D01*
X308506Y424491D01*
X307806Y425190D01*
X306950Y425685D01*
X305995Y425941D01*
X305006D01*
X304050Y425685D01*
X303194Y425190D01*
X302495Y424491D01*
X302000Y423635D01*
X301744Y422680D01*
Y421691D01*
X302000Y420735D01*
X302495Y419879D01*
X303194Y419180D01*
X304050Y418685D01*
X304403Y418591D01*
Y417929D01*
X304519Y417344D01*
X304851Y416848D01*
X305153Y416545D01*
X304917Y416075D01*
X304050Y415842D01*
X303194Y415348D01*
X302495Y414649D01*
X302000Y413792D01*
X301744Y412837D01*
Y411848D01*
X302000Y410893D01*
X302495Y410036D01*
X303194Y409337D01*
X304050Y408843D01*
X304403Y408748D01*
Y408087D01*
X304519Y407501D01*
X304851Y407005D01*
X305153Y406702D01*
X304917Y406232D01*
X304050Y406000D01*
X303194Y405506D01*
X302495Y404806D01*
X302000Y403950D01*
X301744Y402994D01*
Y402005D01*
X302000Y401050D01*
X302495Y400194D01*
X303194Y399495D01*
X304050Y399000D01*
X305006Y398744D01*
X305995D01*
X306861Y398976D01*
X307971Y397867D01*
Y396145D01*
X307471Y395857D01*
X306950Y396157D01*
X305995Y396413D01*
X305006D01*
X304050Y396157D01*
X303194Y395663D01*
X302495Y394964D01*
X302000Y394107D01*
X301744Y393152D01*
Y392163D01*
X302000Y391208D01*
X302495Y390351D01*
X303194Y389652D01*
X303721Y389348D01*
Y375249D01*
X303474Y375183D01*
X302573Y374663D01*
X301837Y373927D01*
X301317Y373026D01*
X301047Y372020D01*
Y370980D01*
X301317Y369974D01*
X301837Y369073D01*
X302573Y368337D01*
X303474Y367817D01*
X304480Y367547D01*
X305520D01*
X306526Y367817D01*
X307427Y368337D01*
X307509Y368419D01*
X307971Y368227D01*
Y366634D01*
X306522Y365184D01*
X305520Y365453D01*
X304480D01*
X303474Y365183D01*
X302573Y364663D01*
X301837Y363927D01*
X301317Y363026D01*
X301047Y362020D01*
Y360980D01*
X301317Y359974D01*
X301837Y359073D01*
X302573Y358337D01*
X303474Y357817D01*
X304480Y357547D01*
X305520D01*
X306526Y357817D01*
X307427Y358337D01*
X308163Y359073D01*
X308683Y359974D01*
X308953Y360980D01*
Y362020D01*
X308684Y363022D01*
X309509Y363846D01*
X309971Y363654D01*
Y358633D01*
X306522Y355185D01*
X305520Y355453D01*
X304480D01*
X303474Y355183D01*
X302573Y354663D01*
X301837Y353927D01*
X301317Y353026D01*
X301047Y352020D01*
Y350980D01*
X301317Y349974D01*
X301837Y349073D01*
X302573Y348337D01*
X303474Y347817D01*
X304480Y347547D01*
X305520D01*
X306526Y347817D01*
X307427Y348337D01*
X308163Y349073D01*
X308683Y349974D01*
X308953Y350980D01*
Y352020D01*
X308684Y353022D01*
X311765Y356102D01*
X312227Y355910D01*
Y350889D01*
X306522Y345184D01*
X305520Y345453D01*
X304480D01*
X303474Y345183D01*
X302573Y344663D01*
X301837Y343927D01*
X301317Y343026D01*
X301047Y342020D01*
Y340980D01*
X301317Y339974D01*
X301837Y339073D01*
X302573Y338337D01*
X303474Y337817D01*
X304480Y337547D01*
X305520D01*
X306526Y337817D01*
X307427Y338337D01*
X308163Y339073D01*
X308683Y339974D01*
X308953Y340980D01*
Y342020D01*
X308684Y343022D01*
X313765Y348102D01*
X314227Y347910D01*
Y342889D01*
X306522Y335185D01*
X305520Y335453D01*
X304480D01*
X303474Y335183D01*
X302573Y334663D01*
X301837Y333927D01*
X301317Y333026D01*
X301175Y332497D01*
X300675Y332563D01*
Y340152D01*
X300559Y340737D01*
X300227Y341233D01*
X273779Y367681D01*
Y368252D01*
X273927Y368337D01*
X274663Y369073D01*
X275183Y369974D01*
X275453Y370980D01*
Y372020D01*
X275183Y373026D01*
X274663Y373927D01*
X273927Y374663D01*
X273026Y375183D01*
X272020Y375453D01*
X270980D01*
X269974Y375183D01*
X269073Y374663D01*
X268337Y373927D01*
X267817Y373026D01*
X267547Y372020D01*
Y370980D01*
X267817Y369974D01*
X268337Y369073D01*
X269073Y368337D01*
X269974Y367817D01*
X270721Y367617D01*
Y367047D01*
X270837Y366462D01*
X271168Y365966D01*
X271220Y365915D01*
X271028Y365453D01*
X270980D01*
X269974Y365183D01*
X269073Y364663D01*
X268337Y363927D01*
X267817Y363026D01*
X267547Y362020D01*
Y360980D01*
X267817Y359974D01*
X268337Y359073D01*
X269073Y358337D01*
X269974Y357817D01*
X270721Y357617D01*
Y357047D01*
X270837Y356462D01*
X271168Y355966D01*
X271220Y355915D01*
X271028Y355453D01*
X270980D01*
X269974Y355183D01*
X269073Y354663D01*
X268337Y353927D01*
X267817Y353026D01*
X267547Y352020D01*
Y350980D01*
X267817Y349974D01*
X268337Y349073D01*
X269073Y348337D01*
X269971Y347819D01*
Y345181D01*
X269073Y344663D01*
X268337Y343927D01*
X267817Y343026D01*
X267547Y342020D01*
Y340980D01*
X267817Y339974D01*
X268337Y339073D01*
X269073Y338337D01*
X269974Y337817D01*
X270980Y337547D01*
X272020D01*
X273026Y337817D01*
X273927Y338337D01*
X274663Y339073D01*
X275183Y339974D01*
X275453Y340980D01*
Y342020D01*
X275183Y343026D01*
X274663Y343927D01*
X273927Y344663D01*
X273029Y345181D01*
Y347819D01*
X273927Y348337D01*
X274663Y349073D01*
X275183Y349974D01*
X275453Y350980D01*
Y351028D01*
X275915Y351220D01*
X286471Y340664D01*
Y339441D01*
X284343D01*
Y332126D01*
X286471D01*
Y330557D01*
X285754Y330143D01*
X285073Y329462D01*
X284592Y328628D01*
X284343Y327698D01*
Y326735D01*
X284592Y325805D01*
X285073Y324971D01*
X285754Y324290D01*
X286588Y323808D01*
X287519Y323559D01*
X288481D01*
X289412Y323808D01*
X290246Y324290D01*
X290927Y324971D01*
X291408Y325805D01*
X291657Y326735D01*
Y327698D01*
X291408Y328628D01*
X290927Y329462D01*
X290246Y330143D01*
X289529Y330557D01*
Y332126D01*
X291657D01*
Y339441D01*
X289529D01*
Y341297D01*
X289413Y341882D01*
X289081Y342379D01*
X273779Y357681D01*
Y358252D01*
X273927Y358337D01*
X274663Y359073D01*
X275183Y359974D01*
X275453Y360980D01*
Y361028D01*
X275915Y361220D01*
X297616Y339518D01*
Y308346D01*
X297154Y308154D01*
X292727Y312581D01*
X292231Y312913D01*
X291646Y313029D01*
X275181D01*
X274663Y313927D01*
X273927Y314663D01*
X273026Y315183D01*
X272020Y315453D01*
X270980D01*
X269974Y315183D01*
X269073Y314663D01*
X268337Y313927D01*
X268029Y313394D01*
X267529Y313528D01*
Y315367D01*
X269978Y317815D01*
X270980Y317547D01*
X272020D01*
X273026Y317817D01*
X273927Y318337D01*
X274663Y319073D01*
X275183Y319974D01*
X275453Y320980D01*
Y322020D01*
X275183Y323026D01*
X274663Y323927D01*
X273927Y324663D01*
X273026Y325183D01*
X272020Y325453D01*
X270980D01*
X269974Y325183D01*
X269073Y324663D01*
X268337Y323927D01*
X267817Y323026D01*
X267547Y322020D01*
Y320980D01*
X267815Y319978D01*
X265991Y318154D01*
X265529Y318346D01*
Y323366D01*
X269978Y327816D01*
X270980Y327547D01*
X272020D01*
X273026Y327817D01*
X273927Y328337D01*
X274663Y329073D01*
X275183Y329974D01*
X275453Y330980D01*
Y332020D01*
X275183Y333026D01*
X274663Y333927D01*
X273927Y334663D01*
X273026Y335183D01*
X272020Y335453D01*
X270980D01*
X269974Y335183D01*
X269073Y334663D01*
X268337Y333927D01*
X267817Y333026D01*
X267547Y332020D01*
Y330980D01*
X267815Y329978D01*
X262919Y325081D01*
X262587Y324585D01*
X262471Y324000D01*
Y286311D01*
X262587Y285726D01*
X262919Y285230D01*
X273930Y274218D01*
X273886Y274000D01*
X273930Y273782D01*
X239702Y239554D01*
X239370Y239058D01*
X239254Y238472D01*
Y227340D01*
X238538Y226927D01*
X237857Y226246D01*
X237375Y225412D01*
X237126Y224482D01*
Y223518D01*
X237375Y222588D01*
X237857Y221754D01*
X238538Y221073D01*
X239372Y220592D01*
X240302Y220342D01*
X241265D01*
X242195Y220592D01*
X243029Y221073D01*
X243710Y221754D01*
X244192Y222588D01*
X244441Y223518D01*
Y224482D01*
X244192Y225412D01*
X243710Y226246D01*
X243029Y226927D01*
X242313Y227340D01*
Y237839D01*
X273401Y268927D01*
X273935Y268754D01*
X274044Y268207D01*
X265919Y260081D01*
X265587Y259585D01*
X265471Y259000D01*
Y242000D01*
X265587Y241415D01*
X265919Y240919D01*
X274687Y232150D01*
Y227658D01*
X272559D01*
Y220342D01*
X274687D01*
Y217158D01*
X272559D01*
Y209842D01*
X279874D01*
Y217158D01*
X277746D01*
Y220342D01*
X279874D01*
Y227658D01*
X277746D01*
Y232784D01*
X277721Y232909D01*
X278182Y233155D01*
X280971Y230366D01*
Y209917D01*
X277711Y206658D01*
X272559D01*
Y199343D01*
X274687D01*
Y195840D01*
X273971Y195427D01*
X273290Y194746D01*
X272808Y193912D01*
X272559Y192982D01*
Y192018D01*
X272808Y191088D01*
X273290Y190254D01*
X273971Y189573D01*
X274805Y189092D01*
X275735Y188842D01*
X276698D01*
X277628Y189092D01*
X278462Y189573D01*
X279143Y190254D01*
X279625Y191088D01*
X279874Y192018D01*
Y192982D01*
X279625Y193912D01*
X279143Y194746D01*
X278462Y195427D01*
X277746Y195840D01*
Y199343D01*
X279874D01*
Y204495D01*
X283581Y208202D01*
X283913Y208698D01*
X284029Y209283D01*
Y231000D01*
X283913Y231585D01*
X283581Y232081D01*
X271529Y244133D01*
Y257055D01*
X273401Y258927D01*
X273935Y258754D01*
X274071Y258072D01*
X274597Y257286D01*
X275383Y256760D01*
X276311Y256575D01*
X283398D01*
X284326Y256760D01*
X285112Y257286D01*
X285236Y257471D01*
X285500D01*
X286085Y257587D01*
X286581Y257919D01*
X290581Y261919D01*
X290913Y262415D01*
X291029Y263000D01*
Y288126D01*
X291657D01*
Y295441D01*
X284343D01*
Y293331D01*
X283842Y293320D01*
X275520Y301643D01*
X275453Y301688D01*
Y302020D01*
X275183Y303026D01*
X274663Y303927D01*
X273927Y304663D01*
X273026Y305183D01*
X272020Y305453D01*
X270980D01*
X269978Y305185D01*
X267529Y307633D01*
Y309472D01*
X268029Y309606D01*
X268337Y309073D01*
X269073Y308337D01*
X269974Y307817D01*
X270980Y307547D01*
X272020D01*
X273026Y307817D01*
X273927Y308337D01*
X274663Y309073D01*
X275181Y309971D01*
X291012D01*
X297616Y303366D01*
Y278000D01*
Y276425D01*
X295602D01*
X294674Y276240D01*
X293888Y275714D01*
X293362Y274928D01*
X293178Y274000D01*
X293362Y273072D01*
X293888Y272286D01*
X294674Y271760D01*
X294700Y271755D01*
Y271245D01*
X294674Y271240D01*
X293888Y270714D01*
X293362Y269928D01*
X293178Y269000D01*
X293362Y268072D01*
X293888Y267286D01*
X294674Y266760D01*
X294700Y266755D01*
Y266245D01*
X294674Y266240D01*
X293888Y265714D01*
X293362Y264928D01*
X293178Y264000D01*
X293362Y263072D01*
X293888Y262286D01*
X294674Y261760D01*
X294700Y261755D01*
Y261245D01*
X294674Y261240D01*
X293888Y260714D01*
X293362Y259928D01*
X293178Y259000D01*
X293362Y258072D01*
X293888Y257286D01*
X294674Y256760D01*
X295602Y256575D01*
X302689D01*
X303617Y256760D01*
X304403Y257286D01*
X304929Y258072D01*
X305114Y259000D01*
X304929Y259928D01*
X304403Y260714D01*
X303617Y261240D01*
X303591Y261245D01*
Y261755D01*
X303617Y261760D01*
X304403Y262286D01*
X304929Y263072D01*
X305114Y264000D01*
X304929Y264928D01*
X304403Y265714D01*
X303617Y266240D01*
X303591Y266245D01*
Y266755D01*
X303617Y266760D01*
X304403Y267286D01*
X304929Y268072D01*
X305114Y269000D01*
X304929Y269928D01*
X304403Y270714D01*
X303617Y271240D01*
X303591Y271245D01*
Y271755D01*
X303617Y271760D01*
X304403Y272286D01*
X304929Y273072D01*
X305114Y274000D01*
X304929Y274928D01*
X304403Y275714D01*
X303617Y276240D01*
X302994Y276364D01*
X302889Y276895D01*
X302925Y276919D01*
X303393Y277387D01*
X303649Y277238D01*
X304539Y277000D01*
X305461D01*
X306351Y277238D01*
X307149Y277699D01*
X307801Y278351D01*
X308261Y279149D01*
X308500Y280039D01*
Y280961D01*
X308261Y281851D01*
X307801Y282649D01*
X307149Y283301D01*
X306351Y283762D01*
X305461Y284000D01*
X304539D01*
X303649Y283762D01*
X302851Y283301D01*
X302199Y282649D01*
X301739Y281851D01*
X301500Y280961D01*
Y280039D01*
X301546Y279866D01*
X301210Y279529D01*
X300675D01*
Y290437D01*
X301175Y290503D01*
X301317Y289974D01*
X301837Y289073D01*
X302573Y288337D01*
X303474Y287817D01*
X304480Y287547D01*
X305520D01*
X306526Y287817D01*
X307427Y288337D01*
X308163Y289073D01*
X308683Y289974D01*
X308953Y290980D01*
Y292020D01*
X308683Y293026D01*
X308163Y293927D01*
X307427Y294663D01*
X306526Y295183D01*
X305520Y295453D01*
X304480D01*
X303474Y295183D01*
X302573Y294663D01*
X301837Y293927D01*
X301317Y293026D01*
X301175Y292497D01*
X300675Y292563D01*
Y300437D01*
X301175Y300503D01*
X301317Y299974D01*
X301837Y299073D01*
X302573Y298337D01*
X303474Y297817D01*
X304480Y297547D01*
X305520D01*
X306526Y297817D01*
X307427Y298337D01*
X308163Y299073D01*
X308683Y299974D01*
X308953Y300980D01*
Y302020D01*
X308683Y303026D01*
X308163Y303927D01*
X307427Y304663D01*
X306526Y305183D01*
X305520Y305453D01*
X304480D01*
X303474Y305183D01*
X302573Y304663D01*
X301837Y303927D01*
X301317Y303026D01*
X301175Y302497D01*
X300675Y302563D01*
Y304000D01*
Y310437D01*
X301175Y310503D01*
X301317Y309974D01*
X301837Y309073D01*
X302573Y308337D01*
X303474Y307817D01*
X304480Y307547D01*
X305520D01*
X306526Y307817D01*
X307427Y308337D01*
X308163Y309073D01*
X308683Y309974D01*
X308953Y310980D01*
Y312020D01*
X308683Y313026D01*
X308163Y313927D01*
X307427Y314663D01*
X306526Y315183D01*
X305520Y315453D01*
X304480D01*
X303474Y315183D01*
X302573Y314663D01*
X301837Y313927D01*
X301317Y313026D01*
X301175Y312497D01*
X300675Y312563D01*
Y320437D01*
X301175Y320503D01*
X301317Y319974D01*
X301837Y319073D01*
X302573Y318337D01*
X303474Y317817D01*
X304480Y317547D01*
X305520D01*
X306526Y317817D01*
X307427Y318337D01*
X308163Y319073D01*
X308683Y319974D01*
X308953Y320980D01*
Y322020D01*
X308684Y323022D01*
X318837Y333174D01*
X319169Y333671D01*
X319285Y334256D01*
Y425790D01*
X319169Y426376D01*
X318837Y426872D01*
X307504Y438205D01*
X307544Y438713D01*
X307806Y438865D01*
X308506Y439564D01*
X309000Y440420D01*
X309256Y441376D01*
Y442365D01*
X309000Y443320D01*
X308506Y444176D01*
X307806Y444876D01*
X306950Y445370D01*
X305995Y445626D01*
D02*
G37*
G36*
X369495D02*
X368506D01*
X367550Y445370D01*
X366694Y444876D01*
X365995Y444176D01*
X365500Y443320D01*
X365244Y442365D01*
Y441376D01*
X365500Y440420D01*
X365995Y439564D01*
X366694Y438865D01*
X367550Y438370D01*
X367903Y438276D01*
Y437614D01*
X368019Y437029D01*
X368351Y436533D01*
X368653Y436230D01*
X368417Y435760D01*
X367550Y435528D01*
X366694Y435033D01*
X365995Y434334D01*
X365500Y433477D01*
X365244Y432522D01*
Y431533D01*
X365500Y430578D01*
X365995Y429721D01*
X366694Y429022D01*
X367550Y428528D01*
X367903Y428433D01*
Y427772D01*
X368019Y427186D01*
X368351Y426690D01*
X368653Y426387D01*
X368417Y425917D01*
X367550Y425685D01*
X366694Y425190D01*
X365995Y424491D01*
X365500Y423635D01*
X365244Y422680D01*
Y421691D01*
X365500Y420735D01*
X365995Y419879D01*
X366694Y419180D01*
X367550Y418685D01*
X368506Y418429D01*
X369495D01*
X370361Y418661D01*
X375471Y413552D01*
Y404864D01*
X375009Y404673D01*
X371004Y408678D01*
X371044Y409186D01*
X371306Y409337D01*
X372006Y410036D01*
X372500Y410893D01*
X372756Y411848D01*
Y412837D01*
X372500Y413792D01*
X372006Y414649D01*
X371306Y415348D01*
X370450Y415842D01*
X369495Y416098D01*
X368506D01*
X367550Y415842D01*
X366694Y415348D01*
X365995Y414649D01*
X365500Y413792D01*
X365244Y412837D01*
Y411848D01*
X365500Y410893D01*
X365995Y410036D01*
X366694Y409337D01*
X367550Y408843D01*
X367903Y408748D01*
Y408087D01*
X368019Y407501D01*
X368351Y407005D01*
X368653Y406702D01*
X368417Y406232D01*
X367550Y406000D01*
X366694Y405506D01*
X365995Y404806D01*
X365500Y403950D01*
X365244Y402994D01*
Y402005D01*
X365500Y401050D01*
X365995Y400194D01*
X366694Y399495D01*
X367550Y399000D01*
X368506Y398744D01*
X369495D01*
X370361Y398976D01*
X371471Y397867D01*
Y396145D01*
X370971Y395857D01*
X370450Y396157D01*
X369495Y396413D01*
X368506D01*
X367550Y396157D01*
X366694Y395663D01*
X365995Y394964D01*
X365500Y394107D01*
X365244Y393152D01*
Y392163D01*
X365500Y391208D01*
X365995Y390351D01*
X366694Y389652D01*
X367221Y389348D01*
Y374749D01*
X366974Y374683D01*
X366073Y374163D01*
X365337Y373427D01*
X364817Y372526D01*
X364547Y371520D01*
Y370480D01*
X364817Y369474D01*
X365337Y368573D01*
X366073Y367837D01*
X366974Y367317D01*
X367980Y367047D01*
X369020D01*
X370026Y367317D01*
X370927Y367837D01*
X371009Y367919D01*
X371471Y367727D01*
Y366133D01*
X370022Y364685D01*
X369020Y364953D01*
X367980D01*
X366974Y364683D01*
X366073Y364163D01*
X365337Y363427D01*
X364817Y362526D01*
X364547Y361520D01*
Y360480D01*
X364817Y359474D01*
X365337Y358573D01*
X366073Y357837D01*
X366974Y357317D01*
X367980Y357047D01*
X369020D01*
X370026Y357317D01*
X370927Y357837D01*
X371663Y358573D01*
X372183Y359474D01*
X372453Y360480D01*
Y361520D01*
X372184Y362522D01*
X373009Y363346D01*
X373471Y363154D01*
Y358134D01*
X370022Y354684D01*
X369020Y354953D01*
X367980D01*
X366974Y354683D01*
X366073Y354163D01*
X365337Y353427D01*
X364817Y352526D01*
X364547Y351520D01*
Y350480D01*
X364817Y349474D01*
X365337Y348573D01*
X366073Y347837D01*
X366974Y347317D01*
X367980Y347047D01*
X369020D01*
X370026Y347317D01*
X370927Y347837D01*
X371663Y348573D01*
X372183Y349474D01*
X372453Y350480D01*
Y351520D01*
X372184Y352522D01*
X375009Y355346D01*
X375471Y355154D01*
Y350133D01*
X370022Y344685D01*
X369020Y344953D01*
X367980D01*
X366974Y344683D01*
X366073Y344163D01*
X365337Y343427D01*
X364817Y342526D01*
X364547Y341520D01*
Y340480D01*
X364817Y339474D01*
X365337Y338573D01*
X366073Y337837D01*
X366974Y337317D01*
X367980Y337047D01*
X369020D01*
X370026Y337317D01*
X370927Y337837D01*
X371663Y338573D01*
X372183Y339474D01*
X372453Y340480D01*
Y341520D01*
X372184Y342522D01*
X377265Y347602D01*
X377727Y347410D01*
Y342389D01*
X370022Y334684D01*
X369020Y334953D01*
X367980D01*
X366974Y334683D01*
X366073Y334163D01*
X365337Y333427D01*
X364817Y332526D01*
X364547Y331520D01*
Y330480D01*
X364817Y329474D01*
X365337Y328573D01*
X366073Y327837D01*
X366974Y327317D01*
X367980Y327047D01*
X369020D01*
X370026Y327317D01*
X370927Y327837D01*
X371663Y328573D01*
X372183Y329474D01*
X372453Y330480D01*
Y331520D01*
X372184Y332522D01*
X379265Y339602D01*
X379727Y339410D01*
Y334389D01*
X370022Y324685D01*
X369020Y324953D01*
X367980D01*
X366974Y324683D01*
X366073Y324163D01*
X365337Y323427D01*
X364817Y322526D01*
X364547Y321520D01*
Y320480D01*
X364817Y319474D01*
X365337Y318573D01*
X366073Y317837D01*
X366974Y317317D01*
X367980Y317047D01*
X369020D01*
X370026Y317317D01*
X370927Y317837D01*
X371663Y318573D01*
X372183Y319474D01*
X372453Y320480D01*
Y321520D01*
X372184Y322522D01*
X382337Y332675D01*
X382669Y333171D01*
X382785Y333756D01*
Y425790D01*
X382669Y426376D01*
X382337Y426872D01*
X371004Y438205D01*
X371044Y438713D01*
X371306Y438865D01*
X372006Y439564D01*
X372500Y440420D01*
X372756Y441376D01*
Y442365D01*
X372500Y443320D01*
X372006Y444176D01*
X371306Y444876D01*
X370450Y445370D01*
X369495Y445626D01*
D02*
G37*
G36*
X537982Y377874D02*
X537018D01*
X536088Y377625D01*
X535254Y377143D01*
X534573Y376462D01*
X534092Y375628D01*
X533843Y374698D01*
Y373735D01*
X534092Y372805D01*
X534573Y371971D01*
X535254Y371290D01*
X536088Y370808D01*
X537018Y370559D01*
X537982D01*
X538912Y370808D01*
X539746Y371290D01*
X540427Y371971D01*
X540908Y372805D01*
X541157Y373735D01*
Y374698D01*
X540908Y375628D01*
X540427Y376462D01*
X539746Y377143D01*
X538912Y377625D01*
X537982Y377874D01*
D02*
G37*
G36*
X351981Y374874D02*
X351019D01*
X350088Y374625D01*
X349254Y374143D01*
X348573Y373462D01*
X348092Y372628D01*
X347843Y371698D01*
Y370735D01*
X348092Y369805D01*
X348573Y368971D01*
X349254Y368290D01*
X350088Y367808D01*
X351019Y367559D01*
X351981D01*
X352912Y367808D01*
X353746Y368290D01*
X354427Y368971D01*
X354908Y369805D01*
X355157Y370735D01*
Y371698D01*
X354908Y372628D01*
X354427Y373462D01*
X353746Y374143D01*
X352912Y374625D01*
X351981Y374874D01*
D02*
G37*
G36*
X288481D02*
X287519D01*
X286588Y374625D01*
X285754Y374143D01*
X285073Y373462D01*
X284592Y372628D01*
X284343Y371698D01*
Y370735D01*
X284592Y369805D01*
X285073Y368971D01*
X285754Y368290D01*
X286588Y367808D01*
X287519Y367559D01*
X288481D01*
X289412Y367808D01*
X290246Y368290D01*
X290927Y368971D01*
X291408Y369805D01*
X291657Y370735D01*
Y371698D01*
X291408Y372628D01*
X290927Y373462D01*
X290246Y374143D01*
X289412Y374625D01*
X288481Y374874D01*
D02*
G37*
G36*
X225482D02*
X224518D01*
X223588Y374625D01*
X222754Y374143D01*
X222073Y373462D01*
X221592Y372628D01*
X221342Y371698D01*
Y370735D01*
X221592Y369805D01*
X222073Y368971D01*
X222754Y368290D01*
X223588Y367808D01*
X224518Y367559D01*
X225482D01*
X226412Y367808D01*
X227246Y368290D01*
X227927Y368971D01*
X228408Y369805D01*
X228658Y370735D01*
Y371698D01*
X228408Y372628D01*
X227927Y373462D01*
X227246Y374143D01*
X226412Y374625D01*
X225482Y374874D01*
D02*
G37*
G36*
X477982Y374374D02*
X477018D01*
X476088Y374125D01*
X475254Y373643D01*
X474573Y372962D01*
X474092Y372128D01*
X473842Y371198D01*
Y370235D01*
X474092Y369305D01*
X474573Y368471D01*
X475254Y367790D01*
X476088Y367308D01*
X477018Y367059D01*
X477982D01*
X478912Y367308D01*
X479746Y367790D01*
X480427Y368471D01*
X480908Y369305D01*
X481157Y370235D01*
Y371198D01*
X480908Y372128D01*
X480427Y372962D01*
X479746Y373643D01*
X478912Y374125D01*
X477982Y374374D01*
D02*
G37*
G36*
X414982Y373874D02*
X414018D01*
X413088Y373625D01*
X412254Y373143D01*
X411573Y372462D01*
X411092Y371628D01*
X410843Y370698D01*
Y369735D01*
X411092Y368805D01*
X411573Y367971D01*
X412254Y367290D01*
X413088Y366808D01*
X414018Y366559D01*
X414982D01*
X415912Y366808D01*
X416746Y367290D01*
X417427Y367971D01*
X417908Y368805D01*
X418157Y369735D01*
Y370698D01*
X417908Y371628D01*
X417427Y372462D01*
X416746Y373143D01*
X415912Y373625D01*
X414982Y373874D01*
D02*
G37*
G36*
X179495Y445968D02*
X178506D01*
X177550Y445713D01*
X176694Y445218D01*
X175995Y444519D01*
X175500Y443662D01*
X175244Y442707D01*
Y441718D01*
X175500Y440763D01*
X175995Y439906D01*
X176694Y439207D01*
X177550Y438713D01*
X177903Y438618D01*
Y437957D01*
X178019Y437371D01*
X178351Y436875D01*
X178654Y436572D01*
X178417Y436102D01*
X177550Y435870D01*
X176694Y435376D01*
X175995Y434676D01*
X175500Y433820D01*
X175244Y432865D01*
Y431876D01*
X175500Y430920D01*
X175995Y430064D01*
X176694Y429365D01*
X177550Y428870D01*
X177903Y428776D01*
Y428114D01*
X178019Y427529D01*
X178351Y427033D01*
X178654Y426730D01*
X178417Y426260D01*
X177550Y426027D01*
X176694Y425533D01*
X175995Y424834D01*
X175500Y423977D01*
X175244Y423022D01*
Y422033D01*
X175500Y421078D01*
X175995Y420221D01*
X176694Y419522D01*
X177550Y419028D01*
X177903Y418933D01*
Y418272D01*
X178019Y417686D01*
X178351Y417190D01*
X178654Y416887D01*
X178417Y416417D01*
X177550Y416185D01*
X176694Y415691D01*
X175995Y414991D01*
X175500Y414135D01*
X175244Y413179D01*
Y412191D01*
X175500Y411235D01*
X175995Y410379D01*
X176694Y409680D01*
X177550Y409185D01*
X177903Y409091D01*
Y408429D01*
X178019Y407844D01*
X178351Y407348D01*
X178654Y407045D01*
X178417Y406575D01*
X177550Y406343D01*
X176694Y405848D01*
X175995Y405149D01*
X175500Y404292D01*
X175244Y403337D01*
Y402348D01*
X175500Y401393D01*
X175995Y400536D01*
X176694Y399837D01*
X177550Y399343D01*
X177903Y399248D01*
Y398587D01*
X178019Y398001D01*
X178351Y397505D01*
X178654Y397202D01*
X178417Y396732D01*
X177550Y396500D01*
X176694Y396006D01*
X175995Y395306D01*
X175500Y394450D01*
X175244Y393495D01*
Y392506D01*
X175500Y391550D01*
X175995Y390694D01*
X176694Y389995D01*
X177471Y389546D01*
Y375181D01*
X176573Y374663D01*
X175837Y373927D01*
X175317Y373026D01*
X175047Y372020D01*
Y370980D01*
X175317Y369974D01*
X175837Y369073D01*
X176573Y368337D01*
X177474Y367817D01*
X178480Y367547D01*
X179520D01*
X180526Y367817D01*
X181427Y368337D01*
X181461Y368371D01*
X181923Y368180D01*
Y366586D01*
X180522Y365184D01*
X179520Y365453D01*
X178480D01*
X177474Y365183D01*
X176573Y364663D01*
X175837Y363927D01*
X175317Y363026D01*
X175047Y362020D01*
Y360980D01*
X175317Y359974D01*
X175837Y359073D01*
X176573Y358337D01*
X177474Y357817D01*
X178480Y357547D01*
X179520D01*
X180526Y357817D01*
X181427Y358337D01*
X182163Y359073D01*
X182683Y359974D01*
X182953Y360980D01*
Y362020D01*
X182685Y363022D01*
X183461Y363798D01*
X183923Y363607D01*
Y358586D01*
X180522Y355185D01*
X179520Y355453D01*
X178480D01*
X177474Y355183D01*
X176573Y354663D01*
X175837Y353927D01*
X175317Y353026D01*
X175047Y352020D01*
Y350980D01*
X175317Y349974D01*
X175837Y349073D01*
X176573Y348337D01*
X177474Y347817D01*
X178480Y347547D01*
X179520D01*
X180526Y347817D01*
X181427Y348337D01*
X182163Y349073D01*
X182683Y349974D01*
X182953Y350980D01*
Y352020D01*
X182685Y353022D01*
X185461Y355799D01*
X185923Y355607D01*
Y350586D01*
X180522Y345184D01*
X179520Y345453D01*
X178480D01*
X177474Y345183D01*
X176573Y344663D01*
X175837Y343927D01*
X175317Y343026D01*
X175047Y342020D01*
Y340980D01*
X175317Y339974D01*
X175837Y339073D01*
X176573Y338337D01*
X177474Y337817D01*
X178480Y337547D01*
X179520D01*
X180526Y337817D01*
X181427Y338337D01*
X182163Y339073D01*
X182683Y339974D01*
X182953Y340980D01*
Y342020D01*
X182685Y343022D01*
X187461Y347798D01*
X187923Y347607D01*
Y342586D01*
X180522Y335185D01*
X179520Y335453D01*
X178480D01*
X177474Y335183D01*
X176573Y334663D01*
X175837Y333927D01*
X175317Y333026D01*
X175047Y332020D01*
Y330980D01*
X175317Y329974D01*
X175837Y329073D01*
X176573Y328337D01*
X177474Y327817D01*
X178480Y327547D01*
X179520D01*
X180526Y327817D01*
X181427Y328337D01*
X182163Y329073D01*
X182683Y329974D01*
X182953Y330980D01*
Y332020D01*
X182685Y333022D01*
X189461Y339798D01*
X189923Y339607D01*
Y334586D01*
X180522Y325184D01*
X179520Y325453D01*
X178480D01*
X177474Y325183D01*
X176573Y324663D01*
X175837Y323927D01*
X175317Y323026D01*
X175047Y322020D01*
Y320980D01*
X175317Y319974D01*
X175837Y319073D01*
X176573Y318337D01*
X177474Y317817D01*
X178480Y317547D01*
X179520D01*
X180526Y317817D01*
X181427Y318337D01*
X182163Y319073D01*
X182683Y319974D01*
X182953Y320980D01*
Y322020D01*
X182685Y323022D01*
X192534Y332871D01*
X192866Y333367D01*
X192982Y333953D01*
Y425936D01*
X192866Y426521D01*
X192534Y427017D01*
X181004Y438548D01*
X181044Y439056D01*
X181306Y439207D01*
X182006Y439906D01*
X182500Y440763D01*
X182756Y441718D01*
Y442707D01*
X182500Y443662D01*
X182006Y444519D01*
X181306Y445218D01*
X180450Y445713D01*
X179495Y445968D01*
D02*
G37*
G36*
X433495D02*
X432506D01*
X431550Y445713D01*
X430694Y445218D01*
X429994Y444519D01*
X429500Y443662D01*
X429244Y442707D01*
Y441718D01*
X429500Y440763D01*
X429994Y439906D01*
X430694Y439207D01*
X431550Y438713D01*
X431903Y438618D01*
Y437957D01*
X432019Y437371D01*
X432351Y436875D01*
X432654Y436572D01*
X432417Y436102D01*
X431550Y435870D01*
X430694Y435376D01*
X429994Y434676D01*
X429500Y433820D01*
X429244Y432865D01*
Y431876D01*
X429500Y430920D01*
X429994Y430064D01*
X430694Y429365D01*
X431550Y428870D01*
X431903Y428776D01*
Y428114D01*
X432019Y427529D01*
X432351Y427033D01*
X432654Y426730D01*
X432417Y426260D01*
X431550Y426027D01*
X430694Y425533D01*
X429994Y424834D01*
X429500Y423977D01*
X429244Y423022D01*
Y422033D01*
X429500Y421078D01*
X429994Y420221D01*
X430694Y419522D01*
X431550Y419028D01*
X431903Y418933D01*
Y418272D01*
X432019Y417686D01*
X432351Y417190D01*
X432654Y416887D01*
X432417Y416417D01*
X431550Y416185D01*
X430694Y415691D01*
X429994Y414991D01*
X429500Y414135D01*
X429244Y413179D01*
Y412191D01*
X429500Y411235D01*
X429994Y410379D01*
X430694Y409680D01*
X431550Y409185D01*
X431903Y409091D01*
Y408429D01*
X432019Y407844D01*
X432351Y407348D01*
X432654Y407045D01*
X432417Y406575D01*
X431550Y406343D01*
X430694Y405848D01*
X429994Y405149D01*
X429500Y404292D01*
X429244Y403337D01*
Y402348D01*
X429500Y401393D01*
X429994Y400536D01*
X430694Y399837D01*
X431550Y399343D01*
X431903Y399248D01*
Y398587D01*
X432019Y398001D01*
X432351Y397505D01*
X432654Y397202D01*
X432417Y396732D01*
X431550Y396500D01*
X430694Y396006D01*
X429994Y395306D01*
X429500Y394450D01*
X429244Y393495D01*
Y392506D01*
X429500Y391550D01*
X429994Y390694D01*
X430694Y389995D01*
X431471Y389546D01*
Y374681D01*
X430573Y374163D01*
X429837Y373427D01*
X429317Y372526D01*
X429047Y371520D01*
Y370480D01*
X429317Y369474D01*
X429837Y368573D01*
X430573Y367837D01*
X431474Y367317D01*
X432480Y367047D01*
X433520D01*
X434526Y367317D01*
X435427Y367837D01*
X435461Y367871D01*
X435923Y367680D01*
Y366086D01*
X434522Y364685D01*
X433520Y364953D01*
X432480D01*
X431474Y364683D01*
X430573Y364163D01*
X429837Y363427D01*
X429317Y362526D01*
X429047Y361520D01*
Y360480D01*
X429317Y359474D01*
X429837Y358573D01*
X430573Y357837D01*
X431474Y357317D01*
X432480Y357047D01*
X433520D01*
X434526Y357317D01*
X435427Y357837D01*
X436163Y358573D01*
X436683Y359474D01*
X436953Y360480D01*
Y361520D01*
X436685Y362522D01*
X437461Y363299D01*
X437923Y363107D01*
Y358086D01*
X434522Y354684D01*
X433520Y354953D01*
X432480D01*
X431474Y354683D01*
X430573Y354163D01*
X429837Y353427D01*
X429317Y352526D01*
X429047Y351520D01*
Y350480D01*
X429317Y349474D01*
X429837Y348573D01*
X430573Y347837D01*
X431474Y347317D01*
X432480Y347047D01*
X433520D01*
X434526Y347317D01*
X435427Y347837D01*
X436163Y348573D01*
X436683Y349474D01*
X436953Y350480D01*
Y351520D01*
X436685Y352522D01*
X439461Y355298D01*
X439923Y355107D01*
Y350086D01*
X434522Y344685D01*
X433520Y344953D01*
X432480D01*
X431474Y344683D01*
X430573Y344163D01*
X429837Y343427D01*
X429317Y342526D01*
X429047Y341520D01*
Y340480D01*
X429317Y339474D01*
X429837Y338573D01*
X430573Y337837D01*
X431474Y337317D01*
X432480Y337047D01*
X433520D01*
X434526Y337317D01*
X435427Y337837D01*
X436163Y338573D01*
X436683Y339474D01*
X436953Y340480D01*
Y341520D01*
X436685Y342522D01*
X441461Y347299D01*
X441923Y347107D01*
Y342086D01*
X434522Y334684D01*
X433520Y334953D01*
X432480D01*
X431474Y334683D01*
X430573Y334163D01*
X429837Y333427D01*
X429317Y332526D01*
X429047Y331520D01*
Y330480D01*
X429317Y329474D01*
X429837Y328573D01*
X430573Y327837D01*
X431474Y327317D01*
X432480Y327047D01*
X433520D01*
X434526Y327317D01*
X435427Y327837D01*
X436163Y328573D01*
X436683Y329474D01*
X436953Y330480D01*
Y331520D01*
X436685Y332522D01*
X443461Y339299D01*
X443923Y339107D01*
Y334086D01*
X434522Y324685D01*
X433520Y324953D01*
X432480D01*
X431474Y324683D01*
X430573Y324163D01*
X429837Y323427D01*
X429317Y322526D01*
X429047Y321520D01*
Y320480D01*
X429317Y319474D01*
X429837Y318573D01*
X430573Y317837D01*
X431474Y317317D01*
X432480Y317047D01*
X433520D01*
X434526Y317317D01*
X435427Y317837D01*
X436163Y318573D01*
X436683Y319474D01*
X436953Y320480D01*
Y321520D01*
X436685Y322522D01*
X446534Y332371D01*
X446866Y332868D01*
X446982Y333453D01*
Y425936D01*
X446866Y426521D01*
X446534Y427017D01*
X435004Y438548D01*
X435044Y439056D01*
X435306Y439207D01*
X436005Y439906D01*
X436500Y440763D01*
X436756Y441718D01*
Y442707D01*
X436500Y443662D01*
X436005Y444519D01*
X435306Y445218D01*
X434450Y445713D01*
X433495Y445968D01*
D02*
G37*
G36*
X335520Y355453D02*
X334480D01*
X333474Y355183D01*
X332573Y354663D01*
X331837Y353927D01*
X331317Y353026D01*
X331047Y352020D01*
Y350980D01*
X331317Y349974D01*
X331837Y349073D01*
X332573Y348337D01*
X333471Y347819D01*
Y345181D01*
X332573Y344663D01*
X331837Y343927D01*
X331317Y343026D01*
X331047Y342020D01*
Y340980D01*
X331317Y339974D01*
X331837Y339073D01*
X332573Y338337D01*
X333474Y337817D01*
X334480Y337547D01*
X335520D01*
X336526Y337817D01*
X337427Y338337D01*
X338163Y339073D01*
X338683Y339974D01*
X338953Y340980D01*
Y342020D01*
X338683Y343026D01*
X338163Y343927D01*
X337427Y344663D01*
X336529Y345181D01*
Y347819D01*
X337427Y348337D01*
X338163Y349073D01*
X338683Y349974D01*
X338953Y350980D01*
Y352020D01*
X338683Y353026D01*
X338163Y353927D01*
X337427Y354663D01*
X336526Y355183D01*
X335520Y355453D01*
D02*
G37*
G36*
X209520D02*
X208480D01*
X207474Y355183D01*
X206573Y354663D01*
X205837Y353927D01*
X205317Y353026D01*
X205047Y352020D01*
Y350980D01*
X205317Y349974D01*
X205837Y349073D01*
X206573Y348337D01*
X207471Y347819D01*
Y345181D01*
X206573Y344663D01*
X205837Y343927D01*
X205317Y343026D01*
X205047Y342020D01*
Y340980D01*
X205317Y339974D01*
X205837Y339073D01*
X206573Y338337D01*
X207474Y337817D01*
X208480Y337547D01*
X209520D01*
X210526Y337817D01*
X211427Y338337D01*
X212163Y339073D01*
X212683Y339974D01*
X212953Y340980D01*
Y342020D01*
X212683Y343026D01*
X212163Y343927D01*
X211427Y344663D01*
X210529Y345181D01*
Y347819D01*
X211427Y348337D01*
X212163Y349073D01*
X212683Y349974D01*
X212953Y350980D01*
Y352020D01*
X212683Y353026D01*
X212163Y353927D01*
X211427Y354663D01*
X210526Y355183D01*
X209520Y355453D01*
D02*
G37*
G36*
X335520Y375453D02*
X334480D01*
X333474Y375183D01*
X332573Y374663D01*
X331837Y373927D01*
X331317Y373026D01*
X331047Y372020D01*
Y370980D01*
X331317Y369974D01*
X331837Y369073D01*
X332573Y368337D01*
X333474Y367817D01*
X334221Y367617D01*
Y367047D01*
X334337Y366462D01*
X334668Y365966D01*
X334720Y365915D01*
X334528Y365453D01*
X334480D01*
X333474Y365183D01*
X332573Y364663D01*
X331837Y363927D01*
X331317Y363026D01*
X331047Y362020D01*
Y360980D01*
X331317Y359974D01*
X331837Y359073D01*
X332573Y358337D01*
X333474Y357817D01*
X334480Y357547D01*
X335520D01*
X336522Y357816D01*
X349971Y344367D01*
Y339441D01*
X347843D01*
Y332126D01*
X349971D01*
Y329557D01*
X349254Y329143D01*
X348573Y328462D01*
X348092Y327628D01*
X347843Y326698D01*
Y325735D01*
X348092Y324805D01*
X348573Y323971D01*
X349254Y323290D01*
X350088Y322808D01*
X351019Y322559D01*
X351981D01*
X352912Y322808D01*
X353746Y323290D01*
X354427Y323971D01*
X354908Y324805D01*
X355157Y325735D01*
Y326698D01*
X354908Y327628D01*
X354427Y328462D01*
X353746Y329143D01*
X353029Y329557D01*
Y332126D01*
X355157D01*
Y339441D01*
X353029D01*
Y345000D01*
X352913Y345585D01*
X352581Y346081D01*
X338685Y359978D01*
X338953Y360980D01*
Y361028D01*
X339415Y361220D01*
X360971Y339664D01*
Y307846D01*
X360509Y307654D01*
X355581Y312581D01*
X355085Y312913D01*
X354500Y313029D01*
X338681D01*
X338163Y313927D01*
X337427Y314663D01*
X336526Y315183D01*
X335520Y315453D01*
X334480D01*
X333474Y315183D01*
X332573Y314663D01*
X332029Y314119D01*
X331529Y314327D01*
Y315866D01*
X333478Y317815D01*
X334480Y317547D01*
X335520D01*
X336526Y317817D01*
X337427Y318337D01*
X338163Y319073D01*
X338683Y319974D01*
X338953Y320980D01*
Y322020D01*
X338683Y323026D01*
X338163Y323927D01*
X337427Y324663D01*
X336526Y325183D01*
X335520Y325453D01*
X334480D01*
X333474Y325183D01*
X332573Y324663D01*
X331837Y323927D01*
X331317Y323026D01*
X331047Y322020D01*
Y320980D01*
X331315Y319978D01*
X329550Y318213D01*
X329088Y318404D01*
Y323425D01*
X333478Y327816D01*
X334480Y327547D01*
X335520D01*
X336526Y327817D01*
X337427Y328337D01*
X338163Y329073D01*
X338683Y329974D01*
X338953Y330980D01*
Y332020D01*
X338683Y333026D01*
X338163Y333927D01*
X337427Y334663D01*
X336526Y335183D01*
X335520Y335453D01*
X334480D01*
X333474Y335183D01*
X332573Y334663D01*
X331837Y333927D01*
X331317Y333026D01*
X331047Y332020D01*
Y330980D01*
X331315Y329978D01*
X326477Y325140D01*
X326145Y324644D01*
X326029Y324058D01*
Y287753D01*
X326145Y287167D01*
X326477Y286671D01*
X338930Y274218D01*
X338886Y274000D01*
X338930Y273782D01*
X302919Y237770D01*
X302587Y237274D01*
X302471Y236689D01*
Y226177D01*
X302038Y225927D01*
X301357Y225246D01*
X300875Y224412D01*
X300626Y223481D01*
Y222518D01*
X300875Y221588D01*
X301357Y220754D01*
X302038Y220073D01*
X302872Y219592D01*
X303802Y219342D01*
X304765D01*
X305695Y219592D01*
X306529Y220073D01*
X307210Y220754D01*
X307692Y221588D01*
X307941Y222518D01*
Y223481D01*
X307692Y224412D01*
X307210Y225246D01*
X306529Y225927D01*
X305695Y226408D01*
X305529Y226453D01*
Y236055D01*
X329464Y259990D01*
X329852Y259671D01*
X329587Y259274D01*
X329471Y258689D01*
Y239500D01*
X329587Y238915D01*
X329919Y238419D01*
X338187Y230150D01*
Y226658D01*
X336059D01*
Y219342D01*
X338187D01*
Y216158D01*
X336559D01*
Y208842D01*
X342845D01*
Y207291D01*
X341211Y205658D01*
X336059D01*
Y198343D01*
X343374D01*
Y203495D01*
X345456Y205576D01*
X345787Y206072D01*
X345903Y206658D01*
Y231126D01*
X345787Y231711D01*
X345456Y232207D01*
X336029Y241634D01*
Y256556D01*
X338401Y258927D01*
X338935Y258754D01*
X339071Y258072D01*
X339597Y257286D01*
X340383Y256760D01*
X341311Y256575D01*
X348398D01*
X349325Y256760D01*
X350112Y257286D01*
X350416Y257741D01*
X350819Y257821D01*
X351315Y258152D01*
X355581Y262419D01*
X355913Y262915D01*
X356029Y263500D01*
Y287784D01*
X355913Y288369D01*
X355581Y288865D01*
X355157Y289289D01*
Y294441D01*
X350005D01*
X341865Y302581D01*
X341369Y302913D01*
X340784Y303029D01*
X338681D01*
X338163Y303927D01*
X337427Y304663D01*
X336526Y305183D01*
X335520Y305453D01*
X334566D01*
X331782Y308237D01*
X331813Y308390D01*
X332355Y308555D01*
X332573Y308337D01*
X333474Y307817D01*
X334480Y307547D01*
X335520D01*
X336526Y307817D01*
X337427Y308337D01*
X338163Y309073D01*
X338681Y309971D01*
X353867D01*
X360971Y302867D01*
Y278000D01*
Y276425D01*
X360602D01*
X359675Y276240D01*
X358888Y275714D01*
X358362Y274928D01*
X358178Y274000D01*
X358362Y273072D01*
X358888Y272286D01*
X359675Y271760D01*
X359700Y271755D01*
Y271245D01*
X359675Y271240D01*
X358888Y270714D01*
X358362Y269928D01*
X358178Y269000D01*
X358362Y268072D01*
X358888Y267286D01*
X359675Y266760D01*
X359700Y266755D01*
Y266245D01*
X359675Y266240D01*
X358888Y265714D01*
X358362Y264928D01*
X358178Y264000D01*
X358362Y263072D01*
X358888Y262286D01*
X359675Y261760D01*
X359700Y261755D01*
Y261245D01*
X359675Y261240D01*
X358888Y260714D01*
X358362Y259928D01*
X358178Y259000D01*
X358362Y258072D01*
X358888Y257286D01*
X359675Y256760D01*
X360602Y256575D01*
X367689D01*
X368617Y256760D01*
X369403Y257286D01*
X369929Y258072D01*
X370113Y259000D01*
X369929Y259928D01*
X369403Y260714D01*
X368617Y261240D01*
X368591Y261245D01*
Y261755D01*
X368617Y261760D01*
X369403Y262286D01*
X369929Y263072D01*
X370113Y264000D01*
X369929Y264928D01*
X369403Y265714D01*
X368617Y266240D01*
X368591Y266245D01*
Y266755D01*
X368617Y266760D01*
X369403Y267286D01*
X369929Y268072D01*
X370113Y269000D01*
X369929Y269928D01*
X369403Y270714D01*
X368617Y271240D01*
X368591Y271245D01*
Y271755D01*
X368617Y271760D01*
X369403Y272286D01*
X369929Y273072D01*
X370113Y274000D01*
X369929Y274928D01*
X369403Y275714D01*
X368704Y276182D01*
X368696Y276531D01*
X368745Y276710D01*
X368851Y276739D01*
X369649Y277199D01*
X370301Y277851D01*
X370761Y278649D01*
X371000Y279539D01*
Y280461D01*
X370761Y281351D01*
X370301Y282149D01*
X369649Y282801D01*
X368851Y283261D01*
X367961Y283500D01*
X367039D01*
X366149Y283261D01*
X365351Y282801D01*
X364699Y282149D01*
X364529Y281855D01*
X364029Y281989D01*
Y303500D01*
Y340297D01*
X363913Y340882D01*
X363581Y341379D01*
X337279Y367681D01*
Y368252D01*
X337427Y368337D01*
X338163Y369073D01*
X338683Y369974D01*
X338953Y370980D01*
Y372020D01*
X338683Y373026D01*
X338163Y373927D01*
X337427Y374663D01*
X336526Y375183D01*
X335520Y375453D01*
D02*
G37*
G36*
X209520D02*
X208480D01*
X207474Y375183D01*
X206573Y374663D01*
X205837Y373927D01*
X205317Y373026D01*
X205047Y372020D01*
Y370980D01*
X205317Y369974D01*
X205837Y369073D01*
X206573Y368337D01*
X207474Y367817D01*
X208480Y367547D01*
X209299D01*
X209317Y367520D01*
X231971Y344866D01*
Y308846D01*
X231509Y308654D01*
X227581Y312581D01*
X227085Y312913D01*
X226500Y313029D01*
X212681D01*
X212163Y313927D01*
X211427Y314663D01*
X210526Y315183D01*
X209520Y315453D01*
X208480D01*
X207474Y315183D01*
X206573Y314663D01*
X205837Y313927D01*
X205529Y313394D01*
X205029Y313528D01*
Y315367D01*
X207478Y317815D01*
X208480Y317547D01*
X209520D01*
X210526Y317817D01*
X211427Y318337D01*
X212163Y319073D01*
X212683Y319974D01*
X212953Y320980D01*
Y322020D01*
X212683Y323026D01*
X212163Y323927D01*
X211427Y324663D01*
X210526Y325183D01*
X209520Y325453D01*
X208480D01*
X207474Y325183D01*
X206573Y324663D01*
X205837Y323927D01*
X205317Y323026D01*
X205047Y322020D01*
Y320980D01*
X205315Y319978D01*
X202991Y317654D01*
X202529Y317846D01*
Y322867D01*
X207478Y327816D01*
X208480Y327547D01*
X209520D01*
X210526Y327817D01*
X211427Y328337D01*
X212163Y329073D01*
X212683Y329974D01*
X212953Y330980D01*
Y332020D01*
X212683Y333026D01*
X212163Y333927D01*
X211427Y334663D01*
X210526Y335183D01*
X209520Y335453D01*
X208480D01*
X207474Y335183D01*
X206573Y334663D01*
X205837Y333927D01*
X205317Y333026D01*
X205047Y332020D01*
Y330980D01*
X205315Y329978D01*
X199919Y324581D01*
X199587Y324085D01*
X199471Y323500D01*
Y287311D01*
X199587Y286726D01*
X199919Y286230D01*
X211930Y274218D01*
X211887Y274000D01*
X211930Y273782D01*
X176202Y238054D01*
X175871Y237558D01*
X175754Y236972D01*
Y227840D01*
X175038Y227427D01*
X174357Y226746D01*
X173875Y225912D01*
X173626Y224981D01*
Y224019D01*
X173875Y223088D01*
X174357Y222254D01*
X175038Y221573D01*
X175872Y221092D01*
X176802Y220843D01*
X177765D01*
X178695Y221092D01*
X179529Y221573D01*
X180210Y222254D01*
X180692Y223088D01*
X180941Y224019D01*
Y224981D01*
X180692Y225912D01*
X180210Y226746D01*
X179529Y227427D01*
X178813Y227840D01*
Y236339D01*
X200464Y257990D01*
X200852Y257671D01*
X200587Y257274D01*
X200471Y256689D01*
Y238000D01*
X200587Y237415D01*
X200919Y236919D01*
X209241Y228596D01*
X209059Y228157D01*
X209059D01*
Y220843D01*
X211187D01*
Y217657D01*
X209059D01*
Y210343D01*
X216374D01*
Y217657D01*
X214246D01*
Y220843D01*
X216374D01*
Y225313D01*
X216874Y225580D01*
X216971Y225516D01*
Y209917D01*
X214211Y207157D01*
X209059D01*
Y199843D01*
X211187D01*
Y196340D01*
X210471Y195927D01*
X209790Y195246D01*
X209308Y194412D01*
X209059Y193482D01*
Y192518D01*
X209308Y191588D01*
X209790Y190754D01*
X210471Y190073D01*
X211305Y189592D01*
X212235Y189342D01*
X213198D01*
X214128Y189592D01*
X214962Y190073D01*
X215643Y190754D01*
X216125Y191588D01*
X216374Y192518D01*
Y193482D01*
X216125Y194412D01*
X215643Y195246D01*
X214962Y195927D01*
X214246Y196340D01*
Y199843D01*
X216374D01*
Y204995D01*
X219581Y208202D01*
X219913Y208698D01*
X220029Y209283D01*
Y226500D01*
X219913Y227085D01*
X219581Y227581D01*
X207029Y240134D01*
Y254556D01*
X211401Y258927D01*
X211935Y258754D01*
X212071Y258072D01*
X212597Y257286D01*
X213383Y256760D01*
X214311Y256575D01*
X221398D01*
X222325Y256760D01*
X223112Y257286D01*
X223236Y257471D01*
X223500D01*
X224085Y257587D01*
X224581Y257919D01*
X228581Y261919D01*
X228913Y262415D01*
X229029Y263000D01*
Y280107D01*
X228913Y280693D01*
X228581Y281189D01*
X226529Y283241D01*
Y287626D01*
X228658D01*
Y294941D01*
X221342D01*
Y292813D01*
X219850D01*
X212684Y299978D01*
X212953Y300980D01*
Y302020D01*
X212683Y303026D01*
X212163Y303927D01*
X211427Y304663D01*
X210526Y305183D01*
X209520Y305453D01*
X208480D01*
X207478Y305185D01*
X205029Y307633D01*
Y309472D01*
X205529Y309606D01*
X205837Y309073D01*
X206573Y308337D01*
X207474Y307817D01*
X208480Y307547D01*
X209520D01*
X210526Y307817D01*
X211427Y308337D01*
X212163Y309073D01*
X212681Y309971D01*
X225867D01*
X231919Y303919D01*
X231971Y303884D01*
Y288000D01*
X232087Y287415D01*
X232419Y286919D01*
X235971Y283366D01*
Y280500D01*
Y276425D01*
X233602D01*
X232675Y276240D01*
X231888Y275714D01*
X231362Y274928D01*
X231178Y274000D01*
X231362Y273072D01*
X231888Y272286D01*
X232675Y271760D01*
X232700Y271755D01*
Y271245D01*
X232675Y271240D01*
X231888Y270714D01*
X231362Y269928D01*
X231178Y269000D01*
X231362Y268072D01*
X231888Y267286D01*
X232675Y266760D01*
X232700Y266755D01*
Y266245D01*
X232675Y266240D01*
X231888Y265714D01*
X231362Y264928D01*
X231178Y264000D01*
X231362Y263072D01*
X231888Y262286D01*
X232675Y261760D01*
X232700Y261755D01*
Y261245D01*
X232675Y261240D01*
X231888Y260714D01*
X231362Y259928D01*
X231178Y259000D01*
X231362Y258072D01*
X231888Y257286D01*
X232675Y256760D01*
X233602Y256575D01*
X240689D01*
X241617Y256760D01*
X242403Y257286D01*
X242929Y258072D01*
X243113Y259000D01*
X242929Y259928D01*
X242403Y260714D01*
X241617Y261240D01*
X241591Y261245D01*
Y261755D01*
X241617Y261760D01*
X242403Y262286D01*
X242929Y263072D01*
X243113Y264000D01*
X242929Y264928D01*
X242403Y265714D01*
X241617Y266240D01*
X241591Y266245D01*
Y266755D01*
X241617Y266760D01*
X242403Y267286D01*
X242929Y268072D01*
X243113Y269000D01*
X242929Y269928D01*
X242403Y270714D01*
X241617Y271240D01*
X241591Y271245D01*
Y271755D01*
X241617Y271760D01*
X242403Y272286D01*
X242929Y273072D01*
X243113Y274000D01*
X242929Y274928D01*
X242403Y275714D01*
X241617Y276240D01*
X240689Y276425D01*
X239029D01*
Y278971D01*
X239842D01*
X240199Y278351D01*
X240851Y277699D01*
X241649Y277238D01*
X242539Y277000D01*
X243461D01*
X244351Y277238D01*
X245149Y277699D01*
X245801Y278351D01*
X246262Y279149D01*
X246500Y280039D01*
Y280961D01*
X246262Y281851D01*
X245801Y282649D01*
X245149Y283301D01*
X244351Y283762D01*
X243461Y284000D01*
X242539D01*
X241649Y283762D01*
X240851Y283301D01*
X240199Y282649D01*
X239842Y282029D01*
X239029D01*
Y284000D01*
X238913Y284585D01*
X238581Y285082D01*
X235029Y288633D01*
Y305000D01*
Y345500D01*
X234913Y346085D01*
X234581Y346581D01*
X212126Y369036D01*
X212163Y369073D01*
X212683Y369974D01*
X212953Y370980D01*
Y372020D01*
X212683Y373026D01*
X212163Y373927D01*
X211427Y374663D01*
X210526Y375183D01*
X209520Y375453D01*
D02*
G37*
G36*
X399020Y374953D02*
X397980D01*
X396974Y374683D01*
X396073Y374163D01*
X395337Y373427D01*
X394817Y372526D01*
X394547Y371520D01*
Y370480D01*
X394817Y369474D01*
X395337Y368573D01*
X396073Y367837D01*
X396974Y367317D01*
X397980Y367047D01*
X399020D01*
X400022Y367316D01*
X424616Y342721D01*
Y305846D01*
X424154Y305654D01*
X417727Y312081D01*
X417231Y312413D01*
X416646Y312529D01*
X402181D01*
X401663Y313427D01*
X400927Y314163D01*
X400026Y314683D01*
X399020Y314953D01*
X397980D01*
X396974Y314683D01*
X396073Y314163D01*
X395529Y313619D01*
X395029Y313826D01*
Y318174D01*
X395529Y318381D01*
X396073Y317837D01*
X396974Y317317D01*
X397980Y317047D01*
X399020D01*
X400026Y317317D01*
X400927Y317837D01*
X401663Y318573D01*
X402183Y319474D01*
X402453Y320480D01*
Y321520D01*
X402183Y322526D01*
X401663Y323427D01*
X400927Y324163D01*
X400026Y324683D01*
X399020Y324953D01*
X397980D01*
X396974Y324683D01*
X396073Y324163D01*
X395337Y323427D01*
X394817Y322526D01*
X394719Y322162D01*
X394633D01*
X394048Y322046D01*
X393552Y321714D01*
X393491Y321654D01*
X393029Y321846D01*
Y323366D01*
X396978Y327315D01*
X397980Y327047D01*
X399020D01*
X400026Y327317D01*
X400927Y327837D01*
X401663Y328573D01*
X402183Y329474D01*
X402453Y330480D01*
Y331520D01*
X402183Y332526D01*
X401663Y333427D01*
X400927Y334163D01*
X400026Y334683D01*
X399020Y334953D01*
X397980D01*
X396974Y334683D01*
X396073Y334163D01*
X395337Y333427D01*
X394817Y332526D01*
X394547Y331520D01*
Y330480D01*
X394815Y329478D01*
X390419Y325081D01*
X390087Y324585D01*
X389971Y324000D01*
Y286311D01*
X390087Y285726D01*
X390419Y285230D01*
X400930Y274718D01*
X400886Y274500D01*
X400930Y274282D01*
X368202Y241554D01*
X367870Y241058D01*
X367754Y240472D01*
Y226840D01*
X367038Y226427D01*
X366357Y225746D01*
X365875Y224912D01*
X365626Y223981D01*
Y223019D01*
X365875Y222088D01*
X366357Y221254D01*
X367038Y220573D01*
X367872Y220092D01*
X368802Y219843D01*
X369765D01*
X370695Y220092D01*
X371529Y220573D01*
X372210Y221254D01*
X372692Y222088D01*
X372941Y223019D01*
Y223981D01*
X372692Y224912D01*
X372210Y225746D01*
X371529Y226427D01*
X370813Y226840D01*
Y239839D01*
X391964Y260990D01*
X392352Y260671D01*
X392087Y260274D01*
X391971Y259689D01*
Y240500D01*
X392087Y239915D01*
X392419Y239419D01*
X403187Y228650D01*
Y227157D01*
X401059D01*
Y219843D01*
X403187D01*
Y216657D01*
X401059D01*
Y209343D01*
X408374D01*
Y216657D01*
X406246D01*
Y219843D01*
X408374D01*
Y227157D01*
X406246D01*
Y229283D01*
X406130Y229869D01*
X405798Y230365D01*
X395029Y241133D01*
Y242155D01*
X395529Y242204D01*
X395587Y241915D01*
X395919Y241419D01*
X408971Y228366D01*
Y208917D01*
X406211Y206157D01*
X401059D01*
Y198843D01*
X403187D01*
Y195340D01*
X402471Y194927D01*
X401790Y194246D01*
X401308Y193412D01*
X401059Y192482D01*
Y191518D01*
X401308Y190588D01*
X401790Y189754D01*
X402471Y189073D01*
X403305Y188592D01*
X404235Y188342D01*
X405198D01*
X406128Y188592D01*
X406962Y189073D01*
X407643Y189754D01*
X408125Y190588D01*
X408374Y191518D01*
Y192482D01*
X408125Y193412D01*
X407643Y194246D01*
X406962Y194927D01*
X406246Y195340D01*
Y198843D01*
X408374D01*
Y203995D01*
X411581Y207202D01*
X411913Y207698D01*
X412029Y208283D01*
Y229000D01*
X411913Y229585D01*
X411581Y230081D01*
X398529Y243133D01*
Y257556D01*
X400401Y259427D01*
X400935Y259254D01*
X401071Y258572D01*
X401597Y257786D01*
X402383Y257260D01*
X403311Y257076D01*
X410398D01*
X411326Y257260D01*
X412112Y257786D01*
X412236Y257971D01*
X412500D01*
X413085Y258087D01*
X413581Y258419D01*
X417581Y262419D01*
X417913Y262915D01*
X418029Y263500D01*
Y287126D01*
X418157D01*
Y294441D01*
X410843D01*
Y292313D01*
X409350D01*
X402184Y299478D01*
X402453Y300480D01*
Y301520D01*
X402183Y302526D01*
X401663Y303427D01*
X400927Y304163D01*
X400026Y304683D01*
X399020Y304953D01*
X397980D01*
X396978Y304684D01*
X395029Y306633D01*
Y308173D01*
X395529Y308381D01*
X396073Y307837D01*
X396974Y307317D01*
X397980Y307047D01*
X399020D01*
X400026Y307317D01*
X400927Y307837D01*
X401663Y308573D01*
X402181Y309471D01*
X416012D01*
X424616Y300867D01*
Y278000D01*
Y276924D01*
X422602D01*
X421674Y276740D01*
X420888Y276214D01*
X420362Y275428D01*
X420178Y274500D01*
X420362Y273572D01*
X420888Y272786D01*
X421674Y272260D01*
X421700Y272255D01*
Y271745D01*
X421674Y271740D01*
X420888Y271214D01*
X420362Y270428D01*
X420178Y269500D01*
X420362Y268572D01*
X420888Y267786D01*
X421674Y267260D01*
X421700Y267255D01*
Y266745D01*
X421674Y266740D01*
X420888Y266214D01*
X420362Y265428D01*
X420178Y264500D01*
X420362Y263572D01*
X420888Y262786D01*
X421674Y262260D01*
X421700Y262255D01*
Y261745D01*
X421674Y261740D01*
X420888Y261214D01*
X420362Y260428D01*
X420178Y259500D01*
X420362Y258572D01*
X420888Y257786D01*
X421674Y257260D01*
X422602Y257076D01*
X429689D01*
X430617Y257260D01*
X431403Y257786D01*
X431929Y258572D01*
X432114Y259500D01*
X431929Y260428D01*
X431403Y261214D01*
X430617Y261740D01*
X430591Y261745D01*
Y262255D01*
X430617Y262260D01*
X431403Y262786D01*
X431929Y263572D01*
X432114Y264500D01*
X431929Y265428D01*
X431403Y266214D01*
X430617Y266740D01*
X430591Y266745D01*
Y267255D01*
X430617Y267260D01*
X431403Y267786D01*
X431929Y268572D01*
X432114Y269500D01*
X431929Y270428D01*
X431403Y271214D01*
X430617Y271740D01*
X430591Y271745D01*
Y272255D01*
X430617Y272260D01*
X431403Y272786D01*
X431929Y273572D01*
X432114Y274500D01*
X431929Y275428D01*
X431751Y275693D01*
X432063Y276128D01*
X432539Y276000D01*
X433461D01*
X434351Y276238D01*
X435149Y276699D01*
X435801Y277351D01*
X436262Y278149D01*
X436500Y279039D01*
Y279961D01*
X436262Y280851D01*
X435801Y281649D01*
X435149Y282301D01*
X434351Y282762D01*
X433461Y283000D01*
X432539D01*
X431649Y282762D01*
X430851Y282301D01*
X430199Y281649D01*
X429842Y281029D01*
X427675D01*
Y301500D01*
Y343354D01*
X427559Y343940D01*
X427227Y344436D01*
X402184Y369478D01*
X402453Y370480D01*
Y371520D01*
X402183Y372526D01*
X401663Y373427D01*
X400927Y374163D01*
X400026Y374683D01*
X399020Y374953D01*
D02*
G37*
G36*
X209520Y365453D02*
X208480D01*
X207474Y365183D01*
X206573Y364663D01*
X205837Y363927D01*
X205317Y363026D01*
X205047Y362020D01*
Y360980D01*
X205317Y359974D01*
X205837Y359073D01*
X206573Y358337D01*
X207474Y357817D01*
X208480Y357547D01*
X209520D01*
X210526Y357817D01*
X211427Y358337D01*
X211714Y358624D01*
X223471Y346866D01*
Y339441D01*
X221342D01*
Y332126D01*
X223471D01*
Y330057D01*
X222754Y329643D01*
X222073Y328962D01*
X221592Y328128D01*
X221342Y327198D01*
Y326235D01*
X221592Y325305D01*
X222073Y324471D01*
X222754Y323790D01*
X223588Y323308D01*
X224518Y323059D01*
X225482D01*
X226412Y323308D01*
X227246Y323790D01*
X227927Y324471D01*
X228408Y325305D01*
X228658Y326235D01*
Y327198D01*
X228408Y328128D01*
X227927Y328962D01*
X227246Y329643D01*
X226529Y330057D01*
Y332126D01*
X228658D01*
Y339441D01*
X226529D01*
Y347500D01*
X226413Y348085D01*
X226081Y348581D01*
X213020Y361643D01*
X212953Y361688D01*
Y362020D01*
X212683Y363026D01*
X212163Y363927D01*
X211427Y364663D01*
X210526Y365183D01*
X209520Y365453D01*
D02*
G37*
G36*
X399020Y364953D02*
X397980D01*
X396974Y364683D01*
X396073Y364163D01*
X395337Y363427D01*
X394817Y362526D01*
X394547Y361520D01*
Y360480D01*
X394817Y359474D01*
X395337Y358573D01*
X396073Y357837D01*
X396974Y357317D01*
X397721Y357117D01*
Y356547D01*
X397837Y355962D01*
X398168Y355466D01*
X398220Y355415D01*
X398028Y354953D01*
X397980D01*
X396974Y354683D01*
X396073Y354163D01*
X395337Y353427D01*
X394817Y352526D01*
X394547Y351520D01*
Y350480D01*
X394817Y349474D01*
X395337Y348573D01*
X396073Y347837D01*
X396971Y347319D01*
Y344681D01*
X396073Y344163D01*
X395337Y343427D01*
X394817Y342526D01*
X394547Y341520D01*
Y340480D01*
X394817Y339474D01*
X395337Y338573D01*
X396073Y337837D01*
X396974Y337317D01*
X397980Y337047D01*
X399020D01*
X400026Y337317D01*
X400927Y337837D01*
X401663Y338573D01*
X402183Y339474D01*
X402453Y340480D01*
Y341520D01*
X402183Y342526D01*
X401663Y343427D01*
X400927Y344163D01*
X400029Y344681D01*
Y347319D01*
X400927Y347837D01*
X401663Y348573D01*
X402183Y349474D01*
X402453Y350480D01*
Y350528D01*
X402915Y350720D01*
X412971Y340664D01*
Y338441D01*
X410843D01*
Y331126D01*
X412971D01*
Y329557D01*
X412254Y329143D01*
X411573Y328462D01*
X411092Y327628D01*
X410843Y326698D01*
Y325735D01*
X411092Y324805D01*
X411573Y323971D01*
X412254Y323290D01*
X413088Y322808D01*
X414018Y322559D01*
X414982D01*
X415912Y322808D01*
X416746Y323290D01*
X417427Y323971D01*
X417908Y324805D01*
X418157Y325735D01*
Y326698D01*
X417908Y327628D01*
X417427Y328462D01*
X416746Y329143D01*
X416029Y329557D01*
Y331126D01*
X418157D01*
Y338441D01*
X416029D01*
Y341297D01*
X415913Y341882D01*
X415581Y342379D01*
X400779Y357181D01*
Y357752D01*
X400927Y357837D01*
X401663Y358573D01*
X402183Y359474D01*
X402453Y360480D01*
Y361520D01*
X402183Y362526D01*
X401663Y363427D01*
X400927Y364163D01*
X400026Y364683D01*
X399020Y364953D01*
D02*
G37*
G36*
X463520D02*
X462480D01*
X461474Y364683D01*
X460573Y364163D01*
X459837Y363427D01*
X459317Y362526D01*
X459047Y361520D01*
Y360480D01*
X459317Y359474D01*
X459837Y358573D01*
X460573Y357837D01*
X461474Y357317D01*
X462220Y357117D01*
Y356547D01*
X462337Y355962D01*
X462669Y355466D01*
X462720Y355415D01*
X462528Y354953D01*
X462480D01*
X461474Y354683D01*
X460573Y354163D01*
X459837Y353427D01*
X459317Y352526D01*
X459047Y351520D01*
Y350480D01*
X459317Y349474D01*
X459837Y348573D01*
X460573Y347837D01*
X461471Y347319D01*
Y344681D01*
X460573Y344163D01*
X459837Y343427D01*
X459317Y342526D01*
X459047Y341520D01*
Y340480D01*
X459317Y339474D01*
X459837Y338573D01*
X460573Y337837D01*
X461474Y337317D01*
X462480Y337047D01*
X463520D01*
X464526Y337317D01*
X465427Y337837D01*
X466163Y338573D01*
X466683Y339474D01*
X466953Y340480D01*
Y341520D01*
X466683Y342526D01*
X466163Y343427D01*
X465427Y344163D01*
X464529Y344681D01*
Y347319D01*
X465427Y347837D01*
X466163Y348573D01*
X466683Y349474D01*
X466953Y350480D01*
Y350528D01*
X467415Y350720D01*
X475971Y342164D01*
Y338941D01*
X473842D01*
Y331626D01*
X475471D01*
Y329057D01*
X474754Y328643D01*
X474073Y327962D01*
X473592Y327128D01*
X473343Y326198D01*
Y325235D01*
X473592Y324305D01*
X474073Y323471D01*
X474754Y322790D01*
X475588Y322308D01*
X476518Y322059D01*
X477482D01*
X478412Y322308D01*
X479246Y322790D01*
X479927Y323471D01*
X480408Y324305D01*
X480657Y325235D01*
Y326198D01*
X480408Y327128D01*
X479927Y327962D01*
X479246Y328643D01*
X478529Y329057D01*
Y331626D01*
X481157D01*
Y338941D01*
X479029D01*
Y342797D01*
X478913Y343382D01*
X478581Y343879D01*
X465279Y357181D01*
Y357752D01*
X465427Y357837D01*
X466163Y358573D01*
X466683Y359474D01*
X466953Y360480D01*
Y361520D01*
X466683Y362526D01*
X466163Y363427D01*
X465427Y364163D01*
X464526Y364683D01*
X463520Y364953D01*
D02*
G37*
G36*
X242020Y315453D02*
X240980D01*
X239974Y315183D01*
X239073Y314663D01*
X238337Y313927D01*
X237817Y313026D01*
X237547Y312020D01*
Y310980D01*
X237817Y309974D01*
X238337Y309073D01*
X239073Y308337D01*
X239974Y307817D01*
X240980Y307547D01*
X242020D01*
X243026Y307817D01*
X243927Y308337D01*
X244663Y309073D01*
X245183Y309974D01*
X245453Y310980D01*
Y312020D01*
X245183Y313026D01*
X244663Y313927D01*
X243927Y314663D01*
X243026Y315183D01*
X242020Y315453D01*
D02*
G37*
G36*
X179520D02*
X178480D01*
X177474Y315183D01*
X176573Y314663D01*
X175837Y313927D01*
X175317Y313026D01*
X175047Y312020D01*
Y310980D01*
X175317Y309974D01*
X175837Y309073D01*
X176573Y308337D01*
X177474Y307817D01*
X178480Y307547D01*
X179520D01*
X180526Y307817D01*
X181427Y308337D01*
X182163Y309073D01*
X182683Y309974D01*
X182953Y310980D01*
Y312020D01*
X182683Y313026D01*
X182163Y313927D01*
X181427Y314663D01*
X180526Y315183D01*
X179520Y315453D01*
D02*
G37*
G36*
X433520Y314953D02*
X432480D01*
X431474Y314683D01*
X430573Y314163D01*
X429837Y313427D01*
X429317Y312526D01*
X429047Y311520D01*
Y310480D01*
X429317Y309474D01*
X429837Y308573D01*
X430573Y307837D01*
X431474Y307317D01*
X432480Y307047D01*
X433520D01*
X434526Y307317D01*
X435427Y307837D01*
X436163Y308573D01*
X436683Y309474D01*
X436953Y310480D01*
Y311520D01*
X436683Y312526D01*
X436163Y313427D01*
X435427Y314163D01*
X434526Y314683D01*
X433520Y314953D01*
D02*
G37*
G36*
X369020D02*
X367980D01*
X366974Y314683D01*
X366073Y314163D01*
X365337Y313427D01*
X364817Y312526D01*
X364547Y311520D01*
Y310480D01*
X364817Y309474D01*
X365337Y308573D01*
X366073Y307837D01*
X366974Y307317D01*
X367980Y307047D01*
X369020D01*
X370026Y307317D01*
X370927Y307837D01*
X371663Y308573D01*
X372183Y309474D01*
X372453Y310480D01*
Y311520D01*
X372183Y312526D01*
X371663Y313427D01*
X370927Y314163D01*
X370026Y314683D01*
X369020Y314953D01*
D02*
G37*
G36*
X242020Y305453D02*
X240980D01*
X239974Y305183D01*
X239073Y304663D01*
X238337Y303927D01*
X237817Y303026D01*
X237547Y302020D01*
Y300980D01*
X237817Y299974D01*
X238337Y299073D01*
X239073Y298337D01*
X239974Y297817D01*
X240980Y297547D01*
X242020D01*
X243026Y297817D01*
X243927Y298337D01*
X244663Y299073D01*
X245183Y299974D01*
X245453Y300980D01*
Y302020D01*
X245183Y303026D01*
X244663Y303927D01*
X243927Y304663D01*
X243026Y305183D01*
X242020Y305453D01*
D02*
G37*
G36*
X179520D02*
X178480D01*
X177474Y305183D01*
X176573Y304663D01*
X175837Y303927D01*
X175317Y303026D01*
X175047Y302020D01*
Y300980D01*
X175317Y299974D01*
X175837Y299073D01*
X176573Y298337D01*
X177474Y297817D01*
X178480Y297547D01*
X179520D01*
X180526Y297817D01*
X181427Y298337D01*
X182163Y299073D01*
X182683Y299974D01*
X182953Y300980D01*
Y302020D01*
X182683Y303026D01*
X182163Y303927D01*
X181427Y304663D01*
X180526Y305183D01*
X179520Y305453D01*
D02*
G37*
G36*
X433520Y304953D02*
X432480D01*
X431474Y304683D01*
X430573Y304163D01*
X429837Y303427D01*
X429317Y302526D01*
X429047Y301520D01*
Y300480D01*
X429317Y299474D01*
X429837Y298573D01*
X430573Y297837D01*
X431474Y297317D01*
X432480Y297047D01*
X433520D01*
X434526Y297317D01*
X435427Y297837D01*
X436163Y298573D01*
X436683Y299474D01*
X436953Y300480D01*
Y301520D01*
X436683Y302526D01*
X436163Y303427D01*
X435427Y304163D01*
X434526Y304683D01*
X433520Y304953D01*
D02*
G37*
G36*
X369020D02*
X367980D01*
X366974Y304683D01*
X366073Y304163D01*
X365337Y303427D01*
X364817Y302526D01*
X364547Y301520D01*
Y300480D01*
X364817Y299474D01*
X365337Y298573D01*
X366073Y297837D01*
X366974Y297317D01*
X367980Y297047D01*
X369020D01*
X370026Y297317D01*
X370927Y297837D01*
X371663Y298573D01*
X372183Y299474D01*
X372453Y300480D01*
Y301520D01*
X372183Y302526D01*
X371663Y303427D01*
X370927Y304163D01*
X370026Y304683D01*
X369020Y304953D01*
D02*
G37*
G36*
X242020Y295453D02*
X240980D01*
X239974Y295183D01*
X239073Y294663D01*
X238337Y293927D01*
X237817Y293026D01*
X237547Y292020D01*
Y290980D01*
X237817Y289974D01*
X238337Y289073D01*
X239073Y288337D01*
X239974Y287817D01*
X240980Y287547D01*
X242020D01*
X243026Y287817D01*
X243927Y288337D01*
X244663Y289073D01*
X245183Y289974D01*
X245453Y290980D01*
Y292020D01*
X245183Y293026D01*
X244663Y293927D01*
X243927Y294663D01*
X243026Y295183D01*
X242020Y295453D01*
D02*
G37*
G36*
X179520D02*
X178480D01*
X177474Y295183D01*
X176573Y294663D01*
X175837Y293927D01*
X175317Y293026D01*
X175047Y292020D01*
Y290980D01*
X175317Y289974D01*
X175837Y289073D01*
X176573Y288337D01*
X177474Y287817D01*
X178480Y287547D01*
X179520D01*
X180526Y287817D01*
X181427Y288337D01*
X182163Y289073D01*
X182683Y289974D01*
X182953Y290980D01*
Y292020D01*
X182683Y293026D01*
X182163Y293927D01*
X181427Y294663D01*
X180526Y295183D01*
X179520Y295453D01*
D02*
G37*
G36*
X433520Y294953D02*
X432480D01*
X431474Y294683D01*
X430573Y294163D01*
X429837Y293427D01*
X429317Y292526D01*
X429047Y291520D01*
Y290480D01*
X429317Y289474D01*
X429837Y288573D01*
X430573Y287837D01*
X431474Y287317D01*
X432480Y287047D01*
X433520D01*
X434526Y287317D01*
X435427Y287837D01*
X436163Y288573D01*
X436683Y289474D01*
X436953Y290480D01*
Y291520D01*
X436683Y292526D01*
X436163Y293427D01*
X435427Y294163D01*
X434526Y294683D01*
X433520Y294953D01*
D02*
G37*
G36*
X369020D02*
X367980D01*
X366974Y294683D01*
X366073Y294163D01*
X365337Y293427D01*
X364817Y292526D01*
X364547Y291520D01*
Y290480D01*
X364817Y289474D01*
X365337Y288573D01*
X366073Y287837D01*
X366974Y287317D01*
X367980Y287047D01*
X369020D01*
X370026Y287317D01*
X370927Y287837D01*
X371663Y288573D01*
X372183Y289474D01*
X372453Y290480D01*
Y291520D01*
X372183Y292526D01*
X371663Y293427D01*
X370927Y294163D01*
X370026Y294683D01*
X369020Y294953D01*
D02*
G37*
G36*
X177765Y207157D02*
X176802D01*
X175872Y206908D01*
X175038Y206427D01*
X174357Y205746D01*
X173875Y204912D01*
X173626Y203981D01*
Y203018D01*
X173840Y202220D01*
X170419Y198798D01*
X170087Y198302D01*
X169971Y197716D01*
Y188284D01*
X170087Y187698D01*
X170419Y187202D01*
X173626Y183995D01*
Y178842D01*
X180941D01*
Y186158D01*
X175789D01*
X173029Y188917D01*
Y197083D01*
X176003Y200057D01*
X176802Y199843D01*
X177765D01*
X178695Y200092D01*
X179529Y200573D01*
X180210Y201254D01*
X180692Y202088D01*
X180941Y203018D01*
Y203981D01*
X180692Y204912D01*
X180210Y205746D01*
X179529Y206427D01*
X178695Y206908D01*
X177765Y207157D01*
D02*
G37*
G36*
X180941Y196658D02*
X173626D01*
Y189342D01*
X180941D01*
Y196658D01*
D02*
G37*
G36*
X244441Y196158D02*
X237126D01*
Y188842D01*
X244441D01*
Y196158D01*
D02*
G37*
G36*
X340198Y195158D02*
X339235D01*
X338305Y194908D01*
X337471Y194427D01*
X336790Y193746D01*
X336308Y192912D01*
X336059Y191981D01*
Y191018D01*
X336308Y190088D01*
X336790Y189254D01*
X337471Y188573D01*
X338305Y188092D01*
X339235Y187843D01*
X340198D01*
X341128Y188092D01*
X341962Y188573D01*
X342643Y189254D01*
X343125Y190088D01*
X343374Y191018D01*
Y191981D01*
X343125Y192912D01*
X342643Y193746D01*
X341962Y194427D01*
X341128Y194908D01*
X340198Y195158D01*
D02*
G37*
G36*
X307941D02*
X300626D01*
Y187843D01*
X307941D01*
Y195158D01*
D02*
G37*
G36*
X177765Y217657D02*
X176802D01*
X175872Y217408D01*
X175038Y216927D01*
X174357Y216246D01*
X173875Y215412D01*
X173626Y214481D01*
Y213519D01*
X173875Y212588D01*
X174357Y211754D01*
X175038Y211073D01*
X175872Y210592D01*
X176802Y210343D01*
X177765D01*
X178564Y210557D01*
X205702Y183419D01*
X206198Y183087D01*
X206784Y182971D01*
X208450D01*
X208893Y182833D01*
X208895Y182830D01*
X209037Y182688D01*
X209059Y182577D01*
Y182018D01*
X209308Y181088D01*
X209790Y180254D01*
X210471Y179573D01*
X211305Y179092D01*
X212235Y178842D01*
X213198D01*
X214128Y179092D01*
X214962Y179573D01*
X215643Y180254D01*
X216125Y181088D01*
X216374Y182018D01*
Y182982D01*
X216125Y183912D01*
X215643Y184746D01*
X214962Y185427D01*
X214128Y185908D01*
X213198Y186158D01*
X212235D01*
X211305Y185908D01*
X210568Y185483D01*
X210469Y185581D01*
X210469Y185581D01*
X209973Y185913D01*
X209387Y186029D01*
X207417D01*
X180727Y212719D01*
X180941Y213519D01*
Y214481D01*
X180692Y215412D01*
X180210Y216246D01*
X179529Y216927D01*
X178695Y217408D01*
X177765Y217657D01*
D02*
G37*
G36*
X432265Y216657D02*
X431302D01*
X430372Y216408D01*
X429538Y215927D01*
X428857Y215246D01*
X428375Y214412D01*
X428126Y213481D01*
Y212519D01*
X428375Y211588D01*
X428857Y210754D01*
X429538Y210073D01*
X430372Y209592D01*
X431302Y209343D01*
X432265D01*
X433064Y209557D01*
X461978Y180643D01*
X462474Y180311D01*
X463059Y180195D01*
X463780D01*
X463808Y180088D01*
X464290Y179254D01*
X464971Y178573D01*
X465805Y178092D01*
X466735Y177842D01*
X467698D01*
X468628Y178092D01*
X469462Y178573D01*
X470143Y179254D01*
X470625Y180088D01*
X470874Y181018D01*
Y181982D01*
X470625Y182912D01*
X470143Y183746D01*
X469462Y184427D01*
X468628Y184908D01*
X467698Y185158D01*
X466735D01*
X465805Y184908D01*
X464971Y184427D01*
X464290Y183746D01*
X464115Y183442D01*
X463558Y183389D01*
X435227Y211719D01*
X435441Y212519D01*
Y213481D01*
X435192Y214412D01*
X434710Y215246D01*
X434029Y215927D01*
X433195Y216408D01*
X432265Y216657D01*
D02*
G37*
G36*
X369765D02*
X368802D01*
X367872Y216408D01*
X367038Y215927D01*
X366357Y215246D01*
X365875Y214412D01*
X365626Y213481D01*
Y212519D01*
X365875Y211588D01*
X366357Y210754D01*
X367038Y210073D01*
X367872Y209592D01*
X368802Y209343D01*
X369765D01*
X370564Y209557D01*
X399478Y180643D01*
X399974Y180311D01*
X400559Y180195D01*
X401280D01*
X401308Y180088D01*
X401790Y179254D01*
X402471Y178573D01*
X403305Y178092D01*
X404235Y177842D01*
X405198D01*
X406128Y178092D01*
X406962Y178573D01*
X407643Y179254D01*
X408125Y180088D01*
X408374Y181018D01*
Y181982D01*
X408125Y182912D01*
X407643Y183746D01*
X406962Y184427D01*
X406128Y184908D01*
X405198Y185158D01*
X404235D01*
X403305Y184908D01*
X402471Y184427D01*
X401790Y183746D01*
X401615Y183442D01*
X401058Y183389D01*
X372727Y211719D01*
X372941Y212519D01*
Y213481D01*
X372692Y214412D01*
X372210Y215246D01*
X371529Y215927D01*
X370695Y216408D01*
X369765Y216657D01*
D02*
G37*
G36*
X241265Y217158D02*
X240302D01*
X239372Y216908D01*
X238538Y216427D01*
X237857Y215746D01*
X237375Y214912D01*
X237126Y213982D01*
Y213018D01*
X237375Y212088D01*
X237857Y211254D01*
X238538Y210573D01*
X239372Y210092D01*
X240302Y209842D01*
X241265D01*
X242064Y210057D01*
X270978Y181143D01*
X271474Y180811D01*
X272059Y180695D01*
X272646D01*
X272808Y180088D01*
X273290Y179254D01*
X273971Y178573D01*
X274805Y178092D01*
X275735Y177842D01*
X276698D01*
X277628Y178092D01*
X278462Y178573D01*
X279143Y179254D01*
X279625Y180088D01*
X279874Y181018D01*
Y181982D01*
X279625Y182912D01*
X279143Y183746D01*
X278462Y184427D01*
X277628Y184908D01*
X276698Y185158D01*
X275735D01*
X274805Y184908D01*
X273971Y184427D01*
X273298Y183754D01*
X272692D01*
X244227Y212220D01*
X244441Y213018D01*
Y213982D01*
X244192Y214912D01*
X243710Y215746D01*
X243029Y216427D01*
X242195Y216908D01*
X241265Y217158D01*
D02*
G37*
G36*
X305265Y216158D02*
X304302D01*
X303372Y215908D01*
X302538Y215427D01*
X301857Y214746D01*
X301375Y213912D01*
X301126Y212982D01*
Y212018D01*
X301375Y211088D01*
X301857Y210254D01*
X302538Y209573D01*
X303372Y209092D01*
X304302Y208842D01*
X305265D01*
X306064Y209057D01*
X334478Y180643D01*
X334974Y180311D01*
X335559Y180195D01*
X336146D01*
X336308Y179588D01*
X336790Y178754D01*
X337471Y178073D01*
X338305Y177592D01*
X339235Y177342D01*
X340198D01*
X341128Y177592D01*
X341962Y178073D01*
X342643Y178754D01*
X343125Y179588D01*
X343374Y180518D01*
Y181482D01*
X343125Y182412D01*
X342643Y183246D01*
X341962Y183927D01*
X341128Y184408D01*
X340198Y184658D01*
X339235D01*
X338305Y184408D01*
X337471Y183927D01*
X336798Y183254D01*
X336192D01*
X308227Y211220D01*
X308441Y212018D01*
Y212982D01*
X308192Y213912D01*
X307710Y214746D01*
X307029Y215427D01*
X306195Y215908D01*
X305265Y216158D01*
D02*
G37*
G36*
X497265Y215158D02*
X496302D01*
X495372Y214908D01*
X494538Y214427D01*
X493857Y213746D01*
X493375Y212912D01*
X493126Y211982D01*
Y211018D01*
X493375Y210088D01*
X493857Y209254D01*
X494538Y208573D01*
X495372Y208092D01*
X496302Y207842D01*
X497265D01*
X498064Y208057D01*
X525702Y180419D01*
X526198Y180087D01*
X526784Y179971D01*
X529059D01*
Y179018D01*
X529308Y178088D01*
X529790Y177254D01*
X530471Y176573D01*
X531305Y176092D01*
X532235Y175842D01*
X533198D01*
X534128Y176092D01*
X534962Y176573D01*
X535643Y177254D01*
X536125Y178088D01*
X536374Y179018D01*
Y179982D01*
X536125Y180912D01*
X535643Y181746D01*
X534962Y182427D01*
X534128Y182908D01*
X533198Y183158D01*
X532235D01*
X531305Y182908D01*
X531191Y182842D01*
X531085Y182913D01*
X530500Y183029D01*
X527417D01*
X500227Y210220D01*
X500441Y211018D01*
Y211982D01*
X500192Y212912D01*
X499710Y213746D01*
X499029Y214427D01*
X498195Y214908D01*
X497265Y215158D01*
D02*
G37*
G36*
X512961Y123098D02*
X506039D01*
Y116177D01*
X512961D01*
Y123098D01*
D02*
G37*
G36*
X503374Y124921D02*
X491532D01*
Y113079D01*
X503374D01*
Y124921D01*
D02*
G37*
G36*
X482445D02*
X481279D01*
X480135Y124694D01*
X479057Y124247D01*
X478088Y123599D01*
X477263Y122775D01*
X476615Y121805D01*
X476168Y120727D01*
X475941Y119583D01*
Y118417D01*
X476168Y117273D01*
X476615Y116195D01*
X477263Y115225D01*
X478088Y114401D01*
X479057Y113753D01*
X480135Y113306D01*
X481279Y113079D01*
X482445D01*
X483589Y113306D01*
X484667Y113753D01*
X485637Y114401D01*
X486461Y115225D01*
X487110Y116195D01*
X487556Y117273D01*
X487783Y118417D01*
Y119583D01*
X487556Y120727D01*
X487110Y121805D01*
X486461Y122775D01*
X485637Y123599D01*
X484667Y124247D01*
X483589Y124694D01*
X482445Y124921D01*
D02*
G37*
G36*
X466855D02*
X465689D01*
X464544Y124694D01*
X463467Y124247D01*
X462497Y123599D01*
X461672Y122775D01*
X461024Y121805D01*
X460578Y120727D01*
X460350Y119583D01*
Y118417D01*
X460578Y117273D01*
X461024Y116195D01*
X461672Y115225D01*
X462497Y114401D01*
X463467Y113753D01*
X464544Y113306D01*
X465689Y113079D01*
X466855D01*
X467999Y113306D01*
X469076Y113753D01*
X470046Y114401D01*
X470871Y115225D01*
X471519Y116195D01*
X471965Y117273D01*
X472193Y118417D01*
Y119583D01*
X471965Y120727D01*
X471519Y121805D01*
X470871Y122775D01*
X470046Y123599D01*
X469076Y124247D01*
X467999Y124694D01*
X466855Y124921D01*
D02*
G37*
G36*
X451264D02*
X450098D01*
X448954Y124694D01*
X447876Y124247D01*
X446907Y123599D01*
X446082Y122775D01*
X445434Y121805D01*
X444987Y120727D01*
X444760Y119583D01*
Y118417D01*
X444987Y117273D01*
X445434Y116195D01*
X446082Y115225D01*
X446907Y114401D01*
X447876Y113753D01*
X448954Y113306D01*
X450098Y113079D01*
X451264D01*
X452408Y113306D01*
X453486Y113753D01*
X454456Y114401D01*
X455280Y115225D01*
X455928Y116195D01*
X456375Y117273D01*
X456602Y118417D01*
Y119583D01*
X456375Y120727D01*
X455928Y121805D01*
X455280Y122775D01*
X454456Y123599D01*
X453486Y124247D01*
X452408Y124694D01*
X451264Y124921D01*
D02*
G37*
G36*
X435674D02*
X434507D01*
X433363Y124694D01*
X432286Y124247D01*
X431316Y123599D01*
X430491Y122775D01*
X429843Y121805D01*
X429397Y120727D01*
X429169Y119583D01*
Y118417D01*
X429397Y117273D01*
X429843Y116195D01*
X430491Y115225D01*
X431316Y114401D01*
X432286Y113753D01*
X433363Y113306D01*
X434507Y113079D01*
X435674D01*
X436818Y113306D01*
X437895Y113753D01*
X438865Y114401D01*
X439690Y115225D01*
X440338Y116195D01*
X440784Y117273D01*
X441012Y118417D01*
Y119583D01*
X440784Y120727D01*
X440338Y121805D01*
X439690Y122775D01*
X438865Y123599D01*
X437895Y124247D01*
X436818Y124694D01*
X435674Y124921D01*
D02*
G37*
G36*
X420083D02*
X418917D01*
X417773Y124694D01*
X416695Y124247D01*
X415725Y123599D01*
X414901Y122775D01*
X414253Y121805D01*
X413806Y120727D01*
X413579Y119583D01*
Y118417D01*
X413806Y117273D01*
X414253Y116195D01*
X414901Y115225D01*
X415725Y114401D01*
X416695Y113753D01*
X417773Y113306D01*
X418917Y113079D01*
X420083D01*
X421227Y113306D01*
X422305Y113753D01*
X423275Y114401D01*
X424099Y115225D01*
X424747Y116195D01*
X425194Y117273D01*
X425421Y118417D01*
Y119583D01*
X425194Y120727D01*
X424747Y121805D01*
X424099Y122775D01*
X423275Y123599D01*
X422305Y124247D01*
X421227Y124694D01*
X420083Y124921D01*
D02*
G37*
G36*
X407874D02*
X396031D01*
Y113079D01*
X407874D01*
Y124921D01*
D02*
G37*
G36*
X386945D02*
X385779D01*
X384635Y124694D01*
X383557Y124247D01*
X382588Y123599D01*
X381763Y122775D01*
X381115Y121805D01*
X380668Y120727D01*
X380441Y119583D01*
Y118417D01*
X380668Y117273D01*
X381115Y116195D01*
X381227Y116028D01*
X372607Y107407D01*
X361995D01*
X361804Y107869D01*
X367799Y113865D01*
X367967Y113753D01*
X369044Y113306D01*
X370188Y113079D01*
X371355D01*
X372499Y113306D01*
X373576Y113753D01*
X374546Y114401D01*
X375371Y115225D01*
X376019Y116195D01*
X376465Y117273D01*
X376693Y118417D01*
Y119583D01*
X376465Y120727D01*
X376019Y121805D01*
X375371Y122775D01*
X374546Y123599D01*
X373576Y124247D01*
X372499Y124694D01*
X371355Y124921D01*
X370188D01*
X369044Y124694D01*
X367967Y124247D01*
X366997Y123599D01*
X366172Y122775D01*
X365524Y121805D01*
X365078Y120727D01*
X364850Y119583D01*
Y118417D01*
X365078Y117273D01*
X365524Y116195D01*
X365636Y116028D01*
X359016Y109407D01*
X348405D01*
X348213Y109869D01*
X352209Y113865D01*
X352376Y113753D01*
X353454Y113306D01*
X354598Y113079D01*
X355764D01*
X356908Y113306D01*
X357986Y113753D01*
X358956Y114401D01*
X359780Y115225D01*
X360429Y116195D01*
X360875Y117273D01*
X361102Y118417D01*
Y119583D01*
X360875Y120727D01*
X360429Y121805D01*
X359780Y122775D01*
X358956Y123599D01*
X357986Y124247D01*
X356908Y124694D01*
X355764Y124921D01*
X354598D01*
X353454Y124694D01*
X352376Y124247D01*
X351407Y123599D01*
X350582Y122775D01*
X349934Y121805D01*
X349487Y120727D01*
X349260Y119583D01*
Y118417D01*
X349487Y117273D01*
X349934Y116195D01*
X350046Y116028D01*
X345426Y111407D01*
X334814D01*
X334623Y111869D01*
X336618Y113865D01*
X336786Y113753D01*
X337863Y113306D01*
X339007Y113079D01*
X340174D01*
X341318Y113306D01*
X342395Y113753D01*
X343365Y114401D01*
X344190Y115225D01*
X344838Y116195D01*
X345284Y117273D01*
X345512Y118417D01*
Y119583D01*
X345284Y120727D01*
X344838Y121805D01*
X344190Y122775D01*
X343365Y123599D01*
X342395Y124247D01*
X341318Y124694D01*
X340174Y124921D01*
X339007D01*
X337863Y124694D01*
X336786Y124247D01*
X335816Y123599D01*
X334991Y122775D01*
X334343Y121805D01*
X333897Y120727D01*
X333669Y119583D01*
Y118417D01*
X333897Y117273D01*
X334343Y116195D01*
X334455Y116028D01*
X331835Y113407D01*
X327188D01*
X327036Y113907D01*
X327775Y114401D01*
X328599Y115225D01*
X329247Y116195D01*
X329694Y117273D01*
X329921Y118417D01*
Y119583D01*
X329694Y120727D01*
X329247Y121805D01*
X328599Y122775D01*
X327775Y123599D01*
X326805Y124247D01*
X325727Y124694D01*
X324583Y124921D01*
X323417D01*
X322273Y124694D01*
X321195Y124247D01*
X320225Y123599D01*
X319401Y122775D01*
X318753Y121805D01*
X318306Y120727D01*
X318079Y119583D01*
Y118529D01*
X314122D01*
Y121622D01*
X304878D01*
Y114438D01*
X304416Y114247D01*
X303675Y114988D01*
X303807Y115216D01*
X304122Y116392D01*
Y117608D01*
X303807Y118784D01*
X303199Y119838D01*
X302338Y120699D01*
X301284Y121307D01*
X300109Y121622D01*
X298891D01*
X297716Y121307D01*
X296662Y120699D01*
X295801Y119838D01*
X295193Y118784D01*
X294878Y117608D01*
Y116392D01*
X295193Y115216D01*
X295801Y114162D01*
X296662Y113301D01*
X297716Y112693D01*
X298891Y112378D01*
X300109D01*
X301284Y112693D01*
X301512Y112825D01*
X302468Y111869D01*
X302276Y111407D01*
X297255D01*
X293675Y114988D01*
X293807Y115216D01*
X294122Y116392D01*
Y117608D01*
X293807Y118784D01*
X293198Y119838D01*
X292338Y120699D01*
X291284Y121307D01*
X290108Y121622D01*
X288892D01*
X287716Y121307D01*
X286662Y120699D01*
X285802Y119838D01*
X285193Y118784D01*
X284878Y117608D01*
Y116392D01*
X285193Y115216D01*
X285802Y114162D01*
X286662Y113301D01*
X287716Y112693D01*
X288892Y112378D01*
X290108D01*
X291284Y112693D01*
X291512Y112825D01*
X294468Y109869D01*
X294276Y109407D01*
X289255D01*
X283675Y114988D01*
X283807Y115216D01*
X284122Y116392D01*
Y117608D01*
X283807Y118784D01*
X283198Y119838D01*
X282338Y120699D01*
X281284Y121307D01*
X280108Y121622D01*
X278891D01*
X277716Y121307D01*
X276662Y120699D01*
X275801Y119838D01*
X275193Y118784D01*
X274878Y117608D01*
Y116392D01*
X275193Y115216D01*
X275801Y114162D01*
X276662Y113301D01*
X277716Y112693D01*
X278891Y112378D01*
X280108D01*
X281284Y112693D01*
X281512Y112825D01*
X286468Y107869D01*
X286277Y107407D01*
X281256D01*
X273675Y114988D01*
X273807Y115216D01*
X274122Y116392D01*
Y117608D01*
X273807Y118784D01*
X273199Y119838D01*
X272338Y120699D01*
X271284Y121307D01*
X270109Y121622D01*
X268892D01*
X267716Y121307D01*
X266662Y120699D01*
X265802Y119838D01*
X265193Y118784D01*
X264878Y117608D01*
Y116392D01*
X265193Y115216D01*
X265802Y114162D01*
X266662Y113301D01*
X267716Y112693D01*
X268892Y112378D01*
X270109D01*
X271284Y112693D01*
X271512Y112825D01*
X279541Y104797D01*
X280037Y104465D01*
X280622Y104349D01*
X373240D01*
X373825Y104465D01*
X374322Y104797D01*
X383390Y113865D01*
X383557Y113753D01*
X384635Y113306D01*
X385779Y113079D01*
X386945D01*
X388089Y113306D01*
X389167Y113753D01*
X390137Y114401D01*
X390962Y115225D01*
X391610Y116195D01*
X392056Y117273D01*
X392284Y118417D01*
Y119583D01*
X392056Y120727D01*
X391610Y121805D01*
X390962Y122775D01*
X390137Y123599D01*
X389167Y124247D01*
X388089Y124694D01*
X386945Y124921D01*
D02*
G37*
G36*
X250109Y121622D02*
X248891D01*
X247716Y121307D01*
X246662Y120699D01*
X245801Y119838D01*
X245193Y118784D01*
X244878Y117608D01*
Y116392D01*
X245193Y115216D01*
X245801Y114162D01*
X246662Y113301D01*
X247716Y112693D01*
X248891Y112378D01*
X250109D01*
X251284Y112693D01*
X252338Y113301D01*
X253199Y114162D01*
X253807Y115216D01*
X254122Y116392D01*
Y117608D01*
X253807Y118784D01*
X253199Y119838D01*
X252338Y120699D01*
X251284Y121307D01*
X250109Y121622D01*
D02*
G37*
G36*
X240108D02*
X238892D01*
X237716Y121307D01*
X236662Y120699D01*
X235802Y119838D01*
X235193Y118784D01*
X234878Y117608D01*
Y116392D01*
X235193Y115216D01*
X235802Y114162D01*
X236662Y113301D01*
X237716Y112693D01*
X238892Y112378D01*
X240108D01*
X241284Y112693D01*
X242338Y113301D01*
X243198Y114162D01*
X243807Y115216D01*
X244122Y116392D01*
Y117608D01*
X243807Y118784D01*
X243198Y119838D01*
X242338Y120699D01*
X241284Y121307D01*
X240108Y121622D01*
D02*
G37*
%LPD*%
G36*
X499687Y388784D02*
Y373078D01*
X499187Y373012D01*
X499183Y373026D01*
X498663Y373927D01*
X497927Y374663D01*
X497760Y374760D01*
Y388326D01*
X498410Y388500D01*
X499187Y388948D01*
X499687Y388784D01*
D02*
G37*
G36*
X505971Y349154D02*
Y344133D01*
X497022Y335185D01*
X496020Y335453D01*
X494980D01*
X493974Y335183D01*
X493073Y334663D01*
X492337Y333927D01*
X491817Y333026D01*
X491675Y332497D01*
X491175Y332563D01*
Y340437D01*
X491675Y340503D01*
X491817Y339974D01*
X492337Y339073D01*
X493073Y338337D01*
X493974Y337817D01*
X494980Y337547D01*
X496020D01*
X497026Y337817D01*
X497927Y338337D01*
X498663Y339073D01*
X499183Y339974D01*
X499453Y340980D01*
Y342020D01*
X499185Y343022D01*
X505509Y349346D01*
X505971Y349154D01*
D02*
G37*
G36*
X507971Y341154D02*
Y336134D01*
X497022Y325184D01*
X496020Y325453D01*
X494980D01*
X493974Y325183D01*
X493073Y324663D01*
X492337Y323927D01*
X491817Y323026D01*
X491675Y322497D01*
X491175Y322563D01*
Y330437D01*
X491675Y330503D01*
X491817Y329974D01*
X492337Y329073D01*
X493073Y328337D01*
X493974Y327817D01*
X494980Y327547D01*
X496020D01*
X497026Y327817D01*
X497927Y328337D01*
X498663Y329073D01*
X499183Y329974D01*
X499453Y330980D01*
Y332020D01*
X499185Y333022D01*
X507509Y341346D01*
X507971Y341154D01*
D02*
G37*
G36*
X459315Y302522D02*
X459047Y301520D01*
Y300480D01*
X459317Y299474D01*
X459837Y298573D01*
X460573Y297837D01*
X461474Y297317D01*
X462480Y297047D01*
X463520D01*
X464522Y297316D01*
X466384Y295453D01*
X466177Y294953D01*
X459047D01*
Y287047D01*
X466953D01*
Y294409D01*
X466972Y294448D01*
X467022Y294512D01*
X467453Y294781D01*
X467749Y294722D01*
X470399D01*
X473343Y291778D01*
Y286626D01*
X478471D01*
Y263633D01*
X475576Y260739D01*
X474825Y261240D01*
X474800Y261245D01*
Y261755D01*
X474825Y261760D01*
X475612Y262286D01*
X476138Y263072D01*
X476322Y264000D01*
X476138Y264928D01*
X475612Y265714D01*
X474825Y266240D01*
X474800Y266245D01*
Y266755D01*
X474825Y266760D01*
X475612Y267286D01*
X476138Y268072D01*
X476322Y269000D01*
X476138Y269928D01*
X475612Y270714D01*
X474825Y271240D01*
X474800Y271245D01*
Y271755D01*
X474825Y271760D01*
X475612Y272286D01*
X476138Y273072D01*
X476322Y274000D01*
X476138Y274928D01*
X475612Y275714D01*
X474825Y276240D01*
X473898Y276425D01*
X466811D01*
X466593Y276381D01*
X458029Y284945D01*
Y303154D01*
X458491Y303346D01*
X459315Y302522D01*
D02*
G37*
G36*
X316227Y339910D02*
Y334889D01*
X306522Y325184D01*
X305520Y325453D01*
X304480D01*
X303474Y325183D01*
X302573Y324663D01*
X301837Y323927D01*
X301317Y323026D01*
X301175Y322497D01*
X300675Y322563D01*
Y330437D01*
X301175Y330503D01*
X301317Y329974D01*
X301837Y329073D01*
X302573Y328337D01*
X303474Y327817D01*
X304480Y327547D01*
X305520D01*
X306526Y327817D01*
X307427Y328337D01*
X308163Y329073D01*
X308683Y329974D01*
X308953Y330980D01*
Y332020D01*
X308684Y333022D01*
X315765Y340102D01*
X316227Y339910D01*
D02*
G37*
G36*
X267815Y303022D02*
X267547Y302020D01*
Y300980D01*
X267817Y299974D01*
X268337Y299073D01*
X269073Y298337D01*
X269974Y297817D01*
X270980Y297547D01*
X272020D01*
X273026Y297817D01*
X273927Y298337D01*
X274214Y298623D01*
X282135Y290702D01*
X282631Y290370D01*
X283217Y290254D01*
X284343D01*
Y288126D01*
X287971D01*
Y263633D01*
X285076Y260739D01*
X284326Y261240D01*
X284300Y261245D01*
Y261755D01*
X284326Y261760D01*
X285112Y262286D01*
X285638Y263072D01*
X285822Y264000D01*
X285638Y264928D01*
X285112Y265714D01*
X284326Y266240D01*
X284300Y266245D01*
Y266755D01*
X284326Y266760D01*
X285112Y267286D01*
X285638Y268072D01*
X285822Y269000D01*
X285638Y269928D01*
X285112Y270714D01*
X284326Y271240D01*
X284300Y271245D01*
Y271755D01*
X284326Y271760D01*
X285112Y272286D01*
X285638Y273072D01*
X285822Y274000D01*
X285638Y274928D01*
X285112Y275714D01*
X284326Y276240D01*
X283398Y276425D01*
X276311D01*
X276093Y276381D01*
X265529Y286945D01*
Y304654D01*
X265991Y304846D01*
X267815Y303022D01*
D02*
G37*
%LPC*%
G36*
X275453Y295453D02*
X267547D01*
Y287547D01*
X275453D01*
Y295453D01*
D02*
G37*
%LPD*%
G36*
X379727Y425157D02*
Y420294D01*
X379265Y420102D01*
X371004Y428363D01*
X371044Y428871D01*
X371306Y429022D01*
X372006Y429721D01*
X372500Y430578D01*
X372732Y431444D01*
X373202Y431681D01*
X379727Y425157D01*
D02*
G37*
G36*
X189923Y425303D02*
Y420439D01*
X189461Y420248D01*
X181004Y428705D01*
X181044Y429213D01*
X181306Y429365D01*
X182006Y430064D01*
X182500Y430920D01*
X182732Y431787D01*
X183202Y432024D01*
X189923Y425303D01*
D02*
G37*
G36*
X187923Y417460D02*
Y412597D01*
X187461Y412405D01*
X181004Y418863D01*
X181044Y419371D01*
X181306Y419522D01*
X182006Y420221D01*
X182500Y421078D01*
X182732Y421944D01*
X183202Y422181D01*
X187923Y417460D01*
D02*
G37*
G36*
X443923Y425303D02*
Y420439D01*
X443461Y420248D01*
X435004Y428705D01*
X435044Y429213D01*
X435306Y429365D01*
X436005Y430064D01*
X436500Y430920D01*
X436732Y431787D01*
X437202Y432024D01*
X443923Y425303D01*
D02*
G37*
G36*
X441923Y417460D02*
Y412597D01*
X441461Y412405D01*
X435004Y418863D01*
X435044Y419371D01*
X435306Y419522D01*
X436005Y420221D01*
X436500Y421078D01*
X436732Y421944D01*
X437202Y422181D01*
X441923Y417460D01*
D02*
G37*
G36*
X331811Y303882D02*
X331317Y303026D01*
X331047Y302020D01*
Y300980D01*
X331317Y299974D01*
X331837Y299073D01*
X332573Y298337D01*
X333474Y297817D01*
X334480Y297547D01*
X335520D01*
X336526Y297817D01*
X337427Y298337D01*
X338163Y299073D01*
X338681Y299971D01*
X340150D01*
X347843Y292278D01*
Y287126D01*
X352971D01*
Y264134D01*
X349776Y260939D01*
X349325Y261240D01*
X349300Y261245D01*
Y261755D01*
X349325Y261760D01*
X350112Y262286D01*
X350638Y263072D01*
X350822Y264000D01*
X350638Y264928D01*
X350112Y265714D01*
X349325Y266240D01*
X349300Y266245D01*
Y266755D01*
X349325Y266760D01*
X350112Y267286D01*
X350638Y268072D01*
X350822Y269000D01*
X350638Y269928D01*
X350112Y270714D01*
X349325Y271240D01*
X349300Y271245D01*
Y271755D01*
X349325Y271760D01*
X350112Y272286D01*
X350638Y273072D01*
X350822Y274000D01*
X350638Y274928D01*
X350112Y275714D01*
X349325Y276240D01*
X348398Y276425D01*
X341311D01*
X341093Y276381D01*
X329088Y288386D01*
Y305952D01*
X329550Y306143D01*
X331811Y303882D01*
D02*
G37*
%LPC*%
G36*
X338953Y295453D02*
X331047D01*
Y287547D01*
X338953D01*
Y295453D01*
D02*
G37*
%LPD*%
G36*
X205315Y303022D02*
X205047Y302020D01*
Y300980D01*
X205317Y299974D01*
X205837Y299073D01*
X206573Y298337D01*
X207474Y297817D01*
X208480Y297547D01*
X209520D01*
X210522Y297815D01*
X212422Y295915D01*
X212231Y295453D01*
X205047D01*
Y287547D01*
X212953D01*
Y294731D01*
X213415Y294922D01*
X218135Y290202D01*
X218631Y289871D01*
X219216Y289754D01*
X221342D01*
Y287626D01*
X223471D01*
Y282607D01*
X223587Y282022D01*
X223919Y281526D01*
X225971Y279474D01*
Y263633D01*
X223076Y260739D01*
X222325Y261240D01*
X222300Y261245D01*
Y261755D01*
X222325Y261760D01*
X223112Y262286D01*
X223638Y263072D01*
X223822Y264000D01*
X223638Y264928D01*
X223112Y265714D01*
X222325Y266240D01*
X222300Y266245D01*
Y266755D01*
X222325Y266760D01*
X223112Y267286D01*
X223638Y268072D01*
X223822Y269000D01*
X223638Y269928D01*
X223112Y270714D01*
X222325Y271240D01*
X222300Y271245D01*
Y271755D01*
X222325Y271760D01*
X223112Y272286D01*
X223638Y273072D01*
X223822Y274000D01*
X223638Y274928D01*
X223112Y275714D01*
X222325Y276240D01*
X221398Y276425D01*
X214311D01*
X214093Y276381D01*
X202529Y287945D01*
Y305154D01*
X202991Y305346D01*
X205315Y303022D01*
D02*
G37*
G36*
X394815Y302522D02*
X394547Y301520D01*
Y300480D01*
X394817Y299474D01*
X395337Y298573D01*
X396073Y297837D01*
X396974Y297317D01*
X397980Y297047D01*
X399020D01*
X400022Y297316D01*
X401922Y295415D01*
X401731Y294953D01*
X394547D01*
Y287047D01*
X402453D01*
Y294231D01*
X402915Y294422D01*
X407635Y289702D01*
X408131Y289370D01*
X408716Y289254D01*
X410843D01*
Y287126D01*
X414971D01*
Y264134D01*
X412076Y261239D01*
X411326Y261740D01*
X411300Y261745D01*
Y262255D01*
X411326Y262260D01*
X412112Y262786D01*
X412638Y263572D01*
X412822Y264500D01*
X412638Y265428D01*
X412112Y266214D01*
X411326Y266740D01*
X411300Y266745D01*
Y267255D01*
X411326Y267260D01*
X412112Y267786D01*
X412638Y268572D01*
X412822Y269500D01*
X412638Y270428D01*
X412112Y271214D01*
X411326Y271740D01*
X411300Y271745D01*
Y272255D01*
X411326Y272260D01*
X412112Y272786D01*
X412638Y273572D01*
X412822Y274500D01*
X412638Y275428D01*
X412112Y276214D01*
X411326Y276740D01*
X410398Y276924D01*
X403311D01*
X403093Y276881D01*
X393029Y286945D01*
Y303654D01*
X393491Y303846D01*
X394815Y302522D01*
D02*
G37*
D14*
X209976Y183911D02*
X209970Y183917D01*
X154799Y102000D02*
X548500D01*
X154799Y495701D02*
X548500D01*
Y102000D02*
Y495701D01*
X154799Y102000D02*
Y495701D01*
X754500Y368500D02*
X755000D01*
X754500D02*
X755000D01*
X242500Y176000D02*
Y179783D01*
X243000Y133500D02*
Y179283D01*
X553500Y483500D02*
Y486000D01*
X554000Y486500D01*
X553500Y483500D02*
X554500D01*
X552500Y484500D02*
X553500Y483500D01*
X562500Y491500D02*
Y496201D01*
X554500Y483500D02*
X562500Y491500D01*
X529500Y119638D02*
X533000D01*
X519500Y129638D02*
X529638D01*
X536000Y136000D01*
X486500Y170000D02*
X487582D01*
X489082Y171500D01*
X529284D01*
X541500Y159283D01*
X496783Y211500D02*
X526784Y181500D01*
X492500Y175000D02*
X497500Y180000D01*
X425283Y175000D02*
X492500D01*
X242500Y179783D02*
X243000Y179283D01*
X242500Y176000D02*
X243500Y175000D01*
X497500Y183780D02*
X500941Y187221D01*
X497500Y180000D02*
Y183780D01*
X541250Y149750D02*
Y159034D01*
X541500Y159283D01*
X541000Y149500D02*
X541250Y149750D01*
X536000Y136000D02*
Y142500D01*
X538000Y144500D01*
X541000D01*
X532000Y180000D02*
X532933D01*
X541500Y194717D02*
Y228500D01*
X545713Y144168D02*
Y270122D01*
X511000Y254000D02*
X538000Y227000D01*
X511000Y254000D02*
Y257543D01*
X538000Y206784D02*
Y227000D01*
X520000Y250000D02*
Y258000D01*
Y250000D02*
X541500Y228500D01*
X533000Y119638D02*
X541000Y127638D01*
Y139500D01*
X540772Y273000D02*
X542835D01*
X539291D02*
X540772D01*
X541000Y139500D02*
X542567Y141067D01*
X542611D01*
X545713Y144168D01*
X542835Y273000D02*
X545713Y270122D01*
X192500Y115500D02*
X195927Y112073D01*
Y111659D02*
Y112073D01*
Y111659D02*
X197086Y110500D01*
X223000D01*
X229500Y117000D01*
X219108Y117392D02*
Y132608D01*
X218717Y133000D02*
X219108Y132608D01*
Y117392D02*
X219500Y117000D01*
X197937Y118347D02*
X199653D01*
X202500Y115500D01*
X183283Y133000D02*
X197937Y118347D01*
X170650Y138169D02*
Y144315D01*
Y138169D02*
X192500Y116318D01*
Y115500D02*
Y116318D01*
X168000Y146965D02*
X170650Y144315D01*
X181411Y116589D02*
X182500Y115500D01*
X168000Y127673D02*
Y130035D01*
Y127673D02*
X179084Y116589D01*
X181411D01*
X158799Y141598D02*
Y163299D01*
X159500Y164000D01*
X165500Y149465D02*
Y164000D01*
Y149465D02*
X168000Y146965D01*
X158799Y141598D02*
X168000Y132398D01*
Y130035D02*
Y132398D01*
X530000Y283000D02*
X537212Y290212D01*
X530000Y264457D02*
Y283000D01*
X537212Y290212D02*
Y294995D01*
X523543Y258000D02*
X530000Y264457D01*
X541657Y277000D02*
Y308000D01*
Y275366D02*
Y277000D01*
X537500Y279500D02*
X538157D01*
X540657Y277000D01*
X541657D01*
X521047Y273811D02*
Y303124D01*
X516457Y273000D02*
X520000D01*
X520236D01*
X489646Y277500D02*
Y302000D01*
Y274000D02*
Y277500D01*
X491343D01*
X493843Y280000D02*
X494500D01*
X491343Y277500D02*
X493843Y280000D01*
X426146Y278000D02*
Y301500D01*
Y274500D02*
Y278000D01*
X427646Y279500D01*
X433000D01*
X362500Y278000D02*
Y303500D01*
Y274811D02*
Y278000D01*
X363735Y279235D02*
X366735D01*
X362500Y278000D02*
X363735Y279235D01*
X366735D02*
X367500Y280000D01*
X299146Y278000D02*
Y304000D01*
Y274000D02*
Y278000D01*
X237500Y280500D02*
Y284000D01*
Y274354D02*
Y280500D01*
X304343D02*
X305000D01*
X301843Y278000D02*
X304343Y280500D01*
X299146Y278000D02*
X301843D01*
X237500Y280500D02*
X243000D01*
X217854Y259000D02*
X223500D01*
X227500Y263000D02*
Y280107D01*
X223500Y259000D02*
X227500Y263000D01*
X225000Y282607D02*
X227500Y280107D01*
X225000Y282607D02*
Y291283D01*
X285500Y259000D02*
X289500Y263000D01*
X279854Y259000D02*
X285500D01*
X289500Y263000D02*
Y290283D01*
X288000Y291783D02*
X289500Y290283D01*
X351500Y290784D02*
X354500Y287784D01*
Y263500D02*
Y287784D01*
X350234Y259234D02*
X354500Y263500D01*
X345088Y259234D02*
X350234D01*
X340784Y301500D02*
X351500Y290784D01*
X344854Y259000D02*
X345088Y259234D01*
X406854Y259500D02*
X412500D01*
X416500Y263500D02*
Y288784D01*
X412500Y259500D02*
X416500Y263500D01*
X414500Y290784D02*
X416500Y288784D01*
X477000Y290283D02*
X480000Y287283D01*
X476000Y259000D02*
X480000Y263000D01*
X471032Y296251D02*
X477000Y290283D01*
X470354Y259000D02*
X476000D01*
X480000Y263000D02*
Y287283D01*
X541583Y273811D02*
Y275292D01*
X541657Y275366D01*
X540772Y273000D02*
X541583Y273811D01*
X537212Y294995D02*
X537500Y295284D01*
X520000Y258000D02*
X523543D01*
X541657Y308000D02*
Y355343D01*
X538158Y311500D02*
X541657Y308000D01*
X525500Y311500D02*
X538158D01*
X489646Y302000D02*
Y344354D01*
X463000Y311000D02*
X480646D01*
X489646Y302000D01*
X426146Y301500D02*
Y343354D01*
X416646Y311000D02*
X426146Y301500D01*
X398500Y311000D02*
X416646D01*
X362500Y303500D02*
Y340297D01*
X335000Y311500D02*
X354500D01*
X362500Y303500D01*
X299146Y304000D02*
Y340152D01*
X271500Y311500D02*
X291646D01*
X299146Y304000D01*
X233500Y305000D02*
Y345500D01*
Y288000D02*
Y305000D01*
X233000D02*
X233500D01*
X209000Y311500D02*
X226500D01*
X233000Y305000D01*
X203500Y307000D02*
Y316000D01*
Y307000D02*
X209000Y301500D01*
X203500Y316000D02*
X209000Y321500D01*
Y301500D02*
X219216Y291283D01*
X201000Y287311D02*
Y323500D01*
Y287311D02*
X214311Y274000D01*
X201000Y323500D02*
X209000Y331500D01*
X264000Y286311D02*
Y324000D01*
Y286311D02*
X276311Y274000D01*
X264000Y324000D02*
X271500Y331500D01*
X266000Y316000D02*
X271500Y321500D01*
X266000Y307000D02*
X271500Y301500D01*
X266000Y307000D02*
Y316000D01*
X271500Y301500D02*
X272439Y300561D01*
X327558Y287753D02*
Y324058D01*
Y287753D02*
X341311Y274000D01*
X330000Y307856D02*
Y316500D01*
X335000Y321500D01*
X330000Y307856D02*
X333529Y304327D01*
Y304298D02*
X335000Y302827D01*
X333529Y304298D02*
Y304327D01*
X335000Y301500D02*
Y302827D01*
X327558Y324058D02*
X335000Y331500D01*
X391500Y286311D02*
X403311Y274500D01*
X391500Y286311D02*
Y324000D01*
X398133Y320633D02*
X398500Y321000D01*
X393500Y319500D02*
X394633Y320633D01*
X393500Y306000D02*
Y319500D01*
X394633Y320633D02*
X398133D01*
X391500Y324000D02*
X398500Y331000D01*
X393500Y306000D02*
X398500Y301000D01*
X408716Y290784D01*
X522561Y320561D02*
X524561D01*
X520000Y307000D02*
Y318000D01*
X524561Y320561D02*
X525500Y321500D01*
X520000Y318000D02*
X522561Y320561D01*
X518000Y306172D02*
Y320297D01*
X524750Y327047D01*
X456500Y284311D02*
Y324500D01*
Y284311D02*
X466811Y274000D01*
X460061Y320061D02*
X462061D01*
X458500Y318500D02*
X460061Y320061D01*
X458500Y305500D02*
Y318500D01*
X462061Y320061D02*
X463000Y321000D01*
X456500Y324500D02*
X463000Y331000D01*
X458500Y305500D02*
X463000Y301000D01*
X467749Y296251D01*
X520000Y307000D02*
X525500Y301500D01*
X518000Y306172D02*
X521047Y303124D01*
X524750Y330750D02*
X525500Y331500D01*
X524750Y327047D02*
Y330750D01*
X520236Y273000D02*
X521047Y273811D01*
X403311Y274500D02*
X406854D01*
X341311Y274000D02*
X344854D01*
X276311D02*
X279854D01*
X214311D02*
X217854D01*
X525500Y371500D02*
X541657Y355343D01*
X537500Y330716D02*
Y338784D01*
X525500Y361500D02*
X526250Y360750D01*
Y357047D02*
Y360750D01*
Y357047D02*
X537500Y345797D01*
Y338784D02*
Y345797D01*
X463000Y371000D02*
X489646Y344354D01*
X477000Y325716D02*
Y334784D01*
X477500Y335283D01*
X463750Y356547D02*
Y360250D01*
X463000Y361000D02*
X463750Y360250D01*
Y356547D02*
X477500Y342797D01*
Y335283D02*
Y342797D01*
X398500Y371000D02*
X426146Y343354D01*
X414500Y326217D02*
Y334784D01*
Y341297D01*
X398500Y361000D02*
X399250Y360250D01*
Y356547D02*
Y360250D01*
Y356547D02*
X414500Y341297D01*
X363311Y274000D02*
X364146D01*
X362500Y274811D02*
X363311Y274000D01*
X335750Y367047D02*
X362500Y340297D01*
X335750Y367047D02*
Y370750D01*
X335000Y371500D02*
X335750Y370750D01*
X351500Y326217D02*
Y335784D01*
Y345000D01*
X335000Y361500D02*
X351500Y345000D01*
X272250Y367047D02*
X299146Y340152D01*
X272250Y367047D02*
Y370750D01*
X271500Y371500D02*
X272250Y370750D01*
X209939Y360561D02*
X211939D01*
X225000Y335784D02*
Y347500D01*
X209000Y361500D02*
X209939Y360561D01*
X211939D02*
X225000Y347500D01*
X209000Y370173D02*
X210399Y368774D01*
Y368601D02*
X233500Y345500D01*
X209000Y370173D02*
Y371500D01*
X210399Y368601D02*
Y368774D01*
X233500Y288000D02*
X237500Y284000D01*
X237146Y274000D02*
X237500Y274354D01*
X288000Y327217D02*
Y335784D01*
X271500Y361500D02*
X272250Y360750D01*
Y357047D02*
Y360750D01*
Y357047D02*
X288000Y341297D01*
Y335784D02*
Y341297D01*
X225000Y326716D02*
Y335784D01*
X525500Y301500D02*
X531284D01*
X537500Y295284D01*
X525500Y341500D02*
Y351500D01*
X467749Y296251D02*
X471032D01*
X463000Y341000D02*
Y351000D01*
X408716Y290784D02*
X414500D01*
X398500Y341000D02*
Y351000D01*
X413674Y369391D02*
X414500Y370216D01*
X335000Y301500D02*
X340784D01*
X335000Y341500D02*
Y351500D01*
X350674Y370391D02*
X351500Y371217D01*
X283217Y291783D02*
X288000D01*
X272439Y300561D02*
X274439D01*
X283217Y291783D01*
X271500Y341500D02*
Y351500D01*
X287174Y370391D02*
X288000Y371217D01*
X219216Y291283D02*
X225000D01*
X209000Y341500D02*
Y351500D01*
X466744Y485839D02*
X521492D01*
X526461Y480870D01*
X403059Y485839D02*
X466744D01*
X462461Y481555D02*
X466744Y485839D01*
X330362D02*
X403059D01*
X398461Y481240D02*
X403059Y485839D01*
X212756D02*
X276256D01*
X330362D01*
X272000Y481583D02*
X276256Y485839D01*
X208500Y481583D02*
X212756Y485839D01*
X330362D02*
X334961Y481240D01*
X208500Y393000D02*
Y402843D01*
Y412685D01*
Y422528D01*
Y432370D01*
Y442213D01*
Y452055D01*
Y461898D01*
Y471740D01*
Y481583D01*
X526461Y392287D02*
Y402130D01*
Y411972D01*
Y421815D01*
Y431658D01*
Y441500D01*
Y451342D01*
Y461185D01*
Y471028D01*
Y480870D01*
X462461Y392972D02*
Y402815D01*
Y412657D01*
Y422500D01*
Y432342D01*
Y442185D01*
Y452028D01*
Y461870D01*
Y471713D01*
Y481555D01*
X398461Y392657D02*
Y402500D01*
Y412343D01*
Y422185D01*
Y432028D01*
Y441870D01*
Y451713D01*
Y461555D01*
Y471398D01*
Y481240D01*
X334961Y392657D02*
Y402500D01*
Y412343D01*
Y422185D01*
Y432028D01*
Y441870D01*
Y451713D01*
Y461555D01*
Y471398D01*
Y481240D01*
X272000Y393000D02*
Y402843D01*
Y412685D01*
Y422528D01*
Y432370D01*
Y442213D01*
Y452055D01*
Y461898D01*
Y471740D01*
Y481583D01*
X433000Y321000D02*
X445453Y333453D01*
Y425936D01*
X433432Y437957D02*
X445453Y425936D01*
X433432Y437957D02*
Y441781D01*
X433000Y442213D02*
X433432Y441781D01*
X433000Y331000D02*
X443453Y341453D01*
Y418094D01*
X433432Y428114D02*
X443453Y418094D01*
X433432Y428114D02*
Y431938D01*
X433000Y432370D02*
X433432Y431938D01*
X441453Y349453D02*
Y410251D01*
X433000Y341000D02*
X441453Y349453D01*
X433432Y418272D02*
X441453Y410251D01*
X433432Y418272D02*
Y422095D01*
X433000Y422528D02*
X433432Y422095D01*
Y408429D02*
X439453Y402409D01*
Y357453D02*
Y402409D01*
X433432Y408429D02*
Y412253D01*
X437453Y365453D02*
Y394566D01*
X433432Y398587D02*
X437453Y394566D01*
X433000Y351000D02*
X439453Y357453D01*
X433000Y412685D02*
X433432Y412253D01*
X433000Y402843D02*
X433432Y402410D01*
Y398587D02*
Y402410D01*
X433000Y361000D02*
X437453Y365453D01*
X433000Y371000D02*
Y393000D01*
X368500Y321000D02*
X381256Y333756D01*
Y425790D01*
X369432Y437614D02*
X381256Y425790D01*
X369432Y437614D02*
Y441438D01*
X369000Y441870D02*
X369432Y441438D01*
X377000Y349500D02*
Y388982D01*
X377256Y389238D01*
X368500Y341000D02*
X377000Y349500D01*
X373000Y394676D02*
X373256Y394420D01*
X373000Y390639D02*
X373256Y390895D01*
X373000Y394676D02*
Y398500D01*
X369000Y402500D02*
X373000Y398500D01*
X368500Y361000D02*
X373000Y365500D01*
X379256Y341756D02*
Y417948D01*
X375000Y395505D02*
Y402519D01*
Y395505D02*
X375256Y395249D01*
X375000Y357500D02*
Y389810D01*
X369432Y427772D02*
Y431595D01*
Y408087D02*
X375000Y402519D01*
X373256Y390895D02*
Y394420D01*
X373000Y365500D02*
Y390639D01*
X369432Y427772D02*
X379256Y417948D01*
X377256Y389238D02*
Y396077D01*
X368500Y331000D02*
X379256Y341756D01*
X377000Y396333D02*
X377256Y396077D01*
X369000Y422185D02*
X377000Y414185D01*
Y396333D02*
Y414185D01*
X375000Y389810D02*
X375256Y390066D01*
Y395249D01*
X368500Y351000D02*
X375000Y357500D01*
X369000Y432028D02*
X369432Y431595D01*
Y408087D02*
Y411910D01*
X369000Y412343D02*
X369432Y411910D01*
X368500Y371000D02*
X368750Y371250D01*
Y392407D02*
X369000Y392657D01*
X368750Y371250D02*
Y392407D01*
X305000Y321500D02*
X317756Y334256D01*
Y425790D01*
X305932Y437614D02*
X317756Y425790D01*
X305932Y437614D02*
Y441438D01*
X305500Y441870D02*
X305932Y441438D01*
X305000Y331500D02*
X315756Y342256D01*
X305500Y432028D02*
X315756Y421772D01*
Y342256D02*
Y421772D01*
X305000Y341500D02*
X313756Y350256D01*
Y410105D01*
X305932Y417929D02*
X313756Y410105D01*
X305932Y417929D02*
Y421753D01*
X305500Y422185D02*
X305932Y421753D01*
X305000Y351500D02*
X311500Y358000D01*
X311756Y390066D02*
Y395249D01*
X311500Y395505D02*
Y402519D01*
Y395505D02*
X311756Y395249D01*
X305932Y408087D02*
X311500Y402519D01*
Y358000D02*
Y389810D01*
X311756Y390066D01*
X309500Y390639D02*
X309756Y390895D01*
X309500Y394676D02*
X309756Y394420D01*
Y390895D02*
Y394420D01*
X305500Y412343D02*
X305932Y411910D01*
X309500Y366000D02*
Y390639D01*
X305000Y361500D02*
X309500Y366000D01*
X305932Y408087D02*
Y411910D01*
X309500Y394676D02*
Y398500D01*
X305500Y402500D02*
X309500Y398500D01*
X305250Y371750D02*
Y392407D01*
X305000Y371500D02*
X305250Y371750D01*
Y392407D02*
X305500Y392657D01*
X241500Y321500D02*
X254756Y334756D01*
Y426133D01*
X242932Y437957D02*
Y441781D01*
X248500Y395847D02*
Y406685D01*
X250500Y396676D02*
Y414528D01*
X242500Y422528D02*
X250500Y414528D01*
Y396676D02*
X250756Y396420D01*
X248500Y395847D02*
X248756Y395591D01*
X242500Y442213D02*
X242932Y441781D01*
X252500Y397504D02*
X252756Y397248D01*
X250500Y350500D02*
Y389324D01*
X252500Y397504D02*
Y422370D01*
X252756Y388752D02*
Y397248D01*
X242932Y437957D02*
X254756Y426133D01*
X242500Y432370D02*
X252500Y422370D01*
Y346203D02*
Y388496D01*
X250756Y389580D02*
Y396420D01*
X248756Y390409D02*
Y395591D01*
X241500Y341500D02*
X250500Y350500D01*
X248500Y358500D02*
Y390153D01*
X242500Y412685D02*
X248500Y406685D01*
X252500Y388496D02*
X252756Y388752D01*
X250500Y389324D02*
X250756Y389580D01*
X241500Y351500D02*
X248500Y358500D01*
Y390153D02*
X248756Y390409D01*
X242250Y335953D02*
X252500Y346203D01*
X246500Y390981D02*
X246756Y391237D01*
X246500Y395019D02*
X246756Y394763D01*
Y391237D02*
Y394763D01*
X242250Y332250D02*
Y335953D01*
X241500Y331500D02*
X242250Y332250D01*
X246500Y395019D02*
Y398843D01*
X242500Y402843D02*
X246500Y398843D01*
X241500Y361500D02*
X246500Y366500D01*
Y390981D01*
X242000Y372000D02*
Y392500D01*
X242500Y393000D01*
X241500Y371500D02*
X242000Y372000D01*
X179000Y321500D02*
X191453Y333953D01*
Y425936D01*
X179432Y437957D02*
X191453Y425936D01*
X179432Y437957D02*
Y441781D01*
X179000Y442213D02*
X179432Y441781D01*
X179000Y331500D02*
X189453Y341953D01*
Y418094D01*
X179432Y428114D02*
X189453Y418094D01*
X179432Y428114D02*
Y431938D01*
X179000Y432370D02*
X179432Y431938D01*
Y418272D02*
X187453Y410251D01*
X179000Y422528D02*
X179432Y422095D01*
X185000Y374626D02*
Y390153D01*
X185256Y390409D01*
X185000Y395847D02*
X185256Y395591D01*
Y390409D02*
Y395591D01*
X185453Y357953D02*
Y374173D01*
X179432Y408429D02*
X185000Y402861D01*
X183256Y391237D02*
Y394763D01*
X179432Y398587D02*
X183256Y394763D01*
X183000Y390981D02*
X183256Y391237D01*
X187453Y349953D02*
Y410251D01*
X179000Y341500D02*
X187453Y349953D01*
X185000Y374626D02*
X185453Y374173D01*
X183063Y373734D02*
Y373734D01*
X183000Y373797D02*
Y390981D01*
Y373797D02*
X183063Y373734D01*
X179432Y418272D02*
Y422095D01*
X185000Y395847D02*
Y402861D01*
X179000Y351500D02*
X185453Y357953D01*
X183453Y365953D02*
Y373344D01*
X183063Y373734D02*
X183453Y373344D01*
X179432Y408429D02*
Y412253D01*
X179000Y412685D02*
X179432Y412253D01*
X179000Y361500D02*
X183453Y365953D01*
X179432Y398587D02*
Y402410D01*
X179000Y402843D02*
X179432Y402410D01*
X179000Y371500D02*
Y393000D01*
X217854Y274000D02*
X221398D01*
X209000Y341500D02*
X209669Y340831D01*
X243500Y175000D02*
X298284D01*
X240784Y181500D02*
X242500Y179783D01*
X235000Y187284D02*
X240784Y181500D01*
X243000Y133500D02*
X259500Y117000D01*
X171500Y188284D02*
X177284Y182500D01*
X206784Y184500D02*
X209387D01*
X209387D02*
X209970Y183917D01*
X177284Y214000D02*
X206784Y184500D01*
X209976Y183911D02*
X210559Y183328D01*
Y182724D02*
Y183328D01*
Y182724D02*
X212492D01*
X171500Y197716D02*
X177284Y203500D01*
X171500Y188284D02*
Y197716D01*
X307855Y182355D02*
X310836Y185336D01*
X305639Y182355D02*
X307855D01*
X298284Y175000D02*
X305639Y182355D01*
X235000Y187284D02*
Y197216D01*
X240784Y203000D01*
X319607Y117000D02*
X321607Y119000D01*
X324000D01*
X309500Y117000D02*
X319607D01*
X373240Y105878D02*
X386362Y119000D01*
X280622Y105878D02*
X373240D01*
X269500Y117000D02*
X280622Y105878D01*
X359650Y107878D02*
X370772Y119000D01*
X288622Y107878D02*
X359650D01*
X279500Y117000D02*
X288622Y107878D01*
X296622Y109878D02*
X346059D01*
X355181Y119000D01*
X289500Y117000D02*
X296622Y109878D01*
X304622Y111878D02*
X332469D01*
X339591Y119000D01*
X299500Y117000D02*
X304622Y111878D01*
X362784Y175000D02*
X425283D01*
X431783Y181500D01*
X298284Y175000D02*
X362784D01*
X369284Y181500D01*
X310500Y186500D02*
X310836Y186164D01*
X309326Y201174D02*
X310500Y200000D01*
Y186500D02*
Y200000D01*
X310836Y185336D02*
Y186164D01*
X305109Y201174D02*
X309326D01*
X304283Y202000D02*
X305109Y201174D01*
X496783Y201000D02*
X500941Y196843D01*
Y187221D02*
Y196843D01*
X530500Y181500D02*
X532000Y180000D01*
X526784Y181500D02*
X530500D01*
X435941Y185658D02*
Y198343D01*
X431783Y181500D02*
X435941Y185658D01*
X431783Y202500D02*
X435941Y198343D01*
X463059Y181724D02*
X466992D01*
X431783Y213000D02*
X463059Y181724D01*
X466992D02*
X467216Y181500D01*
X373441Y185658D02*
Y198343D01*
X369284Y181500D02*
X373441Y185658D01*
X369284Y202500D02*
X373441Y198343D01*
X404492Y181724D02*
X404716Y181500D01*
X369284Y213000D02*
X400559Y181724D01*
X404492D01*
X304784Y212500D02*
X335559Y181724D01*
X338992D01*
X339717Y181000D01*
X240784Y213500D02*
X272059Y182224D01*
X275492D01*
X276217Y181500D01*
X212492Y182724D02*
X212717Y182500D01*
X532217Y211500D02*
Y227783D01*
X508000Y252000D02*
X532217Y227783D01*
X508000Y252000D02*
Y259543D01*
X516457Y268000D01*
X397000Y242500D02*
Y258189D01*
Y242500D02*
X410500Y229000D01*
Y208283D02*
Y229000D01*
X397000Y258189D02*
X403311Y264500D01*
X331000Y239500D02*
X339717Y230784D01*
Y223000D02*
Y230784D01*
X331000Y239500D02*
Y258689D01*
X218500Y209283D02*
Y226500D01*
X205500Y239500D02*
X218500Y226500D01*
X212717Y203500D02*
X218500Y209283D01*
X276217Y224000D02*
Y232784D01*
X267000Y242000D02*
Y259000D01*
Y242000D02*
X276217Y232784D01*
X270000Y257689D02*
X276311Y264000D01*
X270000Y243500D02*
X282500Y231000D01*
X270000Y243500D02*
Y257689D01*
X211928Y225288D02*
Y228072D01*
X202000Y238000D02*
Y256689D01*
X211928Y225288D02*
X212717Y224500D01*
X202000Y238000D02*
X211928Y228072D01*
X212717Y193000D02*
Y203500D01*
X205500Y255189D02*
X214311Y264000D01*
X205500Y239500D02*
Y255189D01*
X214311Y264000D02*
X217854D01*
X276217Y192500D02*
Y203000D01*
X282500Y209283D01*
Y231000D01*
X274716Y215000D02*
X276217Y213500D01*
X276311Y264000D02*
X279854D01*
X339717Y202000D02*
X344374Y206658D01*
Y231126D01*
X334500Y241000D02*
X344374Y231126D01*
X334500Y257189D02*
X341311Y264000D01*
X344854D01*
X334500Y241000D02*
Y257189D01*
X404716Y192000D02*
Y202500D01*
X410500Y208283D01*
X403311Y264500D02*
X406854D01*
X467216Y192000D02*
Y202500D01*
X468000Y201716D01*
X470000D02*
Y202000D01*
X468000Y201716D02*
X470000D01*
Y202000D02*
X473000Y205000D01*
Y225500D01*
X458500Y240000D02*
X473000Y225500D01*
X458500Y240000D02*
Y255689D01*
X466811Y264000D01*
X470354D01*
X532217Y201000D02*
X538000Y206784D01*
X516457Y263000D02*
X520000D01*
X511000Y257543D02*
X516457Y263000D01*
X496783Y253327D02*
X516457Y273000D01*
X532217Y190500D02*
Y201000D01*
X467216Y213000D02*
Y223500D01*
X466928Y223788D02*
X467216Y223500D01*
X455000Y239000D02*
X466928Y227072D01*
Y223788D02*
Y227072D01*
X455000Y257189D02*
X466811Y269000D01*
X455000Y239000D02*
Y257189D01*
X516457Y268000D02*
X520000D01*
X466811Y269000D02*
X470354D01*
X393500Y240500D02*
Y259689D01*
Y240500D02*
X404716Y229283D01*
X403311Y269500D02*
X406854D01*
X393500Y259689D02*
X403311Y269500D01*
X404716Y223500D02*
Y229283D01*
Y213000D02*
Y223500D01*
X341311Y269000D02*
X344854D01*
X331000Y258689D02*
X341311Y269000D01*
X339717Y213000D02*
Y223000D01*
Y213000D02*
X340216Y212500D01*
X276217Y213500D02*
Y224000D01*
X212717Y214000D02*
Y224500D01*
X276786Y269000D02*
X279854D01*
X267000Y259000D02*
X275621Y267620D01*
Y267834D01*
X276786Y269000D01*
X202000Y256689D02*
X214311Y269000D01*
X217854D01*
X496783Y222000D02*
Y253327D01*
X431783Y238972D02*
X466811Y274000D01*
X431783Y223500D02*
Y238972D01*
X369284Y240472D02*
X403311Y274500D01*
X369284Y223500D02*
Y240472D01*
X304000Y236689D02*
X341311Y274000D01*
X304000Y223284D02*
X304283Y223000D01*
X304000Y223284D02*
Y236689D01*
X240784Y238472D02*
X276311Y274000D01*
X240784Y224000D02*
Y238472D01*
X177284Y236972D02*
X214311Y274000D01*
X177284Y224500D02*
Y236972D01*
X509500Y335500D02*
Y428673D01*
X497972Y421528D02*
X505500Y414000D01*
Y351500D02*
Y414000D01*
X501217Y367216D02*
Y397587D01*
X496961Y401842D02*
X501217Y397587D01*
X496961Y411539D02*
Y411685D01*
Y411539D02*
X503500Y405000D01*
Y359500D02*
Y405000D01*
X496961Y441213D02*
X509500Y428673D01*
X495500Y331500D02*
X507500Y343500D01*
X495500Y341500D02*
X505500Y351500D01*
X495500Y321500D02*
X509500Y335500D01*
X496961Y431370D02*
X507500Y420831D01*
Y343500D02*
Y420831D01*
X495500Y351500D02*
X503500Y359500D01*
X495500Y361500D02*
X501217Y367216D01*
X496961Y421528D02*
X497972D01*
X495500Y371500D02*
X496230Y372230D01*
Y391270D01*
X496961Y392000D01*
D15*
X168000Y146965D02*
D03*
Y130035D02*
D03*
D16*
X217854Y274000D02*
D03*
Y269000D02*
D03*
Y264000D02*
D03*
Y259000D02*
D03*
X237146Y274000D02*
D03*
Y269000D02*
D03*
Y264000D02*
D03*
Y259000D02*
D03*
X279854Y274000D02*
D03*
Y269000D02*
D03*
Y264000D02*
D03*
Y259000D02*
D03*
X299146Y274000D02*
D03*
Y269000D02*
D03*
Y264000D02*
D03*
Y259000D02*
D03*
X344854Y274000D02*
D03*
Y269000D02*
D03*
Y264000D02*
D03*
Y259000D02*
D03*
X364146Y274000D02*
D03*
Y269000D02*
D03*
Y264000D02*
D03*
Y259000D02*
D03*
X406854Y274500D02*
D03*
Y269500D02*
D03*
Y264500D02*
D03*
Y259500D02*
D03*
X426146Y274500D02*
D03*
Y269500D02*
D03*
Y264500D02*
D03*
Y259500D02*
D03*
X470354Y274000D02*
D03*
Y269000D02*
D03*
Y264000D02*
D03*
Y259000D02*
D03*
X489646Y274000D02*
D03*
Y269000D02*
D03*
Y264000D02*
D03*
Y259000D02*
D03*
X520000Y273000D02*
D03*
Y268000D02*
D03*
Y263000D02*
D03*
Y258000D02*
D03*
X539291Y273000D02*
D03*
Y268000D02*
D03*
Y263000D02*
D03*
Y258000D02*
D03*
D18*
X497453Y119000D02*
D03*
X401953D02*
D03*
D19*
X481862D02*
D03*
X466272D02*
D03*
X450681D02*
D03*
X435090D02*
D03*
X419500D02*
D03*
X324000D02*
D03*
X339591D02*
D03*
X355181D02*
D03*
X370772D02*
D03*
X386362D02*
D03*
D25*
X309500Y117000D02*
D03*
D26*
X299500D02*
D03*
X289500D02*
D03*
X279500D02*
D03*
X269500D02*
D03*
X259500D02*
D03*
X249500D02*
D03*
X239500D02*
D03*
X229500D02*
D03*
X219500D02*
D03*
D27*
X179000Y393000D02*
D03*
Y402843D02*
D03*
Y412685D02*
D03*
Y422528D02*
D03*
Y432370D02*
D03*
Y442213D02*
D03*
Y452055D02*
D03*
Y461898D02*
D03*
Y471740D02*
D03*
X208500Y393000D02*
D03*
Y402843D02*
D03*
Y412685D02*
D03*
Y422528D02*
D03*
Y432370D02*
D03*
Y442213D02*
D03*
Y452055D02*
D03*
Y461898D02*
D03*
Y471740D02*
D03*
X272000Y393000D02*
D03*
Y402843D02*
D03*
Y412685D02*
D03*
Y422528D02*
D03*
Y432370D02*
D03*
Y442213D02*
D03*
Y452055D02*
D03*
Y461898D02*
D03*
Y471740D02*
D03*
X305500Y392657D02*
D03*
Y402500D02*
D03*
Y412343D02*
D03*
Y422185D02*
D03*
Y432028D02*
D03*
Y441870D02*
D03*
Y451713D02*
D03*
Y461555D02*
D03*
Y471398D02*
D03*
X334961Y392657D02*
D03*
Y402500D02*
D03*
Y412343D02*
D03*
Y422185D02*
D03*
Y432028D02*
D03*
Y441870D02*
D03*
Y451713D02*
D03*
Y461555D02*
D03*
Y471398D02*
D03*
X369000Y392657D02*
D03*
Y402500D02*
D03*
Y412343D02*
D03*
Y422185D02*
D03*
Y432028D02*
D03*
Y441870D02*
D03*
Y451713D02*
D03*
Y461555D02*
D03*
Y471398D02*
D03*
X398461Y392657D02*
D03*
Y402500D02*
D03*
Y412343D02*
D03*
Y422185D02*
D03*
Y432028D02*
D03*
Y441870D02*
D03*
Y451713D02*
D03*
Y461555D02*
D03*
Y471398D02*
D03*
X433000Y393000D02*
D03*
Y402843D02*
D03*
Y412685D02*
D03*
Y422528D02*
D03*
Y432370D02*
D03*
Y442213D02*
D03*
Y452055D02*
D03*
Y461898D02*
D03*
Y471740D02*
D03*
X462461Y392972D02*
D03*
Y402815D02*
D03*
Y412657D02*
D03*
Y422500D02*
D03*
Y432342D02*
D03*
Y442185D02*
D03*
Y452028D02*
D03*
Y461870D02*
D03*
Y471713D02*
D03*
X496961Y392000D02*
D03*
Y401842D02*
D03*
Y411685D02*
D03*
Y421528D02*
D03*
Y431370D02*
D03*
Y441213D02*
D03*
Y451055D02*
D03*
Y460898D02*
D03*
Y470740D02*
D03*
X526461Y392287D02*
D03*
Y402130D02*
D03*
Y411972D02*
D03*
Y421815D02*
D03*
Y431658D02*
D03*
Y441500D02*
D03*
Y451342D02*
D03*
Y461185D02*
D03*
Y471028D02*
D03*
X242500Y393000D02*
D03*
Y402843D02*
D03*
Y412685D02*
D03*
Y422528D02*
D03*
Y432370D02*
D03*
Y442213D02*
D03*
Y452055D02*
D03*
Y461898D02*
D03*
Y471740D02*
D03*
D28*
X179000Y481583D02*
D03*
X208500D02*
D03*
X272000D02*
D03*
X305500Y481240D02*
D03*
X334961D02*
D03*
X369000D02*
D03*
X398461D02*
D03*
X433000Y481583D02*
D03*
X462461Y481555D02*
D03*
X496961Y480583D02*
D03*
X526461Y480870D02*
D03*
X242500Y481583D02*
D03*
D37*
X305000Y371500D02*
D03*
Y361500D02*
D03*
Y351500D02*
D03*
Y341500D02*
D03*
Y331500D02*
D03*
Y321500D02*
D03*
Y311500D02*
D03*
Y301500D02*
D03*
Y291500D02*
D03*
X335000Y371500D02*
D03*
Y361500D02*
D03*
Y351500D02*
D03*
Y341500D02*
D03*
Y331500D02*
D03*
Y321500D02*
D03*
Y311500D02*
D03*
Y301500D02*
D03*
X495500Y371500D02*
D03*
Y361500D02*
D03*
Y351500D02*
D03*
Y341500D02*
D03*
Y331500D02*
D03*
Y321500D02*
D03*
Y311500D02*
D03*
Y301500D02*
D03*
Y291500D02*
D03*
X525500Y371500D02*
D03*
Y361500D02*
D03*
Y351500D02*
D03*
Y341500D02*
D03*
Y331500D02*
D03*
Y321500D02*
D03*
Y311500D02*
D03*
Y301500D02*
D03*
X179000Y371500D02*
D03*
Y361500D02*
D03*
Y351500D02*
D03*
Y341500D02*
D03*
Y331500D02*
D03*
Y321500D02*
D03*
Y311500D02*
D03*
Y301500D02*
D03*
Y291500D02*
D03*
X209000Y371500D02*
D03*
Y361500D02*
D03*
Y351500D02*
D03*
Y341500D02*
D03*
Y331500D02*
D03*
Y321500D02*
D03*
Y311500D02*
D03*
Y301500D02*
D03*
X398500Y301000D02*
D03*
Y311000D02*
D03*
Y321000D02*
D03*
Y331000D02*
D03*
Y341000D02*
D03*
Y351000D02*
D03*
Y361000D02*
D03*
Y371000D02*
D03*
X368500Y291000D02*
D03*
Y301000D02*
D03*
Y311000D02*
D03*
Y321000D02*
D03*
Y331000D02*
D03*
Y341000D02*
D03*
Y351000D02*
D03*
Y361000D02*
D03*
Y371000D02*
D03*
X463000Y301000D02*
D03*
Y311000D02*
D03*
Y321000D02*
D03*
Y331000D02*
D03*
Y341000D02*
D03*
Y351000D02*
D03*
Y361000D02*
D03*
Y371000D02*
D03*
X433000Y291000D02*
D03*
Y301000D02*
D03*
Y311000D02*
D03*
Y321000D02*
D03*
Y331000D02*
D03*
Y341000D02*
D03*
Y351000D02*
D03*
Y361000D02*
D03*
Y371000D02*
D03*
X271500Y301500D02*
D03*
Y311500D02*
D03*
Y321500D02*
D03*
Y331500D02*
D03*
Y341500D02*
D03*
Y351500D02*
D03*
Y361500D02*
D03*
Y371500D02*
D03*
X241500Y291500D02*
D03*
Y301500D02*
D03*
Y311500D02*
D03*
Y321500D02*
D03*
Y331500D02*
D03*
Y341500D02*
D03*
Y351500D02*
D03*
Y361500D02*
D03*
Y371500D02*
D03*
D38*
X335000Y291500D02*
D03*
X525500D02*
D03*
X209000D02*
D03*
X398500Y291000D02*
D03*
X463000D02*
D03*
X271500Y291500D02*
D03*
D39*
X537500Y338784D02*
D03*
X351500Y335784D02*
D03*
X288000D02*
D03*
X537500Y295284D02*
D03*
X477500Y335283D02*
D03*
X477000Y290283D02*
D03*
X414500Y334784D02*
D03*
Y290784D02*
D03*
X351500D02*
D03*
X288000Y291783D02*
D03*
X225000Y291283D02*
D03*
Y335784D02*
D03*
X541500Y194717D02*
D03*
D40*
X537500Y374217D02*
D03*
X351500Y371217D02*
D03*
X288000D02*
D03*
X537500Y330716D02*
D03*
X477500Y370717D02*
D03*
X477000Y325716D02*
D03*
X414500Y370216D02*
D03*
Y326217D02*
D03*
X351500D02*
D03*
X288000Y327217D02*
D03*
X225000Y326716D02*
D03*
Y371217D02*
D03*
X212717Y182500D02*
D03*
X276217Y181500D02*
D03*
X339717Y181000D02*
D03*
X404716Y181500D02*
D03*
X467216D02*
D03*
X532717Y179500D02*
D03*
X212717Y193000D02*
D03*
X177284Y214000D02*
D03*
Y203500D02*
D03*
Y224500D02*
D03*
X276217Y192500D02*
D03*
X339717Y191500D02*
D03*
X304283Y202000D02*
D03*
X304784Y212500D02*
D03*
X304283Y223000D02*
D03*
X404716Y192000D02*
D03*
X369284Y202500D02*
D03*
Y213000D02*
D03*
Y223500D02*
D03*
X467216Y192000D02*
D03*
X431783Y202500D02*
D03*
Y213000D02*
D03*
Y223500D02*
D03*
X532217Y190500D02*
D03*
X496783Y201000D02*
D03*
Y211500D02*
D03*
Y222000D02*
D03*
X240784Y203000D02*
D03*
Y224000D02*
D03*
Y213500D02*
D03*
X541500Y159283D02*
D03*
X218717Y133000D02*
D03*
D41*
X177284Y182500D02*
D03*
X240784Y181500D02*
D03*
X304283Y181000D02*
D03*
X369284Y181500D02*
D03*
X431783D02*
D03*
X497284Y179500D02*
D03*
X177284Y193000D02*
D03*
X212717Y214000D02*
D03*
Y203500D02*
D03*
Y224500D02*
D03*
X240784Y192500D02*
D03*
X304283Y191500D02*
D03*
X339717Y202000D02*
D03*
X340216Y212500D02*
D03*
X339717Y223000D02*
D03*
X369284Y192000D02*
D03*
X404716Y202500D02*
D03*
Y213000D02*
D03*
Y223500D02*
D03*
X431783Y192000D02*
D03*
X467216Y202500D02*
D03*
Y213000D02*
D03*
Y223500D02*
D03*
X496783Y190500D02*
D03*
X532217Y201000D02*
D03*
Y211500D02*
D03*
Y222000D02*
D03*
X276217Y203000D02*
D03*
Y224000D02*
D03*
Y213500D02*
D03*
X183283Y133000D02*
D03*
D42*
X541000Y139500D02*
D03*
D43*
Y144500D02*
D03*
Y149500D02*
D03*
D44*
X509500Y119638D02*
D03*
D45*
X519500Y129638D02*
D03*
X529500Y119638D02*
D03*
D46*
X182500Y115500D02*
D03*
X192500D02*
D03*
D47*
X202500D02*
D03*
D48*
X540000Y486000D02*
D03*
X540500Y110500D02*
D03*
X164000Y486000D02*
D03*
X162500Y110000D02*
D03*
D49*
X489422Y189422D02*
D03*
X486500Y170000D02*
D03*
X159500Y164000D02*
D03*
X165500D02*
D03*
X537500Y279500D02*
D03*
X494500Y280000D02*
D03*
X433000Y279500D02*
D03*
X367500Y280000D02*
D03*
X305000Y280500D02*
D03*
X243000D02*
D03*
M02*
