G04*
G04 #@! TF.GenerationSoftware,Altium Limited,Altium Designer,24.6.1 (21)*
G04*
G04 Layer_Color=2752767*
%FSLAX25Y25*%
%MOIN*%
G70*
G04*
G04 #@! TF.SameCoordinates,BD51E7C1-7467-4EA1-BF67-8BC641B90C76*
G04*
G04*
G04 #@! TF.FilePolarity,Positive*
G04*
G01*
G75*
%ADD50C,0.00500*%
%ADD51C,0.00667*%
D50*
X497453Y117000D02*
X498453Y118000D01*
X499453D01*
X498453Y119000D01*
X499453Y120000D01*
X498453D01*
X497453Y121000D01*
X496453Y120000D01*
X495453D01*
X496453Y119000D01*
X495453Y118000D01*
X496453D01*
X497453Y117000D01*
X481862D02*
X482862Y118000D01*
X483862D01*
X482862Y119000D01*
X483862Y120000D01*
X482862D01*
X481862Y121000D01*
X480862Y120000D01*
X479862D01*
X480862Y119000D01*
X479862Y118000D01*
X480862D01*
X481862Y117000D01*
X466272D02*
X467272Y118000D01*
X468272D01*
X467272Y119000D01*
X468272Y120000D01*
X467272D01*
X466272Y121000D01*
X465272Y120000D01*
X464272D01*
X465272Y119000D01*
X464272Y118000D01*
X465272D01*
X466272Y117000D01*
X450681D02*
X451681Y118000D01*
X452681D01*
X451681Y119000D01*
X452681Y120000D01*
X451681D01*
X450681Y121000D01*
X449681Y120000D01*
X448681D01*
X449681Y119000D01*
X448681Y118000D01*
X449681D01*
X450681Y117000D01*
X435090D02*
X436091Y118000D01*
X437090D01*
X436091Y119000D01*
X437090Y120000D01*
X436091D01*
X435090Y121000D01*
X434091Y120000D01*
X433090D01*
X434091Y119000D01*
X433090Y118000D01*
X434091D01*
X435090Y117000D01*
X419500D02*
X420500Y118000D01*
X421500D01*
X420500Y119000D01*
X421500Y120000D01*
X420500D01*
X419500Y121000D01*
X418500Y120000D01*
X417500D01*
X418500Y119000D01*
X417500Y118000D01*
X418500D01*
X419500Y117000D01*
X303000Y369500D02*
Y373500D01*
X307000D01*
Y369500D01*
X303000D01*
Y359500D02*
Y363500D01*
X307000D01*
Y359500D01*
X303000D01*
Y349500D02*
Y353500D01*
X307000D01*
Y349500D01*
X303000D01*
Y339500D02*
Y343500D01*
X307000D01*
Y339500D01*
X303000D01*
Y329500D02*
Y333500D01*
X307000D01*
Y329500D01*
X303000D01*
Y319500D02*
Y323500D01*
X307000D01*
Y319500D01*
X303000D01*
Y309500D02*
Y313500D01*
X307000D01*
Y309500D01*
X303000D01*
Y299500D02*
Y303500D01*
X307000D01*
Y299500D01*
X303000D01*
Y289500D02*
Y293500D01*
X307000D01*
Y289500D01*
X303000D01*
X333000Y369500D02*
Y373500D01*
X337000D01*
Y369500D01*
X333000D01*
Y359500D02*
Y363500D01*
X337000D01*
Y359500D01*
X333000D01*
Y349500D02*
Y353500D01*
X337000D01*
Y349500D01*
X333000D01*
Y339500D02*
Y343500D01*
X337000D01*
Y339500D01*
X333000D01*
Y329500D02*
Y333500D01*
X337000D01*
Y329500D01*
X333000D01*
Y319500D02*
Y323500D01*
X337000D01*
Y319500D01*
X333000D01*
Y309500D02*
Y313500D01*
X337000D01*
Y309500D01*
X333000D01*
Y299500D02*
Y303500D01*
X337000D01*
Y299500D01*
X333000D01*
Y289500D02*
Y293500D01*
X337000D01*
Y289500D01*
X333000D01*
X308500Y116000D02*
Y115000D01*
X310500D01*
Y116000D01*
X311500D01*
Y118000D01*
X310500D01*
Y119000D01*
X308500D01*
Y118000D01*
X307500D01*
Y116000D01*
X308500D01*
X298500D02*
Y115000D01*
X300500D01*
Y116000D01*
X301500D01*
Y118000D01*
X300500D01*
Y119000D01*
X298500D01*
Y118000D01*
X297500D01*
Y116000D01*
X298500D01*
X288500D02*
Y115000D01*
X290500D01*
Y116000D01*
X291500D01*
Y118000D01*
X290500D01*
Y119000D01*
X288500D01*
Y118000D01*
X287500D01*
Y116000D01*
X288500D01*
X278500D02*
Y115000D01*
X280500D01*
Y116000D01*
X281500D01*
Y118000D01*
X280500D01*
Y119000D01*
X278500D01*
Y118000D01*
X277500D01*
Y116000D01*
X278500D01*
X268500D02*
Y115000D01*
X270500D01*
Y116000D01*
X271500D01*
Y118000D01*
X270500D01*
Y119000D01*
X268500D01*
Y118000D01*
X267500D01*
Y116000D01*
X268500D01*
X258500D02*
Y115000D01*
X260500D01*
Y116000D01*
X261500D01*
Y118000D01*
X260500D01*
Y119000D01*
X258500D01*
Y118000D01*
X257500D01*
Y116000D01*
X258500D01*
X248500D02*
Y115000D01*
X250500D01*
Y116000D01*
X251500D01*
Y118000D01*
X250500D01*
Y119000D01*
X248500D01*
Y118000D01*
X247500D01*
Y116000D01*
X248500D01*
X238500D02*
Y115000D01*
X240500D01*
Y116000D01*
X241500D01*
Y118000D01*
X240500D01*
Y119000D01*
X238500D01*
Y118000D01*
X237500D01*
Y116000D01*
X238500D01*
X228500D02*
Y115000D01*
X230500D01*
Y116000D01*
X231500D01*
Y118000D01*
X230500D01*
Y119000D01*
X228500D01*
Y118000D01*
X227500D01*
Y116000D01*
X228500D01*
X218500D02*
Y115000D01*
X220500D01*
Y116000D01*
X221500D01*
Y118000D01*
X220500D01*
Y119000D01*
X218500D01*
Y118000D01*
X217500D01*
Y116000D01*
X218500D01*
X493500Y369500D02*
Y373500D01*
X497500D01*
Y369500D01*
X493500D01*
Y359500D02*
Y363500D01*
X497500D01*
Y359500D01*
X493500D01*
Y349500D02*
Y353500D01*
X497500D01*
Y349500D01*
X493500D01*
Y339500D02*
Y343500D01*
X497500D01*
Y339500D01*
X493500D01*
Y329500D02*
Y333500D01*
X497500D01*
Y329500D01*
X493500D01*
Y319500D02*
Y323500D01*
X497500D01*
Y319500D01*
X493500D01*
Y309500D02*
Y313500D01*
X497500D01*
Y309500D01*
X493500D01*
Y299500D02*
Y303500D01*
X497500D01*
Y299500D01*
X493500D01*
Y289500D02*
Y293500D01*
X497500D01*
Y289500D01*
X493500D01*
X523500Y369500D02*
Y373500D01*
X527500D01*
Y369500D01*
X523500D01*
Y359500D02*
Y363500D01*
X527500D01*
Y359500D01*
X523500D01*
Y349500D02*
Y353500D01*
X527500D01*
Y349500D01*
X523500D01*
Y339500D02*
Y343500D01*
X527500D01*
Y339500D01*
X523500D01*
Y329500D02*
Y333500D01*
X527500D01*
Y329500D01*
X523500D01*
Y319500D02*
Y323500D01*
X527500D01*
Y319500D01*
X523500D01*
Y309500D02*
Y313500D01*
X527500D01*
Y309500D01*
X523500D01*
Y299500D02*
Y303500D01*
X527500D01*
Y299500D01*
X523500D01*
Y289500D02*
Y293500D01*
X527500D01*
Y289500D01*
X523500D01*
X177000Y369500D02*
Y373500D01*
X181000D01*
Y369500D01*
X177000D01*
Y359500D02*
Y363500D01*
X181000D01*
Y359500D01*
X177000D01*
Y349500D02*
Y353500D01*
X181000D01*
Y349500D01*
X177000D01*
Y339500D02*
Y343500D01*
X181000D01*
Y339500D01*
X177000D01*
Y329500D02*
Y333500D01*
X181000D01*
Y329500D01*
X177000D01*
Y319500D02*
Y323500D01*
X181000D01*
Y319500D01*
X177000D01*
Y309500D02*
Y313500D01*
X181000D01*
Y309500D01*
X177000D01*
Y299500D02*
Y303500D01*
X181000D01*
Y299500D01*
X177000D01*
Y289500D02*
Y293500D01*
X181000D01*
Y289500D01*
X177000D01*
X207000Y369500D02*
Y373500D01*
X211000D01*
Y369500D01*
X207000D01*
Y359500D02*
Y363500D01*
X211000D01*
Y359500D01*
X207000D01*
Y349500D02*
Y353500D01*
X211000D01*
Y349500D01*
X207000D01*
Y339500D02*
Y343500D01*
X211000D01*
Y339500D01*
X207000D01*
Y329500D02*
Y333500D01*
X211000D01*
Y329500D01*
X207000D01*
Y319500D02*
Y323500D01*
X211000D01*
Y319500D01*
X207000D01*
Y309500D02*
Y313500D01*
X211000D01*
Y309500D01*
X207000D01*
Y299500D02*
Y303500D01*
X211000D01*
Y299500D01*
X207000D01*
Y289500D02*
Y293500D01*
X211000D01*
Y289500D01*
X207000D01*
X396500Y289000D02*
Y293000D01*
X400500D01*
Y289000D01*
X396500D01*
Y299000D02*
Y303000D01*
X400500D01*
Y299000D01*
X396500D01*
Y309000D02*
Y313000D01*
X400500D01*
Y309000D01*
X396500D01*
Y319000D02*
Y323000D01*
X400500D01*
Y319000D01*
X396500D01*
Y329000D02*
Y333000D01*
X400500D01*
Y329000D01*
X396500D01*
Y339000D02*
Y343000D01*
X400500D01*
Y339000D01*
X396500D01*
Y349000D02*
Y353000D01*
X400500D01*
Y349000D01*
X396500D01*
Y359000D02*
Y363000D01*
X400500D01*
Y359000D01*
X396500D01*
Y369000D02*
Y373000D01*
X400500D01*
Y369000D01*
X396500D01*
X366500Y289000D02*
Y293000D01*
X370500D01*
Y289000D01*
X366500D01*
Y299000D02*
Y303000D01*
X370500D01*
Y299000D01*
X366500D01*
Y309000D02*
Y313000D01*
X370500D01*
Y309000D01*
X366500D01*
Y319000D02*
Y323000D01*
X370500D01*
Y319000D01*
X366500D01*
Y329000D02*
Y333000D01*
X370500D01*
Y329000D01*
X366500D01*
Y339000D02*
Y343000D01*
X370500D01*
Y339000D01*
X366500D01*
Y349000D02*
Y353000D01*
X370500D01*
Y349000D01*
X366500D01*
Y359000D02*
Y363000D01*
X370500D01*
Y359000D01*
X366500D01*
Y369000D02*
Y373000D01*
X370500D01*
Y369000D01*
X366500D01*
X461000Y289000D02*
Y293000D01*
X465000D01*
Y289000D01*
X461000D01*
Y299000D02*
Y303000D01*
X465000D01*
Y299000D01*
X461000D01*
Y309000D02*
Y313000D01*
X465000D01*
Y309000D01*
X461000D01*
Y319000D02*
Y323000D01*
X465000D01*
Y319000D01*
X461000D01*
Y329000D02*
Y333000D01*
X465000D01*
Y329000D01*
X461000D01*
Y339000D02*
Y343000D01*
X465000D01*
Y339000D01*
X461000D01*
Y349000D02*
Y353000D01*
X465000D01*
Y349000D01*
X461000D01*
Y359000D02*
Y363000D01*
X465000D01*
Y359000D01*
X461000D01*
Y369000D02*
Y373000D01*
X465000D01*
Y369000D01*
X461000D01*
X431000Y289000D02*
Y293000D01*
X435000D01*
Y289000D01*
X431000D01*
Y299000D02*
Y303000D01*
X435000D01*
Y299000D01*
X431000D01*
Y309000D02*
Y313000D01*
X435000D01*
Y309000D01*
X431000D01*
Y319000D02*
Y323000D01*
X435000D01*
Y319000D01*
X431000D01*
Y329000D02*
Y333000D01*
X435000D01*
Y329000D01*
X431000D01*
Y339000D02*
Y343000D01*
X435000D01*
Y339000D01*
X431000D01*
Y349000D02*
Y353000D01*
X435000D01*
Y349000D01*
X431000D01*
Y359000D02*
Y363000D01*
X435000D01*
Y359000D01*
X431000D01*
Y369000D02*
Y373000D01*
X435000D01*
Y369000D01*
X431000D01*
X177000Y391000D02*
Y395000D01*
X181000D01*
Y391000D01*
X177000D01*
Y400843D02*
Y404843D01*
X181000D01*
Y400843D01*
X177000D01*
Y410685D02*
Y414685D01*
X181000D01*
Y410685D01*
X177000D01*
Y420528D02*
Y424528D01*
X181000D01*
Y420528D01*
X177000D01*
Y430370D02*
Y434370D01*
X181000D01*
Y430370D01*
X177000D01*
Y440213D02*
Y444213D01*
X181000D01*
Y440213D01*
X177000D01*
Y450055D02*
Y454055D01*
X181000D01*
Y450055D01*
X177000D01*
Y459898D02*
Y463898D01*
X181000D01*
Y459898D01*
X177000D01*
Y469740D02*
Y473740D01*
X181000D01*
Y469740D01*
X177000D01*
Y479583D02*
Y483583D01*
X181000D01*
Y479583D01*
X177000D01*
X206500Y391000D02*
Y395000D01*
X210500D01*
Y391000D01*
X206500D01*
Y400843D02*
Y404843D01*
X210500D01*
Y400843D01*
X206500D01*
Y410685D02*
Y414685D01*
X210500D01*
Y410685D01*
X206500D01*
Y420528D02*
Y424528D01*
X210500D01*
Y420528D01*
X206500D01*
Y430370D02*
Y434370D01*
X210500D01*
Y430370D01*
X206500D01*
Y440213D02*
Y444213D01*
X210500D01*
Y440213D01*
X206500D01*
Y450055D02*
Y454055D01*
X210500D01*
Y450055D01*
X206500D01*
Y459898D02*
Y463898D01*
X210500D01*
Y459898D01*
X206500D01*
Y469740D02*
Y473740D01*
X210500D01*
Y469740D01*
X206500D01*
Y479583D02*
Y483583D01*
X210500D01*
Y479583D01*
X206500D01*
X270000Y391000D02*
Y395000D01*
X274000D01*
Y391000D01*
X270000D01*
Y400843D02*
Y404843D01*
X274000D01*
Y400843D01*
X270000D01*
Y410685D02*
Y414685D01*
X274000D01*
Y410685D01*
X270000D01*
Y420528D02*
Y424528D01*
X274000D01*
Y420528D01*
X270000D01*
Y430370D02*
Y434370D01*
X274000D01*
Y430370D01*
X270000D01*
Y440213D02*
Y444213D01*
X274000D01*
Y440213D01*
X270000D01*
Y450055D02*
Y454055D01*
X274000D01*
Y450055D01*
X270000D01*
Y459898D02*
Y463898D01*
X274000D01*
Y459898D01*
X270000D01*
Y469740D02*
Y473740D01*
X274000D01*
Y469740D01*
X270000D01*
Y479583D02*
Y483583D01*
X274000D01*
Y479583D01*
X270000D01*
X303500Y390657D02*
Y394657D01*
X307500D01*
Y390657D01*
X303500D01*
Y400500D02*
Y404500D01*
X307500D01*
Y400500D01*
X303500D01*
Y410343D02*
Y414342D01*
X307500D01*
Y410343D01*
X303500D01*
Y420185D02*
Y424185D01*
X307500D01*
Y420185D01*
X303500D01*
Y430028D02*
Y434028D01*
X307500D01*
Y430028D01*
X303500D01*
Y439870D02*
Y443870D01*
X307500D01*
Y439870D01*
X303500D01*
Y449713D02*
Y453713D01*
X307500D01*
Y449713D01*
X303500D01*
Y459555D02*
Y463555D01*
X307500D01*
Y459555D01*
X303500D01*
Y469398D02*
Y473398D01*
X307500D01*
Y469398D01*
X303500D01*
Y479240D02*
Y483240D01*
X307500D01*
Y479240D01*
X303500D01*
X332961Y390657D02*
Y394657D01*
X336961D01*
Y390657D01*
X332961D01*
Y400500D02*
Y404500D01*
X336961D01*
Y400500D01*
X332961D01*
Y410343D02*
Y414342D01*
X336961D01*
Y410343D01*
X332961D01*
Y420185D02*
Y424185D01*
X336961D01*
Y420185D01*
X332961D01*
Y430028D02*
Y434028D01*
X336961D01*
Y430028D01*
X332961D01*
Y439870D02*
Y443870D01*
X336961D01*
Y439870D01*
X332961D01*
Y449713D02*
Y453713D01*
X336961D01*
Y449713D01*
X332961D01*
Y459555D02*
Y463555D01*
X336961D01*
Y459555D01*
X332961D01*
Y469398D02*
Y473398D01*
X336961D01*
Y469398D01*
X332961D01*
Y479240D02*
Y483240D01*
X336961D01*
Y479240D01*
X332961D01*
X367000Y390657D02*
Y394657D01*
X371000D01*
Y390657D01*
X367000D01*
Y400500D02*
Y404500D01*
X371000D01*
Y400500D01*
X367000D01*
Y410343D02*
Y414342D01*
X371000D01*
Y410343D01*
X367000D01*
Y420185D02*
Y424185D01*
X371000D01*
Y420185D01*
X367000D01*
Y430028D02*
Y434028D01*
X371000D01*
Y430028D01*
X367000D01*
Y439870D02*
Y443870D01*
X371000D01*
Y439870D01*
X367000D01*
Y449713D02*
Y453713D01*
X371000D01*
Y449713D01*
X367000D01*
Y459555D02*
Y463555D01*
X371000D01*
Y459555D01*
X367000D01*
Y469398D02*
Y473398D01*
X371000D01*
Y469398D01*
X367000D01*
Y479240D02*
Y483240D01*
X371000D01*
Y479240D01*
X367000D01*
X396461Y390657D02*
Y394657D01*
X400461D01*
Y390657D01*
X396461D01*
Y400500D02*
Y404500D01*
X400461D01*
Y400500D01*
X396461D01*
Y410343D02*
Y414342D01*
X400461D01*
Y410343D01*
X396461D01*
Y420185D02*
Y424185D01*
X400461D01*
Y420185D01*
X396461D01*
Y430028D02*
Y434028D01*
X400461D01*
Y430028D01*
X396461D01*
Y439870D02*
Y443870D01*
X400461D01*
Y439870D01*
X396461D01*
Y449713D02*
Y453713D01*
X400461D01*
Y449713D01*
X396461D01*
Y459555D02*
Y463555D01*
X400461D01*
Y459555D01*
X396461D01*
Y469398D02*
Y473398D01*
X400461D01*
Y469398D01*
X396461D01*
Y479240D02*
Y483240D01*
X400461D01*
Y479240D01*
X396461D01*
X431000Y391000D02*
Y395000D01*
X435000D01*
Y391000D01*
X431000D01*
Y400843D02*
Y404843D01*
X435000D01*
Y400843D01*
X431000D01*
Y410685D02*
Y414685D01*
X435000D01*
Y410685D01*
X431000D01*
Y420528D02*
Y424528D01*
X435000D01*
Y420528D01*
X431000D01*
Y430370D02*
Y434370D01*
X435000D01*
Y430370D01*
X431000D01*
Y440213D02*
Y444213D01*
X435000D01*
Y440213D01*
X431000D01*
Y450055D02*
Y454055D01*
X435000D01*
Y450055D01*
X431000D01*
Y459898D02*
Y463898D01*
X435000D01*
Y459898D01*
X431000D01*
Y469740D02*
Y473740D01*
X435000D01*
Y469740D01*
X431000D01*
Y479583D02*
Y483583D01*
X435000D01*
Y479583D01*
X431000D01*
X460461Y390972D02*
Y394972D01*
X464461D01*
Y390972D01*
X460461D01*
Y400815D02*
Y404815D01*
X464461D01*
Y400815D01*
X460461D01*
Y410658D02*
Y414657D01*
X464461D01*
Y410658D01*
X460461D01*
Y420500D02*
Y424500D01*
X464461D01*
Y420500D01*
X460461D01*
Y430342D02*
Y434342D01*
X464461D01*
Y430342D01*
X460461D01*
Y440185D02*
Y444185D01*
X464461D01*
Y440185D01*
X460461D01*
Y450028D02*
Y454028D01*
X464461D01*
Y450028D01*
X460461D01*
Y459870D02*
Y463870D01*
X464461D01*
Y459870D01*
X460461D01*
Y469713D02*
Y473713D01*
X464461D01*
Y469713D01*
X460461D01*
Y479555D02*
Y483555D01*
X464461D01*
Y479555D01*
X460461D01*
X494961Y390000D02*
Y394000D01*
X498961D01*
Y390000D01*
X494961D01*
Y399843D02*
Y403842D01*
X498961D01*
Y399843D01*
X494961D01*
Y409685D02*
Y413685D01*
X498961D01*
Y409685D01*
X494961D01*
Y419528D02*
Y423528D01*
X498961D01*
Y419528D01*
X494961D01*
Y429370D02*
Y433370D01*
X498961D01*
Y429370D01*
X494961D01*
Y439213D02*
Y443213D01*
X498961D01*
Y439213D01*
X494961D01*
Y449055D02*
Y453055D01*
X498961D01*
Y449055D01*
X494961D01*
Y458898D02*
Y462898D01*
X498961D01*
Y458898D01*
X494961D01*
Y468740D02*
Y472740D01*
X498961D01*
Y468740D01*
X494961D01*
Y478583D02*
Y482583D01*
X498961D01*
Y478583D01*
X494961D01*
X524461Y390287D02*
Y394287D01*
X528461D01*
Y390287D01*
X524461D01*
Y400130D02*
Y404130D01*
X528461D01*
Y400130D01*
X524461D01*
Y409972D02*
Y413972D01*
X528461D01*
Y409972D01*
X524461D01*
Y419815D02*
Y423815D01*
X528461D01*
Y419815D01*
X524461D01*
Y429658D02*
Y433658D01*
X528461D01*
Y429658D01*
X524461D01*
Y439500D02*
Y443500D01*
X528461D01*
Y439500D01*
X524461D01*
Y449342D02*
Y453342D01*
X528461D01*
Y449342D01*
X524461D01*
Y459185D02*
Y463185D01*
X528461D01*
Y459185D01*
X524461D01*
Y469028D02*
Y473028D01*
X528461D01*
Y469028D01*
X524461D01*
Y478870D02*
Y482870D01*
X528461D01*
Y478870D01*
X524461D01*
X240500Y391000D02*
Y395000D01*
X244500D01*
Y391000D01*
X240500D01*
Y400843D02*
Y404843D01*
X244500D01*
Y400843D01*
X240500D01*
Y410685D02*
Y414685D01*
X244500D01*
Y410685D01*
X240500D01*
Y420528D02*
Y424528D01*
X244500D01*
Y420528D01*
X240500D01*
Y430370D02*
Y434370D01*
X244500D01*
Y430370D01*
X240500D01*
Y440213D02*
Y444213D01*
X244500D01*
Y440213D01*
X240500D01*
Y450055D02*
Y454055D01*
X244500D01*
Y450055D01*
X240500D01*
Y459898D02*
Y463898D01*
X244500D01*
Y459898D01*
X240500D01*
Y469740D02*
Y473740D01*
X244500D01*
Y469740D01*
X240500D01*
Y479583D02*
Y483583D01*
X244500D01*
Y479583D01*
X240500D01*
X269500Y289500D02*
Y293500D01*
X273500D01*
Y289500D01*
X269500D01*
Y299500D02*
Y303500D01*
X273500D01*
Y299500D01*
X269500D01*
Y309500D02*
Y313500D01*
X273500D01*
Y309500D01*
X269500D01*
Y319500D02*
Y323500D01*
X273500D01*
Y319500D01*
X269500D01*
Y329500D02*
Y333500D01*
X273500D01*
Y329500D01*
X269500D01*
Y339500D02*
Y343500D01*
X273500D01*
Y339500D01*
X269500D01*
Y349500D02*
Y353500D01*
X273500D01*
Y349500D01*
X269500D01*
Y359500D02*
Y363500D01*
X273500D01*
Y359500D01*
X269500D01*
Y369500D02*
Y373500D01*
X273500D01*
Y369500D01*
X269500D01*
X239500Y289500D02*
Y293500D01*
X243500D01*
Y289500D01*
X239500D01*
Y299500D02*
Y303500D01*
X243500D01*
Y299500D01*
X239500D01*
Y309500D02*
Y313500D01*
X243500D01*
Y309500D01*
X239500D01*
Y319500D02*
Y323500D01*
X243500D01*
Y319500D01*
X239500D01*
Y329500D02*
Y333500D01*
X243500D01*
Y329500D01*
X239500D01*
Y339500D02*
Y343500D01*
X243500D01*
Y339500D01*
X239500D01*
Y349500D02*
Y353500D01*
X243500D01*
Y349500D01*
X239500D01*
Y359500D02*
Y363500D01*
X243500D01*
Y359500D01*
X239500D01*
Y369500D02*
Y373500D01*
X243500D01*
Y369500D01*
X239500D01*
X539000Y137500D02*
X540000D01*
X541000Y138500D01*
X542000Y137500D01*
X543000D01*
Y138500D01*
X542000Y139500D01*
X543000Y140500D01*
Y141500D01*
X542000D01*
X541000Y140500D01*
X540000Y141500D01*
X539000D01*
Y140500D01*
X540000Y139500D01*
X539000Y138500D01*
Y137500D01*
Y142500D02*
X540000D01*
X541000Y143500D01*
X542000Y142500D01*
X543000D01*
Y143500D01*
X542000Y144500D01*
X543000Y145500D01*
Y146500D01*
X542000D01*
X541000Y145500D01*
X540000Y146500D01*
X539000D01*
Y145500D01*
X540000Y144500D01*
X539000Y143500D01*
Y142500D01*
Y147500D02*
X540000D01*
X541000Y148500D01*
X542000Y147500D01*
X543000D01*
Y148500D01*
X542000Y149500D01*
X543000Y150500D01*
Y151500D01*
X542000D01*
X541000Y150500D01*
X540000Y151500D01*
X539000D01*
Y150500D01*
X540000Y149500D01*
X539000Y148500D01*
Y147500D01*
X507500Y119638D02*
X509500Y121638D01*
X511500Y119638D01*
X509500Y117638D01*
X507500Y119638D01*
X517500Y129638D02*
X519500Y131638D01*
X521500Y129638D01*
X519500Y127638D01*
X517500Y129638D01*
X527500Y119638D02*
X529500Y121638D01*
X531500Y119638D01*
X529500Y117638D01*
X527500Y119638D01*
X324000Y117000D02*
X325000Y118000D01*
X326000D01*
X325000Y119000D01*
X326000Y120000D01*
X325000D01*
X324000Y121000D01*
X323000Y120000D01*
X322000D01*
X323000Y119000D01*
X322000Y118000D01*
X323000D01*
X324000Y117000D01*
X339591D02*
X340591Y118000D01*
X341590D01*
X340591Y119000D01*
X341590Y120000D01*
X340591D01*
X339591Y121000D01*
X338591Y120000D01*
X337591D01*
X338591Y119000D01*
X337591Y118000D01*
X338591D01*
X339591Y117000D01*
X355181D02*
X356181Y118000D01*
X357181D01*
X356181Y119000D01*
X357181Y120000D01*
X356181D01*
X355181Y121000D01*
X354181Y120000D01*
X353181D01*
X354181Y119000D01*
X353181Y118000D01*
X354181D01*
X355181Y117000D01*
X370772D02*
X371772Y118000D01*
X372772D01*
X371772Y119000D01*
X372772Y120000D01*
X371772D01*
X370772Y121000D01*
X369772Y120000D01*
X368772D01*
X369772Y119000D01*
X368772Y118000D01*
X369772D01*
X370772Y117000D01*
X386362D02*
X387362Y118000D01*
X388362D01*
X387362Y119000D01*
X388362Y120000D01*
X387362D01*
X386362Y121000D01*
X385362Y120000D01*
X384362D01*
X385362Y119000D01*
X384362Y118000D01*
X385362D01*
X386362Y117000D01*
X401953D02*
X402953Y118000D01*
X403953D01*
X402953Y119000D01*
X403953Y120000D01*
X402953D01*
X401953Y121000D01*
X400953Y120000D01*
X399953D01*
X400953Y119000D01*
X399953Y118000D01*
X400953D01*
X401953Y117000D01*
X182500Y113500D02*
X180500Y117500D01*
X184500D01*
X182500Y113500D01*
X192500D02*
X190500Y117500D01*
X194500D01*
X192500Y113500D01*
X202500D02*
X200500Y117500D01*
X204500D01*
X202500Y113500D01*
X538000Y484000D02*
Y488000D01*
X542000D01*
Y484000D01*
X538000D01*
X538800Y484800D02*
Y487200D01*
X541200D01*
Y484800D01*
X538800D01*
X538500Y108500D02*
Y112500D01*
X542500D01*
Y108500D01*
X538500D01*
X539300Y109300D02*
Y111700D01*
X541700D01*
Y109300D01*
X539300D01*
X162000Y484000D02*
Y488000D01*
X166000D01*
Y484000D01*
X162000D01*
X162800Y484800D02*
Y487200D01*
X165200D01*
Y484800D01*
X162800D01*
X160500Y108000D02*
Y112000D01*
X164500D01*
Y108000D01*
X160500D01*
X161300Y108800D02*
Y111200D01*
X163700D01*
Y108800D01*
X161300D01*
X487422Y187422D02*
X488422Y189422D01*
X487422Y191422D01*
X489422Y190422D01*
X491422Y191422D01*
X490422Y189422D01*
X491422Y187422D01*
X489422Y188422D01*
X487422Y187422D01*
X484500Y168000D02*
X485500Y170000D01*
X484500Y172000D01*
X486500Y171000D01*
X488500Y172000D01*
X487500Y170000D01*
X488500Y168000D01*
X486500Y169000D01*
X484500Y168000D01*
X157500Y162000D02*
X158500Y164000D01*
X157500Y166000D01*
X159500Y165000D01*
X161500Y166000D01*
X160500Y164000D01*
X161500Y162000D01*
X159500Y163000D01*
X157500Y162000D01*
X163500D02*
X164500Y164000D01*
X163500Y166000D01*
X165500Y165000D01*
X167500Y166000D01*
X166500Y164000D01*
X167500Y162000D01*
X165500Y163000D01*
X163500Y162000D01*
X535500Y277500D02*
X536500Y279500D01*
X535500Y281500D01*
X537500Y280500D01*
X539500Y281500D01*
X538500Y279500D01*
X539500Y277500D01*
X537500Y278500D01*
X535500Y277500D01*
X492500Y278000D02*
X493500Y280000D01*
X492500Y282000D01*
X494500Y281000D01*
X496500Y282000D01*
X495500Y280000D01*
X496500Y278000D01*
X494500Y279000D01*
X492500Y278000D01*
X431000Y277500D02*
X432000Y279500D01*
X431000Y281500D01*
X433000Y280500D01*
X435000Y281500D01*
X434000Y279500D01*
X435000Y277500D01*
X433000Y278500D01*
X431000Y277500D01*
X365500Y278000D02*
X366500Y280000D01*
X365500Y282000D01*
X367500Y281000D01*
X369500Y282000D01*
X368500Y280000D01*
X369500Y278000D01*
X367500Y279000D01*
X365500Y278000D01*
X303000Y278500D02*
X304000Y280500D01*
X303000Y282500D01*
X305000Y281500D01*
X307000Y282500D01*
X306000Y280500D01*
X307000Y278500D01*
X305000Y279500D01*
X303000Y278500D01*
X241000D02*
X242000Y280500D01*
X241000Y282500D01*
X243000Y281500D01*
X245000Y282500D01*
X244000Y280500D01*
X245000Y278500D01*
X243000Y279500D01*
X241000Y278500D01*
D51*
X539500Y338784D02*
X539271Y339713D01*
X538636Y340429D01*
X537741Y340769D01*
X536791Y340653D01*
X536003Y340110D01*
X535558Y339262D01*
Y338305D01*
X536003Y337457D01*
X536791Y336913D01*
X537741Y336798D01*
X538636Y337138D01*
X539271Y337854D01*
X539500Y338784D01*
Y374217D02*
X539271Y375146D01*
X538636Y375863D01*
X537741Y376202D01*
X536791Y376087D01*
X536003Y375543D01*
X535558Y374695D01*
Y373738D01*
X536003Y372890D01*
X536791Y372346D01*
X537741Y372231D01*
X538636Y372571D01*
X539271Y373287D01*
X539500Y374217D01*
X353500Y335784D02*
X353271Y336713D01*
X352636Y337429D01*
X351741Y337769D01*
X350791Y337653D01*
X350003Y337110D01*
X349558Y336262D01*
Y335305D01*
X350003Y334457D01*
X350791Y333913D01*
X351741Y333798D01*
X352636Y334138D01*
X353271Y334854D01*
X353500Y335784D01*
Y371217D02*
X353271Y372146D01*
X352636Y372863D01*
X351741Y373202D01*
X350791Y373087D01*
X350003Y372543D01*
X349558Y371695D01*
Y370738D01*
X350003Y369890D01*
X350791Y369346D01*
X351741Y369231D01*
X352636Y369571D01*
X353271Y370287D01*
X353500Y371217D01*
X290000D02*
X289771Y372146D01*
X289136Y372863D01*
X288241Y373202D01*
X287291Y373087D01*
X286503Y372543D01*
X286058Y371695D01*
Y370738D01*
X286503Y369890D01*
X287291Y369346D01*
X288241Y369231D01*
X289136Y369571D01*
X289771Y370287D01*
X290000Y371217D01*
Y335784D02*
X289771Y336713D01*
X289136Y337429D01*
X288241Y337769D01*
X287291Y337653D01*
X286503Y337110D01*
X286058Y336262D01*
Y335305D01*
X286503Y334457D01*
X287291Y333913D01*
X288241Y333798D01*
X289136Y334138D01*
X289771Y334854D01*
X290000Y335784D01*
X539500Y330716D02*
X539271Y331646D01*
X538636Y332363D01*
X537741Y332702D01*
X536791Y332587D01*
X536003Y332043D01*
X535558Y331195D01*
Y330238D01*
X536003Y329390D01*
X536791Y328847D01*
X537741Y328731D01*
X538636Y329071D01*
X539271Y329787D01*
X539500Y330716D01*
Y295284D02*
X539271Y296213D01*
X538636Y296929D01*
X537741Y297269D01*
X536791Y297153D01*
X536003Y296610D01*
X535558Y295762D01*
Y294805D01*
X536003Y293957D01*
X536791Y293413D01*
X537741Y293298D01*
X538636Y293637D01*
X539271Y294354D01*
X539500Y295284D01*
X479500Y370717D02*
X479271Y371646D01*
X478636Y372362D01*
X477741Y372702D01*
X476791Y372587D01*
X476003Y372043D01*
X475558Y371195D01*
Y370238D01*
X476003Y369390D01*
X476791Y368847D01*
X477741Y368731D01*
X478636Y369071D01*
X479271Y369787D01*
X479500Y370717D01*
Y335283D02*
X479271Y336213D01*
X478636Y336929D01*
X477741Y337269D01*
X476791Y337154D01*
X476003Y336610D01*
X475558Y335762D01*
Y334805D01*
X476003Y333957D01*
X476791Y333413D01*
X477741Y333298D01*
X478636Y333637D01*
X479271Y334354D01*
X479500Y335283D01*
X479000Y325716D02*
X478771Y326646D01*
X478136Y327362D01*
X477241Y327702D01*
X476291Y327587D01*
X475503Y327043D01*
X475058Y326195D01*
Y325238D01*
X475503Y324390D01*
X476291Y323847D01*
X477241Y323731D01*
X478136Y324071D01*
X478771Y324787D01*
X479000Y325716D01*
Y290283D02*
X478771Y291213D01*
X478136Y291929D01*
X477241Y292269D01*
X476291Y292154D01*
X475503Y291610D01*
X475058Y290762D01*
Y289805D01*
X475503Y288957D01*
X476291Y288413D01*
X477241Y288298D01*
X478136Y288637D01*
X478771Y289354D01*
X479000Y290283D01*
X416500Y370216D02*
X416271Y371146D01*
X415636Y371863D01*
X414741Y372202D01*
X413791Y372087D01*
X413003Y371543D01*
X412558Y370695D01*
Y369738D01*
X413003Y368890D01*
X413791Y368347D01*
X414741Y368231D01*
X415636Y368571D01*
X416271Y369287D01*
X416500Y370216D01*
Y334784D02*
X416271Y335713D01*
X415636Y336429D01*
X414741Y336769D01*
X413791Y336653D01*
X413003Y336110D01*
X412558Y335262D01*
Y334305D01*
X413003Y333457D01*
X413791Y332913D01*
X414741Y332798D01*
X415636Y333137D01*
X416271Y333854D01*
X416500Y334784D01*
Y326217D02*
X416271Y327146D01*
X415636Y327863D01*
X414741Y328202D01*
X413791Y328087D01*
X413003Y327543D01*
X412558Y326695D01*
Y325738D01*
X413003Y324890D01*
X413791Y324346D01*
X414741Y324231D01*
X415636Y324571D01*
X416271Y325287D01*
X416500Y326217D01*
Y290784D02*
X416271Y291713D01*
X415636Y292429D01*
X414741Y292769D01*
X413791Y292653D01*
X413003Y292110D01*
X412558Y291262D01*
Y290305D01*
X413003Y289457D01*
X413791Y288913D01*
X414741Y288798D01*
X415636Y289138D01*
X416271Y289854D01*
X416500Y290784D01*
X353500Y326217D02*
X353271Y327146D01*
X352636Y327863D01*
X351741Y328202D01*
X350791Y328087D01*
X350003Y327543D01*
X349558Y326695D01*
Y325738D01*
X350003Y324890D01*
X350791Y324346D01*
X351741Y324231D01*
X352636Y324571D01*
X353271Y325287D01*
X353500Y326217D01*
Y290784D02*
X353271Y291713D01*
X352636Y292429D01*
X351741Y292769D01*
X350791Y292653D01*
X350003Y292110D01*
X349558Y291262D01*
Y290305D01*
X350003Y289457D01*
X350791Y288913D01*
X351741Y288798D01*
X352636Y289138D01*
X353271Y289854D01*
X353500Y290784D01*
X290000Y327217D02*
X289771Y328146D01*
X289136Y328863D01*
X288241Y329202D01*
X287291Y329087D01*
X286503Y328543D01*
X286058Y327695D01*
Y326738D01*
X286503Y325890D01*
X287291Y325346D01*
X288241Y325231D01*
X289136Y325571D01*
X289771Y326287D01*
X290000Y327217D01*
Y291783D02*
X289771Y292713D01*
X289136Y293429D01*
X288241Y293769D01*
X287291Y293653D01*
X286503Y293110D01*
X286058Y292262D01*
Y291305D01*
X286503Y290457D01*
X287291Y289913D01*
X288241Y289798D01*
X289136Y290138D01*
X289771Y290854D01*
X290000Y291783D01*
X227000Y326716D02*
X226771Y327646D01*
X226136Y328362D01*
X225241Y328702D01*
X224291Y328587D01*
X223503Y328043D01*
X223058Y327195D01*
Y326238D01*
X223503Y325390D01*
X224291Y324847D01*
X225241Y324731D01*
X226136Y325071D01*
X226771Y325787D01*
X227000Y326716D01*
Y291283D02*
X226771Y292213D01*
X226136Y292929D01*
X225241Y293269D01*
X224291Y293154D01*
X223503Y292610D01*
X223058Y291762D01*
Y290805D01*
X223503Y289957D01*
X224291Y289413D01*
X225241Y289298D01*
X226136Y289637D01*
X226771Y290354D01*
X227000Y291283D01*
Y371217D02*
X226771Y372146D01*
X226136Y372863D01*
X225241Y373202D01*
X224291Y373087D01*
X223503Y372543D01*
X223058Y371695D01*
Y370738D01*
X223503Y369890D01*
X224291Y369346D01*
X225241Y369231D01*
X226136Y369571D01*
X226771Y370287D01*
X227000Y371217D01*
Y335784D02*
X226771Y336713D01*
X226136Y337429D01*
X225241Y337769D01*
X224291Y337653D01*
X223503Y337110D01*
X223058Y336262D01*
Y335305D01*
X223503Y334457D01*
X224291Y333913D01*
X225241Y333798D01*
X226136Y334138D01*
X226771Y334854D01*
X227000Y335784D01*
X214717Y182500D02*
X214487Y183429D01*
X213853Y184146D01*
X212958Y184485D01*
X212007Y184370D01*
X211220Y183826D01*
X210775Y182979D01*
Y182021D01*
X211220Y181174D01*
X212007Y180630D01*
X212958Y180515D01*
X213853Y180854D01*
X214487Y181571D01*
X214717Y182500D01*
X179283D02*
X179054Y183429D01*
X178420Y184146D01*
X177524Y184485D01*
X176574Y184370D01*
X175786Y183826D01*
X175342Y182979D01*
Y182021D01*
X175786Y181174D01*
X176574Y180630D01*
X177524Y180515D01*
X178420Y180854D01*
X179054Y181571D01*
X179283Y182500D01*
X278217Y181500D02*
X277987Y182429D01*
X277353Y183146D01*
X276458Y183485D01*
X275507Y183370D01*
X274720Y182826D01*
X274275Y181979D01*
Y181021D01*
X274720Y180174D01*
X275507Y179630D01*
X276458Y179515D01*
X277353Y179854D01*
X277987Y180571D01*
X278217Y181500D01*
X242783D02*
X242554Y182429D01*
X241920Y183146D01*
X241024Y183485D01*
X240074Y183370D01*
X239286Y182826D01*
X238842Y181979D01*
Y181021D01*
X239286Y180174D01*
X240074Y179630D01*
X241024Y179515D01*
X241920Y179854D01*
X242554Y180571D01*
X242783Y181500D01*
X341717Y181000D02*
X341487Y181929D01*
X340853Y182646D01*
X339958Y182985D01*
X339007Y182870D01*
X338219Y182326D01*
X337775Y181479D01*
Y180521D01*
X338219Y179674D01*
X339007Y179130D01*
X339958Y179015D01*
X340853Y179354D01*
X341487Y180071D01*
X341717Y181000D01*
X306283D02*
X306054Y181929D01*
X305420Y182646D01*
X304524Y182985D01*
X303574Y182870D01*
X302786Y182326D01*
X302342Y181479D01*
Y180521D01*
X302786Y179674D01*
X303574Y179130D01*
X304524Y179015D01*
X305420Y179354D01*
X306054Y180071D01*
X306283Y181000D01*
X406716Y181500D02*
X406487Y182429D01*
X405853Y183146D01*
X404958Y183485D01*
X404007Y183370D01*
X403220Y182826D01*
X402775Y181979D01*
Y181021D01*
X403220Y180174D01*
X404007Y179630D01*
X404958Y179515D01*
X405853Y179854D01*
X406487Y180571D01*
X406716Y181500D01*
X371284D02*
X371054Y182429D01*
X370420Y183146D01*
X369525Y183485D01*
X368574Y183370D01*
X367786Y182826D01*
X367342Y181979D01*
Y181021D01*
X367786Y180174D01*
X368574Y179630D01*
X369525Y179515D01*
X370420Y179854D01*
X371054Y180571D01*
X371284Y181500D01*
X469216D02*
X468987Y182429D01*
X468353Y183146D01*
X467458Y183485D01*
X466507Y183370D01*
X465720Y182826D01*
X465275Y181979D01*
Y181021D01*
X465720Y180174D01*
X466507Y179630D01*
X467458Y179515D01*
X468353Y179854D01*
X468987Y180571D01*
X469216Y181500D01*
X433783D02*
X433554Y182429D01*
X432920Y183146D01*
X432024Y183485D01*
X431074Y183370D01*
X430286Y182826D01*
X429842Y181979D01*
Y181021D01*
X430286Y180174D01*
X431074Y179630D01*
X432024Y179515D01*
X432920Y179854D01*
X433554Y180571D01*
X433783Y181500D01*
X534717Y179500D02*
X534487Y180429D01*
X533853Y181146D01*
X532958Y181485D01*
X532007Y181370D01*
X531219Y180826D01*
X530775Y179979D01*
Y179021D01*
X531219Y178174D01*
X532007Y177630D01*
X532958Y177515D01*
X533853Y177854D01*
X534487Y178571D01*
X534717Y179500D01*
X499284D02*
X499054Y180429D01*
X498420Y181146D01*
X497524Y181485D01*
X496574Y181370D01*
X495786Y180826D01*
X495342Y179979D01*
Y179021D01*
X495786Y178174D01*
X496574Y177630D01*
X497524Y177515D01*
X498420Y177854D01*
X499054Y178571D01*
X499284Y179500D01*
X179283Y193000D02*
X179054Y193929D01*
X178420Y194646D01*
X177524Y194985D01*
X176574Y194870D01*
X175786Y194326D01*
X175342Y193479D01*
Y192521D01*
X175786Y191674D01*
X176574Y191130D01*
X177524Y191015D01*
X178420Y191354D01*
X179054Y192071D01*
X179283Y193000D01*
X214717D02*
X214487Y193929D01*
X213853Y194646D01*
X212958Y194985D01*
X212007Y194870D01*
X211220Y194326D01*
X210775Y193479D01*
Y192521D01*
X211220Y191674D01*
X212007Y191130D01*
X212958Y191015D01*
X213853Y191354D01*
X214487Y192071D01*
X214717Y193000D01*
Y214000D02*
X214487Y214929D01*
X213853Y215646D01*
X212958Y215985D01*
X212007Y215870D01*
X211220Y215326D01*
X210775Y214479D01*
Y213521D01*
X211220Y212674D01*
X212007Y212130D01*
X212958Y212015D01*
X213853Y212354D01*
X214487Y213071D01*
X214717Y214000D01*
X179283D02*
X179054Y214929D01*
X178420Y215646D01*
X177524Y215985D01*
X176574Y215870D01*
X175786Y215326D01*
X175342Y214479D01*
Y213521D01*
X175786Y212674D01*
X176574Y212130D01*
X177524Y212015D01*
X178420Y212354D01*
X179054Y213071D01*
X179283Y214000D01*
X214717Y203500D02*
X214487Y204429D01*
X213853Y205146D01*
X212958Y205485D01*
X212007Y205370D01*
X211220Y204826D01*
X210775Y203979D01*
Y203021D01*
X211220Y202174D01*
X212007Y201630D01*
X212958Y201515D01*
X213853Y201854D01*
X214487Y202571D01*
X214717Y203500D01*
X179283D02*
X179054Y204429D01*
X178420Y205146D01*
X177524Y205485D01*
X176574Y205370D01*
X175786Y204826D01*
X175342Y203979D01*
Y203021D01*
X175786Y202174D01*
X176574Y201630D01*
X177524Y201515D01*
X178420Y201854D01*
X179054Y202571D01*
X179283Y203500D01*
X214717Y224500D02*
X214487Y225429D01*
X213853Y226146D01*
X212958Y226485D01*
X212007Y226370D01*
X211220Y225826D01*
X210775Y224979D01*
Y224021D01*
X211220Y223174D01*
X212007Y222630D01*
X212958Y222515D01*
X213853Y222854D01*
X214487Y223571D01*
X214717Y224500D01*
X179283D02*
X179054Y225429D01*
X178420Y226146D01*
X177524Y226485D01*
X176574Y226370D01*
X175786Y225826D01*
X175342Y224979D01*
Y224021D01*
X175786Y223174D01*
X176574Y222630D01*
X177524Y222515D01*
X178420Y222854D01*
X179054Y223571D01*
X179283Y224500D01*
X242783Y192500D02*
X242554Y193429D01*
X241920Y194146D01*
X241024Y194485D01*
X240074Y194370D01*
X239286Y193826D01*
X238842Y192979D01*
Y192021D01*
X239286Y191174D01*
X240074Y190630D01*
X241024Y190515D01*
X241920Y190854D01*
X242554Y191571D01*
X242783Y192500D01*
X278217D02*
X277987Y193429D01*
X277353Y194146D01*
X276458Y194485D01*
X275507Y194370D01*
X274720Y193826D01*
X274275Y192979D01*
Y192021D01*
X274720Y191174D01*
X275507Y190630D01*
X276458Y190515D01*
X277353Y190854D01*
X277987Y191571D01*
X278217Y192500D01*
X306283Y191500D02*
X306054Y192429D01*
X305420Y193146D01*
X304524Y193485D01*
X303574Y193370D01*
X302786Y192826D01*
X302342Y191979D01*
Y191021D01*
X302786Y190174D01*
X303574Y189630D01*
X304524Y189515D01*
X305420Y189854D01*
X306054Y190571D01*
X306283Y191500D01*
X341717D02*
X341487Y192429D01*
X340853Y193146D01*
X339958Y193485D01*
X339007Y193370D01*
X338219Y192826D01*
X337775Y191979D01*
Y191021D01*
X338219Y190174D01*
X339007Y189630D01*
X339958Y189515D01*
X340853Y189854D01*
X341487Y190571D01*
X341717Y191500D01*
Y202000D02*
X341487Y202929D01*
X340853Y203646D01*
X339958Y203985D01*
X339007Y203870D01*
X338219Y203326D01*
X337775Y202479D01*
Y201521D01*
X338219Y200674D01*
X339007Y200130D01*
X339958Y200015D01*
X340853Y200354D01*
X341487Y201071D01*
X341717Y202000D01*
X306283D02*
X306054Y202929D01*
X305420Y203646D01*
X304524Y203985D01*
X303574Y203870D01*
X302786Y203326D01*
X302342Y202479D01*
Y201521D01*
X302786Y200674D01*
X303574Y200130D01*
X304524Y200015D01*
X305420Y200354D01*
X306054Y201071D01*
X306283Y202000D01*
X342216Y212500D02*
X341987Y213429D01*
X341353Y214146D01*
X340458Y214485D01*
X339507Y214370D01*
X338720Y213826D01*
X338275Y212979D01*
Y212021D01*
X338720Y211174D01*
X339507Y210630D01*
X340458Y210515D01*
X341353Y210854D01*
X341987Y211571D01*
X342216Y212500D01*
X306784D02*
X306554Y213429D01*
X305920Y214146D01*
X305025Y214485D01*
X304074Y214370D01*
X303286Y213826D01*
X302842Y212979D01*
Y212021D01*
X303286Y211174D01*
X304074Y210630D01*
X305025Y210515D01*
X305920Y210854D01*
X306554Y211571D01*
X306784Y212500D01*
X341717Y223000D02*
X341487Y223929D01*
X340853Y224646D01*
X339958Y224985D01*
X339007Y224870D01*
X338219Y224326D01*
X337775Y223479D01*
Y222521D01*
X338219Y221674D01*
X339007Y221130D01*
X339958Y221015D01*
X340853Y221354D01*
X341487Y222071D01*
X341717Y223000D01*
X306283D02*
X306054Y223929D01*
X305420Y224646D01*
X304524Y224985D01*
X303574Y224870D01*
X302786Y224326D01*
X302342Y223479D01*
Y222521D01*
X302786Y221674D01*
X303574Y221130D01*
X304524Y221015D01*
X305420Y221354D01*
X306054Y222071D01*
X306283Y223000D01*
X371284Y192000D02*
X371054Y192929D01*
X370420Y193646D01*
X369525Y193985D01*
X368574Y193870D01*
X367786Y193326D01*
X367342Y192479D01*
Y191521D01*
X367786Y190674D01*
X368574Y190130D01*
X369525Y190015D01*
X370420Y190354D01*
X371054Y191071D01*
X371284Y192000D01*
X406716D02*
X406487Y192929D01*
X405853Y193646D01*
X404958Y193985D01*
X404007Y193870D01*
X403220Y193326D01*
X402775Y192479D01*
Y191521D01*
X403220Y190674D01*
X404007Y190130D01*
X404958Y190015D01*
X405853Y190354D01*
X406487Y191071D01*
X406716Y192000D01*
Y202500D02*
X406487Y203429D01*
X405853Y204146D01*
X404958Y204485D01*
X404007Y204370D01*
X403220Y203826D01*
X402775Y202979D01*
Y202021D01*
X403220Y201174D01*
X404007Y200630D01*
X404958Y200515D01*
X405853Y200854D01*
X406487Y201571D01*
X406716Y202500D01*
X371284D02*
X371054Y203429D01*
X370420Y204146D01*
X369525Y204485D01*
X368574Y204370D01*
X367786Y203826D01*
X367342Y202979D01*
Y202021D01*
X367786Y201174D01*
X368574Y200630D01*
X369525Y200515D01*
X370420Y200854D01*
X371054Y201571D01*
X371284Y202500D01*
X406716Y213000D02*
X406487Y213929D01*
X405853Y214646D01*
X404958Y214985D01*
X404007Y214870D01*
X403220Y214326D01*
X402775Y213479D01*
Y212521D01*
X403220Y211674D01*
X404007Y211130D01*
X404958Y211015D01*
X405853Y211354D01*
X406487Y212071D01*
X406716Y213000D01*
X371284D02*
X371054Y213929D01*
X370420Y214646D01*
X369525Y214985D01*
X368574Y214870D01*
X367786Y214326D01*
X367342Y213479D01*
Y212521D01*
X367786Y211674D01*
X368574Y211130D01*
X369525Y211015D01*
X370420Y211354D01*
X371054Y212071D01*
X371284Y213000D01*
X406716Y223500D02*
X406487Y224429D01*
X405853Y225146D01*
X404958Y225485D01*
X404007Y225370D01*
X403220Y224826D01*
X402775Y223979D01*
Y223021D01*
X403220Y222174D01*
X404007Y221630D01*
X404958Y221515D01*
X405853Y221854D01*
X406487Y222571D01*
X406716Y223500D01*
X371284D02*
X371054Y224429D01*
X370420Y225146D01*
X369525Y225485D01*
X368574Y225370D01*
X367786Y224826D01*
X367342Y223979D01*
Y223021D01*
X367786Y222174D01*
X368574Y221630D01*
X369525Y221515D01*
X370420Y221854D01*
X371054Y222571D01*
X371284Y223500D01*
X433783Y192000D02*
X433554Y192929D01*
X432920Y193646D01*
X432024Y193985D01*
X431074Y193870D01*
X430286Y193326D01*
X429842Y192479D01*
Y191521D01*
X430286Y190674D01*
X431074Y190130D01*
X432024Y190015D01*
X432920Y190354D01*
X433554Y191071D01*
X433783Y192000D01*
X469216D02*
X468987Y192929D01*
X468353Y193646D01*
X467458Y193985D01*
X466507Y193870D01*
X465720Y193326D01*
X465275Y192479D01*
Y191521D01*
X465720Y190674D01*
X466507Y190130D01*
X467458Y190015D01*
X468353Y190354D01*
X468987Y191071D01*
X469216Y192000D01*
Y202500D02*
X468987Y203429D01*
X468353Y204146D01*
X467458Y204485D01*
X466507Y204370D01*
X465720Y203826D01*
X465275Y202979D01*
Y202021D01*
X465720Y201174D01*
X466507Y200630D01*
X467458Y200515D01*
X468353Y200854D01*
X468987Y201571D01*
X469216Y202500D01*
X433783D02*
X433554Y203429D01*
X432920Y204146D01*
X432024Y204485D01*
X431074Y204370D01*
X430286Y203826D01*
X429842Y202979D01*
Y202021D01*
X430286Y201174D01*
X431074Y200630D01*
X432024Y200515D01*
X432920Y200854D01*
X433554Y201571D01*
X433783Y202500D01*
X469216Y213000D02*
X468987Y213929D01*
X468353Y214646D01*
X467458Y214985D01*
X466507Y214870D01*
X465720Y214326D01*
X465275Y213479D01*
Y212521D01*
X465720Y211674D01*
X466507Y211130D01*
X467458Y211015D01*
X468353Y211354D01*
X468987Y212071D01*
X469216Y213000D01*
X433783D02*
X433554Y213929D01*
X432920Y214646D01*
X432024Y214985D01*
X431074Y214870D01*
X430286Y214326D01*
X429842Y213479D01*
Y212521D01*
X430286Y211674D01*
X431074Y211130D01*
X432024Y211015D01*
X432920Y211354D01*
X433554Y212071D01*
X433783Y213000D01*
X469216Y223500D02*
X468987Y224429D01*
X468353Y225146D01*
X467458Y225485D01*
X466507Y225370D01*
X465720Y224826D01*
X465275Y223979D01*
Y223021D01*
X465720Y222174D01*
X466507Y221630D01*
X467458Y221515D01*
X468353Y221854D01*
X468987Y222571D01*
X469216Y223500D01*
X433783D02*
X433554Y224429D01*
X432920Y225146D01*
X432024Y225485D01*
X431074Y225370D01*
X430286Y224826D01*
X429842Y223979D01*
Y223021D01*
X430286Y222174D01*
X431074Y221630D01*
X432024Y221515D01*
X432920Y221854D01*
X433554Y222571D01*
X433783Y223500D01*
X498783Y190500D02*
X498554Y191429D01*
X497920Y192146D01*
X497024Y192485D01*
X496074Y192370D01*
X495286Y191826D01*
X494842Y190979D01*
Y190021D01*
X495286Y189174D01*
X496074Y188630D01*
X497024Y188515D01*
X497920Y188854D01*
X498554Y189571D01*
X498783Y190500D01*
X534216D02*
X533987Y191429D01*
X533353Y192146D01*
X532458Y192485D01*
X531507Y192370D01*
X530720Y191826D01*
X530275Y190979D01*
Y190021D01*
X530720Y189174D01*
X531507Y188630D01*
X532458Y188515D01*
X533353Y188854D01*
X533987Y189571D01*
X534216Y190500D01*
Y201000D02*
X533987Y201929D01*
X533353Y202646D01*
X532458Y202985D01*
X531507Y202870D01*
X530720Y202326D01*
X530275Y201479D01*
Y200521D01*
X530720Y199674D01*
X531507Y199130D01*
X532458Y199015D01*
X533353Y199354D01*
X533987Y200071D01*
X534216Y201000D01*
X498783D02*
X498554Y201929D01*
X497920Y202646D01*
X497024Y202985D01*
X496074Y202870D01*
X495286Y202326D01*
X494842Y201479D01*
Y200521D01*
X495286Y199674D01*
X496074Y199130D01*
X497024Y199015D01*
X497920Y199354D01*
X498554Y200071D01*
X498783Y201000D01*
X534216Y211500D02*
X533987Y212429D01*
X533353Y213146D01*
X532458Y213485D01*
X531507Y213370D01*
X530720Y212826D01*
X530275Y211979D01*
Y211021D01*
X530720Y210174D01*
X531507Y209630D01*
X532458Y209515D01*
X533353Y209854D01*
X533987Y210571D01*
X534216Y211500D01*
X498783D02*
X498554Y212429D01*
X497920Y213146D01*
X497024Y213485D01*
X496074Y213370D01*
X495286Y212826D01*
X494842Y211979D01*
Y211021D01*
X495286Y210174D01*
X496074Y209630D01*
X497024Y209515D01*
X497920Y209854D01*
X498554Y210571D01*
X498783Y211500D01*
X534216Y222000D02*
X533987Y222929D01*
X533353Y223646D01*
X532458Y223985D01*
X531507Y223870D01*
X530720Y223326D01*
X530275Y222479D01*
Y221521D01*
X530720Y220674D01*
X531507Y220130D01*
X532458Y220015D01*
X533353Y220354D01*
X533987Y221071D01*
X534216Y222000D01*
X498783D02*
X498554Y222929D01*
X497920Y223646D01*
X497024Y223985D01*
X496074Y223870D01*
X495286Y223326D01*
X494842Y222479D01*
Y221521D01*
X495286Y220674D01*
X496074Y220130D01*
X497024Y220015D01*
X497920Y220354D01*
X498554Y221071D01*
X498783Y222000D01*
X278217Y203000D02*
X277987Y203929D01*
X277353Y204646D01*
X276458Y204985D01*
X275507Y204870D01*
X274720Y204326D01*
X274275Y203479D01*
Y202521D01*
X274720Y201674D01*
X275507Y201130D01*
X276458Y201015D01*
X277353Y201354D01*
X277987Y202071D01*
X278217Y203000D01*
X242783D02*
X242554Y203929D01*
X241920Y204646D01*
X241024Y204985D01*
X240074Y204870D01*
X239286Y204326D01*
X238842Y203479D01*
Y202521D01*
X239286Y201674D01*
X240074Y201130D01*
X241024Y201015D01*
X241920Y201354D01*
X242554Y202071D01*
X242783Y203000D01*
X278217Y224000D02*
X277987Y224929D01*
X277353Y225646D01*
X276458Y225985D01*
X275507Y225870D01*
X274720Y225326D01*
X274275Y224479D01*
Y223521D01*
X274720Y222674D01*
X275507Y222130D01*
X276458Y222015D01*
X277353Y222354D01*
X277987Y223071D01*
X278217Y224000D01*
X242783D02*
X242554Y224929D01*
X241920Y225646D01*
X241024Y225985D01*
X240074Y225870D01*
X239286Y225326D01*
X238842Y224479D01*
Y223521D01*
X239286Y222674D01*
X240074Y222130D01*
X241024Y222015D01*
X241920Y222354D01*
X242554Y223071D01*
X242783Y224000D01*
X278217Y213500D02*
X277987Y214429D01*
X277353Y215146D01*
X276458Y215485D01*
X275507Y215370D01*
X274720Y214826D01*
X274275Y213979D01*
Y213021D01*
X274720Y212174D01*
X275507Y211630D01*
X276458Y211515D01*
X277353Y211854D01*
X277987Y212571D01*
X278217Y213500D01*
X242783D02*
X242554Y214429D01*
X241920Y215146D01*
X241024Y215485D01*
X240074Y215370D01*
X239286Y214826D01*
X238842Y213979D01*
Y213021D01*
X239286Y212174D01*
X240074Y211630D01*
X241024Y211515D01*
X241920Y211854D01*
X242554Y212571D01*
X242783Y213500D01*
X543500Y194717D02*
X543271Y195646D01*
X542636Y196362D01*
X541741Y196702D01*
X540791Y196587D01*
X540003Y196043D01*
X539558Y195195D01*
Y194238D01*
X540003Y193390D01*
X540791Y192847D01*
X541741Y192731D01*
X542636Y193071D01*
X543271Y193787D01*
X543500Y194717D01*
Y159283D02*
X543271Y160213D01*
X542636Y160929D01*
X541741Y161269D01*
X540791Y161153D01*
X540003Y160610D01*
X539558Y159762D01*
Y158805D01*
X540003Y157957D01*
X540791Y157413D01*
X541741Y157298D01*
X542636Y157638D01*
X543271Y158354D01*
X543500Y159283D01*
X185284Y133000D02*
X185054Y133929D01*
X184420Y134646D01*
X183525Y134985D01*
X182574Y134870D01*
X181786Y134326D01*
X181342Y133479D01*
Y132521D01*
X181786Y131674D01*
X182574Y131130D01*
X183525Y131015D01*
X184420Y131354D01*
X185054Y132071D01*
X185284Y133000D01*
X220717D02*
X220487Y133929D01*
X219853Y134646D01*
X218958Y134985D01*
X218007Y134870D01*
X217219Y134326D01*
X216775Y133479D01*
Y132521D01*
X217219Y131674D01*
X218007Y131130D01*
X218958Y131015D01*
X219853Y131354D01*
X220487Y132071D01*
X220717Y133000D01*
M02*
